<?xml version="1.0" encoding="utf-8"?>
<!-- Generator: Adobe Illustrator 19.1.0, SVG Export Plug-In . SVG Version: 6.00 Build 0)  -->
<!DOCTYPE svg PUBLIC "-//W3C//DTD SVG 1.1//EN" "http://www.w3.org/Graphics/SVG/1.1/DTD/svg11.dtd">
<svg version="1.1" id="Layer_1" xmlns="http://www.w3.org/2000/svg" xmlns:xlink="http://www.w3.org/1999/xlink" x="0px" y="0px"
	 viewBox="0 0 1514.7 863.5" style="enable-background:new 0 0 1514.7 863.5;" xml:space="preserve">
<style type="text/css">
	.st0{display:none;}
	.st1{display:inline;fill:#FFFFFF;fill-opacity:0.67;stroke:#000000;stroke-width:2;stroke-miterlimit:10;}
	.st2{display:inline;fill:#0B0B0B;}
	.st3{font-family:'OpenSans-Extrabold';}
	.st4{font-size:27px;}
	.st5{display:inline;}
	.st6{fill:#FFFFFF;}
	.st7{fill:none;stroke:#000000;stroke-width:2;stroke-miterlimit:10;}
	.st8{clip-path:url(#SVGID_2_);fill:#C13133;}
	.st9{clip-path:url(#SVGID_4_);fill:#F5C119;}
	.st10{clip-path:url(#SVGID_6_);fill:#F5C119;}
	.st11{clip-path:url(#SVGID_8_);fill:#F5C119;}
	.st12{clip-path:url(#SVGID_10_);fill:#F5C119;}
	.st13{clip-path:url(#SVGID_12_);fill:#F5C119;}
	.st14{clip-path:url(#SVGID_14_);fill:#F5C119;}
	.st15{clip-path:url(#SVGID_16_);fill:#F5C119;}
	.st16{clip-path:url(#SVGID_18_);fill:#F5C119;}
	.st17{clip-path:url(#SVGID_20_);fill:#F5C119;}
	.st18{display:inline;fill:none;stroke:#010101;stroke-width:5;stroke-miterlimit:10;}
	.st19{fill:#1E448B;}
	.st20{fill:#F8F7F8;}
	.st21{clip-path:url(#SVGID_22_);}
	.st22{opacity:0.45;clip-path:url(#SVGID_24_);}
	.st23{clip-path:url(#SVGID_26_);fill:#00AEEF;}
	.st24{clip-path:url(#SVGID_28_);fill:#00AEEF;}
	.st25{clip-path:url(#SVGID_24_);fill:#010101;}
	.st26{clip-path:url(#SVGID_22_);fill:none;stroke:#FFFFFF;stroke-linecap:round;stroke-linejoin:round;}
	.st27{display:inline;fill:#FFFFFF;}
	.st28{font-size:12px;}
	.st29{clip-path:url(#SVGID_30_);fill:#DA3628;}
	.st30{clip-path:url(#SVGID_32_);fill:#DA3628;}
	.st31{clip-path:url(#SVGID_34_);fill:#DA3628;}
	.st32{clip-path:url(#SVGID_36_);fill:#DA3628;}
	.st33{clip-path:url(#SVGID_38_);fill:#DA3628;}
	.st34{clip-path:url(#SVGID_40_);fill:#DA3628;}
	.st35{clip-path:url(#SVGID_42_);fill:#DA3628;}
	.st36{clip-path:url(#SVGID_44_);fill:#DA3628;}
	.st37{fill:#81B2D3;}
	.st38{fill:#CC334D;}
	.st39{fill:#C03352;}
	.st40{clip-path:url(#SVGID_46_);fill:#D2D3D4;}
	.st41{clip-path:url(#SVGID_46_);fill:#2D3F50;}
	.st42{clip-path:url(#SVGID_46_);fill:#3A484E;}
	.st43{fill:#C25C45;}
	.st44{fill:#F8B051;}
	.st45{fill:#4FBA6F;}
	.st46{fill:#8F8F8E;}
	.st47{fill:#D2D3D4;}
</style>
<g class="st0">
	<rect id="shop_now_rect" x="461.4" y="365.1" class="st1" width="184.3" height="61.3"/>
	<text transform="matrix(1 0 0 1 475.9753 406.9713)" class="st2 st3 st4">SHOP NOW</text>
</g>
<g class="st0">
	<g class="st5">
		
			<image style="overflow:visible;opacity:0.75;" width="714" height="1145" xlink:href="17CFD1454FA3C63B.png"  transform="matrix(0.24 0 0 0.24 913.0717 250.2646)">
		</image>
		<g>
			<rect x="936.1" y="259.3" class="st6" width="139.3" height="242.6"/>
			<rect x="936.1" y="259.3" class="st7" width="139.3" height="242.6"/>
		</g>
	</g>
	<g class="st5">
		<g>
			<defs>
				<path id="SVGID_1_" d="M987.2,322.2l-9.7-4.3l-6.7,1.2c0,0-5.6,3.1-6.8,4.5c0,0,0,0,0,0.1c-2.1,1.7,1.4,11.2,1.5,16.7
					c0.5,7.8,1.4,21.7,1.4,21.7s0.4,2.4,9.3,2.5c8.9,0.1,8.4-1.4,8.4-1.4c1.4-1.4,1.4-22.6,1.5-28.4
					C986.2,328.5,987.2,322.2,987.2,322.2z"/>
			</defs>
			<clipPath id="SVGID_2_">
				<use xlink:href="#SVGID_1_"  style="overflow:visible;"/>
			</clipPath>
			<rect x="960.7" y="315.2" class="st8" width="29.2" height="51.9"/>
		</g>
		<g>
			<defs>
				<path id="SVGID_3_" d="M976.3,333.6c-0.3,0-0.5,0.1-0.6,0.2c-0.2,0.2-0.2,0.4-0.2,0.6c0,0.5,0.3,1,0.7,1.4
					c0.5,0.4,1.1,0.5,1.9,0.5c0-0.7-0.2-1.4-0.4-1.9C977.3,333.9,976.8,333.6,976.3,333.6z M978,337.4h-0.9c-0.4,0-1-0.2-1.5-0.5
					c-0.6-0.3-1-0.7-1.2-1.3c-0.2,0.4-0.4,0.9-0.6,1.3c0.1,1.4,0.2,2.3,0.3,2.9c0.2,0.6,0.5,0.9,0.9,0.9c0.6,0,1.3-0.3,1.9-0.8
					C977.4,339.5,977.8,338.6,978,337.4z M975.5,328.5c0-0.7-0.1-1.1-0.3-1.1c-0.2,0-0.4,0.4-0.6,1.2c-0.2,0.8-0.4,1.9-0.6,3.2
					c-0.2,1.3-0.3,2.6-0.3,4C974.9,332.3,975.5,329.9,975.5,328.5z M976.7,332.6c0.8,0,1.5,0.3,2.1,0.9c0.5,0.6,0.8,1.4,0.8,2.5
					c0.7-0.2,1.4-0.5,2-0.8s0.9-0.5,0.9-0.5c0.1,0,0.2,0.1,0.2,0.3c0,0.2-0.3,0.5-0.8,0.8c-0.5,0.4-1.3,0.7-2.3,1.1
					c-0.2,1.6-0.9,2.8-2,3.7c-1.1,0.8-2.2,1.3-3.3,1.3c-1.1,0-1.9-0.4-2.2-1.2s-0.5-2.1-0.5-3.8c0-1.7,0.1-3.3,0.4-4.9
					c0.3-1.5,0.6-2.8,1-3.6c0.4-0.9,0.8-1.6,1.3-2c0.4-0.4,0.8-0.7,1.2-0.7c0.2,0,0.4,0.2,0.5,0.6c0.2,0.4,0.2,1,0.2,1.6
					c0,1.4-0.3,3-0.8,4.8C975.7,332.7,976.2,332.6,976.7,332.6z"/>
			</defs>
			<clipPath id="SVGID_4_">
				<use xlink:href="#SVGID_3_"  style="overflow:visible;"/>
			</clipPath>
			<rect x="969" y="323.2" class="st9" width="16.4" height="21.5"/>
		</g>
		<g>
			<defs>
				<path id="SVGID_5_" d="M986.2,354.3l-0.1-3.8c-6.7,1-13.5,1-20.1,0.1c0,1.3,0.1,2.5,0.1,3.8
					C972.7,355.2,979.5,355.2,986.2,354.3z"/>
			</defs>
			<clipPath id="SVGID_6_">
				<use xlink:href="#SVGID_5_"  style="overflow:visible;"/>
			</clipPath>
			<rect x="963.3" y="347.9" class="st10" width="25.5" height="9.7"/>
		</g>
		<g>
			<defs>
				<path id="SVGID_7_" d="M986.3,349.6l-0.1-5.4c-6.7,1-13.6,1-20.4,0.1c0.1,1,0.3,2.3,0.3,4.3c0,0.4,0,0.7,0.1,1.1
					C972.8,350.5,979.6,350.5,986.3,349.6z"/>
			</defs>
			<clipPath id="SVGID_8_">
				<use xlink:href="#SVGID_7_"  style="overflow:visible;"/>
			</clipPath>
			<rect x="963.2" y="341.6" class="st11" width="25.8" height="11.3"/>
		</g>
		<g>
			<defs>
				<path id="SVGID_9_" d="M985.8,357.2l-0.1-2.4c-6.3,1-12.8,1-19.1,0.1v2.4C973,358.2,979.4,358.1,985.8,357.2z"/>
			</defs>
			<clipPath id="SVGID_10_">
				<use xlink:href="#SVGID_9_"  style="overflow:visible;"/>
			</clipPath>
			<rect x="964" y="352.2" class="st12" width="24.4" height="8.4"/>
		</g>
		<g>
			<defs>
				<path id="SVGID_11_" d="M964.2,323.3c-2.2,0.3-6.3,27.5-6.2,26.1c0.3-3.3-1.2,15.5-0.5,24.4c0,0,1,0.8,3.3,1.1
					c1.8,0.2,2.5-0.5,2.5-0.5s0.8-24.9,0.9-25.3c0.1-0.7,2.4-15.3,2.4-15.7C966.5,333.2,964.7,323.3,964.2,323.3z"/>
			</defs>
			<clipPath id="SVGID_12_">
				<use xlink:href="#SVGID_11_"  style="overflow:visible;"/>
			</clipPath>
			<rect x="954.6" y="320.7" class="st13" width="14.6" height="56.9"/>
		</g>
		<g>
			<defs>
				<path id="SVGID_13_" d="M963.4,374.5c0,0,0-0.7,0.1-1.9c-3.4,0.5-5.6-0.5-6.2-1c0.1,0.8,0.1,1.6,0.1,2.3c0,0,1.1,0.9,3.5,1.1
					C962.7,375.3,963.4,374.5,963.4,374.5z"/>
			</defs>
			<clipPath id="SVGID_14_">
				<use xlink:href="#SVGID_13_"  style="overflow:visible;"/>
			</clipPath>
			<rect x="954.5" y="369" class="st14" width="11.5" height="8.8"/>
		</g>
		<g>
			<defs>
				<path id="SVGID_15_" d="M987.1,322.8c2.2,0.3,6.3,27.5,6.2,26.1c-0.3-3.3,1.2,15.5,0.5,24.4c0,0-1,0.8-3.3,1.1
					c-1.8,0.2-2.5-0.5-2.5-0.5s-0.8-24.9-0.9-25.3c-0.1-0.7-2.4-15.3-2.4-15.7C984.7,332.6,986.5,322.7,987.1,322.8z"/>
			</defs>
			<clipPath id="SVGID_16_">
				<use xlink:href="#SVGID_15_"  style="overflow:visible;"/>
			</clipPath>
			<rect x="982" y="320.2" class="st15" width="14.6" height="56.9"/>
		</g>
		<g>
			<defs>
				<path id="SVGID_17_" d="M987.8,374c0,0,0-0.7-0.1-1.9c3.4,0.5,5.6-0.5,6.2-1c-0.1,0.8-0.1,1.6-0.1,2.3c0,0-1.1,0.9-3.5,1.1
					C988.5,374.7,987.8,374,987.8,374z"/>
			</defs>
			<clipPath id="SVGID_18_">
				<use xlink:href="#SVGID_17_"  style="overflow:visible;"/>
			</clipPath>
			<rect x="985.1" y="368.4" class="st16" width="11.5" height="8.7"/>
		</g>
		<g>
			<defs>
				<path id="SVGID_19_" d="M978.9,315.7c0,0-0.1-0.1-0.2-0.1c0.1,0.1,0.2,0.2,0.2,0.3c0,0.5-1.6,0.9-3.5,0.9s-3.5-0.4-3.5-0.9
					c0-0.1,0.1-0.2,0.1-0.3c-0.1,0-0.1,0.1-0.1,0.1l-0.3,3.2c0,0,2.8,2.5,7.6,0L978.9,315.7z"/>
			</defs>
			<clipPath id="SVGID_20_">
				<use xlink:href="#SVGID_19_"  style="overflow:visible;"/>
			</clipPath>
			<rect x="968.9" y="313" class="st17" width="12.9" height="9.6"/>
		</g>
	</g>
	<rect x="955.2" y="473" class="st5" width="102.5" height="18.4"/>
	<line class="st18" x1="957.2" y1="385.8" x2="993.2" y2="385.8"/>
	<line class="st18" x1="954.6" y1="450.4" x2="990.6" y2="450.4"/>
	<line class="st18" x1="1012.6" y1="385.8" x2="1048.6" y2="385.8"/>
	<g class="st5">
		<path class="st19" d="M1027.4,309.3h-5.2l-0.5,13.9c0.2-0.1,0.4-0.3,0.5-0.4C1025.8,319.8,1027.6,315.3,1027.4,309.3z"/>
		<path class="st19" d="M1043.5,322.9c0.2,0.1,0.3,0.3,0.5,0.4l-1-13.9h-4.7C1038.2,315.4,1039.9,319.9,1043.5,322.9z"/>
		<g>
			<path class="st19" d="M1044,328.2l0.1-4.3c-0.2-0.2-0.5-0.4-0.7-0.6c-2.6-2.1-5.6-6.3-5.4-14h-10.2c0.2,7.7-2.8,11.8-5.4,13.9
				c-0.3,0.2-0.5,0.4-0.8,0.6l0.2,5.1l0.4,22.2l-0.5,24.1l6.5,0.1l1.9-24.5l3.5-27.1l3.9,27.4l2.4,24.1l6.6,0.1l-2-25L1044,328.2z
				 M1034.3,323.5c0,0.1-0.1,0.2-0.1,0.2c0,0,0,0-0.1,0c-0.2,0-0.7-0.1-1.3-0.8c-1.3-1.7-1.3-5.6-1.2-8.5c0-0.1,0.1-0.2,0.1-0.2h2.4
				c0.1,0,0.1,0.1,0.1,0.2V323.5z"/>
			<path class="st19" d="M1033,322.6c0.4,0.6,0.8,0.7,1,0.7v-8.7h-2.1C1031.6,319.6,1032.4,321.7,1033,322.6z"/>
		</g>
		<path class="st20" d="M1043.1,311.4h-20.9c-0.1,0-0.1,0.1-0.1,0.2c0,0.1,0,0.2,0.1,0.2h20.9c0.1,0,0.1-0.1,0.1-0.2
			C1043.2,311.5,1043.2,311.4,1043.1,311.4z"/>
	</g>
	<g class="st5">
		<defs>
			<rect id="SVGID_21_" x="952.6" y="410.1" width="49" height="25.7"/>
		</defs>
		<clipPath id="SVGID_22_">
			<use xlink:href="#SVGID_21_"  style="overflow:visible;"/>
		</clipPath>
		<g class="st21">
			<defs>
				<rect id="SVGID_23_" x="952.6" y="410.1" width="49" height="25.7"/>
			</defs>
			<clipPath id="SVGID_24_">
				<use xlink:href="#SVGID_23_"  style="overflow:visible;"/>
			</clipPath>
			<g class="st22">
				<g>
					<defs>
						<rect id="SVGID_25_" x="947.6" y="416.8" width="28.8" height="17.6"/>
					</defs>
					<clipPath id="SVGID_26_">
						<use xlink:href="#SVGID_25_"  style="overflow:visible;"/>
					</clipPath>
					<rect x="954.8" y="422.4" class="st23" width="14.3" height="11.2"/>
				</g>
			</g>
			<g class="st22">
				<g>
					<defs>
						<rect id="SVGID_27_" x="969.7" y="416.8" width="28.8" height="17.6"/>
					</defs>
					<clipPath id="SVGID_28_">
						<use xlink:href="#SVGID_27_"  style="overflow:visible;"/>
					</clipPath>
					<rect x="977" y="422.4" class="st24" width="14.3" height="11.2"/>
				</g>
			</g>
			<path class="st25" d="M955.8,424l12-10.8l-0.7-0.8l0.5,0.9l-0.1-0.2l0.1,0.2l-0.1-0.2l0.1,0.2c0,0,0.5-0.3,1.2-0.6
				c0.3-0.1,0.7-0.3,1.1-0.4c0.3-0.1,0.7-0.2,0.9-0.2c0.1,0,0.2,0,0.2,0l0,0l0,0l0-0.1l-0.1,0l0,0l0-0.1l-0.1,0l0,0l0,0l0,0l0,0l0,0
				c0,0,0,0,0,0.1l2.1-0.2c0-0.3-0.1-0.6-0.3-0.9c-0.2-0.4-0.6-0.7-1-0.9c-0.4-0.2-0.8-0.2-1.1-0.2c-0.5,0-1,0.1-1.5,0.2
				c-0.7,0.2-1.4,0.5-1.9,0.7c-0.5,0.2-0.8,0.4-0.8,0.4l-0.1,0.1l-12.1,10.9L955.8,424z"/>
			<path class="st25" d="M968.5,424.1L968.5,424.1c0,0,0.6-0.4,1.5-0.7c0.9-0.3,2-0.7,3.1-0.6c0.6,0,1.1,0.1,1.7,0.3
				c0.5,0.2,1,0.5,1.5,0.9l1.5-1.5c-0.7-0.7-1.4-1.1-2.2-1.4c-0.8-0.3-1.6-0.4-2.4-0.4c-1.5,0-3,0.4-4,0.8c-1,0.4-1.7,0.8-1.8,0.8
				L968.5,424.1z"/>
			<path class="st25" d="M966.5,434.7v-1H957c-0.6,0-1.2-0.2-1.6-0.7c-0.4-0.4-0.7-1-0.7-1.6v-5.5c0-0.6,0.3-1.2,0.7-1.6
				c0.4-0.4,1-0.7,1.6-0.7h9.5c0.6,0,1.2,0.3,1.6,0.7c0.4,0.4,0.7,1,0.7,1.6v5.5c0,0.6-0.3,1.2-0.7,1.6c-0.4,0.4-1,0.7-1.6,0.7
				V434.7v1c2.4,0,4.3-1.9,4.3-4.3v-5.5c0-2.4-1.9-4.3-4.3-4.3H957c-2.4,0-4.3,1.9-4.3,4.3v5.5c0,1.2,0.5,2.3,1.3,3.1
				c0.8,0.8,1.9,1.3,3.1,1.3h9.5V434.7z"/>
			<path class="st25" d="M988.9,434.7v-1h-9.5c-0.6,0-1.2-0.2-1.6-0.7c-0.4-0.4-0.7-1-0.7-1.6v-5.5c0-0.6,0.3-1.2,0.7-1.6
				c0.4-0.4,1-0.7,1.6-0.7h9.5c0.6,0,1.2,0.3,1.6,0.7c0.4,0.4,0.7,1,0.7,1.6v5.5c0,0.6-0.3,1.2-0.7,1.6c-0.4,0.4-1,0.7-1.6,0.7
				V434.7v1c2.4,0,4.3-1.9,4.3-4.3v-5.5c0-2.4-1.9-4.3-4.3-4.3h-9.5c-2.4,0-4.3,1.9-4.3,4.3v5.5c0,1.2,0.5,2.3,1.3,3.1
				c0.8,0.8,1.9,1.3,3.1,1.3h9.5V434.7z"/>
			<path class="st25" d="M992.4,423.8l6.3-9.2l-0.9-0.6l0.7,0.8l-0.1-0.1l0.1,0.1l0,0l-0.1-0.1l0.1,0.1c0,0,0.3-0.2,0.6-0.4
				c0.2-0.1,0.3-0.2,0.5-0.3c0.1-0.1,0.3-0.1,0.3-0.1v-0.2l-0.1,0.2c0,0,0.1,0,0.1,0v-0.2l-0.1,0.2l0.1-0.4l-0.4,0.2
				c0,0.1,0.1,0.1,0.2,0.2l0.1-0.4l-0.4,0.2l0.2-0.1l-0.2,0.1l0,0l0.2-0.1l-0.2,0.1l0,0l0,0l0,0l0,0l0,0c0,0,0,0,0,0.1l2.1-0.2
				c0-0.2-0.1-0.5-0.2-0.7c-0.1-0.3-0.4-0.6-0.7-0.8c-0.3-0.2-0.7-0.3-0.9-0.3c-0.4,0-0.8,0.1-1.1,0.2c-0.5,0.2-0.9,0.4-1.2,0.6
				c-0.3,0.2-0.5,0.4-0.5,0.4l-0.1,0.1l-6.3,9.3L992.4,423.8z"/>
		</g>
		<line class="st26" x1="956.9" y1="428.6" x2="961.3" y2="426"/>
		<line class="st26" x1="960.2" y1="430.1" x2="964.6" y2="427.5"/>
		<line class="st26" x1="979.4" y1="430.1" x2="983.7" y2="427.5"/>
		<line class="st26" x1="984.5" y1="430.3" x2="988.9" y2="427.7"/>
	</g>
	<text transform="matrix(1 0 0 1 973.6381 486.5114)" class="st27 st3 st28">PURCHASE</text>
	<g class="st5">
		<g>
			<defs>
				<path id="SVGID_29_" d="M962.4,282.2v-2.1h-2.5C960.9,280.5,961.8,281.2,962.4,282.2z M962.4,274.6h4.9v10.1h-4.9v-0.1
					c-1.1-1.7-2.8-3.1-4.9-4v4.1h-4.9v-10.2h4.9v4.1h4.9C962.4,278.7,962.4,274.6,962.4,274.6z"/>
			</defs>
			<clipPath id="SVGID_30_">
				<use xlink:href="#SVGID_29_"  style="overflow:visible;"/>
			</clipPath>
			<rect x="950.6" y="272.5" class="st29" width="18.8" height="14.2"/>
		</g>
		<g>
			<defs>
				<path id="SVGID_31_" d="M983.1,282.8v1.6c-0.8,0.3-2,0.5-3.7,0.5c-0.6,0-1.2,0-1.7-0.2c-0.7-0.2-1.3-0.4-1.5-0.7
					c-1,0.6-2.2,0.8-3.5,0.8c-1,0-1.9-0.2-2.7-0.5c-1.1-0.5-1.6-1.1-1.6-2V278h4.8v3.7c0,0.4,0.1,0.6,0.4,0.8
					c0.2,0.2,0.5,0.3,0.9,0.3c0.4,0,0.7-0.1,0.9-0.3c0.2-0.2,0.4-0.5,0.4-0.8V278h4.9v3.8c0,0.4,0.1,0.7,0.4,0.9
					c0.2,0.2,0.6,0.3,0.9,0.3c0.2,0,0.4,0,0.6-0.1C982.9,282.8,983.1,282.8,983.1,282.8z"/>
			</defs>
			<clipPath id="SVGID_32_">
				<use xlink:href="#SVGID_31_"  style="overflow:visible;"/>
			</clipPath>
			<rect x="966.2" y="276" class="st30" width="19" height="10.9"/>
		</g>
		<g>
			<defs>
				<path id="SVGID_33_" d="M995.8,280.2h-1.8c0,1.9-0.6,3.2-1.8,3.9c-0.9,0.5-2.4,0.8-4.4,0.8c-1,0-1.9-0.2-2.9-0.7
					c-1.2-0.5-1.7-1.3-1.7-2.1v-7.5h4.9v6.4c0,0.5,0.2,0.9,0.5,1.3c0.4,0.4,0.8,0.5,1.3,0.5c0.6,0,1.1-0.2,1.5-0.6
					c0.4-0.4,0.6-0.9,0.6-1.5v-0.6h-0.2c-0.5,0-1-0.1-1.4-0.4c-0.4-0.3-0.7-0.7-0.7-1.2s0.2-0.9,0.6-1.2c0.4-0.2,0.8-0.4,1.3-0.4
					c0.4,0,0.9,0.1,1.3,0.2c0.4,0.2,0.8,0.4,1,0.7h2V280.2z"/>
			</defs>
			<clipPath id="SVGID_34_">
				<use xlink:href="#SVGID_33_"  style="overflow:visible;"/>
			</clipPath>
			<rect x="981.1" y="272.6" class="st31" width="16.8" height="14.3"/>
		</g>
		<g>
			<defs>
				<path id="SVGID_35_" d="M1008.8,287.4h-4.6v-3.2c-0.6,0.4-1.7,0.6-3.5,0.6c-1.2,0-2.2-0.2-3.3-0.7c-1.3-0.6-1.9-1.4-1.9-2.4
					c0-1.2,0.5-2.2,1.6-2.8c0.9-0.6,2-0.9,3.3-0.9h3.1v2h-0.4c-0.7,0-1.2,0.1-1.6,0.2c-0.6,0.2-0.9,0.7-0.9,1.2c0,0.9,0.7,1.3,2,1.3
					c0.5,0,0.9-0.1,1.2-0.4s0.4-0.6,0.4-1.1v-1.3v-1.3v-0.8h4.5L1008.8,287.4z"/>
			</defs>
			<clipPath id="SVGID_36_">
				<use xlink:href="#SVGID_35_"  style="overflow:visible;"/>
			</clipPath>
			<rect x="993.6" y="275.9" class="st32" width="17.2" height="13.5"/>
		</g>
		<g>
			<defs>
				<path id="SVGID_37_" d="M1024.7,282.8v1.6c-0.8,0.3-2,0.5-3.7,0.5c-0.6,0-1.2,0-1.7-0.2c-0.7-0.2-1.3-0.4-1.5-0.7
					c-1,0.6-2.2,0.8-3.5,0.8c-1,0-1.9-0.2-2.7-0.5c-1.1-0.5-1.6-1.1-1.6-2V278h4.8v3.7c0,0.4,0.1,0.6,0.4,0.8
					c0.2,0.2,0.5,0.3,0.9,0.3s0.7-0.1,0.9-0.3c0.2-0.2,0.4-0.5,0.4-0.8V278h4.9v3.8c0,0.4,0.1,0.7,0.4,0.9c0.2,0.2,0.6,0.3,0.9,0.3
					c0.2,0,0.4,0,0.6-0.1C1024.4,282.8,1024.6,282.8,1024.7,282.8z"/>
			</defs>
			<clipPath id="SVGID_38_">
				<use xlink:href="#SVGID_37_"  style="overflow:visible;"/>
			</clipPath>
			<rect x="1007.7" y="276" class="st33" width="19" height="10.9"/>
		</g>
		<g>
			<defs>
				<path id="SVGID_39_" d="M1032.8,284.4c-0.3,0.2-0.7,0.3-1.3,0.4c-0.5,0.1-1,0.2-1.4,0.2c-3.1,0-4.7-0.8-4.7-2.3v-4.6h4.9v4.2
					c0,0.6,0.4,0.9,1.1,0.9c0.4,0,0.9-0.1,1.4-0.4V284.4z M1030.7,275.6c0,0.4-0.4,0.8-1.1,1.1c-0.6,0.2-1.1,0.3-1.7,0.3
					c-0.6,0-1.1-0.1-1.7-0.3c-0.7-0.2-1.1-0.6-1.1-1.1c0-0.4,0.4-0.8,1.1-1.1c0.5-0.2,1.1-0.2,1.7-0.2c0.6,0,1.1,0.1,1.7,0.2
					C1030.3,274.8,1030.7,275.1,1030.7,275.6z"/>
			</defs>
			<clipPath id="SVGID_40_">
				<use xlink:href="#SVGID_39_"  style="overflow:visible;"/>
			</clipPath>
			<rect x="1022.9" y="272.2" class="st34" width="11.9" height="14.8"/>
		</g>
		<g>
			<defs>
				<path id="SVGID_41_" d="M1045.1,284.4c-0.9,0.3-2,0.4-3.3,0.4c-1,0-1.8-0.2-2.5-0.5c-0.9-0.4-1.4-1.1-1.4-2
					c0-0.8,0.5-1.5,1.5-2.2h-3.1c-0.4,2.3-1.6,3.7-3.7,4.2v-1.6c0.6-0.2,1-0.6,1.3-1c0.2-0.4,0.4-0.9,0.5-1.6h-0.2
					c-0.4,0-0.9-0.1-1.2-0.4c-0.4-0.3-0.6-0.6-0.6-1.1s0.2-0.9,0.6-1.2c0.4-0.3,0.8-0.4,1.3-0.4c0.3,0,0.7,0.1,1.1,0.2
					c0.4,0.2,0.7,0.4,0.8,0.7h8.2v2.1h-1.3c-0.5,0.4-0.8,0.8-0.8,1.3c0,0.4,0.2,0.7,0.6,1.1c0.4,0.3,0.8,0.4,1.2,0.4
					c0.4,0,0.7,0,1.1-0.1L1045.1,284.4L1045.1,284.4z"/>
			</defs>
			<clipPath id="SVGID_42_">
				<use xlink:href="#SVGID_41_"  style="overflow:visible;"/>
			</clipPath>
			<rect x="1030.4" y="275.1" class="st35" width="16.8" height="11.8"/>
		</g>
		<g>
			<defs>
				<path id="SVGID_43_" d="M1058,282.8v1.6c-1.6,0.4-3.6,0.6-6.1,0.6c-1.3,0-2.6-0.1-3.6-0.3c-1.7-0.4-2.6-0.9-2.6-1.8
					c0-0.8,0.9-1.4,2.7-1.9c-0.4-0.1-0.8-0.3-1.1-0.5c-0.4-0.3-0.7-0.6-0.7-0.9c0-0.9,1.1-1.5,3.2-1.9c1.2-0.2,2.6-0.3,4.3-0.3
					c0.7,0,1.3,0,1.9,0v1.6c-0.7,0-1.3,0-2,0c-1,0.1-1.5,0.2-1.5,0.5c0,0.2,0.3,0.4,0.9,0.4c0.4,0.1,0.8,0.1,1.1,0.1h0.2v1
					c-2,0.2-3,0.7-3,1.1c0,0.5,1.1,0.8,3.3,0.8C1056.3,283.1,1057.3,283,1058,282.8z"/>
			</defs>
			<clipPath id="SVGID_44_">
				<use xlink:href="#SVGID_43_"  style="overflow:visible;"/>
			</clipPath>
			<rect x="1043.8" y="275.4" class="st36" width="16.3" height="11.6"/>
		</g>
	</g>
</g>
<polygon class="st37" points="793.2,716.2 757.4,778.2 721.6,716.2 "/>
<g id="code-color">
	<ellipse class="st38" cx="757.4" cy="359.8" rx="273.9" ry="273.9"/>
	<path class="st39" d="M757.4,633.7c-151,0-273.9-122.6-273.9-273.9S606.4,85.9,757.4,85.9V633.7z"/>
	<g>
		<defs>
			<path id="SVGID_45_" d="M757.4,85.5c-34.8,0-68.1,7-98.7,18H528.4v105.7c-28,43.2-45,95-45,150.6
				c0,151.3,122.7,273.9,273.9,273.9s273.9-122.8,273.9-274.1S908.6,85.5,757.4,85.5z"/>
		</defs>
		<clipPath id="SVGID_46_">
			<use xlink:href="#SVGID_45_"  style="overflow:visible;"/>
		</clipPath>
		<rect x="562.4" y="121.5" class="st40" width="479" height="54"/>
		<rect x="562.4" y="175.5" class="st41" width="68" height="465"/>
		<rect x="630.4" y="175.5" class="st42" width="411" height="465"/>
	</g>
	<circle class="st43" cx="588.5" cy="147.5" r="9.1"/>
	<circle class="st44" cx="612.4" cy="147.5" r="9.1"/>
	<circle class="st45" cx="634.6" cy="147.5" r="9.1"/>
	<g>
		<path class="st46" d="M717.8,138.9c0,0.9-0.6,1.5-1.6,1.5c-0.9,0-1.5-0.7-1.5-1.5c0-0.9,0.7-1.6,1.6-1.6
			C717.2,137.4,717.8,138,717.8,138.9z M715,156.7v-13.8h2.5v13.8H715z"/>
		<path class="st46" d="M721.7,146.6c0-1.4,0-2.6-0.1-3.7h2.2l0.1,2.3h0.1c0.7-1.3,2.3-2.6,4.6-2.6c1.9,0,4.9,1.1,4.9,5.9v8.3h-2.5
			v-8c0-2.2-0.8-4.1-3.2-4.1c-1.7,0-2.9,1.2-3.4,2.6c-0.1,0.3-0.2,0.7-0.2,1.2v8.3h-2.5V146.6z"/>
		<path class="st46" d="M749.5,136.4v16.7c0,1.2,0,2.6,0.1,3.6h-2.3l-0.1-2.4h-0.1c-0.8,1.5-2.5,2.7-4.7,2.7c-3.3,0-5.9-2.8-5.9-7
			c0-4.6,2.8-7.4,6.2-7.4c2.1,0,3.5,1,4.2,2.1h0.1v-8.3H749.5z M747,148.5c0-0.3,0-0.7-0.1-1.1c-0.4-1.6-1.7-2.9-3.6-2.9
			c-2.6,0-4.1,2.3-4.1,5.3c0,2.8,1.4,5.1,4.1,5.1c1.7,0,3.2-1.1,3.7-3c0.1-0.3,0.1-0.7,0.1-1.1V148.5z"/>
		<path class="st46" d="M755.1,150.2c0.1,3.4,2.2,4.8,4.7,4.8c1.8,0,2.9-0.3,3.8-0.7l0.4,1.8c-0.9,0.4-2.4,0.9-4.6,0.9
			c-4.3,0-6.8-2.8-6.8-7c0-4.2,2.5-7.5,6.5-7.5c4.5,0,5.7,4,5.7,6.5c0,0.5-0.1,0.9-0.1,1.2H755.1z M762.4,148.4
			c0-1.6-0.7-4.1-3.5-4.1c-2.5,0-3.7,2.3-3.9,4.1H762.4z"/>
		<path class="st46" d="M769.1,142.8l2,3c0.5,0.8,0.9,1.5,1.4,2.3h0.1c0.5-0.8,0.9-1.5,1.4-2.3l1.9-2.9h2.7l-4.7,6.7l4.9,7.2h-2.9
			l-2-3.1c-0.5-0.8-1-1.6-1.5-2.4h-0.1c-0.5,0.8-0.9,1.6-1.5,2.4l-2,3.1H766l4.9-7.1l-4.7-6.8H769.1z"/>
		<path class="st46" d="M780.5,155.2c0-1.1,0.7-1.8,1.7-1.8c1,0,1.7,0.7,1.7,1.8c0,1-0.7,1.8-1.7,1.8
			C781.2,157,780.5,156.2,780.5,155.2z"/>
		<path class="st46" d="M787.1,136.4h2.5v8.6h0.1c0.4-0.7,1-1.3,1.8-1.8c0.7-0.4,1.6-0.7,2.6-0.7c1.9,0,4.8,1.1,4.8,5.9v8.2h-2.5v-8
			c0-2.2-0.8-4.1-3.2-4.1c-1.6,0-2.9,1.1-3.4,2.5c-0.1,0.3-0.2,0.7-0.2,1.2v8.4h-2.5V136.4z"/>
		<path class="st46" d="M805.8,138.8v4h3.6v1.9h-3.6v7.5c0,1.7,0.5,2.7,1.9,2.7c0.7,0,1.1-0.1,1.5-0.2l0.1,1.9
			c-0.5,0.2-1.3,0.3-2.2,0.3c-1.2,0-2.1-0.4-2.7-1.1c-0.7-0.7-1-2-1-3.6v-7.6h-2.1v-1.9h2.1v-3.3L805.8,138.8z"/>
		<path class="st46" d="M812.3,146.6c0-1.4,0-2.6-0.1-3.7h2.2l0.1,2.2h0.1c0.8-1.3,2.1-2.5,4.3-2.5c1.9,0,3.3,1.1,3.9,2.8h0.1
			c0.4-0.8,1-1.4,1.5-1.8c0.8-0.6,1.7-1,3.1-1c1.8,0,4.5,1.2,4.5,6v8.2h-2.5v-7.8c0-2.7-1-4.3-3-4.3c-1.4,0-2.5,1.1-3,2.3
			c-0.1,0.3-0.2,0.8-0.2,1.3v8.6h-2.5v-8.3c0-2.2-1-3.8-2.9-3.8c-1.6,0-2.7,1.3-3.1,2.5c-0.1,0.4-0.2,0.8-0.2,1.2v8.4h-2.5V146.6z"
			/>
		<path class="st46" d="M836.1,136.4h2.5v20.3h-2.5V136.4z"/>
	</g>
	<g>
		<path class="st47" d="M584.6,195.7L584.6,195.7l-3.3,1.7l-0.5-1.9l4.1-2.2h2.1v18.6h-2.4V195.7z"/>
		<path class="st47" d="M667.1,203.5l13.3-6.8v2l-11.2,5.6v0.1l11.2,5.6v2l-13.3-6.8V203.5z"/>
		<path class="st47" d="M683.9,210.5c0-1,0.7-1.8,1.7-1.8c1,0,1.7,0.7,1.7,1.8c0,1-0.7,1.8-1.7,1.8
			C684.6,212.2,683.9,211.5,683.9,210.5z M684.6,206.4l-0.4-13.7h2.7l-0.4,13.7H684.6z"/>
		<path class="st47" d="M691,192.9c1.5-0.2,3.3-0.4,5.3-0.4c3.6,0,6.1,0.8,7.8,2.4c1.7,1.6,2.7,3.8,2.7,6.9c0,3.1-1,5.7-2.8,7.5
			c-1.8,1.8-4.8,2.8-8.5,2.8c-1.8,0-3.3-0.1-4.5-0.2V192.9z M693.5,209.9c0.6,0.1,1.5,0.1,2.5,0.1c5.3,0,8.2-3,8.2-8.2
			c0-4.5-2.5-7.4-7.8-7.4c-1.3,0-2.3,0.1-2.9,0.3V209.9z"/>
		<path class="st47" d="M726.6,202.1c0,6.6-4,10.2-9,10.2c-5.1,0-8.7-3.9-8.7-9.8c0-6.1,3.8-10.1,9-10.1
			C723.2,192.3,726.6,196.4,726.6,202.1z M711.6,202.4c0,4.1,2.2,7.8,6.2,7.8c3.9,0,6.2-3.6,6.2-8c0-3.8-2-7.8-6.2-7.8
			C713.7,194.4,711.6,198.2,711.6,202.4z"/>
		<path class="st47" d="M743.3,211.3c-0.9,0.5-2.7,0.9-5.1,0.9c-5.4,0-9.5-3.4-9.5-9.8c0-6,4.1-10.1,10.1-10.1
			c2.4,0,3.9,0.5,4.6,0.9l-0.6,2c-0.9-0.5-2.3-0.8-3.9-0.8c-4.5,0-7.5,2.9-7.5,8c0,4.7,2.7,7.8,7.4,7.8c1.5,0,3.1-0.3,4.1-0.8
			L743.3,211.3z"/>
		<path class="st47" d="M750.8,194.8H745v-2.1h14.3v2.1h-5.9v17.2h-2.5V194.8z"/>
		<path class="st47" d="M766.5,211.9v-8.2l-6.1-11.1h2.8l2.7,5.3c0.7,1.5,1.3,2.6,1.9,4h0.1c0.5-1.3,1.2-2.5,1.9-4l2.8-5.3h2.8
			l-6.5,11.1v8.2H766.5z"/>
		<path class="st47" d="M777.5,192.9c1.2-0.2,2.8-0.4,4.8-0.4c2.5,0,4.3,0.6,5.4,1.6c1.1,0.9,1.7,2.3,1.7,4c0,1.7-0.5,3.1-1.5,4.1
			c-1.3,1.4-3.5,2.1-5.9,2.1c-0.7,0-1.4,0-2-0.2v7.7h-2.5V192.9z M780,202.2c0.5,0.1,1.2,0.2,2.1,0.2c3,0,4.8-1.5,4.8-4.1
			c0-2.5-1.8-3.8-4.5-3.8c-1.1,0-1.9,0.1-2.3,0.2V202.2z"/>
		<path class="st47" d="M802.7,202.9h-7.5v7h8.4v2.1h-10.8v-19.3h10.4v2.1h-7.9v6.1h7.5V202.9z"/>
		<path class="st47" d="M812.7,191.6h2.5v8.6h0.1c0.4-0.7,1-1.3,1.8-1.8c0.7-0.4,1.6-0.7,2.6-0.7c1.9,0,4.8,1.1,4.8,5.9v8.2H822v-8
			c0-2.2-0.8-4.1-3.2-4.1c-1.6,0-2.9,1.1-3.4,2.5c-0.1,0.3-0.2,0.7-0.2,1.2v8.4h-2.5V191.6z"/>
		<path class="st47" d="M831.5,194.1v4h3.6v1.9h-3.6v7.5c0,1.7,0.5,2.7,1.9,2.7c0.7,0,1.1-0.1,1.5-0.2l0.1,1.9
			c-0.5,0.2-1.3,0.3-2.2,0.3c-1.2,0-2.1-0.4-2.7-1.1c-0.7-0.7-1-2-1-3.6V200h-2.1v-1.9h2.1v-3.3L831.5,194.1z"/>
		<path class="st47" d="M838,201.8c0-1.4,0-2.6-0.1-3.7h2.2l0.1,2.2h0.1c0.8-1.3,2.1-2.5,4.3-2.5c1.9,0,3.3,1.1,3.9,2.8h0.1
			c0.4-0.8,1-1.4,1.5-1.8c0.8-0.6,1.7-1,3.1-1c1.8,0,4.5,1.2,4.5,6v8.2h-2.5v-7.8c0-2.7-1-4.3-3-4.3c-1.4,0-2.5,1.1-3,2.3
			c-0.1,0.3-0.2,0.8-0.2,1.3v8.6h-2.5v-8.3c0-2.2-1-3.8-2.9-3.8c-1.6,0-2.7,1.3-3.1,2.5c-0.1,0.4-0.2,0.8-0.2,1.2v8.4H838V201.8z"/>
		<path class="st47" d="M861.8,191.6h2.5v20.3h-2.5V191.6z"/>
		<path class="st47" d="M881.6,205.1l-13.3,6.8v-2l11.3-5.6v-0.1l-11.3-5.6v-2l13.3,6.8V205.1z"/>
		<path class="st47" d="M579.1,280.6V279l2-1.9c4.7-4.5,6.9-6.9,6.9-9.7c0-1.9-0.9-3.6-3.7-3.6c-1.7,0-3.1,0.9-3.9,1.6l-0.8-1.8
			c1.3-1.1,3.1-1.9,5.3-1.9c4,0,5.7,2.7,5.7,5.4c0,3.4-2.5,6.2-6.4,10l-1.5,1.4v0.1h8.4v2.1H579.1z"/>
		<path class="st47" d="M667.1,272.2l13.3-6.8v2l-11.2,5.6v0.1l11.2,5.6v2l-13.3-6.8V272.2z"/>
		<path class="st47" d="M684.4,260.2h2.5v8.6h0.1c0.4-0.7,1-1.3,1.8-1.8c0.7-0.4,1.6-0.7,2.6-0.7c1.9,0,4.8,1.1,4.8,5.9v8.2h-2.5v-8
			c0-2.2-0.8-4.1-3.2-4.1c-1.6,0-2.9,1.1-3.4,2.5c-0.1,0.3-0.2,0.7-0.2,1.2v8.4h-2.5V260.2z"/>
		<path class="st47" d="M703.2,262.7v4h3.6v1.9h-3.6v7.5c0,1.7,0.5,2.7,1.9,2.7c0.7,0,1.1-0.1,1.5-0.2l0.1,1.9
			c-0.5,0.2-1.3,0.3-2.2,0.3c-1.2,0-2.1-0.4-2.7-1.1c-0.7-0.7-1-2-1-3.6v-7.6h-2.1v-1.9h2.1v-3.3L703.2,262.7z"/>
		<path class="st47" d="M709.6,270.5c0-1.4,0-2.6-0.1-3.7h2.2l0.1,2.2h0.1c0.8-1.3,2.1-2.5,4.3-2.5c1.9,0,3.3,1.1,3.9,2.8h0.1
			c0.4-0.8,1-1.4,1.5-1.8c0.8-0.6,1.7-1,3.1-1c1.8,0,4.5,1.2,4.5,6v8.2h-2.5v-7.8c0-2.7-1-4.3-3-4.3c-1.4,0-2.5,1.1-3,2.3
			c-0.1,0.3-0.2,0.8-0.2,1.3v8.6h-2.5v-8.3c0-2.2-1-3.8-2.9-3.8c-1.6,0-2.7,1.3-3.1,2.5c-0.1,0.4-0.2,0.8-0.2,1.2v8.4h-2.5V270.5z"
			/>
		<path class="st47" d="M733.5,260.2h2.5v20.3h-2.5V260.2z"/>
		<path class="st47" d="M753.3,273.8l-13.3,6.8v-2l11.3-5.6v-0.1l-11.3-5.6v-2l13.3,6.8V273.8z"/>
		<path class="st47" d="M579.7,346.3c0.7,0.5,2.4,1.2,4.1,1.2c3.2,0,4.2-2.1,4.2-3.6c0-2.6-2.4-3.7-4.8-3.7h-1.4v-1.9h1.4
			c1.8,0,4.1-0.9,4.1-3.1c0-1.5-0.9-2.8-3.3-2.8c-1.5,0-2.9,0.7-3.7,1.2l-0.7-1.8c1-0.7,2.9-1.4,4.9-1.4c3.7,0,5.3,2.2,5.3,4.4
			c0,1.9-1.1,3.5-3.4,4.4v0.1c2.3,0.5,4.1,2.2,4.1,4.8c0,3-2.3,5.6-6.8,5.6c-2.1,0-3.9-0.7-4.8-1.3L579.7,346.3z"/>
		<path class="st47" d="M697.4,340.8l13.3-6.8v2l-11.2,5.6v0.1l11.2,5.6v2l-13.3-6.8V340.8z"/>
		<path class="st47" d="M714.7,328.9h2.5v8.6h0.1c0.4-0.7,1-1.3,1.8-1.8c0.7-0.4,1.6-0.7,2.6-0.7c1.9,0,4.8,1.1,4.8,5.9v8.2H724v-8
			c0-2.2-0.8-4.1-3.2-4.1c-1.6,0-2.9,1.1-3.4,2.5c-0.1,0.3-0.2,0.7-0.2,1.2v8.4h-2.5V328.9z"/>
		<path class="st47" d="M732,342.7c0.1,3.4,2.2,4.8,4.7,4.8c1.8,0,2.9-0.3,3.8-0.7l0.4,1.8c-0.9,0.4-2.4,0.9-4.6,0.9
			c-4.3,0-6.8-2.8-6.8-7c0-4.2,2.5-7.5,6.5-7.5c4.5,0,5.7,4,5.7,6.5c0,0.5-0.1,0.9-0.1,1.2H732z M739.3,340.9c0-1.6-0.7-4.1-3.5-4.1
			c-2.5,0-3.7,2.3-3.9,4.1H739.3z"/>
		<path class="st47" d="M752.6,349.2l-0.2-1.7h-0.1c-0.8,1.1-2.3,2.1-4.2,2.1c-2.8,0-4.2-2-4.2-4c0-3.3,3-5.2,8.3-5.1v-0.3
			c0-1.1-0.3-3.2-3.1-3.2c-1.3,0-2.6,0.4-3.6,1l-0.6-1.7c1.1-0.7,2.8-1.2,4.5-1.2c4.2,0,5.3,2.9,5.3,5.7v5.2c0,1.2,0.1,2.4,0.2,3.3
			H752.6z M752.2,342.1c-2.7-0.1-5.9,0.4-5.9,3.1c0,1.6,1.1,2.4,2.4,2.4c1.8,0,2.9-1.1,3.3-2.3c0.1-0.3,0.1-0.5,0.1-0.8V342.1z"/>
		<path class="st47" d="M770.6,328.9v16.7c0,1.2,0,2.6,0.1,3.6h-2.3l-0.1-2.4h-0.1c-0.8,1.5-2.5,2.7-4.7,2.7c-3.3,0-5.9-2.8-5.9-7
			c0-4.6,2.8-7.4,6.2-7.4c2.1,0,3.5,1,4.2,2.1h0.1v-8.3H770.6z M768.1,341c0-0.3,0-0.7-0.1-1.1c-0.4-1.6-1.7-2.9-3.6-2.9
			c-2.6,0-4.1,2.3-4.1,5.3c0,2.8,1.4,5.1,4.1,5.1c1.7,0,3.2-1.1,3.7-3c0.1-0.3,0.1-0.7,0.1-1.1V341z"/>
		<path class="st47" d="M787.9,342.4l-13.3,6.8v-2l11.3-5.6v-0.1l-11.3-5.6v-2l13.3,6.8V342.4z"/>
		<path class="st47" d="M586.9,417.8v-5.1h-8.6v-1.7l8.3-11.9h2.7v11.6h2.6v2h-2.6v5.1H586.9z M586.9,410.8v-6.2c0-1,0-1.9,0.1-2.9
			h-0.1c-0.6,1.1-1,1.9-1.5,2.7l-4.5,6.3v0.1H586.9z"/>
		<path class="st47" d="M746,409.4l13.3-6.8v2l-11.2,5.6v0.1l11.2,5.6v2L746,411V409.4z"/>
		<path class="st47" d="M763.2,407.7c0-1.4,0-2.6-0.1-3.7h2.2l0.1,2.2h0.1c0.8-1.3,2.1-2.5,4.3-2.5c1.9,0,3.3,1.1,3.9,2.8h0.1
			c0.4-0.8,1-1.4,1.5-1.8c0.8-0.6,1.7-1,3.1-1c1.8,0,4.5,1.2,4.5,6v8.2h-2.5V410c0-2.7-1-4.3-3-4.3c-1.4,0-2.5,1.1-3,2.3
			c-0.1,0.3-0.2,0.8-0.2,1.3v8.6h-2.5v-8.3c0-2.2-1-3.8-2.9-3.8c-1.6,0-2.7,1.3-3.1,2.5c-0.1,0.4-0.2,0.8-0.2,1.2v8.4h-2.5V407.7z"
			/>
		<path class="st47" d="M788.4,411.4c0.1,3.4,2.2,4.8,4.7,4.8c1.8,0,2.9-0.3,3.8-0.7l0.4,1.8c-0.9,0.4-2.4,0.9-4.6,0.9
			c-4.3,0-6.8-2.8-6.8-7c0-4.2,2.5-7.5,6.5-7.5c4.5,0,5.7,4,5.7,6.5c0,0.5-0.1,0.9-0.1,1.2H788.4z M795.8,409.6
			c0-1.6-0.7-4.1-3.5-4.1c-2.5,0-3.7,2.3-3.9,4.1H795.8z"/>
		<path class="st47" d="M804.4,400v4h3.6v1.9h-3.6v7.5c0,1.7,0.5,2.7,1.9,2.7c0.7,0,1.1-0.1,1.5-0.2l0.1,1.9
			c-0.5,0.2-1.3,0.3-2.2,0.3c-1.2,0-2.1-0.4-2.7-1.1c-0.7-0.7-1-2-1-3.6v-7.6h-2.1V404h2.1v-3.3L804.4,400z"/>
		<path class="st47" d="M818.5,417.8l-0.2-1.7h-0.1c-0.8,1.1-2.3,2.1-4.2,2.1c-2.8,0-4.2-2-4.2-4c0-3.3,3-5.2,8.3-5.1v-0.3
			c0-1.1-0.3-3.2-3.1-3.2c-1.3,0-2.6,0.4-3.6,1l-0.6-1.7c1.1-0.7,2.8-1.2,4.5-1.2c4.2,0,5.3,2.9,5.3,5.7v5.2c0,1.2,0.1,2.4,0.2,3.3
			H818.5z M818.1,410.8c-2.7-0.1-5.9,0.4-5.9,3.1c0,1.6,1.1,2.4,2.4,2.4c1.8,0,2.9-1.1,3.3-2.3c0.1-0.3,0.1-0.5,0.1-0.8V410.8z"/>
		<path class="st47" d="M840.6,417.3c-0.7,0.3-2.1,0.8-4,0.8c-4.2,0-6.9-2.8-6.9-7.1c0-4.3,2.9-7.4,7.4-7.4c1.5,0,2.8,0.4,3.5,0.7
			l-0.6,1.9c-0.6-0.3-1.5-0.7-2.9-0.7c-3.2,0-4.9,2.3-4.9,5.2c0,3.2,2.1,5.2,4.8,5.2c1.4,0,2.4-0.4,3.1-0.7L840.6,417.3z"/>
		<path class="st47" d="M843.5,397.5h2.5v8.6h0.1c0.4-0.7,1-1.3,1.8-1.8c0.7-0.4,1.6-0.7,2.6-0.7c1.9,0,4.8,1.1,4.8,5.9v8.2h-2.5v-8
			c0-2.2-0.8-4.1-3.2-4.1c-1.6,0-2.9,1.1-3.4,2.5c-0.1,0.3-0.2,0.7-0.2,1.2v8.4h-2.5V397.5z"/>
		<path class="st47" d="M867,417.8l-0.2-1.7h-0.1c-0.8,1.1-2.3,2.1-4.2,2.1c-2.8,0-4.2-2-4.2-4c0-3.3,3-5.2,8.3-5.1v-0.3
			c0-1.1-0.3-3.2-3.1-3.2c-1.3,0-2.6,0.4-3.6,1l-0.6-1.7c1.1-0.7,2.8-1.2,4.5-1.2c4.2,0,5.3,2.9,5.3,5.7v5.2c0,1.2,0.1,2.4,0.2,3.3
			H867z M866.7,410.8c-2.7-0.1-5.9,0.4-5.9,3.1c0,1.6,1.1,2.4,2.4,2.4c1.8,0,2.9-1.1,3.3-2.3c0.1-0.3,0.1-0.5,0.1-0.8V410.8z"/>
		<path class="st47" d="M873.2,408.3c0-1.6,0-3-0.1-4.3h2.2l0.1,2.7h0.1c0.6-1.9,2.1-3,3.8-3c0.3,0,0.5,0,0.7,0.1v2.4
			c-0.3-0.1-0.5-0.1-0.9-0.1c-1.8,0-3,1.3-3.4,3.2c-0.1,0.3-0.1,0.7-0.1,1.2v7.4h-2.5V408.3z"/>
		<path class="st47" d="M882.2,415.3c0.7,0.5,2.1,1,3.3,1c1.8,0,2.7-0.9,2.7-2.1c0-1.2-0.7-1.9-2.6-2.5c-2.5-0.9-3.7-2.3-3.7-3.9
			c0-2.2,1.8-4.1,4.8-4.1c1.4,0,2.6,0.4,3.4,0.9l-0.6,1.8c-0.5-0.3-1.5-0.8-2.8-0.8c-1.5,0-2.3,0.9-2.3,1.9c0,1.1,0.8,1.7,2.6,2.3
			c2.4,0.9,3.6,2.1,3.6,4.2c0,2.4-1.9,4.1-5.2,4.1c-1.5,0-2.9-0.4-3.9-0.9L882.2,415.3z"/>
		<path class="st47" d="M895.2,411.4c0.1,3.4,2.2,4.8,4.7,4.8c1.8,0,2.9-0.3,3.8-0.7l0.4,1.8c-0.9,0.4-2.4,0.9-4.6,0.9
			c-4.3,0-6.8-2.8-6.8-7c0-4.2,2.5-7.5,6.5-7.5c4.5,0,5.7,4,5.7,6.5c0,0.5-0.1,0.9-0.1,1.2H895.2z M902.6,409.6
			c0-1.6-0.7-4.1-3.5-4.1c-2.5,0-3.7,2.3-3.9,4.1H902.6z"/>
		<path class="st47" d="M911.2,400v4h3.6v1.9h-3.6v7.5c0,1.7,0.5,2.7,1.9,2.7c0.7,0,1.1-0.1,1.5-0.2l0.1,1.9
			c-0.5,0.2-1.3,0.3-2.2,0.3c-1.2,0-2.1-0.4-2.7-1.1c-0.7-0.7-1-2-1-3.6v-7.6h-2.1V404h2.1v-3.3L911.2,400z"/>
		<path class="st47" d="M916.7,408.2v-1.7h14.8v1.7H916.7z M916.7,413.8v-1.7h14.8v1.7H916.7z"/>
		<path class="st47" d="M937.2,398.6V410c0,4.3,1.9,6.2,4.5,6.2c2.9,0,4.7-1.9,4.7-6.2v-11.4h2.5v11.2c0,5.9-3.1,8.4-7.3,8.4
			c-3.9,0-6.9-2.3-6.9-8.2v-11.4H937.2z"/>
		<path class="st47" d="M956.9,400.7h-5.9v-2.1h14.3v2.1h-5.9v17.2h-2.5V400.7z"/>
		<path class="st47" d="M967.5,398.6h10.4v2.1H970v6.4h7.3v2.1H970v8.7h-2.5V398.6z"/>
		<path class="st47" d="M590.2,470h-7.1l-0.7,4.8c0.4-0.1,0.8-0.1,1.5-0.1c1.4,0,2.9,0.3,4,1c1.5,0.8,2.7,2.4,2.7,4.8
			c0,3.6-2.9,6.4-6.9,6.4c-2,0-3.7-0.6-4.6-1.1l0.6-1.9c0.8,0.5,2.3,1,4,1c2.4,0,4.4-1.5,4.4-4c0-2.4-1.6-4.1-5.3-4.1
			c-1.1,0-1.9,0.1-2.6,0.2l1.2-8.9h8.9V470z"/>
		<path class="st47" d="M746,478.1l13.3-6.8v2l-11.2,5.6v0.1l11.2,5.6v2l-13.3-6.8V478.1z"/>
		<path class="st47" d="M766.2,468.6v4h3.6v1.9h-3.6v7.5c0,1.7,0.5,2.7,1.9,2.7c0.7,0,1.1-0.1,1.5-0.2l0.1,1.9
			c-0.5,0.2-1.3,0.3-2.2,0.3c-1.2,0-2.1-0.4-2.7-1.1c-0.7-0.7-1-2-1-3.6v-7.6h-2.1v-1.9h2.1v-3.3L766.2,468.6z"/>
		<path class="st47" d="M775.5,468.7c0,0.9-0.6,1.5-1.6,1.5c-0.9,0-1.5-0.7-1.5-1.5c0-0.9,0.7-1.6,1.6-1.6
			C774.9,467.2,775.5,467.8,775.5,468.7z M772.7,486.5v-13.8h2.5v13.8H772.7z"/>
		<path class="st47" d="M782.4,468.6v4h3.6v1.9h-3.6v7.5c0,1.7,0.5,2.7,1.9,2.7c0.7,0,1.1-0.1,1.5-0.2l0.1,1.9
			c-0.5,0.2-1.3,0.3-2.2,0.3c-1.2,0-2.1-0.4-2.7-1.1c-0.7-0.7-1-2-1-3.6v-7.6h-2.1v-1.9h2.1v-3.3L782.4,468.6z"/>
		<path class="st47" d="M788.8,466.2h2.5v20.3h-2.5V466.2z"/>
		<path class="st47" d="M797,480c0.1,3.4,2.2,4.8,4.7,4.8c1.8,0,2.9-0.3,3.8-0.7l0.4,1.8c-0.9,0.4-2.4,0.9-4.6,0.9
			c-4.3,0-6.8-2.8-6.8-7s2.5-7.5,6.5-7.5c4.5,0,5.7,4,5.7,6.5c0,0.5-0.1,0.9-0.1,1.2H797z M804.4,478.2c0-1.6-0.7-4.1-3.5-4.1
			c-2.5,0-3.7,2.3-3.9,4.1H804.4z"/>
		<path class="st47" d="M823,479.7l-13.3,6.8v-2l11.3-5.6v-0.1l-11.3-5.6v-2l13.3,6.8V479.7z"/>
		<path class="st47" d="M830.1,480.4l-2,6.1h-2.6l6.6-19.3h3l6.6,19.3H839l-2.1-6.1H830.1z M836.5,478.5l-1.9-5.5
			c-0.4-1.3-0.7-2.4-1-3.5h-0.1c-0.3,1.1-0.6,2.3-1,3.5l-1.9,5.6H836.5z"/>
		<path class="st47" d="M844.4,476.4c0-1.4,0-2.6-0.1-3.7h2.2l0.1,2.2h0.1c0.8-1.3,2.1-2.5,4.3-2.5c1.9,0,3.3,1.1,3.9,2.8h0.1
			c0.4-0.8,1-1.4,1.5-1.8c0.8-0.6,1.7-1,3.1-1c1.8,0,4.5,1.2,4.5,6v8.2h-2.5v-7.8c0-2.7-1-4.3-3-4.3c-1.4,0-2.5,1.1-3,2.3
			c-0.1,0.3-0.2,0.8-0.2,1.3v8.6H853v-8.3c0-2.2-1-3.8-2.9-3.8c-1.6,0-2.7,1.3-3.1,2.5c-0.1,0.4-0.2,0.8-0.2,1.2v8.4h-2.5V476.4z"/>
		<path class="st47" d="M875.9,486.5l-0.2-1.7h-0.1c-0.8,1.1-2.3,2.1-4.2,2.1c-2.8,0-4.2-2-4.2-4c0-3.3,3-5.2,8.3-5.1v-0.3
			c0-1.1-0.3-3.2-3.1-3.2c-1.3,0-2.6,0.4-3.6,1l-0.6-1.7c1.1-0.7,2.8-1.2,4.5-1.2c4.2,0,5.3,2.9,5.3,5.7v5.2c0,1.2,0.1,2.4,0.2,3.3
			H875.9z M875.5,479.4c-2.7-0.1-5.9,0.4-5.9,3.1c0,1.6,1.1,2.4,2.4,2.4c1.8,0,2.9-1.1,3.3-2.3c0.1-0.3,0.1-0.5,0.1-0.8V479.4z"/>
		<path class="st47" d="M880.4,485l6.3-8.2c0.6-0.7,1.2-1.4,1.8-2.1v-0.1H881v-2h10.6l0,1.6l-6.2,8c-0.6,0.8-1.1,1.5-1.8,2.2v0.1
			h8.1v2h-11.2V485z"/>
		<path class="st47" d="M897,468.7c0,0.9-0.6,1.5-1.6,1.5c-0.9,0-1.5-0.7-1.5-1.5c0-0.9,0.7-1.6,1.6-1.6
			C896.4,467.2,897,467.8,897,468.7z M894.2,486.5v-13.8h2.5v13.8H894.2z"/>
		<path class="st47" d="M900.9,476.4c0-1.4,0-2.6-0.1-3.7h2.2l0.1,2.3h0.1c0.7-1.3,2.3-2.6,4.6-2.6c1.9,0,4.9,1.1,4.9,5.9v8.3h-2.5
			v-8c0-2.2-0.8-4.1-3.2-4.1c-1.7,0-2.9,1.2-3.4,2.6c-0.1,0.3-0.2,0.7-0.2,1.2v8.3h-2.5V476.4z"/>
		<path class="st47" d="M928.7,472.6c-0.1,1-0.1,2.1-0.1,3.8v8c0,3.2-0.6,5.1-2,6.3c-1.3,1.3-3.3,1.7-5,1.7c-1.7,0-3.5-0.4-4.6-1.1
			l0.6-1.9c0.9,0.6,2.3,1.1,4.1,1.1c2.6,0,4.5-1.3,4.5-4.8v-1.5h-0.1c-0.8,1.3-2.3,2.3-4.4,2.3c-3.4,0-5.9-2.9-5.9-6.8
			c0-4.7,3.1-7.4,6.2-7.4c2.4,0,3.7,1.3,4.3,2.4h0.1l0.1-2.1H928.7z M926.1,478.1c0-0.4,0-0.8-0.1-1.1c-0.5-1.5-1.7-2.7-3.5-2.7
			c-2.4,0-4.1,2-4.1,5.2c0,2.7,1.4,5,4.1,5c1.5,0,2.9-1,3.5-2.6c0.1-0.4,0.2-0.9,0.2-1.3V478.1z"/>
		<path class="st47" d="M939.8,472.6l1.8,7c0.4,1.5,0.8,3,1,4.4h0.1c0.3-1.4,0.8-2.9,1.2-4.4l2.3-7.1h2.1l2.1,6.9
			c0.5,1.7,0.9,3.1,1.2,4.5h0.1c0.2-1.4,0.6-2.9,1.1-4.5l2-7h2.5l-4.5,13.8h-2.3l-2.1-6.6c-0.5-1.5-0.9-2.9-1.2-4.5h-0.1
			c-0.3,1.7-0.8,3.1-1.3,4.6l-2.2,6.6h-2.3l-4.2-13.8H939.8z"/>
		<path class="st47" d="M961,480c0.1,3.4,2.2,4.8,4.7,4.8c1.8,0,2.9-0.3,3.8-0.7l0.4,1.8c-0.9,0.4-2.4,0.9-4.6,0.9
			c-4.3,0-6.8-2.8-6.8-7s2.5-7.5,6.5-7.5c4.5,0,5.7,4,5.7,6.5c0,0.5-0.1,0.9-0.1,1.2H961z M968.4,478.2c0-1.6-0.7-4.1-3.5-4.1
			c-2.5,0-3.7,2.3-3.9,4.1H968.4z"/>
		<path class="st47" d="M973.8,486.5c0.1-0.9,0.1-2.3,0.1-3.6v-16.7h2.5v8.7h0.1c0.9-1.5,2.5-2.5,4.7-2.5c3.4,0,5.9,2.9,5.8,7.1
			c0,4.9-3.1,7.4-6.2,7.4c-2,0-3.6-0.8-4.6-2.6h-0.1l-0.1,2.3H973.8z M976.4,480.9c0,0.3,0.1,0.6,0.1,0.9c0.5,1.7,1.9,2.9,3.8,2.9
			c2.6,0,4.2-2.1,4.2-5.3c0-2.8-1.4-5.1-4.1-5.1c-1.7,0-3.3,1.2-3.8,3.1c-0.1,0.3-0.1,0.6-0.1,1V480.9z"/>
		<path class="st47" d="M589.7,538.3c-0.5,0-1.2,0-1.9,0.1c-3.9,0.7-6,3.5-6.5,6.6h0.1c0.9-1.2,2.4-2.1,4.5-2.1c3.3,0,5.6,2.4,5.6,6
			c0,3.4-2.3,6.6-6.2,6.6c-4,0-6.6-3.1-6.6-7.9c0-3.7,1.3-6.6,3.1-8.4c1.5-1.5,3.6-2.5,6-2.7c0.7-0.1,1.4-0.1,1.8-0.1V538.3z
			 M589,549c0-2.7-1.5-4.3-3.8-4.3c-1.5,0-2.9,0.9-3.6,2.3c-0.2,0.3-0.3,0.7-0.3,1.1c0.1,3.1,1.5,5.3,4.1,5.3
			C587.6,553.5,589,551.7,589,549z"/>
		<path class="st47" d="M697.4,546.7l13.3-6.8v2l-11.2,5.6v0.1l11.2,5.6v2l-13.3-6.8V546.7z"/>
		<path class="st47" d="M712.6,556.2l8-20.7h1.9l-8,20.7H712.6z"/>
		<path class="st47" d="M724.5,534.8h2.5v8.6h0.1c0.4-0.7,1-1.3,1.8-1.8c0.7-0.4,1.6-0.7,2.6-0.7c1.9,0,4.8,1.1,4.8,5.9v8.2h-2.5v-8
			c0-2.2-0.8-4.1-3.2-4.1c-1.6,0-2.9,1.1-3.4,2.5c-0.1,0.3-0.2,0.7-0.2,1.2v8.4h-2.5V534.8z"/>
		<path class="st47" d="M741.8,548.6c0.1,3.4,2.2,4.8,4.7,4.8c1.8,0,2.9-0.3,3.8-0.7l0.4,1.8c-0.9,0.4-2.4,0.9-4.6,0.9
			c-4.3,0-6.8-2.8-6.8-7c0-4.2,2.5-7.5,6.5-7.5c4.5,0,5.7,4,5.7,6.5c0,0.5-0.1,0.9-0.1,1.2H741.8z M749.2,546.8
			c0-1.6-0.7-4.1-3.5-4.1c-2.5,0-3.7,2.3-3.9,4.1H749.2z"/>
		<path class="st47" d="M762.4,555.1l-0.2-1.7h-0.1c-0.8,1.1-2.3,2.1-4.2,2.1c-2.8,0-4.2-2-4.2-4c0-3.3,3-5.2,8.3-5.1V546
			c0-1.1-0.3-3.2-3.1-3.2c-1.3,0-2.6,0.4-3.6,1l-0.6-1.7c1.1-0.7,2.8-1.2,4.5-1.2c4.2,0,5.3,2.9,5.3,5.7v5.2c0,1.2,0.1,2.4,0.2,3.3
			H762.4z M762,548c-2.7-0.1-5.9,0.4-5.9,3.1c0,1.6,1.1,2.4,2.4,2.4c1.8,0,2.9-1.1,3.3-2.3c0.1-0.3,0.1-0.5,0.1-0.8V548z"/>
		<path class="st47" d="M780.4,534.8v16.7c0,1.2,0,2.6,0.1,3.6h-2.3l-0.1-2.4h-0.1c-0.8,1.5-2.5,2.7-4.7,2.7c-3.3,0-5.9-2.8-5.9-7
			c0-4.6,2.8-7.4,6.2-7.4c2.1,0,3.5,1,4.2,2.1h0.1v-8.3H780.4z M777.9,546.9c0-0.3,0-0.7-0.1-1.1c-0.4-1.6-1.7-2.9-3.6-2.9
			c-2.6,0-4.1,2.3-4.1,5.3c0,2.8,1.4,5.1,4.1,5.1c1.7,0,3.2-1.1,3.7-3c0.1-0.3,0.1-0.7,0.1-1.1V546.9z"/>
		<path class="st47" d="M797.7,548.3l-13.3,6.8v-2l11.3-5.6v-0.1l-11.3-5.6v-2l13.3,6.8V548.3z"/>
	</g>
</g>
</svg>
