<?xml version="1.0" encoding="utf-8"?>
<!-- Generator: Adobe Illustrator 19.1.0, SVG Export Plug-In . SVG Version: 6.00 Build 0)  -->
<!DOCTYPE svg PUBLIC "-//W3C//DTD SVG 1.1//EN" "http://www.w3.org/Graphics/SVG/1.1/DTD/svg11.dtd">
<svg version="1.1" id="Layer_1" xmlns="http://www.w3.org/2000/svg" xmlns:xlink="http://www.w3.org/1999/xlink" x="0px" y="0px"
	 viewBox="0 0 1514.7 688" style="enable-background:new 0 0 1514.7 688;" xml:space="preserve">
<style type="text/css">
	.st0{opacity:0.15;enable-background:new    ;}
	.st1{clip-path:url(#SVGID_2_);}
	.st2{clip-path:url(#SVGID_4_);}
	.st3{clip-path:url(#SVGID_6_);fill:#3F3F3F;}
	.st4{clip-path:url(#SVGID_8_);fill:#3F3F3F;}
	.st5{clip-path:url(#SVGID_10_);fill:#E9E9E9;}
	.st6{clip-path:url(#SVGID_12_);fill:#E9E9E9;}
	.st7{clip-path:url(#SVGID_14_);fill:#FFFFFF;}
	.st8{clip-path:url(#SVGID_16_);fill:#B5B4B4;}
	.st9{clip-path:url(#SVGID_18_);fill:#F2F2F2;}
	.st10{clip-path:url(#SVGID_20_);fill:#454545;}
	.st11{clip-path:url(#SVGID_22_);fill:#DA3628;}
	.st12{clip-path:url(#SVGID_24_);fill:#DA3628;}
	.st13{clip-path:url(#SVGID_26_);fill:#DA3628;}
	.st14{clip-path:url(#SVGID_28_);fill:#DA3628;}
	.st15{clip-path:url(#SVGID_30_);fill:#DA3628;}
	.st16{clip-path:url(#SVGID_32_);fill:#DA3628;}
	.st17{clip-path:url(#SVGID_34_);fill:#DA3628;}
	.st18{clip-path:url(#SVGID_36_);fill:#DA3628;}
	.st19{fill:none;stroke:#FDFEFF;stroke-width:5;stroke-miterlimit:10;}
	.st20{fill:none;stroke:#010101;stroke-width:5;stroke-miterlimit:10;}
	
		.st21{clip-path:url(#SVGID_38_);fill:#D4D6D8;stroke:#000000;stroke-width:2;stroke-linecap:round;stroke-linejoin:round;stroke-miterlimit:10;}
	.st22{fill:#FCDCCD;}
	.st23{fill:#F6C215;}
	.st24{fill:#4B4A4B;}
	.st25{clip-path:url(#SVGID_40_);fill:none;}
	.st26{fill:#C79D89;}
	.st27{fill:#D8AC93;}
	.st28{fill:#E5BFA5;}
	.st29{fill:#F8D3B9;}
	.st30{fill:#C23133;}
	.st31{fill:#448CCB;}
	.st32{clip-path:url(#SVGID_42_);fill:none;}
	.st33{fill:#F9D1C4;}
	.st34{clip-path:url(#SVGID_44_);fill:none;}
	.st35{clip-path:url(#SVGID_46_);fill:none;}
	.st36{clip-path:url(#SVGID_48_);fill:none;}
	.st37{fill:#F7D2C4;}
	.st38{fill:#313131;}
	.st39{fill:#737273;}
	.st40{opacity:0.2;}
	.st41{clip-path:url(#SVGID_52_);fill:none;}
	.st42{clip-path:url(#SVGID_54_);fill:none;}
	.st43{clip-path:url(#SVGID_54_);}
	.st44{fill:none;}
	.st45{fill:#815543;}
	.st46{clip-path:url(#SVGID_56_);fill:none;}
	.st47{fill:#F4BE5E;}
	.st48{fill:#B6CE85;}
	.st49{opacity:0.16;fill:#E8F6F9;}
	.st50{fill:#313334;}
	.st51{clip-path:url(#SVGID_58_);fill:none;}
	.st52{fill:#FFFFFF;fill-opacity:0.67;stroke:#000000;stroke-width:2;stroke-miterlimit:10;}
	.st53{fill:#0B0B0B;}
	.st54{fill:#FFFFFF;}
	.st55{fill:none;stroke:#000000;stroke-width:2;stroke-miterlimit:10;}
	.st56{clip-path:url(#SVGID_60_);fill:#C13133;}
	.st57{clip-path:url(#SVGID_62_);fill:#F5C119;}
	.st58{clip-path:url(#SVGID_64_);fill:#F5C119;}
	.st59{clip-path:url(#SVGID_66_);fill:#F5C119;}
	.st60{clip-path:url(#SVGID_68_);fill:#F5C119;}
	.st61{clip-path:url(#SVGID_70_);fill:#F5C119;}
	.st62{clip-path:url(#SVGID_72_);fill:#F5C119;}
	.st63{clip-path:url(#SVGID_74_);fill:#F5C119;}
	.st64{clip-path:url(#SVGID_76_);fill:#F5C119;}
	.st65{clip-path:url(#SVGID_78_);fill:#F5C119;}
	.st66{fill:#1E448B;}
	.st67{fill:#F8F7F8;}
	.st68{clip-path:url(#SVGID_80_);}
	.st69{opacity:0.45;clip-path:url(#SVGID_82_);}
	.st70{clip-path:url(#SVGID_84_);fill:#00AEEF;}
	.st71{clip-path:url(#SVGID_86_);fill:#00AEEF;}
	.st72{clip-path:url(#SVGID_82_);fill:#010101;}
	.st73{clip-path:url(#SVGID_80_);fill:none;stroke:#FFFFFF;stroke-linecap:round;stroke-linejoin:round;}
	.st74{font-family:'OpenSans-Extrabold';}
	.st75{font-size:12px;}
	.st76{clip-path:url(#SVGID_88_);fill:#DA3628;}
	.st77{clip-path:url(#SVGID_90_);fill:#DA3628;}
	.st78{clip-path:url(#SVGID_92_);fill:#DA3628;}
	.st79{clip-path:url(#SVGID_94_);fill:#DA3628;}
	.st80{clip-path:url(#SVGID_96_);fill:#DA3628;}
	.st81{clip-path:url(#SVGID_98_);fill:#DA3628;}
	.st82{clip-path:url(#SVGID_100_);fill:#DA3628;}
	.st83{clip-path:url(#SVGID_102_);fill:#DA3628;}
	.st84{display:none;}
	.st85{display:inline;}
	.st86{clip-path:url(#SVGID_104_);fill:none;stroke:#7CC576;stroke-width:3;stroke-linecap:round;stroke-linejoin:round;}
	.st87{clip-path:url(#SVGID_106_);fill:#7CC576;}
	.st88{fill:none;stroke:#FFFFFF;stroke-width:2;stroke-linecap:round;stroke-linejoin:round;}
	.st89{clip-path:url(#SVGID_108_);fill:url(#SVGID_109_);}
	.st90{clip-path:url(#SVGID_111_);}
	.st91{opacity:0.45;clip-path:url(#SVGID_113_);}
	.st92{clip-path:url(#SVGID_115_);fill:#00AEEF;}
	.st93{clip-path:url(#SVGID_117_);fill:#00AEEF;}
	.st94{clip-path:url(#SVGID_113_);fill:#010101;}
	.st95{clip-path:url(#SVGID_111_);fill:none;stroke:#FFFFFF;stroke-linecap:round;stroke-linejoin:round;}
	.st96{clip-path:url(#SVGID_119_);fill:none;stroke:#7CC576;stroke-width:3;stroke-linecap:round;stroke-linejoin:round;}
	.st97{clip-path:url(#SVGID_121_);fill:#7CC576;}
	.st98{clip-path:url(#SVGID_123_);fill:url(#SVGID_124_);}
	.st99{clip-path:url(#SVGID_126_);fill:#C13133;}
	.st100{clip-path:url(#SVGID_128_);fill:#F5C119;}
	.st101{clip-path:url(#SVGID_130_);fill:#F5C119;}
	.st102{clip-path:url(#SVGID_132_);fill:#F5C119;}
	.st103{clip-path:url(#SVGID_134_);fill:#F5C119;}
	.st104{clip-path:url(#SVGID_136_);fill:#F5C119;}
	.st105{clip-path:url(#SVGID_138_);fill:#F5C119;}
	.st106{clip-path:url(#SVGID_140_);fill:#F5C119;}
	.st107{clip-path:url(#SVGID_142_);fill:#F5C119;}
	.st108{clip-path:url(#SVGID_144_);fill:#F5C119;}
	.st109{clip-path:url(#SVGID_146_);fill:url(#SVGID_147_);}
	.st110{clip-path:url(#SVGID_149_);fill:none;stroke:#7CC576;stroke-width:3;stroke-linecap:round;stroke-linejoin:round;}
	.st111{clip-path:url(#SVGID_151_);fill:#7CC576;}
</style>
<g class="st0">
	<g>
		<defs>
			<rect id="SVGID_1_" x="265.4" y="576.7" width="984" height="28"/>
		</defs>
		<clipPath id="SVGID_2_">
			<use xlink:href="#SVGID_1_"  style="overflow:visible;"/>
		</clipPath>
		<g class="st1">
			<defs>
				<path id="SVGID_3_" d="M757.4,577.2c271.4,0,491.3,6.1,491.3,13.7s-219.9,13.7-491.3,13.7s-491.3-6.1-491.3-13.7
					S486.1,577.2,757.4,577.2z"/>
			</defs>
			<clipPath id="SVGID_4_">
				<use xlink:href="#SVGID_3_"  style="overflow:visible;"/>
			</clipPath>
			<g class="st2">
				<defs>
					<rect id="SVGID_5_" x="265.4" y="576.7" width="984" height="28"/>
				</defs>
				<clipPath id="SVGID_6_">
					<use xlink:href="#SVGID_5_"  style="overflow:visible;"/>
				</clipPath>
				<rect x="261.1" y="572.2" class="st3" width="992.6" height="37.4"/>
			</g>
		</g>
	</g>
</g>
<g>
	<defs>
		<path id="SVGID_7_" d="M757.4,553.4H402.6V107.6c0-13.4,10.9-24.2,24.2-24.2h330.6h312.4c13.4,0,24.2,10.9,24.2,24.2v445.8H757.4z
			"/>
	</defs>
	<clipPath id="SVGID_8_">
		<use xlink:href="#SVGID_7_"  style="overflow:visible;"/>
	</clipPath>
	<rect x="397.6" y="78.4" class="st4" width="701.4" height="480"/>
</g>
<g>
	<defs>
		<path id="SVGID_9_" d="M1185.1,553.4c0,20.1-16,36.5-35.7,36.5h-802c-19.7,0-35.7-16.2-35.7-36.5H1185.1z"/>
	</defs>
	<clipPath id="SVGID_10_">
		<use xlink:href="#SVGID_9_"  style="overflow:visible;"/>
	</clipPath>
	<rect x="306.7" y="548.4" class="st5" width="883.4" height="46.5"/>
</g>
<g>
	<defs>
		<path id="SVGID_11_" d="M759,89.8c3.2,0,5.7,2.5,5.7,5.7s-2.5,5.7-5.7,5.7s-5.7-2.5-5.7-5.7S755.8,89.8,759,89.8z"/>
	</defs>
	<clipPath id="SVGID_12_">
		<use xlink:href="#SVGID_11_"  style="overflow:visible;"/>
	</clipPath>
	<rect x="748.3" y="84.8" class="st6" width="21.4" height="21.4"/>
</g>
<g>
	<defs>
		<rect id="SVGID_13_" x="420.8" y="107.6" width="655.1" height="421.6"/>
	</defs>
	<clipPath id="SVGID_14_">
		<use xlink:href="#SVGID_13_"  style="overflow:visible;"/>
	</clipPath>
	<rect x="415.8" y="102.6" class="st7" width="665.1" height="431.6"/>
</g>
<g>
	<defs>
		<path id="SVGID_15_" d="M809,553.4c0,6.7-5.6,12.1-12.4,12.1H700c-6.8,0-12.4-5.5-12.4-12.1H809z"/>
	</defs>
	<clipPath id="SVGID_16_">
		<use xlink:href="#SVGID_15_"  style="overflow:visible;"/>
	</clipPath>
	<rect x="682.6" y="548.4" class="st8" width="131.4" height="22.1"/>
</g>
<g>
	<defs>
		<rect id="SVGID_17_" x="420.8" y="107.6" width="655.1" height="56.6"/>
	</defs>
	<clipPath id="SVGID_18_">
		<use xlink:href="#SVGID_17_"  style="overflow:visible;"/>
	</clipPath>
	<rect x="415.8" y="102.6" class="st9" width="665.1" height="66.6"/>
</g>
<g>
	<defs>
		<rect id="SVGID_19_" x="420.8" y="164.2" width="655.1" height="21.4"/>
	</defs>
	<clipPath id="SVGID_20_">
		<use xlink:href="#SVGID_19_"  style="overflow:visible;"/>
	</clipPath>
	<rect x="415.8" y="159.2" class="st10" width="665.1" height="31.4"/>
</g>
<g>
	<defs>
		<path id="SVGID_21_" d="M651.9,138.6v-5.1h-6.2C648.2,134.4,650.3,136.1,651.9,138.6z M651.9,119.8H664v24.9h-12.1v-0.2
			c-2.8-4.3-6.8-7.6-12-9.8v10h-12.1v-25h12.1v10.1h12C651.9,130,651.9,119.8,651.9,119.8z"/>
	</defs>
	<clipPath id="SVGID_22_">
		<use xlink:href="#SVGID_21_"  style="overflow:visible;"/>
	</clipPath>
	<rect x="622.8" y="114.7" class="st11" width="46.2" height="35"/>
</g>
<g>
	<defs>
		<path id="SVGID_23_" d="M702.8,139.9v3.9c-1.9,0.8-5,1.2-9.2,1.2c-1.4,0-2.9-0.1-4.3-0.4c-1.8-0.4-3.1-0.9-3.8-1.6
			c-2.4,1.4-5.3,2-8.7,2c-2.4,0-4.6-0.4-6.7-1.3c-2.7-1.2-4-2.8-4-4.8v-10.7H678v9.2c0,0.9,0.3,1.5,0.9,2c0.6,0.5,1.3,0.7,2.2,0.7
			c0.9,0,1.6-0.2,2.3-0.7c0.6-0.5,1-1.2,1-2v-9.2h12v9.4c0,0.9,0.3,1.6,0.9,2.1c0.6,0.5,1.4,0.8,2.3,0.8c0.4,0,0.9-0.1,1.5-0.2
			C702.2,140,702.7,139.9,702.8,139.9z"/>
	</defs>
	<clipPath id="SVGID_24_">
		<use xlink:href="#SVGID_23_"  style="overflow:visible;"/>
	</clipPath>
	<rect x="661.1" y="123.2" class="st12" width="46.7" height="26.8"/>
</g>
<g>
	<defs>
		<path id="SVGID_25_" d="M733.9,133.5h-4.5c0,4.6-1.4,7.8-4.4,9.6c-2.2,1.3-5.9,2-10.9,2c-2.4,0-4.7-0.6-7.1-1.7
			c-2.9-1.3-4.3-3.1-4.3-5.1v-18.4h12v15.8c0,1.3,0.4,2.3,1.3,3.2c0.9,0.9,1.9,1.2,3.1,1.2c1.5,0,2.8-0.5,3.8-1.4s1.5-2.2,1.5-3.7
			v-1.4h-0.5c-1.3,0-2.5-0.3-3.4-0.9c-1.1-0.7-1.7-1.7-1.7-3s0.5-2.2,1.4-2.9c0.9-0.6,1.9-0.9,3.3-0.9c1.1,0,2.1,0.2,3.1,0.6
			c1.1,0.4,2,1,2.5,1.8h4.8V133.5z"/>
	</defs>
	<clipPath id="SVGID_26_">
		<use xlink:href="#SVGID_25_"  style="overflow:visible;"/>
	</clipPath>
	<rect x="697.7" y="114.9" class="st13" width="41.2" height="35.2"/>
</g>
<g>
	<defs>
		<path id="SVGID_27_" d="M766,151.3h-11.2v-7.8c-1.4,1-4.2,1.5-8.6,1.5c-2.9,0-5.5-0.6-8-1.8c-3.1-1.5-4.6-3.5-4.6-6
			c0-3,1.3-5.3,4-7c2.2-1.4,4.9-2.1,8.1-2.1h7.6v4.9h-1.1c-1.6,0-3,0.2-4,0.6c-1.5,0.6-2.3,1.6-2.3,3c0,2.2,1.6,3.3,4.9,3.3
			c1.2,0,2.1-0.3,2.9-0.9c0.8-0.6,1.1-1.4,1.1-2.6v-3.1v-3.1v-1.9h11.1L766,151.3z"/>
	</defs>
	<clipPath id="SVGID_28_">
		<use xlink:href="#SVGID_27_"  style="overflow:visible;"/>
	</clipPath>
	<rect x="728.6" y="123.1" class="st14" width="42.4" height="33.2"/>
</g>
<g>
	<defs>
		<path id="SVGID_29_" d="M805,139.9v3.9c-1.9,0.8-5,1.2-9.2,1.2c-1.4,0-2.9-0.1-4.3-0.4c-1.8-0.4-3.1-0.9-3.8-1.6
			c-2.4,1.4-5.3,2-8.7,2c-2.4,0-4.6-0.4-6.7-1.3c-2.7-1.2-4-2.8-4-4.8v-10.7h11.9v9.2c0,0.9,0.3,1.5,0.9,2c0.6,0.5,1.3,0.7,2.2,0.7
			c0.9,0,1.6-0.2,2.3-0.7c0.6-0.5,1-1.2,1-2v-9.2h12v9.4c0,0.9,0.3,1.6,0.9,2.1c0.6,0.5,1.4,0.8,2.3,0.8c0.4,0,0.9-0.1,1.5-0.2
			C804.4,140,804.9,139.9,805,139.9z"/>
	</defs>
	<clipPath id="SVGID_30_">
		<use xlink:href="#SVGID_29_"  style="overflow:visible;"/>
	</clipPath>
	<rect x="763.3" y="123.2" class="st15" width="46.7" height="26.8"/>
</g>
<g>
	<defs>
		<path id="SVGID_31_" d="M824.9,143.9c-0.7,0.4-1.8,0.7-3.3,1c-1.3,0.3-2.5,0.4-3.4,0.4c-7.7,0-11.5-1.9-11.5-5.6v-11.4h12v10.4
			c0,1.4,0.9,2.1,2.7,2.1c1,0,2.1-0.3,3.5-1V143.9z M819.7,122.2c0,1.1-0.9,1.9-2.8,2.6c-1.4,0.5-2.8,0.7-4.2,0.7
			c-1.4,0-2.8-0.2-4.2-0.7c-1.8-0.6-2.8-1.4-2.8-2.6c0-1.1,0.9-1.9,2.8-2.6c1.3-0.4,2.7-0.6,4.2-0.6c1.4,0,2.8,0.2,4.2,0.6
			C818.8,120.3,819.7,121.1,819.7,122.2z"/>
	</defs>
	<clipPath id="SVGID_32_">
		<use xlink:href="#SVGID_31_"  style="overflow:visible;"/>
	</clipPath>
	<rect x="800.7" y="114" class="st16" width="29.2" height="36.3"/>
</g>
<g>
	<defs>
		<path id="SVGID_33_" d="M855.3,143.9c-2.3,0.7-5,1-8.1,1c-2.4,0-4.5-0.4-6.2-1.2c-2.2-1-3.4-2.7-3.4-4.8c0-1.9,1.3-3.8,3.8-5.4
			h-7.7c-0.9,5.6-3.9,9.1-9,10.4V140c1.4-0.6,2.5-1.4,3.2-2.5c0.6-0.9,1-2.2,1.2-3.9h-0.6c-1.1,0-2.1-0.3-3-1
			c-0.9-0.7-1.4-1.5-1.4-2.6c0-1.1,0.5-2.1,1.4-2.9c0.9-0.7,1.9-1.1,3.1-1.1c0.8,0,1.7,0.2,2.6,0.6c1,0.5,1.6,1,1.9,1.7h20.2v5.1
			h-3.2c-1.3,0.9-1.9,1.9-1.9,3.1c0,1,0.5,1.8,1.4,2.6c0.9,0.7,1.9,1.1,3,1.1c0.9,0,1.8-0.1,2.6-0.3v4H855.3z"/>
	</defs>
	<clipPath id="SVGID_34_">
		<use xlink:href="#SVGID_33_"  style="overflow:visible;"/>
	</clipPath>
	<rect x="819.1" y="121" class="st17" width="41.2" height="28.9"/>
</g>
<g>
	<defs>
		<path id="SVGID_35_" d="M887,139.9v3.9c-3.9,1-8.9,1.5-15,1.5c-3.3,0-6.3-0.3-8.8-0.8c-4.2-0.9-6.3-2.3-6.3-4.4
			c0-1.9,2.2-3.5,6.6-4.7c-1-0.3-1.9-0.7-2.8-1.2c-1.1-0.7-1.7-1.4-1.7-2.2c0-2.2,2.6-3.8,7.9-4.6c2.9-0.5,6.4-0.7,10.5-0.7
			c1.7,0,3.2,0,4.7,0.1v4c-1.6,0.1-3.2,0.1-4.8,0.1c-2.5,0.2-3.8,0.6-3.8,1.2c0,0.5,0.7,0.9,2.1,1.1c1,0.2,1.9,0.3,2.8,0.3h0.5v2.5
			c-5,0.6-7.5,1.6-7.5,2.8c0,1.3,2.7,1.9,8,1.9C882.7,140.8,885.3,140.5,887,139.9z"/>
	</defs>
	<clipPath id="SVGID_36_">
		<use xlink:href="#SVGID_35_"  style="overflow:visible;"/>
	</clipPath>
	<rect x="851.9" y="121.7" class="st18" width="40.1" height="28.6"/>
</g>
<line class="st19" x1="443.4" y1="174.9" x2="479.4" y2="174.9"/>
<line class="st19" x1="506.1" y1="174.9" x2="542.1" y2="174.9"/>
<line class="st19" x1="556.8" y1="174.9" x2="616.8" y2="174.9"/>
<line class="st19" x1="631.6" y1="174.9" x2="667.4" y2="174.9"/>
<line class="st20" x1="707.7" y1="324.7" x2="743.7" y2="324.7"/>
<line class="st20" x1="770.4" y1="324.7" x2="796.4" y2="324.7"/>
<line class="st20" x1="816.1" y1="324.7" x2="876.1" y2="324.7"/>
<line class="st20" x1="895.9" y1="324.7" x2="931.7" y2="324.7"/>
<line class="st20" x1="707.7" y1="352.7" x2="771.7" y2="352.7"/>
<line class="st20" x1="787.9" y1="352.7" x2="836.2" y2="352.7"/>
<line class="st20" x1="850.8" y1="352.7" x2="873.5" y2="352.7"/>
<line class="st20" x1="897.8" y1="352.7" x2="930.4" y2="352.7"/>
<line class="st20" x1="944.3" y1="352.7" x2="986.4" y2="352.7"/>
<line class="st20" x1="944.3" y1="324.7" x2="994.7" y2="324.7"/>
<line class="st20" x1="707.7" y1="380.7" x2="743.7" y2="380.7"/>
<g>
	<defs>
		<rect id="SVGID_37_" x="443.4" y="217.2" width="218.2" height="311.3"/>
	</defs>
	<use xlink:href="#SVGID_37_"  style="overflow:visible;fill-rule:evenodd;clip-rule:evenodd;fill:#D4D6D8;"/>
	<clipPath id="SVGID_38_">
		<use xlink:href="#SVGID_37_"  style="overflow:visible;"/>
	</clipPath>
	<rect x="438.4" y="212.2" class="st21" width="228.2" height="321.3"/>
	
		<use xlink:href="#SVGID_37_"  style="overflow:visible;fill-rule:evenodd;clip-rule:evenodd;fill:none;stroke:#000000;stroke-width:2;stroke-linecap:round;stroke-linejoin:round;stroke-miterlimit:10;"/>
</g>
<line class="st20" x1="760.4" y1="380.7" x2="796.4" y2="380.7"/>
<line class="st20" x1="811.1" y1="380.7" x2="871.1" y2="380.7"/>
<line class="st20" x1="885.9" y1="380.7" x2="921.7" y2="380.7"/>
<line class="st20" x1="935.5" y1="380.7" x2="994.7" y2="380.7"/>
<line class="st20" x1="707.7" y1="408.7" x2="743.7" y2="408.7"/>
<line class="st20" x1="760.4" y1="408.7" x2="796.4" y2="408.7"/>
<line class="st20" x1="811.1" y1="408.7" x2="871.1" y2="408.7"/>
<line class="st20" x1="935.3" y1="408.7" x2="975" y2="408.7"/>
<line class="st20" x1="884.9" y1="408.7" x2="920.7" y2="408.7"/>
<g>
	<path class="st22" d="M540.4,319.8c0,0,0.3,4.9,0,7.2c-0.3,2.4,2.3,8.6,6.7,7.9c4.4-0.7,3.8-7.7,3.6-10.1c-0.3-2.4,0-5.1,0-5.1
		L540.4,319.8z"/>
	<path class="st22" d="M540.4,319.8c0,0,0.3,4.9,0,7.2c-0.3,2.4,2.3,8.6,6.7,7.9c4.4-0.7,3.8-7.7,3.6-10.1c-0.3-2.4,0-5.1,0-5.1
		L540.4,319.8z"/>
	<g>
		<path class="st22" d="M572.7,269.9L572.7,269.9c0-0.1,0-0.2,0-0.2c0-15.6-12.7-28.3-28.3-28.3c-15.6,0-28.3,12.7-28.3,28.3
			c0,0.1,0,0.2,0,0.2h0c0,0,0.4,23.1,2,31.2c1.6,8.3,17.3,22.2,27,22.4c1.7,0-1-0.1,2.3,0c10,0.2,22.9-16.6,24.3-23.1
			C573.4,292.2,572.7,269.9,572.7,269.9z"/>
		<path class="st22" d="M572.7,269.9L572.7,269.9c0-0.1,0-0.2,0-0.2c0-15.6-12.7-28.3-28.3-28.3c-15.6,0-28.3,12.7-28.3,28.3
			c0,0.1,0,0.2,0,0.2h0c0,0,0.4,23.1,2,31.2c1.6,8.3,17.3,22.2,27,22.4c1.7,0-1-0.1,2.3,0c10,0.2,22.9-16.6,24.3-23.1
			C573.4,292.2,572.7,269.9,572.7,269.9z"/>
	</g>
	<g>
		<path class="st23" d="M548.3,349.5c1.2,0,2.2,0.4,3,1.3c0.8,0.9,1.2,2.1,1.2,3.7c1.1-0.3,2.1-0.7,2.9-1.2c0.8-0.5,1.3-0.7,1.3-0.7
			c0.2,0,0.2,0.1,0.2,0.4s-0.4,0.7-1.1,1.2c-0.8,0.6-1.9,1.1-3.4,1.7c-0.3,2.4-1.3,4.2-2.9,5.5c-1.6,1.3-3.2,1.9-4.8,1.9
			s-2.7-0.6-3.2-1.8c-0.5-1.2-0.8-3.1-0.8-5.6s0.2-5,0.6-7.3c0.4-2.3,0.9-4.1,1.4-5.4c0.6-1.3,1.2-2.3,1.8-3s1.2-1.1,1.8-1.1
			c0.3,0,0.5,0.3,0.7,1c0.2,0.6,0.3,1.4,0.3,2.4c0,2.1-0.4,4.4-1.1,7.2C546.9,349.6,547.6,349.5,548.3,349.5z M546.6,343.4
			c0-1.1-0.1-1.7-0.4-1.7c-0.2,0-0.5,0.6-0.9,1.7c-0.3,1.2-0.6,2.7-0.9,4.7c-0.3,2-0.4,3.9-0.4,5.9
			C545.7,349,546.6,345.5,546.6,343.4z M550.1,356.7c-0.2,0-0.7,0-1.3,0c-0.7,0-1.4-0.2-2.2-0.7c-0.8-0.5-1.4-1.1-1.7-1.9
			c-0.3,0.7-0.6,1.3-0.9,1.9c0.1,2,0.2,3.5,0.5,4.4c0.3,0.9,0.7,1.3,1.3,1.3c0.9,0,1.8-0.4,2.7-1.2
			C549.4,359.7,549.9,358.5,550.1,356.7z M547.7,350.9c-0.4,0-0.7,0.1-0.9,0.3c-0.2,0.2-0.3,0.5-0.3,0.9c0,0.8,0.4,1.5,1.1,2.1
			c0.7,0.5,1.6,0.8,2.7,0.8c0-1.1-0.2-2-0.6-2.9C549.2,351.4,548.6,350.9,547.7,350.9z"/>
	</g>
	<path class="st24" d="M550.5,507.4c0,0,0.1,2.7,0,3.4c-0.1,0.6,0.1,1.7,0.1,1.7s0.6,1,1.3,1.2c1.4,0.3,1,3,3.4,5.2
		c1.7,1.5,4.2,2.7,8.1,2.4c6.4-0.4,7.2-2,7.2-2s0.1-0.3,0.1-0.8c0-0.1-0.1-0.2-0.1-0.3c0.2-1.9,0.2-5.5-3.4-6.5
		c-3.3-0.8-4.2-4.9-4.2-5.9C563.1,504.5,551,501.8,550.5,507.4z"/>
	<g>
		<defs>
			<path id="SVGID_39_" d="M550.5,507.4c0,0,0.1,2.7,0,3.4c-0.1,0.6,0.1,1.7,0.1,1.7s0.6,1,1.3,1.2c1.4,0.3,1,3,3.4,5.2
				c1.7,1.5,4.2,2.7,8.1,2.4c6.4-0.4,7.2-2,7.2-2s0.1-0.3,0.1-0.8c0-0.1-0.1-0.2-0.1-0.3c0.2-1.9,0.2-5.5-3.4-6.5
				c-3.3-0.8-4.2-4.9-4.2-5.9C563.1,504.5,550.9,501.8,550.5,507.4z"/>
		</defs>
		<clipPath id="SVGID_40_">
			<use xlink:href="#SVGID_39_"  style="overflow:visible;"/>
		</clipPath>
		<path class="st25" d="M550.7,512.4l-0.1-0.7c0.4,0.4,1,1.1,1.4,1.2c0.5,0.1,1.4,0.9,2.1,2.6c0.7,1.7,4.3,6.7,16.7,2.6v0l0.1,0.2
			l-0.1,0.9l0.6,0.6c-0.2,0.1-4,3.3-10.8,2.1c-6.9-1.2-8-5.2-8.1-6.3c-0.1-0.7-0.9-1.4-1.5-1.8C551,513.2,550.7,512.4,550.7,512.4z"
			/>
	</g>
	<path class="st26" d="M524.5,426c0,0,2.3-1.4,0.3-3.9c-2-2.5-1-0.7-1-0.7s-0.4-3.9-0.6-5.4c-0.2-1.5-2.8,1-3.2,2.5
		C519.7,420,523.3,425.4,524.5,426z"/>
	<path class="st27" d="M520.9,426.2c0.1,0,2.9,2.8,2.9,2.8s1.9-0.8,1.5-2.3c-0.4-1.5-1.3-2.7-1.9-3.4c-0.6-0.7-2.4-3.1-2.5-3.9
		c-0.1-0.8,1.7-2.3,1.5-2.9c-0.2-0.6-0.8-1.1-1.2-0.7c-0.3,0.3-1.2,3.1-1.3,3.5c0,0-1.3,1.3-1.4,1.4c-0.1,0.1,0,0.9,0.2,1.5
		c0.2,0.6,1,2.2,1,2.2"/>
	<path class="st28" d="M517.4,424.4c0.1,0.1,1.3,6.2,1.6,6.8c0.2-0.1,1.1,0.4,2.6-0.7c1.5-1.1,0.3-4.8-0.1-5.4
		c-0.4-0.6-1.9-4.3-1.8-4.8c0-0.4,0.2-1.4,0.3-1.8C520.1,418.1,517.4,424.4,517.4,424.4z"/>
	<path class="st29" d="M522.6,417.1c-0.1,0.1-0.2-0.1-0.2-0.1s-0.1,0.2-0.2,0.5c-0.1,0.2-0.2,0.5-0.3,0.7c0.4-0.4,0.8-0.7,1.2-0.8
		c0,0,0.1,0.6,0.2,1.2l0,0c0-1.4-1-3.5-1-3.5S522.7,417,522.6,417.1z"/>
	<path class="st22" d="M521.6,407.4c0,0-3.9,8.6-4.4,9.9c-0.6,1.3-2.4,5.2-3.2,6.6c-1.4,2.4-4,4.6-3.9,5.1c0.5,0.9,2.6,2.6,5,0.6
		c2.4-2.1,3.6-5.8,4.1-6.8c0.5-1.1,2.5-5.1,3.9-5.4c0,0,0.3,1.6,0.3,2.3c0,0.7,0.6,2.6,0.8,3.2c0.4,0.8,5.8,2.7,7,0.1
		c0,0,0-0.2-0.8-1c-0.8-0.8-1.8-2.1-2-3c-0.2-1-0.7-0.7-0.5-2.4c0.2-1.7,0.4-1.2,0-2.7c-0.4-1.5-0.9-2.3-0.9-3.5
		c0-1.2,0.2-2.8,0.2-3.3c0-0.5-0.7-1.3-1.1-1.5c-0.4-0.2-4.6,1.7-4.6,1.7"/>
	<path class="st24" d="M542.3,506.8c0,0-0.1,2.7,0,3.4c0.1,0.6-0.1,1.7-0.1,1.7s-0.6,1-1.3,1.2c-1.4,0.3-1,3-3.4,5.2
		c-1.7,1.5-4.2,2.7-8.1,2.4c-6.3-0.4-7.2-2-7.2-2s-0.1-0.3-0.1-0.8c0-0.1,0.1-0.2,0.1-0.3c-0.2-1.9-0.2-5.5,3.4-6.5
		c3.3-0.8,4.2-4.9,4.2-5.9C529.8,503.9,541.8,501.2,542.3,506.8z"/>
	<path class="st30" d="M563.6,332.3l-14.1-6.4l-9.7,1.7c0,0-8.1,4.5-9.9,6.7c0,0,0,0,0,0c-3,2.5,2.1,16.6,2.2,24.8
		c0.7,11.6,2,32.5,2,32.5s0.5,3.6,13.5,3.7c13,0.1,12.2-2.1,12.2-2.1c2.1-2.1,2.1-33.7,2.2-42.4
		C562.1,341.8,563.6,332.3,563.6,332.3z"/>
	<path class="st31" d="M529,506.5c0,0,2.6-46.2,3-57.8c0.4-11.6,1.9-57.6,1.9-57.6l25.8,0.2c0,0,1.2,42.5,1.5,56.8
		c0.4,14.3,2.2,58.8,2.2,58.8s-1.6,1.4-4.5,1.8c-8,0.5-8.5-2.9-8.5-2.9l0.1-2.4l-0.5-54.3c0,0-0.3-0.3-0.4-0.9
		c-0.2-0.7,0.3-1.1,0.3-1.1s-0.4-1.1-0.1-1.8c0.3-0.7-1.5-38.2-1.5-38.2s-1.3,0-2.5,0.2c-1.1,0.1-1.5,33.6-2.1,39.2
		c0,0.1,0.1,0.5,0.1,0.6c0,0.4-0.3,0.6-0.3,0.6s0.1,0.8,0,1.3c-0.1,0.5-0.4,1-0.4,1L543,507c0,0-4.2,1.5-8.4,1.2
		C530.6,507.9,529,506.5,529,506.5z"/>
	<g>
		<defs>
			<path id="SVGID_41_" d="M529,506.5c0,0,2.6-46.2,3-57.8c0.4-11.6,1.9-57.6,1.9-57.6l25.8,0.2c0,0,1.2,42.5,1.5,56.8
				c0.4,14.3,2.2,58.8,2.2,58.8s-1.6,1.4-4.5,1.8c-8,0.5-8.5-2.9-8.5-2.9l0.1-2.4l-0.5-54.3c0,0-0.3-0.3-0.4-0.9
				c-0.2-0.7,0.3-1.1,0.3-1.1s-0.4-1.1-0.1-1.8c0.3-0.7-1.5-38.2-1.5-38.2s-1.3,0-2.5,0.2c-1.1,0.1-1.5,33.6-2.1,39.2
				c0,0.1,0.1,0.5,0.1,0.6c0,0.4-0.3,0.6-0.3,0.6s0.1,0.8,0,1.3c-0.1,0.5-0.4,1-0.4,1L543,507c0,0-4.2,1.5-8.4,1.2
				C530.6,507.9,529,506.5,529,506.5z"/>
		</defs>
		<clipPath id="SVGID_42_">
			<use xlink:href="#SVGID_41_"  style="overflow:visible;"/>
		</clipPath>
		<rect x="547.1" y="380.3" class="st32" width="21" height="128.4"/>
	</g>
	<g>
		<path class="st22" d="M571.3,288.8c0,0,3-4.5,6.7-1.6c3.8,2.9,0.2,6.4-1.5,8c-1.7,1.5-1.8,4.4-4.6,4.1c-2.8-0.3-3.7-3-3.7-3
			L571.3,288.8z"/>
		<path class="st33" d="M571.3,288.8c0,0,3-4.5,6.7-1.6c3.8,2.9,0.2,6.4-1.5,8c-1.7,1.5-1.8,4.4-4.6,4.1c-2.8-0.3-3.7-3-3.7-3
			L571.3,288.8z"/>
	</g>
	<g>
		<defs>
			<path id="SVGID_43_" d="M540.4,319.8c0,0,0.3,4.9,0,7.2c-0.3,2.4,2.3,8.6,6.7,7.9c4.4-0.7,3.8-7.7,3.6-10.1c-0.3-2.4,0-5.1,0-5.1
				L540.4,319.8z"/>
		</defs>
		<clipPath id="SVGID_44_">
			<use xlink:href="#SVGID_43_"  style="overflow:visible;"/>
		</clipPath>
		<path class="st34" d="M540.5,322.5h10.2C550.7,322.5,546.1,329.8,540.5,322.5z"/>
	</g>
	<path class="st23" d="M562.2,331.6c0.6,0.5,17.9,23.2,18.2,23.7c0.3,0.5,1.3,1.8,1.6,2.2c0.4,0.7,3.7,5,3.8,7.3
		c0.1,2.4-0.9,2.9-2.4,3.3c-1.4,0.3-5.4-0.1-7.3-0.8c-1.9-0.7-6.6-3.5-7-3.8c-0.4-0.3-2.6-9.1-3.4-10.4c-0.8-1.2-3.8-6.5-4.9-7.9
		c-1.1-1.4-1.4-2.9-1.6-4.1c-0.2-1.2-0.1-3,0.6-4.1C560.5,336,562.2,331.6,562.2,331.6z"/>
	<g>
		<path class="st23" d="M548.8,347.9c1.2,0,2.2,0.4,3,1.3c0.8,0.9,1.2,2.1,1.2,3.7c1.1-0.3,2.1-0.7,2.9-1.2c0.8-0.5,1.3-0.7,1.3-0.7
			c0.2,0,0.2,0.1,0.2,0.4c0,0.3-0.4,0.7-1.1,1.2c-0.8,0.6-1.9,1.1-3.4,1.7c-0.3,2.4-1.3,4.2-2.9,5.5c-1.6,1.3-3.2,1.9-4.8,1.9
			c-1.6,0-2.7-0.6-3.2-1.8c-0.5-1.2-0.8-3.1-0.8-5.6s0.2-5,0.6-7.3c0.4-2.3,0.9-4.1,1.4-5.4c0.6-1.3,1.2-2.3,1.8-3
			c0.6-0.7,1.2-1.1,1.8-1.1c0.3,0,0.5,0.3,0.7,1c0.2,0.6,0.3,1.4,0.3,2.4c0,2.1-0.4,4.4-1.1,7.2C547.4,348,548,347.9,548.8,347.9z
			 M547,341.8c0-1.1-0.1-1.7-0.4-1.7c-0.2,0-0.5,0.6-0.9,1.7c-0.3,1.2-0.6,2.7-0.9,4.7c-0.3,2-0.4,3.9-0.4,5.9
			C546.1,347.4,547,343.9,547,341.8z M550.6,355.1c-0.2,0-0.7,0-1.3,0c-0.7,0-1.4-0.2-2.2-0.7c-0.8-0.5-1.4-1.1-1.7-1.9
			c-0.3,0.7-0.6,1.3-0.9,1.9c0.1,2,0.2,3.5,0.5,4.4c0.3,0.9,0.7,1.3,1.3,1.3c0.9,0,1.8-0.4,2.7-1.2
			C549.8,358.1,550.3,356.8,550.6,355.1z M548.1,349.3c-0.4,0-0.7,0.1-0.9,0.3c-0.2,0.2-0.3,0.5-0.3,0.9c0,0.8,0.4,1.5,1.1,2.1
			c0.7,0.5,1.6,0.8,2.7,0.8c0-1.1-0.2-2-0.6-2.9C549.6,349.8,549,349.3,548.1,349.3z"/>
	</g>
	<path class="st22" d="M557.4,360.5c-1.3,0.1-2.4,0.1-3.2,0.1c-1,0-3-0.3-3.4-0.4c-0.6-0.2-1.4-0.9-1.8-1.5c-0.3-0.6,0-1.7,0-1.7
		s-0.7-0.3-1.1-0.7c-0.4-0.4-0.6-1.4-0.6-2.1c0-0.7,0.7-1.4,0.7-1.4s-0.4-0.1-0.8-0.4c-0.3-0.2-0.6-0.4-0.7-0.6
		c-0.4-0.6-0.5-2-0.3-2.8c0.3-0.8,0.5-1.1,0.5-1.1c-0.2-0.1-0.4-0.2-0.5-0.3c-0.6-0.5-0.4-1.9-0.4-2.2c0.1-1.8,0.8-1.9,1.2-2.3
		c0.3-0.3,3.1-1.1,3.8-1.1c0.6,0,6.9-0.8,6.9-0.8s0.5-0.1,0.3-0.6c-0.7-2.4-1.8-5.1-1.3-6.9c0.5-1.8,1.4-3.6,2.8-4.2
		c0.6-0.2,4.6,0.2,4,1.4c-0.5,1.2-2,4.7-1.6,7.1c0.2,1.1,2,4.3,2.2,4.4c1.9,1.8,2.7,3.1,4,5.2c1.4,2.1,4,4.6,4.1,4.8
		c0.1,0.1,0.4,3.6-0.4,5.8c-0.8,2.3-3.4,3.6-3.9,3.6c-0.5,0-2.2-1.5-2.8-1.9c-0.6-0.5-0.7-0.6-0.7-0.6"/>
	<g>
		<defs>
			<path id="SVGID_45_" d="M557.4,360.5c-1.3,0.1-2.4,0.1-3.2,0.1c-1,0-3-0.3-3.4-0.4c-0.6-0.2-1.4-0.9-1.8-1.5
				c-0.3-0.6,0-1.7,0-1.7s-0.7-0.3-1.1-0.7c-0.4-0.4-0.6-1.4-0.6-2.1c0-0.7,0.7-1.4,0.7-1.4s-0.4-0.1-0.8-0.4
				c-0.3-0.2-0.6-0.4-0.7-0.6c-0.4-0.6-0.5-2-0.3-2.8c0.3-0.8,0.5-1.1,0.5-1.1c-0.2-0.1-0.4-0.2-0.5-0.3c-0.6-0.5-0.4-1.9-0.4-2.2
				c0.1-1.8,0.8-1.9,1.2-2.3c0.3-0.3,3.1-1.1,3.8-1.1c0.6,0,6.9-0.8,6.9-0.8s0.5-0.1,0.3-0.6c-0.7-2.4-1.8-5.1-1.3-6.9
				c0.5-1.8,1.4-3.6,2.8-4.2c0.6-0.2,4.6,0.2,4,1.4c-0.5,1.2-2,4.7-1.6,7.1c0.2,1.1,2,4.3,2.2,4.4c1.9,1.8,2.7,3.1,4,5.2
				c1.4,2.1,4,4.6,4.1,4.8c0.1,0.1,0.4,3.6-0.4,5.8c-0.8,2.3-3.4,3.6-3.9,3.6c-0.5,0-2.2-1.5-2.8-1.9c-0.6-0.5-0.7-0.6-0.7-0.6"/>
		</defs>
		<clipPath id="SVGID_46_">
			<use xlink:href="#SVGID_45_"  style="overflow:visible;"/>
		</clipPath>
		<path class="st35" d="M545,327.2l22.8,37.5l13-19.5C580.8,345.2,576.4,324.3,545,327.2z"/>
	</g>
	<g>
		<path class="st22" d="M517.8,288.8c0,0-3-4.5-6.7-1.6c-3.8,2.9-0.2,6.4,1.5,8c1.7,1.5,1.8,4.4,4.6,4.1c2.8-0.3,3.7-3,3.7-3
			L517.8,288.8z"/>
		<path class="st33" d="M517.8,288.8c0,0-3-4.5-6.7-1.6c-3.8,2.9-0.2,6.4,1.5,8c1.7,1.5,1.8,4.4,4.6,4.1c2.8-0.3,3.7-3,3.7-3
			L517.8,288.8z"/>
	</g>
	<g>
		<defs>
			<path id="SVGID_47_" d="M572.7,269.9L572.7,269.9c0-0.1,0-0.2,0-0.2c0-15.6-12.7-28.3-28.3-28.3c-15.6,0-28.3,12.7-28.3,28.3
				c0,0.1,0,0.2,0,0.2h0c0,0,0.4,23.1,2,31.2c1.6,8.3,17.3,22.2,27,22.4c1.7,0-1-0.1,2.3,0c10,0.2,22.9-16.6,24.3-23.1
				C573.4,292.2,572.7,269.9,572.7,269.9z"/>
		</defs>
		<clipPath id="SVGID_48_">
			<use xlink:href="#SVGID_47_"  style="overflow:visible;"/>
		</clipPath>
		<rect x="500.4" y="232.6" class="st36" width="46.1" height="95.3"/>
	</g>
	<g>
		<defs>
			<path id="SVGID_49_" d="M576.2,282.9c0,0,1.1-11.7-2.4-20.1c0,0-5.6-18.7-23.8-21.3c0,0-11.8-3.7-26.2,7.7c0,0-6.2,5.7-9.3,13.6
				c0,0-0.9,3.1-0.5,4.5c0,0-0.2,0.2-0.4,0.7c-5.4,8.9-1.2,18.5-1.2,18.5c2.7-1.1,4.4,1.3,4.4,1.3l2.3,1.6c-1-2.4-1.3-12.7-1.3-13.8
				c0.1-0.6,0.2-1,0.2-1c15,10.3,53.7,3.2,53.7,3.2c0.2,0.3,0.4,0.6,0.5,0.9c0.3,1.6,1,6.8-0.1,9.1l2.3-1.2c0,0,1-0.4,2-0.3
				C576.1,286.3,576.2,282.9,576.2,282.9z"/>
		</defs>
		<clipPath id="SVGID_50_">
			<use xlink:href="#SVGID_49_"  style="overflow:visible;"/>
		</clipPath>
	</g>
	<path class="st37" d="M541.9,299.6c0,0,5.3,2.5,8.8-0.3"/>
	<path class="st38" d="M533.9,390.1c0,0-0.5,0.8-0.2,2.6c0,0-0.1,2.9,13.3,3.2c14,0.4,13.3-3.6,13.3-3.6s0.6-0.8,0.3-1.6
		c0,0-5.8,2.4-14.2,2.2C537.9,392.6,533.9,390.1,533.9,390.1z"/>
	<g>
		<g>
			<path class="st39" d="M548.2,392.5l-2.4,0c-1,0-1.9,0.8-1.9,1.9s0.8,1.9,1.9,1.9l2.4,0c1,0,1.9-0.8,1.9-1.9
				S549.2,392.5,548.2,392.5z M548.1,395.5l-2.4,0c-0.6,0-1-0.5-1-1.1c0-0.6,0.5-1,1.1-1l2.4,0c0.6,0,1,0.5,1,1.1h0
				C549.1,395,548.7,395.5,548.1,395.5z"/>
		</g>
		<g class="st40">
			<path class="st39" d="M548.2,392.5l-2.4,0c-1,0-1.9,0.8-1.9,1.9s0.8,1.9,1.9,1.9l2.4,0c1,0,1.9-0.8,1.9-1.9
				S549.2,392.5,548.2,392.5z M548.1,395.5l-2.4,0c-0.6,0-1-0.5-1-1.1c0-0.6,0.5-1,1.1-1l2.4,0c0.6,0,1,0.5,1,1.1h0
				C549.1,395,548.7,395.5,548.1,395.5z"/>
		</g>
	</g>
	<g>
		<defs>
			<path id="SVGID_51_" d="M542.3,506.8c0,0-0.1,2.7,0,3.4c0.1,0.6-0.1,1.7-0.1,1.7s-0.6,1-1.3,1.2c-1.4,0.3-1,3-3.4,5.2
				c-1.7,1.5-4.2,2.7-8.1,2.4c-6.3-0.4-7.2-2-7.2-2s-0.1-0.3-0.1-0.8c0-0.1,0.1-0.2,0.1-0.3c-0.2-1.9-0.2-5.5,3.4-6.5
				c3.3-0.8,4.2-4.9,4.2-5.9C529.8,503.9,541.9,501.2,542.3,506.8z"/>
		</defs>
		<clipPath id="SVGID_52_">
			<use xlink:href="#SVGID_51_"  style="overflow:visible;"/>
		</clipPath>
		<path class="st41" d="M542.1,511.9l0.1-0.7c-0.4,0.4-1,1.1-1.4,1.2c-0.5,0.1-1.4,0.9-2.1,2.6c-0.7,1.7-4.3,6.7-16.7,2.6v0
			l-0.1,0.2l0.1,0.9l-0.6,0.6c0.2,0.1,4,3.3,10.8,2.1c6.9-1.2,8-5.2,8.1-6.3c0.1-0.7,0.9-1.4,1.5-1.8
			C541.8,512.6,542.1,511.9,542.1,511.9z"/>
	</g>
	<g>
		<defs>
			<path id="SVGID_53_" d="M533.9,390.1c0,0-0.5,0.8-0.2,2.6c0,0-0.1,2.9,13.3,3.2c14,0.4,13.3-3.6,13.3-3.6s0.6-0.8,0.3-1.6
				c0,0-5.8,2.4-14.2,2.2C537.9,392.6,533.9,390.1,533.9,390.1z"/>
		</defs>
		<clipPath id="SVGID_54_">
			<use xlink:href="#SVGID_53_"  style="overflow:visible;"/>
		</clipPath>
		<path class="st42" d="M557.9,391.5c0,0,0.1,3.4,0.1,3.5c0,0.1,0.6,0,0.6,0l0.2-3.8L557.9,391.5z"/>
		<path class="st42" d="M538.2,391.7c0,0-0.5,3.5-0.5,3.6c0,0.1-0.6-0.1-0.6-0.1l0.3-3.8L538.2,391.7z"/>
		<g class="st43">
			<path class="st44" d="M555.3,392.2c0,0,0.1,3.3,0.1,3.4c0,0.1,0.6,0,0.6,0l0.1-3.6L555.3,392.2z"/>
			<path class="st44" d="M535.8,390.9c0,0-0.5,3.3-0.5,3.4c0,0.1-0.6-0.1-0.6-0.1l0.3-3.7L535.8,390.9z"/>
		</g>
	</g>
	<g id="_x35__12_">
		<path class="st45" d="M572.7,254.4c-3.8-8.6-8.2-10.1-8.2-10.1s0.5-0.7,1.2-0.9c0.6-0.1-2,0.2-2,0.2l0.3-1.4l-1.4,1.1
			c0,0-4.5-1.8-11.5-2.4c-2.6-0.5-5.9-1.1-7.1-1.2c0,0,0.7,0.5,1.9,1c-2.2,0-4.5,0.2-7,0.6c-2-0.1-6.3-0.2-8.4,0.6
			c0,0,2.2,0,3.7,0.4c-1,0.3-2,0.6-3.1,0.9c-3.1,1-5.5,2.4-7.5,4c-1.7,0.7-3.2,1.6-3.9,2.5c0,0,0.7-0.2,1.7-0.5
			c-1.4,1.6-2.5,3.3-3.4,5.1c-1.1,1.6-3.1,5-3.5,8.2c0,0,0.9-1.4,1.8-2.9c-1,5-0.7,10.4-0.5,15c0.5,10.7,0.8,15.7,0.8,15.7
			s0.4,3.2,1.1,3.9c0,0,0.6-17.1,1.1-20.4c0.4-3.3,2-8.1,4.8-11.1c2.8-3,10.5-1.8,21.2-0.6c10.6,1.2,15.2-1.6,17.7-1.6
			s7,3.3,7.7,9.7c0.6,6.4,1.7,21.6,1.7,22.9c0,1.3,1.3-3.7,1.7-10C573.9,276.7,576,261.7,572.7,254.4z"/>
		<g>
			<defs>
				<path id="SVGID_55_" d="M572.7,254.4c-3.8-8.6-8.2-10.1-8.2-10.1s0.5-0.7,1.2-0.9c0.6-0.1-2,0.2-2,0.2l0.3-1.4l-1.4,1.1
					c0,0-4.5-1.8-11.5-2.4c-2.6-0.5-5.9-1.1-7.1-1.2c0,0,0.7,0.5,1.9,1c-2.2,0-4.5,0.2-7,0.6c-2-0.1-6.3-0.2-8.4,0.6
					c0,0,2.2,0,3.7,0.4c-1,0.3-2,0.6-3.1,0.9c-3.1,1-5.5,2.4-7.5,4c-1.7,0.7-3.2,1.6-3.9,2.5c0,0,0.7-0.2,1.7-0.5
					c-1.4,1.6-2.5,3.3-3.4,5.1c-1.1,1.6-3.1,5-3.5,8.2c0,0,0.9-1.4,1.8-2.9c-1,5-0.7,10.4-0.5,15c0.5,10.7,0.8,15.7,0.8,15.7
					s0.4,3.2,1.1,3.9c0,0,0.6-17.1,1.1-20.4c0.4-3.3,2-8.1,4.8-11.1c2.8-3,10.5-1.8,21.2-0.6c10.6,1.2,15.2-1.6,17.7-1.6
					s7,3.3,7.7,9.7c0.6,6.4,1.7,21.6,1.7,22.9c0,1.3,1.3-3.7,1.7-10C573.9,276.7,576,261.7,572.7,254.4z"/>
			</defs>
			<clipPath id="SVGID_56_">
				<use xlink:href="#SVGID_55_"  style="overflow:visible;"/>
			</clipPath>
			<path class="st46" d="M577,259c0,0-27.6-22.9-65.9,0v-19.4h67.5v1.1L577,259z"/>
		</g>
	</g>
	<path class="st47" d="M534.7,283.7c0,0,1-1.6-0.5-1.9c-1.5-0.3-9.4-0.7-11.4,0c-2,0.7-3.1,2.7-3.3,3.8c0,0,1.9-2.5,4-2.6
		C525.5,282.9,534,283.7,534.7,283.7z"/>
	<path class="st47" d="M554.3,283.5c0,0-1-1.6,0.5-1.9c1.5-0.3,9.4-0.7,11.4,0c2,0.7,3.1,2.7,3.3,3.8c0,0-1.9-2.5-4-2.6
		C563.4,282.8,554.9,283.5,554.3,283.5z"/>
	<ellipse class="st48" cx="527.9" cy="289.8" rx="3.3" ry="3.8"/>
	<ellipse class="st48" cx="561.7" cy="289.7" rx="3.3" ry="3.8"/>
	<g>
		<path class="st23" d="M561.6,374.4l-0.1-8c-9.8,1.4-19.8,1.4-29.6,0.1c0.2,1.4,0.3,3.5,0.4,6.5c0,0.5,0,1.1,0,1.6
			C542.1,375.7,552,375.6,561.6,374.4z"/>
	</g>
	<g>
		<path class="st23" d="M561.7,381l-0.1-5.6c-9.7,1.4-19.5,1.4-29.2,0.2c0,1.9,0,3.8,0,5.6C542.2,382.4,552,382.3,561.7,381z"/>
	</g>
	<g>
		<path class="st23" d="M560.9,385.7l-0.1-3.5c-9.2,1.4-18.6,1.5-27.7,0.2c0,1.3,0,2.5,0,3.5C542.3,387.1,551.7,387.1,560.9,385.7z"
			/>
	</g>
	<g>
		<path class="st26" d="M523.6,427.9c0,0,2.4-1.4,0.3-4c-2.1-2.6-1-0.8-1-0.8s-0.4-4-0.6-5.5s-2.8,1-3.2,2.6
			C518.7,421.8,522.4,427.3,523.6,427.9z"/>
		<path class="st27" d="M519.9,428.1c0.1,0,3,2.9,3,2.9s2-0.8,1.5-2.3c-0.4-1.6-1.3-2.7-2-3.4c-0.7-0.7-2.5-3.2-2.6-4
			c-0.1-0.8,1.7-2.3,1.5-3c-0.2-0.6-0.8-1.1-1.2-0.8c-0.3,0.3-1.2,3.1-1.3,3.6c0,0-1.3,1.3-1.5,1.4c-0.1,0.1,0,0.9,0.2,1.5
			c0.2,0.6,1,2.3,1,2.3"/>
		<path class="st28" d="M516.3,426.3c0.1,0.1,1.4,6.4,1.7,7c0.2-0.1,1.1,0.4,2.7-0.7c1.5-1.1,0.3-4.9-0.1-5.5
			c-0.4-0.6-1.9-4.5-1.9-4.9c0-0.4,0.2-1.4,0.3-1.8C519.1,419.8,516.3,426.3,516.3,426.3z"/>
		<path class="st22" d="M520.6,408.8c0,0-4,8.8-4.5,10.2c-0.6,1.4-2.4,5.3-3.3,6.8c-1.5,2.5-4.1,4.7-4,5.2c0.5,1,2.7,2.7,5.1,0.6
			c2.4-2.1,3.7-5.9,4.2-7c0.5-1.1,2.5-5.3,4-5.5c0,0,0.3,1.7,0.3,2.3c0,0.7,0.6,2.7,0.9,3.3c0.4,0.8,5.9,2.7,7.1,0.1
			c0,0,0-0.2-0.8-1.1c-0.8-0.8-1.8-2.1-2.1-3.1c-0.2-1-0.8-0.7-0.5-2.5c0.2-1.8,0.4-1.2,0-2.7c-0.4-1.5-1-2.4-0.9-3.6
			c0-1.3,0.2-2.9,0.2-3.4c0-0.5-0.7-1.3-1.1-1.5c-0.4-0.2-4.7,1.7-4.7,1.7"/>
		<g>
			<path class="st23" d="M529.5,333.6c-3.1,0.5-9.1,41-9,39c0.4-4.9-1.7,23.2-0.8,36.5c0,0,1.4,1.3,4.8,1.6c2.6,0.3,3.6-0.8,3.6-0.8
				s1.2-37.2,1.3-37.7c0.1-1,3.5-22.9,3.5-23.4C532.9,348.2,530.3,333.4,529.5,333.6z"/>
			<path class="st23" d="M528.3,409.9c0,0,0-1.1,0.1-2.9c-5,0.8-8-0.8-9.1-1.5c0,1.2,0.1,2.4,0.2,3.5c0,0,1.5,1.3,5.1,1.7
				C527.3,411,528.3,409.9,528.3,409.9z"/>
		</g>
	</g>
	<g>
		<path class="st49" d="M516.1,284.3c0,0-0.5,9.7,0.1,9.8c1.6,0.3,12,2.6,22.2,0c0,0,1.6-5,0.4-7.9c-0.3-0.7-0.9-2.4-2.4-3
			C531.3,281.3,520.5,281.6,516.1,284.3z"/>
		<path class="st49" d="M572,284.3c0,0,0.5,9.7-0.1,9.8c-1.6,0.3-12,2.6-22.1,0c0,0-1.6-5-0.4-7.9c0.3-0.7,0.9-2.4,2.4-3
			C556.9,281.3,567.7,281.6,572,284.3z"/>
		<path class="st50" d="M572.7,283.6c-0.4-0.7-5.4-2.1-12.8-2.1c-7.4,0-10.4,0.3-10.9,2.3c0,0-1.9-0.8-4.7-0.9v0c0,0,0,0,0,0
			c0,0,0,0,0,0v0c-2.9,0.1-4.7,0.9-4.7,0.9c-0.5-2-3.6-2.3-11-2.3c-7.4,0-12.5,1.4-12.9,2.1c-0.4,0.7,0.1,9.2,0.1,9.2
			s0.1,1.7,0.7,1.6c1.1-0.2-0.3-8.5,1.6-9.6c1.9-1,16.8-2.2,18.6-0.5c1.8,1.8,2.2,5.7,2.1,8.5c0,1.3-0.5,1.5-0.1,1.6
			c0.4,0.1,0.9-0.4,1.3-1.3c0.7-1.7,0.1-7.7,4.4-7.7c4.2,0,3.6,6,4.3,7.7c0.4,0.9,0.9,1.4,1.3,1.3c0.4-0.1-0.1-0.2-0.1-1.6
			c-0.1-2.8,0.3-6.7,2.1-8.5c1.8-1.8,16.6-0.6,18.5,0.5c1.9,1,0.6,9.4,1.6,9.6c0.6,0.1,0.7-1.6,0.7-1.6S573,284.3,572.7,283.6z"/>
	</g>
	<g>
		<path class="st49" d="M516.1,297.1c0,0-0.5-9.7,0.1-9.8c1.6-0.3,12-2.6,22.2,0c0,0,1.6,5,0.4,7.9c-0.3,0.7-0.9,2.4-2.4,3
			C531.3,300.1,520.5,299.8,516.1,297.1z"/>
		<path class="st49" d="M572,297.1c0,0,0.5-9.7-0.1-9.8c-1.6-0.3-12-2.6-22.1,0c0,0-1.6,5-0.4,7.9c0.3,0.7,0.9,2.4,2.4,3
			C556.9,300.1,567.7,299.8,572,297.1z"/>
		<path class="st50" d="M540.3,292.1v-0.9c0,0,0-0.1,0-0.1c-0.2-1.1-0.3-2.1-0.5-2.7c-0.4-0.9-0.9-1.4-1.3-1.3
			c-0.4,0.1,0.1,0.2,0.1,1.6c0.1,2.8-0.3,6.7-2.1,8.5c-1.8,1.8-16.7,0.6-18.6-0.5c-1.9-1-0.6-9.4-1.6-9.6c-0.6-0.1-0.7,1.6-0.7,1.6
			s-0.5,8.5-0.1,9.2c0.4,0.7,5.5,2.1,12.9,2.1c6.2,0,9.3-0.2,10.5-1.4c0-0.2,0-0.4,0.1-0.6c0.2-0.4,0.3-0.8,0.5-1.1
			c0.1-1.5,0.5-2.9,0.8-4.3C540.3,292.3,540.3,292.2,540.3,292.1z"/>
		<path class="st50" d="M572.6,288.7c0,0-0.1-1.7-0.7-1.6c-1.1,0.2,0.2,8.5-1.6,9.6c-1.9,1-16.7,2.2-18.5,0.5
			c-1.8-1.8-2.2-5.7-2.1-8.5c0-1.3,0.5-1.5,0.1-1.6c-0.4-0.1-0.9,0.4-1.3,1.3c-0.3,0.8-0.4,2.7-0.8,4.3c0,0.2,0.1,0.4,0.1,0.6
			c0,0.1,0,0.2,0,0.3c0,0.1,0,0.3,0,0.4c-0.1,0.7,0,0.9,0.1,1.5c0.1,0.4,0.2,0.9,0.3,1.3c0,0.1,0.1,0.2,0.1,0.2
			c0.1,0.2,0.2,0.4,0.3,0.6c0.2-0.1,0.3-0.1,0.3-0.1c0.5,2,3.5,2.3,10.9,2.3c7.4,0,12.5-1.4,12.8-2.1
			C573,297.2,572.6,288.7,572.6,288.7z"/>
	</g>
	<path class="st23" d="M550.8,323.8c0,0-0.1,0-0.2-0.1c0.1,0.1,0.2,0.3,0.2,0.4c0,0.7-2.3,1.3-5.2,1.3s-5.2-0.6-5.2-1.3
		c0-0.1,0.1-0.2,0.2-0.4c-0.1,0-0.1,0-0.2,0.1l-0.4,4.8c0,0,4,3.8,11,0L550.8,323.8z"/>
	<g>
		<defs>
			<path id="SVGID_57_" d="M553.6,307.9l-0.6,3c0,0-4.1,3.8-13.1,1.3c0,0-0.9-1.9-1-3.3C539,308.9,542,310.5,553.6,307.9z"/>
		</defs>
		<clipPath id="SVGID_58_">
			<use xlink:href="#SVGID_57_"  style="overflow:visible;"/>
		</clipPath>
		<path class="st51" d="M539,307.8l0.5,1.4c0,0,2.3,1.7,13.4,0.1v-2.1L539,307.8z"/>
	</g>
</g>
<line class="st20" x1="707.7" y1="435.7" x2="729.7" y2="435.7"/>
<line class="st20" x1="744.7" y1="435.7" x2="760.1" y2="435.7"/>
<line class="st20" x1="775" y1="435.7" x2="796.4" y2="435.7"/>
<line class="st20" x1="810.3" y1="435.7" x2="846.1" y2="435.7"/>
<line class="st20" x1="856" y1="435.7" x2="877.4" y2="435.7"/>
<line class="st20" x1="891.3" y1="435.7" x2="927.1" y2="435.7"/>
<line class="st20" x1="944.3" y1="435.7" x2="980.1" y2="435.7"/>
<line class="st20" x1="707.7" y1="463.7" x2="743.7" y2="463.7"/>
<line class="st20" x1="770.4" y1="463.7" x2="806.4" y2="463.7"/>
<line class="st20" x1="821.1" y1="463.7" x2="881.1" y2="463.7"/>
<line class="st20" x1="895.9" y1="463.7" x2="931.7" y2="463.7"/>
<g>
	<path d="M722.1,247.2h-7.4v-21.4H708v-6.1h20.8v6.1h-6.7V247.2z"/>
	<path d="M745.7,247.2v-11.6c0-2.9-0.8-4.3-2.5-4.3c-1.2,0-2.1,0.5-2.7,1.5c-0.6,1-0.9,2.7-0.9,5v9.4h-7.4v-29.3h7.4v4.2
		c0,1.9-0.1,4-0.3,6.4h0.3c0.7-1.1,1.5-1.9,2.5-2.3c1-0.5,2.1-0.7,3.4-0.7c2.4,0,4.2,0.7,5.6,2.1c1.3,1.4,2,3.3,2,5.8v13.9H745.7z"
		/>
	<path d="M768.4,247.6c-3.5,0-6.3-0.9-8.3-2.8c-2-1.9-2.9-4.6-2.9-8.1c0-3.6,0.9-6.4,2.7-8.3c1.8-1.9,4.4-2.9,7.8-2.9
		c3.2,0,5.7,0.8,7.4,2.5s2.6,4.1,2.6,7.2v3.3h-13.1c0.1,1.2,0.5,2.1,1.3,2.8c0.8,0.7,1.9,1,3.4,1c1.3,0,2.5-0.1,3.6-0.4
		c1.1-0.2,2.3-0.7,3.5-1.3v5.3c-1.2,0.6-2.3,1-3.6,1.2S770.1,247.6,768.4,247.6z M768,230.5c-0.9,0-1.6,0.3-2.2,0.8
		c-0.6,0.5-0.9,1.4-1,2.6h6.3c0-1-0.3-1.8-0.9-2.5C769.7,230.8,768.9,230.5,768,230.5z"/>
	<path d="M792.4,219.7h9.6c3.7,0,6.5,0.6,8.3,1.7s2.7,2.8,2.7,5.2c0,1.5-0.4,2.9-1.2,3.9c-0.8,1.1-1.8,1.8-3.1,2.1v0.2
		c1.7,0.5,2.9,1.2,3.7,2.3c0.8,1.1,1.1,2.4,1.1,4.1c0,2.5-0.9,4.5-2.8,5.9s-4.4,2.2-7.7,2.2h-10.7V219.7z M799.8,230.2h2.2
		c1.1,0,1.9-0.2,2.5-0.7s0.9-1.1,0.9-2c0-1.5-1.2-2.3-3.5-2.3h-2.1V230.2z M799.8,235.7v5.8h2.6c2.3,0,3.5-1,3.5-2.9
		c0-0.9-0.3-1.6-0.9-2.1c-0.6-0.5-1.5-0.7-2.7-0.7H799.8z"/>
	<path d="M828.2,247.6c-3.5,0-6.3-0.9-8.3-2.8s-2.9-4.6-2.9-8.1c0-3.6,0.9-6.4,2.7-8.3c1.8-1.9,4.4-2.9,7.8-2.9
		c3.2,0,5.7,0.8,7.4,2.5c1.7,1.7,2.6,4.1,2.6,7.2v3.3h-13.1c0.1,1.2,0.5,2.1,1.3,2.8c0.8,0.7,1.9,1,3.4,1c1.3,0,2.5-0.1,3.6-0.4
		c1.1-0.2,2.3-0.7,3.5-1.3v5.3c-1.2,0.6-2.3,1-3.6,1.2S829.9,247.6,828.2,247.6z M827.7,230.5c-0.9,0-1.6,0.3-2.2,0.8
		c-0.6,0.5-0.9,1.4-1,2.6h6.3c0-1-0.3-1.8-0.9-2.5C829.4,230.8,828.7,230.5,827.7,230.5z"/>
	<path d="M858.1,240.6c0,2.3-0.8,4-2.3,5.2c-1.6,1.2-3.8,1.7-6.7,1.7c-1.6,0-3-0.1-4.1-0.3c-1.2-0.2-2.4-0.5-3.6-0.9v-5.9
		c1.1,0.5,2.4,0.9,3.8,1.2c1.4,0.3,2.6,0.5,3.6,0.5c1.6,0,2.4-0.4,2.4-1.1c0-0.4-0.2-0.7-0.7-1c-0.4-0.3-1.7-0.9-3.9-1.7
		c-2-0.8-3.3-1.7-4.1-2.7c-0.8-1-1.2-2.3-1.2-3.9c0-2,0.8-3.5,2.3-4.6s3.7-1.7,6.5-1.7c1.4,0,2.7,0.2,4,0.5s2.5,0.8,3.8,1.3l-2,4.7
		c-1-0.4-2-0.8-3.1-1.1s-2-0.5-2.7-0.5c-1.2,0-1.8,0.3-1.8,0.9c0,0.4,0.2,0.7,0.6,0.9s1.6,0.8,3.6,1.6c1.5,0.6,2.6,1.2,3.3,1.8
		c0.7,0.6,1.3,1.3,1.6,2.1C858,238.5,858.1,239.5,858.1,240.6z"/>
	<path d="M872.7,241.7c1,0,2.2-0.2,3.6-0.7v5.4c-1,0.4-1.9,0.7-2.8,0.9c-0.9,0.2-1.9,0.3-3.1,0.3c-2.5,0-4.2-0.6-5.3-1.8
		c-1.1-1.2-1.6-3.1-1.6-5.6v-8.8h-2.6v-3l3.3-2.3l1.9-4.5h4.8v4.3h5.2v5.5h-5.2v8.3C870.7,241.1,871.3,241.7,872.7,241.7z"/>
	<path d="M735.7,273.6c0,4.6-1.1,8.1-3.4,10.5c-2.3,2.4-5.6,3.6-10,3.6c-4.3,0-7.6-1.2-9.9-3.6c-2.3-2.4-3.5-5.9-3.5-10.6
		c0-4.6,1.1-8.1,3.4-10.5c2.3-2.4,5.6-3.6,10-3.6c4.4,0,7.7,1.2,9.9,3.6C734.6,265.5,735.7,269,735.7,273.6z M716.8,273.6
		c0,5.3,1.8,8,5.5,8c1.9,0,3.3-0.6,4.2-1.9c0.9-1.3,1.4-3.3,1.4-6c0-2.7-0.5-4.8-1.4-6.1c-0.9-1.3-2.3-2-4.1-2
		C718.7,265.6,716.8,268.2,716.8,273.6z"/>
	<path d="M755.4,287.4l-0.9-2.7h-0.4c-0.6,1-1.5,1.7-2.6,2.2s-2.4,0.8-3.9,0.8c-2.3,0-4.2-0.7-5.5-2c-1.3-1.4-2-3.3-2-5.8v-13.9h7.4
		v11.6c0,1.4,0.2,2.4,0.6,3.2c0.4,0.7,1,1.1,1.9,1.1c1.3,0,2.2-0.5,2.7-1.5c0.5-1,0.8-2.7,0.8-5v-9.3h7.4v21.3H755.4z"/>
	<path d="M776.5,282c1,0,2.2-0.2,3.6-0.7v5.4c-1,0.4-1.9,0.7-2.8,0.9c-0.9,0.2-1.9,0.3-3.1,0.3c-2.5,0-4.2-0.6-5.3-1.8
		c-1.1-1.2-1.6-3.1-1.6-5.6v-8.8h-2.6v-3l3.3-2.3l1.9-4.5h4.8v4.3h5.2v5.5h-5.2v8.3C774.5,281.3,775.2,282,776.5,282z"/>
	<path d="M796.8,271.6h-4.5v15.8h-7.4v-15.8h-2.8V268l3-1.8v-0.4c0-2.8,0.6-4.8,1.7-6.1c1.1-1.2,3-1.8,5.5-1.8c1,0,1.9,0.1,2.8,0.2
		c0.9,0.2,1.9,0.4,3,0.8l-1.6,4.8c-0.9-0.3-1.8-0.4-2.7-0.4c-0.6,0-1,0.2-1.2,0.5s-0.4,0.9-0.4,1.7v0.6h4.5V271.6z M799.5,260.8
		c0-1.1,0.3-1.9,0.9-2.5c0.6-0.5,1.6-0.8,3-0.8s2.4,0.3,3,0.8c0.6,0.6,0.9,1.4,0.9,2.4c0,2.2-1.3,3.2-3.9,3.2
		C800.8,264,799.5,262.9,799.5,260.8z M807.1,287.4h-7.4v-21.3h7.4V287.4z"/>
	<path d="M822.6,282c1,0,2.2-0.2,3.6-0.7v5.4c-1,0.4-1.9,0.7-2.8,0.9c-0.9,0.2-1.9,0.3-3.1,0.3c-2.5,0-4.2-0.6-5.3-1.8
		c-1.1-1.2-1.6-3.1-1.6-5.6v-8.8h-2.6v-3l3.3-2.3l1.9-4.5h4.8v4.3h5.2v5.5h-5.2v8.3C820.6,281.3,821.3,282,822.6,282z"/>
	<path d="M829,284.3c0-1.2,0.3-2,1-2.7c0.7-0.6,1.7-0.9,3-0.9c1.2,0,2.2,0.3,2.9,0.9c0.7,0.6,1,1.5,1,2.7c0,1.1-0.3,2-1,2.6
		c-0.7,0.6-1.6,0.9-2.8,0.9c-1.2,0-2.2-0.3-2.9-0.9C829.3,286.3,829,285.4,829,284.3z"/>
	<path d="M840.1,284.3c0-1.2,0.3-2,1-2.7c0.7-0.6,1.7-0.9,3-0.9c1.2,0,2.2,0.3,2.9,0.9c0.7,0.6,1,1.5,1,2.7c0,1.1-0.3,2-1,2.6
		c-0.7,0.6-1.6,0.9-2.8,0.9c-1.2,0-2.2-0.3-2.9-0.9C840.5,286.3,840.1,285.4,840.1,284.3z"/>
	<path d="M851.2,284.3c0-1.2,0.3-2,1-2.7c0.7-0.6,1.7-0.9,3-0.9c1.2,0,2.2,0.3,2.9,0.9c0.7,0.6,1,1.5,1,2.7c0,1.1-0.3,2-1,2.6
		c-0.7,0.6-1.6,0.9-2.8,0.9c-1.2,0-2.2-0.3-2.9-0.9C851.6,286.3,851.2,285.4,851.2,284.3z"/>
	<path d="M880,287.4h-16.3v-27.5H880v6h-8.9v4.3h8.2v6h-8.2v5.2h8.9V287.4z"/>
	<path d="M900.3,259.9h8.3l-9,27.5h-8.7l-9-27.5h8.3l3.7,13.9c0.8,3.1,1.2,5.3,1.3,6.5c0.1-0.9,0.3-2,0.5-3.3s0.5-2.4,0.7-3.1
		L900.3,259.9z"/>
	<path d="M927.9,287.4h-16.3v-27.5h16.3v6H919v4.3h8.2v6H919v5.2h8.9V287.4z"/>
	<path d="M940.1,277.4v10h-7.4v-27.5h9c7.5,0,11.2,2.7,11.2,8.1c0,3.2-1.6,5.6-4.7,7.4l8,12h-8.4l-5.8-10H940.1z M940.1,271.8h1.4
		c2.6,0,3.9-1.1,3.9-3.4c0-1.9-1.3-2.8-3.8-2.8h-1.5V271.8z"/>
	<path d="M957.4,284.3c0-1.2,0.3-2,1-2.7c0.7-0.6,1.7-0.9,3-0.9c1.2,0,2.2,0.3,2.9,0.9c0.7,0.6,1,1.5,1,2.7c0,1.1-0.3,2-1,2.6
		c-0.7,0.6-1.6,0.9-2.8,0.9c-1.2,0-2.2-0.3-2.9-0.9C957.8,286.3,957.4,285.4,957.4,284.3z"/>
</g>
<g>
	<rect id="shop_now_rect" x="461.4" y="345.6" class="st52" width="184.3" height="61.3"/>
	<g>
		<path class="st53" d="M490.7,381.6c0,1.2-0.3,2.3-0.9,3.2c-0.6,0.9-1.5,1.6-2.6,2.2c-1.1,0.5-2.5,0.8-4,0.8
			c-1.3,0-2.4-0.1-3.2-0.3c-0.9-0.2-1.8-0.5-2.7-0.9v-4.6c1,0.5,2,0.9,3.1,1.2c1.1,0.3,2.1,0.4,3,0.4c0.8,0,1.3-0.1,1.7-0.4
			c0.4-0.3,0.5-0.6,0.5-1c0-0.3-0.1-0.5-0.2-0.7c-0.1-0.2-0.4-0.4-0.7-0.6s-1.2-0.6-2.6-1.2c-1.3-0.6-2.2-1.1-2.8-1.7
			c-0.6-0.5-1.1-1.2-1.4-1.8c-0.3-0.7-0.5-1.5-0.5-2.5c0-1.8,0.6-3.2,1.9-4.2s3.1-1.5,5.3-1.5c2,0,4,0.5,6.1,1.4l-1.6,4
			c-1.8-0.8-3.4-1.2-4.7-1.2c-0.7,0-1.2,0.1-1.5,0.4s-0.5,0.5-0.5,0.9c0,0.4,0.2,0.7,0.6,1c0.4,0.3,1.5,0.8,3.2,1.6
			c1.7,0.7,2.8,1.5,3.5,2.4C490.3,379.2,490.7,380.3,490.7,381.6z"/>
		<path class="st53" d="M510.2,387.5h-5.2v-7.9h-6.1v7.9h-5.2v-19.3h5.2v7.1h6.1v-7.1h5.2V387.5z"/>
		<path class="st53" d="M532.4,377.8c0,3.2-0.8,5.7-2.4,7.4s-3.9,2.5-7,2.5c-3,0-5.3-0.8-7-2.5s-2.4-4.2-2.4-7.4
			c0-3.2,0.8-5.7,2.4-7.4c1.6-1.7,3.9-2.5,7-2.5c3.1,0,5.4,0.8,7,2.5S532.4,374.6,532.4,377.8z M519.1,377.8c0,3.7,1.3,5.6,3.9,5.6
			c1.3,0,2.3-0.5,2.9-1.4s1-2.3,1-4.2c0-1.9-0.3-3.3-1-4.3c-0.6-0.9-1.6-1.4-2.9-1.4C520.4,372.2,519.1,374,519.1,377.8z"/>
		<path class="st53" d="M549.8,374.3c0,2.2-0.6,3.8-1.9,5c-1.3,1.2-3.1,1.8-5.4,1.8H541v6.4h-5.2v-19.3h6.7c2.4,0,4.3,0.5,5.5,1.6
			S549.8,372.4,549.8,374.3z M541,376.8h0.9c0.8,0,1.4-0.2,1.9-0.7c0.5-0.4,0.7-1,0.7-1.8c0-1.3-0.7-2-2.2-2H541V376.8z"/>
		<path class="st53" d="M578.3,387.5h-6.8l-7-13.6h-0.1c0.2,2.1,0.3,3.8,0.3,4.9v8.7h-4.6v-19.3h6.8l7,13.4h0.1
			c-0.1-1.9-0.2-3.5-0.2-4.7v-8.7h4.6V387.5z"/>
		<path class="st53" d="M600.5,377.8c0,3.2-0.8,5.7-2.4,7.4s-3.9,2.5-7,2.5c-3,0-5.3-0.8-7-2.5s-2.4-4.2-2.4-7.4
			c0-3.2,0.8-5.7,2.4-7.4c1.6-1.7,3.9-2.5,7-2.5c3.1,0,5.4,0.8,7,2.5S600.5,374.6,600.5,377.8z M587.2,377.8c0,3.7,1.3,5.6,3.9,5.6
			c1.3,0,2.3-0.5,2.9-1.4s1-2.3,1-4.2c0-1.9-0.3-3.3-1-4.3c-0.6-0.9-1.6-1.4-2.9-1.4C588.5,372.2,587.2,374,587.2,377.8z"/>
		<path class="st53" d="M624.8,387.5h-6.2l-1.8-8.4c-0.1-0.4-0.2-1.1-0.4-2.1c-0.2-1-0.3-1.9-0.4-2.6c-0.1,0.6-0.2,1.3-0.3,2.1
			c-0.2,0.8-0.3,1.6-0.5,2.3s-0.8,3.6-1.9,8.6H607l-4.8-19.3h5l2.1,9.7c0.5,2.1,0.8,3.8,1,5.1c0.1-0.9,0.3-2.1,0.6-3.7
			s0.6-2.8,0.8-3.8l1.7-7.3h4.8l1.6,7.3c0.3,1.2,0.6,2.5,0.9,4s0.5,2.7,0.6,3.4c0.1-1,0.4-2.7,0.9-5.1l2.1-9.7h5L624.8,387.5z"/>
	</g>
</g>
<g>
	<g>
		
			<image style="overflow:visible;opacity:0.75;" width="714" height="1145" xlink:href="BBF0524A68259A5B.png"  transform="matrix(0.24 0 0 0.24 913.0717 230.7656)">
		</image>
		<g>
			<rect x="936.1" y="239.8" class="st54" width="139.3" height="242.6"/>
			<rect x="936.1" y="239.8" class="st55" width="139.3" height="242.6"/>
		</g>
	</g>
	<g>
		<g>
			<defs>
				<path id="SVGID_59_" d="M987.2,302.7l-9.7-4.3l-6.7,1.2c0,0-5.6,3.1-6.8,4.5c0,0,0,0,0,0.1c-2.1,1.7,1.4,11.2,1.5,16.7
					c0.5,7.8,1.4,21.7,1.4,21.7s0.4,2.4,9.3,2.5c8.9,0.1,8.4-1.4,8.4-1.4c1.4-1.4,1.4-22.6,1.5-28.4
					C986.2,309,987.2,302.7,987.2,302.7z"/>
			</defs>
			<clipPath id="SVGID_60_">
				<use xlink:href="#SVGID_59_"  style="overflow:visible;"/>
			</clipPath>
			<rect x="960.7" y="295.7" class="st56" width="29.2" height="51.9"/>
		</g>
		<g>
			<defs>
				<path id="SVGID_61_" d="M976.3,314.1c-0.3,0-0.5,0.1-0.6,0.2c-0.2,0.2-0.2,0.4-0.2,0.6c0,0.5,0.3,1,0.7,1.4
					c0.5,0.4,1.1,0.5,1.9,0.5c0-0.7-0.2-1.4-0.4-1.9C977.3,314.4,976.8,314.1,976.3,314.1z M978,318h-0.9c-0.4,0-1-0.2-1.5-0.5
					c-0.6-0.3-1-0.7-1.2-1.3c-0.2,0.4-0.4,0.9-0.6,1.3c0.1,1.4,0.2,2.3,0.3,2.9c0.2,0.6,0.5,0.9,0.9,0.9c0.6,0,1.3-0.3,1.9-0.8
					C977.4,320,977.8,319.1,978,318z M975.5,309c0-0.7-0.1-1.1-0.3-1.1c-0.2,0-0.4,0.4-0.6,1.2c-0.2,0.8-0.4,1.9-0.6,3.2
					c-0.2,1.3-0.3,2.6-0.3,4C974.9,312.8,975.5,310.4,975.5,309z M976.7,313.1c0.8,0,1.5,0.3,2.1,0.9c0.5,0.6,0.8,1.4,0.8,2.5
					c0.7-0.2,1.4-0.5,2-0.8s0.9-0.5,0.9-0.5c0.1,0,0.2,0.1,0.2,0.3c0,0.2-0.3,0.5-0.8,0.8c-0.5,0.4-1.3,0.7-2.3,1.1
					c-0.2,1.6-0.9,2.8-2,3.7c-1.1,0.8-2.2,1.3-3.3,1.3c-1.1,0-1.9-0.4-2.2-1.2c-0.4-0.8-0.5-2.1-0.5-3.8c0-1.7,0.1-3.3,0.4-4.9
					c0.3-1.5,0.6-2.8,1-3.6c0.4-0.9,0.8-1.6,1.3-2c0.4-0.4,0.8-0.7,1.2-0.7c0.2,0,0.4,0.2,0.5,0.6c0.2,0.4,0.2,1,0.2,1.6
					c0,1.4-0.3,3-0.8,4.8C975.7,313.2,976.2,313.1,976.7,313.1z"/>
			</defs>
			<clipPath id="SVGID_62_">
				<use xlink:href="#SVGID_61_"  style="overflow:visible;"/>
			</clipPath>
			<rect x="969" y="303.7" class="st57" width="16.4" height="21.5"/>
		</g>
		<g>
			<defs>
				<path id="SVGID_63_" d="M986.2,334.8l-0.1-3.8c-6.7,1-13.5,1-20.1,0.1c0,1.3,0.1,2.5,0.1,3.8
					C972.7,335.7,979.5,335.7,986.2,334.8z"/>
			</defs>
			<clipPath id="SVGID_64_">
				<use xlink:href="#SVGID_63_"  style="overflow:visible;"/>
			</clipPath>
			<rect x="963.3" y="328.4" class="st58" width="25.5" height="9.7"/>
		</g>
		<g>
			<defs>
				<path id="SVGID_65_" d="M986.3,330.1l-0.1-5.4c-6.7,1-13.6,1-20.4,0.1c0.1,1,0.3,2.3,0.3,4.3c0,0.4,0,0.7,0.1,1.1
					C972.8,331,979.6,331,986.3,330.1z"/>
			</defs>
			<clipPath id="SVGID_66_">
				<use xlink:href="#SVGID_65_"  style="overflow:visible;"/>
			</clipPath>
			<rect x="963.2" y="322.1" class="st59" width="25.8" height="11.3"/>
		</g>
		<g>
			<defs>
				<path id="SVGID_67_" d="M985.8,337.7l-0.1-2.4c-6.3,1-12.8,1-19.1,0.1v2.4C973,338.7,979.4,338.6,985.8,337.7z"/>
			</defs>
			<clipPath id="SVGID_68_">
				<use xlink:href="#SVGID_67_"  style="overflow:visible;"/>
			</clipPath>
			<rect x="964" y="332.7" class="st60" width="24.4" height="8.4"/>
		</g>
		<g>
			<defs>
				<path id="SVGID_69_" d="M964.2,303.8c-2.2,0.3-6.3,27.5-6.2,26.1c0.3-3.3-1.2,15.5-0.5,24.4c0,0,1,0.8,3.3,1.1
					c1.8,0.2,2.5-0.5,2.5-0.5s0.8-24.9,0.9-25.3c0.1-0.7,2.4-15.3,2.4-15.7C966.5,313.7,964.7,303.8,964.2,303.8z"/>
			</defs>
			<clipPath id="SVGID_70_">
				<use xlink:href="#SVGID_69_"  style="overflow:visible;"/>
			</clipPath>
			<rect x="954.6" y="301.2" class="st61" width="14.6" height="56.9"/>
		</g>
		<g>
			<defs>
				<path id="SVGID_71_" d="M963.4,355c0,0,0-0.7,0.1-1.9c-3.4,0.5-5.6-0.5-6.2-1c0.1,0.8,0.1,1.6,0.1,2.3c0,0,1.1,0.9,3.5,1.1
					C962.7,355.8,963.4,355,963.4,355z"/>
			</defs>
			<clipPath id="SVGID_72_">
				<use xlink:href="#SVGID_71_"  style="overflow:visible;"/>
			</clipPath>
			<rect x="954.5" y="349.5" class="st62" width="11.5" height="8.8"/>
		</g>
		<g>
			<defs>
				<path id="SVGID_73_" d="M987.1,303.3c2.2,0.3,6.3,27.5,6.2,26.1c-0.3-3.3,1.2,15.5,0.5,24.4c0,0-1,0.8-3.3,1.1
					c-1.8,0.2-2.5-0.5-2.5-0.5s-0.8-24.9-0.9-25.3c-0.1-0.7-2.4-15.3-2.4-15.7C984.7,313.1,986.5,303.2,987.1,303.3z"/>
			</defs>
			<clipPath id="SVGID_74_">
				<use xlink:href="#SVGID_73_"  style="overflow:visible;"/>
			</clipPath>
			<rect x="982" y="300.7" class="st63" width="14.6" height="56.9"/>
		</g>
		<g>
			<defs>
				<path id="SVGID_75_" d="M987.8,354.5c0,0,0-0.7-0.1-1.9c3.4,0.5,5.6-0.5,6.2-1c-0.1,0.8-0.1,1.6-0.1,2.3c0,0-1.1,0.9-3.5,1.1
					C988.5,355.2,987.8,354.5,987.8,354.5z"/>
			</defs>
			<clipPath id="SVGID_76_">
				<use xlink:href="#SVGID_75_"  style="overflow:visible;"/>
			</clipPath>
			<rect x="985.1" y="348.9" class="st64" width="11.5" height="8.7"/>
		</g>
		<g>
			<defs>
				<path id="SVGID_77_" d="M978.9,296.2c0,0-0.1-0.1-0.2-0.1c0.1,0.1,0.2,0.2,0.2,0.3c0,0.5-1.6,0.9-3.5,0.9s-3.5-0.4-3.5-0.9
					c0-0.1,0.1-0.2,0.1-0.3c-0.1,0-0.1,0.1-0.1,0.1l-0.3,3.2c0,0,2.8,2.5,7.6,0L978.9,296.2z"/>
			</defs>
			<clipPath id="SVGID_78_">
				<use xlink:href="#SVGID_77_"  style="overflow:visible;"/>
			</clipPath>
			<rect x="968.9" y="293.5" class="st65" width="12.9" height="9.6"/>
		</g>
	</g>
	<rect x="955.2" y="453.5" width="102.5" height="18.4"/>
	<line class="st20" x1="957.2" y1="366.4" x2="993.2" y2="366.4"/>
	<line class="st20" x1="954.6" y1="430.9" x2="990.6" y2="430.9"/>
	<line class="st20" x1="1012.6" y1="366.4" x2="1048.6" y2="366.4"/>
	<g>
		<path class="st66" d="M1027.4,289.8h-5.2l-0.5,13.9c0.2-0.1,0.4-0.3,0.5-0.4C1025.8,300.3,1027.6,295.8,1027.4,289.8z"/>
		<path class="st66" d="M1043.5,303.4c0.2,0.1,0.3,0.3,0.5,0.4l-1-13.9h-4.7C1038.2,295.9,1039.9,300.4,1043.5,303.4z"/>
		<g>
			<path class="st66" d="M1044,308.7l0.1-4.3c-0.2-0.2-0.5-0.4-0.7-0.6c-2.6-2.1-5.6-6.3-5.4-14h-10.2c0.2,7.7-2.8,11.8-5.4,13.9
				c-0.3,0.2-0.5,0.4-0.8,0.6l0.2,5.1l0.4,22.2l-0.5,24.1l6.5,0.1l1.9-24.5l3.5-27.1l3.9,27.4l2.4,24.1l6.6,0.1l-2-25L1044,308.7z
				 M1034.3,304c0,0.1-0.1,0.2-0.1,0.2c0,0,0,0-0.1,0c-0.2,0-0.7-0.1-1.3-0.8c-1.3-1.7-1.3-5.6-1.2-8.5c0-0.1,0.1-0.2,0.1-0.2h2.4
				c0.1,0,0.1,0.1,0.1,0.2V304z"/>
			<path class="st66" d="M1033,303.1c0.4,0.6,0.8,0.7,1,0.7v-8.7h-2.1C1031.6,300.1,1032.4,302.2,1033,303.1z"/>
		</g>
		<path class="st67" d="M1043.1,291.9h-20.9c-0.1,0-0.1,0.1-0.1,0.2c0,0.1,0,0.2,0.1,0.2h20.9c0.1,0,0.1-0.1,0.1-0.2
			C1043.2,292,1043.2,291.9,1043.1,291.9z"/>
	</g>
	<g>
		<defs>
			<rect id="SVGID_79_" x="952.6" y="390.6" width="49" height="25.7"/>
		</defs>
		<clipPath id="SVGID_80_">
			<use xlink:href="#SVGID_79_"  style="overflow:visible;"/>
		</clipPath>
		<g class="st68">
			<defs>
				<rect id="SVGID_81_" x="952.6" y="390.6" width="49" height="25.7"/>
			</defs>
			<clipPath id="SVGID_82_">
				<use xlink:href="#SVGID_81_"  style="overflow:visible;"/>
			</clipPath>
			<g class="st69">
				<g>
					<defs>
						<rect id="SVGID_83_" x="947.6" y="397.3" width="28.8" height="17.6"/>
					</defs>
					<clipPath id="SVGID_84_">
						<use xlink:href="#SVGID_83_"  style="overflow:visible;"/>
					</clipPath>
					<rect x="954.8" y="402.9" class="st70" width="14.3" height="11.2"/>
				</g>
			</g>
			<g class="st69">
				<g>
					<defs>
						<rect id="SVGID_85_" x="969.7" y="397.3" width="28.8" height="17.6"/>
					</defs>
					<clipPath id="SVGID_86_">
						<use xlink:href="#SVGID_85_"  style="overflow:visible;"/>
					</clipPath>
					<rect x="977" y="402.9" class="st71" width="14.3" height="11.2"/>
				</g>
			</g>
			<path class="st72" d="M955.8,404.5l12-10.8l-0.7-0.8l0.5,0.9l-0.1-0.2l0.1,0.2l-0.1-0.2l0.1,0.2c0,0,0.5-0.3,1.2-0.6
				c0.3-0.1,0.7-0.3,1.1-0.4c0.3-0.1,0.7-0.2,0.9-0.2c0.1,0,0.2,0,0.2,0l0,0l0,0l0-0.1l-0.1,0l0,0l0-0.1l-0.1,0l0,0l0,0l0,0l0,0l0,0
				c0,0,0,0,0,0.1l2.1-0.2c0-0.3-0.1-0.6-0.3-0.9c-0.2-0.4-0.6-0.7-1-0.9c-0.4-0.2-0.8-0.2-1.1-0.2c-0.5,0-1,0.1-1.5,0.2
				c-0.7,0.2-1.4,0.5-1.9,0.7c-0.5,0.2-0.8,0.4-0.8,0.4l-0.1,0.1L954.4,403L955.8,404.5z"/>
			<path class="st72" d="M968.5,404.6L968.5,404.6c0,0,0.6-0.4,1.5-0.7c0.9-0.3,2-0.7,3.1-0.6c0.6,0,1.1,0.1,1.7,0.3
				c0.5,0.2,1,0.5,1.5,0.9l1.5-1.5c-0.7-0.7-1.4-1.1-2.2-1.4c-0.8-0.3-1.6-0.4-2.4-0.4c-1.5,0-3,0.4-4,0.8c-1,0.4-1.7,0.8-1.8,0.8
				L968.5,404.6z"/>
			<path class="st72" d="M966.5,415.2v-1H957c-0.6,0-1.2-0.2-1.6-0.7c-0.4-0.4-0.7-1-0.7-1.6v-5.5c0-0.6,0.3-1.2,0.7-1.6
				c0.4-0.4,1-0.7,1.6-0.7h9.5c0.6,0,1.2,0.3,1.6,0.7c0.4,0.4,0.7,1,0.7,1.6v5.5c0,0.6-0.3,1.2-0.7,1.6c-0.4,0.4-1,0.7-1.6,0.7
				V415.2v1c2.4,0,4.3-1.9,4.3-4.3v-5.5c0-2.4-1.9-4.3-4.3-4.3H957c-2.4,0-4.3,1.9-4.3,4.3v5.5c0,1.2,0.5,2.3,1.3,3.1
				c0.8,0.8,1.9,1.3,3.1,1.3h9.5V415.2z"/>
			<path class="st72" d="M988.9,415.2v-1h-9.5c-0.6,0-1.2-0.2-1.6-0.7c-0.4-0.4-0.7-1-0.7-1.6v-5.5c0-0.6,0.3-1.2,0.7-1.6
				c0.4-0.4,1-0.7,1.6-0.7h9.5c0.6,0,1.2,0.3,1.6,0.7c0.4,0.4,0.7,1,0.7,1.6v5.5c0,0.6-0.3,1.2-0.7,1.6c-0.4,0.4-1,0.7-1.6,0.7
				V415.2v1c2.4,0,4.3-1.9,4.3-4.3v-5.5c0-2.4-1.9-4.3-4.3-4.3h-9.5c-2.4,0-4.3,1.9-4.3,4.3v5.5c0,1.2,0.5,2.3,1.3,3.1
				c0.8,0.8,1.9,1.3,3.1,1.3h9.5V415.2z"/>
			<path class="st72" d="M992.4,404.3l6.3-9.2l-0.9-0.6l0.7,0.8l-0.1-0.1l0.1,0.1l0,0l-0.1-0.1l0.1,0.1c0,0,0.3-0.2,0.6-0.4
				c0.2-0.1,0.3-0.2,0.5-0.3c0.1-0.1,0.3-0.1,0.3-0.1v-0.2l-0.1,0.2c0,0,0.1,0,0.1,0v-0.2l-0.1,0.2l0.1-0.4l-0.4,0.2
				c0,0.1,0.1,0.1,0.2,0.2l0.1-0.4l-0.4,0.2l0.2-0.1l-0.2,0.1l0,0l0.2-0.1l-0.2,0.1l0,0l0,0l0,0l0,0l0,0c0,0,0,0,0,0.1l2.1-0.2
				c0-0.2-0.1-0.5-0.2-0.7c-0.1-0.3-0.4-0.6-0.7-0.8c-0.3-0.2-0.7-0.3-0.9-0.3c-0.4,0-0.8,0.1-1.1,0.2c-0.5,0.2-0.9,0.4-1.2,0.6
				c-0.3,0.2-0.5,0.4-0.5,0.4l-0.1,0.1l-6.3,9.3L992.4,404.3z"/>
		</g>
		<line class="st73" x1="956.9" y1="409.1" x2="961.3" y2="406.5"/>
		<line class="st73" x1="960.2" y1="410.6" x2="964.6" y2="408"/>
		<line class="st73" x1="979.4" y1="410.6" x2="983.7" y2="408"/>
		<line class="st73" x1="984.5" y1="410.8" x2="988.9" y2="408.2"/>
	</g>
	<text transform="matrix(1 0 0 1 973.6381 467.0123)" class="st54 st74 st75">PURCHASE</text>
	<g>
		<g>
			<defs>
				<path id="SVGID_87_" d="M962.4,262.7v-2.1h-2.5C960.9,261,961.8,261.7,962.4,262.7z M962.4,255.1h4.9v10.1h-4.9v-0.1
					c-1.1-1.7-2.8-3.1-4.9-4v4.1h-4.9v-10.2h4.9v4.1h4.9C962.4,259.2,962.4,255.1,962.4,255.1z"/>
			</defs>
			<clipPath id="SVGID_88_">
				<use xlink:href="#SVGID_87_"  style="overflow:visible;"/>
			</clipPath>
			<rect x="950.6" y="253" class="st76" width="18.8" height="14.2"/>
		</g>
		<g>
			<defs>
				<path id="SVGID_89_" d="M983.1,263.3v1.6c-0.8,0.3-2,0.5-3.7,0.5c-0.6,0-1.2,0-1.7-0.2c-0.7-0.2-1.3-0.4-1.5-0.7
					c-1,0.6-2.2,0.8-3.5,0.8c-1,0-1.9-0.2-2.7-0.5c-1.1-0.5-1.6-1.1-1.6-2v-4.4h4.8v3.7c0,0.4,0.1,0.6,0.4,0.8
					c0.2,0.2,0.5,0.3,0.9,0.3c0.4,0,0.7-0.1,0.9-0.3c0.2-0.2,0.4-0.5,0.4-0.8v-3.7h4.9v3.8c0,0.4,0.1,0.7,0.4,0.9
					c0.2,0.2,0.6,0.3,0.9,0.3c0.2,0,0.4,0,0.6-0.1C982.9,263.3,983.1,263.3,983.1,263.3z"/>
			</defs>
			<clipPath id="SVGID_90_">
				<use xlink:href="#SVGID_89_"  style="overflow:visible;"/>
			</clipPath>
			<rect x="966.2" y="256.5" class="st77" width="19" height="10.9"/>
		</g>
		<g>
			<defs>
				<path id="SVGID_91_" d="M995.8,260.7h-1.8c0,1.9-0.6,3.2-1.8,3.9c-0.9,0.5-2.4,0.8-4.4,0.8c-1,0-1.9-0.2-2.9-0.7
					c-1.2-0.5-1.7-1.3-1.7-2.1v-7.5h4.9v6.4c0,0.5,0.2,0.9,0.5,1.3c0.4,0.4,0.8,0.5,1.3,0.5c0.6,0,1.1-0.2,1.5-0.6
					c0.4-0.4,0.6-0.9,0.6-1.5v-0.6h-0.2c-0.5,0-1-0.1-1.4-0.4c-0.4-0.3-0.7-0.7-0.7-1.2s0.2-0.9,0.6-1.2c0.4-0.2,0.8-0.4,1.3-0.4
					c0.4,0,0.9,0.1,1.3,0.2c0.4,0.2,0.8,0.4,1,0.7h2V260.7z"/>
			</defs>
			<clipPath id="SVGID_92_">
				<use xlink:href="#SVGID_91_"  style="overflow:visible;"/>
			</clipPath>
			<rect x="981.1" y="253.1" class="st78" width="16.8" height="14.3"/>
		</g>
		<g>
			<defs>
				<path id="SVGID_93_" d="M1008.8,267.9h-4.6v-3.2c-0.6,0.4-1.7,0.6-3.5,0.6c-1.2,0-2.2-0.2-3.3-0.7c-1.3-0.6-1.9-1.4-1.9-2.4
					c0-1.2,0.5-2.2,1.6-2.8c0.9-0.6,2-0.9,3.3-0.9h3.1v2h-0.4c-0.7,0-1.2,0.1-1.6,0.2c-0.6,0.2-0.9,0.7-0.9,1.2c0,0.9,0.7,1.3,2,1.3
					c0.5,0,0.9-0.1,1.2-0.4s0.4-0.6,0.4-1.1v-1.3v-1.3v-0.8h4.5L1008.8,267.9z"/>
			</defs>
			<clipPath id="SVGID_94_">
				<use xlink:href="#SVGID_93_"  style="overflow:visible;"/>
			</clipPath>
			<rect x="993.6" y="256.4" class="st79" width="17.2" height="13.5"/>
		</g>
		<g>
			<defs>
				<path id="SVGID_95_" d="M1024.7,263.3v1.6c-0.8,0.3-2,0.5-3.7,0.5c-0.6,0-1.2,0-1.7-0.2c-0.7-0.2-1.3-0.4-1.5-0.7
					c-1,0.6-2.2,0.8-3.5,0.8c-1,0-1.9-0.2-2.7-0.5c-1.1-0.5-1.6-1.1-1.6-2v-4.4h4.8v3.7c0,0.4,0.1,0.6,0.4,0.8
					c0.2,0.2,0.5,0.3,0.9,0.3s0.7-0.1,0.9-0.3c0.2-0.2,0.4-0.5,0.4-0.8v-3.7h4.9v3.8c0,0.4,0.1,0.7,0.4,0.9c0.2,0.2,0.6,0.3,0.9,0.3
					c0.2,0,0.4,0,0.6-0.1C1024.4,263.3,1024.6,263.3,1024.7,263.3z"/>
			</defs>
			<clipPath id="SVGID_96_">
				<use xlink:href="#SVGID_95_"  style="overflow:visible;"/>
			</clipPath>
			<rect x="1007.7" y="256.5" class="st80" width="19" height="10.9"/>
		</g>
		<g>
			<defs>
				<path id="SVGID_97_" d="M1032.8,264.9c-0.3,0.2-0.7,0.3-1.3,0.4c-0.5,0.1-1,0.2-1.4,0.2c-3.1,0-4.7-0.8-4.7-2.3v-4.6h4.9v4.2
					c0,0.6,0.4,0.9,1.1,0.9c0.4,0,0.9-0.1,1.4-0.4V264.9z M1030.7,256.1c0,0.4-0.4,0.8-1.1,1.1c-0.6,0.2-1.1,0.3-1.7,0.3
					c-0.6,0-1.1-0.1-1.7-0.3c-0.7-0.2-1.1-0.6-1.1-1.1c0-0.4,0.4-0.8,1.1-1.1c0.5-0.2,1.1-0.2,1.7-0.2c0.6,0,1.1,0.1,1.7,0.2
					C1030.3,255.3,1030.7,255.6,1030.7,256.1z"/>
			</defs>
			<clipPath id="SVGID_98_">
				<use xlink:href="#SVGID_97_"  style="overflow:visible;"/>
			</clipPath>
			<rect x="1022.9" y="252.7" class="st81" width="11.9" height="14.8"/>
		</g>
		<g>
			<defs>
				<path id="SVGID_99_" d="M1045.1,264.9c-0.9,0.3-2,0.4-3.3,0.4c-1,0-1.8-0.2-2.5-0.5c-0.9-0.4-1.4-1.1-1.4-2
					c0-0.8,0.5-1.5,1.5-2.2h-3.1c-0.4,2.3-1.6,3.7-3.7,4.2v-1.6c0.6-0.2,1-0.6,1.3-1c0.2-0.4,0.4-0.9,0.5-1.6h-0.2
					c-0.4,0-0.9-0.1-1.2-0.4c-0.4-0.3-0.6-0.6-0.6-1.1s0.2-0.9,0.6-1.2c0.4-0.3,0.8-0.4,1.3-0.4c0.3,0,0.7,0.1,1.1,0.2
					c0.4,0.2,0.7,0.4,0.8,0.7h8.2v2.1h-1.3c-0.5,0.4-0.8,0.8-0.8,1.3c0,0.4,0.2,0.7,0.6,1.1c0.4,0.3,0.8,0.4,1.2,0.4
					c0.4,0,0.7,0,1.1-0.1L1045.1,264.9L1045.1,264.9z"/>
			</defs>
			<clipPath id="SVGID_100_">
				<use xlink:href="#SVGID_99_"  style="overflow:visible;"/>
			</clipPath>
			<rect x="1030.4" y="255.6" class="st82" width="16.8" height="11.8"/>
		</g>
		<g>
			<defs>
				<path id="SVGID_101_" d="M1058,263.3v1.6c-1.6,0.4-3.6,0.6-6.1,0.6c-1.3,0-2.6-0.1-3.6-0.3c-1.7-0.4-2.6-0.9-2.6-1.8
					c0-0.8,0.9-1.4,2.7-1.9c-0.4-0.1-0.8-0.3-1.1-0.5c-0.4-0.3-0.7-0.6-0.7-0.9c0-0.9,1.1-1.5,3.2-1.9c1.2-0.2,2.6-0.3,4.3-0.3
					c0.7,0,1.3,0,1.9,0v1.6c-0.7,0-1.3,0-2,0c-1,0.1-1.5,0.2-1.5,0.5c0,0.2,0.3,0.4,0.9,0.4c0.4,0.1,0.8,0.1,1.1,0.1h0.2v1
					c-2,0.2-3,0.7-3,1.1c0,0.5,1.1,0.8,3.3,0.8C1056.3,263.6,1057.3,263.5,1058,263.3z"/>
			</defs>
			<clipPath id="SVGID_102_">
				<use xlink:href="#SVGID_101_"  style="overflow:visible;"/>
			</clipPath>
			<rect x="1043.8" y="255.9" class="st83" width="16.3" height="11.6"/>
		</g>
	</g>
</g>
<g class="st84">
	<g class="st85">
		<defs>
			<rect id="SVGID_103_" x="273.3" y="277.4" width="245.1" height="74.3"/>
		</defs>
		<clipPath id="SVGID_104_">
			<use xlink:href="#SVGID_103_"  style="overflow:visible;"/>
		</clipPath>
		<line class="st86" x1="516.9" y1="295.5" x2="341.4" y2="314.5"/>
	</g>
	<g class="st85">
		<g>
			<defs>
				<rect id="SVGID_105_" x="499.3" y="285.9" width="18.8" height="18.8"/>
			</defs>
			<clipPath id="SVGID_106_">
				<use xlink:href="#SVGID_105_"  style="overflow:visible;"/>
			</clipPath>
			<path class="st87" d="M508.7,304.7c5.2,0,9.4-4.2,9.4-9.4s-4.2-9.4-9.4-9.4c-5.2,0-9.4,4.2-9.4,9.4S503.5,304.7,508.7,304.7"/>
		</g>
		<polyline class="st88" points="506.4,296.2 508.4,299 511,291.6 		"/>
	</g>
	<g class="st85">
		<defs>
			<circle id="SVGID_107_" cx="310.4" cy="314.5" r="37.1"/>
		</defs>
		<clipPath id="SVGID_108_">
			<use xlink:href="#SVGID_107_"  style="overflow:visible;"/>
		</clipPath>
		
			<radialGradient id="SVGID_109_" cx="502.0432" cy="601.563" r="1" gradientTransform="matrix(37.1482 0 0 -37.1482 -18339.5488 22661.459)" gradientUnits="userSpaceOnUse">
			<stop  offset="0" style="stop-color:#FFF200"/>
			<stop  offset="0.1019" style="stop-color:#EFE923"/>
			<stop  offset="0.2969" style="stop-color:#C8DB4C"/>
			<stop  offset="0.4882" style="stop-color:#A9D161"/>
			<stop  offset="0.6726" style="stop-color:#91CA6D"/>
			<stop  offset="0.8467" style="stop-color:#82C674"/>
			<stop  offset="1" style="stop-color:#7CC576"/>
		</radialGradient>
		<rect x="273.3" y="277.4" class="st89" width="74.3" height="74.3"/>
	</g>
	<g class="st85">
		<defs>
			<rect id="SVGID_110_" x="280.8" y="299" width="59.3" height="31.1"/>
		</defs>
		<clipPath id="SVGID_111_">
			<use xlink:href="#SVGID_110_"  style="overflow:visible;"/>
		</clipPath>
		<g class="st90">
			<defs>
				<rect id="SVGID_112_" x="280.8" y="299" width="59.3" height="31.1"/>
			</defs>
			<clipPath id="SVGID_113_">
				<use xlink:href="#SVGID_112_"  style="overflow:visible;"/>
			</clipPath>
			<g class="st91">
				<g>
					<defs>
						<rect id="SVGID_114_" x="274.7" y="307.1" width="34.9" height="21.3"/>
					</defs>
					<clipPath id="SVGID_115_">
						<use xlink:href="#SVGID_114_"  style="overflow:visible;"/>
					</clipPath>
					<rect x="283.4" y="313.9" class="st92" width="17.4" height="13.5"/>
				</g>
			</g>
			<g class="st91">
				<g>
					<defs>
						<rect id="SVGID_116_" x="301.5" y="307.1" width="34.9" height="21.3"/>
					</defs>
					<clipPath id="SVGID_117_">
						<use xlink:href="#SVGID_116_"  style="overflow:visible;"/>
					</clipPath>
					<rect x="310.2" y="313.9" class="st93" width="17.4" height="13.5"/>
				</g>
			</g>
			<path class="st94" d="M284.6,315.9l14.5-13.1l-0.8-0.9l0.6,1.1l-0.1-0.2l0.1,0.2l-0.1-0.2l0.1,0.2c0,0,0.7-0.4,1.5-0.7
				c0.4-0.2,0.9-0.3,1.3-0.5c0.4-0.1,0.8-0.2,1.1-0.2c0.1,0,0.2,0,0.3,0l0,0l0,0l0.1-0.1l-0.1,0.1l0,0l0.1-0.1l-0.1,0.1l0,0l0,0l0,0
				l0,0l0,0c0,0,0,0,0,0.2l2.5-0.3c0-0.4-0.1-0.7-0.3-1.1c-0.3-0.5-0.7-0.9-1.2-1.1c-0.5-0.2-0.9-0.3-1.3-0.3
				c-0.6,0-1.2,0.1-1.8,0.3c-0.9,0.3-1.7,0.6-2.3,0.9c-0.6,0.3-1,0.5-1,0.5l-0.1,0.1L282.9,314L284.6,315.9z"/>
			<path class="st94" d="M300,316L300,316c0,0,0.8-0.5,1.8-0.9c1.1-0.4,2.5-0.8,3.8-0.8c0.7,0,1.4,0.1,2,0.3
				c0.6,0.2,1.2,0.6,1.8,1.1l1.8-1.8c-0.8-0.8-1.8-1.4-2.7-1.7c-1-0.3-1.9-0.5-2.9-0.5c-1.9,0-3.6,0.5-4.8,1c-1.3,0.5-2.1,1-2.1,1
				L300,316z"/>
			<path class="st94" d="M297.6,328.8v-1.3H286c-0.8,0-1.4-0.3-1.9-0.8c-0.5-0.5-0.8-1.2-0.8-1.9v-6.6c0-0.8,0.3-1.4,0.8-1.9
				c0.5-0.5,1.2-0.8,1.9-0.8h11.5c0.8,0,1.4,0.3,1.9,0.8c0.5,0.5,0.8,1.2,0.8,1.9v6.6c0,0.8-0.3,1.4-0.8,1.9
				c-0.5,0.5-1.2,0.8-1.9,0.8V328.8v1.3c2.9,0,5.3-2.4,5.3-5.3v-6.6c0-2.9-2.4-5.3-5.3-5.3H286c-2.9,0-5.3,2.4-5.3,5.3v6.6
				c0,1.5,0.6,2.8,1.5,3.7c0.9,1,2.3,1.5,3.7,1.5h11.5V328.8z"/>
			<path class="st94" d="M324.7,328.8v-1.3h-11.5c-0.8,0-1.4-0.3-1.9-0.8c-0.5-0.5-0.8-1.2-0.8-1.9v-6.6c0-0.8,0.3-1.4,0.8-1.9
				c0.5-0.5,1.2-0.8,1.9-0.8h11.5c0.8,0,1.4,0.3,1.9,0.8c0.5,0.5,0.8,1.2,0.8,1.9v6.6c0,0.8-0.3,1.4-0.8,1.9
				c-0.5,0.5-1.2,0.8-1.9,0.8V328.8v1.3c2.9,0,5.3-2.4,5.3-5.3v-6.6c0-2.9-2.4-5.3-5.3-5.3h-11.5c-2.9,0-5.3,2.4-5.3,5.3v6.6
				c0,1.5,0.6,2.8,1.5,3.7c0.9,1,2.3,1.5,3.7,1.5h11.5V328.8z"/>
			<path class="st94" d="M328.9,315.6l7.6-11.2l-1-0.7l0.8,1l-0.1-0.2l0.1,0.2l0,0l-0.1-0.2l0.1,0.2c0,0,0.4-0.3,0.8-0.5
				c0.2-0.1,0.4-0.2,0.6-0.3c0.2-0.1,0.3-0.1,0.3-0.1v-0.3l-0.1,0.3c0.1,0,0.1,0,0.1,0v-0.3l-0.1,0.3l0.2-0.5l-0.4,0.3
				c0,0.1,0.2,0.2,0.3,0.2l0.2-0.5l-0.4,0.3l0.2-0.2l-0.3,0.1l0,0l0.2-0.2l-0.3,0.1l0.1,0l-0.1,0l0,0l0.1,0l-0.1,0c0,0,0,0,0,0.1
				l2.5-0.3c0-0.3-0.1-0.6-0.2-0.8c-0.2-0.4-0.5-0.8-0.8-1c-0.4-0.2-0.8-0.3-1.1-0.3c-0.5,0-0.9,0.1-1.3,0.3c-0.6,0.2-1,0.5-1.4,0.8
				c-0.4,0.2-0.6,0.4-0.6,0.5l-0.1,0.1l-7.7,11.3L328.9,315.6z"/>
		</g>
		<line class="st95" x1="286" y1="321.4" x2="291.2" y2="318.3"/>
		<line class="st95" x1="290" y1="323.2" x2="295.2" y2="320"/>
		<line class="st95" x1="313.2" y1="323.2" x2="318.4" y2="320"/>
		<line class="st95" x1="319.4" y1="323.5" x2="324.7" y2="320.3"/>
	</g>
</g>
<g class="st84">
	<g class="st85">
		<defs>
			<rect id="SVGID_118_" x="273.3" y="368.4" width="245.1" height="74.3"/>
		</defs>
		<clipPath id="SVGID_119_">
			<use xlink:href="#SVGID_118_"  style="overflow:visible;"/>
		</clipPath>
		<line class="st96" x1="516.9" y1="386.5" x2="341.4" y2="405.5"/>
	</g>
	<g class="st85">
		<g>
			<defs>
				<rect id="SVGID_120_" x="499.3" y="376.9" width="18.8" height="18.8"/>
			</defs>
			<clipPath id="SVGID_121_">
				<use xlink:href="#SVGID_120_"  style="overflow:visible;"/>
			</clipPath>
			<path class="st97" d="M508.7,395.7c5.2,0,9.4-4.2,9.4-9.4s-4.2-9.4-9.4-9.4c-5.2,0-9.4,4.2-9.4,9.4S503.5,395.7,508.7,395.7"/>
		</g>
		<polyline class="st88" points="506.4,387.2 508.4,390 511,382.6 		"/>
	</g>
	<g class="st85">
		<defs>
			<circle id="SVGID_122_" cx="310.4" cy="405.5" r="37.1"/>
		</defs>
		<clipPath id="SVGID_123_">
			<use xlink:href="#SVGID_122_"  style="overflow:visible;"/>
		</clipPath>
		
			<radialGradient id="SVGID_124_" cx="502.0432" cy="599.1133" r="1" gradientTransform="matrix(37.1482 0 0 -37.1482 -18339.5488 22661.459)" gradientUnits="userSpaceOnUse">
			<stop  offset="0" style="stop-color:#FFF200"/>
			<stop  offset="0.1019" style="stop-color:#EFE923"/>
			<stop  offset="0.2969" style="stop-color:#C8DB4C"/>
			<stop  offset="0.4882" style="stop-color:#A9D161"/>
			<stop  offset="0.6726" style="stop-color:#91CA6D"/>
			<stop  offset="0.8467" style="stop-color:#82C674"/>
			<stop  offset="1" style="stop-color:#7CC576"/>
		</radialGradient>
		<rect x="273.3" y="368.4" class="st98" width="74.3" height="74.3"/>
	</g>
	<g class="st85">
		<g>
			<defs>
				<path id="SVGID_125_" d="M321.1,384.7l-8.9-3.9l-6.1,1.1c0,0-5.1,2.8-6.3,4.1c0,0,0,0,0,0c-1.9,1.6,1.3,10.2,1.4,15.3
					c0.4,7.1,1.3,19.9,1.3,19.9s0.3,2.2,8.5,2.3s7.7-1.3,7.7-1.3c1.3-1.3,1.3-20.8,1.4-26C320.2,390.5,321.1,384.7,321.1,384.7z"/>
			</defs>
			<clipPath id="SVGID_126_">
				<use xlink:href="#SVGID_125_"  style="overflow:visible;"/>
			</clipPath>
			<rect x="296.8" y="378.4" class="st99" width="26.7" height="47.6"/>
		</g>
		<g>
			<defs>
				<path id="SVGID_127_" d="M311,395.2c-0.2,0-0.4,0-0.6,0.2c-0.1,0.1-0.2,0.3-0.2,0.5c0,0.5,0.2,0.9,0.7,1.3
					c0.5,0.3,1,0.5,1.7,0.5c0-0.7-0.1-1.3-0.4-1.7C312,395.4,311.6,395.2,311,395.2z M312.6,398.7h-0.8c-0.4,0-0.9-0.1-1.4-0.4
					c-0.5-0.3-0.9-0.7-1.1-1.2c-0.1,0.4-0.3,0.8-0.6,1.2c0,1.3,0.1,2.1,0.3,2.7c0.1,0.5,0.4,0.8,0.8,0.8c0.6,0,1.2-0.2,1.7-0.7
					C312.1,400.6,312.4,399.8,312.6,398.7z M310.3,390.5c0-0.7-0.1-1-0.3-1c-0.1,0-0.3,0.3-0.5,1.1c-0.2,0.7-0.4,1.7-0.6,2.9
					c-0.2,1.2-0.2,2.4-0.2,3.6C309.8,394,310.3,391.8,310.3,390.5z M311.4,394.3c0.8,0,1.4,0.3,1.9,0.8c0.5,0.5,0.8,1.3,0.8,2.3
					c0.7-0.2,1.3-0.4,1.8-0.7c0.5-0.3,0.8-0.4,0.8-0.4c0.1,0,0.1,0.1,0.1,0.2c0,0.1-0.2,0.4-0.7,0.8c-0.5,0.3-1.2,0.7-2.1,1
					c-0.2,1.5-0.8,2.6-1.8,3.4c-1,0.8-2,1.2-3,1.2c-1,0-1.7-0.4-2-1.1s-0.5-1.9-0.5-3.4s0.1-3.1,0.3-4.5c0.2-1.4,0.5-2.5,0.9-3.3
					c0.4-0.8,0.8-1.5,1.2-1.8c0.4-0.4,0.8-0.6,1.1-0.6c0.1,0,0.3,0.2,0.5,0.6c0.1,0.4,0.2,0.9,0.2,1.5c0,1.3-0.2,2.7-0.7,4.4
					C310.5,394.4,310.9,394.3,311.4,394.3z"/>
			</defs>
			<clipPath id="SVGID_128_">
				<use xlink:href="#SVGID_127_"  style="overflow:visible;"/>
			</clipPath>
			<rect x="304.3" y="385.6" class="st100" width="15" height="19.7"/>
		</g>
		<g>
			<defs>
				<path id="SVGID_129_" d="M320.1,414.2l0-3.4c-6.1,0.9-12.4,0.9-18.5,0.1c0,1.2,0,2.3,0,3.4C307.8,415,314,415,320.1,414.2z"/>
			</defs>
			<clipPath id="SVGID_130_">
				<use xlink:href="#SVGID_129_"  style="overflow:visible;"/>
			</clipPath>
			<rect x="299.1" y="408.3" class="st101" width="23.4" height="8.9"/>
		</g>
		<g>
			<defs>
				<path id="SVGID_131_" d="M320.2,409.9l-0.1-4.9c-6.2,0.9-12.5,0.9-18.7,0c0.1,0.9,0.2,2.1,0.3,4c0,0.3,0,0.7,0,1
					C307.9,410.7,314.1,410.7,320.2,409.9z"/>
			</defs>
			<clipPath id="SVGID_132_">
				<use xlink:href="#SVGID_131_"  style="overflow:visible;"/>
			</clipPath>
			<rect x="299.1" y="402.5" class="st102" width="23.6" height="10.4"/>
		</g>
		<g>
			<defs>
				<path id="SVGID_133_" d="M319.8,416.9l0-2.2c-5.8,0.9-11.7,0.9-17.5,0.1v2.2C308,417.7,313.9,417.7,319.8,416.9z"/>
			</defs>
			<clipPath id="SVGID_134_">
				<use xlink:href="#SVGID_133_"  style="overflow:visible;"/>
			</clipPath>
			<rect x="299.8" y="412.3" class="st103" width="22.4" height="7.7"/>
		</g>
		<g>
			<defs>
				<path id="SVGID_135_" d="M299.9,385.8c-2,0.3-5.8,25.2-5.7,24c0.2-3.1-1.1,14.3-0.5,22.4c0,0,0.9,0.8,3.1,1
					c1.6,0.1,2.3-0.5,2.3-0.5s0.8-22.8,0.8-23.2c0.1-0.6,2.2-14.1,2.2-14.4C302.1,394.8,300.5,385.7,299.9,385.8z"/>
			</defs>
			<clipPath id="SVGID_136_">
				<use xlink:href="#SVGID_135_"  style="overflow:visible;"/>
			</clipPath>
			<rect x="291.2" y="383.3" class="st104" width="13.4" height="52.2"/>
		</g>
		<g>
			<defs>
				<path id="SVGID_137_" d="M299.2,432.7c0,0,0-0.7,0-1.7c-3.2,0.5-5.1-0.5-5.7-0.9c0,0.8,0,1.5,0.1,2.1c0,0,1,0.8,3.2,1
					C298.6,433.4,299.2,432.7,299.2,432.7z"/>
			</defs>
			<clipPath id="SVGID_138_">
				<use xlink:href="#SVGID_137_"  style="overflow:visible;"/>
			</clipPath>
			<rect x="291.1" y="427.6" class="st105" width="10.6" height="8"/>
		</g>
		<g>
			<defs>
				<path id="SVGID_139_" d="M320.9,385.3c2,0.3,5.8,25.2,5.7,24c-0.2-3.1,1.1,14.3,0.5,22.4c0,0-0.9,0.8-3.1,1
					c-1.6,0.1-2.3-0.5-2.3-0.5s-0.8-22.8-0.8-23.2c-0.1-0.6-2.2-14.1-2.2-14.4C318.7,394.3,320.4,385.2,320.9,385.3z"/>
			</defs>
			<clipPath id="SVGID_140_">
				<use xlink:href="#SVGID_139_"  style="overflow:visible;"/>
			</clipPath>
			<rect x="316.3" y="382.9" class="st106" width="13.4" height="52.2"/>
		</g>
		<g>
			<defs>
				<path id="SVGID_141_" d="M321.7,432.2c0,0,0-0.7,0-1.7c3.2,0.5,5.1-0.5,5.7-0.9c0,0.8,0,1.5-0.1,2.1c0,0-1,0.8-3.2,1
					C322.3,432.9,321.7,432.2,321.7,432.2z"/>
			</defs>
			<clipPath id="SVGID_142_">
				<use xlink:href="#SVGID_141_"  style="overflow:visible;"/>
			</clipPath>
			<rect x="319.2" y="427.2" class="st107" width="10.6" height="8"/>
		</g>
		<g>
			<defs>
				<path id="SVGID_143_" d="M313.4,378.8c0,0,0,0-0.1,0c0.1,0.1,0.1,0.1,0.1,0.2c0,0.4-1.5,0.8-3.3,0.8s-3.3-0.4-3.3-0.8
					c0-0.1,0-0.1,0.1-0.2c0,0-0.1,0-0.1,0l-0.2,2.9c0,0,2.6,2.3,6.9,0L313.4,378.8z"/>
			</defs>
			<clipPath id="SVGID_144_">
				<use xlink:href="#SVGID_143_"  style="overflow:visible;"/>
			</clipPath>
			<rect x="304.2" y="376.3" class="st108" width="11.8" height="8.8"/>
		</g>
	</g>
</g>
<g class="st84">
	<g class="st85">
		<defs>
			<circle id="SVGID_145_" cx="783.4" cy="393.3" r="37.1"/>
		</defs>
		<clipPath id="SVGID_146_">
			<use xlink:href="#SVGID_145_"  style="overflow:visible;"/>
		</clipPath>
		
			<radialGradient id="SVGID_147_" cx="509.5775" cy="599.4415" r="1" gradientTransform="matrix(-37.1482 0 0 -37.1482 19713.2344 22661.459)" gradientUnits="userSpaceOnUse">
			<stop  offset="0" style="stop-color:#FFF200"/>
			<stop  offset="0.1019" style="stop-color:#EFE923"/>
			<stop  offset="0.2969" style="stop-color:#C8DB4C"/>
			<stop  offset="0.4882" style="stop-color:#A9D161"/>
			<stop  offset="0.6726" style="stop-color:#91CA6D"/>
			<stop  offset="0.8467" style="stop-color:#82C674"/>
			<stop  offset="1" style="stop-color:#7CC576"/>
		</radialGradient>
		<rect x="746.2" y="356.2" class="st109" width="74.3" height="74.3"/>
	</g>
	<g class="st85">
		<g>
			<defs>
				
					<rect id="SVGID_148_" x="573.1" y="377.5" transform="matrix(0.9634 -0.2681 0.2681 0.9634 -85.698 201.6713)" width="245.1" height="74.3"/>
			</defs>
			<clipPath id="SVGID_149_">
				<use xlink:href="#SVGID_148_"  style="overflow:visible;"/>
			</clipPath>
			<line class="st110" x1="573.9" y1="428.8" x2="748.1" y2="400.1"/>
		</g>
		<g>
			<g>
				<defs>
					<rect id="SVGID_150_" x="554.2" y="418.5" width="18.8" height="18.8"/>
				</defs>
				<clipPath id="SVGID_151_">
					<use xlink:href="#SVGID_150_"  style="overflow:visible;"/>
				</clipPath>
				<path class="st111" d="M563.6,437.3c5.2,0,9.4-4.2,9.4-9.4s-4.2-9.4-9.4-9.4s-9.4,4.2-9.4,9.4S558.4,437.3,563.6,437.3"/>
			</g>
			<polyline class="st88" points="561.3,428.8 563.3,431.7 565.9,424.2 			"/>
		</g>
		<g>
			<path class="st66" d="M778.9,365.2h-4.5l-0.5,12c0.2-0.1,0.3-0.2,0.5-0.4C777.5,374.3,779,370.4,778.9,365.2z"/>
			<path class="st66" d="M792.8,376.9c0.1,0.1,0.3,0.2,0.4,0.3l-0.8-12h-4C788.2,370.4,789.7,374.3,792.8,376.9z"/>
			<g>
				<path class="st66" d="M793.2,381.5l0.1-3.7c-0.2-0.2-0.4-0.3-0.6-0.5c-2.2-1.8-4.8-5.4-4.6-12.1h-8.8c0.1,6.6-2.4,10.2-4.6,12
					c-0.2,0.2-0.4,0.3-0.7,0.5l0.2,4.4l0.3,19.2l-0.5,20.8l5.6,0.1l1.6-21.1l3-23.4l3.3,23.6l2.1,20.8l5.7,0.1l-1.8-21.6
					L793.2,381.5z M784.9,377.4c0,0.1,0,0.1-0.1,0.2c0,0,0,0-0.1,0c-0.2,0-0.6-0.1-1.1-0.7c-1.1-1.5-1.2-4.8-1-7.3
					c0-0.1,0.1-0.1,0.1-0.1h2.1c0.1,0,0.1,0.1,0.1,0.2V377.4z"/>
				<path class="st66" d="M783.7,376.7c0.4,0.5,0.7,0.6,0.9,0.6v-7.5h-1.8C782.6,374.1,783.2,375.9,783.7,376.7z"/>
			</g>
			<path class="st67" d="M792.5,367h-18c-0.1,0-0.1,0.1-0.1,0.2s0,0.2,0.1,0.2h18c0.1,0,0.1-0.1,0.1-0.2S792.5,367,792.5,367z"/>
		</g>
	</g>
</g>
</svg>
