<?xml version="1.0" encoding="utf-8"?>
<!-- Generator: Adobe Illustrator 19.1.0, SVG Export Plug-In . SVG Version: 6.00 Build 0)  -->
<!DOCTYPE svg PUBLIC "-//W3C//DTD SVG 1.1//EN" "http://www.w3.org/Graphics/SVG/1.1/DTD/svg11.dtd">
<svg version="1.1" id="Layer_1" xmlns="http://www.w3.org/2000/svg" xmlns:xlink="http://www.w3.org/1999/xlink" x="0px" y="0px"
	 viewBox="0 0 1514.7 863.5" style="enable-background:new 0 0 1514.7 863.5;" xml:space="preserve">
<style type="text/css">
	.st0{clip-path:url(#SVGID_2_);fill:#3F3F3F;}
	.st1{clip-path:url(#SVGID_4_);fill:#FFFFFF;}
	.st2{clip-path:url(#SVGID_6_);fill:#F2F2F2;}
	.st3{display:none;}
	.st4{display:inline;fill:#FFFFFF;fill-opacity:0.67;stroke:#000000;stroke-width:2;stroke-miterlimit:10;}
	.st5{display:inline;fill:#0B0B0B;}
	.st6{font-family:'OpenSans-Extrabold';}
	.st7{font-size:27px;}
	.st8{display:inline;}
	.st9{fill:#FFFFFF;}
	.st10{fill:none;stroke:#000000;stroke-width:2;stroke-miterlimit:10;}
	.st11{clip-path:url(#SVGID_8_);fill:#C13133;}
	.st12{clip-path:url(#SVGID_10_);fill:#F5C119;}
	.st13{clip-path:url(#SVGID_12_);fill:#F5C119;}
	.st14{clip-path:url(#SVGID_14_);fill:#F5C119;}
	.st15{clip-path:url(#SVGID_16_);fill:#F5C119;}
	.st16{clip-path:url(#SVGID_18_);fill:#F5C119;}
	.st17{clip-path:url(#SVGID_20_);fill:#F5C119;}
	.st18{clip-path:url(#SVGID_22_);fill:#F5C119;}
	.st19{clip-path:url(#SVGID_24_);fill:#F5C119;}
	.st20{clip-path:url(#SVGID_26_);fill:#F5C119;}
	.st21{display:inline;fill:none;stroke:#010101;stroke-width:5;stroke-miterlimit:10;}
	.st22{fill:#1E448B;}
	.st23{fill:#F8F7F8;}
	.st24{clip-path:url(#SVGID_28_);}
	.st25{opacity:0.45;clip-path:url(#SVGID_30_);}
	.st26{clip-path:url(#SVGID_32_);fill:#00AEEF;}
	.st27{clip-path:url(#SVGID_34_);fill:#00AEEF;}
	.st28{clip-path:url(#SVGID_30_);fill:#010101;}
	.st29{clip-path:url(#SVGID_28_);fill:none;stroke:#FFFFFF;stroke-linecap:round;stroke-linejoin:round;}
	.st30{display:inline;fill:#FFFFFF;}
	.st31{font-size:12px;}
	.st32{clip-path:url(#SVGID_36_);fill:#DA3628;}
	.st33{clip-path:url(#SVGID_38_);fill:#DA3628;}
	.st34{clip-path:url(#SVGID_40_);fill:#DA3628;}
	.st35{clip-path:url(#SVGID_42_);fill:#DA3628;}
	.st36{clip-path:url(#SVGID_44_);fill:#DA3628;}
	.st37{clip-path:url(#SVGID_46_);fill:#DA3628;}
	.st38{clip-path:url(#SVGID_48_);fill:#DA3628;}
	.st39{clip-path:url(#SVGID_50_);fill:#DA3628;}
	.st40{opacity:0.15;enable-background:new    ;}
	.st41{clip-path:url(#SVGID_52_);}
	.st42{clip-path:url(#SVGID_54_);}
	.st43{clip-path:url(#SVGID_56_);fill:#3F3F3F;}
	.st44{clip-path:url(#SVGID_58_);fill:#E9E9E9;}
	.st45{clip-path:url(#SVGID_60_);fill:#E9E9E9;}
	.st46{clip-path:url(#SVGID_62_);fill:#B5B4B4;}
	.st47{clip-path:url(#SVGID_64_);fill:#454545;}
	.st48{clip-path:url(#SVGID_66_);fill:#DA3628;}
	.st49{clip-path:url(#SVGID_68_);fill:#DA3628;}
	.st50{clip-path:url(#SVGID_70_);fill:#DA3628;}
	.st51{clip-path:url(#SVGID_72_);fill:#DA3628;}
	.st52{clip-path:url(#SVGID_74_);fill:#DA3628;}
	.st53{clip-path:url(#SVGID_76_);fill:#DA3628;}
	.st54{clip-path:url(#SVGID_78_);fill:#DA3628;}
	.st55{clip-path:url(#SVGID_80_);fill:#DA3628;}
	.st56{fill:none;stroke:#FDFEFF;stroke-width:5;stroke-miterlimit:10;}
	.st57{fill:none;stroke:#010101;stroke-width:5;stroke-miterlimit:10;}
	
		.st58{clip-path:url(#SVGID_82_);fill:#D4D6D8;stroke:#000000;stroke-width:2;stroke-linecap:round;stroke-linejoin:round;stroke-miterlimit:10;}
	.st59{fill:#FCDCCD;}
	.st60{fill:#F6C215;}
	.st61{fill:#4B4A4B;}
	.st62{clip-path:url(#SVGID_84_);fill:none;}
	.st63{fill:#C79D89;}
	.st64{fill:#D8AC93;}
	.st65{fill:#E5BFA5;}
	.st66{fill:#F8D3B9;}
	.st67{fill:#C23133;}
	.st68{fill:#448CCB;}
	.st69{clip-path:url(#SVGID_86_);fill:none;}
	.st70{fill:#F9D1C4;}
	.st71{clip-path:url(#SVGID_88_);fill:none;}
	.st72{clip-path:url(#SVGID_90_);fill:none;}
	.st73{clip-path:url(#SVGID_92_);fill:none;}
	.st74{fill:#F7D2C4;}
	.st75{fill:#313131;}
	.st76{fill:#737273;}
	.st77{opacity:0.2;}
	.st78{clip-path:url(#SVGID_96_);fill:none;}
	.st79{clip-path:url(#SVGID_98_);fill:none;}
	.st80{clip-path:url(#SVGID_98_);}
	.st81{fill:none;}
	.st82{fill:#815543;}
	.st83{clip-path:url(#SVGID_100_);fill:none;}
	.st84{fill:#F4BE5E;}
	.st85{fill:#B6CE85;}
	.st86{opacity:0.16;fill:#E8F6F9;}
	.st87{fill:#313334;}
	.st88{clip-path:url(#SVGID_102_);fill:none;}
	.st89{clip-path:url(#SVGID_104_);fill:none;stroke:#7CC576;stroke-width:3;stroke-linecap:round;stroke-linejoin:round;}
	.st90{clip-path:url(#SVGID_106_);fill:#7CC576;}
	.st91{fill:none;stroke:#FFFFFF;stroke-width:2;stroke-linecap:round;stroke-linejoin:round;}
	.st92{clip-path:url(#SVGID_108_);fill:url(#SVGID_109_);}
	.st93{clip-path:url(#SVGID_111_);fill:none;stroke:#7CC576;stroke-width:3;stroke-linecap:round;stroke-linejoin:round;}
	.st94{clip-path:url(#SVGID_113_);fill:#7CC576;}
	.st95{clip-path:url(#SVGID_115_);fill:url(#SVGID_116_);}
	.st96{clip-path:url(#SVGID_118_);fill:none;stroke:#7CC576;stroke-width:3;stroke-linecap:round;stroke-linejoin:round;}
	.st97{clip-path:url(#SVGID_120_);fill:#7CC576;}
	.st98{clip-path:url(#SVGID_122_);fill:url(#SVGID_123_);}
	.st99{clip-path:url(#SVGID_125_);}
	.st100{opacity:0.45;clip-path:url(#SVGID_127_);}
	.st101{clip-path:url(#SVGID_129_);fill:#00AEEF;}
	.st102{clip-path:url(#SVGID_131_);fill:#00AEEF;}
	.st103{clip-path:url(#SVGID_127_);fill:#010101;}
	.st104{clip-path:url(#SVGID_125_);fill:none;stroke:#FFFFFF;stroke-linecap:round;stroke-linejoin:round;}
	.st105{clip-path:url(#SVGID_133_);fill:#C13133;}
	.st106{clip-path:url(#SVGID_135_);fill:#F5C119;}
	.st107{clip-path:url(#SVGID_137_);fill:#F5C119;}
	.st108{clip-path:url(#SVGID_139_);fill:#F5C119;}
	.st109{clip-path:url(#SVGID_141_);fill:#F5C119;}
	.st110{clip-path:url(#SVGID_143_);fill:#F5C119;}
	.st111{clip-path:url(#SVGID_145_);fill:#F5C119;}
	.st112{clip-path:url(#SVGID_147_);fill:#F5C119;}
	.st113{clip-path:url(#SVGID_149_);fill:#F5C119;}
	.st114{clip-path:url(#SVGID_151_);fill:#F5C119;}
	.st115{fill:#81B2D3;}
</style>
<g>
	<defs>
		<path id="SVGID_1_" d="M757.4,572.9H402.6V127.1c0-13.4,10.9-24.2,24.2-24.2h330.6h312.4c13.4,0,24.2,10.9,24.2,24.2v445.8H757.4z
			"/>
	</defs>
	<clipPath id="SVGID_2_">
		<use xlink:href="#SVGID_1_"  style="overflow:visible;"/>
	</clipPath>
	<rect x="397.6" y="97.9" class="st0" width="701.4" height="480"/>
</g>
<g>
	<defs>
		<rect id="SVGID_3_" x="420.8" y="127.1" width="655.1" height="421.6"/>
	</defs>
	<clipPath id="SVGID_4_">
		<use xlink:href="#SVGID_3_"  style="overflow:visible;"/>
	</clipPath>
	<rect x="415.8" y="122.1" class="st1" width="665.1" height="431.6"/>
</g>
<g>
	<defs>
		<rect id="SVGID_5_" x="420.8" y="127.1" width="655.1" height="56.6"/>
	</defs>
	<clipPath id="SVGID_6_">
		<use xlink:href="#SVGID_5_"  style="overflow:visible;"/>
	</clipPath>
	<rect x="415.8" y="122.1" class="st2" width="665.1" height="66.6"/>
</g>
<g class="st3">
	<rect id="shop_now_rect" x="461.4" y="365.1" class="st4" width="184.3" height="61.3"/>
	<text transform="matrix(1 0 0 1 475.9753 406.9713)" class="st5 st6 st7">SHOP NOW</text>
</g>
<g class="st3">
	<g class="st8">
		
			<image style="overflow:visible;opacity:0.75;" width="714" height="1145" xlink:href="BA95D0E51882A5FF.png"  transform="matrix(0.24 0 0 0.24 913.0717 250.2646)">
		</image>
		<g>
			<rect x="936.1" y="259.3" class="st9" width="139.3" height="242.6"/>
			<rect x="936.1" y="259.3" class="st10" width="139.3" height="242.6"/>
		</g>
	</g>
	<g class="st8">
		<g>
			<defs>
				<path id="SVGID_7_" d="M987.2,322.2l-9.7-4.3l-6.7,1.2c0,0-5.6,3.1-6.8,4.5c0,0,0,0,0,0.1c-2.1,1.7,1.4,11.2,1.5,16.7
					c0.5,7.8,1.4,21.7,1.4,21.7s0.4,2.4,9.3,2.5c8.9,0.1,8.4-1.4,8.4-1.4c1.4-1.4,1.4-22.6,1.5-28.4
					C986.2,328.5,987.2,322.2,987.2,322.2z"/>
			</defs>
			<clipPath id="SVGID_8_">
				<use xlink:href="#SVGID_7_"  style="overflow:visible;"/>
			</clipPath>
			<rect x="960.7" y="315.2" class="st11" width="29.2" height="51.9"/>
		</g>
		<g>
			<defs>
				<path id="SVGID_9_" d="M976.3,333.6c-0.3,0-0.5,0.1-0.6,0.2c-0.2,0.2-0.2,0.4-0.2,0.6c0,0.5,0.3,1,0.7,1.4
					c0.5,0.4,1.1,0.5,1.9,0.5c0-0.7-0.2-1.4-0.4-1.9C977.3,333.9,976.8,333.6,976.3,333.6z M978,337.4h-0.9c-0.4,0-1-0.2-1.5-0.5
					c-0.6-0.3-1-0.7-1.2-1.3c-0.2,0.4-0.4,0.9-0.6,1.3c0.1,1.4,0.2,2.3,0.3,2.9c0.2,0.6,0.5,0.9,0.9,0.9c0.6,0,1.3-0.3,1.9-0.8
					C977.4,339.5,977.8,338.6,978,337.4z M975.5,328.5c0-0.7-0.1-1.1-0.3-1.1c-0.2,0-0.4,0.4-0.6,1.2c-0.2,0.8-0.4,1.9-0.6,3.2
					c-0.2,1.3-0.3,2.6-0.3,4C974.9,332.3,975.5,329.9,975.5,328.5z M976.7,332.6c0.8,0,1.5,0.3,2.1,0.9c0.5,0.6,0.8,1.4,0.8,2.5
					c0.7-0.2,1.4-0.5,2-0.8s0.9-0.5,0.9-0.5c0.1,0,0.2,0.1,0.2,0.3c0,0.2-0.3,0.5-0.8,0.8c-0.5,0.4-1.3,0.7-2.3,1.1
					c-0.2,1.6-0.9,2.8-2,3.7c-1.1,0.8-2.2,1.3-3.3,1.3c-1.1,0-1.9-0.4-2.2-1.2s-0.5-2.1-0.5-3.8c0-1.7,0.1-3.3,0.4-4.9
					c0.3-1.5,0.6-2.8,1-3.6c0.4-0.9,0.8-1.6,1.3-2c0.4-0.4,0.8-0.7,1.2-0.7c0.2,0,0.4,0.2,0.5,0.6c0.2,0.4,0.2,1,0.2,1.6
					c0,1.4-0.3,3-0.8,4.8C975.7,332.7,976.2,332.6,976.7,332.6z"/>
			</defs>
			<clipPath id="SVGID_10_">
				<use xlink:href="#SVGID_9_"  style="overflow:visible;"/>
			</clipPath>
			<rect x="969" y="323.2" class="st12" width="16.4" height="21.5"/>
		</g>
		<g>
			<defs>
				<path id="SVGID_11_" d="M986.2,354.3l-0.1-3.8c-6.7,1-13.5,1-20.1,0.1c0,1.3,0.1,2.5,0.1,3.8
					C972.7,355.2,979.5,355.2,986.2,354.3z"/>
			</defs>
			<clipPath id="SVGID_12_">
				<use xlink:href="#SVGID_11_"  style="overflow:visible;"/>
			</clipPath>
			<rect x="963.3" y="347.9" class="st13" width="25.5" height="9.7"/>
		</g>
		<g>
			<defs>
				<path id="SVGID_13_" d="M986.3,349.6l-0.1-5.4c-6.7,1-13.6,1-20.4,0.1c0.1,1,0.3,2.3,0.3,4.3c0,0.4,0,0.7,0.1,1.1
					C972.8,350.5,979.6,350.5,986.3,349.6z"/>
			</defs>
			<clipPath id="SVGID_14_">
				<use xlink:href="#SVGID_13_"  style="overflow:visible;"/>
			</clipPath>
			<rect x="963.2" y="341.6" class="st14" width="25.8" height="11.3"/>
		</g>
		<g>
			<defs>
				<path id="SVGID_15_" d="M985.8,357.2l-0.1-2.4c-6.3,1-12.8,1-19.1,0.1v2.4C973,358.2,979.4,358.1,985.8,357.2z"/>
			</defs>
			<clipPath id="SVGID_16_">
				<use xlink:href="#SVGID_15_"  style="overflow:visible;"/>
			</clipPath>
			<rect x="964" y="352.2" class="st15" width="24.4" height="8.4"/>
		</g>
		<g>
			<defs>
				<path id="SVGID_17_" d="M964.2,323.3c-2.2,0.3-6.3,27.5-6.2,26.1c0.3-3.3-1.2,15.5-0.5,24.4c0,0,1,0.8,3.3,1.1
					c1.8,0.2,2.5-0.5,2.5-0.5s0.8-24.9,0.9-25.3c0.1-0.7,2.4-15.3,2.4-15.7C966.5,333.2,964.7,323.3,964.2,323.3z"/>
			</defs>
			<clipPath id="SVGID_18_">
				<use xlink:href="#SVGID_17_"  style="overflow:visible;"/>
			</clipPath>
			<rect x="954.6" y="320.7" class="st16" width="14.6" height="56.9"/>
		</g>
		<g>
			<defs>
				<path id="SVGID_19_" d="M963.4,374.5c0,0,0-0.7,0.1-1.9c-3.4,0.5-5.6-0.5-6.2-1c0.1,0.8,0.1,1.6,0.1,2.3c0,0,1.1,0.9,3.5,1.1
					C962.7,375.3,963.4,374.5,963.4,374.5z"/>
			</defs>
			<clipPath id="SVGID_20_">
				<use xlink:href="#SVGID_19_"  style="overflow:visible;"/>
			</clipPath>
			<rect x="954.5" y="369" class="st17" width="11.5" height="8.8"/>
		</g>
		<g>
			<defs>
				<path id="SVGID_21_" d="M987.1,322.8c2.2,0.3,6.3,27.5,6.2,26.1c-0.3-3.3,1.2,15.5,0.5,24.4c0,0-1,0.8-3.3,1.1
					c-1.8,0.2-2.5-0.5-2.5-0.5s-0.8-24.9-0.9-25.3c-0.1-0.7-2.4-15.3-2.4-15.7C984.7,332.6,986.5,322.7,987.1,322.8z"/>
			</defs>
			<clipPath id="SVGID_22_">
				<use xlink:href="#SVGID_21_"  style="overflow:visible;"/>
			</clipPath>
			<rect x="982" y="320.2" class="st18" width="14.6" height="56.9"/>
		</g>
		<g>
			<defs>
				<path id="SVGID_23_" d="M987.8,374c0,0,0-0.7-0.1-1.9c3.4,0.5,5.6-0.5,6.2-1c-0.1,0.8-0.1,1.6-0.1,2.3c0,0-1.1,0.9-3.5,1.1
					C988.5,374.7,987.8,374,987.8,374z"/>
			</defs>
			<clipPath id="SVGID_24_">
				<use xlink:href="#SVGID_23_"  style="overflow:visible;"/>
			</clipPath>
			<rect x="985.1" y="368.4" class="st19" width="11.5" height="8.7"/>
		</g>
		<g>
			<defs>
				<path id="SVGID_25_" d="M978.9,315.7c0,0-0.1-0.1-0.2-0.1c0.1,0.1,0.2,0.2,0.2,0.3c0,0.5-1.6,0.9-3.5,0.9s-3.5-0.4-3.5-0.9
					c0-0.1,0.1-0.2,0.1-0.3c-0.1,0-0.1,0.1-0.1,0.1l-0.3,3.2c0,0,2.8,2.5,7.6,0L978.9,315.7z"/>
			</defs>
			<clipPath id="SVGID_26_">
				<use xlink:href="#SVGID_25_"  style="overflow:visible;"/>
			</clipPath>
			<rect x="968.9" y="313" class="st20" width="12.9" height="9.6"/>
		</g>
	</g>
	<rect x="955.2" y="473" class="st8" width="102.5" height="18.4"/>
	<line class="st21" x1="957.2" y1="385.8" x2="993.2" y2="385.8"/>
	<line class="st21" x1="954.6" y1="450.4" x2="990.6" y2="450.4"/>
	<line class="st21" x1="1012.6" y1="385.8" x2="1048.6" y2="385.8"/>
	<g class="st8">
		<path class="st22" d="M1027.4,309.3h-5.2l-0.5,13.9c0.2-0.1,0.4-0.3,0.5-0.4C1025.8,319.8,1027.6,315.3,1027.4,309.3z"/>
		<path class="st22" d="M1043.5,322.9c0.2,0.1,0.3,0.3,0.5,0.4l-1-13.9h-4.7C1038.2,315.4,1039.9,319.9,1043.5,322.9z"/>
		<g>
			<path class="st22" d="M1044,328.2l0.1-4.3c-0.2-0.2-0.5-0.4-0.7-0.6c-2.6-2.1-5.6-6.3-5.4-14h-10.2c0.2,7.7-2.8,11.8-5.4,13.9
				c-0.3,0.2-0.5,0.4-0.8,0.6l0.2,5.1l0.4,22.2l-0.5,24.1l6.5,0.1l1.9-24.5l3.5-27.1l3.9,27.4l2.4,24.1l6.6,0.1l-2-25L1044,328.2z
				 M1034.3,323.5c0,0.1-0.1,0.2-0.1,0.2c0,0,0,0-0.1,0c-0.2,0-0.7-0.1-1.3-0.8c-1.3-1.7-1.3-5.6-1.2-8.5c0-0.1,0.1-0.2,0.1-0.2h2.4
				c0.1,0,0.1,0.1,0.1,0.2V323.5z"/>
			<path class="st22" d="M1033,322.6c0.4,0.6,0.8,0.7,1,0.7v-8.7h-2.1C1031.6,319.6,1032.4,321.7,1033,322.6z"/>
		</g>
		<path class="st23" d="M1043.1,311.4h-20.9c-0.1,0-0.1,0.1-0.1,0.2c0,0.1,0,0.2,0.1,0.2h20.9c0.1,0,0.1-0.1,0.1-0.2
			C1043.2,311.5,1043.2,311.4,1043.1,311.4z"/>
	</g>
	<g class="st8">
		<defs>
			<rect id="SVGID_27_" x="952.6" y="410.1" width="49" height="25.7"/>
		</defs>
		<clipPath id="SVGID_28_">
			<use xlink:href="#SVGID_27_"  style="overflow:visible;"/>
		</clipPath>
		<g class="st24">
			<defs>
				<rect id="SVGID_29_" x="952.6" y="410.1" width="49" height="25.7"/>
			</defs>
			<clipPath id="SVGID_30_">
				<use xlink:href="#SVGID_29_"  style="overflow:visible;"/>
			</clipPath>
			<g class="st25">
				<g>
					<defs>
						<rect id="SVGID_31_" x="947.6" y="416.8" width="28.8" height="17.6"/>
					</defs>
					<clipPath id="SVGID_32_">
						<use xlink:href="#SVGID_31_"  style="overflow:visible;"/>
					</clipPath>
					<rect x="954.8" y="422.4" class="st26" width="14.3" height="11.2"/>
				</g>
			</g>
			<g class="st25">
				<g>
					<defs>
						<rect id="SVGID_33_" x="969.7" y="416.8" width="28.8" height="17.6"/>
					</defs>
					<clipPath id="SVGID_34_">
						<use xlink:href="#SVGID_33_"  style="overflow:visible;"/>
					</clipPath>
					<rect x="977" y="422.4" class="st27" width="14.3" height="11.2"/>
				</g>
			</g>
			<path class="st28" d="M955.8,424l12-10.8l-0.7-0.8l0.5,0.9l-0.1-0.2l0.1,0.2l-0.1-0.2l0.1,0.2c0,0,0.5-0.3,1.2-0.6
				c0.3-0.1,0.7-0.3,1.1-0.4c0.3-0.1,0.7-0.2,0.9-0.2c0.1,0,0.2,0,0.2,0l0,0l0,0l0-0.1l-0.1,0l0,0l0-0.1l-0.1,0l0,0l0,0l0,0l0,0l0,0
				c0,0,0,0,0,0.1l2.1-0.2c0-0.3-0.1-0.6-0.3-0.9c-0.2-0.4-0.6-0.7-1-0.9c-0.4-0.2-0.8-0.2-1.1-0.2c-0.5,0-1,0.1-1.5,0.2
				c-0.7,0.2-1.4,0.5-1.9,0.7c-0.5,0.2-0.8,0.4-0.8,0.4l-0.1,0.1l-12.1,10.9L955.8,424z"/>
			<path class="st28" d="M968.5,424.1L968.5,424.1c0,0,0.6-0.4,1.5-0.7c0.9-0.3,2-0.7,3.1-0.6c0.6,0,1.1,0.1,1.7,0.3
				c0.5,0.2,1,0.5,1.5,0.9l1.5-1.5c-0.7-0.7-1.4-1.1-2.2-1.4c-0.8-0.3-1.6-0.4-2.4-0.4c-1.5,0-3,0.4-4,0.8c-1,0.4-1.7,0.8-1.8,0.8
				L968.5,424.1z"/>
			<path class="st28" d="M966.5,434.7v-1H957c-0.6,0-1.2-0.2-1.6-0.7c-0.4-0.4-0.7-1-0.7-1.6v-5.5c0-0.6,0.3-1.2,0.7-1.6
				c0.4-0.4,1-0.7,1.6-0.7h9.5c0.6,0,1.2,0.3,1.6,0.7c0.4,0.4,0.7,1,0.7,1.6v5.5c0,0.6-0.3,1.2-0.7,1.6c-0.4,0.4-1,0.7-1.6,0.7
				V434.7v1c2.4,0,4.3-1.9,4.3-4.3v-5.5c0-2.4-1.9-4.3-4.3-4.3H957c-2.4,0-4.3,1.9-4.3,4.3v5.5c0,1.2,0.5,2.3,1.3,3.1
				c0.8,0.8,1.9,1.3,3.1,1.3h9.5V434.7z"/>
			<path class="st28" d="M988.9,434.7v-1h-9.5c-0.6,0-1.2-0.2-1.6-0.7c-0.4-0.4-0.7-1-0.7-1.6v-5.5c0-0.6,0.3-1.2,0.7-1.6
				c0.4-0.4,1-0.7,1.6-0.7h9.5c0.6,0,1.2,0.3,1.6,0.7c0.4,0.4,0.7,1,0.7,1.6v5.5c0,0.6-0.3,1.2-0.7,1.6c-0.4,0.4-1,0.7-1.6,0.7
				V434.7v1c2.4,0,4.3-1.9,4.3-4.3v-5.5c0-2.4-1.9-4.3-4.3-4.3h-9.5c-2.4,0-4.3,1.9-4.3,4.3v5.5c0,1.2,0.5,2.3,1.3,3.1
				c0.8,0.8,1.9,1.3,3.1,1.3h9.5V434.7z"/>
			<path class="st28" d="M992.4,423.8l6.3-9.2l-0.9-0.6l0.7,0.8l-0.1-0.1l0.1,0.1l0,0l-0.1-0.1l0.1,0.1c0,0,0.3-0.2,0.6-0.4
				c0.2-0.1,0.3-0.2,0.5-0.3c0.1-0.1,0.3-0.1,0.3-0.1v-0.2l-0.1,0.2c0,0,0.1,0,0.1,0v-0.2l-0.1,0.2l0.1-0.4l-0.4,0.2
				c0,0.1,0.1,0.1,0.2,0.2l0.1-0.4l-0.4,0.2l0.2-0.1l-0.2,0.1l0,0l0.2-0.1l-0.2,0.1l0,0l0,0l0,0l0,0l0,0c0,0,0,0,0,0.1l2.1-0.2
				c0-0.2-0.1-0.5-0.2-0.7c-0.1-0.3-0.4-0.6-0.7-0.8c-0.3-0.2-0.7-0.3-0.9-0.3c-0.4,0-0.8,0.1-1.1,0.2c-0.5,0.2-0.9,0.4-1.2,0.6
				c-0.3,0.2-0.5,0.4-0.5,0.4l-0.1,0.1l-6.3,9.3L992.4,423.8z"/>
		</g>
		<line class="st29" x1="956.9" y1="428.6" x2="961.3" y2="426"/>
		<line class="st29" x1="960.2" y1="430.1" x2="964.6" y2="427.5"/>
		<line class="st29" x1="979.4" y1="430.1" x2="983.7" y2="427.5"/>
		<line class="st29" x1="984.5" y1="430.3" x2="988.9" y2="427.7"/>
	</g>
	<text transform="matrix(1 0 0 1 973.6381 486.5114)" class="st30 st6 st31">PURCHASE</text>
	<g class="st8">
		<g>
			<defs>
				<path id="SVGID_35_" d="M962.4,282.2v-2.1h-2.5C960.9,280.5,961.8,281.2,962.4,282.2z M962.4,274.6h4.9v10.1h-4.9v-0.1
					c-1.1-1.7-2.8-3.1-4.9-4v4.1h-4.9v-10.2h4.9v4.1h4.9C962.4,278.7,962.4,274.6,962.4,274.6z"/>
			</defs>
			<clipPath id="SVGID_36_">
				<use xlink:href="#SVGID_35_"  style="overflow:visible;"/>
			</clipPath>
			<rect x="950.6" y="272.5" class="st32" width="18.8" height="14.2"/>
		</g>
		<g>
			<defs>
				<path id="SVGID_37_" d="M983.1,282.8v1.6c-0.8,0.3-2,0.5-3.7,0.5c-0.6,0-1.2,0-1.7-0.2c-0.7-0.2-1.3-0.4-1.5-0.7
					c-1,0.6-2.2,0.8-3.5,0.8c-1,0-1.9-0.2-2.7-0.5c-1.1-0.5-1.6-1.1-1.6-2V278h4.8v3.7c0,0.4,0.1,0.6,0.4,0.8
					c0.2,0.2,0.5,0.3,0.9,0.3c0.4,0,0.7-0.1,0.9-0.3c0.2-0.2,0.4-0.5,0.4-0.8V278h4.9v3.8c0,0.4,0.1,0.7,0.4,0.9
					c0.2,0.2,0.6,0.3,0.9,0.3c0.2,0,0.4,0,0.6-0.1C982.9,282.8,983.1,282.8,983.1,282.8z"/>
			</defs>
			<clipPath id="SVGID_38_">
				<use xlink:href="#SVGID_37_"  style="overflow:visible;"/>
			</clipPath>
			<rect x="966.2" y="276" class="st33" width="19" height="10.9"/>
		</g>
		<g>
			<defs>
				<path id="SVGID_39_" d="M995.8,280.2h-1.8c0,1.9-0.6,3.2-1.8,3.9c-0.9,0.5-2.4,0.8-4.4,0.8c-1,0-1.9-0.2-2.9-0.7
					c-1.2-0.5-1.7-1.3-1.7-2.1v-7.5h4.9v6.4c0,0.5,0.2,0.9,0.5,1.3c0.4,0.4,0.8,0.5,1.3,0.5c0.6,0,1.1-0.2,1.5-0.6
					c0.4-0.4,0.6-0.9,0.6-1.5v-0.6h-0.2c-0.5,0-1-0.1-1.4-0.4c-0.4-0.3-0.7-0.7-0.7-1.2s0.2-0.9,0.6-1.2c0.4-0.2,0.8-0.4,1.3-0.4
					c0.4,0,0.9,0.1,1.3,0.2c0.4,0.2,0.8,0.4,1,0.7h2V280.2z"/>
			</defs>
			<clipPath id="SVGID_40_">
				<use xlink:href="#SVGID_39_"  style="overflow:visible;"/>
			</clipPath>
			<rect x="981.1" y="272.6" class="st34" width="16.8" height="14.3"/>
		</g>
		<g>
			<defs>
				<path id="SVGID_41_" d="M1008.8,287.4h-4.6v-3.2c-0.6,0.4-1.7,0.6-3.5,0.6c-1.2,0-2.2-0.2-3.3-0.7c-1.3-0.6-1.9-1.4-1.9-2.4
					c0-1.2,0.5-2.2,1.6-2.8c0.9-0.6,2-0.9,3.3-0.9h3.1v2h-0.4c-0.7,0-1.2,0.1-1.6,0.2c-0.6,0.2-0.9,0.7-0.9,1.2c0,0.9,0.7,1.3,2,1.3
					c0.5,0,0.9-0.1,1.2-0.4s0.4-0.6,0.4-1.1v-1.3v-1.3v-0.8h4.5L1008.8,287.4z"/>
			</defs>
			<clipPath id="SVGID_42_">
				<use xlink:href="#SVGID_41_"  style="overflow:visible;"/>
			</clipPath>
			<rect x="993.6" y="275.9" class="st35" width="17.2" height="13.5"/>
		</g>
		<g>
			<defs>
				<path id="SVGID_43_" d="M1024.7,282.8v1.6c-0.8,0.3-2,0.5-3.7,0.5c-0.6,0-1.2,0-1.7-0.2c-0.7-0.2-1.3-0.4-1.5-0.7
					c-1,0.6-2.2,0.8-3.5,0.8c-1,0-1.9-0.2-2.7-0.5c-1.1-0.5-1.6-1.1-1.6-2V278h4.8v3.7c0,0.4,0.1,0.6,0.4,0.8
					c0.2,0.2,0.5,0.3,0.9,0.3s0.7-0.1,0.9-0.3c0.2-0.2,0.4-0.5,0.4-0.8V278h4.9v3.8c0,0.4,0.1,0.7,0.4,0.9c0.2,0.2,0.6,0.3,0.9,0.3
					c0.2,0,0.4,0,0.6-0.1C1024.4,282.8,1024.6,282.8,1024.7,282.8z"/>
			</defs>
			<clipPath id="SVGID_44_">
				<use xlink:href="#SVGID_43_"  style="overflow:visible;"/>
			</clipPath>
			<rect x="1007.7" y="276" class="st36" width="19" height="10.9"/>
		</g>
		<g>
			<defs>
				<path id="SVGID_45_" d="M1032.8,284.4c-0.3,0.2-0.7,0.3-1.3,0.4c-0.5,0.1-1,0.2-1.4,0.2c-3.1,0-4.7-0.8-4.7-2.3v-4.6h4.9v4.2
					c0,0.6,0.4,0.9,1.1,0.9c0.4,0,0.9-0.1,1.4-0.4V284.4z M1030.7,275.6c0,0.4-0.4,0.8-1.1,1.1c-0.6,0.2-1.1,0.3-1.7,0.3
					c-0.6,0-1.1-0.1-1.7-0.3c-0.7-0.2-1.1-0.6-1.1-1.1c0-0.4,0.4-0.8,1.1-1.1c0.5-0.2,1.1-0.2,1.7-0.2c0.6,0,1.1,0.1,1.7,0.2
					C1030.3,274.8,1030.7,275.1,1030.7,275.6z"/>
			</defs>
			<clipPath id="SVGID_46_">
				<use xlink:href="#SVGID_45_"  style="overflow:visible;"/>
			</clipPath>
			<rect x="1022.9" y="272.2" class="st37" width="11.9" height="14.8"/>
		</g>
		<g>
			<defs>
				<path id="SVGID_47_" d="M1045.1,284.4c-0.9,0.3-2,0.4-3.3,0.4c-1,0-1.8-0.2-2.5-0.5c-0.9-0.4-1.4-1.1-1.4-2
					c0-0.8,0.5-1.5,1.5-2.2h-3.1c-0.4,2.3-1.6,3.7-3.7,4.2v-1.6c0.6-0.2,1-0.6,1.3-1c0.2-0.4,0.4-0.9,0.5-1.6h-0.2
					c-0.4,0-0.9-0.1-1.2-0.4c-0.4-0.3-0.6-0.6-0.6-1.1s0.2-0.9,0.6-1.2c0.4-0.3,0.8-0.4,1.3-0.4c0.3,0,0.7,0.1,1.1,0.2
					c0.4,0.2,0.7,0.4,0.8,0.7h8.2v2.1h-1.3c-0.5,0.4-0.8,0.8-0.8,1.3c0,0.4,0.2,0.7,0.6,1.1c0.4,0.3,0.8,0.4,1.2,0.4
					c0.4,0,0.7,0,1.1-0.1L1045.1,284.4L1045.1,284.4z"/>
			</defs>
			<clipPath id="SVGID_48_">
				<use xlink:href="#SVGID_47_"  style="overflow:visible;"/>
			</clipPath>
			<rect x="1030.4" y="275.1" class="st38" width="16.8" height="11.8"/>
		</g>
		<g>
			<defs>
				<path id="SVGID_49_" d="M1058,282.8v1.6c-1.6,0.4-3.6,0.6-6.1,0.6c-1.3,0-2.6-0.1-3.6-0.3c-1.7-0.4-2.6-0.9-2.6-1.8
					c0-0.8,0.9-1.4,2.7-1.9c-0.4-0.1-0.8-0.3-1.1-0.5c-0.4-0.3-0.7-0.6-0.7-0.9c0-0.9,1.1-1.5,3.2-1.9c1.2-0.2,2.6-0.3,4.3-0.3
					c0.7,0,1.3,0,1.9,0v1.6c-0.7,0-1.3,0-2,0c-1,0.1-1.5,0.2-1.5,0.5c0,0.2,0.3,0.4,0.9,0.4c0.4,0.1,0.8,0.1,1.1,0.1h0.2v1
					c-2,0.2-3,0.7-3,1.1c0,0.5,1.1,0.8,3.3,0.8C1056.3,283.1,1057.3,283,1058,282.8z"/>
			</defs>
			<clipPath id="SVGID_50_">
				<use xlink:href="#SVGID_49_"  style="overflow:visible;"/>
			</clipPath>
			<rect x="1043.8" y="275.4" class="st39" width="16.3" height="11.6"/>
		</g>
	</g>
</g>
<g>
	<g>
		<g class="st40">
			<g>
				<defs>
					<rect id="SVGID_51_" x="265.4" y="596.2" width="984" height="28"/>
				</defs>
				<clipPath id="SVGID_52_">
					<use xlink:href="#SVGID_51_"  style="overflow:visible;"/>
				</clipPath>
				<g class="st41">
					<defs>
						<path id="SVGID_53_" d="M757.4,596.7c271.4,0,491.3,6.1,491.3,13.7s-219.9,13.7-491.3,13.7s-491.3-6.1-491.3-13.7
							S486.1,596.7,757.4,596.7z"/>
					</defs>
					<clipPath id="SVGID_54_">
						<use xlink:href="#SVGID_53_"  style="overflow:visible;"/>
					</clipPath>
					<g class="st42">
						<defs>
							<rect id="SVGID_55_" x="265.4" y="596.2" width="984" height="28"/>
						</defs>
						<clipPath id="SVGID_56_">
							<use xlink:href="#SVGID_55_"  style="overflow:visible;"/>
						</clipPath>
						<rect x="261.1" y="591.7" class="st43" width="992.6" height="37.4"/>
					</g>
				</g>
			</g>
		</g>
		<g>
			<defs>
				<path id="SVGID_57_" d="M1185.1,572.9c0,20.1-16,36.5-35.7,36.5h-802c-19.7,0-35.7-16.2-35.7-36.5H1185.1z"/>
			</defs>
			<clipPath id="SVGID_58_">
				<use xlink:href="#SVGID_57_"  style="overflow:visible;"/>
			</clipPath>
			<rect x="306.7" y="567.9" class="st44" width="883.4" height="46.5"/>
		</g>
		<g>
			<defs>
				<path id="SVGID_59_" d="M759,109.3c3.2,0,5.7,2.5,5.7,5.7s-2.5,5.7-5.7,5.7s-5.7-2.5-5.7-5.7S755.8,109.3,759,109.3z"/>
			</defs>
			<clipPath id="SVGID_60_">
				<use xlink:href="#SVGID_59_"  style="overflow:visible;"/>
			</clipPath>
			<rect x="748.3" y="104.3" class="st45" width="21.4" height="21.4"/>
		</g>
		<g>
			<defs>
				<path id="SVGID_61_" d="M809,572.9c0,6.7-5.6,12.1-12.4,12.1H700c-6.8,0-12.4-5.5-12.4-12.1H809z"/>
			</defs>
			<clipPath id="SVGID_62_">
				<use xlink:href="#SVGID_61_"  style="overflow:visible;"/>
			</clipPath>
			<rect x="682.6" y="567.9" class="st46" width="131.4" height="22.1"/>
		</g>
		<g>
			<defs>
				<rect id="SVGID_63_" x="420.8" y="183.7" width="655.1" height="21.4"/>
			</defs>
			<clipPath id="SVGID_64_">
				<use xlink:href="#SVGID_63_"  style="overflow:visible;"/>
			</clipPath>
			<rect x="415.8" y="178.7" class="st47" width="665.1" height="31.4"/>
		</g>
		<g>
			<defs>
				<path id="SVGID_65_" d="M651.9,158.1V153h-6.2C648.2,153.9,650.3,155.6,651.9,158.1z M651.9,139.3H664v24.9h-12.1V164
					c-2.8-4.3-6.8-7.6-12-9.8v10h-12.1v-25h12.1v10.1h12C651.9,149.5,651.9,139.3,651.9,139.3z"/>
			</defs>
			<clipPath id="SVGID_66_">
				<use xlink:href="#SVGID_65_"  style="overflow:visible;"/>
			</clipPath>
			<rect x="622.8" y="134.2" class="st48" width="46.2" height="35"/>
		</g>
		<g>
			<defs>
				<path id="SVGID_67_" d="M702.8,159.4v3.9c-1.9,0.8-5,1.2-9.2,1.2c-1.4,0-2.9-0.1-4.3-0.4c-1.8-0.4-3.1-0.9-3.8-1.6
					c-2.4,1.4-5.3,2-8.7,2c-2.4,0-4.6-0.4-6.7-1.3c-2.7-1.2-4-2.8-4-4.8v-10.7H678v9.2c0,0.9,0.3,1.5,0.9,2c0.6,0.5,1.3,0.7,2.2,0.7
					c0.9,0,1.6-0.2,2.3-0.7c0.6-0.5,1-1.2,1-2v-9.2h12v9.4c0,0.9,0.3,1.6,0.9,2.1c0.6,0.5,1.4,0.8,2.3,0.8c0.4,0,0.9-0.1,1.5-0.2
					C702.2,159.5,702.7,159.4,702.8,159.4z"/>
			</defs>
			<clipPath id="SVGID_68_">
				<use xlink:href="#SVGID_67_"  style="overflow:visible;"/>
			</clipPath>
			<rect x="661.1" y="142.7" class="st49" width="46.7" height="26.8"/>
		</g>
		<g>
			<defs>
				<path id="SVGID_69_" d="M733.9,153h-4.5c0,4.6-1.4,7.8-4.4,9.6c-2.2,1.3-5.9,2-10.9,2c-2.4,0-4.7-0.6-7.1-1.7
					c-2.9-1.3-4.3-3.1-4.3-5.1v-18.4h12v15.8c0,1.3,0.4,2.3,1.3,3.2c0.9,0.9,1.9,1.2,3.1,1.2c1.5,0,2.8-0.5,3.8-1.4s1.5-2.2,1.5-3.7
					v-1.4h-0.5c-1.3,0-2.5-0.3-3.4-0.9c-1.1-0.7-1.7-1.7-1.7-3s0.5-2.2,1.4-2.9c0.9-0.6,1.9-0.9,3.3-0.9c1.1,0,2.1,0.2,3.1,0.6
					c1.1,0.4,2,1,2.5,1.8h4.8V153z"/>
			</defs>
			<clipPath id="SVGID_70_">
				<use xlink:href="#SVGID_69_"  style="overflow:visible;"/>
			</clipPath>
			<rect x="697.7" y="134.4" class="st50" width="41.2" height="35.2"/>
		</g>
		<g>
			<defs>
				<path id="SVGID_71_" d="M766,170.8h-11.2V163c-1.4,1-4.2,1.5-8.6,1.5c-2.9,0-5.5-0.6-8-1.8c-3.1-1.5-4.6-3.5-4.6-6
					c0-3,1.3-5.3,4-7c2.2-1.4,4.9-2.1,8.1-2.1h7.6v4.9h-1.1c-1.6,0-3,0.2-4,0.6c-1.5,0.6-2.3,1.6-2.3,3c0,2.2,1.6,3.3,4.9,3.3
					c1.2,0,2.1-0.3,2.9-0.9c0.8-0.6,1.1-1.4,1.1-2.6v-3.1v-3.1v-1.9h11.1L766,170.8z"/>
			</defs>
			<clipPath id="SVGID_72_">
				<use xlink:href="#SVGID_71_"  style="overflow:visible;"/>
			</clipPath>
			<rect x="728.6" y="142.6" class="st51" width="42.4" height="33.2"/>
		</g>
		<g>
			<defs>
				<path id="SVGID_73_" d="M805,159.4v3.9c-1.9,0.8-5,1.2-9.2,1.2c-1.4,0-2.9-0.1-4.3-0.4c-1.8-0.4-3.1-0.9-3.8-1.6
					c-2.4,1.4-5.3,2-8.7,2c-2.4,0-4.6-0.4-6.7-1.3c-2.7-1.2-4-2.8-4-4.8v-10.7h11.9v9.2c0,0.9,0.3,1.5,0.9,2
					c0.6,0.5,1.3,0.7,2.2,0.7c0.9,0,1.6-0.2,2.3-0.7c0.6-0.5,1-1.2,1-2v-9.2h12v9.4c0,0.9,0.3,1.6,0.9,2.1c0.6,0.5,1.4,0.8,2.3,0.8
					c0.4,0,0.9-0.1,1.5-0.2C804.4,159.5,804.9,159.4,805,159.4z"/>
			</defs>
			<clipPath id="SVGID_74_">
				<use xlink:href="#SVGID_73_"  style="overflow:visible;"/>
			</clipPath>
			<rect x="763.3" y="142.7" class="st52" width="46.7" height="26.8"/>
		</g>
		<g>
			<defs>
				<path id="SVGID_75_" d="M824.9,163.4c-0.7,0.4-1.8,0.7-3.3,1c-1.3,0.3-2.5,0.4-3.4,0.4c-7.7,0-11.5-1.9-11.5-5.6v-11.4h12v10.4
					c0,1.4,0.9,2.1,2.7,2.1c1,0,2.1-0.3,3.5-1V163.4z M819.7,141.7c0,1.1-0.9,1.9-2.8,2.6c-1.4,0.5-2.8,0.7-4.2,0.7
					c-1.4,0-2.8-0.2-4.2-0.7c-1.8-0.6-2.8-1.4-2.8-2.6c0-1.1,0.9-1.9,2.8-2.6c1.3-0.4,2.7-0.6,4.2-0.6c1.4,0,2.8,0.2,4.2,0.6
					C818.8,139.8,819.7,140.6,819.7,141.7z"/>
			</defs>
			<clipPath id="SVGID_76_">
				<use xlink:href="#SVGID_75_"  style="overflow:visible;"/>
			</clipPath>
			<rect x="800.7" y="133.5" class="st53" width="29.2" height="36.3"/>
		</g>
		<g>
			<defs>
				<path id="SVGID_77_" d="M855.3,163.4c-2.3,0.7-5,1-8.1,1c-2.4,0-4.5-0.4-6.2-1.2c-2.2-1-3.4-2.7-3.4-4.8c0-1.9,1.3-3.8,3.8-5.4
					h-7.7c-0.9,5.6-3.9,9.1-9,10.4v-3.9c1.4-0.6,2.5-1.4,3.2-2.5c0.6-0.9,1-2.2,1.2-3.9h-0.6c-1.1,0-2.1-0.3-3-1
					c-0.9-0.7-1.4-1.5-1.4-2.6c0-1.1,0.5-2.1,1.4-2.9c0.9-0.7,1.9-1.1,3.1-1.1c0.8,0,1.7,0.2,2.6,0.6c1,0.5,1.6,1,1.9,1.7h20.2v5.1
					h-3.2c-1.3,0.9-1.9,1.9-1.9,3.1c0,1,0.5,1.8,1.4,2.6c0.9,0.7,1.9,1.1,3,1.1c0.9,0,1.8-0.1,2.6-0.3v4H855.3z"/>
			</defs>
			<clipPath id="SVGID_78_">
				<use xlink:href="#SVGID_77_"  style="overflow:visible;"/>
			</clipPath>
			<rect x="819.1" y="140.5" class="st54" width="41.2" height="28.9"/>
		</g>
		<g>
			<defs>
				<path id="SVGID_79_" d="M887,159.4v3.9c-3.9,1-8.9,1.5-15,1.5c-3.3,0-6.3-0.3-8.8-0.8c-4.2-0.9-6.3-2.3-6.3-4.4
					c0-1.9,2.2-3.5,6.6-4.7c-1-0.3-1.9-0.7-2.8-1.2c-1.1-0.7-1.7-1.4-1.7-2.2c0-2.2,2.6-3.8,7.9-4.6c2.9-0.5,6.4-0.7,10.5-0.7
					c1.7,0,3.2,0,4.7,0.1v4c-1.6,0.1-3.2,0.1-4.8,0.1c-2.5,0.2-3.8,0.6-3.8,1.2c0,0.5,0.7,0.9,2.1,1.1c1,0.2,1.9,0.3,2.8,0.3h0.5
					v2.5c-5,0.6-7.5,1.6-7.5,2.8c0,1.3,2.7,1.9,8,1.9C882.7,160.3,885.3,160,887,159.4z"/>
			</defs>
			<clipPath id="SVGID_80_">
				<use xlink:href="#SVGID_79_"  style="overflow:visible;"/>
			</clipPath>
			<rect x="851.9" y="141.2" class="st55" width="40.1" height="28.6"/>
		</g>
		<line class="st56" x1="443.4" y1="194.4" x2="479.4" y2="194.4"/>
		<line class="st56" x1="506.1" y1="194.4" x2="542.1" y2="194.4"/>
		<line class="st56" x1="556.8" y1="194.4" x2="616.8" y2="194.4"/>
		<line class="st56" x1="631.6" y1="194.4" x2="667.4" y2="194.4"/>
		<line class="st57" x1="707.7" y1="344.2" x2="743.7" y2="344.2"/>
		<line class="st57" x1="770.4" y1="344.2" x2="796.4" y2="344.2"/>
		<line class="st57" x1="816.1" y1="344.2" x2="876.1" y2="344.2"/>
		<line class="st57" x1="895.9" y1="344.2" x2="931.7" y2="344.2"/>
		<line class="st57" x1="707.7" y1="372.2" x2="771.7" y2="372.2"/>
		<line class="st57" x1="787.9" y1="372.2" x2="836.2" y2="372.2"/>
		<line class="st57" x1="850.8" y1="372.2" x2="873.5" y2="372.2"/>
		<line class="st57" x1="897.8" y1="372.2" x2="930.4" y2="372.2"/>
		<line class="st57" x1="944.3" y1="372.2" x2="986.4" y2="372.2"/>
		<line class="st57" x1="944.3" y1="344.2" x2="994.7" y2="344.2"/>
		<line class="st57" x1="707.7" y1="400.2" x2="743.7" y2="400.2"/>
		<g>
			<defs>
				<rect id="SVGID_81_" x="443.4" y="236.7" width="218.2" height="311.3"/>
			</defs>
			<use xlink:href="#SVGID_81_"  style="overflow:visible;fill-rule:evenodd;clip-rule:evenodd;fill:#D4D6D8;"/>
			<clipPath id="SVGID_82_">
				<use xlink:href="#SVGID_81_"  style="overflow:visible;"/>
			</clipPath>
			<rect x="438.4" y="231.7" class="st58" width="228.2" height="321.3"/>
			
				<use xlink:href="#SVGID_81_"  style="overflow:visible;fill-rule:evenodd;clip-rule:evenodd;fill:none;stroke:#000000;stroke-width:2;stroke-linecap:round;stroke-linejoin:round;stroke-miterlimit:10;"/>
		</g>
		<line class="st57" x1="760.4" y1="400.2" x2="796.4" y2="400.2"/>
		<line class="st57" x1="811.1" y1="400.2" x2="871.1" y2="400.2"/>
		<line class="st57" x1="885.9" y1="400.2" x2="921.7" y2="400.2"/>
		<line class="st57" x1="935.5" y1="400.2" x2="994.7" y2="400.2"/>
		<line class="st57" x1="707.7" y1="428.2" x2="743.7" y2="428.2"/>
		<line class="st57" x1="760.4" y1="428.2" x2="796.4" y2="428.2"/>
		<line class="st57" x1="811.1" y1="428.2" x2="871.1" y2="428.2"/>
		<line class="st57" x1="935.3" y1="428.2" x2="975" y2="428.2"/>
		<line class="st57" x1="884.9" y1="428.2" x2="920.7" y2="428.2"/>
		<g>
			<path class="st59" d="M540.4,339.3c0,0,0.3,4.9,0,7.2c-0.3,2.4,2.3,8.6,6.7,7.9c4.4-0.7,3.8-7.7,3.6-10.1c-0.3-2.4,0-5.1,0-5.1
				L540.4,339.3z"/>
			<path class="st59" d="M540.4,339.3c0,0,0.3,4.9,0,7.2c-0.3,2.4,2.3,8.6,6.7,7.9c4.4-0.7,3.8-7.7,3.6-10.1c-0.3-2.4,0-5.1,0-5.1
				L540.4,339.3z"/>
			<g>
				<path class="st59" d="M572.7,289.4L572.7,289.4c0-0.1,0-0.2,0-0.2c0-15.6-12.7-28.3-28.3-28.3c-15.6,0-28.3,12.7-28.3,28.3
					c0,0.1,0,0.2,0,0.2h0c0,0,0.4,23.1,2,31.2c1.6,8.3,17.3,22.2,27,22.4c1.7,0-1-0.1,2.3,0c10,0.2,22.9-16.6,24.3-23.1
					C573.4,311.7,572.7,289.4,572.7,289.4z"/>
				<path class="st59" d="M572.7,289.4L572.7,289.4c0-0.1,0-0.2,0-0.2c0-15.6-12.7-28.3-28.3-28.3c-15.6,0-28.3,12.7-28.3,28.3
					c0,0.1,0,0.2,0,0.2h0c0,0,0.4,23.1,2,31.2c1.6,8.3,17.3,22.2,27,22.4c1.7,0-1-0.1,2.3,0c10,0.2,22.9-16.6,24.3-23.1
					C573.4,311.7,572.7,289.4,572.7,289.4z"/>
			</g>
			<g>
				<path class="st60" d="M548.3,369c1.2,0,2.2,0.4,3,1.3c0.8,0.9,1.2,2.1,1.2,3.7c1.1-0.3,2.1-0.7,2.9-1.2c0.8-0.5,1.3-0.7,1.3-0.7
					c0.2,0,0.2,0.1,0.2,0.4s-0.4,0.7-1.1,1.2c-0.8,0.6-1.9,1.1-3.4,1.7c-0.3,2.4-1.3,4.2-2.9,5.5c-1.6,1.3-3.2,1.9-4.8,1.9
					s-2.7-0.6-3.2-1.8c-0.5-1.2-0.8-3.1-0.8-5.6s0.2-5,0.6-7.3c0.4-2.3,0.9-4.1,1.4-5.4c0.6-1.3,1.2-2.3,1.8-3
					c0.6-0.7,1.2-1.1,1.8-1.1c0.3,0,0.5,0.3,0.7,1c0.2,0.6,0.3,1.4,0.3,2.4c0,2.1-0.4,4.4-1.1,7.2C546.9,369.1,547.6,369,548.3,369z
					 M546.6,362.9c0-1.1-0.1-1.7-0.4-1.7c-0.2,0-0.5,0.6-0.9,1.7c-0.3,1.2-0.6,2.7-0.9,4.7c-0.3,2-0.4,3.9-0.4,5.9
					C545.7,368.5,546.6,365,546.6,362.9z M550.1,376.2c-0.2,0-0.7,0-1.3,0c-0.7,0-1.4-0.2-2.2-0.7c-0.8-0.5-1.4-1.1-1.7-1.9
					c-0.3,0.7-0.6,1.3-0.9,1.9c0.1,2,0.2,3.5,0.5,4.4c0.3,0.9,0.7,1.3,1.3,1.3c0.9,0,1.8-0.4,2.7-1.2
					C549.4,379.2,549.9,378,550.1,376.2z M547.7,370.4c-0.4,0-0.7,0.1-0.9,0.3c-0.2,0.2-0.3,0.5-0.3,0.9c0,0.8,0.4,1.5,1.1,2.1
					c0.7,0.5,1.6,0.8,2.7,0.8c0-1.1-0.2-2-0.6-2.9C549.2,370.9,548.6,370.4,547.7,370.4z"/>
			</g>
			<path class="st61" d="M550.5,526.9c0,0,0.1,2.7,0,3.4c-0.1,0.6,0.1,1.7,0.1,1.7s0.6,1,1.3,1.2c1.4,0.3,1,3,3.4,5.2
				c1.7,1.5,4.2,2.7,8.1,2.4c6.4-0.4,7.2-2,7.2-2s0.1-0.3,0.1-0.8c0-0.1-0.1-0.2-0.1-0.3c0.2-1.9,0.2-5.5-3.4-6.5
				c-3.3-0.8-4.2-4.9-4.2-5.9C563.1,524,551,521.3,550.5,526.9z"/>
			<g>
				<defs>
					<path id="SVGID_83_" d="M550.5,526.9c0,0,0.1,2.7,0,3.4c-0.1,0.6,0.1,1.7,0.1,1.7s0.6,1,1.3,1.2c1.4,0.3,1,3,3.4,5.2
						c1.7,1.5,4.2,2.7,8.1,2.4c6.4-0.4,7.2-2,7.2-2s0.1-0.3,0.1-0.8c0-0.1-0.1-0.2-0.1-0.3c0.2-1.9,0.2-5.5-3.4-6.5
						c-3.3-0.8-4.2-4.9-4.2-5.9C563.1,524,550.9,521.3,550.5,526.9z"/>
				</defs>
				<clipPath id="SVGID_84_">
					<use xlink:href="#SVGID_83_"  style="overflow:visible;"/>
				</clipPath>
				<path class="st62" d="M550.7,531.9l-0.1-0.7c0.4,0.4,1,1.1,1.4,1.2c0.5,0.1,1.4,0.9,2.1,2.6c0.7,1.7,4.3,6.7,16.7,2.6v0l0.1,0.2
					l-0.1,0.9l0.6,0.6c-0.2,0.1-4,3.3-10.8,2.1c-6.9-1.2-8-5.2-8.1-6.3c-0.1-0.7-0.9-1.4-1.5-1.8C551,532.7,550.7,531.9,550.7,531.9
					z"/>
			</g>
			<path class="st63" d="M524.5,445.5c0,0,2.3-1.4,0.3-3.9c-2-2.5-1-0.7-1-0.7s-0.4-3.9-0.6-5.4c-0.2-1.5-2.8,1-3.2,2.5
				C519.7,439.5,523.3,444.9,524.5,445.5z"/>
			<path class="st64" d="M520.9,445.7c0.1,0,2.9,2.8,2.9,2.8s1.9-0.8,1.5-2.3c-0.4-1.5-1.3-2.7-1.9-3.4c-0.6-0.7-2.4-3.1-2.5-3.9
				c-0.1-0.8,1.7-2.3,1.5-2.9c-0.2-0.6-0.8-1.1-1.2-0.7c-0.3,0.3-1.2,3.1-1.3,3.5c0,0-1.3,1.3-1.4,1.4c-0.1,0.1,0,0.9,0.2,1.5
				c0.2,0.6,1,2.2,1,2.2"/>
			<path class="st65" d="M517.4,443.9c0.1,0.1,1.3,6.2,1.6,6.8c0.2-0.1,1.1,0.4,2.6-0.7c1.5-1.1,0.3-4.8-0.1-5.4
				c-0.4-0.6-1.9-4.3-1.8-4.8c0-0.4,0.2-1.4,0.3-1.8C520.1,437.6,517.4,443.9,517.4,443.9z"/>
			<path class="st66" d="M522.6,436.6c-0.1,0.1-0.2-0.1-0.2-0.1s-0.1,0.2-0.2,0.5c-0.1,0.2-0.2,0.5-0.3,0.7c0.4-0.4,0.8-0.7,1.2-0.8
				c0,0,0.1,0.6,0.2,1.2l0,0c0-1.4-1-3.5-1-3.5S522.7,436.5,522.6,436.6z"/>
			<path class="st59" d="M521.6,426.9c0,0-3.9,8.6-4.4,9.9c-0.6,1.3-2.4,5.2-3.2,6.6c-1.4,2.4-4,4.6-3.9,5.1c0.5,0.9,2.6,2.6,5,0.6
				c2.4-2.1,3.6-5.8,4.1-6.8c0.5-1.1,2.5-5.1,3.9-5.4c0,0,0.3,1.6,0.3,2.3c0,0.7,0.6,2.6,0.8,3.2c0.4,0.8,5.8,2.7,7,0.1
				c0,0,0-0.2-0.8-1c-0.8-0.8-1.8-2.1-2-3c-0.2-1-0.7-0.7-0.5-2.4c0.2-1.7,0.4-1.2,0-2.7c-0.4-1.5-0.9-2.3-0.9-3.5
				c0-1.2,0.2-2.8,0.2-3.3c0-0.5-0.7-1.3-1.1-1.5c-0.4-0.2-4.6,1.7-4.6,1.7"/>
			<path class="st61" d="M542.3,526.3c0,0-0.1,2.7,0,3.4c0.1,0.6-0.1,1.7-0.1,1.7s-0.6,1-1.3,1.2c-1.4,0.3-1,3-3.4,5.2
				c-1.7,1.5-4.2,2.7-8.1,2.4c-6.3-0.4-7.2-2-7.2-2s-0.1-0.3-0.1-0.8c0-0.1,0.1-0.2,0.1-0.3c-0.2-1.9-0.2-5.5,3.4-6.5
				c3.3-0.8,4.2-4.9,4.2-5.9C529.8,523.4,541.8,520.7,542.3,526.3z"/>
			<path class="st67" d="M563.6,351.8l-14.1-6.4l-9.7,1.7c0,0-8.1,4.5-9.9,6.7c0,0,0,0,0,0c-3,2.5,2.1,16.6,2.2,24.8
				c0.7,11.6,2,32.5,2,32.5s0.5,3.6,13.5,3.7c13,0.1,12.2-2.1,12.2-2.1c2.1-2.1,2.1-33.7,2.2-42.4
				C562.1,361.3,563.6,351.8,563.6,351.8z"/>
			<path class="st68" d="M529,526c0,0,2.6-46.2,3-57.8c0.4-11.6,1.9-57.6,1.9-57.6l25.8,0.2c0,0,1.2,42.5,1.5,56.8
				c0.4,14.3,2.2,58.8,2.2,58.8s-1.6,1.4-4.5,1.8c-8,0.5-8.5-2.9-8.5-2.9l0.1-2.4l-0.5-54.3c0,0-0.3-0.3-0.4-0.9
				c-0.2-0.7,0.3-1.1,0.3-1.1s-0.4-1.1-0.1-1.8c0.3-0.7-1.5-38.2-1.5-38.2s-1.3,0-2.5,0.2c-1.1,0.1-1.5,33.6-2.1,39.2
				c0,0.1,0.1,0.5,0.1,0.6c0,0.4-0.3,0.6-0.3,0.6s0.1,0.8,0,1.3c-0.1,0.5-0.4,1-0.4,1l-0.4,57.1c0,0-4.2,1.5-8.4,1.2
				C530.6,527.4,529,526,529,526z"/>
			<g>
				<defs>
					<path id="SVGID_85_" d="M529,526c0,0,2.6-46.2,3-57.8c0.4-11.6,1.9-57.6,1.9-57.6l25.8,0.2c0,0,1.2,42.5,1.5,56.8
						c0.4,14.3,2.2,58.8,2.2,58.8s-1.6,1.4-4.5,1.8c-8,0.5-8.5-2.9-8.5-2.9l0.1-2.4l-0.5-54.3c0,0-0.3-0.3-0.4-0.9
						c-0.2-0.7,0.3-1.1,0.3-1.1s-0.4-1.1-0.1-1.8c0.3-0.7-1.5-38.2-1.5-38.2s-1.3,0-2.5,0.2c-1.1,0.1-1.5,33.6-2.1,39.2
						c0,0.1,0.1,0.5,0.1,0.6c0,0.4-0.3,0.6-0.3,0.6s0.1,0.8,0,1.3c-0.1,0.5-0.4,1-0.4,1l-0.4,57.1c0,0-4.2,1.5-8.4,1.2
						C530.6,527.4,529,526,529,526z"/>
				</defs>
				<clipPath id="SVGID_86_">
					<use xlink:href="#SVGID_85_"  style="overflow:visible;"/>
				</clipPath>
				<rect x="547.1" y="399.8" class="st69" width="21" height="128.4"/>
			</g>
			<g>
				<path class="st59" d="M571.3,308.3c0,0,3-4.5,6.7-1.6c3.8,2.9,0.2,6.4-1.5,8c-1.7,1.5-1.8,4.4-4.6,4.1c-2.8-0.3-3.7-3-3.7-3
					L571.3,308.3z"/>
				<path class="st70" d="M571.3,308.3c0,0,3-4.5,6.7-1.6c3.8,2.9,0.2,6.4-1.5,8c-1.7,1.5-1.8,4.4-4.6,4.1c-2.8-0.3-3.7-3-3.7-3
					L571.3,308.3z"/>
			</g>
			<g>
				<defs>
					<path id="SVGID_87_" d="M540.4,339.3c0,0,0.3,4.9,0,7.2c-0.3,2.4,2.3,8.6,6.7,7.9c4.4-0.7,3.8-7.7,3.6-10.1
						c-0.3-2.4,0-5.1,0-5.1L540.4,339.3z"/>
				</defs>
				<clipPath id="SVGID_88_">
					<use xlink:href="#SVGID_87_"  style="overflow:visible;"/>
				</clipPath>
				<path class="st71" d="M540.5,342h10.2C550.7,342,546.1,349.3,540.5,342z"/>
			</g>
			<path class="st60" d="M562.2,351.1c0.6,0.5,17.9,23.2,18.2,23.7c0.3,0.5,1.3,1.8,1.6,2.2c0.4,0.7,3.7,5,3.8,7.3
				c0.1,2.4-0.9,2.9-2.4,3.3c-1.4,0.3-5.4-0.1-7.3-0.8c-1.9-0.7-6.6-3.5-7-3.8c-0.4-0.3-2.6-9.1-3.4-10.4c-0.8-1.2-3.8-6.5-4.9-7.9
				c-1.1-1.4-1.4-2.9-1.6-4.1c-0.2-1.2-0.1-3,0.6-4.1C560.5,355.5,562.2,351.1,562.2,351.1z"/>
			<g>
				<path class="st60" d="M548.8,367.4c1.2,0,2.2,0.4,3,1.3c0.8,0.9,1.2,2.1,1.2,3.7c1.1-0.3,2.1-0.7,2.9-1.2
					c0.8-0.5,1.3-0.7,1.3-0.7c0.2,0,0.2,0.1,0.2,0.4c0,0.3-0.4,0.7-1.1,1.2c-0.8,0.6-1.9,1.1-3.4,1.7c-0.3,2.4-1.3,4.2-2.9,5.5
					c-1.6,1.3-3.2,1.9-4.8,1.9c-1.6,0-2.7-0.6-3.2-1.8c-0.5-1.2-0.8-3.1-0.8-5.6s0.2-5,0.6-7.3c0.4-2.3,0.9-4.1,1.4-5.4
					c0.6-1.3,1.2-2.3,1.8-3c0.6-0.7,1.2-1.1,1.8-1.1c0.3,0,0.5,0.3,0.7,1c0.2,0.6,0.3,1.4,0.3,2.4c0,2.1-0.4,4.4-1.1,7.2
					C547.4,367.5,548,367.4,548.8,367.4z M547,361.3c0-1.1-0.1-1.7-0.4-1.7c-0.2,0-0.5,0.6-0.9,1.7c-0.3,1.2-0.6,2.7-0.9,4.7
					c-0.3,2-0.4,3.9-0.4,5.9C546.1,366.9,547,363.4,547,361.3z M550.6,374.6c-0.2,0-0.7,0-1.3,0c-0.7,0-1.4-0.2-2.2-0.7
					c-0.8-0.5-1.4-1.1-1.7-1.9c-0.3,0.7-0.6,1.3-0.9,1.9c0.1,2,0.2,3.5,0.5,4.4c0.3,0.9,0.7,1.3,1.3,1.3c0.9,0,1.8-0.4,2.7-1.2
					C549.8,377.6,550.3,376.3,550.6,374.6z M548.1,368.8c-0.4,0-0.7,0.1-0.9,0.3c-0.2,0.2-0.3,0.5-0.3,0.9c0,0.8,0.4,1.5,1.1,2.1
					c0.7,0.5,1.6,0.8,2.7,0.8c0-1.1-0.2-2-0.6-2.9C549.6,369.3,549,368.8,548.1,368.8z"/>
			</g>
			<path class="st59" d="M557.4,380c-1.3,0.1-2.4,0.1-3.2,0.1c-1,0-3-0.3-3.4-0.4c-0.6-0.2-1.4-0.9-1.8-1.5c-0.3-0.6,0-1.7,0-1.7
				s-0.7-0.3-1.1-0.7c-0.4-0.4-0.6-1.4-0.6-2.1c0-0.7,0.7-1.4,0.7-1.4s-0.4-0.1-0.8-0.4c-0.3-0.2-0.6-0.4-0.7-0.6
				c-0.4-0.6-0.5-2-0.3-2.8c0.3-0.8,0.5-1.1,0.5-1.1c-0.2-0.1-0.4-0.2-0.5-0.3c-0.6-0.5-0.4-1.9-0.4-2.2c0.1-1.8,0.8-1.9,1.2-2.3
				c0.3-0.3,3.1-1.1,3.8-1.1c0.6,0,6.9-0.8,6.9-0.8s0.5-0.1,0.3-0.6c-0.7-2.4-1.8-5.1-1.3-6.9c0.5-1.8,1.4-3.6,2.8-4.2
				c0.6-0.2,4.6,0.2,4,1.4c-0.5,1.2-2,4.7-1.6,7.1c0.2,1.1,2,4.3,2.2,4.4c1.9,1.8,2.7,3.1,4,5.2c1.4,2.1,4,4.6,4.1,4.8
				c0.1,0.1,0.4,3.6-0.4,5.8c-0.8,2.3-3.4,3.6-3.9,3.6c-0.5,0-2.2-1.5-2.8-1.9c-0.6-0.5-0.7-0.6-0.7-0.6"/>
			<g>
				<defs>
					<path id="SVGID_89_" d="M557.4,380c-1.3,0.1-2.4,0.1-3.2,0.1c-1,0-3-0.3-3.4-0.4c-0.6-0.2-1.4-0.9-1.8-1.5
						c-0.3-0.6,0-1.7,0-1.7s-0.7-0.3-1.1-0.7c-0.4-0.4-0.6-1.4-0.6-2.1c0-0.7,0.7-1.4,0.7-1.4s-0.4-0.1-0.8-0.4
						c-0.3-0.2-0.6-0.4-0.7-0.6c-0.4-0.6-0.5-2-0.3-2.8c0.3-0.8,0.5-1.1,0.5-1.1c-0.2-0.1-0.4-0.2-0.5-0.3c-0.6-0.5-0.4-1.9-0.4-2.2
						c0.1-1.8,0.8-1.9,1.2-2.3c0.3-0.3,3.1-1.1,3.8-1.1c0.6,0,6.9-0.8,6.9-0.8s0.5-0.1,0.3-0.6c-0.7-2.4-1.8-5.1-1.3-6.9
						c0.5-1.8,1.4-3.6,2.8-4.2c0.6-0.2,4.6,0.2,4,1.4c-0.5,1.2-2,4.7-1.6,7.1c0.2,1.1,2,4.3,2.2,4.4c1.9,1.8,2.7,3.1,4,5.2
						c1.4,2.1,4,4.6,4.1,4.8c0.1,0.1,0.4,3.6-0.4,5.8c-0.8,2.3-3.4,3.6-3.9,3.6c-0.5,0-2.2-1.5-2.8-1.9c-0.6-0.5-0.7-0.6-0.7-0.6"/>
				</defs>
				<clipPath id="SVGID_90_">
					<use xlink:href="#SVGID_89_"  style="overflow:visible;"/>
				</clipPath>
				<path class="st72" d="M545,346.7l22.8,37.5l13-19.5C580.8,364.7,576.4,343.8,545,346.7z"/>
			</g>
			<g>
				<path class="st59" d="M517.8,308.3c0,0-3-4.5-6.7-1.6c-3.8,2.9-0.2,6.4,1.5,8c1.7,1.5,1.8,4.4,4.6,4.1c2.8-0.3,3.7-3,3.7-3
					L517.8,308.3z"/>
				<path class="st70" d="M517.8,308.3c0,0-3-4.5-6.7-1.6c-3.8,2.9-0.2,6.4,1.5,8c1.7,1.5,1.8,4.4,4.6,4.1c2.8-0.3,3.7-3,3.7-3
					L517.8,308.3z"/>
			</g>
			<g>
				<defs>
					<path id="SVGID_91_" d="M572.7,289.4L572.7,289.4c0-0.1,0-0.2,0-0.2c0-15.6-12.7-28.3-28.3-28.3c-15.6,0-28.3,12.7-28.3,28.3
						c0,0.1,0,0.2,0,0.2h0c0,0,0.4,23.1,2,31.2c1.6,8.3,17.3,22.2,27,22.4c1.7,0-1-0.1,2.3,0c10,0.2,22.9-16.6,24.3-23.1
						C573.4,311.7,572.7,289.4,572.7,289.4z"/>
				</defs>
				<clipPath id="SVGID_92_">
					<use xlink:href="#SVGID_91_"  style="overflow:visible;"/>
				</clipPath>
				<rect x="500.4" y="252.1" class="st73" width="46.1" height="95.3"/>
			</g>
			<g>
				<defs>
					<path id="SVGID_93_" d="M576.2,302.4c0,0,1.1-11.7-2.4-20.1c0,0-5.6-18.7-23.8-21.3c0,0-11.8-3.7-26.2,7.7
						c0,0-6.2,5.7-9.3,13.6c0,0-0.9,3.1-0.5,4.5c0,0-0.2,0.2-0.4,0.7c-5.4,8.9-1.2,18.5-1.2,18.5c2.7-1.1,4.4,1.3,4.4,1.3l2.3,1.6
						c-1-2.4-1.3-12.7-1.3-13.8c0.1-0.6,0.2-1,0.2-1c15,10.3,53.7,3.2,53.7,3.2c0.2,0.3,0.4,0.6,0.5,0.9c0.3,1.6,1,6.8-0.1,9.1
						l2.3-1.2c0,0,1-0.4,2-0.3C576.1,305.8,576.2,302.4,576.2,302.4z"/>
				</defs>
				<clipPath id="SVGID_94_">
					<use xlink:href="#SVGID_93_"  style="overflow:visible;"/>
				</clipPath>
			</g>
			<path class="st74" d="M541.9,319c0,0,5.3,2.5,8.8-0.3"/>
			<path class="st75" d="M533.9,409.6c0,0-0.5,0.8-0.2,2.6c0,0-0.1,2.9,13.3,3.2c14,0.4,13.3-3.6,13.3-3.6s0.6-0.8,0.3-1.6
				c0,0-5.8,2.4-14.2,2.2C537.9,412.1,533.9,409.6,533.9,409.6z"/>
			<g>
				<g>
					<path class="st76" d="M548.2,412l-2.4,0c-1,0-1.9,0.8-1.9,1.9s0.8,1.9,1.9,1.9l2.4,0c1,0,1.9-0.8,1.9-1.9S549.2,412,548.2,412z
						 M548.1,415l-2.4,0c-0.6,0-1-0.5-1-1.1c0-0.6,0.5-1,1.1-1l2.4,0c0.6,0,1,0.5,1,1.1h0C549.1,414.5,548.7,415,548.1,415z"/>
				</g>
				<g class="st77">
					<path class="st76" d="M548.2,412l-2.4,0c-1,0-1.9,0.8-1.9,1.9s0.8,1.9,1.9,1.9l2.4,0c1,0,1.9-0.8,1.9-1.9S549.2,412,548.2,412z
						 M548.1,415l-2.4,0c-0.6,0-1-0.5-1-1.1c0-0.6,0.5-1,1.1-1l2.4,0c0.6,0,1,0.5,1,1.1h0C549.1,414.5,548.7,415,548.1,415z"/>
				</g>
			</g>
			<g>
				<defs>
					<path id="SVGID_95_" d="M542.3,526.3c0,0-0.1,2.7,0,3.4c0.1,0.6-0.1,1.7-0.1,1.7s-0.6,1-1.3,1.2c-1.4,0.3-1,3-3.4,5.2
						c-1.7,1.5-4.2,2.7-8.1,2.4c-6.3-0.4-7.2-2-7.2-2s-0.1-0.3-0.1-0.8c0-0.1,0.1-0.2,0.1-0.3c-0.2-1.9-0.2-5.5,3.4-6.5
						c3.3-0.8,4.2-4.9,4.2-5.9C529.8,523.4,541.9,520.7,542.3,526.3z"/>
				</defs>
				<clipPath id="SVGID_96_">
					<use xlink:href="#SVGID_95_"  style="overflow:visible;"/>
				</clipPath>
				<path class="st78" d="M542.1,531.3l0.1-0.7c-0.4,0.4-1,1.1-1.4,1.2c-0.5,0.1-1.4,0.9-2.1,2.6c-0.7,1.7-4.3,6.7-16.7,2.6v0
					l-0.1,0.2l0.1,0.9l-0.6,0.6c0.2,0.1,4,3.3,10.8,2.1c6.9-1.2,8-5.2,8.1-6.3c0.1-0.7,0.9-1.4,1.5-1.8
					C541.8,532.1,542.1,531.3,542.1,531.3z"/>
			</g>
			<g>
				<defs>
					<path id="SVGID_97_" d="M533.9,409.6c0,0-0.5,0.8-0.2,2.6c0,0-0.1,2.9,13.3,3.2c14,0.4,13.3-3.6,13.3-3.6s0.6-0.8,0.3-1.6
						c0,0-5.8,2.4-14.2,2.2C537.9,412.1,533.9,409.6,533.9,409.6z"/>
				</defs>
				<clipPath id="SVGID_98_">
					<use xlink:href="#SVGID_97_"  style="overflow:visible;"/>
				</clipPath>
				<path class="st79" d="M557.9,411c0,0,0.1,3.4,0.1,3.5c0,0.1,0.6,0,0.6,0l0.2-3.8L557.9,411z"/>
				<path class="st79" d="M538.2,411.2c0,0-0.5,3.5-0.5,3.6c0,0.1-0.6-0.1-0.6-0.1l0.3-3.8L538.2,411.2z"/>
				<g class="st80">
					<path class="st81" d="M555.3,411.7c0,0,0.1,3.3,0.1,3.4c0,0.1,0.6,0,0.6,0l0.1-3.6L555.3,411.7z"/>
					<path class="st81" d="M535.8,410.4c0,0-0.5,3.3-0.5,3.4c0,0.1-0.6-0.1-0.6-0.1l0.3-3.7L535.8,410.4z"/>
				</g>
			</g>
			<g id="_x35__12_">
				<path class="st82" d="M572.7,273.9c-3.8-8.6-8.2-10.1-8.2-10.1s0.5-0.7,1.2-0.9c0.6-0.1-2,0.2-2,0.2l0.3-1.4l-1.4,1.1
					c0,0-4.5-1.8-11.5-2.4c-2.6-0.5-5.9-1.1-7.1-1.2c0,0,0.7,0.5,1.9,1c-2.2,0-4.5,0.2-7,0.6c-2-0.1-6.3-0.2-8.4,0.6
					c0,0,2.2,0,3.7,0.4c-1,0.3-2,0.6-3.1,0.9c-3.1,1-5.5,2.4-7.5,4c-1.7,0.7-3.2,1.6-3.9,2.5c0,0,0.7-0.2,1.7-0.5
					c-1.4,1.6-2.5,3.3-3.4,5.1c-1.1,1.6-3.1,5-3.5,8.2c0,0,0.9-1.4,1.8-2.9c-1,5-0.7,10.4-0.5,15c0.5,10.7,0.8,15.7,0.8,15.7
					s0.4,3.2,1.1,3.9c0,0,0.6-17.1,1.1-20.4c0.4-3.3,2-8.1,4.8-11.1c2.8-3,10.5-1.8,21.2-0.6c10.6,1.2,15.2-1.6,17.7-1.6
					s7,3.3,7.7,9.7c0.6,6.4,1.7,21.6,1.7,22.9c0,1.3,1.3-3.7,1.7-10C573.9,296.2,576,281.2,572.7,273.9z"/>
				<g>
					<defs>
						<path id="SVGID_99_" d="M572.7,273.9c-3.8-8.6-8.2-10.1-8.2-10.1s0.5-0.7,1.2-0.9c0.6-0.1-2,0.2-2,0.2l0.3-1.4l-1.4,1.1
							c0,0-4.5-1.8-11.5-2.4c-2.6-0.5-5.9-1.1-7.1-1.2c0,0,0.7,0.5,1.9,1c-2.2,0-4.5,0.2-7,0.6c-2-0.1-6.3-0.2-8.4,0.6
							c0,0,2.2,0,3.7,0.4c-1,0.3-2,0.6-3.1,0.9c-3.1,1-5.5,2.4-7.5,4c-1.7,0.7-3.2,1.6-3.9,2.5c0,0,0.7-0.2,1.7-0.5
							c-1.4,1.6-2.5,3.3-3.4,5.1c-1.1,1.6-3.1,5-3.5,8.2c0,0,0.9-1.4,1.8-2.9c-1,5-0.7,10.4-0.5,15c0.5,10.7,0.8,15.7,0.8,15.7
							s0.4,3.2,1.1,3.9c0,0,0.6-17.1,1.1-20.4c0.4-3.3,2-8.1,4.8-11.1c2.8-3,10.5-1.8,21.2-0.6c10.6,1.2,15.2-1.6,17.7-1.6
							s7,3.3,7.7,9.7c0.6,6.4,1.7,21.6,1.7,22.9c0,1.3,1.3-3.7,1.7-10C573.9,296.2,576,281.2,572.7,273.9z"/>
					</defs>
					<clipPath id="SVGID_100_">
						<use xlink:href="#SVGID_99_"  style="overflow:visible;"/>
					</clipPath>
					<path class="st83" d="M577,278.5c0,0-27.6-22.9-65.9,0v-19.4h67.5v1.1L577,278.5z"/>
				</g>
			</g>
			<path class="st84" d="M534.7,303.2c0,0,1-1.6-0.5-1.9c-1.5-0.3-9.4-0.7-11.4,0c-2,0.7-3.1,2.7-3.3,3.8c0,0,1.9-2.5,4-2.6
				C525.5,302.4,534,303.2,534.7,303.2z"/>
			<path class="st84" d="M554.3,303c0,0-1-1.6,0.5-1.9c1.5-0.3,9.4-0.7,11.4,0c2,0.7,3.1,2.7,3.3,3.8c0,0-1.9-2.5-4-2.6
				C563.4,302.3,554.9,303,554.3,303z"/>
			<ellipse class="st85" cx="527.9" cy="309.3" rx="3.3" ry="3.8"/>
			<ellipse class="st85" cx="561.7" cy="309.2" rx="3.3" ry="3.8"/>
			<g>
				<path class="st60" d="M561.6,393.9l-0.1-8c-9.8,1.4-19.8,1.4-29.6,0.1c0.2,1.4,0.3,3.5,0.4,6.5c0,0.5,0,1.1,0,1.6
					C542.1,395.2,552,395.1,561.6,393.9z"/>
			</g>
			<g>
				<path class="st60" d="M561.7,400.5l-0.1-5.6c-9.7,1.4-19.5,1.4-29.2,0.2c0,1.9,0,3.8,0,5.6C542.2,401.9,552,401.8,561.7,400.5z"
					/>
			</g>
			<g>
				<path class="st60" d="M560.9,405.2l-0.1-3.5c-9.2,1.4-18.6,1.5-27.7,0.2c0,1.3,0,2.5,0,3.5C542.3,406.6,551.7,406.6,560.9,405.2
					z"/>
			</g>
			<g>
				<path class="st63" d="M523.6,447.4c0,0,2.4-1.4,0.3-4c-2.1-2.6-1-0.8-1-0.8s-0.4-4-0.6-5.5s-2.8,1-3.2,2.6
					C518.7,441.3,522.4,446.8,523.6,447.4z"/>
				<path class="st64" d="M519.9,447.6c0.1,0,3,2.9,3,2.9s2-0.8,1.5-2.3c-0.4-1.6-1.3-2.7-2-3.4c-0.7-0.7-2.5-3.2-2.6-4
					c-0.1-0.8,1.7-2.3,1.5-3c-0.2-0.6-0.8-1.1-1.2-0.8c-0.3,0.3-1.2,3.1-1.3,3.6c0,0-1.3,1.3-1.5,1.4c-0.1,0.1,0,0.9,0.2,1.5
					c0.2,0.6,1,2.3,1,2.3"/>
				<path class="st65" d="M516.3,445.8c0.1,0.1,1.4,6.4,1.7,7c0.2-0.1,1.1,0.4,2.7-0.7c1.5-1.1,0.3-4.9-0.1-5.5
					c-0.4-0.6-1.9-4.5-1.9-4.9c0-0.4,0.2-1.4,0.3-1.8C519.1,439.3,516.3,445.8,516.3,445.8z"/>
				<path class="st59" d="M520.6,428.3c0,0-4,8.8-4.5,10.2c-0.6,1.4-2.4,5.3-3.3,6.8c-1.5,2.5-4.1,4.7-4,5.2c0.5,1,2.7,2.7,5.1,0.6
					c2.4-2.1,3.7-5.9,4.2-7c0.5-1.1,2.5-5.3,4-5.5c0,0,0.3,1.7,0.3,2.3c0,0.7,0.6,2.7,0.9,3.3c0.4,0.8,5.9,2.7,7.1,0.1
					c0,0,0-0.2-0.8-1.1c-0.8-0.8-1.8-2.1-2.1-3.1c-0.2-1-0.8-0.7-0.5-2.5c0.2-1.8,0.4-1.2,0-2.7c-0.4-1.5-1-2.4-0.9-3.6
					c0-1.3,0.2-2.9,0.2-3.4c0-0.5-0.7-1.3-1.1-1.5c-0.4-0.2-4.7,1.7-4.7,1.7"/>
				<g>
					<path class="st60" d="M529.5,353.1c-3.1,0.5-9.1,41-9,39c0.4-4.9-1.7,23.2-0.8,36.5c0,0,1.4,1.3,4.8,1.6
						c2.6,0.3,3.6-0.8,3.6-0.8s1.2-37.2,1.3-37.7c0.1-1,3.5-22.9,3.5-23.4C532.9,367.7,530.3,352.9,529.5,353.1z"/>
					<path class="st60" d="M528.3,429.4c0,0,0-1.1,0.1-2.9c-5,0.8-8-0.8-9.1-1.5c0,1.2,0.1,2.4,0.2,3.5c0,0,1.5,1.3,5.1,1.7
						C527.3,430.5,528.3,429.4,528.3,429.4z"/>
				</g>
			</g>
			<g>
				<path class="st86" d="M516.1,303.8c0,0-0.5,9.7,0.1,9.8c1.6,0.3,12,2.6,22.2,0c0,0,1.6-5,0.4-7.9c-0.3-0.7-0.9-2.4-2.4-3
					C531.3,300.8,520.5,301.1,516.1,303.8z"/>
				<path class="st86" d="M572,303.8c0,0,0.5,9.7-0.1,9.8c-1.6,0.3-12,2.6-22.1,0c0,0-1.6-5-0.4-7.9c0.3-0.7,0.9-2.4,2.4-3
					C556.9,300.8,567.7,301.1,572,303.8z"/>
				<path class="st87" d="M572.7,303.1c-0.4-0.7-5.4-2.1-12.8-2.1c-7.4,0-10.4,0.3-10.9,2.3c0,0-1.9-0.8-4.7-0.9v0c0,0,0,0,0,0
					c0,0,0,0,0,0v0c-2.9,0.1-4.7,0.9-4.7,0.9c-0.5-2-3.6-2.3-11-2.3c-7.4,0-12.5,1.4-12.9,2.1c-0.4,0.7,0.1,9.2,0.1,9.2
					s0.1,1.7,0.7,1.6c1.1-0.2-0.3-8.5,1.6-9.6c1.9-1,16.8-2.2,18.6-0.5c1.8,1.8,2.2,5.7,2.1,8.5c0,1.3-0.5,1.5-0.1,1.6
					c0.4,0.1,0.9-0.4,1.3-1.3c0.7-1.7,0.1-7.7,4.4-7.7c4.2,0,3.6,6,4.3,7.7c0.4,0.9,0.9,1.4,1.3,1.3c0.4-0.1-0.1-0.2-0.1-1.6
					c-0.1-2.8,0.3-6.7,2.1-8.5c1.8-1.8,16.6-0.6,18.5,0.5c1.9,1,0.6,9.4,1.6,9.6c0.6,0.1,0.7-1.6,0.7-1.6S573,303.8,572.7,303.1z"/>
			</g>
			<g>
				<path class="st86" d="M516.1,316.6c0,0-0.5-9.7,0.1-9.8c1.6-0.3,12-2.6,22.2,0c0,0,1.6,5,0.4,7.9c-0.3,0.7-0.9,2.4-2.4,3
					C531.3,319.6,520.5,319.3,516.1,316.6z"/>
				<path class="st86" d="M572,316.6c0,0,0.5-9.7-0.1-9.8c-1.6-0.3-12-2.6-22.1,0c0,0-1.6,5-0.4,7.9c0.3,0.7,0.9,2.4,2.4,3
					C556.9,319.6,567.7,319.3,572,316.6z"/>
				<path class="st87" d="M540.3,311.6v-0.9c0,0,0-0.1,0-0.1c-0.2-1.1-0.3-2.1-0.5-2.7c-0.4-0.9-0.9-1.4-1.3-1.3
					c-0.4,0.1,0.1,0.2,0.1,1.6c0.1,2.8-0.3,6.7-2.1,8.5c-1.8,1.8-16.7,0.6-18.6-0.5c-1.9-1-0.6-9.4-1.6-9.6
					c-0.6-0.1-0.7,1.6-0.7,1.6s-0.5,8.5-0.1,9.2c0.4,0.7,5.5,2.1,12.9,2.1c6.2,0,9.3-0.2,10.5-1.4c0-0.2,0-0.4,0.1-0.6
					c0.2-0.4,0.3-0.8,0.5-1.1c0.1-1.5,0.5-2.9,0.8-4.3C540.3,311.8,540.3,311.7,540.3,311.6z"/>
				<path class="st87" d="M572.6,308.2c0,0-0.1-1.7-0.7-1.6c-1.1,0.2,0.2,8.5-1.6,9.6c-1.9,1-16.7,2.2-18.5,0.5
					c-1.8-1.8-2.2-5.7-2.1-8.5c0-1.3,0.5-1.5,0.1-1.6c-0.4-0.1-0.9,0.4-1.3,1.3c-0.3,0.8-0.4,2.7-0.8,4.3c0,0.2,0.1,0.4,0.1,0.6
					c0,0.1,0,0.2,0,0.3c0,0.1,0,0.3,0,0.4c-0.1,0.7,0,0.9,0.1,1.5c0.1,0.4,0.2,0.9,0.3,1.3c0,0.1,0.1,0.2,0.1,0.2
					c0.1,0.2,0.2,0.4,0.3,0.6c0.2-0.1,0.3-0.1,0.3-0.1c0.5,2,3.5,2.3,10.9,2.3c7.4,0,12.5-1.4,12.8-2.1
					C573,316.7,572.6,308.2,572.6,308.2z"/>
			</g>
			<path class="st60" d="M550.8,343.3c0,0-0.1,0-0.2-0.1c0.1,0.1,0.2,0.3,0.2,0.4c0,0.7-2.3,1.3-5.2,1.3s-5.2-0.6-5.2-1.3
				c0-0.1,0.1-0.2,0.2-0.4c-0.1,0-0.1,0-0.2,0.1l-0.4,4.8c0,0,4,3.8,11,0L550.8,343.3z"/>
			<g>
				<defs>
					<path id="SVGID_101_" d="M553.6,327.4l-0.6,3c0,0-4.1,3.8-13.1,1.3c0,0-0.9-1.9-1-3.3C539,328.4,542,330,553.6,327.4z"/>
				</defs>
				<clipPath id="SVGID_102_">
					<use xlink:href="#SVGID_101_"  style="overflow:visible;"/>
				</clipPath>
				<path class="st88" d="M539,327.3l0.5,1.4c0,0,2.3,1.7,13.4,0.1v-2.1L539,327.3z"/>
			</g>
		</g>
		<line class="st57" x1="707.7" y1="455.2" x2="729.7" y2="455.2"/>
		<line class="st57" x1="744.7" y1="455.2" x2="760.1" y2="455.2"/>
		<line class="st57" x1="775" y1="455.2" x2="796.4" y2="455.2"/>
		<line class="st57" x1="810.3" y1="455.2" x2="846.1" y2="455.2"/>
		<line class="st57" x1="856" y1="455.2" x2="877.4" y2="455.2"/>
		<line class="st57" x1="891.3" y1="455.2" x2="927.1" y2="455.2"/>
		<line class="st57" x1="944.3" y1="455.2" x2="980.1" y2="455.2"/>
		<line class="st57" x1="707.7" y1="483.2" x2="743.7" y2="483.2"/>
		<line class="st57" x1="770.4" y1="483.2" x2="806.4" y2="483.2"/>
		<line class="st57" x1="821.1" y1="483.2" x2="881.1" y2="483.2"/>
		<line class="st57" x1="895.9" y1="483.2" x2="931.7" y2="483.2"/>
		<g>
			<path d="M722.1,266.7h-7.4v-21.4H708v-6.1h20.8v6.1h-6.7V266.7z"/>
			<path d="M745.7,266.7v-11.6c0-2.9-0.8-4.3-2.5-4.3c-1.2,0-2.1,0.5-2.7,1.5c-0.6,1-0.9,2.7-0.9,5v9.4h-7.4v-29.3h7.4v4.2
				c0,1.9-0.1,4-0.3,6.4h0.3c0.7-1.1,1.5-1.9,2.5-2.3c1-0.5,2.1-0.7,3.4-0.7c2.4,0,4.2,0.7,5.6,2.1c1.3,1.4,2,3.3,2,5.8v13.9H745.7z
				"/>
			<path d="M768.4,267.1c-3.5,0-6.3-0.9-8.3-2.8c-2-1.9-2.9-4.6-2.9-8.1c0-3.6,0.9-6.4,2.7-8.3c1.8-1.9,4.4-2.9,7.8-2.9
				c3.2,0,5.7,0.8,7.4,2.5s2.6,4.1,2.6,7.2v3.3h-13.1c0.1,1.2,0.5,2.1,1.3,2.8c0.8,0.7,1.9,1,3.4,1c1.3,0,2.5-0.1,3.6-0.4
				c1.1-0.2,2.3-0.7,3.5-1.3v5.3c-1.2,0.6-2.3,1-3.6,1.2S770.1,267.1,768.4,267.1z M768,250c-0.9,0-1.6,0.3-2.2,0.8
				c-0.6,0.5-0.9,1.4-1,2.6h6.3c0-1-0.3-1.8-0.9-2.5C769.7,250.3,768.9,250,768,250z"/>
			<path d="M792.4,239.2h9.6c3.7,0,6.5,0.6,8.3,1.7s2.7,2.8,2.7,5.2c0,1.5-0.4,2.9-1.2,3.9c-0.8,1.1-1.8,1.8-3.1,2.1v0.2
				c1.7,0.5,2.9,1.2,3.7,2.3c0.8,1.1,1.1,2.4,1.1,4.1c0,2.5-0.9,4.5-2.8,5.9s-4.4,2.2-7.7,2.2h-10.7V239.2z M799.8,249.7h2.2
				c1.1,0,1.9-0.2,2.5-0.7s0.9-1.1,0.9-2c0-1.5-1.2-2.3-3.5-2.3h-2.1V249.7z M799.8,255.2v5.8h2.6c2.3,0,3.5-1,3.5-2.9
				c0-0.9-0.3-1.6-0.9-2.1c-0.6-0.5-1.5-0.7-2.7-0.7H799.8z"/>
			<path d="M828.2,267.1c-3.5,0-6.3-0.9-8.3-2.8s-2.9-4.6-2.9-8.1c0-3.6,0.9-6.4,2.7-8.3c1.8-1.9,4.4-2.9,7.8-2.9
				c3.2,0,5.7,0.8,7.4,2.5c1.7,1.7,2.6,4.1,2.6,7.2v3.3h-13.1c0.1,1.2,0.5,2.1,1.3,2.8c0.8,0.7,1.9,1,3.4,1c1.3,0,2.5-0.1,3.6-0.4
				c1.1-0.2,2.3-0.7,3.5-1.3v5.3c-1.2,0.6-2.3,1-3.6,1.2S829.9,267.1,828.2,267.1z M827.7,250c-0.9,0-1.6,0.3-2.2,0.8
				c-0.6,0.5-0.9,1.4-1,2.6h6.3c0-1-0.3-1.8-0.9-2.5C829.4,250.3,828.7,250,827.7,250z"/>
			<path d="M858.1,260.1c0,2.3-0.8,4-2.3,5.2c-1.6,1.2-3.8,1.7-6.7,1.7c-1.6,0-3-0.1-4.1-0.3c-1.2-0.2-2.4-0.5-3.6-0.9V260
				c1.1,0.5,2.4,0.9,3.8,1.2c1.4,0.3,2.6,0.5,3.6,0.5c1.6,0,2.4-0.4,2.4-1.1c0-0.4-0.2-0.7-0.7-1c-0.4-0.3-1.7-0.9-3.9-1.7
				c-2-0.8-3.3-1.7-4.1-2.7c-0.8-1-1.2-2.3-1.2-3.9c0-2,0.8-3.5,2.3-4.6s3.7-1.7,6.5-1.7c1.4,0,2.7,0.2,4,0.5s2.5,0.8,3.8,1.3
				l-2,4.7c-1-0.4-2-0.8-3.1-1.1s-2-0.5-2.7-0.5c-1.2,0-1.8,0.3-1.8,0.9c0,0.4,0.2,0.7,0.6,0.9s1.6,0.8,3.6,1.6
				c1.5,0.6,2.6,1.2,3.3,1.8c0.7,0.6,1.3,1.3,1.6,2.1C858,258,858.1,259,858.1,260.1z"/>
			<path d="M872.7,261.2c1,0,2.2-0.2,3.6-0.7v5.4c-1,0.4-1.9,0.7-2.8,0.9c-0.9,0.2-1.9,0.3-3.1,0.3c-2.5,0-4.2-0.6-5.3-1.8
				c-1.1-1.2-1.6-3.1-1.6-5.6v-8.8h-2.6v-3l3.3-2.3l1.9-4.5h4.8v4.3h5.2v5.5h-5.2v8.3C870.7,260.6,871.3,261.2,872.7,261.2z"/>
			<path d="M735.7,293.1c0,4.6-1.1,8.1-3.4,10.5c-2.3,2.4-5.6,3.6-10,3.6c-4.3,0-7.6-1.2-9.9-3.6c-2.3-2.4-3.5-5.9-3.5-10.6
				c0-4.6,1.1-8.1,3.4-10.5c2.3-2.4,5.6-3.6,10-3.6c4.4,0,7.7,1.2,9.9,3.6C734.6,285,735.7,288.5,735.7,293.1z M716.8,293.1
				c0,5.3,1.8,8,5.5,8c1.9,0,3.3-0.6,4.2-1.9c0.9-1.3,1.4-3.3,1.4-6c0-2.7-0.5-4.8-1.4-6.1c-0.9-1.3-2.3-2-4.1-2
				C718.7,285.1,716.8,287.7,716.8,293.1z"/>
			<path d="M755.4,306.9l-0.9-2.7h-0.4c-0.6,1-1.5,1.7-2.6,2.2s-2.4,0.8-3.9,0.8c-2.3,0-4.2-0.7-5.5-2c-1.3-1.4-2-3.3-2-5.8v-13.9
				h7.4v11.6c0,1.4,0.2,2.4,0.6,3.2c0.4,0.7,1,1.1,1.9,1.1c1.3,0,2.2-0.5,2.7-1.5c0.5-1,0.8-2.7,0.8-5v-9.3h7.4v21.3H755.4z"/>
			<path d="M776.5,301.5c1,0,2.2-0.2,3.6-0.7v5.4c-1,0.4-1.9,0.7-2.8,0.9c-0.9,0.2-1.9,0.3-3.1,0.3c-2.5,0-4.2-0.6-5.3-1.8
				c-1.1-1.2-1.6-3.1-1.6-5.6v-8.8h-2.6v-3l3.3-2.3l1.9-4.5h4.8v4.3h5.2v5.5h-5.2v8.3C774.5,300.8,775.2,301.5,776.5,301.5z"/>
			<path d="M796.8,291.1h-4.5v15.8h-7.4v-15.8h-2.8v-3.6l3-1.8v-0.4c0-2.8,0.6-4.8,1.7-6.1c1.1-1.2,3-1.8,5.5-1.8
				c1,0,1.9,0.1,2.8,0.2c0.9,0.2,1.9,0.4,3,0.8l-1.6,4.8c-0.9-0.3-1.8-0.4-2.7-0.4c-0.6,0-1,0.2-1.2,0.5s-0.4,0.9-0.4,1.7v0.6h4.5
				V291.1z M799.5,280.3c0-1.1,0.3-1.9,0.9-2.5c0.6-0.5,1.6-0.8,3-0.8s2.4,0.3,3,0.8c0.6,0.6,0.9,1.4,0.9,2.4c0,2.2-1.3,3.2-3.9,3.2
				C800.8,283.5,799.5,282.4,799.5,280.3z M807.1,306.9h-7.4v-21.3h7.4V306.9z"/>
			<path d="M822.6,301.5c1,0,2.2-0.2,3.6-0.7v5.4c-1,0.4-1.9,0.7-2.8,0.9c-0.9,0.2-1.9,0.3-3.1,0.3c-2.5,0-4.2-0.6-5.3-1.8
				c-1.1-1.2-1.6-3.1-1.6-5.6v-8.8h-2.6v-3l3.3-2.3l1.9-4.5h4.8v4.3h5.2v5.5h-5.2v8.3C820.6,300.8,821.3,301.5,822.6,301.5z"/>
			<path d="M829,303.8c0-1.2,0.3-2,1-2.7c0.7-0.6,1.7-0.9,3-0.9c1.2,0,2.2,0.3,2.9,0.9c0.7,0.6,1,1.5,1,2.7c0,1.1-0.3,2-1,2.6
				c-0.7,0.6-1.6,0.9-2.8,0.9c-1.2,0-2.2-0.3-2.9-0.9C829.3,305.8,829,304.9,829,303.8z"/>
			<path d="M840.1,303.8c0-1.2,0.3-2,1-2.7c0.7-0.6,1.7-0.9,3-0.9c1.2,0,2.2,0.3,2.9,0.9c0.7,0.6,1,1.5,1,2.7c0,1.1-0.3,2-1,2.6
				c-0.7,0.6-1.6,0.9-2.8,0.9c-1.2,0-2.2-0.3-2.9-0.9C840.5,305.8,840.1,304.9,840.1,303.8z"/>
			<path d="M851.2,303.8c0-1.2,0.3-2,1-2.7c0.7-0.6,1.7-0.9,3-0.9c1.2,0,2.2,0.3,2.9,0.9c0.7,0.6,1,1.5,1,2.7c0,1.1-0.3,2-1,2.6
				c-0.7,0.6-1.6,0.9-2.8,0.9c-1.2,0-2.2-0.3-2.9-0.9C851.6,305.8,851.2,304.9,851.2,303.8z"/>
			<path d="M880,306.9h-16.3v-27.5H880v6h-8.9v4.3h8.2v6h-8.2v5.2h8.9V306.9z"/>
			<path d="M900.3,279.4h8.3l-9,27.5h-8.7l-9-27.5h8.3l3.7,13.9c0.8,3.1,1.2,5.3,1.3,6.5c0.1-0.9,0.3-2,0.5-3.3s0.5-2.4,0.7-3.1
				L900.3,279.4z"/>
			<path d="M927.9,306.9h-16.3v-27.5h16.3v6H919v4.3h8.2v6H919v5.2h8.9V306.9z"/>
			<path d="M940.1,296.9v10h-7.4v-27.5h9c7.5,0,11.2,2.7,11.2,8.1c0,3.2-1.6,5.6-4.7,7.4l8,12h-8.4l-5.8-10H940.1z M940.1,291.3h1.4
				c2.6,0,3.9-1.1,3.9-3.4c0-1.9-1.3-2.8-3.8-2.8h-1.5V291.3z"/>
			<path d="M957.4,303.8c0-1.2,0.3-2,1-2.7c0.7-0.6,1.7-0.9,3-0.9c1.2,0,2.2,0.3,2.9,0.9c0.7,0.6,1,1.5,1,2.7c0,1.1-0.3,2-1,2.6
				c-0.7,0.6-1.6,0.9-2.8,0.9c-1.2,0-2.2-0.3-2.9-0.9C957.8,305.8,957.4,304.9,957.4,303.8z"/>
		</g>
	</g>
	<g>
		<g>
			<defs>
				<rect id="SVGID_103_" x="273.3" y="296.9" width="245.1" height="74.3"/>
			</defs>
			<clipPath id="SVGID_104_">
				<use xlink:href="#SVGID_103_"  style="overflow:visible;"/>
			</clipPath>
			<line class="st89" x1="516.9" y1="315" x2="341.4" y2="334"/>
		</g>
		<g>
			<g>
				<defs>
					<rect id="SVGID_105_" x="499.3" y="305.4" width="18.8" height="18.8"/>
				</defs>
				<clipPath id="SVGID_106_">
					<use xlink:href="#SVGID_105_"  style="overflow:visible;"/>
				</clipPath>
				<path class="st90" d="M508.7,324.2c5.2,0,9.4-4.2,9.4-9.4s-4.2-9.4-9.4-9.4c-5.2,0-9.4,4.2-9.4,9.4S503.5,324.2,508.7,324.2"/>
			</g>
			<polyline class="st91" points="506.4,315.7 508.4,318.5 511,311.1 			"/>
		</g>
		<g>
			<defs>
				<circle id="SVGID_107_" cx="310.4" cy="334" r="37.1"/>
			</defs>
			<clipPath id="SVGID_108_">
				<use xlink:href="#SVGID_107_"  style="overflow:visible;"/>
			</clipPath>
			
				<radialGradient id="SVGID_109_" cx="502.0432" cy="621.062" r="1" gradientTransform="matrix(37.1482 0 0 -37.1482 -18339.5488 23405.3105)" gradientUnits="userSpaceOnUse">
				<stop  offset="0" style="stop-color:#FFF200"/>
				<stop  offset="0.1019" style="stop-color:#EFE923"/>
				<stop  offset="0.2969" style="stop-color:#C8DB4C"/>
				<stop  offset="0.4882" style="stop-color:#A9D161"/>
				<stop  offset="0.6726" style="stop-color:#91CA6D"/>
				<stop  offset="0.8467" style="stop-color:#82C674"/>
				<stop  offset="1" style="stop-color:#7CC576"/>
			</radialGradient>
			<rect x="273.3" y="296.9" class="st92" width="74.3" height="74.3"/>
		</g>
		<g>
			<defs>
				<rect id="SVGID_110_" x="273.3" y="387.9" width="245.1" height="74.3"/>
			</defs>
			<clipPath id="SVGID_111_">
				<use xlink:href="#SVGID_110_"  style="overflow:visible;"/>
			</clipPath>
			<line class="st93" x1="516.9" y1="406" x2="341.4" y2="425"/>
		</g>
		<g>
			<g>
				<defs>
					<rect id="SVGID_112_" x="499.3" y="396.4" width="18.8" height="18.8"/>
				</defs>
				<clipPath id="SVGID_113_">
					<use xlink:href="#SVGID_112_"  style="overflow:visible;"/>
				</clipPath>
				<path class="st94" d="M508.7,415.2c5.2,0,9.4-4.2,9.4-9.4s-4.2-9.4-9.4-9.4c-5.2,0-9.4,4.2-9.4,9.4S503.5,415.2,508.7,415.2"/>
			</g>
			<polyline class="st91" points="506.4,406.7 508.4,409.5 511,402.1 			"/>
		</g>
		<g>
			<defs>
				<circle id="SVGID_114_" cx="310.4" cy="425" r="37.1"/>
			</defs>
			<clipPath id="SVGID_115_">
				<use xlink:href="#SVGID_114_"  style="overflow:visible;"/>
			</clipPath>
			
				<radialGradient id="SVGID_116_" cx="502.0432" cy="618.6124" r="1" gradientTransform="matrix(37.1482 0 0 -37.1482 -18339.5488 23405.3105)" gradientUnits="userSpaceOnUse">
				<stop  offset="0" style="stop-color:#FFF200"/>
				<stop  offset="0.1019" style="stop-color:#EFE923"/>
				<stop  offset="0.2969" style="stop-color:#C8DB4C"/>
				<stop  offset="0.4882" style="stop-color:#A9D161"/>
				<stop  offset="0.6726" style="stop-color:#91CA6D"/>
				<stop  offset="0.8467" style="stop-color:#82C674"/>
				<stop  offset="1" style="stop-color:#7CC576"/>
			</radialGradient>
			<rect x="273.3" y="387.9" class="st95" width="74.3" height="74.3"/>
		</g>
		<g>
			<defs>
				
					<rect id="SVGID_117_" x="573.1" y="397" transform="matrix(0.9634 -0.2681 0.2681 0.9634 -90.9253 202.385)" width="245.1" height="74.3"/>
			</defs>
			<clipPath id="SVGID_118_">
				<use xlink:href="#SVGID_117_"  style="overflow:visible;"/>
			</clipPath>
			<line class="st96" x1="573.9" y1="448.3" x2="748.1" y2="419.6"/>
		</g>
		<g>
			<g>
				<defs>
					<rect id="SVGID_119_" x="554.2" y="438" width="18.8" height="18.8"/>
				</defs>
				<clipPath id="SVGID_120_">
					<use xlink:href="#SVGID_119_"  style="overflow:visible;"/>
				</clipPath>
				<path class="st97" d="M563.6,456.8c5.2,0,9.4-4.2,9.4-9.4s-4.2-9.4-9.4-9.4s-9.4,4.2-9.4,9.4S558.4,456.8,563.6,456.8"/>
			</g>
			<polyline class="st91" points="561.3,448.3 563.3,451.2 565.9,443.7 			"/>
		</g>
		<g>
			<defs>
				<circle id="SVGID_121_" cx="783.4" cy="412.8" r="37.1"/>
			</defs>
			<clipPath id="SVGID_122_">
				<use xlink:href="#SVGID_121_"  style="overflow:visible;"/>
			</clipPath>
			
				<radialGradient id="SVGID_123_" cx="509.5775" cy="618.9405" r="1" gradientTransform="matrix(-37.1482 0 0 -37.1482 19713.2344 23405.3105)" gradientUnits="userSpaceOnUse">
				<stop  offset="0" style="stop-color:#FFF200"/>
				<stop  offset="0.1019" style="stop-color:#EFE923"/>
				<stop  offset="0.2969" style="stop-color:#C8DB4C"/>
				<stop  offset="0.4882" style="stop-color:#A9D161"/>
				<stop  offset="0.6726" style="stop-color:#91CA6D"/>
				<stop  offset="0.8467" style="stop-color:#82C674"/>
				<stop  offset="1" style="stop-color:#7CC576"/>
			</radialGradient>
			<rect x="746.2" y="375.7" class="st98" width="74.3" height="74.3"/>
		</g>
		<g>
			<defs>
				<rect id="SVGID_124_" x="280.8" y="318.5" width="59.3" height="31.1"/>
			</defs>
			<clipPath id="SVGID_125_">
				<use xlink:href="#SVGID_124_"  style="overflow:visible;"/>
			</clipPath>
			<g class="st99">
				<defs>
					<rect id="SVGID_126_" x="280.8" y="318.5" width="59.3" height="31.1"/>
				</defs>
				<clipPath id="SVGID_127_">
					<use xlink:href="#SVGID_126_"  style="overflow:visible;"/>
				</clipPath>
				<g class="st100">
					<g>
						<defs>
							<rect id="SVGID_128_" x="274.7" y="326.6" width="34.9" height="21.3"/>
						</defs>
						<clipPath id="SVGID_129_">
							<use xlink:href="#SVGID_128_"  style="overflow:visible;"/>
						</clipPath>
						<rect x="283.4" y="333.4" class="st101" width="17.4" height="13.5"/>
					</g>
				</g>
				<g class="st100">
					<g>
						<defs>
							<rect id="SVGID_130_" x="301.5" y="326.6" width="34.9" height="21.3"/>
						</defs>
						<clipPath id="SVGID_131_">
							<use xlink:href="#SVGID_130_"  style="overflow:visible;"/>
						</clipPath>
						<rect x="310.2" y="333.4" class="st102" width="17.4" height="13.5"/>
					</g>
				</g>
				<path class="st103" d="M284.6,335.3l14.5-13.1l-0.8-0.9l0.6,1.1l-0.1-0.2l0.1,0.2l-0.1-0.2l0.1,0.2c0,0,0.7-0.4,1.5-0.7
					c0.4-0.2,0.9-0.3,1.3-0.5c0.4-0.1,0.8-0.2,1.1-0.2c0.1,0,0.2,0,0.3,0l0,0l0,0l0.1-0.1L303,321l0,0l0.1-0.1L303,321l0,0l0,0l0,0
					l0,0l0,0c0,0,0,0,0,0.2l2.5-0.3c0-0.4-0.1-0.7-0.3-1.1c-0.3-0.5-0.7-0.9-1.2-1.1c-0.5-0.2-0.9-0.3-1.3-0.3
					c-0.6,0-1.2,0.1-1.8,0.3c-0.9,0.3-1.7,0.6-2.3,0.9c-0.6,0.3-1,0.5-1,0.5l-0.1,0.1l-14.6,13.2L284.6,335.3z"/>
				<path class="st103" d="M300,335.5L300,335.5c0,0,0.8-0.5,1.8-0.9c1.1-0.4,2.5-0.8,3.8-0.8c0.7,0,1.4,0.1,2,0.3
					c0.6,0.2,1.2,0.6,1.8,1.1l1.8-1.8c-0.8-0.8-1.8-1.4-2.7-1.7c-1-0.3-1.9-0.5-2.9-0.5c-1.9,0-3.6,0.5-4.8,1c-1.3,0.5-2.1,1-2.1,1
					L300,335.5z"/>
				<path class="st103" d="M297.6,348.3V347H286c-0.8,0-1.4-0.3-1.9-0.8c-0.5-0.5-0.8-1.2-0.8-1.9v-6.6c0-0.8,0.3-1.4,0.8-1.9
					c0.5-0.5,1.2-0.8,1.9-0.8h11.5c0.8,0,1.4,0.3,1.9,0.8c0.5,0.5,0.8,1.2,0.8,1.9v6.6c0,0.8-0.3,1.4-0.8,1.9
					c-0.5,0.5-1.2,0.8-1.9,0.8V348.3v1.3c2.9,0,5.3-2.4,5.3-5.3v-6.6c0-2.9-2.4-5.3-5.3-5.3H286c-2.9,0-5.3,2.4-5.3,5.3v6.6
					c0,1.5,0.6,2.8,1.5,3.7c0.9,1,2.3,1.5,3.7,1.5h11.5V348.3z"/>
				<path class="st103" d="M324.7,348.3V347h-11.5c-0.8,0-1.4-0.3-1.9-0.8c-0.5-0.5-0.8-1.2-0.8-1.9v-6.6c0-0.8,0.3-1.4,0.8-1.9
					c0.5-0.5,1.2-0.8,1.9-0.8h11.5c0.8,0,1.4,0.3,1.9,0.8c0.5,0.5,0.8,1.2,0.8,1.9v6.6c0,0.8-0.3,1.4-0.8,1.9
					c-0.5,0.5-1.2,0.8-1.9,0.8V348.3v1.3c2.9,0,5.3-2.4,5.3-5.3v-6.6c0-2.9-2.4-5.3-5.3-5.3h-11.5c-2.9,0-5.3,2.4-5.3,5.3v6.6
					c0,1.5,0.6,2.8,1.5,3.7c0.9,1,2.3,1.5,3.7,1.5h11.5V348.3z"/>
				<path class="st103" d="M328.9,335.1l7.6-11.2l-1-0.7l0.8,1l-0.1-0.2l0.1,0.2l0,0l-0.1-0.2l0.1,0.2c0,0,0.4-0.3,0.8-0.5
					c0.2-0.1,0.4-0.2,0.6-0.3c0.2-0.1,0.3-0.1,0.3-0.1V323l-0.1,0.3c0.1,0,0.1,0,0.1,0V323l-0.1,0.3l0.2-0.5l-0.4,0.3
					c0,0.1,0.2,0.2,0.3,0.2l0.2-0.5l-0.4,0.3l0.2-0.2l-0.3,0.1l0,0l0.2-0.2l-0.3,0.1l0.1,0l-0.1,0l0,0l0.1,0l-0.1,0c0,0,0,0,0,0.1
					l2.5-0.3c0-0.3-0.1-0.6-0.2-0.8c-0.2-0.4-0.5-0.8-0.8-1c-0.4-0.2-0.8-0.3-1.1-0.3c-0.5,0-0.9,0.1-1.3,0.3
					c-0.6,0.2-1,0.5-1.4,0.8c-0.4,0.2-0.6,0.4-0.6,0.5l-0.1,0.1l-7.7,11.3L328.9,335.1z"/>
			</g>
			<line class="st104" x1="286" y1="340.9" x2="291.2" y2="337.8"/>
			<line class="st104" x1="290" y1="342.7" x2="295.2" y2="339.5"/>
			<line class="st104" x1="313.2" y1="342.7" x2="318.4" y2="339.5"/>
			<line class="st104" x1="319.4" y1="343" x2="324.7" y2="339.8"/>
		</g>
		<g>
			<g>
				<defs>
					<path id="SVGID_132_" d="M321.1,404.2l-8.9-3.9l-6.1,1.1c0,0-5.1,2.8-6.3,4.1c0,0,0,0,0,0c-1.9,1.6,1.3,10.2,1.4,15.3
						c0.4,7.1,1.3,19.9,1.3,19.9s0.3,2.2,8.5,2.3s7.7-1.3,7.7-1.3c1.3-1.3,1.3-20.8,1.4-26C320.2,410,321.1,404.2,321.1,404.2z"/>
				</defs>
				<clipPath id="SVGID_133_">
					<use xlink:href="#SVGID_132_"  style="overflow:visible;"/>
				</clipPath>
				<rect x="296.8" y="397.9" class="st105" width="26.7" height="47.6"/>
			</g>
			<g>
				<defs>
					<path id="SVGID_134_" d="M311,414.7c-0.2,0-0.4,0-0.6,0.2c-0.1,0.1-0.2,0.3-0.2,0.5c0,0.5,0.2,0.9,0.7,1.3
						c0.5,0.3,1,0.5,1.7,0.5c0-0.7-0.1-1.3-0.4-1.7C312,414.9,311.6,414.7,311,414.7z M312.6,418.2h-0.8c-0.4,0-0.9-0.1-1.4-0.4
						c-0.5-0.3-0.9-0.7-1.1-1.2c-0.1,0.4-0.3,0.8-0.6,1.2c0,1.3,0.1,2.1,0.3,2.7c0.1,0.5,0.4,0.8,0.8,0.8c0.6,0,1.2-0.2,1.7-0.7
						C312.1,420.1,312.4,419.3,312.6,418.2z M310.3,410c0-0.7-0.1-1-0.3-1c-0.1,0-0.3,0.3-0.5,1.1c-0.2,0.7-0.4,1.7-0.6,2.9
						c-0.2,1.2-0.2,2.4-0.2,3.6C309.8,413.5,310.3,411.3,310.3,410z M311.4,413.8c0.8,0,1.4,0.3,1.9,0.8c0.5,0.5,0.8,1.3,0.8,2.3
						c0.7-0.2,1.3-0.4,1.8-0.7c0.5-0.3,0.8-0.4,0.8-0.4c0.1,0,0.1,0.1,0.1,0.2c0,0.1-0.2,0.4-0.7,0.8c-0.5,0.3-1.2,0.7-2.1,1
						c-0.2,1.5-0.8,2.6-1.8,3.4c-1,0.8-2,1.2-3,1.2c-1,0-1.7-0.4-2-1.1s-0.5-1.9-0.5-3.4s0.1-3.1,0.3-4.5c0.2-1.4,0.5-2.5,0.9-3.3
						c0.4-0.8,0.8-1.5,1.2-1.8c0.4-0.4,0.8-0.6,1.1-0.6c0.1,0,0.3,0.2,0.5,0.6c0.1,0.4,0.2,0.9,0.2,1.5c0,1.3-0.2,2.7-0.7,4.4
						C310.5,413.9,310.9,413.8,311.4,413.8z"/>
				</defs>
				<clipPath id="SVGID_135_">
					<use xlink:href="#SVGID_134_"  style="overflow:visible;"/>
				</clipPath>
				<rect x="304.3" y="405.1" class="st106" width="15" height="19.7"/>
			</g>
			<g>
				<defs>
					<path id="SVGID_136_" d="M320.1,433.7l0-3.4c-6.1,0.9-12.4,0.9-18.5,0.1c0,1.2,0,2.3,0,3.4C307.8,434.5,314,434.5,320.1,433.7z
						"/>
				</defs>
				<clipPath id="SVGID_137_">
					<use xlink:href="#SVGID_136_"  style="overflow:visible;"/>
				</clipPath>
				<rect x="299.1" y="427.8" class="st107" width="23.4" height="8.9"/>
			</g>
			<g>
				<defs>
					<path id="SVGID_138_" d="M320.2,429.4l-0.1-4.9c-6.2,0.9-12.5,0.9-18.7,0c0.1,0.9,0.2,2.1,0.3,4c0,0.3,0,0.7,0,1
						C307.9,430.2,314.1,430.2,320.2,429.4z"/>
				</defs>
				<clipPath id="SVGID_139_">
					<use xlink:href="#SVGID_138_"  style="overflow:visible;"/>
				</clipPath>
				<rect x="299.1" y="422" class="st108" width="23.6" height="10.4"/>
			</g>
			<g>
				<defs>
					<path id="SVGID_140_" d="M319.8,436.4l0-2.2c-5.8,0.9-11.7,0.9-17.5,0.1v2.2C308,437.2,313.9,437.2,319.8,436.4z"/>
				</defs>
				<clipPath id="SVGID_141_">
					<use xlink:href="#SVGID_140_"  style="overflow:visible;"/>
				</clipPath>
				<rect x="299.8" y="431.8" class="st109" width="22.4" height="7.7"/>
			</g>
			<g>
				<defs>
					<path id="SVGID_142_" d="M299.9,405.3c-2,0.3-5.8,25.2-5.7,24c0.2-3.1-1.1,14.3-0.5,22.4c0,0,0.9,0.8,3.1,1
						c1.6,0.1,2.3-0.5,2.3-0.5s0.8-22.8,0.8-23.2c0.1-0.6,2.2-14.1,2.2-14.4C302.1,414.3,300.5,405.2,299.9,405.3z"/>
				</defs>
				<clipPath id="SVGID_143_">
					<use xlink:href="#SVGID_142_"  style="overflow:visible;"/>
				</clipPath>
				<rect x="291.2" y="402.8" class="st110" width="13.4" height="52.2"/>
			</g>
			<g>
				<defs>
					<path id="SVGID_144_" d="M299.2,452.2c0,0,0-0.7,0-1.7c-3.2,0.5-5.1-0.5-5.7-0.9c0,0.8,0,1.5,0.1,2.1c0,0,1,0.8,3.2,1
						C298.6,452.9,299.2,452.2,299.2,452.2z"/>
				</defs>
				<clipPath id="SVGID_145_">
					<use xlink:href="#SVGID_144_"  style="overflow:visible;"/>
				</clipPath>
				<rect x="291.1" y="447.1" class="st111" width="10.6" height="8"/>
			</g>
			<g>
				<defs>
					<path id="SVGID_146_" d="M320.9,404.8c2,0.3,5.8,25.2,5.7,24c-0.2-3.1,1.1,14.3,0.5,22.4c0,0-0.9,0.8-3.1,1
						c-1.6,0.1-2.3-0.5-2.3-0.5s-0.8-22.8-0.8-23.2c-0.1-0.6-2.2-14.1-2.2-14.4C318.7,413.8,320.4,404.7,320.9,404.8z"/>
				</defs>
				<clipPath id="SVGID_147_">
					<use xlink:href="#SVGID_146_"  style="overflow:visible;"/>
				</clipPath>
				<rect x="316.3" y="402.4" class="st112" width="13.4" height="52.2"/>
			</g>
			<g>
				<defs>
					<path id="SVGID_148_" d="M321.7,451.7c0,0,0-0.7,0-1.7c3.2,0.5,5.1-0.5,5.7-0.9c0,0.8,0,1.5-0.1,2.1c0,0-1,0.8-3.2,1
						C322.3,452.4,321.7,451.7,321.7,451.7z"/>
				</defs>
				<clipPath id="SVGID_149_">
					<use xlink:href="#SVGID_148_"  style="overflow:visible;"/>
				</clipPath>
				<rect x="319.2" y="446.7" class="st113" width="10.6" height="8"/>
			</g>
			<g>
				<defs>
					<path id="SVGID_150_" d="M313.4,398.3c0,0,0,0-0.1,0c0.1,0.1,0.1,0.1,0.1,0.2c0,0.4-1.5,0.8-3.3,0.8s-3.3-0.4-3.3-0.8
						c0-0.1,0-0.1,0.1-0.2c0,0-0.1,0-0.1,0l-0.2,2.9c0,0,2.6,2.3,6.9,0L313.4,398.3z"/>
				</defs>
				<clipPath id="SVGID_151_">
					<use xlink:href="#SVGID_150_"  style="overflow:visible;"/>
				</clipPath>
				<rect x="304.2" y="395.8" class="st114" width="11.8" height="8.8"/>
			</g>
		</g>
		<g>
			<path class="st22" d="M778.9,384.7h-4.5l-0.5,12c0.2-0.1,0.3-0.2,0.5-0.4C777.5,393.8,779,389.9,778.9,384.7z"/>
			<path class="st22" d="M792.8,396.4c0.1,0.1,0.3,0.2,0.4,0.3l-0.8-12h-4C788.2,389.9,789.7,393.8,792.8,396.4z"/>
			<g>
				<path class="st22" d="M793.2,401l0.1-3.7c-0.2-0.2-0.4-0.3-0.6-0.5c-2.2-1.8-4.8-5.4-4.6-12.1h-8.8c0.1,6.6-2.4,10.2-4.6,12
					c-0.2,0.2-0.4,0.3-0.7,0.5l0.2,4.4l0.3,19.2l-0.5,20.8l5.6,0.1l1.6-21.1l3-23.4l3.3,23.6l2.1,20.8l5.7,0.1l-1.8-21.6L793.2,401z
					 M784.9,396.9c0,0.1,0,0.1-0.1,0.2c0,0,0,0-0.1,0c-0.2,0-0.6-0.1-1.1-0.7c-1.1-1.5-1.2-4.8-1-7.3c0-0.1,0.1-0.1,0.1-0.1h2.1
					c0.1,0,0.1,0.1,0.1,0.2V396.9z"/>
				<path class="st22" d="M783.7,396.2c0.4,0.5,0.7,0.6,0.9,0.6v-7.5h-1.8C782.6,393.6,783.2,395.4,783.7,396.2z"/>
			</g>
			<path class="st23" d="M792.5,386.5h-18c-0.1,0-0.1,0.1-0.1,0.2c0,0.1,0,0.2,0.1,0.2h18c0.1,0,0.1-0.1,0.1-0.2
				C792.6,386.6,792.5,386.5,792.5,386.5z"/>
		</g>
	</g>
</g>
<polygon class="st115" points="783.2,716.2 747.4,778.2 711.6,716.2 "/>
</svg>
