<?xml version="1.0" encoding="utf-8"?>
<!-- Generator: Adobe Illustrator 19.1.0, SVG Export Plug-In . SVG Version: 6.00 Build 0)  -->
<!DOCTYPE svg PUBLIC "-//W3C//DTD SVG 1.1//EN" "http://www.w3.org/Graphics/SVG/1.1/DTD/svg11.dtd">
<svg version="1.1" id="Layer_1" xmlns="http://www.w3.org/2000/svg" xmlns:xlink="http://www.w3.org/1999/xlink" x="0px" y="0px"
	 viewBox="0 0 1000 1000" style="enable-background:new 0 0 1000 1000;" xml:space="preserve">
<style type="text/css">
	.st0{fill:#AEB5BA;}
	.st1{fill:#F1AE59;}
	.st2{fill:#DBDEE1;}
	.st3{fill:#FFE287;}
	.st4{fill:#FFFFFF;}
	.st5{fill:#C5C8CC;}
</style>
<g>
	<g>
		<path class="st0" d="M521.5,147.4c-66.7,0-120.8,65.2-120.8,145.6H421c0-66.6,45.3-121,100.5-121c55.1,0,100.4,54.3,100.4,121
			h20.7C642.6,212.6,588.4,147.4,521.5,147.4z"/>
	</g>
	<polygon class="st1" points="767.3,747.1 259.2,747.1 259.2,233.7 784.8,233.7 	"/>
	<polygon class="st2" points="215.2,291.1 384.6,266 259.2,233.7 259.2,804.6 215.2,804.6 	"/>
	<polygon class="st3" points="384.6,266 384.6,808.2 215.2,804.6 215.2,291.1 	"/>
	<polygon class="st2" points="753.6,291.1 583.9,266 784.8,233.7 771.3,747.5 753.6,747.5 	"/>
	<polygon class="st3" points="583.9,266 583.9,808.2 753.6,804.6 753.6,291.1 	"/>
	<rect x="215.2" y="291.1" class="st4" width="540.1" height="517.1"/>
	<g>
		<path class="st5" d="M485.1,178.4c-66.7,0-120.8,65.2-120.8,145.6h20.4c0-66.6,45.3-121,100.5-121c55.1,0,100.4,54.3,100.4,121
			h20.7C606.2,243.6,552,178.4,485.1,178.4z"/>
	</g>
</g>
<image style="overflow:visible;" width="800" height="220" xlink:href="../../../../../../Dropbox/AIM HIGH AGENCY/CLIENTS/BringHub/Projects/Board Meeting/BRINGHUB_board meeting_DECK Folder/Links/barneys logo.png"  transform="matrix(0.3059 0 0 0.3059 244.7777 713.489)">
</image>
<image style="overflow:visible;" width="425" height="425" xlink:href="../../../../../../Dropbox/AIM HIGH AGENCY/CLIENTS/BringHub/Projects/Board Meeting/BRINGHUB_board meeting_DECK Folder/Links/gap logo.jpg"  transform="matrix(0.3164 0 0 0.3164 573.6573 631.0305)">
</image>
<image style="overflow:visible;" width="1889" height="681" xlink:href="../../../../../../Dropbox/AIM HIGH AGENCY/CLIENTS/BringHub/Projects/Board Meeting/BRINGHUB_board meeting_DECK Folder/Links/Nordstrom-Logo.jpg"  transform="matrix(0.1329 0 0 0.1329 478.1196 551.6505)">
</image>
<image style="overflow:visible;" width="425" height="210" xlink:href="../../../../../../Dropbox/AIM HIGH AGENCY/CLIENTS/BringHub/Projects/Board Meeting/BRINGHUB_board meeting_DECK Folder/Links/rayban_logo.jpg"  transform="matrix(0.4238 0 0 0.4238 257.7237 592.6653)">
</image>
<image style="overflow:visible;" width="425" height="317" xlink:href="../../../../../../Dropbox/AIM HIGH AGENCY/CLIENTS/BringHub/Projects/Board Meeting/BRINGHUB_board meeting_DECK Folder/Links/saks-fifth-avenue-logo.jpg"  transform="matrix(0.4384 0 0 0.3959 254.622 448.0305)">
</image>
<image style="overflow:visible;" width="1020" height="680" xlink:href="../../../../../../Dropbox/AIM HIGH AGENCY/CLIENTS/BringHub/Projects/Board Meeting/BRINGHUB_board meeting_DECK Folder/Links/sephora logo copy.png"  transform="matrix(0.1866 0 0 0.1866 508.8524 460.5769)">
</image>
<image style="overflow:visible;" width="5614" height="1231" xlink:href="../../../../../../Dropbox/AIM HIGH AGENCY/CLIENTS/BringHub/Projects/Board Meeting/BRINGHUB_board meeting_DECK Folder/Links/topshop logo.png"  transform="matrix(3.371721e-02 0 0 3.371721e-02 508.8524 427.3905)">
</image>
<image style="overflow:visible;" width="590" height="263" xlink:href="../../../../../../Dropbox/AIM HIGH AGENCY/CLIENTS/BringHub/Projects/Board Meeting/BRINGHUB_board meeting_DECK Folder/Links/Zappos_Logo_1.jpg"  transform="matrix(0.2678 0 0 0.2678 254.622 359.0769)">
</image>
<image style="overflow:visible;" width="2000" height="504" xlink:href="../../../../../../Dropbox/AIM HIGH AGENCY/CLIENTS/BringHub/Projects/Board Meeting/BRINGHUB_board meeting_DECK Folder/Links/zara logo.png"  transform="matrix(9.464420e-02 0 0 9.464420e-02 508.8524 354.5305)">
</image>
</svg>
