<?xml version="1.0" encoding="utf-8"?>
<!-- Generator: Adobe Illustrator 19.1.0, SVG Export Plug-In . SVG Version: 6.00 Build 0)  -->
<!DOCTYPE svg PUBLIC "-//W3C//DTD SVG 1.1//EN" "http://www.w3.org/Graphics/SVG/1.1/DTD/svg11.dtd">
<svg version="1.1" id="Layer_1" xmlns="http://www.w3.org/2000/svg" xmlns:xlink="http://www.w3.org/1999/xlink" x="0px" y="0px"
	 viewBox="0 0 984 381" style="enable-background:new 0 0 984 381;" xml:space="preserve">
<style type="text/css">
	.st0{fill:#FFFFFF;}
	.st1{fill:#81B2D3;}
</style>
<g>
	<path class="st0" d="M265,134.3c0-17.4,11.7-33.4,28.3-38.6c2-0.6,4.1-1.1,6.2-1.4s4.7-0.8,6.8-0.3c3.8,0.6,5.9,5,3.5,8.1
		c-1.1,1.4-2.7,2.1-4.4,2.1c-2.4,0.2-4.7,0.3-6.9,0.9c-4.2,1.1-8.1,3-11.4,5.6c-6.8,5.3-11.1,13.4-11.6,21.9c-0.2,2.6,0,5.1,0,7.7
		c0,8.9,0,17.9,0,26.7c0,1.1,0,2,0,3c0,2.7-2,5.1-4.8,5.4c-3.2,0.3-5.7-2.3-5.7-5.3c0-0.9,0-1.8,0-2.7c0-8.9,0-17.7,0-26.6
		C265,138.7,265,136.6,265,134.3z"/>
	<path class="st0" d="M320.8,75.9c0-3.8,3.2-6.9,6.9-6.9c3.8,0,6.9,3.2,6.9,6.9c0,3.8-3.2,6.9-6.9,6.9
		C323.8,82.6,320.8,79.6,320.8,75.9z M322.4,99c0-4.1,4.8-6.8,8.3-4.4c1.5,1.1,2.3,2.7,2.3,4.7s0,3.9,0,5.7c0,8.4,0,17,0,25.4
		c0,9.3,0,18.6,0,28c0,3,0,6,0,9c0,2.1,0.3,4.4-1.2,6.2c-2.7,3.2-8,2.1-9-2c-0.2-0.8-0.2-1.5-0.2-2.1c0-2.3,0-4.5,0-6.8
		c0-8.7,0-17.6,0-26.3C322.4,124,322.4,111.5,322.4,99z"/>
	<path class="st0" d="M348.3,134.3c0-17.7,11.9-33.7,28.7-38.8c17-5.3,36.1,1.8,45.8,16.7c4.4,6.6,6.6,14.3,6.6,22.2
		c0,2.7,0,5.4,0,8.1c0,8.7,0,17.3,0,26c0,0.8,0,1.5,0,2.3c-0.3,4.1-5.4,6.2-8.6,3.6c-2.4-2.1-1.8-5.7-1.8-8.6c0-9,0-17.9,0-26.9
		c0-3.3,0.2-6.6-0.5-9.8c-1.5-8.4-6.6-15.9-13.8-20.4c-7.4-4.5-16.7-5.7-25.1-3c-8.1,2.7-14.7,8.7-18.3,16.5c-3.6,8-2.6,17.4-2.6,26
		c0,7.4,0,14.7,0,22.1c0,3.5-3.3,6-6.6,5.1c-2.6-0.6-3.8-2.9-3.8-5.4c0-3,0-6,0-9c0-8.4,0-17,0-25.4
		C348.3,135.2,348.3,134.8,348.3,134.3z"/>
	<path class="st0" d="M508.3,172.9c-1.4-1.1-2.7-1.8-4.1-2.7c0.8-0.5,1.7-0.9,2.4-1.4c14.7-9.6,21.9-28.4,16.8-45.2
		c-5-16.4-20.4-28.9-37.6-29.5c0.6,0,0.8,0-1.1,0c-2,0-2,0.2-1.4,0.2c-15.3,1.1-29.5,9.9-35.9,24c-7.4,16.2-3,36.2,10.7,47.6
		c7.5,6.2,17,9.3,26.4,9.3l0,0c16.5,0,30.2,13.7,30.2,30.2s-13.8,30.1-30.2,30.1c0,3.5,0,6.9,0,10.2c17,0,32.3-10.8,38.3-26.7
		C528.9,202.6,522.4,183.5,508.3,172.9z M454.2,134.9c0-14.7,11.1-28,25.8-30.1c14.9-2.1,29.3,7.2,33.4,21.6
		c5,17.4-6.9,35.8-24.9,38.2c-0.6,0.2-1.4,0.2-2,0.2c-1.1-0.2-1.7-0.2-1.8,0C468.5,165.1,454.2,151.8,454.2,134.9z"/>
	<path class="st0" d="M540.2,72.7c0-4.1,4.8-6.8,8.3-4.4c1.7,1.2,2.3,3,2.3,5c0,3.3,0,6.8,0,10.1c0,7.8,0,15.8,0,23.6
		c0,0.2,0,0.2,0,0.3c11.7-13.2,31.4-17.1,47.3-9.6c14.3,6.8,23.3,21.3,23.3,37.1c0,8,0,15.9,0,23.7c0,3.6,0,7.1,0,10.7
		c0,1.4,0,2.6-0.6,3.8c-2.1,3.6-7.5,3.3-9.3-0.5c-1.1-2.1-0.5-5.6-0.5-7.8c0-4.7,0-9.3,0-13.8c0-4.4,0-8.6,0-12.9
		c0-3.8,0-7.7-1.1-11.4c-4.7-17.4-24.5-27-41-19.8c-7.7,3.3-13.7,9.8-16.5,17.6c-1.4,3.9-1.7,8-1.7,12c0,8.9,0,17.9,0,26.7
		c0,2.4,0,4.8,0,7.4c0,3.6-3.6,6.2-7.1,5c-2.3-0.8-3.5-3-3.5-5.3c0-12.6,0-25.2,0-38c0-16.5,0-32.9,0-49.4
		C540.2,79.5,540.2,76.2,540.2,72.7z"/>
	<path class="st0" d="M633.9,99c0-4.1,4.8-6.8,8.3-4.4c1.7,1.2,2.3,3,2.3,5c0,3.3,0,6.5,0,9.8c0,8.3,0,16.5,0,24.8
		c0,6.3,1.5,12.2,5,17.4c4.7,7.1,12.5,12,20.9,13.2c17.9,2.4,34.4-11.7,34.4-29.8c0-7.1,0-14,0-21c0-4.1,0-8.3,0-12.3
		c0-0.9,0-1.7,0-2.6c0-3.3,2.9-5.7,6.2-5.3c4.5,0.8,4.2,5.1,4.2,8.6c0,4.2,0,8.6,0,12.8c0,7.4,0.3,14.7,0,21.9
		c-0.9,17.6-13.7,32.9-30.8,37.1c-17.3,4.2-35.9-3.6-44.8-18.9c-3.6-6.3-5.6-13.4-5.6-20.7c0-3,0-6,0-9c0-8.4,0-17,0-25.4
		C633.9,99.8,633.9,99.5,633.9,99z"/>
	<path class="st0" d="M771.4,94.2c17.6,0,33.7,12.8,38.8,29.5c5.1,16.8-2.1,35.6-16.8,45.2c-14.9,9.6-35,8.4-48.7-2.9
		c-6.5-5.4-11.1-12.9-13.1-21.2c-0.9-3.8-1.1-7.7-1.1-11.6c0-16.8,0-33.5,0-50.3c0-2.9,0-5.7,0-8.4c0-0.5,0-1.1,0-1.5
		c0-3.5,3.3-5.9,6.6-5.1c4.2,1.1,3.9,5.3,3.9,8.6c0,4.4,0,8.6,0,12.9c0,6.8,0,13.5,0,20.3C748.9,100.8,759.6,94.5,771.4,94.2
		C776.7,94.2,765.1,94.4,771.4,94.2z M740.9,134.9c0,18,16.5,32.3,34.4,29.8c17.7-2.4,29.6-20.4,25.1-37.7
		c-3.9-14.6-18.2-24-33.1-22.2C752.4,106.8,741.2,120.2,740.9,134.9C740.9,139.1,741.1,130.6,740.9,134.9z"/>
	<path class="st0" d="M212.9,94.2c17.6,0,33.7,12.8,38.8,29.5c5.1,16.8-2.1,35.6-16.8,45.2c-14.7,9.6-35,8.4-48.5-3
		c-6.5-5.4-11.1-12.9-13.1-21.2c-0.9-3.8-1.1-7.7-1.1-11.6c0-16.8,0-33.5,0-50.3c0-2.9,0-5.7,0-8.4c0-0.5,0-1.1,0-1.5
		c0-3.5,3.3-5.9,6.6-5.1c4.2,1.1,3.9,5.3,3.9,8.6c0,4.4,0,8.6,0,12.9c0,6.8,0,13.5,0,20.3C190.3,100.8,201,94.5,212.9,94.2
		C218.3,94.2,206.7,94.4,212.9,94.2z M182.5,134.9c0,18,16.5,32.3,34.4,29.8c17.6-2.3,29.5-20.3,24.9-37.6
		c-3.9-14.6-18.2-24-33.1-22.2C193.8,106.8,182.8,120.2,182.5,134.9C182.5,139.1,182.7,130.6,182.5,134.9z"/>
	<path class="st1" d="M197.6,134.9c0,8,6.6,14.9,14.6,15c8.3,0.3,15.5-6.3,15.6-14.6c0.3-8.3-6.3-15.5-14.6-15.6
		C204.6,119.4,197.7,126.5,197.6,134.9C197.6,137,197.6,132.8,197.6,134.9z"/>
</g>
<polygon class="st1" points="527.8,280.7 492,342.7 456.2,280.7 "/>
</svg>
