<?xml version="1.0" encoding="utf-8"?>
<!-- Generator: Adobe Illustrator 19.1.0, SVG Export Plug-In . SVG Version: 6.00 Build 0)  -->
<!DOCTYPE svg PUBLIC "-//W3C//DTD SVG 1.1//EN" "http://www.w3.org/Graphics/SVG/1.1/DTD/svg11.dtd">
<svg version="1.1" id="Layer_1" xmlns="http://www.w3.org/2000/svg" xmlns:xlink="http://www.w3.org/1999/xlink" x="0px" y="0px"
	 viewBox="0 0 984 906.7" style="enable-background:new 0 0 984 906.7;" xml:space="preserve">
<style type="text/css">
	.st0{opacity:0.15;enable-background:new    ;}
	.st1{clip-path:url(#SVGID_2_);}
	.st2{clip-path:url(#SVGID_4_);}
	.st3{clip-path:url(#SVGID_6_);fill:#3F3F3F;}
	.st4{clip-path:url(#SVGID_8_);fill:#3F3F3F;}
	.st5{clip-path:url(#SVGID_10_);fill:#E9E9E9;}
	.st6{clip-path:url(#SVGID_12_);fill:#E9E9E9;}
	.st7{clip-path:url(#SVGID_14_);fill:#FFFFFF;}
	.st8{clip-path:url(#SVGID_16_);fill:#B5B4B4;}
	.st9{clip-path:url(#SVGID_18_);fill:#F2F2F2;}
	.st10{clip-path:url(#SVGID_20_);fill:#454545;}
	.st11{clip-path:url(#SVGID_22_);fill:#DA3628;}
	.st12{clip-path:url(#SVGID_24_);fill:#DA3628;}
	.st13{clip-path:url(#SVGID_26_);fill:#DA3628;}
	.st14{clip-path:url(#SVGID_28_);fill:#DA3628;}
	.st15{clip-path:url(#SVGID_30_);fill:#DA3628;}
	.st16{clip-path:url(#SVGID_32_);fill:#DA3628;}
	.st17{clip-path:url(#SVGID_34_);fill:#DA3628;}
	.st18{clip-path:url(#SVGID_36_);fill:#DA3628;}
	.st19{fill:none;stroke:#FDFEFF;stroke-width:5;stroke-miterlimit:10;}
	.st20{fill:none;stroke:#010101;stroke-width:5;stroke-miterlimit:10;}
	
		.st21{clip-path:url(#SVGID_38_);fill:#D4D6D8;stroke:#000000;stroke-width:2;stroke-linecap:round;stroke-linejoin:round;stroke-miterlimit:10;}
	.st22{fill:#FCDCCD;}
	.st23{fill:#F6C215;}
	.st24{fill:#4B4A4B;}
	.st25{clip-path:url(#SVGID_40_);fill:none;}
	.st26{fill:#C79D89;}
	.st27{fill:#D8AC93;}
	.st28{fill:#E5BFA5;}
	.st29{fill:#F8D3B9;}
	.st30{fill:#C23133;}
	.st31{fill:#448CCB;}
	.st32{clip-path:url(#SVGID_42_);fill:none;}
	.st33{fill:#F9D1C4;}
	.st34{clip-path:url(#SVGID_44_);fill:none;}
	.st35{clip-path:url(#SVGID_46_);fill:none;}
	.st36{clip-path:url(#SVGID_48_);fill:none;}
	.st37{fill:#F7D2C4;}
	.st38{fill:#313131;}
	.st39{fill:#737273;}
	.st40{opacity:0.2;}
	.st41{clip-path:url(#SVGID_52_);fill:none;}
	.st42{clip-path:url(#SVGID_54_);fill:none;}
	.st43{clip-path:url(#SVGID_54_);}
	.st44{fill:none;}
	.st45{fill:#815543;}
	.st46{clip-path:url(#SVGID_56_);fill:none;}
	.st47{fill:#F4BE5E;}
	.st48{fill:#B6CE85;}
	.st49{clip-path:url(#SVGID_58_);fill:none;}
	.st50{opacity:0.16;fill:#E8F6F9;}
	.st51{fill:#313334;}
	.st52{fill:#FFFFFF;fill-opacity:0.67;stroke:#000000;stroke-width:2;stroke-miterlimit:10;}
	.st53{fill:#0B0B0B;}
	.st54{clip-path:url(#SVGID_60_);}
	.st55{fill:#FFFFFF;stroke:#000000;stroke-width:2;stroke-miterlimit:10;}
	.st56{clip-path:url(#SVGID_62_);fill:#C13133;}
	.st57{clip-path:url(#SVGID_64_);fill:#F5C119;}
	.st58{clip-path:url(#SVGID_66_);fill:#F5C119;}
	.st59{clip-path:url(#SVGID_68_);fill:#F5C119;}
	.st60{clip-path:url(#SVGID_70_);fill:#F5C119;}
	.st61{clip-path:url(#SVGID_72_);fill:#F5C119;}
	.st62{clip-path:url(#SVGID_74_);fill:#F5C119;}
	.st63{clip-path:url(#SVGID_76_);fill:#F5C119;}
	.st64{clip-path:url(#SVGID_78_);fill:#F5C119;}
	.st65{clip-path:url(#SVGID_80_);fill:#F5C119;}
	.st66{fill:#1E448B;}
	.st67{fill:#F8F7F8;}
	.st68{clip-path:url(#SVGID_82_);}
	.st69{opacity:0.45;clip-path:url(#SVGID_84_);}
	.st70{clip-path:url(#SVGID_86_);fill:#00AEEF;}
	.st71{clip-path:url(#SVGID_88_);fill:#00AEEF;}
	.st72{clip-path:url(#SVGID_84_);fill:#010101;}
	.st73{clip-path:url(#SVGID_82_);fill:none;stroke:#FFFFFF;stroke-linecap:round;stroke-linejoin:round;}
	.st74{fill:#FFFFFF;}
	.st75{clip-path:url(#SVGID_90_);fill:#DA3628;}
	.st76{clip-path:url(#SVGID_92_);fill:#DA3628;}
	.st77{clip-path:url(#SVGID_94_);fill:#DA3628;}
	.st78{clip-path:url(#SVGID_96_);fill:#DA3628;}
	.st79{clip-path:url(#SVGID_98_);fill:#DA3628;}
	.st80{clip-path:url(#SVGID_100_);fill:#DA3628;}
	.st81{clip-path:url(#SVGID_102_);fill:#DA3628;}
	.st82{clip-path:url(#SVGID_104_);fill:#DA3628;}
	.st83{fill:#81B2D3;}
</style>
<g id="solution-comp">
	<g class="st0">
		<g>
			<defs>
				<rect id="SVGID_1_" y="878.7" width="984" height="28"/>
			</defs>
			<clipPath id="SVGID_2_">
				<use xlink:href="#SVGID_1_"  style="overflow:visible;"/>
			</clipPath>
			<g class="st1">
				<defs>
					<path id="SVGID_3_" d="M492,879.2c271.4,0,491.3,6.1,491.3,13.7c0,7.6-219.9,13.7-491.3,13.7S0.7,900.5,0.7,892.8
						C0.7,885.2,220.7,879.2,492,879.2z"/>
				</defs>
				<clipPath id="SVGID_4_">
					<use xlink:href="#SVGID_3_"  style="overflow:visible;"/>
				</clipPath>
				<g class="st2">
					<defs>
						<rect id="SVGID_5_" y="878.7" width="984" height="28"/>
					</defs>
					<clipPath id="SVGID_6_">
						<use xlink:href="#SVGID_5_"  style="overflow:visible;"/>
					</clipPath>
					<rect x="-4.3" y="874.2" class="st3" width="992.6" height="37.4"/>
				</g>
			</g>
		</g>
	</g>
	<g>
		<defs>
			<path id="SVGID_7_" d="M492,855.3H137.2V409.5c0-13.4,10.9-24.2,24.2-24.2H492h312.4c13.4,0,24.2,10.9,24.2,24.2v445.8H492z"/>
		</defs>
		<clipPath id="SVGID_8_">
			<use xlink:href="#SVGID_7_"  style="overflow:visible;"/>
		</clipPath>
		<rect x="132.2" y="380.4" class="st4" width="701.4" height="480"/>
	</g>
	<g>
		<defs>
			<path id="SVGID_9_" d="M919.7,855.3c0,20.1-16,36.5-35.7,36.5H82c-19.7,0-35.7-16.2-35.7-36.5H919.7z"/>
		</defs>
		<clipPath id="SVGID_10_">
			<use xlink:href="#SVGID_9_"  style="overflow:visible;"/>
		</clipPath>
		<rect x="41.3" y="850.3" class="st5" width="883.4" height="46.5"/>
	</g>
	<g>
		<defs>
			<path id="SVGID_11_" d="M493.6,391.7c3.2,0,5.7,2.5,5.7,5.7s-2.5,5.7-5.7,5.7c-3.2,0-5.7-2.5-5.7-5.7S490.4,391.7,493.6,391.7z"
				/>
		</defs>
		<clipPath id="SVGID_12_">
			<use xlink:href="#SVGID_11_"  style="overflow:visible;"/>
		</clipPath>
		<rect x="482.9" y="386.7" class="st6" width="21.4" height="21.4"/>
	</g>
	<g>
		<defs>
			<rect id="SVGID_13_" x="155.4" y="409.5" width="655.1" height="421.6"/>
		</defs>
		<clipPath id="SVGID_14_">
			<use xlink:href="#SVGID_13_"  style="overflow:visible;"/>
		</clipPath>
		<rect x="150.4" y="404.5" class="st7" width="665.1" height="431.6"/>
	</g>
	<g>
		<defs>
			<path id="SVGID_15_" d="M543.6,855.3c0,6.7-5.6,12.1-12.4,12.1h-96.6c-6.8,0-12.4-5.5-12.4-12.1H543.6z"/>
		</defs>
		<clipPath id="SVGID_16_">
			<use xlink:href="#SVGID_15_"  style="overflow:visible;"/>
		</clipPath>
		<rect x="417.2" y="850.3" class="st8" width="131.4" height="22.1"/>
	</g>
	<g>
		<defs>
			<rect id="SVGID_17_" x="155.4" y="409.5" width="655.1" height="56.6"/>
		</defs>
		<clipPath id="SVGID_18_">
			<use xlink:href="#SVGID_17_"  style="overflow:visible;"/>
		</clipPath>
		<rect x="150.4" y="404.5" class="st9" width="665.1" height="66.6"/>
	</g>
	<g>
		<defs>
			<rect id="SVGID_19_" x="155.4" y="466.1" width="655.1" height="21.4"/>
		</defs>
		<clipPath id="SVGID_20_">
			<use xlink:href="#SVGID_19_"  style="overflow:visible;"/>
		</clipPath>
		<rect x="150.4" y="461.1" class="st10" width="665.1" height="31.4"/>
	</g>
	<g>
		<defs>
			<path id="SVGID_21_" d="M386.5,440.5v-5.1h-6.2C382.8,436.4,384.9,438,386.5,440.5z M386.5,421.8h12.1v24.9h-12.1v-0.2
				c-2.8-4.3-6.8-7.6-12-9.8v10h-12.1v-25h12.1v10.1h12C386.5,431.9,386.5,421.8,386.5,421.8z"/>
		</defs>
		<clipPath id="SVGID_22_">
			<use xlink:href="#SVGID_21_"  style="overflow:visible;"/>
		</clipPath>
		<rect x="357.4" y="416.6" class="st11" width="46.2" height="35"/>
	</g>
	<g>
		<defs>
			<path id="SVGID_23_" d="M437.4,441.9v3.9c-1.9,0.8-5,1.2-9.2,1.2c-1.4,0-2.9-0.1-4.3-0.4c-1.8-0.4-3.1-0.9-3.8-1.6
				c-2.4,1.4-5.3,2-8.7,2c-2.4,0-4.6-0.4-6.7-1.3c-2.7-1.2-4-2.8-4-4.8v-10.7h11.9v9.2c0,0.9,0.3,1.5,0.9,2s1.3,0.7,2.2,0.7
				c0.9,0,1.6-0.2,2.3-0.7c0.6-0.5,1-1.2,1-2v-9.2h12v9.4c0,0.9,0.3,1.6,0.9,2.1s1.4,0.8,2.3,0.8c0.4,0,0.9-0.1,1.5-0.2
				C436.8,441.9,437.3,441.9,437.4,441.9z"/>
		</defs>
		<clipPath id="SVGID_24_">
			<use xlink:href="#SVGID_23_"  style="overflow:visible;"/>
		</clipPath>
		<rect x="395.7" y="425.1" class="st12" width="46.7" height="26.8"/>
	</g>
	<g>
		<defs>
			<path id="SVGID_25_" d="M468.5,435.4H464c0,4.6-1.4,7.8-4.4,9.6c-2.2,1.3-5.9,2-10.9,2c-2.4,0-4.7-0.6-7.1-1.7
				c-2.9-1.3-4.3-3.1-4.3-5.1v-18.4h12v15.8c0,1.3,0.4,2.3,1.3,3.2c0.9,0.9,1.9,1.2,3.1,1.2c1.5,0,2.8-0.5,3.8-1.4s1.5-2.2,1.5-3.7
				v-1.4h-0.5c-1.3,0-2.5-0.3-3.4-0.9c-1.1-0.7-1.7-1.7-1.7-3s0.5-2.2,1.4-2.9c0.9-0.6,1.9-0.9,3.3-0.9c1.1,0,2.1,0.2,3.1,0.6
				c1.1,0.4,2,1,2.5,1.8h4.8V435.4z"/>
		</defs>
		<clipPath id="SVGID_26_">
			<use xlink:href="#SVGID_25_"  style="overflow:visible;"/>
		</clipPath>
		<rect x="432.3" y="416.9" class="st13" width="41.2" height="35.2"/>
	</g>
	<g>
		<defs>
			<path id="SVGID_27_" d="M500.6,453.2h-11.2v-7.8c-1.4,1-4.2,1.5-8.6,1.5c-2.9,0-5.5-0.6-8-1.8c-3.1-1.5-4.6-3.5-4.6-6
				c0-3,1.3-5.3,4-7c2.2-1.4,4.9-2.1,8.1-2.1h7.6v4.9h-1.1c-1.6,0-3,0.2-4,0.6c-1.5,0.6-2.3,1.6-2.3,3c0,2.2,1.6,3.3,4.9,3.3
				c1.2,0,2.1-0.3,2.9-0.9c0.8-0.6,1.1-1.4,1.1-2.6v-3.1v-3.1v-1.9h11.1L500.6,453.2z"/>
		</defs>
		<clipPath id="SVGID_28_">
			<use xlink:href="#SVGID_27_"  style="overflow:visible;"/>
		</clipPath>
		<rect x="463.2" y="425" class="st14" width="42.4" height="33.2"/>
	</g>
	<g>
		<defs>
			<path id="SVGID_29_" d="M539.6,441.9v3.9c-1.9,0.8-5,1.2-9.2,1.2c-1.4,0-2.9-0.1-4.3-0.4c-1.8-0.4-3.1-0.9-3.8-1.6
				c-2.4,1.4-5.3,2-8.7,2c-2.4,0-4.6-0.4-6.7-1.3c-2.7-1.2-4-2.8-4-4.8v-10.7h11.9v9.2c0,0.9,0.3,1.5,0.9,2c0.6,0.5,1.3,0.7,2.2,0.7
				c0.9,0,1.6-0.2,2.3-0.7c0.6-0.5,1-1.2,1-2v-9.2h12v9.4c0,0.9,0.3,1.6,0.9,2.1c0.6,0.5,1.4,0.8,2.3,0.8c0.4,0,0.9-0.1,1.5-0.2
				C539,441.9,539.5,441.9,539.6,441.9z"/>
		</defs>
		<clipPath id="SVGID_30_">
			<use xlink:href="#SVGID_29_"  style="overflow:visible;"/>
		</clipPath>
		<rect x="497.9" y="425.1" class="st15" width="46.7" height="26.8"/>
	</g>
	<g>
		<defs>
			<path id="SVGID_31_" d="M559.5,445.9c-0.7,0.4-1.8,0.7-3.3,1c-1.3,0.3-2.5,0.4-3.4,0.4c-7.7,0-11.5-1.9-11.5-5.6v-11.4h12v10.4
				c0,1.4,0.9,2.1,2.7,2.1c1,0,2.1-0.3,3.5-1V445.9z M554.3,424.1c0,1.1-0.9,1.9-2.8,2.6c-1.4,0.5-2.8,0.7-4.2,0.7
				c-1.4,0-2.8-0.2-4.2-0.7c-1.8-0.6-2.8-1.4-2.8-2.6c0-1.1,0.9-1.9,2.8-2.6c1.3-0.4,2.7-0.6,4.2-0.6c1.4,0,2.8,0.2,4.2,0.6
				C553.4,422.2,554.3,423,554.3,424.1z"/>
		</defs>
		<clipPath id="SVGID_32_">
			<use xlink:href="#SVGID_31_"  style="overflow:visible;"/>
		</clipPath>
		<rect x="535.3" y="415.9" class="st16" width="29.2" height="36.3"/>
	</g>
	<g>
		<defs>
			<path id="SVGID_33_" d="M589.9,445.9c-2.3,0.7-5,1-8.1,1c-2.4,0-4.5-0.4-6.2-1.2c-2.2-1-3.4-2.7-3.4-4.8c0-1.9,1.3-3.8,3.8-5.4
				h-7.7c-0.9,5.6-3.9,9.1-9,10.4v-3.9c1.4-0.6,2.5-1.4,3.2-2.5c0.6-0.9,1-2.2,1.2-3.9h-0.6c-1.1,0-2.1-0.3-3-1
				c-0.9-0.7-1.4-1.5-1.4-2.6c0-1.1,0.5-2.1,1.4-2.9c0.9-0.7,1.9-1.1,3.1-1.1c0.8,0,1.7,0.2,2.6,0.6c1,0.5,1.6,1,1.9,1.7h20.2v5.1
				h-3.2c-1.3,0.9-1.9,1.9-1.9,3.1c0,1,0.5,1.8,1.4,2.6c0.9,0.7,1.9,1.1,3,1.1c0.9,0,1.8-0.1,2.6-0.3v4H589.9z"/>
		</defs>
		<clipPath id="SVGID_34_">
			<use xlink:href="#SVGID_33_"  style="overflow:visible;"/>
		</clipPath>
		<rect x="553.7" y="422.9" class="st17" width="41.2" height="28.9"/>
	</g>
	<g>
		<defs>
			<path id="SVGID_35_" d="M621.6,441.9v3.9c-3.9,1-8.9,1.5-15,1.5c-3.3,0-6.3-0.3-8.8-0.8c-4.2-0.9-6.3-2.3-6.3-4.4
				c0-1.9,2.2-3.5,6.6-4.7c-1-0.3-1.9-0.7-2.8-1.2c-1.1-0.7-1.7-1.4-1.7-2.2c0-2.2,2.6-3.8,7.9-4.6c2.9-0.5,6.4-0.7,10.5-0.7
				c1.7,0,3.2,0,4.7,0.1v4c-1.6,0.1-3.2,0.1-4.8,0.1c-2.5,0.2-3.8,0.6-3.8,1.2c0,0.5,0.7,0.9,2.1,1.1c1,0.2,1.9,0.3,2.8,0.3h0.5v2.5
				c-5,0.6-7.5,1.6-7.5,2.8c0,1.3,2.7,1.9,8,1.9C617.3,442.8,619.9,442.4,621.6,441.9z"/>
		</defs>
		<clipPath id="SVGID_36_">
			<use xlink:href="#SVGID_35_"  style="overflow:visible;"/>
		</clipPath>
		<rect x="586.5" y="423.6" class="st18" width="40.1" height="28.6"/>
	</g>
	<line class="st19" x1="178" y1="476.9" x2="214" y2="476.9"/>
	<line class="st19" x1="240.7" y1="476.9" x2="276.7" y2="476.9"/>
	<line class="st19" x1="291.4" y1="476.9" x2="351.4" y2="476.9"/>
	<line class="st19" x1="366.2" y1="476.9" x2="402" y2="476.9"/>
	<line class="st20" x1="442.3" y1="626.7" x2="478.3" y2="626.7"/>
	<line class="st20" x1="505" y1="626.7" x2="531" y2="626.7"/>
	<line class="st20" x1="550.7" y1="626.7" x2="610.7" y2="626.7"/>
	<line class="st20" x1="630.5" y1="626.7" x2="666.3" y2="626.7"/>
	<line class="st20" x1="442.3" y1="654.7" x2="506.3" y2="654.7"/>
	<line class="st20" x1="522.5" y1="654.7" x2="570.8" y2="654.7"/>
	<line class="st20" x1="585.4" y1="654.7" x2="608.1" y2="654.7"/>
	<line class="st20" x1="632.4" y1="654.7" x2="665" y2="654.7"/>
	<line class="st20" x1="678.9" y1="654.7" x2="721" y2="654.7"/>
	<line class="st20" x1="678.9" y1="626.7" x2="729.3" y2="626.7"/>
	<line class="st20" x1="442.3" y1="682.7" x2="478.3" y2="682.7"/>
	<g>
		<defs>
			<rect id="SVGID_37_" x="178" y="519.2" width="218.2" height="311.3"/>
		</defs>
		<use xlink:href="#SVGID_37_"  style="overflow:visible;fill-rule:evenodd;clip-rule:evenodd;fill:#D4D6D8;"/>
		<clipPath id="SVGID_38_">
			<use xlink:href="#SVGID_37_"  style="overflow:visible;"/>
		</clipPath>
		<rect x="173" y="514.2" class="st21" width="228.2" height="321.3"/>
		
			<use xlink:href="#SVGID_37_"  style="overflow:visible;fill-rule:evenodd;clip-rule:evenodd;fill:none;stroke:#000000;stroke-width:2;stroke-linecap:round;stroke-linejoin:round;stroke-miterlimit:10;"/>
	</g>
	<line class="st20" x1="495" y1="682.7" x2="531" y2="682.7"/>
	<line class="st20" x1="545.7" y1="682.7" x2="605.7" y2="682.7"/>
	<line class="st20" x1="620.5" y1="682.7" x2="656.3" y2="682.7"/>
	<line class="st20" x1="670.1" y1="682.7" x2="729.3" y2="682.7"/>
	<line class="st20" x1="442.3" y1="710.7" x2="478.3" y2="710.7"/>
	<line class="st20" x1="495" y1="710.7" x2="531" y2="710.7"/>
	<line class="st20" x1="545.7" y1="710.7" x2="605.7" y2="710.7"/>
	<line class="st20" x1="670" y1="710.7" x2="709.6" y2="710.7"/>
	<line class="st20" x1="619.5" y1="710.7" x2="655.3" y2="710.7"/>
	<g>
		<path class="st22" d="M275,621.7c0,0,0.3,4.9,0,7.2c-0.3,2.4,2.3,8.6,6.7,7.9c4.4-0.7,3.8-7.7,3.6-10.1c-0.3-2.4,0-5.1,0-5.1
			L275,621.7z"/>
		<path class="st22" d="M275,621.7c0,0,0.3,4.9,0,7.2c-0.3,2.4,2.3,8.6,6.7,7.9c4.4-0.7,3.8-7.7,3.6-10.1c-0.3-2.4,0-5.1,0-5.1
			L275,621.7z"/>
		<g>
			<path class="st22" d="M307.4,571.9L307.4,571.9c0-0.1,0-0.2,0-0.2c0-15.6-12.7-28.3-28.3-28.3s-28.3,12.7-28.3,28.3
				c0,0.1,0,0.2,0,0.2h0c0,0,0.4,23.1,2,31.2c1.6,8.3,17.3,22.2,27,22.4c1.7,0-1-0.1,2.3,0c10,0.2,22.9-16.6,24.3-23.1
				C308,594.2,307.4,571.9,307.4,571.9z"/>
			<path class="st22" d="M307.4,571.9L307.4,571.9c0-0.1,0-0.2,0-0.2c0-15.6-12.7-28.3-28.3-28.3s-28.3,12.7-28.3,28.3
				c0,0.1,0,0.2,0,0.2h0c0,0,0.4,23.1,2,31.2c1.6,8.3,17.3,22.2,27,22.4c1.7,0-1-0.1,2.3,0c10,0.2,22.9-16.6,24.3-23.1
				C308,594.2,307.4,571.9,307.4,571.9z"/>
		</g>
		<g>
			<path class="st23" d="M283,651.5c1.2,0,2.2,0.4,3,1.3c0.8,0.9,1.2,2.1,1.2,3.7c1.1-0.3,2.1-0.7,2.9-1.2c0.8-0.5,1.3-0.7,1.3-0.7
				c0.2,0,0.2,0.1,0.2,0.4c0,0.3-0.4,0.7-1.1,1.2c-0.8,0.6-1.9,1.1-3.4,1.7c-0.3,2.4-1.3,4.2-2.9,5.5c-1.6,1.3-3.2,1.9-4.8,1.9
				c-1.6,0-2.7-0.6-3.2-1.8c-0.5-1.2-0.8-3.1-0.8-5.6s0.2-5,0.6-7.3c0.4-2.3,0.9-4.1,1.4-5.4c0.6-1.3,1.2-2.3,1.8-3
				c0.6-0.7,1.2-1.1,1.8-1.1c0.3,0,0.5,0.3,0.7,1c0.2,0.6,0.3,1.4,0.3,2.4c0,2.1-0.4,4.4-1.1,7.2C281.6,651.6,282.2,651.5,283,651.5
				z M281.2,645.3c0-1.1-0.1-1.7-0.4-1.7c-0.2,0-0.5,0.6-0.9,1.7c-0.3,1.2-0.6,2.7-0.9,4.7c-0.3,2-0.4,3.9-0.4,5.9
				C280.3,651,281.2,647.5,281.2,645.3z M284.8,658.7c-0.2,0-0.7,0-1.3,0s-1.4-0.2-2.2-0.7c-0.8-0.5-1.4-1.1-1.7-1.9
				c-0.3,0.7-0.6,1.3-0.9,1.9c0.1,2,0.2,3.5,0.5,4.4c0.3,0.9,0.7,1.3,1.3,1.3c0.9,0,1.8-0.4,2.7-1.2
				C284,661.7,284.6,660.4,284.8,658.7z M282.3,652.9c-0.4,0-0.7,0.1-0.9,0.3c-0.2,0.2-0.3,0.5-0.3,0.9c0,0.8,0.4,1.5,1.1,2.1
				c0.7,0.5,1.6,0.8,2.7,0.8c0-1.1-0.2-2-0.6-2.9C283.8,653.3,283.2,652.9,282.3,652.9z"/>
		</g>
		<path class="st24" d="M285.1,809.4c0,0,0.1,2.7,0,3.4c-0.1,0.6,0.1,1.7,0.1,1.7s0.6,1,1.3,1.2c1.4,0.3,1,3,3.4,5.2
			c1.7,1.5,4.2,2.7,8.1,2.4c6.4-0.4,7.2-2,7.2-2s0.1-0.3,0.1-0.8c0-0.1-0.1-0.2-0.1-0.3c0.2-1.9,0.2-5.5-3.4-6.5
			c-3.3-0.8-4.2-4.9-4.2-5.9C297.7,806.5,285.6,803.7,285.1,809.4z"/>
		<g>
			<defs>
				<path id="SVGID_39_" d="M285.1,809.4c0,0,0.1,2.7,0,3.4c-0.1,0.6,0.1,1.7,0.1,1.7s0.6,1,1.3,1.2c1.4,0.3,1,3,3.4,5.2
					c1.7,1.5,4.2,2.7,8.1,2.4c6.4-0.4,7.2-2,7.2-2s0.1-0.3,0.1-0.8c0-0.1-0.1-0.2-0.1-0.3c0.2-1.9,0.2-5.5-3.4-6.5
					c-3.3-0.8-4.2-4.9-4.2-5.9C297.7,806.5,285.6,803.7,285.1,809.4z"/>
			</defs>
			<clipPath id="SVGID_40_">
				<use xlink:href="#SVGID_39_"  style="overflow:visible;"/>
			</clipPath>
			<path class="st25" d="M285.3,814.4l-0.1-0.7c0.4,0.4,1,1.1,1.4,1.2c0.5,0.1,1.4,0.9,2.1,2.6c0.7,1.7,4.3,6.7,16.7,2.6v0l0.1,0.2
				l-0.1,0.9l0.6,0.6c-0.2,0.1-4,3.3-10.8,2.1c-6.9-1.2-8-5.2-8.1-6.3c-0.1-0.7-0.9-1.4-1.5-1.8
				C285.7,815.2,285.3,814.4,285.3,814.4z"/>
		</g>
		<path class="st26" d="M259.2,728c0,0,2.3-1.4,0.3-3.9c-2-2.5-1-0.7-1-0.7s-0.4-3.9-0.6-5.4c-0.2-1.5-2.8,1-3.2,2.5
			C254.4,722,257.9,727.4,259.2,728z"/>
		<path class="st27" d="M255.5,728.1c0.1,0,2.9,2.8,2.9,2.8s1.9-0.8,1.5-2.3c-0.4-1.5-1.3-2.7-1.9-3.4c-0.6-0.7-2.4-3.1-2.5-3.9
			c-0.1-0.8,1.7-2.3,1.5-2.9c-0.2-0.6-0.8-1.1-1.2-0.7c-0.3,0.3-1.2,3.1-1.3,3.5c0,0-1.3,1.3-1.4,1.4c-0.1,0.1,0,0.9,0.2,1.5
			c0.2,0.6,1,2.2,1,2.2"/>
		<path class="st28" d="M252,726.4c0.1,0.1,1.3,6.2,1.6,6.8c0.2-0.1,1.1,0.4,2.6-0.7c1.5-1.1,0.3-4.8-0.1-5.4
			c-0.4-0.6-1.9-4.3-1.8-4.8c0-0.4,0.2-1.4,0.3-1.8C254.7,720.1,252,726.4,252,726.4z"/>
		<path class="st29" d="M257.2,719.1c-0.1,0.1-0.2-0.1-0.2-0.1s-0.1,0.2-0.2,0.5c-0.1,0.2-0.2,0.5-0.3,0.7c0.4-0.4,0.8-0.7,1.2-0.8
			c0,0,0.1,0.6,0.2,1.2l0,0c0-1.4-1-3.5-1-3.5S257.3,719,257.2,719.1z"/>
		<path class="st22" d="M256.2,709.4c0,0-3.9,8.6-4.4,9.9c-0.6,1.3-2.4,5.2-3.2,6.6c-1.4,2.4-4,4.6-3.9,5.1c0.5,0.9,2.6,2.6,5,0.6
			c2.4-2.1,3.6-5.8,4.1-6.8c0.5-1.1,2.5-5.1,3.9-5.4c0,0,0.3,1.6,0.3,2.3c0,0.7,0.6,2.6,0.8,3.2c0.4,0.8,5.8,2.7,7,0.1
			c0,0,0-0.2-0.8-1c-0.8-0.8-1.8-2.1-2-3c-0.2-1-0.7-0.7-0.5-2.4c0.2-1.7,0.4-1.2,0-2.7c-0.4-1.5-0.9-2.3-0.9-3.5
			c0-1.2,0.2-2.8,0.2-3.3c0-0.5-0.7-1.3-1.1-1.5c-0.4-0.2-4.6,1.7-4.6,1.7"/>
		<path class="st24" d="M276.9,808.8c0,0-0.1,2.7,0,3.4c0.1,0.6-0.1,1.7-0.1,1.7s-0.6,1-1.3,1.2c-1.4,0.3-1,3-3.4,5.2
			c-1.7,1.5-4.2,2.7-8.1,2.4c-6.3-0.4-7.2-2-7.2-2s-0.1-0.3-0.1-0.8c0-0.1,0.1-0.2,0.1-0.3c-0.2-1.9-0.2-5.5,3.4-6.5
			c3.3-0.8,4.2-4.9,4.2-5.9C264.4,805.9,276.5,803.2,276.9,808.8z"/>
		<path class="st30" d="M298.2,634.3l-14.1-6.4l-9.7,1.7c0,0-8.1,4.5-9.9,6.7c0,0,0,0,0,0c-3,2.5,2.1,16.6,2.2,24.8
			c0.7,11.6,2,32.5,2,32.5s0.5,3.6,13.5,3.7c13,0.1,12.2-2.1,12.2-2.1c2.1-2.1,2.1-33.7,2.2-42.4
			C296.7,643.8,298.2,634.3,298.2,634.3z"/>
		<path class="st31" d="M263.7,808.5c0,0,2.6-46.2,3-57.8c0.4-11.6,1.9-57.6,1.9-57.6l25.8,0.2c0,0,1.2,42.5,1.5,56.8
			c0.4,14.3,2.2,58.8,2.2,58.8s-1.6,1.4-4.5,1.8c-8,0.5-8.5-2.9-8.5-2.9l0.1-2.4l-0.5-54.3c0,0-0.3-0.3-0.4-0.9
			c-0.2-0.7,0.3-1.1,0.3-1.1s-0.4-1.1-0.1-1.8c0.3-0.7-1.5-38.2-1.5-38.2s-1.3,0-2.5,0.2c-1.1,0.1-1.5,33.6-2.1,39.2
			c0,0.1,0.1,0.5,0.1,0.6c0,0.4-0.3,0.6-0.3,0.6s0.1,0.8,0,1.3c-0.1,0.5-0.4,1-0.4,1l-0.4,57.1c0,0-4.2,1.5-8.4,1.2
			C265.3,809.9,263.7,808.5,263.7,808.5z"/>
		<g>
			<defs>
				<path id="SVGID_41_" d="M263.7,808.5c0,0,2.6-46.2,3-57.8c0.4-11.6,1.9-57.6,1.9-57.6l25.8,0.2c0,0,1.2,42.5,1.5,56.8
					c0.4,14.3,2.2,58.8,2.2,58.8s-1.6,1.4-4.5,1.8c-8,0.5-8.5-2.9-8.5-2.9l0.1-2.4l-0.5-54.3c0,0-0.3-0.3-0.4-0.9
					c-0.2-0.7,0.3-1.1,0.3-1.1s-0.4-1.1-0.1-1.8c0.3-0.7-1.5-38.2-1.5-38.2s-1.3,0-2.5,0.2c-1.1,0.1-1.5,33.6-2.1,39.2
					c0,0.1,0.1,0.5,0.1,0.6c0,0.4-0.3,0.6-0.3,0.6s0.1,0.8,0,1.3c-0.1,0.5-0.4,1-0.4,1l-0.4,57.1c0,0-4.2,1.5-8.4,1.2
					C265.3,809.9,263.7,808.5,263.7,808.5z"/>
			</defs>
			<clipPath id="SVGID_42_">
				<use xlink:href="#SVGID_41_"  style="overflow:visible;"/>
			</clipPath>
			<rect x="281.7" y="682.3" class="st32" width="21" height="128.4"/>
		</g>
		<g>
			<path class="st22" d="M306,590.8c0,0,3-4.5,6.7-1.6c3.8,2.9,0.2,6.4-1.5,8c-1.7,1.5-1.8,4.4-4.6,4.1c-2.8-0.3-3.7-3-3.7-3
				L306,590.8z"/>
			<path class="st33" d="M306,590.8c0,0,3-4.5,6.7-1.6c3.8,2.9,0.2,6.4-1.5,8c-1.7,1.5-1.8,4.4-4.6,4.1c-2.8-0.3-3.7-3-3.7-3
				L306,590.8z"/>
		</g>
		<g>
			<defs>
				<path id="SVGID_43_" d="M275,621.7c0,0,0.3,4.9,0,7.2c-0.3,2.4,2.3,8.6,6.7,7.9c4.4-0.7,3.8-7.7,3.6-10.1c-0.3-2.4,0-5.1,0-5.1
					L275,621.7z"/>
			</defs>
			<clipPath id="SVGID_44_">
				<use xlink:href="#SVGID_43_"  style="overflow:visible;"/>
			</clipPath>
			<path class="st34" d="M275.1,624.5h10.2C285.3,624.5,280.8,631.7,275.1,624.5z"/>
		</g>
		<path class="st23" d="M296.8,633.6c0.6,0.5,17.9,23.2,18.2,23.7c0.3,0.5,1.3,1.8,1.6,2.2c0.4,0.7,3.7,5,3.8,7.3
			c0.1,2.4-0.9,2.9-2.4,3.3s-5.4-0.1-7.3-0.8c-1.9-0.7-6.6-3.5-7-3.8c-0.4-0.3-2.6-9.1-3.4-10.4c-0.8-1.2-3.8-6.5-4.9-7.9
			c-1.1-1.4-1.4-2.9-1.6-4.1c-0.2-1.2-0.1-3,0.6-4.1C295.1,638,296.8,633.6,296.8,633.6z"/>
		<g>
			<path class="st23" d="M283.4,649.9c1.2,0,2.2,0.4,3,1.3c0.8,0.9,1.2,2.1,1.2,3.7c1.1-0.3,2.1-0.7,2.9-1.2
				c0.8-0.5,1.3-0.7,1.3-0.7c0.2,0,0.2,0.1,0.2,0.4c0,0.3-0.4,0.7-1.1,1.2c-0.8,0.6-1.9,1.1-3.4,1.7c-0.3,2.4-1.3,4.2-2.9,5.5
				c-1.6,1.3-3.2,1.9-4.8,1.9c-1.6,0-2.7-0.6-3.2-1.8c-0.5-1.2-0.8-3.1-0.8-5.6s0.2-5,0.6-7.3c0.4-2.3,0.9-4.1,1.4-5.4
				c0.6-1.3,1.2-2.3,1.8-3c0.6-0.7,1.2-1.1,1.8-1.1c0.3,0,0.5,0.3,0.7,1c0.2,0.6,0.3,1.4,0.3,2.4c0,2.1-0.4,4.4-1.1,7.2
				C282,650,282.6,649.9,283.4,649.9z M281.6,643.7c0-1.1-0.1-1.7-0.4-1.7c-0.2,0-0.5,0.6-0.9,1.7c-0.3,1.2-0.6,2.7-0.9,4.7
				c-0.3,2-0.4,3.9-0.4,5.9C280.8,649.4,281.6,645.9,281.6,643.7z M285.2,657.1c-0.2,0-0.7,0-1.3,0s-1.4-0.2-2.2-0.7
				c-0.8-0.5-1.4-1.1-1.7-1.9c-0.3,0.7-0.6,1.3-0.9,1.9c0.1,2,0.2,3.5,0.5,4.4c0.3,0.9,0.7,1.3,1.3,1.3c0.9,0,1.8-0.4,2.7-1.2
				C284.4,660.1,285,658.8,285.2,657.1z M282.8,651.3c-0.4,0-0.7,0.1-0.9,0.3c-0.2,0.2-0.3,0.5-0.3,0.9c0,0.8,0.4,1.5,1.1,2.1
				c0.7,0.5,1.6,0.8,2.7,0.8c0-1.1-0.2-2-0.6-2.9C284.2,651.7,283.6,651.3,282.8,651.3z"/>
		</g>
		<path class="st22" d="M292.1,662.5c-1.3,0.1-2.4,0.1-3.2,0.1c-1,0-3-0.3-3.4-0.4c-0.6-0.2-1.4-0.9-1.8-1.5c-0.3-0.6,0-1.7,0-1.7
			s-0.7-0.3-1.1-0.7c-0.4-0.4-0.6-1.4-0.6-2.1c0-0.7,0.7-1.4,0.7-1.4s-0.4-0.1-0.8-0.4c-0.3-0.2-0.6-0.4-0.7-0.6
			c-0.4-0.6-0.5-2-0.3-2.8c0.3-0.8,0.5-1.1,0.5-1.1c-0.2-0.1-0.4-0.2-0.5-0.3c-0.6-0.5-0.4-1.9-0.4-2.2c0.1-1.8,0.8-1.9,1.2-2.3
			c0.3-0.3,3.1-1.1,3.8-1.1c0.6,0,6.9-0.8,6.9-0.8s0.5-0.1,0.3-0.6c-0.7-2.4-1.8-5.1-1.3-6.9c0.5-1.8,1.4-3.6,2.8-4.2
			c0.6-0.2,4.6,0.2,4,1.4c-0.5,1.2-2,4.7-1.6,7.1c0.2,1.1,2,4.3,2.2,4.4c1.9,1.8,2.7,3.1,4,5.2c1.4,2.1,4,4.6,4.1,4.8
			c0.1,0.1,0.4,3.6-0.4,5.8c-0.8,2.3-3.4,3.6-3.9,3.6c-0.5,0-2.2-1.5-2.8-1.9c-0.6-0.5-0.7-0.6-0.7-0.6"/>
		<g>
			<defs>
				<path id="SVGID_45_" d="M292.1,662.5c-1.3,0.1-2.4,0.1-3.2,0.1c-1,0-3-0.3-3.4-0.4c-0.6-0.2-1.4-0.9-1.8-1.5
					c-0.3-0.6,0-1.7,0-1.7s-0.7-0.3-1.1-0.7c-0.4-0.4-0.6-1.4-0.6-2.1c0-0.7,0.7-1.4,0.7-1.4s-0.4-0.1-0.8-0.4
					c-0.3-0.2-0.6-0.4-0.7-0.6c-0.4-0.6-0.5-2-0.3-2.8c0.3-0.8,0.5-1.1,0.5-1.1c-0.2-0.1-0.4-0.2-0.5-0.3c-0.6-0.5-0.4-1.9-0.4-2.2
					c0.1-1.8,0.8-1.9,1.2-2.3c0.3-0.3,3.1-1.1,3.8-1.1c0.6,0,6.9-0.8,6.9-0.8s0.5-0.1,0.3-0.6c-0.7-2.4-1.8-5.1-1.3-6.9
					c0.5-1.8,1.4-3.6,2.8-4.2c0.6-0.2,4.6,0.2,4,1.4c-0.5,1.2-2,4.7-1.6,7.1c0.2,1.1,2,4.3,2.2,4.4c1.9,1.8,2.7,3.1,4,5.2
					c1.4,2.1,4,4.6,4.1,4.8c0.1,0.1,0.4,3.6-0.4,5.8c-0.8,2.3-3.4,3.6-3.9,3.6c-0.5,0-2.2-1.5-2.8-1.9c-0.6-0.5-0.7-0.6-0.7-0.6"/>
			</defs>
			<clipPath id="SVGID_46_">
				<use xlink:href="#SVGID_45_"  style="overflow:visible;"/>
			</clipPath>
			<path class="st35" d="M279.7,629.2l22.8,37.5l13-19.5C315.4,647.2,311,626.3,279.7,629.2z"/>
		</g>
		<g>
			<path class="st22" d="M252.4,590.8c0,0-3-4.5-6.7-1.6c-3.8,2.9-0.2,6.4,1.5,8c1.7,1.5,1.8,4.4,4.6,4.1c2.8-0.3,3.7-3,3.7-3
				L252.4,590.8z"/>
			<path class="st33" d="M252.4,590.8c0,0-3-4.5-6.7-1.6c-3.8,2.9-0.2,6.4,1.5,8c1.7,1.5,1.8,4.4,4.6,4.1c2.8-0.3,3.7-3,3.7-3
				L252.4,590.8z"/>
		</g>
		<g>
			<defs>
				<path id="SVGID_47_" d="M307.4,571.9L307.4,571.9c0-0.1,0-0.2,0-0.2c0-15.6-12.7-28.3-28.3-28.3s-28.3,12.7-28.3,28.3
					c0,0.1,0,0.2,0,0.2h0c0,0,0.4,23.1,2,31.2c1.6,8.3,17.3,22.2,27,22.4c1.7,0-1-0.1,2.3,0c10,0.2,22.9-16.6,24.3-23.1
					C308,594.2,307.4,571.9,307.4,571.9z"/>
			</defs>
			<clipPath id="SVGID_48_">
				<use xlink:href="#SVGID_47_"  style="overflow:visible;"/>
			</clipPath>
			<rect x="235" y="534.6" class="st36" width="46.1" height="95.3"/>
		</g>
		<g>
			<defs>
				<path id="SVGID_49_" d="M310.8,584.9c0,0,1.1-11.7-2.4-20.1c0,0-5.6-18.7-23.8-21.3c0,0-11.8-3.7-26.2,7.7c0,0-6.2,5.7-9.3,13.6
					c0,0-0.9,3.1-0.5,4.5c0,0-0.2,0.2-0.4,0.7c-5.4,8.9-1.2,18.5-1.2,18.5c2.7-1.1,4.4,1.3,4.4,1.3l2.3,1.6
					c-1-2.4-1.3-12.7-1.3-13.8c0.1-0.6,0.2-1,0.2-1c15,10.3,53.7,3.2,53.7,3.2c0.2,0.3,0.4,0.6,0.5,0.9c0.3,1.6,1,6.8-0.1,9.1
					l2.3-1.2c0,0,1-0.4,2-0.3C310.7,588.3,310.9,584.9,310.8,584.9z"/>
			</defs>
			<clipPath id="SVGID_50_">
				<use xlink:href="#SVGID_49_"  style="overflow:visible;"/>
			</clipPath>
		</g>
		<path class="st37" d="M276.5,601.5c0,0,5.3,2.5,8.8-0.3"/>
		<path class="st38" d="M268.5,692c0,0-0.5,0.8-0.2,2.6c0,0-0.1,2.9,13.3,3.2c14,0.4,13.3-3.6,13.3-3.6s0.6-0.8,0.3-1.6
			c0,0-5.8,2.4-14.2,2.2C272.6,694.6,268.5,692,268.5,692z"/>
		<g>
			<g>
				<path class="st39" d="M282.8,694.5l-2.4,0c-1,0-1.9,0.8-1.9,1.9s0.8,1.9,1.9,1.9l2.4,0c1,0,1.9-0.8,1.9-1.9
					S283.8,694.5,282.8,694.5z M282.7,697.4l-2.4,0c-0.6,0-1-0.5-1-1.1c0-0.6,0.5-1,1.1-1l2.4,0c0.6,0,1,0.5,1,1.1h0
					C283.8,697,283.3,697.4,282.7,697.4z"/>
			</g>
			<g class="st40">
				<path class="st39" d="M282.8,694.5l-2.4,0c-1,0-1.9,0.8-1.9,1.9s0.8,1.9,1.9,1.9l2.4,0c1,0,1.9-0.8,1.9-1.9
					S283.8,694.5,282.8,694.5z M282.7,697.4l-2.4,0c-0.6,0-1-0.5-1-1.1c0-0.6,0.5-1,1.1-1l2.4,0c0.6,0,1,0.5,1,1.1h0
					C283.8,697,283.3,697.4,282.7,697.4z"/>
			</g>
		</g>
		<g>
			<defs>
				<path id="SVGID_51_" d="M277,808.8c0,0-0.1,2.7,0,3.4c0.1,0.6-0.1,1.7-0.1,1.7s-0.6,1-1.3,1.2c-1.4,0.3-1,3-3.4,5.2
					c-1.7,1.5-4.2,2.7-8.1,2.4c-6.3-0.4-7.2-2-7.2-2s-0.1-0.3-0.1-0.8c0-0.1,0.1-0.2,0.1-0.3c-0.2-1.9-0.2-5.5,3.4-6.5
					c3.3-0.8,4.2-4.9,4.2-5.9C264.4,805.9,276.5,803.2,277,808.8z"/>
			</defs>
			<clipPath id="SVGID_52_">
				<use xlink:href="#SVGID_51_"  style="overflow:visible;"/>
			</clipPath>
			<path class="st41" d="M276.8,813.8l0.1-0.7c-0.4,0.4-1,1.1-1.4,1.2c-0.5,0.1-1.4,0.9-2.1,2.6c-0.7,1.7-4.3,6.7-16.7,2.6v0
				l-0.1,0.2l0.1,0.9l-0.6,0.6c0.2,0.1,4,3.3,10.8,2.1c6.9-1.2,8-5.2,8.1-6.3c0.1-0.7,0.9-1.4,1.5-1.8
				C276.4,814.6,276.8,813.8,276.8,813.8z"/>
		</g>
		<g>
			<defs>
				<path id="SVGID_53_" d="M268.5,692c0,0-0.5,0.8-0.2,2.6c0,0-0.1,2.9,13.3,3.2c14,0.4,13.3-3.6,13.3-3.6s0.6-0.8,0.3-1.6
					c0,0-5.8,2.4-14.2,2.2C272.5,694.6,268.5,692,268.5,692z"/>
			</defs>
			<clipPath id="SVGID_54_">
				<use xlink:href="#SVGID_53_"  style="overflow:visible;"/>
			</clipPath>
			<path class="st42" d="M292.5,693.5c0,0,0.1,3.4,0.1,3.5c0,0.1,0.6,0,0.6,0l0.2-3.8L292.5,693.5z"/>
			<path class="st42" d="M272.8,693.7c0,0-0.5,3.5-0.5,3.6c0,0.1-0.6-0.1-0.6-0.1l0.3-3.8L272.8,693.7z"/>
			<g class="st43">
				<path class="st44" d="M289.9,694.1c0,0,0.1,3.3,0.1,3.4c0,0.1,0.6,0,0.6,0l0.1-3.6L289.9,694.1z"/>
				<path class="st44" d="M270.4,692.9c0,0-0.5,3.3-0.5,3.4c0,0.1-0.6-0.1-0.6-0.1l0.3-3.7L270.4,692.9z"/>
			</g>
		</g>
		<g id="_x35__12_">
			<path class="st45" d="M307.4,556.4c-3.8-8.6-8.2-10.1-8.2-10.1s0.5-0.7,1.2-0.9c0.6-0.1-2,0.2-2,0.2l0.3-1.4l-1.4,1.1
				c0,0-4.5-1.8-11.5-2.4c-2.6-0.5-5.9-1.1-7.1-1.2c0,0,0.7,0.5,1.9,1c-2.2,0-4.5,0.2-7,0.6c-2-0.1-6.3-0.2-8.4,0.6
				c0,0,2.2,0,3.7,0.4c-1,0.3-2,0.6-3.1,0.9c-3.1,1-5.5,2.4-7.5,4c-1.7,0.7-3.2,1.6-3.9,2.5c0,0,0.7-0.2,1.7-0.5
				c-1.4,1.6-2.5,3.3-3.4,5.1c-1.1,1.6-3.1,5-3.5,8.2c0,0,0.9-1.4,1.8-2.9c-1,5-0.7,10.4-0.5,15c0.5,10.7,0.8,15.7,0.8,15.7
				s0.4,3.2,1.1,3.9c0,0,0.6-17.1,1.1-20.4c0.4-3.3,2-8.1,4.8-11.1c2.8-3,10.5-1.8,21.2-0.6c10.6,1.2,15.2-1.6,17.7-1.6
				c2.4,0,7,3.3,7.7,9.7c0.6,6.4,1.7,21.6,1.7,22.9c0,1.3,1.3-3.7,1.7-10C308.5,578.7,310.6,563.7,307.4,556.4z"/>
			<g>
				<defs>
					<path id="SVGID_55_" d="M307.4,556.4c-3.8-8.6-8.2-10.1-8.2-10.1s0.5-0.7,1.2-0.9c0.6-0.1-2,0.2-2,0.2l0.3-1.4l-1.4,1.1
						c0,0-4.5-1.8-11.5-2.4c-2.6-0.5-5.9-1.1-7.1-1.2c0,0,0.7,0.5,1.9,1c-2.2,0-4.5,0.2-7,0.6c-2-0.1-6.3-0.2-8.4,0.6
						c0,0,2.2,0,3.7,0.4c-1,0.3-2,0.6-3.1,0.9c-3.1,1-5.5,2.4-7.5,4c-1.7,0.7-3.2,1.6-3.9,2.5c0,0,0.7-0.2,1.7-0.5
						c-1.4,1.6-2.5,3.3-3.4,5.1c-1.1,1.6-3.1,5-3.5,8.2c0,0,0.9-1.4,1.8-2.9c-1,5-0.7,10.4-0.5,15c0.5,10.7,0.8,15.7,0.8,15.7
						s0.4,3.2,1.1,3.9c0,0,0.6-17.1,1.1-20.4c0.4-3.3,2-8.1,4.8-11.1c2.8-3,10.5-1.8,21.2-0.6c10.6,1.2,15.2-1.6,17.7-1.6
						c2.4,0,7,3.3,7.7,9.7c0.6,6.4,1.7,21.6,1.7,22.9c0,1.3,1.3-3.7,1.7-10C308.5,578.7,310.6,563.7,307.4,556.4z"/>
				</defs>
				<clipPath id="SVGID_56_">
					<use xlink:href="#SVGID_55_"  style="overflow:visible;"/>
				</clipPath>
				<path class="st46" d="M311.6,561c0,0-27.6-22.9-65.9,0v-19.4h67.5v1.1L311.6,561z"/>
			</g>
		</g>
		<path class="st47" d="M269.3,585.7c0,0,1-1.6-0.5-1.9c-1.5-0.3-9.4-0.7-11.4,0c-2,0.7-3.1,2.7-3.3,3.8c0,0,1.9-2.5,4-2.6
			C260.1,584.9,268.7,585.7,269.3,585.7z"/>
		<path class="st47" d="M288.9,585.5c0,0-1-1.6,0.5-1.9c1.5-0.3,9.4-0.7,11.4,0c2,0.7,3.1,2.7,3.3,3.8c0,0-1.9-2.5-4-2.6
			C298.1,584.8,289.5,585.5,288.9,585.5z"/>
		<ellipse class="st48" cx="262.5" cy="591.8" rx="3.3" ry="3.8"/>
		<ellipse class="st48" cx="296.3" cy="591.6" rx="3.3" ry="3.8"/>
		<g>
			<defs>
				<path id="SVGID_57_" d="M288.3,609.9l-0.6,3c0,0-4.1,3.8-13.1,1.3c0,0-0.9-1.9-1-3.3C273.6,610.8,276.6,612.5,288.3,609.9z"/>
			</defs>
			<clipPath id="SVGID_58_">
				<use xlink:href="#SVGID_57_"  style="overflow:visible;"/>
			</clipPath>
			<path class="st49" d="M273.7,609.8l0.5,1.4c0,0,2.3,1.7,13.4,0.1v-2.1L273.7,609.8z"/>
		</g>
		<g>
			<path class="st23" d="M296.3,676.4l-0.1-8c-9.8,1.4-19.8,1.4-29.6,0.1c0.2,1.4,0.3,3.5,0.4,6.5c0,0.5,0,1.1,0,1.6
				C276.7,677.7,286.6,677.6,296.3,676.4z"/>
		</g>
		<g>
			<path class="st23" d="M296.4,683l-0.1-5.6c-9.7,1.4-19.5,1.4-29.2,0.2c0,1.9,0,3.8,0,5.6C276.8,684.4,286.7,684.3,296.4,683z"/>
		</g>
		<g>
			<path class="st23" d="M295.5,687.7l-0.1-3.5c-9.2,1.4-18.6,1.5-27.7,0.2c0,1.3,0,2.5,0,3.5C276.9,689.1,286.3,689,295.5,687.7z"
				/>
		</g>
		<g>
			<path class="st26" d="M258.3,729.9c0,0,2.4-1.4,0.3-4c-2.1-2.6-1-0.8-1-0.8s-0.4-4-0.6-5.5c-0.2-1.6-2.8,1-3.2,2.6
				C253.3,723.8,257,729.3,258.3,729.9z"/>
			<path class="st27" d="M254.5,730.1c0.1,0,3,2.9,3,2.9s2-0.8,1.5-2.3c-0.4-1.6-1.3-2.7-2-3.4c-0.7-0.7-2.5-3.2-2.6-4
				c-0.1-0.8,1.7-2.3,1.5-3c-0.2-0.6-0.8-1.1-1.2-0.8c-0.3,0.3-1.2,3.1-1.3,3.6c0,0-1.3,1.3-1.5,1.4c-0.1,0.1,0,0.9,0.2,1.5
				c0.2,0.6,1,2.3,1,2.3"/>
			<path class="st28" d="M250.9,728.3c0.1,0.1,1.4,6.4,1.7,7c0.2-0.1,1.1,0.4,2.7-0.7c1.5-1.1,0.3-4.9-0.1-5.5
				c-0.4-0.6-1.9-4.5-1.9-4.9c0-0.4,0.2-1.4,0.3-1.8C253.7,721.8,250.9,728.3,250.9,728.3z"/>
			<path class="st22" d="M255.2,710.8c0,0-4,8.8-4.5,10.2c-0.6,1.4-2.4,5.3-3.3,6.8c-1.5,2.5-4.1,4.7-4,5.2c0.5,1,2.7,2.7,5.1,0.6
				c2.4-2.1,3.7-5.9,4.2-7c0.5-1.1,2.5-5.3,4-5.5c0,0,0.3,1.7,0.3,2.3c0,0.7,0.6,2.7,0.9,3.3c0.4,0.8,5.9,2.7,7.1,0.1
				c0,0,0-0.2-0.8-1.1c-0.8-0.8-1.8-2.1-2.1-3.1c-0.2-1-0.8-0.7-0.5-2.5c0.2-1.8,0.4-1.2,0-2.7c-0.4-1.5-1-2.4-0.9-3.6
				c0-1.3,0.2-2.9,0.2-3.4c0-0.5-0.7-1.3-1.1-1.5c-0.4-0.2-4.7,1.7-4.7,1.7"/>
			<g>
				<path class="st23" d="M264.1,635.5c-3.1,0.5-9.1,41-9,39c0.4-4.9-1.7,23.2-0.8,36.5c0,0,1.4,1.3,4.8,1.6
					c2.6,0.3,3.6-0.8,3.6-0.8s1.2-37.2,1.3-37.7c0.1-1,3.5-22.9,3.5-23.4C267.5,650.2,264.9,635.4,264.1,635.5z"/>
				<path class="st23" d="M262.9,711.9c0,0,0-1.1,0.1-2.9c-5,0.8-8-0.8-9.1-1.5c0,1.2,0.1,2.4,0.2,3.5c0,0,1.5,1.3,5.1,1.7
					C261.9,713,262.9,711.9,262.9,711.9z"/>
			</g>
		</g>
		<g>
			<path class="st50" d="M250.8,586.3c0,0-0.5,9.7,0.1,9.8c1.6,0.3,12,2.6,22.2,0c0,0,1.6-5,0.4-7.9c-0.3-0.7-0.9-2.4-2.4-3
				C265.9,583.3,255.1,583.6,250.8,586.3z"/>
			<path class="st50" d="M306.6,586.3c0,0,0.5,9.7-0.1,9.8c-1.6,0.3-12,2.6-22.1,0c0,0-1.6-5-0.4-7.9c0.3-0.7,0.9-2.4,2.4-3
				C291.5,583.3,302.3,583.6,306.6,586.3z"/>
			<path class="st51" d="M307.3,585.6c-0.4-0.7-5.4-2.1-12.8-2.1c-7.4,0-10.4,0.3-10.9,2.3c0,0-1.9-0.8-4.7-0.9v0c0,0,0,0,0,0
				c0,0,0,0,0,0v0c-2.9,0.1-4.7,0.9-4.7,0.9c-0.5-2-3.6-2.3-11-2.3c-7.4,0-12.5,1.4-12.9,2.1c-0.4,0.7,0.1,9.2,0.1,9.2
				s0.1,1.7,0.7,1.6c1.1-0.2-0.3-8.5,1.6-9.6c1.9-1,16.8-2.2,18.6-0.5c1.8,1.8,2.2,5.7,2.1,8.5c0,1.3-0.5,1.5-0.1,1.6
				c0.4,0.1,0.9-0.4,1.3-1.3c0.7-1.7,0.1-7.7,4.4-7.7c4.2,0,3.6,6,4.3,7.7c0.4,0.9,0.9,1.4,1.3,1.3c0.4-0.1-0.1-0.2-0.1-1.6
				c-0.1-2.8,0.3-6.7,2.1-8.5c1.8-1.8,16.6-0.6,18.5,0.5c1.9,1,0.6,9.4,1.6,9.6c0.6,0.1,0.7-1.6,0.7-1.6S307.7,586.3,307.3,585.6z"
				/>
		</g>
		<g>
			<path class="st50" d="M250.8,599.1c0,0-0.5-9.7,0.1-9.8c1.6-0.3,12-2.6,22.2,0c0,0,1.6,5,0.4,7.9c-0.3,0.7-0.9,2.4-2.4,3
				C265.9,602.1,255.1,601.8,250.8,599.1z"/>
			<path class="st50" d="M306.6,599.1c0,0,0.5-9.7-0.1-9.8c-1.6-0.3-12-2.6-22.1,0c0,0-1.6,5-0.4,7.9c0.3,0.7,0.9,2.4,2.4,3
				C291.5,602.1,302.3,601.8,306.6,599.1z"/>
			<path class="st51" d="M274.9,594.1v-0.9c0,0,0-0.1,0-0.1c-0.2-1.1-0.3-2.1-0.5-2.7c-0.4-0.9-0.9-1.4-1.3-1.3
				c-0.4,0.1,0.1,0.2,0.1,1.6c0.1,2.8-0.3,6.7-2.1,8.5c-1.8,1.8-16.7,0.6-18.6-0.5c-1.9-1-0.6-9.4-1.6-9.6c-0.6-0.1-0.7,1.6-0.7,1.6
				s-0.5,8.5-0.1,9.2c0.4,0.7,5.5,2.1,12.9,2.1c6.2,0,9.3-0.2,10.5-1.4c0-0.2,0-0.4,0.1-0.6c0.2-0.4,0.3-0.8,0.5-1.1
				c0.1-1.5,0.5-2.9,0.8-4.3C274.9,594.3,274.9,594.2,274.9,594.1z"/>
			<path class="st51" d="M307.2,590.7c0,0-0.1-1.7-0.7-1.6c-1.1,0.2,0.2,8.5-1.6,9.6c-1.9,1-16.7,2.2-18.5,0.5
				c-1.8-1.8-2.2-5.7-2.1-8.5c0-1.3,0.5-1.5,0.1-1.6c-0.4-0.1-0.9,0.4-1.3,1.3c-0.3,0.8-0.4,2.7-0.8,4.3c0,0.2,0.1,0.4,0.1,0.6
				c0,0.1,0,0.2,0,0.3c0,0.1,0,0.3,0,0.4c-0.1,0.7,0,0.9,0.1,1.5c0.1,0.4,0.2,0.9,0.3,1.3c0,0.1,0.1,0.2,0.1,0.2
				c0.1,0.2,0.2,0.4,0.3,0.6c0.2-0.1,0.3-0.1,0.3-0.1c0.5,2,3.5,2.3,10.9,2.3c7.4,0,12.5-1.4,12.8-2.1
				C307.7,599.2,307.2,590.7,307.2,590.7z"/>
		</g>
		<path class="st23" d="M285.5,625.8c0,0-0.1,0-0.2-0.1c0.1,0.1,0.2,0.3,0.2,0.4c0,0.7-2.3,1.3-5.2,1.3c-2.8,0-5.2-0.6-5.2-1.3
			c0-0.1,0.1-0.2,0.2-0.4c-0.1,0-0.1,0-0.2,0.1l-0.4,4.8c0,0,4,3.8,11,0L285.5,625.8z"/>
	</g>
	<line class="st20" x1="442.3" y1="737.7" x2="464.3" y2="737.7"/>
	<line class="st20" x1="479.3" y1="737.7" x2="494.7" y2="737.7"/>
	<line class="st20" x1="509.6" y1="737.7" x2="531" y2="737.7"/>
	<line class="st20" x1="544.9" y1="737.7" x2="580.7" y2="737.7"/>
	<line class="st20" x1="590.6" y1="737.7" x2="612" y2="737.7"/>
	<line class="st20" x1="625.9" y1="737.7" x2="661.7" y2="737.7"/>
	<line class="st20" x1="678.9" y1="737.7" x2="714.7" y2="737.7"/>
	<line class="st20" x1="442.3" y1="765.7" x2="478.3" y2="765.7"/>
	<line class="st20" x1="505" y1="765.7" x2="541" y2="765.7"/>
	<line class="st20" x1="555.7" y1="765.7" x2="615.7" y2="765.7"/>
	<line class="st20" x1="630.5" y1="765.7" x2="666.3" y2="765.7"/>
	<g>
		<path d="M456.8,549.2h-7.4v-21.4h-6.7v-6.1h20.8v6.1h-6.7V549.2z"/>
		<path d="M480.4,549.2v-11.6c0-2.9-0.8-4.3-2.5-4.3c-1.2,0-2.1,0.5-2.7,1.5c-0.6,1-0.9,2.7-0.9,5v9.4H467v-29.3h7.4v4.2
			c0,1.9-0.1,4-0.3,6.4h0.3c0.7-1.1,1.5-1.9,2.5-2.3c1-0.5,2.1-0.7,3.4-0.7c2.4,0,4.2,0.7,5.6,2.1c1.3,1.4,2,3.3,2,5.8v13.9H480.4z"
			/>
		<path d="M503,549.5c-3.5,0-6.3-0.9-8.3-2.8c-2-1.9-2.9-4.6-2.9-8.1c0-3.6,0.9-6.4,2.7-8.3c1.8-1.9,4.4-2.9,7.8-2.9
			c3.2,0,5.7,0.8,7.4,2.5s2.6,4.1,2.6,7.2v3.3h-13.1c0.1,1.2,0.5,2.1,1.3,2.8c0.8,0.7,1.9,1,3.4,1c1.3,0,2.5-0.1,3.6-0.4
			c1.1-0.2,2.3-0.7,3.5-1.3v5.3c-1.2,0.6-2.3,1-3.6,1.2S504.7,549.5,503,549.5z M502.6,532.5c-0.9,0-1.6,0.3-2.2,0.8
			c-0.6,0.5-0.9,1.4-1,2.6h6.3c0-1-0.3-1.8-0.9-2.5C504.3,532.8,503.5,532.5,502.6,532.5z"/>
		<path d="M527,521.7h9.6c3.7,0,6.5,0.6,8.3,1.7s2.7,2.8,2.7,5.2c0,1.5-0.4,2.9-1.2,3.9c-0.8,1.1-1.8,1.8-3.1,2.1v0.2
			c1.7,0.5,2.9,1.2,3.7,2.3c0.8,1.1,1.1,2.4,1.1,4.1c0,2.5-0.9,4.5-2.8,5.9s-4.4,2.2-7.7,2.2H527V521.7z M534.4,532.2h2.2
			c1.1,0,1.9-0.2,2.5-0.7s0.9-1.1,0.9-2c0-1.5-1.2-2.3-3.5-2.3h-2.1V532.2z M534.4,537.7v5.8h2.6c2.3,0,3.5-1,3.5-2.9
			c0-0.9-0.3-1.6-0.9-2.1c-0.6-0.5-1.5-0.7-2.7-0.7H534.4z"/>
		<path d="M562.8,549.5c-3.5,0-6.3-0.9-8.3-2.8s-2.9-4.6-2.9-8.1c0-3.6,0.9-6.4,2.7-8.3c1.8-1.9,4.4-2.9,7.8-2.9
			c3.2,0,5.7,0.8,7.4,2.5c1.7,1.7,2.6,4.1,2.6,7.2v3.3H559c0.1,1.2,0.5,2.1,1.3,2.8c0.8,0.7,1.9,1,3.4,1c1.3,0,2.5-0.1,3.6-0.4
			c1.1-0.2,2.3-0.7,3.5-1.3v5.3c-1.2,0.6-2.3,1-3.6,1.2S564.5,549.5,562.8,549.5z M562.4,532.5c-0.9,0-1.6,0.3-2.2,0.8
			c-0.6,0.5-0.9,1.4-1,2.6h6.3c0-1-0.3-1.8-0.9-2.5C564.1,532.8,563.3,532.5,562.4,532.5z"/>
		<path d="M592.8,542.6c0,2.3-0.8,4-2.3,5.2c-1.6,1.2-3.8,1.7-6.7,1.7c-1.6,0-3-0.1-4.1-0.3c-1.2-0.2-2.4-0.5-3.6-0.9v-5.9
			c1.1,0.5,2.4,0.9,3.8,1.2c1.4,0.3,2.6,0.5,3.6,0.5c1.6,0,2.4-0.4,2.4-1.1c0-0.4-0.2-0.7-0.7-1c-0.4-0.3-1.7-0.9-3.9-1.7
			c-2-0.8-3.3-1.7-4.1-2.7c-0.8-1-1.2-2.3-1.2-3.9c0-2,0.8-3.5,2.3-4.6s3.7-1.7,6.5-1.7c1.4,0,2.7,0.2,4,0.5s2.5,0.8,3.8,1.3l-2,4.7
			c-1-0.4-2-0.8-3.1-1.1s-2-0.5-2.7-0.5c-1.2,0-1.8,0.3-1.8,0.9c0,0.4,0.2,0.7,0.6,0.9s1.6,0.8,3.6,1.6c1.5,0.6,2.6,1.2,3.3,1.8
			c0.7,0.6,1.3,1.3,1.6,2.1C592.6,540.5,592.8,541.5,592.8,542.6z"/>
		<path d="M607.3,543.7c1,0,2.2-0.2,3.6-0.7v5.4c-1,0.4-1.9,0.7-2.8,0.9c-0.9,0.2-1.9,0.3-3.1,0.3c-2.5,0-4.2-0.6-5.3-1.8
			c-1.1-1.2-1.6-3.1-1.6-5.6v-8.8h-2.6v-3l3.3-2.3l1.9-4.5h4.8v4.3h5.2v5.5h-5.2v8.3C605.3,543,606,543.7,607.3,543.7z"/>
		<path d="M470.4,575.6c0,4.6-1.1,8.1-3.4,10.5c-2.3,2.4-5.6,3.6-10,3.6c-4.3,0-7.6-1.2-9.9-3.6c-2.3-2.4-3.5-5.9-3.5-10.6
			c0-4.6,1.1-8.1,3.4-10.5c2.3-2.4,5.6-3.6,10-3.6c4.4,0,7.7,1.2,9.9,3.6C469.2,567.4,470.4,571,470.4,575.6z M451.4,575.6
			c0,5.3,1.8,8,5.5,8c1.9,0,3.3-0.6,4.2-1.9c0.9-1.3,1.4-3.3,1.4-6c0-2.7-0.5-4.8-1.4-6.1c-0.9-1.3-2.3-2-4.1-2
			C453.3,567.6,451.4,570.2,451.4,575.6z"/>
		<path d="M490.1,589.4l-0.9-2.7h-0.4c-0.6,1-1.5,1.7-2.6,2.2s-2.4,0.8-3.9,0.8c-2.3,0-4.2-0.7-5.5-2c-1.3-1.4-2-3.3-2-5.8v-13.9
			h7.4v11.6c0,1.4,0.2,2.4,0.6,3.2c0.4,0.7,1,1.1,1.9,1.1c1.3,0,2.2-0.5,2.7-1.5c0.5-1,0.8-2.7,0.8-5v-9.3h7.4v21.3H490.1z"/>
		<path d="M511.1,583.9c1,0,2.2-0.2,3.6-0.7v5.4c-1,0.4-1.9,0.7-2.8,0.9c-0.9,0.2-1.9,0.3-3.1,0.3c-2.5,0-4.2-0.6-5.3-1.8
			c-1.1-1.2-1.6-3.1-1.6-5.6v-8.8h-2.6v-3l3.3-2.3l1.9-4.5h4.8v4.3h5.2v5.5h-5.2v8.3C509.1,583.3,509.8,583.9,511.1,583.9z"/>
		<path d="M531.4,573.6h-4.5v15.8h-7.4v-15.8h-2.8V570l3-1.8v-0.4c0-2.8,0.6-4.8,1.7-6.1c1.1-1.2,3-1.8,5.5-1.8c1,0,1.9,0.1,2.8,0.2
			c0.9,0.2,1.9,0.4,3,0.8l-1.6,4.8c-0.9-0.3-1.8-0.4-2.7-0.4c-0.6,0-1,0.2-1.2,0.5s-0.4,0.9-0.4,1.7v0.6h4.5V573.6z M534.2,562.8
			c0-1.1,0.3-1.9,0.9-2.5c0.6-0.5,1.6-0.8,3-0.8s2.4,0.3,3,0.8c0.6,0.6,0.9,1.4,0.9,2.4c0,2.2-1.3,3.2-3.9,3.2
			C535.5,566,534.2,564.9,534.2,562.8z M541.7,589.4h-7.4v-21.3h7.4V589.4z"/>
		<path d="M557.3,583.9c1,0,2.2-0.2,3.6-0.7v5.4c-1,0.4-1.9,0.7-2.8,0.9c-0.9,0.2-1.9,0.3-3.1,0.3c-2.5,0-4.2-0.6-5.3-1.8
			c-1.1-1.2-1.6-3.1-1.6-5.6v-8.8h-2.6v-3l3.3-2.3l1.9-4.5h4.8v4.3h5.2v5.5h-5.2v8.3C555.3,583.3,555.9,583.9,557.3,583.9z"/>
		<path d="M563.6,586.3c0-1.2,0.3-2,1-2.7c0.7-0.6,1.7-0.9,3-0.9c1.2,0,2.2,0.3,2.9,0.9c0.7,0.6,1,1.5,1,2.7c0,1.1-0.3,2-1,2.6
			c-0.7,0.6-1.6,0.9-2.8,0.9c-1.2,0-2.2-0.3-2.9-0.9C564,588.3,563.6,587.4,563.6,586.3z"/>
		<path d="M574.7,586.3c0-1.2,0.3-2,1-2.7c0.7-0.6,1.7-0.9,3-0.9c1.2,0,2.2,0.3,2.9,0.9c0.7,0.6,1,1.5,1,2.7c0,1.1-0.3,2-1,2.6
			c-0.7,0.6-1.6,0.9-2.8,0.9c-1.2,0-2.2-0.3-2.9-0.9C575.1,588.3,574.7,587.4,574.7,586.3z"/>
		<path d="M585.9,586.3c0-1.2,0.3-2,1-2.7c0.7-0.6,1.7-0.9,3-0.9c1.2,0,2.2,0.3,2.9,0.9c0.7,0.6,1,1.5,1,2.7c0,1.1-0.3,2-1,2.6
			c-0.7,0.6-1.6,0.9-2.8,0.9c-1.2,0-2.2-0.3-2.9-0.9C586.2,588.3,585.9,587.4,585.9,586.3z"/>
		<path d="M614.7,589.4h-16.3v-27.5h16.3v6h-8.9v4.3h8.2v6h-8.2v5.2h8.9V589.4z"/>
		<path d="M634.9,561.9h8.3l-9,27.5h-8.7l-9-27.5h8.3l3.7,13.9c0.8,3.1,1.2,5.3,1.3,6.5c0.1-0.9,0.3-2,0.5-3.3s0.5-2.4,0.7-3.1
			L634.9,561.9z"/>
		<path d="M662.5,589.4h-16.3v-27.5h16.3v6h-8.9v4.3h8.2v6h-8.2v5.2h8.9V589.4z"/>
		<path d="M674.8,579.4v10h-7.4v-27.5h9c7.5,0,11.2,2.7,11.2,8.1c0,3.2-1.6,5.6-4.7,7.4l8,12h-8.4l-5.8-10H674.8z M674.8,573.8h1.4
			c2.6,0,3.9-1.1,3.9-3.4c0-1.9-1.3-2.8-3.8-2.8h-1.5V573.8z"/>
		<path d="M692.1,586.3c0-1.2,0.3-2,1-2.7c0.7-0.6,1.7-0.9,3-0.9c1.2,0,2.2,0.3,2.9,0.9c0.7,0.6,1,1.5,1,2.7c0,1.1-0.3,2-1,2.6
			c-0.7,0.6-1.6,0.9-2.8,0.9c-1.2,0-2.2-0.3-2.9-0.9C692.4,588.3,692.1,587.4,692.1,586.3z"/>
	</g>
</g>
<g id="solution-shop">
	<rect x="196" y="647.6" class="st52" width="184.3" height="61.3"/>
	<g>
		<path class="st53" d="M225.3,683.6c0,1.2-0.3,2.3-0.9,3.2c-0.6,0.9-1.5,1.6-2.6,2.2c-1.1,0.5-2.5,0.8-4,0.8
			c-1.3,0-2.4-0.1-3.2-0.3c-0.9-0.2-1.8-0.5-2.7-0.9v-4.6c1,0.5,2,0.9,3.1,1.2c1.1,0.3,2.1,0.4,3,0.4c0.8,0,1.3-0.1,1.7-0.4
			c0.4-0.3,0.5-0.6,0.5-1c0-0.3-0.1-0.5-0.2-0.7c-0.1-0.2-0.4-0.4-0.7-0.6s-1.2-0.6-2.6-1.2c-1.3-0.6-2.2-1.1-2.8-1.7
			c-0.6-0.5-1.1-1.2-1.4-1.8c-0.3-0.7-0.5-1.5-0.5-2.5c0-1.8,0.6-3.2,1.9-4.2s3.1-1.5,5.3-1.5c2,0,4,0.5,6.1,1.4l-1.6,4
			c-1.8-0.8-3.4-1.2-4.7-1.2c-0.7,0-1.2,0.1-1.5,0.4s-0.5,0.5-0.5,0.9c0,0.4,0.2,0.7,0.6,1c0.4,0.3,1.5,0.8,3.2,1.6
			c1.7,0.7,2.8,1.5,3.5,2.4C225,681.2,225.3,682.3,225.3,683.6z"/>
		<path class="st53" d="M244.8,689.5h-5.2v-7.9h-6.1v7.9h-5.2v-19.3h5.2v7.1h6.1v-7.1h5.2V689.5z"/>
		<path class="st53" d="M267,679.8c0,3.2-0.8,5.7-2.4,7.4s-3.9,2.5-7,2.5c-3,0-5.3-0.8-7-2.5s-2.4-4.2-2.4-7.4
			c0-3.2,0.8-5.7,2.4-7.4c1.6-1.7,3.9-2.5,7-2.5c3.1,0,5.4,0.8,7,2.5S267,676.5,267,679.8z M253.7,679.8c0,3.7,1.3,5.6,3.9,5.6
			c1.3,0,2.3-0.5,2.9-1.4s1-2.3,1-4.2c0-1.9-0.3-3.3-1-4.3c-0.6-0.9-1.6-1.4-2.9-1.4C255,674.2,253.7,676,253.7,679.8z"/>
		<path class="st53" d="M284.5,676.3c0,2.2-0.6,3.8-1.9,5c-1.3,1.2-3.1,1.8-5.4,1.8h-1.5v6.4h-5.2v-19.3h6.7c2.4,0,4.3,0.5,5.5,1.6
			S284.5,674.4,284.5,676.3z M275.7,678.8h0.9c0.8,0,1.4-0.2,1.9-0.7c0.5-0.4,0.7-1,0.7-1.8c0-1.3-0.7-2-2.2-2h-1.3V678.8z"/>
		<path class="st53" d="M312.9,689.5h-6.8l-7-13.6h-0.1c0.2,2.1,0.3,3.8,0.3,4.9v8.7h-4.6v-19.3h6.8l7,13.4h0.1
			c-0.1-1.9-0.2-3.5-0.2-4.7v-8.7h4.6V689.5z"/>
		<path class="st53" d="M335.1,679.8c0,3.2-0.8,5.7-2.4,7.4s-3.9,2.5-7,2.5c-3,0-5.3-0.8-7-2.5s-2.4-4.2-2.4-7.4
			c0-3.2,0.8-5.7,2.4-7.4c1.6-1.7,3.9-2.5,7-2.5c3.1,0,5.4,0.8,7,2.5S335.1,676.5,335.1,679.8z M321.8,679.8c0,3.7,1.3,5.6,3.9,5.6
			c1.3,0,2.3-0.5,2.9-1.4s1-2.3,1-4.2c0-1.9-0.3-3.3-1-4.3c-0.6-0.9-1.6-1.4-2.9-1.4C323.1,674.2,321.8,676,321.8,679.8z"/>
		<path class="st53" d="M359.4,689.5h-6.2l-1.8-8.4c-0.1-0.4-0.2-1.1-0.4-2.1c-0.2-1-0.3-1.9-0.4-2.6c-0.1,0.6-0.2,1.3-0.3,2.1
			c-0.2,0.8-0.3,1.6-0.5,2.3s-0.8,3.6-1.9,8.6h-6.2l-4.8-19.3h5l2.1,9.7c0.5,2.1,0.8,3.8,1,5.1c0.1-0.9,0.3-2.1,0.6-3.7
			s0.6-2.8,0.8-3.8l1.7-7.3h4.8l1.6,7.3c0.3,1.2,0.6,2.5,0.9,4s0.5,2.7,0.6,3.4c0.1-1,0.4-2.7,0.9-5.1l2.1-9.7h5L359.4,689.5z"/>
	</g>
</g>
<g id="solution-cart-holder">
	<defs>
		<rect id="SVGID_59_" x="592.6" y="414" width="218.4" height="417"/>
	</defs>
	<clipPath id="SVGID_60_">
		<use xlink:href="#SVGID_59_"  style="overflow:visible;"/>
	</clipPath>
	<g id="solution-cart" class="st54">
		<rect x="672.7" y="501.8" class="st55" width="139.3" height="242.6"/>
		<g>
			<g>
				<defs>
					<path id="SVGID_61_" d="M723.8,564.7l-9.7-4.3l-6.7,1.2c0,0-5.6,3.1-6.8,4.5c0,0,0,0,0,0.1c-2.1,1.7,1.4,11.2,1.5,16.7
						c0.5,7.8,1.4,21.7,1.4,21.7s0.4,2.4,9.3,2.5c8.9,0.1,8.4-1.4,8.4-1.4c1.4-1.4,1.4-22.6,1.5-28.4
						C722.8,571,723.8,564.7,723.8,564.7z"/>
				</defs>
				<clipPath id="SVGID_62_">
					<use xlink:href="#SVGID_61_"  style="overflow:visible;"/>
				</clipPath>
				<rect x="697.3" y="557.7" class="st56" width="29.2" height="51.9"/>
			</g>
			<g>
				<defs>
					<path id="SVGID_63_" d="M712.9,576.1c-0.3,0-0.5,0.1-0.6,0.2c-0.2,0.2-0.2,0.4-0.2,0.6c0,0.5,0.3,1,0.7,1.4
						c0.5,0.4,1.1,0.5,1.9,0.5c0-0.7-0.2-1.4-0.4-1.9C713.9,576.3,713.5,576.1,712.9,576.1z M714.6,579.9h-0.9c-0.4,0-1-0.2-1.5-0.5
						c-0.6-0.3-1-0.7-1.2-1.3c-0.2,0.4-0.4,0.9-0.6,1.3c0.1,1.4,0.2,2.3,0.3,2.9c0.2,0.6,0.5,0.9,0.9,0.9c0.6,0,1.3-0.3,1.9-0.8
						C714.1,581.9,714.4,581.1,714.6,579.9z M712.1,571c0-0.7-0.1-1.1-0.3-1.1c-0.2,0-0.4,0.4-0.6,1.2s-0.4,1.9-0.6,3.2
						c-0.2,1.3-0.3,2.6-0.3,4C711.5,574.8,712.1,572.4,712.1,571z M713.3,575.1c0.8,0,1.5,0.3,2.1,0.9c0.5,0.6,0.8,1.4,0.8,2.5
						c0.7-0.2,1.4-0.5,2-0.8c0.6-0.3,0.9-0.5,0.9-0.5c0.1,0,0.2,0.1,0.2,0.3c0,0.2-0.3,0.5-0.8,0.8c-0.5,0.4-1.3,0.7-2.3,1.1
						c-0.2,1.6-0.9,2.8-2,3.7c-1.1,0.8-2.2,1.3-3.3,1.3c-1.1,0-1.9-0.4-2.2-1.2c-0.4-0.8-0.5-2.1-0.5-3.8s0.1-3.3,0.4-4.9
						c0.3-1.5,0.6-2.8,1-3.6c0.4-0.9,0.8-1.6,1.3-2c0.4-0.4,0.8-0.7,1.2-0.7c0.2,0,0.4,0.2,0.5,0.6c0.2,0.4,0.2,1,0.2,1.6
						c0,1.4-0.3,3-0.8,4.8C712.4,575.2,712.8,575.1,713.3,575.1z"/>
				</defs>
				<clipPath id="SVGID_64_">
					<use xlink:href="#SVGID_63_"  style="overflow:visible;"/>
				</clipPath>
				<rect x="705.6" y="565.7" class="st57" width="16.4" height="21.5"/>
			</g>
			<g>
				<defs>
					<path id="SVGID_65_" d="M722.8,596.8l-0.1-3.8c-6.7,1-13.5,1-20.1,0.1c0,1.3,0.1,2.5,0.1,3.8
						C709.3,597.7,716.1,597.7,722.8,596.8z"/>
				</defs>
				<clipPath id="SVGID_66_">
					<use xlink:href="#SVGID_65_"  style="overflow:visible;"/>
				</clipPath>
				<rect x="699.9" y="590.4" class="st58" width="25.5" height="9.7"/>
			</g>
			<g>
				<defs>
					<path id="SVGID_67_" d="M722.9,592.1l-0.1-5.4c-6.7,1-13.6,1-20.4,0.1c0.1,1,0.3,2.3,0.3,4.3c0,0.4,0,0.7,0.1,1.1
						C709.5,593,716.3,592.9,722.9,592.1z"/>
				</defs>
				<clipPath id="SVGID_68_">
					<use xlink:href="#SVGID_67_"  style="overflow:visible;"/>
				</clipPath>
				<rect x="699.8" y="584.1" class="st59" width="25.8" height="11.3"/>
			</g>
			<g>
				<defs>
					<path id="SVGID_69_" d="M722.4,599.7l-0.1-2.4c-6.3,1-12.8,1-19.1,0.1v2.4C709.6,600.7,716.1,600.6,722.4,599.7z"/>
				</defs>
				<clipPath id="SVGID_70_">
					<use xlink:href="#SVGID_69_"  style="overflow:visible;"/>
				</clipPath>
				<rect x="700.6" y="594.7" class="st60" width="24.4" height="8.4"/>
			</g>
			<g>
				<defs>
					<path id="SVGID_71_" d="M700.8,565.8c-2.2,0.3-6.3,27.5-6.2,26.1c0.3-3.3-1.2,15.5-0.5,24.4c0,0,1,0.8,3.3,1.1
						c1.8,0.2,2.5-0.5,2.5-0.5s0.8-24.9,0.9-25.3c0.1-0.7,2.4-15.3,2.4-15.7C703.2,575.7,701.4,565.8,700.8,565.8z"/>
				</defs>
				<clipPath id="SVGID_72_">
					<use xlink:href="#SVGID_71_"  style="overflow:visible;"/>
				</clipPath>
				<rect x="691.2" y="563.2" class="st61" width="14.6" height="56.9"/>
			</g>
			<g>
				<defs>
					<path id="SVGID_73_" d="M700,617c0,0,0-0.7,0.1-1.9c-3.4,0.5-5.6-0.5-6.2-1c0.1,0.8,0.1,1.6,0.1,2.3c0,0,1.1,0.9,3.5,1.1
						C699.3,617.8,700,617,700,617z"/>
				</defs>
				<clipPath id="SVGID_74_">
					<use xlink:href="#SVGID_73_"  style="overflow:visible;"/>
				</clipPath>
				<rect x="691.2" y="611.5" class="st62" width="11.5" height="8.8"/>
			</g>
			<g>
				<defs>
					<path id="SVGID_75_" d="M723.7,565.3c2.2,0.3,6.3,27.5,6.2,26.1c-0.3-3.3,1.2,15.5,0.5,24.4c0,0-1,0.8-3.3,1.1
						c-1.8,0.2-2.5-0.5-2.5-0.5s-0.8-24.9-0.9-25.3c-0.1-0.7-2.4-15.3-2.4-15.7C721.3,575.1,723.1,565.2,723.7,565.3z"/>
				</defs>
				<clipPath id="SVGID_76_">
					<use xlink:href="#SVGID_75_"  style="overflow:visible;"/>
				</clipPath>
				<rect x="718.6" y="562.6" class="st63" width="14.6" height="56.9"/>
			</g>
			<g>
				<defs>
					<path id="SVGID_77_" d="M724.5,616.5c0,0,0-0.7-0.1-1.9c3.4,0.5,5.6-0.5,6.2-1c-0.1,0.8-0.1,1.6-0.1,2.3c0,0-1.1,0.9-3.5,1.1
						C725.2,617.2,724.5,616.5,724.5,616.5z"/>
				</defs>
				<clipPath id="SVGID_78_">
					<use xlink:href="#SVGID_77_"  style="overflow:visible;"/>
				</clipPath>
				<rect x="721.8" y="610.9" class="st64" width="11.5" height="8.7"/>
			</g>
			<g>
				<defs>
					<path id="SVGID_79_" d="M715.5,558.2c0,0-0.1-0.1-0.2-0.1c0.1,0.1,0.2,0.2,0.2,0.3c0,0.5-1.6,0.9-3.5,0.9c-2,0-3.5-0.4-3.5-0.9
						c0-0.1,0.1-0.2,0.1-0.3c-0.1,0-0.1,0.1-0.1,0.1l-0.3,3.2c0,0,2.8,2.5,7.6,0L715.5,558.2z"/>
				</defs>
				<clipPath id="SVGID_80_">
					<use xlink:href="#SVGID_79_"  style="overflow:visible;"/>
				</clipPath>
				<rect x="705.5" y="555.5" class="st65" width="12.9" height="9.6"/>
			</g>
		</g>
		<rect x="691.8" y="715.5" width="102.5" height="18.4"/>
		<line class="st20" x1="693.8" y1="628.3" x2="729.8" y2="628.3"/>
		<line class="st20" x1="691.3" y1="692.9" x2="727.3" y2="692.9"/>
		<line class="st20" x1="749.2" y1="628.3" x2="785.2" y2="628.3"/>
		<g>
			<path class="st66" d="M764.1,551.8h-5.2l-0.5,13.9c0.2-0.1,0.4-0.3,0.5-0.4C762.5,562.3,764.2,557.8,764.1,551.8z"/>
			<path class="st66" d="M780.2,565.4c0.2,0.1,0.3,0.3,0.5,0.4l-1-13.9H775C774.8,557.8,776.6,562.4,780.2,565.4z"/>
			<g>
				<path class="st66" d="M780.6,570.7l0.1-4.3c-0.2-0.2-0.5-0.4-0.7-0.6c-2.6-2.1-5.6-6.3-5.4-14h-10.2c0.2,7.7-2.8,11.8-5.4,13.9
					c-0.3,0.2-0.5,0.4-0.8,0.6l0.2,5.1l0.4,22.2l-0.5,24.1l6.5,0.1l1.9-24.5l3.5-27.1l3.9,27.4l2.4,24.1l6.6,0.1l-2-25L780.6,570.7z
					 M770.9,566c0,0.1-0.1,0.2-0.1,0.2c0,0,0,0-0.1,0c-0.2,0-0.7-0.1-1.3-0.8c-1.3-1.7-1.3-5.6-1.2-8.5c0-0.1,0.1-0.2,0.1-0.2h2.4
					c0.1,0,0.1,0.1,0.1,0.2V566z"/>
				<path class="st66" d="M769.6,565.1c0.4,0.6,0.8,0.7,1,0.7v-8.7h-2.1C768.3,562.1,769,564.2,769.6,565.1z"/>
			</g>
			<path class="st67" d="M779.7,553.9h-20.9c-0.1,0-0.1,0.1-0.1,0.2c0,0.1,0,0.2,0.1,0.2h20.9c0.1,0,0.1-0.1,0.1-0.2
				C779.8,554,779.8,553.9,779.7,553.9z"/>
		</g>
		<g>
			<defs>
				<rect id="SVGID_81_" x="689.3" y="652.6" width="49" height="25.7"/>
			</defs>
			<clipPath id="SVGID_82_">
				<use xlink:href="#SVGID_81_"  style="overflow:visible;"/>
			</clipPath>
			<g class="st68">
				<defs>
					<rect id="SVGID_83_" x="689.3" y="652.6" width="49" height="25.7"/>
				</defs>
				<clipPath id="SVGID_84_">
					<use xlink:href="#SVGID_83_"  style="overflow:visible;"/>
				</clipPath>
				<g class="st69">
					<g>
						<defs>
							<rect id="SVGID_85_" x="684.2" y="659.3" width="28.8" height="17.6"/>
						</defs>
						<clipPath id="SVGID_86_">
							<use xlink:href="#SVGID_85_"  style="overflow:visible;"/>
						</clipPath>
						<rect x="691.5" y="664.9" class="st70" width="14.3" height="11.2"/>
					</g>
				</g>
				<g class="st69">
					<g>
						<defs>
							<rect id="SVGID_87_" x="706.4" y="659.3" width="28.8" height="17.6"/>
						</defs>
						<clipPath id="SVGID_88_">
							<use xlink:href="#SVGID_87_"  style="overflow:visible;"/>
						</clipPath>
						<rect x="713.6" y="664.9" class="st71" width="14.3" height="11.2"/>
					</g>
				</g>
				<path class="st72" d="M692.4,666.5l12-10.8l-0.7-0.8l0.5,0.9l-0.1-0.2l0.1,0.2l-0.1-0.2l0.1,0.2c0,0,0.5-0.3,1.2-0.6
					c0.3-0.1,0.7-0.3,1.1-0.4c0.3-0.1,0.7-0.2,0.9-0.2c0.1,0,0.2,0,0.2,0l0,0l0,0l0-0.1l-0.1,0l0,0l0-0.1l-0.1,0l0,0l0,0l0,0l0,0
					l0,0c0,0,0,0,0,0.1l2.1-0.2c0-0.3-0.1-0.6-0.3-0.9c-0.2-0.4-0.6-0.7-1-0.9c-0.4-0.2-0.8-0.2-1.1-0.2c-0.5,0-1,0.1-1.5,0.2
					c-0.7,0.2-1.4,0.5-1.9,0.7c-0.5,0.2-0.8,0.4-0.8,0.4l-0.1,0.1L691,665L692.4,666.5z"/>
				<path class="st72" d="M705.1,666.6L705.1,666.6c0,0,0.6-0.4,1.5-0.7c0.9-0.3,2-0.7,3.1-0.6c0.6,0,1.1,0.1,1.7,0.3
					c0.5,0.2,1,0.5,1.5,0.9l1.5-1.5c-0.7-0.7-1.4-1.1-2.2-1.4c-0.8-0.3-1.6-0.4-2.4-0.4c-1.5,0-3,0.4-4,0.8c-1,0.4-1.7,0.8-1.8,0.8
					L705.1,666.6z"/>
				<path class="st72" d="M703.1,677.2v-1h-9.5c-0.6,0-1.2-0.3-1.6-0.7c-0.4-0.4-0.7-1-0.7-1.6v-5.5c0-0.6,0.3-1.2,0.7-1.6
					c0.4-0.4,1-0.7,1.6-0.7h9.5c0.6,0,1.2,0.3,1.6,0.7c0.4,0.4,0.7,1,0.7,1.6v5.5c0,0.6-0.3,1.2-0.7,1.6c-0.4,0.4-1,0.7-1.6,0.7
					V677.2v1c2.4,0,4.3-1.9,4.3-4.3v-5.5c0-2.4-1.9-4.3-4.3-4.3h-9.5c-2.4,0-4.3,1.9-4.3,4.3v5.5c0,1.2,0.5,2.3,1.3,3.1
					c0.8,0.8,1.9,1.3,3.1,1.3h9.5V677.2z"/>
				<path class="st72" d="M725.5,677.2v-1H716c-0.6,0-1.2-0.3-1.6-0.7c-0.4-0.4-0.7-1-0.7-1.6v-5.5c0-0.6,0.3-1.2,0.7-1.6
					c0.4-0.4,1-0.7,1.6-0.7h9.5c0.6,0,1.2,0.3,1.6,0.7c0.4,0.4,0.7,1,0.7,1.6v5.5c0,0.6-0.3,1.2-0.7,1.6c-0.4,0.4-1,0.7-1.6,0.7
					V677.2v1c2.4,0,4.3-1.9,4.3-4.3v-5.5c0-2.4-1.9-4.3-4.3-4.3H716c-2.4,0-4.3,1.9-4.3,4.3v5.5c0,1.2,0.5,2.3,1.3,3.1
					c0.8,0.8,1.9,1.3,3.1,1.3h9.5V677.2z"/>
				<path class="st72" d="M729,666.3l6.3-9.2l-0.9-0.6l0.7,0.8l-0.1-0.1l0.1,0.1l0,0l-0.1-0.1l0.1,0.1c0,0,0.3-0.2,0.6-0.4
					c0.2-0.1,0.3-0.2,0.5-0.3c0.1-0.1,0.3-0.1,0.3-0.1v-0.2l-0.1,0.2c0,0,0.1,0,0.1,0v-0.2l-0.1,0.2l0.1-0.4l-0.4,0.2
					c0,0.1,0.1,0.1,0.2,0.2l0.1-0.4l-0.4,0.2l0.2-0.1l-0.2,0.1l0,0l0.2-0.1l-0.2,0.1l0,0l0,0l0,0l0,0l0,0c0,0,0,0,0,0.1l2.1-0.2
					c0-0.2-0.1-0.5-0.2-0.7c-0.1-0.3-0.4-0.6-0.7-0.8c-0.3-0.2-0.7-0.3-0.9-0.3c-0.4,0-0.8,0.1-1.1,0.2c-0.5,0.2-0.9,0.4-1.2,0.6
					c-0.3,0.2-0.5,0.4-0.5,0.4l-0.1,0.1l-6.3,9.3L729,666.3z"/>
			</g>
			<line class="st73" x1="693.6" y1="671.1" x2="697.9" y2="668.5"/>
			<line class="st73" x1="696.9" y1="672.6" x2="701.2" y2="670"/>
			<line class="st73" x1="716" y1="672.6" x2="720.4" y2="670"/>
			<line class="st73" x1="721.2" y1="672.8" x2="725.5" y2="670.2"/>
		</g>
		<g>
			<path class="st74" d="M717.4,723.2c0,1-0.3,1.7-0.8,2.2s-1.4,0.8-2.4,0.8h-0.7v2.8h-2.3v-8.6h3c1.1,0,1.9,0.2,2.4,0.7
				S717.4,722.3,717.4,723.2z M713.5,724.3h0.4c0.3,0,0.6-0.1,0.8-0.3s0.3-0.5,0.3-0.8c0-0.6-0.3-0.9-1-0.9h-0.6V724.3z"/>
			<path class="st74" d="M726.1,720.4v5.2c0,1.1-0.3,2-1,2.6s-1.5,0.9-2.7,0.9c-1.2,0-2.1-0.3-2.7-0.9s-0.9-1.5-0.9-2.6v-5.2h2.3v5
				c0,0.6,0.1,1,0.3,1.3s0.6,0.4,1,0.4c0.5,0,0.8-0.1,1-0.4s0.3-0.7,0.3-1.3v-5H726.1z"/>
			<path class="st74" d="M730.2,725.9v3.1h-2.3v-8.6h2.8c2.3,0,3.5,0.8,3.5,2.5c0,1-0.5,1.8-1.5,2.3l2.5,3.7h-2.6l-1.8-3.1H730.2z
				 M730.2,724.1h0.4c0.8,0,1.2-0.4,1.2-1.1c0-0.6-0.4-0.9-1.2-0.9h-0.5V724.1z"/>
			<path class="st74" d="M739.8,722.2c-0.6,0-1,0.2-1.3,0.7s-0.5,1.1-0.5,1.9c0,1.6,0.6,2.5,1.9,2.5c0.4,0,0.7-0.1,1.1-0.2
				s0.7-0.2,1.1-0.4v2c-0.7,0.3-1.5,0.5-2.4,0.5c-1.3,0-2.3-0.4-3-1.1s-1-1.8-1-3.3c0-0.9,0.2-1.7,0.5-2.3s0.8-1.2,1.4-1.5
				s1.4-0.5,2.2-0.5c0.9,0,1.8,0.2,2.7,0.6l-0.7,1.8c-0.3-0.1-0.6-0.3-0.9-0.4S740.2,722.2,739.8,722.2z"/>
			<path class="st74" d="M751.1,729h-2.3v-3.5h-2.7v3.5h-2.3v-8.6h2.3v3.2h2.7v-3.2h2.3V729z"/>
			<path class="st74" d="M758.2,729l-0.4-1.6H755l-0.4,1.6H752l2.8-8.6h3.1l2.8,8.6H758.2z M757.3,725.5l-0.4-1.4
				c-0.1-0.3-0.2-0.7-0.3-1.2s-0.2-0.9-0.2-1.1c0,0.2-0.1,0.5-0.2,1s-0.3,1.4-0.7,2.7H757.3z"/>
			<path class="st74" d="M767.3,726.4c0,0.5-0.1,1-0.4,1.4s-0.7,0.7-1.2,1s-1.1,0.3-1.8,0.3c-0.6,0-1,0-1.4-0.1s-0.8-0.2-1.2-0.4
				v-2.1c0.4,0.2,0.9,0.4,1.4,0.5s0.9,0.2,1.3,0.2c0.3,0,0.6-0.1,0.8-0.2s0.2-0.3,0.2-0.5c0-0.1,0-0.2-0.1-0.3s-0.2-0.2-0.3-0.3
				s-0.5-0.3-1.1-0.6c-0.6-0.3-1-0.5-1.3-0.7s-0.5-0.5-0.6-0.8s-0.2-0.7-0.2-1.1c0-0.8,0.3-1.4,0.9-1.8s1.4-0.7,2.4-0.7
				c0.9,0,1.8,0.2,2.7,0.6l-0.7,1.8c-0.8-0.4-1.5-0.6-2.1-0.6c-0.3,0-0.5,0.1-0.7,0.2s-0.2,0.2-0.2,0.4c0,0.2,0.1,0.3,0.3,0.5
				s0.6,0.4,1.4,0.7c0.7,0.3,1.3,0.7,1.5,1.1S767.3,725.8,767.3,726.4z"/>
			<path class="st74" d="M773.7,729h-5.1v-8.6h5.1v1.9h-2.8v1.3h2.6v1.9h-2.6v1.6h2.8V729z"/>
		</g>
		<g>
			<g>
				<defs>
					<path id="SVGID_89_" d="M699.1,524.7v-2.1h-2.5C697.6,523,698.4,523.7,699.1,524.7z M699.1,517.1h4.9v10.1h-4.9v-0.1
						c-1.1-1.7-2.8-3.1-4.9-4v4.1h-4.9V517h4.9v4.1h4.9C699.1,521.2,699.1,517.1,699.1,517.1z"/>
				</defs>
				<clipPath id="SVGID_90_">
					<use xlink:href="#SVGID_89_"  style="overflow:visible;"/>
				</clipPath>
				<rect x="687.2" y="515" class="st75" width="18.8" height="14.2"/>
			</g>
			<g>
				<defs>
					<path id="SVGID_91_" d="M719.8,525.3v1.6c-0.8,0.3-2,0.5-3.7,0.5c-0.6,0-1.2,0-1.7-0.2c-0.7-0.2-1.3-0.4-1.5-0.7
						c-1,0.6-2.2,0.8-3.5,0.8c-1,0-1.9-0.2-2.7-0.5c-1.1-0.5-1.6-1.1-1.6-2v-4.4h4.8v3.7c0,0.4,0.1,0.6,0.4,0.8
						c0.2,0.2,0.5,0.3,0.9,0.3s0.7-0.1,0.9-0.3c0.2-0.2,0.4-0.5,0.4-0.8v-3.7h4.9v3.8c0,0.4,0.1,0.7,0.4,0.9
						c0.2,0.2,0.6,0.3,0.9,0.3c0.2,0,0.4,0,0.6-0.1C719.5,525.3,719.7,525.3,719.8,525.3z"/>
				</defs>
				<clipPath id="SVGID_92_">
					<use xlink:href="#SVGID_91_"  style="overflow:visible;"/>
				</clipPath>
				<rect x="702.8" y="518.5" class="st76" width="19" height="10.9"/>
			</g>
			<g>
				<defs>
					<path id="SVGID_93_" d="M732.4,522.7h-1.8c0,1.9-0.6,3.2-1.8,3.9c-0.9,0.5-2.4,0.8-4.4,0.8c-1,0-1.9-0.2-2.9-0.7
						c-1.2-0.5-1.7-1.3-1.7-2.1v-7.5h4.9v6.4c0,0.5,0.2,0.9,0.5,1.3s0.8,0.5,1.3,0.5c0.6,0,1.1-0.2,1.5-0.6c0.4-0.4,0.6-0.9,0.6-1.5
						v-0.6h-0.2c-0.5,0-1-0.1-1.4-0.4c-0.4-0.3-0.7-0.7-0.7-1.2s0.2-0.9,0.6-1.2c0.4-0.2,0.8-0.4,1.3-0.4c0.4,0,0.9,0.1,1.3,0.2
						c0.4,0.2,0.8,0.4,1,0.7h2V522.7z"/>
				</defs>
				<clipPath id="SVGID_94_">
					<use xlink:href="#SVGID_93_"  style="overflow:visible;"/>
				</clipPath>
				<rect x="717.7" y="515.1" class="st77" width="16.8" height="14.3"/>
			</g>
			<g>
				<defs>
					<path id="SVGID_95_" d="M745.5,529.9h-4.6v-3.2c-0.6,0.4-1.7,0.6-3.5,0.6c-1.2,0-2.2-0.2-3.3-0.7c-1.3-0.6-1.9-1.4-1.9-2.4
						c0-1.2,0.5-2.2,1.6-2.8c0.9-0.6,2-0.9,3.3-0.9h3.1v2h-0.4c-0.7,0-1.2,0.1-1.6,0.2c-0.6,0.2-0.9,0.7-0.9,1.2
						c0,0.9,0.7,1.3,2,1.3c0.5,0,0.9-0.1,1.2-0.4s0.4-0.6,0.4-1.1v-1.3v-1.3v-0.8h4.5L745.5,529.9z"/>
				</defs>
				<clipPath id="SVGID_96_">
					<use xlink:href="#SVGID_95_"  style="overflow:visible;"/>
				</clipPath>
				<rect x="730.3" y="518.4" class="st78" width="17.2" height="13.5"/>
			</g>
			<g>
				<defs>
					<path id="SVGID_97_" d="M761.3,525.3v1.6c-0.8,0.3-2,0.5-3.7,0.5c-0.6,0-1.2,0-1.7-0.2c-0.7-0.2-1.3-0.4-1.5-0.7
						c-1,0.6-2.2,0.8-3.5,0.8c-1,0-1.9-0.2-2.7-0.5c-1.1-0.5-1.6-1.1-1.6-2v-4.4h4.8v3.7c0,0.4,0.1,0.6,0.4,0.8
						c0.2,0.2,0.5,0.3,0.9,0.3s0.7-0.1,0.9-0.3c0.2-0.2,0.4-0.5,0.4-0.8v-3.7h4.9v3.8c0,0.4,0.1,0.7,0.4,0.9
						c0.2,0.2,0.6,0.3,0.9,0.3c0.2,0,0.4,0,0.6-0.1C761.1,525.3,761.3,525.3,761.3,525.3z"/>
				</defs>
				<clipPath id="SVGID_98_">
					<use xlink:href="#SVGID_97_"  style="overflow:visible;"/>
				</clipPath>
				<rect x="744.4" y="518.5" class="st79" width="19" height="10.9"/>
			</g>
			<g>
				<defs>
					<path id="SVGID_99_" d="M769.4,526.9c-0.3,0.2-0.7,0.3-1.3,0.4c-0.5,0.1-1,0.2-1.4,0.2c-3.1,0-4.7-0.8-4.7-2.3v-4.6h4.9v4.2
						c0,0.6,0.4,0.9,1.1,0.9c0.4,0,0.9-0.1,1.4-0.4V526.9z M767.3,518.1c0,0.4-0.4,0.8-1.1,1.1c-0.6,0.2-1.1,0.3-1.7,0.3
						c-0.6,0-1.1-0.1-1.7-0.3c-0.7-0.2-1.1-0.6-1.1-1.1c0-0.4,0.4-0.8,1.1-1.1c0.5-0.2,1.1-0.2,1.7-0.2c0.6,0,1.1,0.1,1.7,0.2
						C766.9,517.3,767.3,517.6,767.3,518.1z"/>
				</defs>
				<clipPath id="SVGID_100_">
					<use xlink:href="#SVGID_99_"  style="overflow:visible;"/>
				</clipPath>
				<rect x="759.6" y="514.7" class="st80" width="11.9" height="14.8"/>
			</g>
			<g>
				<defs>
					<path id="SVGID_101_" d="M781.8,526.9c-0.9,0.3-2,0.4-3.3,0.4c-1,0-1.8-0.2-2.5-0.5c-0.9-0.4-1.4-1.1-1.4-2
						c0-0.8,0.5-1.5,1.5-2.2H773c-0.4,2.3-1.6,3.7-3.7,4.2v-1.6c0.6-0.2,1-0.6,1.3-1c0.2-0.4,0.4-0.9,0.5-1.6h-0.2
						c-0.4,0-0.9-0.1-1.2-0.4c-0.4-0.3-0.6-0.6-0.6-1.1c0-0.4,0.2-0.9,0.6-1.2c0.4-0.3,0.8-0.4,1.3-0.4c0.3,0,0.7,0.1,1.1,0.2
						c0.4,0.2,0.7,0.4,0.8,0.7h8.2v2.1h-1.3c-0.5,0.4-0.8,0.8-0.8,1.3c0,0.4,0.2,0.7,0.6,1.1c0.4,0.3,0.8,0.4,1.2,0.4
						c0.4,0,0.7,0,1.1-0.1L781.8,526.9L781.8,526.9z"/>
				</defs>
				<clipPath id="SVGID_102_">
					<use xlink:href="#SVGID_101_"  style="overflow:visible;"/>
				</clipPath>
				<rect x="767.1" y="517.6" class="st81" width="16.8" height="11.8"/>
			</g>
			<g>
				<defs>
					<path id="SVGID_103_" d="M794.7,525.3v1.6c-1.6,0.4-3.6,0.6-6.1,0.6c-1.3,0-2.6-0.1-3.6-0.3c-1.7-0.4-2.6-0.9-2.6-1.8
						c0-0.8,0.9-1.4,2.7-1.9c-0.4-0.1-0.8-0.3-1.1-0.5c-0.4-0.3-0.7-0.6-0.7-0.9c0-0.9,1.1-1.5,3.2-1.9c1.2-0.2,2.6-0.3,4.3-0.3
						c0.7,0,1.3,0,1.9,0v1.6c-0.7,0-1.3,0-2,0c-1,0.1-1.5,0.2-1.5,0.5c0,0.2,0.3,0.4,0.9,0.4c0.4,0.1,0.8,0.1,1.1,0.1h0.2v1
						c-2,0.2-3,0.7-3,1.1c0,0.5,1.1,0.8,3.3,0.8C792.9,525.6,794,525.5,794.7,525.3z"/>
				</defs>
				<clipPath id="SVGID_104_">
					<use xlink:href="#SVGID_103_"  style="overflow:visible;"/>
				</clipPath>
				<rect x="780.4" y="517.9" class="st82" width="16.3" height="11.6"/>
			</g>
		</g>
	</g>
</g>
<g>
	<path class="st74" d="M265,134.3c0-17.4,11.7-33.4,28.3-38.6c2-0.6,4.1-1.1,6.2-1.4s4.7-0.8,6.8-0.3c3.8,0.6,5.9,5,3.5,8.1
		c-1.1,1.4-2.7,2.1-4.4,2.1c-2.4,0.2-4.7,0.3-6.9,0.9c-4.2,1.1-8.1,3-11.4,5.6c-6.8,5.3-11.1,13.4-11.6,21.9c-0.2,2.6,0,5.1,0,7.7
		c0,8.9,0,17.9,0,26.7c0,1.1,0,2,0,3c0,2.7-2,5.1-4.8,5.4c-3.2,0.3-5.7-2.3-5.7-5.3c0-0.9,0-1.8,0-2.7c0-8.9,0-17.7,0-26.6
		C265,138.7,265,136.6,265,134.3z"/>
	<path class="st74" d="M320.8,75.9c0-3.8,3.2-6.9,6.9-6.9c3.8,0,6.9,3.2,6.9,6.9c0,3.8-3.2,6.9-6.9,6.9
		C323.8,82.6,320.8,79.6,320.8,75.9z M322.4,99c0-4.1,4.8-6.8,8.3-4.4c1.5,1.1,2.3,2.7,2.3,4.7s0,3.9,0,5.7c0,8.4,0,17,0,25.4
		c0,9.3,0,18.6,0,28c0,3,0,6,0,9c0,2.1,0.3,4.4-1.2,6.2c-2.7,3.2-8,2.1-9-2c-0.2-0.8-0.2-1.5-0.2-2.1c0-2.3,0-4.5,0-6.8
		c0-8.7,0-17.6,0-26.3C322.4,124,322.4,111.5,322.4,99z"/>
	<path class="st74" d="M348.3,134.3c0-17.7,11.9-33.7,28.7-38.8c17-5.3,36.1,1.8,45.8,16.7c4.4,6.6,6.6,14.3,6.6,22.2
		c0,2.7,0,5.4,0,8.1c0,8.7,0,17.3,0,26c0,0.8,0,1.5,0,2.3c-0.3,4.1-5.4,6.2-8.6,3.6c-2.4-2.1-1.8-5.7-1.8-8.6c0-9,0-17.9,0-26.9
		c0-3.3,0.2-6.6-0.5-9.8c-1.5-8.4-6.6-15.9-13.8-20.4c-7.4-4.5-16.7-5.7-25.1-3c-8.1,2.7-14.7,8.7-18.3,16.5c-3.6,8-2.6,17.4-2.6,26
		c0,7.4,0,14.7,0,22.1c0,3.5-3.3,6-6.6,5.1c-2.6-0.6-3.8-2.9-3.8-5.4c0-3,0-6,0-9c0-8.4,0-17,0-25.4
		C348.3,135.2,348.3,134.8,348.3,134.3z"/>
	<path class="st74" d="M508.3,172.9c-1.4-1.1-2.7-1.8-4.1-2.7c0.8-0.5,1.7-0.9,2.4-1.4c14.7-9.6,21.9-28.4,16.8-45.2
		c-5-16.4-20.4-28.9-37.6-29.5c0.6,0,0.8,0-1.1,0c-2,0-2,0.2-1.4,0.2c-15.3,1.1-29.5,9.9-35.9,24c-7.4,16.2-3,36.2,10.7,47.6
		c7.5,6.2,17,9.3,26.4,9.3l0,0c16.5,0,30.2,13.7,30.2,30.2s-13.8,30.1-30.2,30.1c0,3.5,0,6.9,0,10.2c17,0,32.3-10.8,38.3-26.7
		C528.9,202.6,522.4,183.5,508.3,172.9z M454.2,134.9c0-14.7,11.1-28,25.8-30.1c14.9-2.1,29.3,7.2,33.4,21.6
		c5,17.4-6.9,35.8-24.9,38.2c-0.6,0.2-1.4,0.2-2,0.2c-1.1-0.2-1.7-0.2-1.8,0C468.5,165.1,454.2,151.8,454.2,134.9z"/>
	<path class="st74" d="M540.2,72.7c0-4.1,4.8-6.8,8.3-4.4c1.7,1.2,2.3,3,2.3,5c0,3.3,0,6.8,0,10.1c0,7.8,0,15.8,0,23.6
		c0,0.2,0,0.2,0,0.3c11.7-13.2,31.4-17.1,47.3-9.6c14.3,6.8,23.3,21.3,23.3,37.1c0,8,0,15.9,0,23.7c0,3.6,0,7.1,0,10.7
		c0,1.4,0,2.6-0.6,3.8c-2.1,3.6-7.5,3.3-9.3-0.5c-1.1-2.1-0.5-5.6-0.5-7.8c0-4.7,0-9.3,0-13.8c0-4.4,0-8.6,0-12.9
		c0-3.8,0-7.7-1.1-11.4c-4.7-17.4-24.5-27-41-19.8c-7.7,3.3-13.7,9.8-16.5,17.6c-1.4,3.9-1.7,8-1.7,12c0,8.9,0,17.9,0,26.7
		c0,2.4,0,4.8,0,7.4c0,3.6-3.6,6.2-7.1,5c-2.3-0.8-3.5-3-3.5-5.3c0-12.6,0-25.2,0-38c0-16.5,0-32.9,0-49.4
		C540.2,79.5,540.2,76.2,540.2,72.7z"/>
	<path class="st74" d="M633.9,99c0-4.1,4.8-6.8,8.3-4.4c1.7,1.2,2.3,3,2.3,5c0,3.3,0,6.5,0,9.8c0,8.3,0,16.5,0,24.8
		c0,6.3,1.5,12.2,5,17.4c4.7,7.1,12.5,12,20.9,13.2c17.9,2.4,34.4-11.7,34.4-29.8c0-7.1,0-14,0-21c0-4.1,0-8.3,0-12.3
		c0-0.9,0-1.7,0-2.6c0-3.3,2.9-5.7,6.2-5.3c4.5,0.8,4.2,5.1,4.2,8.6c0,4.2,0,8.6,0,12.8c0,7.4,0.3,14.7,0,21.9
		c-0.9,17.6-13.7,32.9-30.8,37.1c-17.3,4.2-35.9-3.6-44.8-18.9c-3.6-6.3-5.6-13.4-5.6-20.7c0-3,0-6,0-9c0-8.4,0-17,0-25.4
		C633.9,99.8,633.9,99.5,633.9,99z"/>
	<path class="st74" d="M771.4,94.2c17.6,0,33.7,12.8,38.8,29.5c5.1,16.8-2.1,35.6-16.8,45.2c-14.9,9.6-35,8.4-48.7-2.9
		c-6.5-5.4-11.1-12.9-13.1-21.2c-0.9-3.8-1.1-7.7-1.1-11.6c0-16.8,0-33.5,0-50.3c0-2.9,0-5.7,0-8.4c0-0.5,0-1.1,0-1.5
		c0-3.5,3.3-5.9,6.6-5.1c4.2,1.1,3.9,5.3,3.9,8.6c0,4.4,0,8.6,0,12.9c0,6.8,0,13.5,0,20.3C748.9,100.8,759.6,94.5,771.4,94.2
		C776.7,94.2,765.1,94.4,771.4,94.2z M740.9,134.9c0,18,16.5,32.3,34.4,29.8c17.7-2.4,29.6-20.4,25.1-37.7
		c-3.9-14.6-18.2-24-33.1-22.2C752.4,106.8,741.2,120.2,740.9,134.9C740.9,139.1,741.1,130.6,740.9,134.9z"/>
	<path class="st74" d="M212.9,94.2c17.6,0,33.7,12.8,38.8,29.5c5.1,16.8-2.1,35.6-16.8,45.2c-14.7,9.6-35,8.4-48.5-3
		c-6.5-5.4-11.1-12.9-13.1-21.2c-0.9-3.8-1.1-7.7-1.1-11.6c0-16.8,0-33.5,0-50.3c0-2.9,0-5.7,0-8.4c0-0.5,0-1.1,0-1.5
		c0-3.5,3.3-5.9,6.6-5.1c4.2,1.1,3.9,5.3,3.9,8.6c0,4.4,0,8.6,0,12.9c0,6.8,0,13.5,0,20.3C190.3,100.8,201,94.5,212.9,94.2
		C218.3,94.2,206.7,94.4,212.9,94.2z M182.5,134.9c0,18,16.5,32.3,34.4,29.8c17.6-2.3,29.5-20.3,24.9-37.6
		c-3.9-14.6-18.2-24-33.1-22.2C193.8,106.8,182.8,120.2,182.5,134.9C182.5,139.1,182.7,130.6,182.5,134.9z"/>
	<path class="st83" d="M197.6,134.9c0,8,6.6,14.9,14.6,15c8.3,0.3,15.5-6.3,15.6-14.6c0.3-8.3-6.3-15.5-14.6-15.6
		C204.6,119.4,197.7,126.5,197.6,134.9C197.6,137,197.6,132.8,197.6,134.9z"/>
</g>
<polygon class="st83" points="527.8,280.7 492,342.7 456.2,280.7 "/>
</svg>
