<?xml version="1.0" encoding="utf-8"?>
<!-- Generator: Adobe Illustrator 19.1.0, SVG Export Plug-In . SVG Version: 6.00 Build 0)  -->
<!DOCTYPE svg PUBLIC "-//W3C//DTD SVG 1.1//EN" "http://www.w3.org/Graphics/SVG/1.1/DTD/svg11.dtd">
<svg version="1.1" id="Layer_1" xmlns="http://www.w3.org/2000/svg" xmlns:xlink="http://www.w3.org/1999/xlink" x="0px" y="0px"
	 viewBox="470 -400 1000 1000" style="enable-background:new 470 -400 1000 1000;" xml:space="preserve">
<style type="text/css">
	.st0{fill:#FFFFFF;}
	.st1{opacity:0.2;}
	.st2{fill:#495259;}
	.st3{fill:none;stroke:#FFFFFF;stroke-width:7;}
	.st4{fill:#FFFFFF;stroke:#7EB0D1;stroke-width:6;}
	.st5{fill:#495259;stroke:#7EB0D1;stroke-width:6;}
</style>
<g>
	<path class="st0" d="M866.4,49.1c1.9,8.2-11.1,21.5-7.6,28.9c3.6,7.5,22.2,5.7,27.4,12.1c5.2,6.5-0.8,24.2,5.7,29.4
		c6.4,5.2,22.4-4.5,29.9-0.9c7.4,3.6,9.7,22.1,17.9,24c7.9,1.8,18.1-13.8,26.5-13.8c8.5,0,18.6,15.6,26.5,13.8
		c8.2-1.9,10.5-20.4,17.9-23.9c7.5-3.6,23.4,6.1,29.9,0.9s0.6-22.9,5.7-29.3c5.2-6.5,23.7-4.6,27.3-12.1c3.6-7.4-9.4-20.7-7.6-28.9
		c1.8-7.9,19.3-14.3,19.3-22.8s-17.5-14.9-19.3-22.8c-1.9-8.2,11.1-21.5,7.6-28.9c-3.6-7.5-22.2-5.7-27.4-12.1
		c-5.2-6.5,0.8-24.2-5.7-29.3c-6.4-5.2-22.4,4.5-29.9,0.9c-7.4-3.6-9.7-22.1-17.9-23.9c-7.9-1.8-18.1,13.8-26.5,13.8
		c-8.5,0-18.6-15.6-26.5-13.8c-8.2,1.9-10.5,20.4-17.9,23.9c-7.5,3.6-23.4-6.1-29.9-0.9s-0.6,22.9-5.7,29.4
		c-5.2,6.4-23.7,4.6-27.4,12.1c-3.6,7.4,9.4,20.7,7.6,28.9c-1.8,7.9-19.3,14.3-19.3,22.8C847.1,34.8,864.6,41.2,866.4,49.1z"/>
</g>
<g class="st1">
	<path d="M872.9,59.9c1.9,8.5-11.5,22.3-7.8,30c3.8,7.8,23,5.9,28.3,12.5c5.4,6.7-0.8,25,5.9,30.4c6.7,5.3,23.2-4.7,31-0.9
		c7.6,3.7,10.1,22.9,18.5,24.8c8.2,1.9,18.7-14.3,27.5-14.3s19.3,16.2,27.5,14.3c8.5-1.9,10.9-21.1,18.5-24.8
		c7.8-3.8,24.3,6.3,30.9,0.9c6.7-5.4,0.6-23.7,5.9-30.4c5.3-6.7,24.6-4.8,28.3-12.6c3.7-7.6-9.8-21.5-7.8-30
		c1.9-8.2,20-14.8,20-23.6s-18.2-15.4-20-23.6c-1.9-8.5,11.5-22.3,7.8-30c-3.8-7.8-23-5.9-28.3-12.5c-5.4-6.7,0.8-25-5.9-30.4
		c-6.7-5.3-23.2,4.7-31,0.9c-7.7-3.7-10.1-22.9-18.5-24.8c-8.2-1.9-18.7,14.3-27.5,14.3s-19.3-16.2-27.5-14.3
		c-8.5,1.9-10.9,21.1-18.5,24.8c-7.8,3.8-24.3-6.3-30.9-0.9c-6.7,5.4-0.6,23.7-5.9,30.4c-5.3,6.7-24.6,4.8-28.3,12.5
		c-3.7,7.6,9.8,21.5,7.8,30c-1.9,8.2-20,14.8-20,23.6C852.8,45.1,871,51.7,872.9,59.9z M975.5-55.6c50.8,0,91.9,41.1,91.9,91.9
		c0,50.7-41.1,91.9-91.9,91.9c-50.7,0-91.9-41.1-91.9-91.9C883.6-14.4,924.8-55.6,975.5-55.6z"/>
	<path d="M1032.9,91.4C1095.8,26.3,1017.7-74,939.7-34c-25.5,13.2-43,39.7-43,70.4C896.7,107.9,983.7,142.4,1032.9,91.4z
		 M932.1,32.2c4.9-4.9,12.8-4.9,17.7,0l11.5,11.5l40.8-40.8c4.9-4.9,12.7-4.9,17.6,0c4.9,4.9,4.9,12.8,0,17.6L970,70.2
		c-2.4,2.4-5.6,3.6-8.8,3.6s-6.4-1.2-8.8-3.6l-20.3-20.3C927.2,45,927.2,37.1,932.1,32.2z"/>
	<path d="M1066.5,129.8c-0.9,4.3-2.8,8.3-6.6,11.4c-3.3,2.6-7.4,3.9-12.3,3.9l0,0c-4.3,0-8.6-1-12.8-2c-3-0.7-6.1-1.4-8-1.4
		c-0.3,0.4-2.2,4.4-3.3,6.8c-3.5,7.3-7.8,16.4-17.4,18.6c-1.2,0.3-2.5,0.4-3.7,0.4c-7.7,0-14-5-19.5-9.5c-1.9-1.5-4.9-4-6.6-4.8
		c-1.7,0.8-4.7,3.3-6.6,4.8c-5.5,4.5-11.8,9.5-19.5,9.5c-1.3,0-2.5-0.1-3.7-0.4c-9.6-2.2-13.9-11.3-17.4-18.6c-1-2-2.5-5.2-3.5-6.7
		c-2.2,0.1-5,0.8-7.8,1.4c-8.9,2.1-18.9,3-25.1-2c-3.8-3-5.7-7.1-6.6-11.4l-29.8,29.8c-3.5,3.5-4.8,8.7-3.4,13.5s5.4,8.4,10.3,9.4
		l23.3,4.7l4.7,23.3c1,4.9,4.6,8.9,9.4,10.3c4.8,1.4,10,0.1,13.5-3.4l62.3-62.3l62.3,62.3c3.5,3.5,8.7,4.8,13.5,3.4
		c4.8-1.5,8.4-5.4,9.4-10.3l4.7-23.3l23.3-4.7c4.9-1,8.9-4.6,10.3-9.4c1.4-4.8,0.1-10-3.4-13.5L1066.5,129.8z"/>
</g>
<g>
	<path class="st2" d="M862.9,49.9c1.9,8.5-11.5,22.3-7.8,30c3.8,7.8,23,5.9,28.3,12.5c5.4,6.7-0.8,25,5.9,30.4
		c6.7,5.3,23.2-4.7,31-0.9c7.6,3.7,10.1,22.9,18.5,24.8c8.2,1.9,18.7-14.3,27.5-14.3s19.3,16.2,27.5,14.3
		c8.5-1.9,10.9-21.1,18.5-24.8c7.8-3.8,24.3,6.3,30.9,0.9c6.7-5.4,0.6-23.7,5.9-30.4c5.3-6.7,24.6-4.8,28.3-12.6
		c3.7-7.6-9.8-21.5-7.8-30c1.9-8.2,20-14.8,20-23.6s-18.2-15.4-20-23.6c-1.9-8.5,11.5-22.3,7.8-30c-3.8-7.8-23-5.9-28.3-12.5
		c-5.4-6.7,0.8-25-5.9-30.4c-6.7-5.3-23.2,4.7-31,0.9c-7.7-3.7-10.1-22.9-18.5-24.8c-8.2-1.9-18.7,14.3-27.5,14.3
		s-19.3-16.2-27.5-14.3c-8.5,1.9-10.9,21.1-18.5,24.8c-7.8,3.8-24.3-6.3-30.9-0.9c-6.7,5.4-0.6,23.7-5.9,30.4
		c-5.3,6.7-24.6,4.8-28.3,12.5c-3.7,7.6,9.8,21.5,7.8,30c-1.9,8.2-20,14.8-20,23.6C842.8,35.1,861,41.7,862.9,49.9z M965.5-65.6
		c50.8,0,91.9,41.1,91.9,91.9c0,50.7-41.1,91.9-91.9,91.9c-50.7,0-91.9-41.1-91.9-91.9C873.6-24.4,914.8-65.6,965.5-65.6z"/>
	<path class="st2" d="M1022.9,81.4C1085.8,16.3,1007.7-84,929.7-44c-25.5,13.2-43,39.7-43,70.4C886.7,97.9,973.7,132.4,1022.9,81.4z
		 M922.1,22.2c4.9-4.9,12.8-4.9,17.7,0l11.5,11.5l40.8-40.8c4.9-4.9,12.7-4.9,17.6,0c4.9,4.9,4.9,12.8,0,17.6L960,60.2
		c-2.4,2.4-5.6,3.6-8.8,3.6s-6.4-1.2-8.8-3.6l-20.3-20.3C917.2,35,917.2,27.1,922.1,22.2z"/>
	<path class="st2" d="M1056.5,119.8c-0.9,4.3-2.8,8.3-6.6,11.4c-3.3,2.6-7.4,3.9-12.3,3.9l0,0c-4.3,0-8.6-1-12.8-2
		c-3-0.7-6.1-1.4-8-1.4c-0.3,0.4-2.2,4.4-3.3,6.8c-3.5,7.3-7.8,16.4-17.4,18.6c-1.2,0.3-2.5,0.4-3.7,0.4c-7.7,0-14-5-19.5-9.5
		c-1.9-1.5-4.9-4-6.6-4.8c-1.7,0.8-4.7,3.3-6.6,4.8c-5.5,4.5-11.8,9.5-19.5,9.5c-1.3,0-2.5-0.1-3.7-0.4
		c-9.6-2.2-13.9-11.3-17.4-18.6c-1-2-2.5-5.2-3.5-6.7c-2.2,0.1-5,0.8-7.8,1.4c-8.9,2.1-18.9,3-25.1-2c-3.8-3-5.7-7.1-6.6-11.4
		l-29.8,29.8c-3.5,3.5-4.8,8.7-3.4,13.5c1.4,4.8,5.4,8.4,10.3,9.4l23.3,4.7l4.7,23.3c1,4.9,4.6,8.9,9.4,10.3
		c4.8,1.4,10,0.1,13.5-3.4l62.3-62.3l62.3,62.3c3.5,3.5,8.7,4.8,13.5,3.4c4.8-1.5,8.4-5.4,9.4-10.3l4.7-23.3l23.3-4.7
		c4.9-1,8.9-4.6,10.3-9.4c1.4-4.8,0.1-10-3.4-13.5L1056.5,119.8z"/>
</g>
<g>
	<path class="st0" d="M659.1,338.3c0,2.5-0.7,4.4-2.2,5.7s-3.5,2-6.2,2H649v7.3h-6v-22.1h7.7c2.8,0,4.9,0.6,6.3,1.8
		C658.4,334.3,659.1,336.1,659.1,338.3z M649,341.2h1.1c0.9,0,1.6-0.3,2.1-0.8s0.8-1.2,0.8-2.1c0-1.5-0.8-2.2-2.5-2.2H649V341.2z"/>
	<path class="st0" d="M676.2,353.4l-1.1-4.1h-7.2l-1.1,4.1h-6.6l7.2-22.2h8l7.3,22.2H676.2z M673.9,344.4l-1-3.6
		c-0.2-0.8-0.5-1.9-0.8-3.1c-0.3-1.3-0.5-2.2-0.6-2.8c-0.1,0.5-0.3,1.4-0.5,2.5c-0.3,1.2-0.9,3.5-1.8,7L673.9,344.4L673.9,344.4z"/>
	<path class="st0" d="M694.9,353.4h-6v-17.2h-5.4v-4.9h16.8v4.9h-5.4V353.4L694.9,353.4z"/>
	<path class="st0" d="M716.6,353.4h-13.1v-22.1h13.1v4.8h-7.2v3.5h6.6v4.8h-6.6v4.2h7.2V353.4z"/>
	<path class="st0" d="M741.5,353.4h-7.8l-8.1-15.6h-0.1c0.2,2.5,0.3,4.3,0.3,5.6v10h-5.3v-22.1h7.8l8.1,15.4h0.1
		c-0.1-2.2-0.2-4-0.2-5.4v-10h5.3L741.5,353.4L741.5,353.4z"/>
	<path class="st0" d="M756.1,353.4h-6v-17.2h-5.4v-4.9h16.8v4.9h-5.4V353.4z"/>
	<path class="st0" d="M782.4,353.4h-6v-17.2H771v-4.9h16.8v4.9h-5.4V353.4z"/>
	<path class="st0" d="M791,353.4v-22.1h6v22.1H791z"/>
	<path class="st0" d="M811.4,353.4l-4.5-15.9h-0.1c0.2,2.7,0.3,4.8,0.3,6.3v9.6h-5.3v-22.1h8l4.6,15.7h0.1l4.5-15.7h8v22.1h-5.5
		v-9.7c0-0.5,0-1.1,0-1.7c0-0.6,0.1-2.1,0.2-4.5h-0.1l-4.5,15.9L811.4,353.4L811.4,353.4z"/>
	<path class="st0" d="M844.9,353.4h-13.1v-22.1h13.1v4.8h-7.2v3.5h6.6v4.8h-6.6v4.2h7.2V353.4z"/>
	<path class="st0" d="M848.8,353.4v-22.1h6v17.3h8.5v4.8H848.8z"/>
	<path class="st0" d="M866.8,353.4v-22.1h6v22.1H866.8z"/>
	<path class="st0" d="M898.7,353.4h-7.8l-8.1-15.6h-0.1c0.2,2.5,0.3,4.3,0.3,5.6v10h-5.3v-22.1h7.8l8.1,15.4h0.1
		c-0.1-2.2-0.2-4-0.2-5.4v-10h5.3L898.7,353.4L898.7,353.4z"/>
	<path class="st0" d="M916.6,353.4h-13.1v-22.1h13.1v4.8h-7.2v3.5h6.6v4.8h-6.6v4.2h7.2V353.4z"/>
</g>
<g>
	<g>
		<path class="st0" d="M529.6,479.8h-1.5l1.3-6.4h-6.1l-1.3,6.4h-1.6l2.9-13.6h1.6l-1.2,5.8h6.1l1.2-5.8h1.6L529.6,479.8z"/>
		<path class="st0" d="M538.4,469.5c0.6,0,1.1,0.2,1.5,0.5c0.4,0.3,0.8,0.7,1,1.3h0.1l0.6-1.6h1.2l-2.2,10.2h-1.2l0.2-1.9h-0.1
			c-1.1,1.4-2.3,2.1-3.5,2.1c-0.9,0-1.5-0.3-2-0.9c-0.5-0.6-0.7-1.5-0.7-2.5c0-1.3,0.2-2.5,0.7-3.6c0.4-1.1,1-2,1.8-2.6
			C536.6,469.8,537.4,469.5,538.4,469.5z M536.6,478.7c0.6,0,1.2-0.3,1.8-0.9c0.6-0.6,1.1-1.3,1.4-2.2c0.4-0.9,0.6-1.8,0.6-2.8
			c0-0.6-0.2-1.1-0.5-1.5c-0.3-0.4-0.8-0.6-1.4-0.6s-1.2,0.3-1.8,0.8c-0.6,0.5-1,1.3-1.3,2.2c-0.3,0.9-0.5,1.9-0.5,2.9
			c0,0.7,0.1,1.2,0.4,1.6C535.7,478.6,536.1,478.7,536.6,478.7z"/>
		<path class="st0" d="M545.2,479.8l-1.2-10.2h1.6l0.6,5.7c0.1,1.6,0.2,2.7,0.2,3.4h0.1c0.8-1.7,1.3-2.8,1.7-3.4l3-5.6h1.7
			l-5.5,10.2h-2.2C545.2,479.9,545.2,479.8,545.2,479.8z"/>
		<path class="st0" d="M556.5,480c-1.1,0-2-0.3-2.7-1c-0.6-0.7-1-1.6-1-2.8s0.2-2.3,0.7-3.3c0.5-1.1,1.1-1.9,1.8-2.5
			s1.6-0.9,2.5-0.9c0.9,0,1.7,0.2,2.1,0.6c0.5,0.4,0.7,1,0.7,1.7c0,1.1-0.5,2-1.5,2.6s-2.5,1-4.4,1h-0.3v0.7c0,0.8,0.2,1.4,0.6,1.9
			s1,0.7,1.8,0.7c0.4,0,0.8-0.1,1.2-0.2c0.4-0.1,0.9-0.3,1.5-0.6v1.4c-0.6,0.3-1.1,0.5-1.5,0.6C557.5,480,557,480,556.5,480z
			 M557.8,470.8c-0.6,0-1.2,0.3-1.8,0.9c-0.6,0.6-1,1.4-1.3,2.4h0.1c1.4,0,2.5-0.2,3.2-0.6c0.8-0.4,1.1-0.9,1.1-1.6
			c0-0.3-0.1-0.6-0.3-0.8C558.6,470.9,558.3,470.8,557.8,470.8z"/>
		<path class="st0" d="M572.2,469.5c0.6,0,1.1,0.2,1.5,0.5c0.4,0.3,0.8,0.7,1,1.3h0.1l0.6-1.6h1.2l-2.2,10.2h-1.2l0.2-1.9h-0.1
			c-1.1,1.4-2.3,2.1-3.5,2.1c-0.9,0-1.5-0.3-2-0.9c-0.5-0.6-0.7-1.5-0.7-2.5c0-1.3,0.2-2.5,0.7-3.6c0.4-1.1,1-2,1.8-2.6
			C570.4,469.8,571.3,469.5,572.2,469.5z M570.4,478.7c0.6,0,1.2-0.3,1.8-0.9c0.6-0.6,1.1-1.3,1.4-2.2c0.4-0.9,0.6-1.8,0.6-2.8
			c0-0.6-0.2-1.1-0.5-1.5s-0.8-0.6-1.4-0.6c-0.6,0-1.2,0.3-1.8,0.8s-1,1.3-1.3,2.2s-0.5,1.9-0.5,2.9c0,0.7,0.1,1.2,0.4,1.6
			C569.5,478.6,569.9,478.7,570.4,478.7z"/>
		<path class="st0" d="M579.1,479.8h-1.6l3.1-14.4h1.6L579.1,479.8z"/>
		<path class="st0" d="M583.9,479.8h-1.6l3.1-14.4h1.6L583.9,479.8z"/>
		<path class="st0" d="M598,479.8l1.4-6.4c0.1-0.6,0.2-1,0.2-1.3c0-0.4-0.1-0.8-0.3-1s-0.5-0.4-1-0.4s-1,0.2-1.5,0.6
			c-0.5,0.4-0.9,0.9-1.3,1.6c-0.4,0.7-0.7,1.5-0.9,2.5l-0.9,4.4h-1.6l2.2-10.2h1.3l-0.2,1.9h0.1c0.5-0.7,1.1-1.3,1.6-1.6
			s1.1-0.5,1.7-0.5c0.7,0,1.2,0.2,1.6,0.6c0.4,0.4,0.6,1,0.7,1.7h0.1c0.5-0.8,1.1-1.3,1.7-1.7c0.6-0.4,1.2-0.6,1.8-0.6
			c0.8,0,1.4,0.2,1.8,0.6c0.4,0.4,0.6,1,0.6,1.8c0,0.4-0.1,1-0.2,1.7l-1.3,6.2H604l1.4-6.4c0.1-0.6,0.2-1.1,0.2-1.4
			c0-0.4-0.1-0.7-0.3-0.9s-0.5-0.3-1-0.3s-1,0.2-1.5,0.5c-0.5,0.4-0.9,0.9-1.3,1.5c-0.4,0.7-0.6,1.4-0.8,2.3l-1,4.6H598V479.8z"/>
		<path class="st0" d="M614.1,469.5c0.6,0,1.1,0.2,1.5,0.5c0.4,0.3,0.8,0.7,1,1.3h0.1l0.6-1.6h1.2l-2.2,10.2h-1.2l0.2-1.9h-0.1
			c-1.1,1.4-2.3,2.1-3.5,2.1c-0.9,0-1.5-0.3-2-0.9c-0.5-0.6-0.7-1.5-0.7-2.5c0-1.3,0.2-2.5,0.7-3.6c0.4-1.1,1-2,1.8-2.6
			C612.3,469.8,613.1,469.5,614.1,469.5z M612.3,478.7c0.6,0,1.2-0.3,1.8-0.9c0.6-0.6,1.1-1.3,1.4-2.2c0.4-0.9,0.6-1.8,0.6-2.8
			c0-0.6-0.2-1.1-0.5-1.5c-0.3-0.4-0.8-0.6-1.4-0.6c-0.6,0-1.2,0.3-1.8,0.8c-0.6,0.5-1,1.3-1.3,2.2c-0.3,0.9-0.5,1.9-0.5,2.9
			c0,0.7,0.1,1.2,0.4,1.6C611.4,478.6,611.8,478.7,612.3,478.7z"/>
		<path class="st0" d="M622.5,478.7c0.3,0,0.8-0.1,1.3-0.2v1.2c-0.2,0.1-0.5,0.2-0.8,0.2c-0.3,0.1-0.6,0.1-0.7,0.1
			c-0.8,0-1.4-0.2-1.8-0.6c-0.4-0.4-0.6-0.9-0.6-1.6c0-0.4,0.1-0.9,0.2-1.4l1.2-5.6h-1.6l0.1-0.7l1.7-0.7l1.2-2.1h0.9l-0.5,2.3h2.5
			l-0.2,1.2h-2.5l-1.2,5.6c-0.1,0.5-0.2,0.9-0.2,1.2s0.1,0.6,0.3,0.8C622,478.7,622.2,478.7,622.5,478.7z"/>
		<path class="st0" d="M629.6,480c-1.1,0-2-0.3-2.7-1c-0.6-0.7-1-1.6-1-2.8s0.2-2.3,0.7-3.3c0.5-1.1,1.1-1.9,1.8-2.5
			c0.7-0.6,1.6-0.9,2.5-0.9c0.9,0,1.7,0.2,2.1,0.6c0.5,0.4,0.7,1,0.7,1.7c0,1.1-0.5,2-1.5,2.6s-2.5,1-4.4,1h-0.3v0.7
			c0,0.8,0.2,1.4,0.6,1.9c0.4,0.5,1,0.7,1.8,0.7c0.4,0,0.8-0.1,1.2-0.2c0.4-0.1,0.9-0.3,1.5-0.6v1.4c-0.6,0.3-1.1,0.5-1.5,0.6
			C630.6,480,630.1,480,629.6,480z M630.9,470.8c-0.6,0-1.2,0.3-1.8,0.9c-0.6,0.6-1,1.4-1.3,2.4h0.1c1.4,0,2.5-0.2,3.2-0.6
			c0.8-0.4,1.1-0.9,1.1-1.6c0-0.3-0.1-0.6-0.3-0.8C631.7,470.9,631.4,470.8,630.9,470.8z"/>
		<path class="st0" d="M641.4,469.5c0.4,0,0.8,0,1.1,0.1l-0.3,1.4c-0.3-0.1-0.7-0.1-1-0.1c-0.6,0-1.1,0.2-1.6,0.6
			c-0.5,0.4-0.9,0.9-1.3,1.5c-0.4,0.7-0.6,1.4-0.8,2.2l-1,4.7h-1.6l2.2-10.2h1.3l-0.2,1.9h0.1c0.4-0.6,0.8-1,1.1-1.3
			c0.3-0.3,0.6-0.5,0.9-0.6C640.6,469.5,641,469.5,641.4,469.5z"/>
		<path class="st0" d="M644,479.8h-1.6l2.2-10.2h1.6L644,479.8z M645.1,467.1c0-0.3,0.1-0.6,0.3-0.8c0.2-0.2,0.5-0.3,0.8-0.3
			c0.5,0,0.8,0.3,0.8,0.8c0,0.3-0.1,0.6-0.3,0.9c-0.2,0.2-0.4,0.4-0.7,0.4c-0.2,0-0.5-0.1-0.6-0.2
			C645.2,467.6,645.1,467.3,645.1,467.1z"/>
		<path class="st0" d="M652.7,469.5c0.6,0,1.1,0.2,1.5,0.5c0.4,0.3,0.8,0.7,1,1.3h0.1l0.6-1.6h1.2l-2.2,10.2h-1.2l0.2-1.9h-0.1
			c-1.1,1.4-2.3,2.1-3.5,2.1c-0.9,0-1.5-0.3-2-0.9c-0.5-0.6-0.7-1.5-0.7-2.5c0-1.3,0.2-2.5,0.7-3.6c0.4-1.1,1-2,1.8-2.6
			C650.9,469.8,651.8,469.5,652.7,469.5z M650.9,478.7c0.6,0,1.2-0.3,1.8-0.9c0.6-0.6,1.1-1.3,1.4-2.2c0.4-0.9,0.6-1.8,0.6-2.8
			c0-0.6-0.2-1.1-0.5-1.5s-0.8-0.6-1.4-0.6c-0.6,0-1.2,0.3-1.8,0.8s-1,1.3-1.3,2.2s-0.5,1.9-0.5,2.9c0,0.7,0.1,1.2,0.4,1.6
			C650,478.6,650.4,478.7,650.9,478.7z"/>
		<path class="st0" d="M659.6,479.8H658l3.1-14.4h1.6L659.6,479.8z"/>
		<path class="st0" d="M669.1,476.9c0,1-0.3,1.7-1,2.3c-0.7,0.5-1.6,0.8-2.9,0.8c-1,0-2-0.2-2.8-0.6v-1.5c0.4,0.3,0.9,0.5,1.4,0.6
			s1,0.2,1.4,0.2c0.8,0,1.4-0.2,1.8-0.5s0.6-0.7,0.6-1.2c0-0.4-0.1-0.6-0.3-0.9c-0.2-0.2-0.7-0.6-1.4-1c-0.8-0.5-1.4-0.9-1.7-1.3
			c-0.3-0.4-0.5-0.9-0.5-1.5c0-0.9,0.3-1.5,0.9-2.1c0.6-0.5,1.4-0.8,2.5-0.8c1.1,0,2.1,0.2,3.1,0.7l-0.5,1.3l-0.5-0.2
			c-0.6-0.3-1.3-0.4-2-0.4c-0.6,0-1,0.1-1.4,0.4c-0.3,0.3-0.5,0.6-0.5,1c0,0.3,0.1,0.6,0.3,0.9c0.2,0.2,0.7,0.6,1.4,1
			c0.7,0.4,1.1,0.7,1.4,1s0.5,0.6,0.6,0.9C669.1,476.2,669.1,476.6,669.1,476.9z"/>
		<path class="st0" d="M681.3,469.5c0.6,0,1.1,0.2,1.5,0.5c0.4,0.3,0.8,0.7,1,1.3h0.1l0.6-1.6h1.2l-2.2,10.2h-1.2l0.2-1.9h-0.1
			c-1.1,1.4-2.3,2.1-3.5,2.1c-0.9,0-1.5-0.3-2-0.9c-0.5-0.6-0.7-1.5-0.7-2.5c0-1.3,0.2-2.5,0.7-3.6c0.4-1.1,1-2,1.8-2.6
			C679.5,469.8,680.4,469.5,681.3,469.5z M679.5,478.7c0.6,0,1.2-0.3,1.8-0.9c0.6-0.6,1.1-1.3,1.4-2.2c0.4-0.9,0.6-1.8,0.6-2.8
			c0-0.6-0.2-1.1-0.5-1.5s-0.8-0.6-1.4-0.6c-0.6,0-1.2,0.3-1.8,0.8c-0.6,0.5-1,1.3-1.3,2.2s-0.5,1.9-0.5,2.9c0,0.7,0.1,1.2,0.4,1.6
			C678.6,478.6,679,478.7,679.5,478.7z"/>
		<path class="st0" d="M692.9,479.8l1.4-6.4c0.1-0.6,0.2-1.1,0.2-1.3c0-0.4-0.1-0.7-0.3-0.9c-0.2-0.2-0.6-0.4-1.1-0.4
			c-0.6,0-1.1,0.2-1.6,0.6c-0.5,0.4-1,0.9-1.4,1.6c-0.4,0.7-0.7,1.5-0.9,2.5l-0.9,4.4h-1.6l2.2-10.2h1.3l-0.2,1.9h0.1
			c0.6-0.8,1.2-1.3,1.7-1.6c0.6-0.3,1.1-0.5,1.7-0.5c0.8,0,1.4,0.2,1.9,0.6c0.5,0.4,0.7,1,0.7,1.8c0,0.5-0.1,1-0.2,1.7l-1.3,6.2
			L692.9,479.8L692.9,479.8z"/>
		<path class="st0" d="M703,469.5c1.2,0,2.1,0.6,2.6,1.8h0.1c0.1-1,0.2-1.8,0.4-2.5l0.7-3.3h1.5l-3.1,14.4H704l0.2-1.9h-0.1
			c-0.6,0.8-1.2,1.3-1.8,1.6c-0.5,0.3-1.1,0.5-1.7,0.5c-0.9,0-1.5-0.3-2-0.9s-0.7-1.4-0.7-2.5c0-1.3,0.2-2.5,0.7-3.6s1-2,1.8-2.6
			C701.2,469.8,702.1,469.5,703,469.5z M701.2,478.7c0.6,0,1.2-0.3,1.8-0.9c0.6-0.6,1.1-1.3,1.5-2.2s0.5-1.8,0.5-2.8
			c0-0.7-0.2-1.2-0.5-1.6c-0.3-0.4-0.8-0.5-1.5-0.5c-0.6,0-1.2,0.3-1.7,0.8s-1,1.2-1.3,2.2c-0.3,0.9-0.5,1.9-0.5,2.9
			C699.6,478,700.1,478.7,701.2,478.7z"/>
		<path class="st0" d="M718.9,469.5c1.2,0,2.1,0.6,2.6,1.8h0.1c0.1-1,0.2-1.8,0.4-2.5l0.7-3.3h1.5l-3.1,14.4h-1.3l0.2-1.9h-0.1
			c-0.6,0.8-1.2,1.3-1.8,1.6c-0.5,0.3-1.1,0.5-1.7,0.5c-0.9,0-1.5-0.3-2-0.9s-0.7-1.4-0.7-2.5c0-1.3,0.2-2.5,0.7-3.6s1-2,1.8-2.6
			C717.1,469.8,718,469.5,718.9,469.5z M717.1,478.7c0.6,0,1.2-0.3,1.8-0.9c0.6-0.6,1.1-1.3,1.5-2.2c0.4-0.9,0.5-1.8,0.5-2.8
			c0-0.7-0.2-1.2-0.5-1.6c-0.3-0.4-0.8-0.5-1.5-0.5c-0.6,0-1.2,0.3-1.7,0.8s-1,1.2-1.3,2.2c-0.3,0.9-0.5,1.9-0.5,2.9
			C715.5,478,716,478.7,717.1,478.7z"/>
		<path class="st0" d="M729.9,469.5c1.2,0,2.1,0.3,2.8,1c0.7,0.7,1,1.7,1,2.9s-0.2,2.3-0.7,3.3c-0.4,1-1,1.8-1.8,2.4
			c-0.8,0.6-1.6,0.8-2.6,0.8c-1.2,0-2.1-0.3-2.8-1s-1-1.7-1-2.9s0.2-2.3,0.7-3.3s1.1-1.8,1.8-2.4C728.1,469.8,729,469.5,729.9,469.5
			z M732.1,473.2c0-0.7-0.2-1.3-0.6-1.7s-0.9-0.7-1.6-0.7c-0.7,0-1.3,0.2-1.8,0.7s-0.9,1.1-1.2,1.9c-0.3,0.8-0.4,1.7-0.4,2.7
			c0,0.8,0.2,1.4,0.6,1.9c0.4,0.4,1,0.7,1.7,0.7c0.6,0,1.2-0.2,1.7-0.7s0.9-1.1,1.2-1.9C732,475.3,732.1,474.3,732.1,473.2z"/>
		<path class="st0" d="M739.3,480c-1.2,0-2.1-0.3-2.8-1s-1-1.6-1-2.8s0.2-2.4,0.7-3.4s1.1-1.9,1.9-2.4c0.8-0.6,1.7-0.9,2.7-0.9
			c0.8,0,1.7,0.2,2.5,0.5l-0.4,1.3c-0.7-0.3-1.4-0.5-2-0.5c-0.7,0-1.3,0.2-1.9,0.7c-0.6,0.5-1,1.1-1.3,2c-0.3,0.8-0.5,1.8-0.5,2.8
			c0,0.8,0.2,1.4,0.6,1.8c0.4,0.4,1,0.7,1.7,0.7c0.4,0,0.9-0.1,1.3-0.2c0.4-0.1,0.8-0.3,1.2-0.4v1.3
			C741.1,479.8,740.2,480,739.3,480z"/>
		<path class="st0" d="M747.3,469.7l-1.4,6.4c-0.1,0.6-0.2,1-0.2,1.3c0,0.9,0.5,1.3,1.4,1.3c0.5,0,1.1-0.2,1.6-0.6
			c0.5-0.4,1-0.9,1.4-1.6c0.4-0.7,0.7-1.5,0.9-2.5l0.9-4.4h1.5l-2.1,10.2H750l0.2-1.9h-0.1c-0.6,0.8-1.2,1.3-1.7,1.6
			s-1.1,0.5-1.7,0.5c-0.8,0-1.4-0.2-1.9-0.6s-0.7-1-0.7-1.8c0-0.4,0.1-0.9,0.2-1.6l1.4-6.3L747.3,469.7L747.3,469.7z"/>
		<path class="st0" d="M760.6,479.8l1.4-6.4c0.1-0.6,0.2-1,0.2-1.3c0-0.4-0.1-0.8-0.3-1c-0.2-0.2-0.5-0.4-1-0.4s-1,0.2-1.5,0.6
			c-0.5,0.4-0.9,0.9-1.3,1.6s-0.7,1.5-0.9,2.5l-0.9,4.4h-1.6l2.2-10.2h1.3l-0.2,1.9h0.1c0.5-0.7,1.1-1.3,1.6-1.6s1.1-0.5,1.7-0.5
			c0.7,0,1.2,0.2,1.6,0.6c0.4,0.4,0.6,1,0.7,1.7h0.1c0.5-0.8,1.1-1.3,1.7-1.7c0.6-0.4,1.2-0.6,1.8-0.6c0.8,0,1.4,0.2,1.8,0.6
			c0.4,0.4,0.6,1,0.6,1.8c0,0.4-0.1,1-0.2,1.7l-1.3,6.2h-1.6l1.4-6.4c0.1-0.6,0.2-1.1,0.2-1.4c0-0.4-0.1-0.7-0.3-0.9s-0.5-0.3-1-0.3
			s-1,0.2-1.5,0.5c-0.5,0.4-0.9,0.9-1.3,1.5c-0.4,0.7-0.6,1.4-0.8,2.3l-1,4.6h-1.7L760.6,479.8L760.6,479.8z"/>
		<path class="st0" d="M775.3,480c-1.1,0-2-0.3-2.7-1c-0.6-0.7-1-1.6-1-2.8s0.2-2.3,0.7-3.3c0.5-1.1,1.1-1.9,1.8-2.5
			s1.6-0.9,2.5-0.9s1.7,0.2,2.1,0.6c0.5,0.4,0.7,1,0.7,1.7c0,1.1-0.5,2-1.5,2.6s-2.5,1-4.4,1h-0.3v0.7c0,0.8,0.2,1.4,0.6,1.9
			c0.4,0.5,1,0.7,1.8,0.7c0.4,0,0.8-0.1,1.2-0.2s0.9-0.3,1.5-0.6v1.4c-0.6,0.3-1.1,0.5-1.5,0.6C776.3,480,775.8,480,775.3,480z
			 M776.5,470.8c-0.6,0-1.2,0.3-1.8,0.9c-0.6,0.6-1,1.4-1.3,2.4h0.1c1.4,0,2.5-0.2,3.2-0.6c0.8-0.4,1.1-0.9,1.1-1.6
			c0-0.3-0.1-0.6-0.3-0.8S777,470.8,776.5,470.8z"/>
		<path class="st0" d="M786.8,479.8l1.4-6.4c0.1-0.6,0.2-1.1,0.2-1.3c0-0.4-0.1-0.7-0.3-0.9c-0.2-0.2-0.6-0.4-1.1-0.4
			c-0.6,0-1.1,0.2-1.6,0.6c-0.5,0.4-1,0.9-1.4,1.6c-0.4,0.7-0.7,1.5-0.9,2.5l-0.9,4.4h-1.6l2.2-10.2h1.3l-0.2,1.9h0.1
			c0.6-0.8,1.2-1.3,1.7-1.6s1.1-0.5,1.7-0.5c0.8,0,1.4,0.2,1.9,0.6c0.5,0.4,0.7,1,0.7,1.8c0,0.5-0.1,1-0.2,1.7l-1.3,6.2L786.8,479.8
			L786.8,479.8z"/>
		<path class="st0" d="M794.7,478.7c0.3,0,0.8-0.1,1.3-0.2v1.2c-0.2,0.1-0.5,0.2-0.8,0.2c-0.3,0.1-0.6,0.1-0.7,0.1
			c-0.8,0-1.4-0.2-1.8-0.6c-0.4-0.4-0.6-0.9-0.6-1.6c0-0.4,0.1-0.9,0.2-1.4l1.2-5.6h-1.6l0.1-0.7l1.7-0.7l1.2-2.1h0.9l-0.5,2.3h2.5
			l-0.2,1.2H795l-1.2,5.6c-0.1,0.5-0.2,0.9-0.2,1.2s0.1,0.6,0.3,0.8S794.4,478.7,794.7,478.7z"/>
		<path class="st0" d="M804,476.9c0,1-0.3,1.7-1,2.3c-0.7,0.5-1.6,0.8-2.9,0.8c-1,0-2-0.2-2.8-0.6v-1.5c0.4,0.3,0.9,0.5,1.4,0.6
			s1,0.2,1.4,0.2c0.8,0,1.4-0.2,1.8-0.5c0.4-0.3,0.6-0.7,0.6-1.2c0-0.4-0.1-0.6-0.3-0.9c-0.2-0.2-0.7-0.6-1.4-1
			c-0.8-0.5-1.4-0.9-1.7-1.3c-0.3-0.4-0.5-0.9-0.5-1.5c0-0.9,0.3-1.5,0.9-2.1s1.4-0.8,2.5-0.8s2.1,0.2,3.1,0.7l-0.5,1.3l-0.5-0.2
			c-0.6-0.3-1.3-0.4-2-0.4c-0.6,0-1,0.1-1.4,0.4c-0.3,0.3-0.5,0.6-0.5,1c0,0.3,0.1,0.6,0.3,0.9c0.2,0.2,0.7,0.6,1.4,1
			c0.7,0.4,1.1,0.7,1.4,1s0.5,0.6,0.6,0.9C803.9,476.2,804,476.6,804,476.9z"/>
	</g>
	<g>
		<path class="st0" d="M532.1,503.2c-0.6,0-1.1-0.2-1.6-0.5s-0.8-0.7-1-1.3h-0.1v0.4c0,0.2-0.1,0.4-0.1,0.6c0,0.3-0.4,2-1.1,5.1
			h-1.5l3.1-14.7h1.3l-0.2,1.9h0.1c1.1-1.4,2.3-2.1,3.5-2.1c0.8,0,1.5,0.3,2,0.9c0.5,0.6,0.7,1.4,0.7,2.5c0,1.3-0.2,2.5-0.6,3.6
			c-0.4,1.1-1,1.9-1.8,2.6C533.9,502.9,533.1,503.2,532.1,503.2z M533.9,494c-0.6,0-1.2,0.3-1.8,0.9c-0.6,0.6-1.1,1.3-1.5,2.2
			c-0.4,0.9-0.5,1.8-0.5,2.7c0,0.7,0.2,1.2,0.5,1.6c0.3,0.4,0.8,0.5,1.5,0.5c0.6,0,1.2-0.3,1.7-0.8s1-1.2,1.3-2.1
			c0.3-0.9,0.5-1.9,0.5-2.9C535.5,494.7,535,494,533.9,494z"/>
		<path class="st0" d="M545,492.7c0.4,0,0.8,0,1.1,0.1l-0.3,1.4c-0.3-0.1-0.7-0.1-1-0.1c-0.6,0-1.1,0.2-1.6,0.6
			c-0.5,0.4-0.9,0.9-1.3,1.5c-0.4,0.7-0.6,1.4-0.8,2.2l-1,4.7h-1.6l2.2-10.2h1.3l-0.2,1.9h0.1c0.4-0.6,0.8-1,1.1-1.3
			s0.6-0.5,0.9-0.6C544.3,492.7,544.6,492.7,545,492.7z"/>
		<path class="st0" d="M550.1,503.2c-1.1,0-2-0.3-2.7-1c-0.6-0.7-1-1.6-1-2.8s0.2-2.3,0.7-3.3c0.5-1.1,1.1-1.9,1.8-2.5
			c0.7-0.6,1.6-0.9,2.5-0.9c0.9,0,1.7,0.2,2.1,0.6c0.5,0.4,0.7,1,0.7,1.7c0,1.1-0.5,2-1.5,2.6s-2.5,1-4.4,1H548v0.7
			c0,0.8,0.2,1.4,0.6,1.9c0.4,0.5,1,0.7,1.8,0.7c0.4,0,0.8-0.1,1.2-0.2c0.4-0.1,0.9-0.3,1.5-0.6v1.4c-0.6,0.3-1.1,0.5-1.5,0.6
			C551.2,503.2,550.7,503.2,550.1,503.2z M551.4,494c-0.6,0-1.2,0.3-1.8,0.9c-0.6,0.6-1,1.4-1.3,2.4h0.1c1.4,0,2.5-0.2,3.2-0.6
			c0.8-0.4,1.1-0.9,1.1-1.6c0-0.3-0.1-0.6-0.3-0.8C552.3,494.1,551.9,494,551.4,494z"/>
		<path class="st0" d="M560,503.2c-0.6,0-1.1-0.2-1.6-0.5s-0.8-0.7-1-1.3h-0.1v0.4c0,0.2-0.1,0.4-0.1,0.6c0,0.3-0.4,2-1.1,5.1h-1.5
			l3.1-14.7h1.3l-0.2,1.9h0.1c1.1-1.4,2.3-2.1,3.5-2.1c0.8,0,1.5,0.3,2,0.9c0.5,0.6,0.7,1.4,0.7,2.5c0,1.3-0.2,2.5-0.6,3.6
			s-1,1.9-1.8,2.6C561.8,502.9,561,503.2,560,503.2z M561.7,494c-0.6,0-1.2,0.3-1.8,0.9c-0.6,0.6-1.1,1.3-1.5,2.2
			c-0.4,0.9-0.5,1.8-0.5,2.7c0,0.7,0.2,1.2,0.5,1.6c0.3,0.4,0.8,0.5,1.5,0.5c0.6,0,1.2-0.3,1.7-0.8s1-1.2,1.3-2.1
			c0.3-0.9,0.5-1.9,0.5-2.9C563.4,494.7,562.8,494,561.7,494z"/>
		<path class="st0" d="M571.8,492.7c0.6,0,1.1,0.2,1.5,0.5c0.4,0.3,0.8,0.7,1,1.3h0.1l0.6-1.6h1.2l-2.1,10.1h-1.2l0.2-1.9H573
			c-1.1,1.4-2.3,2.1-3.5,2.1c-0.9,0-1.5-0.3-2-0.9c-0.5-0.6-0.7-1.5-0.7-2.5c0-1.3,0.2-2.5,0.7-3.6c0.4-1.1,1-2,1.8-2.6
			S570.9,492.7,571.8,492.7z M570.1,501.9c0.6,0,1.2-0.3,1.8-0.9c0.6-0.6,1.1-1.3,1.4-2.2c0.4-0.9,0.6-1.8,0.6-2.8
			c0-0.6-0.2-1.1-0.5-1.5c-0.3-0.4-0.8-0.6-1.4-0.6s-1.2,0.3-1.8,0.8c-0.6,0.5-1,1.3-1.3,2.2c-0.3,0.9-0.5,1.9-0.5,2.9
			c0,0.7,0.1,1.2,0.4,1.6S569.5,501.9,570.1,501.9z"/>
		<path class="st0" d="M583.6,492.7c0.4,0,0.8,0,1.1,0.1l-0.3,1.4c-0.3-0.1-0.7-0.1-1-0.1c-0.6,0-1.1,0.2-1.6,0.6
			c-0.5,0.4-0.9,0.9-1.3,1.5c-0.4,0.7-0.6,1.4-0.8,2.2l-1,4.7h-1.6l2.2-10.2h1.3l-0.2,1.9h0.1c0.4-0.6,0.8-1,1.1-1.3
			c0.3-0.3,0.6-0.5,0.9-0.6C582.9,492.7,583.2,492.7,583.6,492.7z"/>
		<path class="st0" d="M588.7,503.2c-1.1,0-2-0.3-2.7-1c-0.6-0.7-1-1.6-1-2.8s0.2-2.3,0.7-3.3c0.5-1.1,1.1-1.9,1.8-2.5
			s1.6-0.9,2.5-0.9s1.7,0.2,2.1,0.6c0.5,0.4,0.7,1,0.7,1.7c0,1.1-0.5,2-1.5,2.6s-2.5,1-4.4,1h-0.3v0.7c0,0.8,0.2,1.4,0.6,1.9
			c0.4,0.5,1,0.7,1.8,0.7c0.4,0,0.8-0.1,1.2-0.2c0.4-0.1,0.9-0.3,1.5-0.6v1.4c-0.6,0.3-1.1,0.5-1.5,0.6
			C589.8,503.2,589.3,503.2,588.7,503.2z M590,494c-0.6,0-1.2,0.3-1.8,0.9c-0.6,0.6-1,1.4-1.3,2.4h0.1c1.4,0,2.5-0.2,3.2-0.6
			c0.8-0.4,1.1-0.9,1.1-1.6c0-0.3-0.1-0.6-0.3-0.8C590.9,494.1,590.5,494,590,494z"/>
		<path class="st0" d="M599.5,492.7c1.2,0,2.1,0.6,2.6,1.8h0.1c0.1-1,0.2-1.8,0.4-2.5l0.7-3.3h1.5l-3.1,14.4h-1.3l0.2-1.9h-0.1
			c-0.6,0.8-1.2,1.3-1.8,1.6c-0.5,0.3-1.1,0.5-1.7,0.5c-0.9,0-1.5-0.3-2-0.9s-0.7-1.4-0.7-2.5c0-1.3,0.2-2.5,0.7-3.6s1-2,1.8-2.6
			C597.7,493,598.5,492.7,599.5,492.7z M597.7,501.9c0.6,0,1.2-0.3,1.8-0.9c0.6-0.6,1.1-1.3,1.5-2.2s0.5-1.8,0.5-2.8
			c0-0.7-0.2-1.2-0.5-1.6c-0.3-0.4-0.8-0.5-1.5-0.5c-0.6,0-1.2,0.3-1.7,0.8s-1,1.2-1.3,2.2c-0.3,0.9-0.5,1.9-0.5,2.9
			C596,501.2,596.6,501.9,597.7,501.9z"/>
		<path class="st0" d="M608.5,507.6c-0.4,0-0.8-0.1-1.2-0.2v-1.3c0.4,0.1,0.7,0.2,1,0.2c0.5,0,0.8-0.2,1.1-0.6
			c0.3-0.4,0.5-0.9,0.6-1.6l2.1-10h-1.8l0.1-0.6l1.9-0.6l0.2-0.9c0.3-1.2,0.7-2.1,1.2-2.6s1.3-0.8,2.2-0.8c0.2,0,0.6,0,0.9,0.1
			c0.4,0.1,0.6,0.1,0.8,0.2l-0.4,1.2c-0.5-0.2-0.9-0.3-1.3-0.3c-0.5,0-1,0.2-1.2,0.5c-0.3,0.3-0.5,0.8-0.7,1.6l-0.2,1h2.2l-0.2,1.2
			h-2.2l-2.2,10.2c-0.2,1.2-0.6,2-1.1,2.6C609.9,507.3,609.3,507.6,608.5,507.6z"/>
		<path class="st0" d="M621.4,492.7c1.2,0,2.1,0.3,2.8,1s1,1.7,1,2.9s-0.2,2.3-0.7,3.3c-0.4,1-1,1.8-1.8,2.4
			c-0.8,0.6-1.6,0.8-2.6,0.8c-1.2,0-2.1-0.3-2.8-1s-1-1.7-1-2.9s0.2-2.3,0.7-3.3s1.1-1.8,1.8-2.4C619.6,493,620.4,492.7,621.4,492.7
			z M623.5,496.4c0-0.7-0.2-1.3-0.6-1.7c-0.4-0.4-0.9-0.7-1.6-0.7s-1.3,0.2-1.8,0.7s-0.9,1.1-1.2,1.9c-0.3,0.8-0.4,1.7-0.4,2.7
			c0,0.8,0.2,1.4,0.6,1.9c0.4,0.4,1,0.7,1.7,0.7c0.6,0,1.2-0.2,1.7-0.7s0.9-1.1,1.2-1.9C623.4,498.5,623.5,497.5,623.5,496.4z"/>
		<path class="st0" d="M633,492.7c0.4,0,0.8,0,1.1,0.1l-0.3,1.4c-0.3-0.1-0.7-0.1-1-0.1c-0.6,0-1.1,0.2-1.6,0.6
			c-0.5,0.4-0.9,0.9-1.3,1.5c-0.4,0.7-0.6,1.4-0.8,2.2l-1,4.7h-1.6l2.2-10.2h1.3l-0.2,1.9h0.1c0.4-0.6,0.8-1,1.1-1.3
			s0.6-0.5,0.9-0.6C632.3,492.7,632.6,492.7,633,492.7z"/>
		<path class="st0" d="M644.5,492.7c1.2,0,2.1,0.3,2.8,1s1,1.7,1,2.9s-0.2,2.3-0.7,3.3c-0.4,1-1,1.8-1.8,2.4
			c-0.8,0.6-1.6,0.8-2.6,0.8c-1.2,0-2.1-0.3-2.8-1c-0.7-0.7-1-1.7-1-2.9s0.2-2.3,0.7-3.3s1.1-1.8,1.8-2.4
			C642.7,493,643.5,492.7,644.5,492.7z M646.7,496.4c0-0.7-0.2-1.3-0.6-1.7c-0.4-0.4-0.9-0.7-1.6-0.7s-1.3,0.2-1.8,0.7
			s-0.9,1.1-1.2,1.9c-0.3,0.8-0.4,1.7-0.4,2.7c0,0.8,0.2,1.4,0.6,1.9c0.4,0.4,1,0.7,1.7,0.7c0.6,0,1.2-0.2,1.7-0.7s0.9-1.1,1.2-1.9
			C646.5,498.5,646.7,497.5,646.7,496.4z"/>
		<path class="st0" d="M653.3,492.9l-1.4,6.4c-0.1,0.6-0.2,1-0.2,1.3c0,0.9,0.5,1.3,1.4,1.3c0.5,0,1.1-0.2,1.6-0.6
			c0.5-0.4,1-0.9,1.4-1.6c0.4-0.7,0.7-1.5,0.9-2.5l0.9-4.4h1.5l-2.1,10.2H656l0.2-1.9h-0.1c-0.6,0.8-1.2,1.3-1.7,1.6
			c-0.6,0.3-1.1,0.5-1.7,0.5c-0.8,0-1.4-0.2-1.9-0.6c-0.5-0.4-0.7-1-0.7-1.8c0-0.4,0.1-0.9,0.2-1.6l1.4-6.3L653.3,492.9L653.3,492.9
			z"/>
		<path class="st0" d="M667.1,492.7c0.4,0,0.8,0,1.1,0.1l-0.3,1.4c-0.3-0.1-0.7-0.1-1-0.1c-0.6,0-1.1,0.2-1.6,0.6
			c-0.5,0.4-0.9,0.9-1.3,1.5c-0.4,0.7-0.6,1.4-0.8,2.2l-1,4.7h-1.6l2.2-10.2h1.3l-0.2,1.9h0.1c0.4-0.6,0.8-1,1.1-1.3
			c0.3-0.3,0.6-0.5,0.9-0.6C666.4,492.7,666.7,492.7,667.1,492.7z"/>
		<path class="st0" d="M677.6,503.2c-0.6,0-1.1-0.2-1.6-0.5s-0.8-0.7-1-1.3h-0.1v0.4c0,0.2-0.1,0.4-0.1,0.6c0,0.3-0.4,2-1.1,5.1
			h-1.5l3.1-14.7h1.3l-0.2,1.9h0.1c1.1-1.4,2.3-2.1,3.5-2.1c0.8,0,1.5,0.3,2,0.9c0.5,0.6,0.7,1.4,0.7,2.5c0,1.3-0.2,2.5-0.6,3.6
			s-1,1.9-1.8,2.6C679.5,502.9,678.6,503.2,677.6,503.2z M679.4,494c-0.6,0-1.2,0.3-1.8,0.9c-0.6,0.6-1.1,1.3-1.5,2.2
			c-0.4,0.9-0.5,1.8-0.5,2.7c0,0.7,0.2,1.2,0.5,1.6c0.3,0.4,0.8,0.5,1.5,0.5c0.6,0,1.2-0.3,1.7-0.8s1-1.2,1.3-2.1
			c0.3-0.9,0.5-1.9,0.5-2.9C681,494.7,680.5,494,679.4,494z"/>
		<path class="st0" d="M689.5,492.7c0.6,0,1.1,0.2,1.5,0.5s0.8,0.7,1,1.3h0.1l0.6-1.6h1.2l-2.2,10.2h-1.2l0.2-1.9h-0.1
			c-1.1,1.4-2.3,2.1-3.5,2.1c-0.9,0-1.5-0.3-2-0.9c-0.5-0.6-0.7-1.5-0.7-2.5c0-1.3,0.2-2.5,0.7-3.6c0.4-1.1,1-2,1.8-2.6
			C687.7,493,688.6,492.7,689.5,492.7z M687.7,501.9c0.6,0,1.2-0.3,1.8-0.9s1.1-1.3,1.4-2.2c0.4-0.9,0.6-1.8,0.6-2.8
			c0-0.6-0.2-1.1-0.5-1.5s-0.8-0.6-1.4-0.6c-0.6,0-1.2,0.3-1.8,0.8c-0.6,0.5-1,1.3-1.3,2.2s-0.5,1.9-0.5,2.9c0,0.7,0.1,1.2,0.4,1.6
			C686.8,501.8,687.2,501.9,687.7,501.9z"/>
		<path class="st0" d="M698,501.9c0.3,0,0.8-0.1,1.3-0.2v1.2c-0.2,0.1-0.5,0.2-0.8,0.2c-0.3,0.1-0.6,0.1-0.7,0.1
			c-0.8,0-1.4-0.2-1.8-0.6c-0.4-0.4-0.6-0.9-0.6-1.6c0-0.4,0.1-0.9,0.2-1.4l1.2-5.6h-1.6l0.1-0.7l1.7-0.7l1.2-2.1h0.9l-0.5,2.3h2.5
			l-0.2,1.2h-2.5l-1.2,5.6c-0.1,0.5-0.2,0.9-0.2,1.2s0.1,0.6,0.3,0.8C697.4,501.9,697.6,501.9,698,501.9z"/>
		<path class="st0" d="M705,503.2c-1.1,0-2-0.3-2.7-1c-0.6-0.7-1-1.6-1-2.8s0.2-2.3,0.7-3.3c0.5-1.1,1.1-1.9,1.8-2.5
			s1.6-0.9,2.5-0.9c0.9,0,1.7,0.2,2.1,0.6c0.5,0.4,0.7,1,0.7,1.7c0,1.1-0.5,2-1.5,2.6s-2.5,1-4.4,1H703v0.7c0,0.8,0.2,1.4,0.6,1.9
			c0.4,0.5,1,0.7,1.8,0.7c0.4,0,0.8-0.1,1.2-0.2c0.4-0.1,0.9-0.3,1.5-0.6v1.4c-0.6,0.3-1.1,0.5-1.5,0.6
			C706,503.2,705.6,503.2,705,503.2z M706.3,494c-0.6,0-1.2,0.3-1.8,0.9c-0.6,0.6-1,1.4-1.3,2.4h0.1c1.4,0,2.5-0.2,3.2-0.6
			c0.8-0.4,1.1-0.9,1.1-1.6c0-0.3-0.1-0.6-0.3-0.8C707.1,494.1,706.8,494,706.3,494z"/>
		<path class="st0" d="M716.6,503l1.4-6.4c0.1-0.6,0.2-1.1,0.2-1.3c0-0.4-0.1-0.7-0.3-0.9c-0.2-0.2-0.6-0.4-1.1-0.4
			c-0.6,0-1.1,0.2-1.6,0.6c-0.5,0.4-1,0.9-1.4,1.6c-0.4,0.7-0.7,1.5-0.9,2.5l-0.9,4.4h-1.6l2.2-10.2h1.3l-0.2,1.9h0.1
			c0.6-0.8,1.2-1.3,1.7-1.6c0.6-0.3,1.1-0.5,1.7-0.5c0.8,0,1.4,0.2,1.9,0.6c0.5,0.4,0.7,1,0.7,1.8c0,0.5-0.1,1-0.2,1.7l-1.3,6.2
			L716.6,503L716.6,503z"/>
		<path class="st0" d="M724.5,501.9c0.3,0,0.8-0.1,1.3-0.2v1.2c-0.2,0.1-0.5,0.2-0.8,0.2c-0.3,0.1-0.6,0.1-0.7,0.1
			c-0.8,0-1.4-0.2-1.8-0.6c-0.4-0.4-0.6-0.9-0.6-1.6c0-0.4,0.1-0.9,0.2-1.4l1.2-5.6h-1.6l0.1-0.7l1.7-0.7l1.2-2.1h0.9l-0.5,2.3h2.5
			l-0.2,1.2h-2.5l-1.2,5.6c-0.1,0.5-0.2,0.9-0.2,1.2s0.1,0.6,0.3,0.8C723.9,501.9,724.1,501.9,724.5,501.9z"/>
		<path class="st0" d="M737.8,492.7c0.6,0,1.1,0.2,1.5,0.5s0.8,0.7,1,1.3h0.1l0.6-1.6h1.2l-2.2,10.2h-1.2l0.2-1.9l0,0
			c-1.1,1.4-2.3,2.1-3.5,2.1c-0.9,0-1.5-0.3-2-0.9c-0.5-0.6-0.7-1.5-0.7-2.5c0-1.3,0.2-2.5,0.7-3.6c0.4-1.1,1-2,1.8-2.6
			C736,493,736.9,492.7,737.8,492.7z M736,501.9c0.6,0,1.2-0.3,1.8-0.9c0.6-0.6,1.1-1.3,1.4-2.2c0.4-0.9,0.6-1.8,0.6-2.8
			c0-0.6-0.2-1.1-0.5-1.5s-0.8-0.6-1.4-0.6c-0.6,0-1.2,0.3-1.8,0.8s-1,1.3-1.3,2.2c-0.3,0.9-0.5,1.9-0.5,2.9c0,0.7,0.1,1.2,0.4,1.6
			C735.1,501.8,735.5,501.9,736,501.9z"/>
		<path class="st0" d="M746.3,501.9c0.3,0,0.8-0.1,1.3-0.2v1.2c-0.2,0.1-0.5,0.2-0.8,0.2c-0.3,0.1-0.6,0.1-0.7,0.1
			c-0.8,0-1.4-0.2-1.8-0.6c-0.4-0.4-0.6-0.9-0.6-1.6c0-0.4,0.1-0.9,0.2-1.4l1.2-5.6h-1.6l0.1-0.7l1.7-0.7l1.2-2.1h0.9l-0.5,2.3h2.5
			l-0.2,1.2h-2.5l-1.2,5.6c-0.1,0.5-0.2,0.9-0.2,1.2s0.1,0.6,0.3,0.8S746,501.9,746.3,501.9z"/>
		<path class="st0" d="M752.4,501.9c0.3,0,0.8-0.1,1.3-0.2v1.2c-0.2,0.1-0.5,0.2-0.8,0.2c-0.3,0.1-0.6,0.1-0.7,0.1
			c-0.8,0-1.4-0.2-1.8-0.6c-0.4-0.4-0.6-0.9-0.6-1.6c0-0.4,0.1-0.9,0.2-1.4l1.2-5.6h-1.6l0.1-0.7l1.7-0.7l1.2-2.1h0.9l-0.5,2.3h2.5
			l-0.2,1.2h-2.5l-1.2,5.6c-0.1,0.5-0.2,0.9-0.2,1.2s0.1,0.6,0.3,0.8C751.9,501.8,752.1,501.9,752.4,501.9z"/>
		<path class="st0" d="M760.9,492.7c1.2,0,2.1,0.3,2.8,1c0.7,0.7,1,1.7,1,2.9s-0.2,2.3-0.7,3.3c-0.4,1-1,1.8-1.8,2.4
			c-0.8,0.6-1.6,0.8-2.6,0.8c-1.2,0-2.1-0.3-2.8-1s-1-1.7-1-2.9s0.2-2.3,0.7-3.3s1.1-1.8,1.8-2.4C759.1,493,760,492.7,760.9,492.7z
			 M763.1,496.4c0-0.7-0.2-1.3-0.6-1.7s-0.9-0.7-1.6-0.7c-0.7,0-1.3,0.2-1.8,0.7s-0.9,1.1-1.2,1.9c-0.3,0.8-0.4,1.7-0.4,2.7
			c0,0.8,0.2,1.4,0.6,1.9c0.4,0.4,1,0.7,1.7,0.7c0.6,0,1.2-0.2,1.7-0.7s0.9-1.1,1.2-1.9C762.9,498.5,763.1,497.5,763.1,496.4z"/>
		<path class="st0" d="M772.6,492.7c0.4,0,0.8,0,1.1,0.1l-0.3,1.4c-0.3-0.1-0.7-0.1-1-0.1c-0.6,0-1.1,0.2-1.6,0.6
			c-0.5,0.4-0.9,0.9-1.3,1.5c-0.4,0.7-0.6,1.4-0.8,2.2l-1,4.7h-1.6l2.2-10.2h1.3l-0.2,1.9h0.1c0.4-0.6,0.8-1,1.1-1.3
			s0.6-0.5,0.9-0.6C771.8,492.7,772.2,492.7,772.6,492.7z"/>
		<path class="st0" d="M779.9,503l1.4-6.4c0.1-0.6,0.2-1.1,0.2-1.3c0-0.4-0.1-0.7-0.3-0.9s-0.6-0.4-1.1-0.4c-0.6,0-1.1,0.2-1.6,0.6
			c-0.5,0.4-1,0.9-1.4,1.6c-0.4,0.7-0.7,1.5-0.9,2.5l-0.9,4.4h-1.6l2.2-10.2h1.3l-0.2,1.9h0.1c0.6-0.8,1.2-1.3,1.7-1.6
			s1.1-0.5,1.7-0.5c0.8,0,1.4,0.2,1.9,0.6c0.5,0.4,0.7,1,0.7,1.8c0,0.5-0.1,1-0.2,1.7l-1.3,6.2L779.9,503L779.9,503z"/>
		<path class="st0" d="M788.7,503.2c-1.1,0-2-0.3-2.7-1c-0.6-0.7-1-1.6-1-2.8s0.2-2.3,0.7-3.3c0.5-1.1,1.1-1.9,1.8-2.5
			s1.6-0.9,2.5-0.9s1.7,0.2,2.1,0.6c0.5,0.4,0.7,1,0.7,1.7c0,1.1-0.5,2-1.5,2.6s-2.5,1-4.4,1h-0.3v0.7c0,0.8,0.2,1.4,0.6,1.9
			c0.4,0.5,1,0.7,1.8,0.7c0.4,0,0.8-0.1,1.2-0.2s0.9-0.3,1.5-0.6v1.4c-0.6,0.3-1.1,0.5-1.5,0.6C789.7,503.2,789.2,503.2,788.7,503.2
			z M789.9,494c-0.6,0-1.2,0.3-1.8,0.9c-0.6,0.6-1,1.4-1.3,2.4h0.1c1.4,0,2.5-0.2,3.2-0.6c0.8-0.4,1.1-0.9,1.1-1.6
			c0-0.3-0.1-0.6-0.3-0.8C790.7,494.1,790.4,494,789.9,494z"/>
		<path class="st0" d="M794.4,492.9h1.6l0.7,5.1c0.1,0.4,0.1,1.1,0.2,1.9s0.1,1.5,0.1,2h0.1c0.2-0.5,0.5-1.2,0.8-1.9
			s0.6-1.2,0.7-1.4l3-5.7h1.7l-6.5,11.9c-0.6,1.1-1.1,1.8-1.7,2.2s-1.2,0.6-2,0.6c-0.4,0-0.9-0.1-1.3-0.2v-1.3
			c0.4,0.1,0.8,0.2,1.2,0.2c0.5,0,0.9-0.2,1.3-0.5s0.7-0.8,1.1-1.4l0.7-1.3L794.4,492.9z"/>
	</g>
	<g>
		<path class="st0" d="M646.1,436.6c0,3.2-0.8,5.7-2.4,7.4s-3.9,2.5-7,2.5c-3,0-5.3-0.8-7-2.5c-1.6-1.7-2.4-4.2-2.4-7.4
			s0.8-5.7,2.4-7.4c1.6-1.7,3.9-2.5,7-2.5s5.4,0.8,7,2.5S646.1,433.4,646.1,436.6z M632.8,436.6c0,3.7,1.3,5.6,3.9,5.6
			c1.3,0,2.3-0.5,2.9-1.4s1-2.3,1-4.2s-0.3-3.3-1-4.3c-0.6-0.9-1.6-1.4-2.9-1.4C634.2,431,632.8,432.9,632.8,436.6z"/>
		<path class="st0" d="M658.2,431c-1.2,0-2.2,0.5-2.9,1.5s-1,2.4-1,4.2c0,3.7,1.4,5.6,4.2,5.6c0.9,0,1.7-0.1,2.5-0.4
			s1.6-0.5,2.4-0.9v4.4c-1.6,0.7-3.4,1.1-5.5,1.1c-2.9,0-5.1-0.8-6.7-2.5c-1.6-1.7-2.3-4.1-2.3-7.3c0-2,0.4-3.7,1.1-5.3
			c0.8-1.5,1.8-2.7,3.2-3.5c1.4-0.8,3.1-1.2,5-1.2c2.1,0,4.1,0.5,6,1.4l-1.6,4.1c-0.7-0.3-1.4-0.6-2.1-0.8
			C659.8,431.1,659,431,658.2,431z"/>
		<path class="st0" d="M675.6,446.3h-5.2v-15h-4.7V427h14.6v4.3h-4.7L675.6,446.3L675.6,446.3z"/>
		<path class="st0" d="M700.4,446.3h-5.3v-10.2c0-1.2,0-2.4,0.1-3.4c-0.3,0.4-0.7,0.8-1.2,1.2l-2.2,1.8l-2.7-3.3l6.6-5.4h4.7V446.3
			L700.4,446.3z"/>
	</g>
</g>
<g>
	<g>
		<path class="st0" d="M1122.4,466.3c2.7,0,4,1,4,3.1c0,0.9-0.3,1.6-0.8,2.2c-0.5,0.6-1.3,1-2.3,1.2v0.1c0.7,0.2,1.3,0.5,1.6,1
			c0.4,0.5,0.6,1.1,0.6,1.7c0,1.3-0.5,2.3-1.4,3.1c-0.9,0.7-2.2,1.1-3.8,1.1h-4.3l2.9-13.6h3.5V466.3z M1117.9,478.5h2.5
			c1.1,0,2-0.2,2.6-0.7s0.9-1.2,0.9-2.1c0-0.7-0.2-1.3-0.7-1.6c-0.5-0.4-1.1-0.6-2-0.6h-2.2L1117.9,478.5z M1119.3,472.1h2.3
			c1,0,1.7-0.2,2.3-0.7c0.6-0.5,0.9-1.1,0.9-1.8c0-0.6-0.2-1.1-0.6-1.4c-0.4-0.3-1.1-0.5-1.9-0.5h-2L1119.3,472.1z"/>
		<path class="st0" d="M1131.2,480c-1.1,0-2-0.3-2.7-1c-0.6-0.7-1-1.6-1-2.8s0.2-2.3,0.7-3.3c0.5-1.1,1.1-1.9,1.8-2.5
			s1.6-0.9,2.5-0.9s1.7,0.2,2.1,0.6c0.5,0.4,0.7,1,0.7,1.7c0,1.1-0.5,2-1.5,2.6s-2.5,1-4.4,1h-0.3v0.7c0,0.8,0.2,1.4,0.6,1.9
			c0.4,0.5,1,0.7,1.8,0.7c0.4,0,0.8-0.1,1.2-0.2s0.9-0.3,1.5-0.6v1.4c-0.6,0.3-1.1,0.5-1.5,0.6C1132.2,480,1131.7,480,1131.2,480z
			 M1132.5,470.8c-0.6,0-1.2,0.3-1.8,0.9c-0.6,0.6-1,1.4-1.3,2.4h0.1c1.4,0,2.5-0.2,3.2-0.6c0.8-0.4,1.1-0.9,1.1-1.6
			c0-0.3-0.1-0.6-0.3-0.8S1132.9,470.8,1132.5,470.8z"/>
		<path class="st0" d="M1142.9,479.8h-1.6l2.2-10.2h1.6L1142.9,479.8z M1144,467.1c0-0.3,0.1-0.6,0.3-0.8c0.2-0.2,0.5-0.3,0.8-0.3
			c0.5,0,0.8,0.3,0.8,0.8c0,0.3-0.1,0.6-0.3,0.9s-0.4,0.4-0.7,0.4c-0.2,0-0.5-0.1-0.6-0.2C1144.1,467.6,1144,467.3,1144,467.1z"/>
		<path class="st0" d="M1152.4,479.8l1.4-6.4c0.1-0.6,0.2-1.1,0.2-1.3c0-0.4-0.1-0.7-0.3-0.9s-0.6-0.4-1.1-0.4
			c-0.6,0-1.1,0.2-1.6,0.6c-0.5,0.4-1,0.9-1.4,1.6c-0.4,0.7-0.7,1.5-0.9,2.5l-0.9,4.4h-1.6l2.2-10.2h1.3l-0.2,1.9h0.1
			c0.6-0.8,1.2-1.3,1.7-1.6s1.1-0.5,1.7-0.5c0.8,0,1.4,0.2,1.9,0.6c0.5,0.4,0.7,1,0.7,1.8c0,0.5-0.1,1-0.2,1.7l-1.3,6.2
			L1152.4,479.8L1152.4,479.8z"/>
		<path class="st0" d="M1166.5,480c-0.6,0-1.1-0.2-1.6-0.5s-0.8-0.7-1-1.3h-0.1v0.4c0,0.2-0.1,0.4-0.1,0.6c0,0.3-0.4,2-1.1,5.1h-1.5
			l3.1-14.7h1.3l-0.2,1.9h0.1c1.1-1.4,2.3-2.1,3.5-2.1c0.8,0,1.5,0.3,2,0.9c0.5,0.6,0.7,1.4,0.7,2.5c0,1.3-0.2,2.5-0.6,3.6
			c-0.4,1.1-1,1.9-1.8,2.6C1168.3,479.7,1167.5,480,1166.5,480z M1168.2,470.8c-0.6,0-1.2,0.3-1.8,0.9s-1.1,1.3-1.5,2.2
			s-0.5,1.8-0.5,2.7c0,0.7,0.2,1.2,0.5,1.6c0.3,0.4,0.8,0.5,1.5,0.5c0.6,0,1.2-0.3,1.7-0.8s1-1.2,1.3-2.1c0.3-0.9,0.5-1.9,0.5-2.9
			C1169.9,471.5,1169.3,470.8,1168.2,470.8z"/>
		<path class="st0" d="M1178.4,469.5c0.6,0,1.1,0.2,1.5,0.5s0.8,0.7,1,1.3h0.1l0.6-1.6h1.2l-2.2,10.2h-1.2l0.2-1.9h-0.1
			c-1.1,1.4-2.3,2.1-3.5,2.1c-0.9,0-1.5-0.3-2-0.9c-0.5-0.6-0.7-1.5-0.7-2.5c0-1.3,0.2-2.5,0.7-3.6c0.4-1.1,1-2,1.8-2.6
			C1176.6,469.8,1177.4,469.5,1178.4,469.5z M1176.6,478.7c0.6,0,1.2-0.3,1.8-0.9c0.6-0.6,1.1-1.3,1.4-2.2c0.4-0.9,0.6-1.8,0.6-2.8
			c0-0.6-0.2-1.1-0.5-1.5c-0.3-0.4-0.8-0.6-1.4-0.6c-0.6,0-1.2,0.3-1.8,0.8s-1,1.3-1.3,2.2c-0.3,0.9-0.5,1.9-0.5,2.9
			c0,0.7,0.1,1.2,0.4,1.6C1175.7,478.6,1176.1,478.7,1176.6,478.7z"/>
		<path class="st0" d="M1186.8,478.7c0.3,0,0.8-0.1,1.3-0.2v1.2c-0.2,0.1-0.5,0.2-0.8,0.2c-0.3,0.1-0.6,0.1-0.7,0.1
			c-0.8,0-1.4-0.2-1.8-0.6c-0.4-0.4-0.6-0.9-0.6-1.6c0-0.4,0.1-0.9,0.2-1.4l1.2-5.6h-1.6l0.1-0.7l1.7-0.7l1.2-2.1h0.9l-0.5,2.3h2.5
			l-0.2,1.2h-2.5l-1.2,5.6c-0.1,0.5-0.2,0.9-0.2,1.2s0.1,0.6,0.3,0.8S1186.5,478.7,1186.8,478.7z"/>
		<path class="st0" d="M1193.9,480c-1.1,0-2-0.3-2.7-1c-0.6-0.7-1-1.6-1-2.8s0.2-2.3,0.7-3.3c0.5-1.1,1.1-1.9,1.8-2.5
			c0.7-0.6,1.6-0.9,2.5-0.9c0.9,0,1.7,0.2,2.1,0.6c0.5,0.4,0.7,1,0.7,1.7c0,1.1-0.5,2-1.5,2.6s-2.5,1-4.4,1h-0.3v0.7
			c0,0.8,0.2,1.4,0.6,1.9c0.4,0.5,1,0.7,1.8,0.7c0.4,0,0.8-0.1,1.2-0.2c0.4-0.1,0.9-0.3,1.5-0.6v1.4c-0.6,0.3-1.1,0.5-1.5,0.6
			C1194.9,480,1194.4,480,1193.9,480z M1195.2,470.8c-0.6,0-1.2,0.3-1.8,0.9c-0.6,0.6-1,1.4-1.3,2.4h0.1c1.4,0,2.5-0.2,3.2-0.6
			c0.8-0.4,1.1-0.9,1.1-1.6c0-0.3-0.1-0.6-0.3-0.8C1196,470.9,1195.7,470.8,1195.2,470.8z"/>
		<path class="st0" d="M1205.5,479.8l1.4-6.4c0.1-0.6,0.2-1.1,0.2-1.3c0-0.4-0.1-0.7-0.3-0.9s-0.6-0.4-1.1-0.4
			c-0.6,0-1.1,0.2-1.6,0.6c-0.5,0.4-1,0.9-1.4,1.6c-0.4,0.7-0.7,1.5-0.9,2.5l-0.9,4.4h-1.6l2.2-10.2h1.3l-0.2,1.9h0.1
			c0.6-0.8,1.2-1.3,1.7-1.6s1.1-0.5,1.7-0.5c0.8,0,1.4,0.2,1.9,0.6c0.5,0.4,0.7,1,0.7,1.8c0,0.5-0.1,1-0.2,1.7l-1.3,6.2
			L1205.5,479.8L1205.5,479.8z"/>
		<path class="st0" d="M1213.3,478.7c0.3,0,0.8-0.1,1.3-0.2v1.2c-0.2,0.1-0.5,0.2-0.8,0.2c-0.3,0.1-0.6,0.1-0.7,0.1
			c-0.8,0-1.4-0.2-1.8-0.6c-0.4-0.4-0.6-0.9-0.6-1.6c0-0.4,0.1-0.9,0.2-1.4l1.2-5.6h-1.6l0.1-0.7l1.7-0.7l1.2-2.1h0.9l-0.5,2.3h2.5
			l-0.2,1.2h-2.5l-1.2,5.6c-0.1,0.5-0.2,0.9-0.2,1.2s0.1,0.6,0.3,0.8C1212.8,478.6,1213,478.7,1213.3,478.7z"/>
		<path class="st0" d="M1225.7,480c-0.6,0-1.1-0.2-1.6-0.5s-0.8-0.7-1-1.3h-0.1v0.4c0,0.2-0.1,0.4-0.1,0.6c0,0.3-0.4,2-1.1,5.1h-1.5
			l3.1-14.7h1.3l-0.2,1.9h0.1c1.1-1.4,2.3-2.1,3.5-2.1c0.8,0,1.5,0.3,2,0.9c0.5,0.6,0.7,1.4,0.7,2.5c0,1.3-0.2,2.5-0.6,3.6
			c-0.4,1.1-1,1.9-1.8,2.6C1227.5,479.7,1226.7,480,1225.7,480z M1227.5,470.8c-0.6,0-1.2,0.3-1.8,0.9c-0.6,0.6-1.1,1.3-1.5,2.2
			c-0.4,0.9-0.5,1.8-0.5,2.7c0,0.7,0.2,1.2,0.5,1.6c0.3,0.4,0.8,0.5,1.5,0.5c0.6,0,1.2-0.3,1.7-0.8s1-1.2,1.3-2.1
			c0.3-0.9,0.5-1.9,0.5-2.9C1229.1,471.5,1228.6,470.8,1227.5,470.8z"/>
		<path class="st0" d="M1236.2,480c-1.1,0-2-0.3-2.7-1c-0.6-0.7-1-1.6-1-2.8s0.2-2.3,0.7-3.3c0.5-1.1,1.1-1.9,1.8-2.5
			s1.6-0.9,2.5-0.9s1.7,0.2,2.1,0.6c0.5,0.4,0.7,1,0.7,1.7c0,1.1-0.5,2-1.5,2.6s-2.5,1-4.4,1h-0.3v0.7c0,0.8,0.2,1.4,0.6,1.9
			c0.4,0.5,1,0.7,1.8,0.7c0.4,0,0.8-0.1,1.2-0.2s0.9-0.3,1.5-0.6v1.4c-0.6,0.3-1.1,0.5-1.5,0.6C1237.2,480,1236.7,480,1236.2,480z
			 M1237.5,470.8c-0.6,0-1.2,0.3-1.8,0.9c-0.6,0.6-1,1.4-1.3,2.4h0.1c1.4,0,2.5-0.2,3.2-0.6c0.8-0.4,1.1-0.9,1.1-1.6
			c0-0.3-0.1-0.6-0.3-0.8S1238,470.8,1237.5,470.8z"/>
		<path class="st0" d="M1247.8,479.8l1.4-6.4c0.1-0.6,0.2-1.1,0.2-1.3c0-0.4-0.1-0.7-0.3-0.9c-0.2-0.2-0.6-0.4-1.1-0.4
			c-0.6,0-1.1,0.2-1.6,0.6c-0.5,0.4-1,0.9-1.4,1.6c-0.4,0.7-0.7,1.5-0.9,2.5l-0.9,4.4h-1.6l2.2-10.2h1.3l-0.2,1.9h0.1
			c0.6-0.8,1.2-1.3,1.7-1.6s1.1-0.5,1.7-0.5c0.8,0,1.4,0.2,1.9,0.6c0.5,0.4,0.7,1,0.7,1.8c0,0.5-0.1,1-0.2,1.7l-1.3,6.2
			L1247.8,479.8L1247.8,479.8z"/>
		<path class="st0" d="M1257.9,469.5c1.2,0,2.1,0.6,2.6,1.8h0.1c0.1-1,0.2-1.8,0.4-2.5l0.7-3.3h1.5l-3.1,14.4h-1.3l0.2-1.9h-0.1
			c-0.6,0.8-1.2,1.3-1.8,1.6c-0.5,0.3-1.1,0.5-1.7,0.5c-0.9,0-1.5-0.3-2-0.9s-0.7-1.4-0.7-2.5c0-1.3,0.2-2.5,0.7-3.6s1-2,1.8-2.6
			C1256.1,469.8,1257,469.5,1257.9,469.5z M1256.1,478.7c0.6,0,1.2-0.3,1.8-0.9c0.6-0.6,1.1-1.3,1.5-2.2c0.4-0.9,0.5-1.8,0.5-2.8
			c0-0.7-0.2-1.2-0.5-1.6c-0.3-0.4-0.8-0.5-1.5-0.5c-0.6,0-1.2,0.3-1.7,0.8s-1,1.2-1.3,2.2c-0.3,0.9-0.5,1.9-0.5,2.9
			C1254.5,478,1255,478.7,1256.1,478.7z"/>
		<path class="st0" d="M1265.1,479.8h-1.6l2.2-10.2h1.6L1265.1,479.8z M1266.1,467.1c0-0.3,0.1-0.6,0.3-0.8c0.2-0.2,0.5-0.3,0.8-0.3
			c0.5,0,0.8,0.3,0.8,0.8c0,0.3-0.1,0.6-0.3,0.9s-0.4,0.4-0.7,0.4c-0.2,0-0.5-0.1-0.6-0.2C1266.2,467.6,1266.1,467.3,1266.1,467.1z"
			/>
		<path class="st0" d="M1274.5,479.8l1.4-6.4c0.1-0.6,0.2-1.1,0.2-1.3c0-0.4-0.1-0.7-0.3-0.9s-0.6-0.4-1.1-0.4
			c-0.6,0-1.1,0.2-1.6,0.6c-0.5,0.4-1,0.9-1.4,1.6c-0.4,0.7-0.7,1.5-0.9,2.5l-0.9,4.4h-1.6l2.2-10.2h1.3l-0.2,1.9h0.1
			c0.6-0.8,1.2-1.3,1.7-1.6s1.1-0.5,1.7-0.5c0.8,0,1.4,0.2,1.9,0.6c0.5,0.4,0.7,1,0.7,1.8c0,0.5-0.1,1-0.2,1.7l-1.3,6.2
			L1274.5,479.8L1274.5,479.8z"/>
		<path class="st0" d="M1288.9,469.7l-0.2,1l-2,0.2c0.3,0.4,0.4,0.9,0.4,1.5c0,1.2-0.4,2.1-1.1,2.8s-1.7,1.1-2.9,1.1
			c-0.3,0-0.6,0-0.8-0.1c-0.9,0.3-1.3,0.7-1.3,1.2c0,0.3,0.1,0.4,0.3,0.5s0.5,0.1,0.9,0.2l1.1,0.1c1.1,0.1,1.9,0.4,2.4,0.8
			c0.5,0.4,0.8,1,0.8,1.8c0,1.1-0.5,2-1.4,2.6c-0.9,0.6-2.2,0.9-3.8,0.9c-1.2,0-2.1-0.2-2.8-0.7c-0.7-0.5-1-1.1-1-1.9
			c0-0.6,0.2-1.2,0.7-1.7c0.4-0.5,1.2-0.9,2.2-1.2c-0.5-0.3-0.7-0.6-0.7-1.1c0-0.4,0.2-0.8,0.5-1.1s0.8-0.6,1.3-0.9
			c-0.4-0.2-0.7-0.5-1-0.9c-0.2-0.4-0.4-0.8-0.4-1.3c0-1.2,0.4-2.2,1.1-3s1.7-1.2,2.8-1.2c0.5,0,1,0.1,1.4,0.2h3.5V469.7z
			 M1279.1,481.6c0,0.5,0.2,0.9,0.6,1.1c0.4,0.3,1,0.4,1.8,0.4c1.1,0,2-0.2,2.6-0.6c0.6-0.4,1-0.9,1-1.7c0-0.4-0.2-0.7-0.5-0.9
			c-0.3-0.2-0.9-0.4-1.7-0.5l-1.5-0.1c-0.7,0.2-1.3,0.4-1.7,0.8C1279.3,480.6,1279.1,481.1,1279.1,481.6z M1281.6,473.5
			c0,0.5,0.1,0.9,0.4,1.2s0.7,0.4,1.2,0.4s0.9-0.1,1.3-0.4c0.4-0.3,0.6-0.6,0.8-1.1c0.2-0.5,0.3-0.9,0.3-1.5c0-0.5-0.1-0.9-0.4-1.2
			s-0.7-0.4-1.2-0.4s-0.9,0.1-1.3,0.4c-0.4,0.3-0.6,0.6-0.8,1C1281.7,472.3,1281.6,473,1281.6,473.5z"/>
		<path class="st0" d="M1299.9,476.9c0,1-0.3,1.7-1,2.3c-0.7,0.5-1.6,0.8-2.9,0.8c-1,0-2-0.2-2.8-0.6v-1.5c0.4,0.3,0.9,0.5,1.4,0.6
			s1,0.2,1.4,0.2c0.8,0,1.4-0.2,1.8-0.5c0.4-0.3,0.6-0.7,0.6-1.2c0-0.4-0.1-0.6-0.3-0.9c-0.2-0.2-0.7-0.6-1.4-1
			c-0.8-0.5-1.4-0.9-1.7-1.3c-0.3-0.4-0.5-0.9-0.5-1.5c0-0.9,0.3-1.5,0.9-2.1s1.4-0.8,2.5-0.8s2.1,0.2,3.1,0.7l-0.5,1.3l-0.5-0.2
			c-0.6-0.3-1.3-0.4-2-0.4c-0.6,0-1,0.1-1.4,0.4c-0.3,0.3-0.5,0.6-0.5,1c0,0.3,0.1,0.6,0.3,0.9c0.2,0.2,0.7,0.6,1.4,1
			c0.7,0.4,1.1,0.7,1.4,1s0.5,0.6,0.6,0.9C1299.9,476.2,1299.9,476.6,1299.9,476.9z"/>
		<path class="st0" d="M1304.9,478.7c0.3,0,0.8-0.1,1.3-0.2v1.2c-0.2,0.1-0.5,0.2-0.8,0.2c-0.3,0.1-0.6,0.1-0.7,0.1
			c-0.8,0-1.4-0.2-1.8-0.6c-0.4-0.4-0.6-0.9-0.6-1.6c0-0.4,0.1-0.9,0.2-1.4l1.2-5.6h-1.6l0.1-0.7l1.7-0.7l1.2-2.1h0.9l-0.5,2.3h2.5
			l-0.2,1.2h-2.5l-1.2,5.6c-0.1,0.5-0.2,0.9-0.2,1.2s0.1,0.6,0.3,0.8S1304.6,478.7,1304.9,478.7z"/>
		<path class="st0" d="M1313.3,469.5c0.6,0,1.1,0.2,1.5,0.5c0.4,0.3,0.8,0.7,1,1.3h0.1l0.6-1.6h1.2l-2.2,10.2h-1.2l0.2-1.9h-0.1
			c-1.1,1.4-2.3,2.1-3.5,2.1c-0.9,0-1.5-0.3-2-0.9c-0.5-0.6-0.7-1.5-0.7-2.5c0-1.3,0.2-2.5,0.7-3.6c0.4-1.1,1-2,1.8-2.6
			C1311.6,469.8,1312.4,469.5,1313.3,469.5z M1311.6,478.7c0.6,0,1.2-0.3,1.8-0.9c0.6-0.6,1.1-1.3,1.4-2.2c0.4-0.9,0.6-1.8,0.6-2.8
			c0-0.6-0.2-1.1-0.5-1.5c-0.3-0.4-0.8-0.6-1.4-0.6c-0.6,0-1.2,0.3-1.8,0.8s-1,1.3-1.3,2.2c-0.3,0.9-0.5,1.9-0.5,2.9
			c0,0.7,0.1,1.2,0.4,1.6C1310.6,478.6,1311.1,478.7,1311.6,478.7z"/>
		<path class="st0" d="M1321.8,478.7c0.3,0,0.8-0.1,1.3-0.2v1.2c-0.2,0.1-0.5,0.2-0.8,0.2c-0.3,0.1-0.6,0.1-0.7,0.1
			c-0.8,0-1.4-0.2-1.8-0.6c-0.4-0.4-0.6-0.9-0.6-1.6c0-0.4,0.1-0.9,0.2-1.4l1.2-5.6h-1.6l0.1-0.7l1.7-0.7l1.2-2.1h0.9l-0.5,2.3h2.5
			l-0.2,1.2h-2.5l-1.2,5.6c-0.1,0.5-0.2,0.9-0.2,1.2s0.1,0.6,0.3,0.8S1321.5,478.7,1321.8,478.7z"/>
		<path class="st0" d="M1328.5,469.7l-1.4,6.4c-0.1,0.6-0.2,1-0.2,1.3c0,0.9,0.5,1.3,1.4,1.3c0.5,0,1.1-0.2,1.6-0.6
			c0.5-0.4,1-0.9,1.4-1.6c0.4-0.7,0.7-1.5,0.9-2.5l0.9-4.4h1.5l-2.1,10.2h-1.3l0.2-1.9h-0.1c-0.6,0.8-1.2,1.3-1.7,1.6
			s-1.1,0.5-1.7,0.5c-0.8,0-1.4-0.2-1.9-0.6s-0.7-1-0.7-1.8c0-0.4,0.1-0.9,0.2-1.6l1.4-6.3L1328.5,469.7L1328.5,469.7z"/>
		<path class="st0" d="M1342.1,476.9c0,1-0.3,1.7-1,2.3c-0.7,0.5-1.6,0.8-2.9,0.8c-1,0-2-0.2-2.8-0.6v-1.5c0.4,0.3,0.9,0.5,1.4,0.6
			s1,0.2,1.4,0.2c0.8,0,1.4-0.2,1.8-0.5c0.4-0.3,0.6-0.7,0.6-1.2c0-0.4-0.1-0.6-0.3-0.9c-0.2-0.2-0.7-0.6-1.4-1
			c-0.8-0.5-1.4-0.9-1.7-1.3c-0.3-0.4-0.5-0.9-0.5-1.5c0-0.9,0.3-1.5,0.9-2.1s1.4-0.8,2.5-0.8s2.1,0.2,3.1,0.7l-0.5,1.3l-0.5-0.2
			c-0.6-0.3-1.3-0.4-2-0.4c-0.6,0-1,0.1-1.4,0.4c-0.3,0.3-0.5,0.6-0.5,1c0,0.3,0.1,0.6,0.3,0.9c0.2,0.2,0.7,0.6,1.4,1
			c0.7,0.4,1.1,0.7,1.4,1s0.5,0.6,0.6,0.9C1342,476.2,1342.1,476.6,1342.1,476.9z"/>
		<path class="st0" d="M1352.8,480c-1.1,0-2-0.3-2.7-1c-0.6-0.7-1-1.6-1-2.8s0.2-2.3,0.7-3.3c0.5-1.1,1.1-1.9,1.8-2.5
			s1.6-0.9,2.5-0.9s1.7,0.2,2.1,0.6c0.5,0.4,0.7,1,0.7,1.7c0,1.1-0.5,2-1.5,2.6s-2.5,1-4.4,1h-0.3v0.7c0,0.8,0.2,1.4,0.6,1.9
			s1,0.7,1.8,0.7c0.4,0,0.8-0.1,1.2-0.2s0.9-0.3,1.5-0.6v1.4c-0.6,0.3-1.1,0.5-1.5,0.6C1353.9,480,1353.4,480,1352.8,480z
			 M1354.1,470.8c-0.6,0-1.2,0.3-1.8,0.9c-0.6,0.6-1,1.4-1.3,2.4h0.1c1.4,0,2.5-0.2,3.2-0.6c0.8-0.4,1.1-0.9,1.1-1.6
			c0-0.3-0.1-0.6-0.3-0.8S1354.6,470.8,1354.1,470.8z"/>
		<path class="st0" d="M1364.4,479.8l1.4-6.4c0.1-0.6,0.2-1.1,0.2-1.3c0-0.4-0.1-0.7-0.3-0.9s-0.6-0.4-1.1-0.4
			c-0.6,0-1.1,0.2-1.6,0.6c-0.5,0.4-1,0.9-1.4,1.6c-0.4,0.7-0.7,1.5-0.9,2.5l-0.9,4.4h-1.6l2.2-10.2h1.3l-0.2,1.9h0.1
			c0.6-0.8,1.2-1.3,1.7-1.6s1.1-0.5,1.7-0.5c0.8,0,1.4,0.2,1.9,0.6c0.5,0.4,0.7,1,0.7,1.8c0,0.5-0.1,1-0.2,1.7l-1.3,6.2
			L1364.4,479.8L1364.4,479.8z"/>
		<path class="st0" d="M1372.3,478.7c0.3,0,0.8-0.1,1.3-0.2v1.2c-0.2,0.1-0.5,0.2-0.8,0.2c-0.3,0.1-0.6,0.1-0.7,0.1
			c-0.8,0-1.4-0.2-1.8-0.6c-0.4-0.4-0.6-0.9-0.6-1.6c0-0.4,0.1-0.9,0.2-1.4l1.2-5.6h-1.6l0.1-0.7l1.7-0.7l1.2-2.1h0.9l-0.5,2.3h2.5
			l-0.2,1.2h-2.5l-1.2,5.6c-0.1,0.5-0.2,0.9-0.2,1.2s0.1,0.6,0.3,0.8C1371.8,478.6,1371.9,478.7,1372.3,478.7z"/>
		<path class="st0" d="M1379.3,480c-1.1,0-2-0.3-2.7-1c-0.6-0.7-1-1.6-1-2.8s0.2-2.3,0.7-3.3c0.5-1.1,1.1-1.9,1.8-2.5
			s1.6-0.9,2.5-0.9s1.7,0.2,2.1,0.6c0.5,0.4,0.7,1,0.7,1.7c0,1.1-0.5,2-1.5,2.6s-2.5,1-4.4,1h-0.3v0.7c0,0.8,0.2,1.4,0.6,1.9
			s1,0.7,1.8,0.7c0.4,0,0.8-0.1,1.2-0.2s0.9-0.3,1.5-0.6v1.4c-0.6,0.3-1.1,0.5-1.5,0.6C1380.4,480,1379.9,480,1379.3,480z
			 M1380.6,470.8c-0.6,0-1.2,0.3-1.8,0.9c-0.6,0.6-1,1.4-1.3,2.4h0.1c1.4,0,2.5-0.2,3.2-0.6c0.8-0.4,1.1-0.9,1.1-1.6
			c0-0.3-0.1-0.6-0.3-0.8S1381.1,470.8,1380.6,470.8z"/>
		<path class="st0" d="M1391.1,469.5c0.4,0,0.8,0,1.1,0.1l-0.3,1.4c-0.3-0.1-0.7-0.1-1-0.1c-0.6,0-1.1,0.2-1.6,0.6
			c-0.5,0.4-0.9,0.9-1.3,1.5c-0.4,0.7-0.6,1.4-0.8,2.2l-1,4.7h-1.6l2.2-10.2h1.3l-0.2,1.9h0.1c0.4-0.6,0.8-1,1.1-1.3
			s0.6-0.5,0.9-0.6C1390.4,469.5,1390.7,469.5,1391.1,469.5z"/>
		<path class="st0" d="M1393.8,479.8h-1.6l2.2-10.2h1.6L1393.8,479.8z M1394.8,467.1c0-0.3,0.1-0.6,0.3-0.8s0.5-0.3,0.8-0.3
			c0.5,0,0.8,0.3,0.8,0.8c0,0.3-0.1,0.6-0.3,0.9c-0.2,0.3-0.4,0.4-0.7,0.4c-0.2,0-0.5-0.1-0.6-0.2
			C1394.9,467.6,1394.8,467.3,1394.8,467.1z"/>
		<path class="st0" d="M1403.2,479.8l1.4-6.4c0.1-0.6,0.2-1.1,0.2-1.3c0-0.4-0.1-0.7-0.3-0.9c-0.2-0.2-0.6-0.4-1.1-0.4
			c-0.6,0-1.1,0.2-1.6,0.6c-0.5,0.4-1,0.9-1.4,1.6c-0.4,0.7-0.7,1.5-0.9,2.5l-0.9,4.4h-1.6l2.2-10.2h1.3l-0.2,1.9h0.1
			c0.6-0.8,1.2-1.3,1.7-1.6s1.1-0.5,1.7-0.5c0.8,0,1.4,0.2,1.9,0.6c0.5,0.4,0.7,1,0.7,1.8c0,0.5-0.1,1-0.2,1.7l-1.3,6.2
			L1403.2,479.8L1403.2,479.8z"/>
		<path class="st0" d="M1417.7,469.7l-0.2,1l-2,0.2c0.3,0.4,0.4,0.9,0.4,1.5c0,1.2-0.4,2.1-1.1,2.8s-1.7,1.1-2.9,1.1
			c-0.3,0-0.6,0-0.8-0.1c-0.9,0.3-1.3,0.7-1.3,1.2c0,0.3,0.1,0.4,0.3,0.5c0.2,0.1,0.5,0.1,0.9,0.2l1.1,0.1c1.1,0.1,1.9,0.4,2.4,0.8
			c0.5,0.4,0.8,1,0.8,1.8c0,1.1-0.5,2-1.4,2.6s-2.2,0.9-3.8,0.9c-1.2,0-2.1-0.2-2.8-0.7s-1-1.1-1-1.9c0-0.6,0.2-1.2,0.7-1.7
			c0.4-0.5,1.2-0.9,2.2-1.2c-0.5-0.3-0.7-0.6-0.7-1.1c0-0.4,0.2-0.8,0.5-1.1c0.3-0.3,0.8-0.6,1.3-0.9c-0.4-0.2-0.7-0.5-1-0.9
			c-0.2-0.4-0.4-0.8-0.4-1.3c0-1.2,0.4-2.2,1.1-3s1.7-1.2,2.8-1.2c0.5,0,1,0.1,1.4,0.2h3.5V469.7z M1407.8,481.6
			c0,0.5,0.2,0.9,0.6,1.1c0.4,0.3,1,0.4,1.8,0.4c1.1,0,2-0.2,2.6-0.6c0.6-0.4,1-0.9,1-1.7c0-0.4-0.2-0.7-0.5-0.9s-0.9-0.4-1.7-0.5
			l-1.5-0.1c-0.7,0.2-1.3,0.4-1.7,0.8C1408,480.6,1407.8,481.1,1407.8,481.6z M1410.4,473.5c0,0.5,0.1,0.9,0.4,1.2s0.7,0.4,1.2,0.4
			s0.9-0.1,1.3-0.4c0.4-0.3,0.6-0.6,0.8-1.1c0.2-0.5,0.3-0.9,0.3-1.5c0-0.5-0.1-0.9-0.4-1.2s-0.7-0.4-1.2-0.4s-0.9,0.1-1.3,0.4
			c-0.4,0.3-0.6,0.6-0.8,1C1410.5,472.3,1410.4,473,1410.4,473.5z"/>
	</g>
	<g>
		<path class="st0" d="M1196.1,503h-1.6l2.2-10.2h1.6L1196.1,503z M1197.2,490.3c0-0.3,0.1-0.6,0.3-0.8s0.5-0.3,0.8-0.3
			c0.5,0,0.8,0.3,0.8,0.8c0,0.3-0.1,0.6-0.3,0.9c-0.2,0.3-0.4,0.4-0.7,0.4c-0.2,0-0.5-0.1-0.6-0.2
			C1197.3,490.8,1197.2,490.5,1197.2,490.3z"/>
		<path class="st0" d="M1205.6,503l1.4-6.4c0.1-0.6,0.2-1.1,0.2-1.3c0-0.4-0.1-0.7-0.3-0.9s-0.6-0.4-1.1-0.4c-0.6,0-1.1,0.2-1.6,0.6
			c-0.5,0.4-1,0.9-1.4,1.6c-0.4,0.7-0.7,1.5-0.9,2.5l-0.9,4.3h-1.6l2.2-10.2h1.3l-0.2,1.9h0.1c0.6-0.8,1.2-1.3,1.7-1.6
			s1.1-0.5,1.7-0.5c0.8,0,1.4,0.2,1.9,0.6c0.5,0.4,0.7,1,0.7,1.8c0,0.5-0.1,1-0.2,1.7l-1.3,6.2L1205.6,503L1205.6,503z"/>
		<path class="st0" d="M1213.5,501.9c0.3,0,0.8-0.1,1.3-0.2v1.2c-0.2,0.1-0.5,0.2-0.8,0.2c-0.3,0.1-0.6,0.1-0.7,0.1
			c-0.8,0-1.4-0.2-1.8-0.6c-0.4-0.4-0.6-0.9-0.6-1.6c0-0.4,0.1-0.9,0.2-1.4l1.2-5.6h-1.6l0.1-0.7l1.7-0.7l1.2-2.1h0.9l-0.5,2.3h2.5
			l-0.2,1.2h-2.5l-1.2,5.6c-0.1,0.5-0.2,0.9-0.2,1.2s0.1,0.6,0.3,0.8S1213.2,501.9,1213.5,501.9z"/>
		<path class="st0" d="M1221.9,492.7c1.2,0,2.1,0.3,2.8,1c0.7,0.7,1,1.7,1,2.9s-0.2,2.3-0.7,3.3c-0.4,1-1,1.8-1.8,2.4
			c-0.8,0.6-1.6,0.8-2.6,0.8c-1.2,0-2.1-0.3-2.8-1s-1-1.7-1-2.9s0.2-2.3,0.7-3.3s1.1-1.8,1.8-2.4
			C1220.2,493,1221,492.7,1221.9,492.7z M1224.1,496.4c0-0.7-0.2-1.3-0.6-1.7c-0.4-0.4-0.9-0.7-1.6-0.7c-0.7,0-1.3,0.2-1.8,0.7
			s-0.9,1.1-1.2,1.9s-0.4,1.7-0.4,2.7c0,0.8,0.2,1.4,0.6,1.9c0.4,0.4,1,0.7,1.7,0.7c0.6,0,1.2-0.2,1.7-0.7s0.9-1.1,1.2-1.9
			C1224,498.5,1224.1,497.5,1224.1,496.4z"/>
		<path class="st0" d="M1235.2,501.9c0.3,0,0.8-0.1,1.3-0.2v1.2c-0.2,0.1-0.5,0.2-0.8,0.2c-0.3,0.1-0.6,0.1-0.7,0.1
			c-0.8,0-1.4-0.2-1.8-0.6c-0.4-0.4-0.6-0.9-0.6-1.6c0-0.4,0.1-0.9,0.2-1.4l1.2-5.6h-1.6l0.1-0.7l1.7-0.7l1.2-2.1h0.9l-0.5,2.3h2.5
			l-0.2,1.2h-2.5l-1.2,5.6c-0.1,0.5-0.2,0.9-0.2,1.2s0.1,0.6,0.3,0.8C1234.7,501.8,1234.9,501.9,1235.2,501.9z"/>
		<path class="st0" d="M1244.5,503l1.4-6.4c0.1-0.6,0.2-1,0.2-1.3c0-0.9-0.5-1.4-1.4-1.4c-0.6,0-1.1,0.2-1.6,0.5
			c-0.5,0.4-1,0.9-1.4,1.6c-0.4,0.7-0.7,1.5-0.9,2.5l-0.9,4.4h-1.6l3.1-14.4h1.6c-0.1,0.5-0.2,1-0.3,1.5s-0.2,1-0.3,1.5
			c-0.1,0.5-0.2,1-0.4,1.5c-0.1,0.5-0.3,1.1-0.4,1.8h0.1c0.6-0.8,1.2-1.3,1.7-1.6c0.6-0.3,1.2-0.5,1.8-0.5c0.8,0,1.4,0.2,1.9,0.7
			s0.7,1.1,0.7,1.9c0,0.4-0.1,0.9-0.2,1.5c-0.2,1.2-0.7,3.3-1.3,6.2H1244.5z"/>
		<path class="st0" d="M1253.3,503.2c-1.1,0-2-0.3-2.7-1c-0.6-0.7-1-1.6-1-2.8s0.2-2.3,0.7-3.3c0.5-1.1,1.1-1.9,1.8-2.5
			s1.6-0.9,2.5-0.9s1.7,0.2,2.1,0.6c0.5,0.4,0.7,1,0.7,1.7c0,1.1-0.5,2-1.5,2.6s-2.5,1-4.4,1h-0.3v0.7c0,0.8,0.2,1.4,0.6,1.9
			s1,0.7,1.8,0.7c0.4,0,0.8-0.1,1.2-0.2s0.9-0.3,1.5-0.6v1.4c-0.6,0.3-1.1,0.5-1.5,0.6C1254.3,503.2,1253.8,503.2,1253.3,503.2z
			 M1254.6,494c-0.6,0-1.2,0.3-1.8,0.9c-0.6,0.6-1,1.4-1.3,2.4h0.1c1.4,0,2.5-0.2,3.2-0.6c0.8-0.4,1.1-0.9,1.1-1.6
			c0-0.3-0.1-0.6-0.3-0.8S1255,494,1254.6,494z"/>
		<path class="st0" d="M1269.8,503l1.4-6.4c0.1-0.6,0.2-1.1,0.2-1.3c0-0.4-0.1-0.7-0.3-0.9c-0.2-0.2-0.6-0.4-1.1-0.4
			c-0.6,0-1.1,0.2-1.6,0.6c-0.5,0.4-1,0.9-1.4,1.6c-0.4,0.7-0.7,1.5-0.9,2.5l-0.9,4.4h-1.6l2.2-10.2h1.3l-0.2,1.9h0.1
			c0.6-0.8,1.2-1.3,1.7-1.6s1.1-0.5,1.7-0.5c0.8,0,1.4,0.2,1.9,0.6c0.5,0.4,0.7,1,0.7,1.8c0,0.5-0.1,1-0.2,1.7l-1.3,6.2L1269.8,503
			L1269.8,503z"/>
		<path class="st0" d="M1278.5,503.2c-1.1,0-2-0.3-2.7-1c-0.6-0.7-1-1.6-1-2.8s0.2-2.3,0.7-3.3c0.5-1.1,1.1-1.9,1.8-2.5
			c0.7-0.6,1.6-0.9,2.5-0.9c0.9,0,1.7,0.2,2.1,0.6c0.5,0.4,0.7,1,0.7,1.7c0,1.1-0.5,2-1.5,2.6s-2.5,1-4.4,1h-0.3v0.7
			c0,0.8,0.2,1.4,0.6,1.9c0.4,0.5,1,0.7,1.8,0.7c0.4,0,0.8-0.1,1.2-0.2c0.4-0.1,0.9-0.3,1.5-0.6v1.4c-0.6,0.3-1.1,0.5-1.5,0.6
			C1279.6,503.2,1279.1,503.2,1278.5,503.2z M1279.8,494c-0.6,0-1.2,0.3-1.8,0.9c-0.6,0.6-1,1.4-1.3,2.4h0.1c1.4,0,2.5-0.2,3.2-0.6
			c0.8-0.4,1.1-0.9,1.1-1.6c0-0.3-0.1-0.6-0.3-0.8C1280.6,494.1,1280.3,494,1279.8,494z"/>
		<path class="st0" d="M1291.1,503l-0.3-5.6c0-0.6,0-1.1,0-1.6v-1.4h-0.1l-0.5,1.1l-0.8,1.8l-2.7,5.8h-1.9l-0.4-10.2h1.5l0.2,5.5
			v0.8c0,0.9,0,1.7-0.1,2.5h0.1c0.3-0.8,0.7-1.8,1.3-3l2.7-5.8h1.7l0.3,5.5c0,1,0.1,1.8,0.1,2.4v0.5v0.4h0.1c0.2-0.5,0.4-1.2,0.8-2
			c0.3-0.8,1.3-3.1,3-6.8h1.7L1293,503H1291.1z"/>
		<path class="st0" d="M1302.8,492.9h1.6l0.7,5.1c0.1,0.4,0.1,1.1,0.2,1.9c0.1,0.8,0.1,1.5,0.1,2h0.1c0.2-0.5,0.5-1.2,0.8-1.9
			s0.6-1.2,0.7-1.4l3-5.7h1.7l-6.5,11.9c-0.6,1.1-1.1,1.8-1.7,2.2c-0.6,0.4-1.2,0.6-2,0.6c-0.4,0-0.9-0.1-1.3-0.2v-1.3
			c0.4,0.1,0.8,0.2,1.2,0.2c0.5,0,0.9-0.2,1.3-0.5c0.4-0.3,0.7-0.8,1.1-1.4l0.7-1.3L1302.8,492.9z"/>
		<path class="st0" d="M1315.2,503.2c-1.1,0-2-0.3-2.7-1c-0.6-0.7-1-1.6-1-2.8s0.2-2.3,0.7-3.3c0.5-1.1,1.1-1.9,1.8-2.5
			s1.6-0.9,2.5-0.9s1.7,0.2,2.1,0.6c0.5,0.4,0.7,1,0.7,1.7c0,1.1-0.5,2-1.5,2.6s-2.5,1-4.4,1h-0.3v0.7c0,0.8,0.2,1.4,0.6,1.9
			c0.4,0.5,1,0.7,1.8,0.7c0.4,0,0.8-0.1,1.2-0.2s0.9-0.3,1.5-0.6v1.4c-0.6,0.3-1.1,0.5-1.5,0.6
			C1316.3,503.2,1315.8,503.2,1315.2,503.2z M1316.5,494c-0.6,0-1.2,0.3-1.8,0.9c-0.6,0.6-1,1.4-1.3,2.4h0.1c1.4,0,2.5-0.2,3.2-0.6
			c0.8-0.4,1.1-0.9,1.1-1.6c0-0.3-0.1-0.6-0.3-0.8S1317,494,1316.5,494z"/>
		<path class="st0" d="M1326,492.7c0.6,0,1.1,0.2,1.5,0.5s0.8,0.7,1,1.3h0.1l0.6-1.6h1.2l-2.2,10.2h-1.2l0.2-1.9h-0.1
			c-1.1,1.4-2.3,2.1-3.5,2.1c-0.9,0-1.5-0.3-2-0.9c-0.5-0.6-0.7-1.5-0.7-2.5c0-1.3,0.2-2.5,0.7-3.6c0.4-1.1,1-2,1.8-2.6
			C1324.2,493,1325.1,492.7,1326,492.7z M1324.2,501.9c0.6,0,1.2-0.3,1.8-0.9s1.1-1.3,1.4-2.2c0.4-0.9,0.6-1.8,0.6-2.8
			c0-0.6-0.2-1.1-0.5-1.5s-0.8-0.6-1.4-0.6s-1.2,0.3-1.8,0.8c-0.6,0.5-1,1.3-1.3,2.2s-0.5,1.9-0.5,2.9c0,0.7,0.1,1.2,0.4,1.6
			C1323.3,501.8,1323.7,501.9,1324.2,501.9z"/>
		<path class="st0" d="M1337.8,492.7c0.4,0,0.8,0,1.1,0.1l-0.3,1.4c-0.3-0.1-0.7-0.1-1-0.1c-0.6,0-1.1,0.2-1.6,0.6
			c-0.5,0.4-0.9,0.9-1.3,1.5c-0.4,0.7-0.6,1.4-0.8,2.2l-1,4.7h-1.6l2.2-10.2h1.3l-0.2,1.9h0.1c0.4-0.6,0.8-1,1.1-1.3
			c0.3-0.3,0.6-0.5,0.9-0.6C1337,492.7,1337.4,492.7,1337.8,492.7z"/>
		<path class="st0" d="M1338.7,502.3c0-0.5,0.1-0.9,0.4-1.1c0.3-0.3,0.6-0.4,1-0.4c0.3,0,0.5,0.1,0.6,0.2c0.2,0.2,0.2,0.4,0.2,0.7
			c0,0.4-0.1,0.8-0.4,1.1c-0.2,0.3-0.6,0.4-1,0.4c-0.3,0-0.5-0.1-0.7-0.2C1338.8,502.9,1338.7,502.7,1338.7,502.3z"/>
	</g>
	<g>
		<path class="st0" d="M1247.3,436.6c0,4.4-1.4,7.3-4.2,8.8l4.7,5.4h-6.5l-3.4-4.3l0,0l0,0l0,0c-3,0-5.3-0.8-7-2.5
			c-1.6-1.7-2.4-4.2-2.4-7.4s0.8-5.7,2.4-7.4c1.6-1.7,3.9-2.5,7-2.5c3.1,0,5.4,0.8,7,2.5C1246.5,430.9,1247.3,433.4,1247.3,436.6z
			 M1234.1,436.6c0,3.7,1.3,5.6,3.9,5.6c1.3,0,2.3-0.5,2.9-1.4s1-2.3,1-4.2s-0.3-3.3-1-4.3c-0.6-0.9-1.6-1.4-2.9-1.4
			C1235.4,431,1234.1,432.9,1234.1,436.6z"/>
		<path class="st0" d="M1261.1,446.3h-5.3v-10.2c0-1.2,0-2.4,0.1-3.4c-0.3,0.4-0.7,0.8-1.2,1.2l-2.2,1.8l-2.7-3.3l6.6-5.4h4.7
			L1261.1,446.3L1261.1,446.3z"/>
		<path class="st0" d="M1272,434.7l-0.2-0.3c0.9-3.4,1.7-5.9,2.3-7.4h3.7c-0.6,2.7-1,5.3-1.3,7.7H1272z"/>
		<path class="st0" d="M1290.7,446.3h-5.3v-10.2c0-1.2,0-2.4,0.1-3.4c-0.3,0.4-0.7,0.8-1.2,1.2l-2.2,1.8l-2.7-3.3l6.6-5.4h4.7V446.3
			L1290.7,446.3z"/>
		<path class="st0" d="M1295,438.1c0-2.7,0.4-4.9,1.2-6.5c0.8-1.7,1.9-2.9,3.4-3.7s3.3-1.2,5.5-1.2c0.8,0,1.7,0.1,2.7,0.2v4.1
			c-0.9-0.2-1.8-0.2-2.9-0.2c-1.7,0-3,0.4-3.9,1.1c-0.9,0.8-1.3,2-1.4,3.7h0.2c0.8-1.5,2.1-2.2,3.8-2.2s3,0.6,4,1.7
			c0.9,1.1,1.4,2.6,1.4,4.6c0,2.1-0.6,3.8-1.8,5c-1.2,1.2-2.9,1.8-5,1.8c-2.3,0-4.1-0.7-5.3-2.2S1295,440.8,1295,438.1z
			 M1302.2,442.4c0.6,0,1-0.2,1.4-0.6c0.3-0.4,0.5-1.1,0.5-2c0-1.6-0.6-2.3-1.8-2.3c-0.6,0-1.1,0.2-1.5,0.6
			c-0.4,0.4-0.6,0.9-0.6,1.5c0,0.8,0.2,1.5,0.5,2.1C1301.1,442.2,1301.6,442.4,1302.2,442.4z"/>
	</g>
</g>
<line class="st3" x1="670.6" y1="394.5" x2="1267.6" y2="394.5"/>
<g>
	<path class="st4" d="M670.6,409.5c8.3,0,15-6.7,15-15s-6.7-15-15-15c-8.3,0-15,6.7-15,15S662.3,409.5,670.6,409.5"/>
	<path class="st5" d="M870.6,409.5c8.3,0,15-6.7,15-15s-6.7-15-15-15c-8.3,0-15,6.7-15,15S862.3,409.5,870.6,409.5"/>
	<path class="st4" d="M1071.3,409.5c8.3,0,15-6.7,15-15s-6.7-15-15-15c-8.3,0-15,6.7-15,15S1063,409.5,1071.3,409.5"/>
	<path class="st5" d="M1267.6,409.5c8.3,0,15-6.7,15-15s-6.7-15-15-15s-15,6.7-15,15S1259.3,409.5,1267.6,409.5"/>
</g>
<g>
	<path class="st0" d="M530.4-215.8v-86.9H554v86.9L530.4-215.8L530.4-215.8z"/>
	<path class="st0" d="M655.5-215.8h-30.8L592.9-277h-0.5c0.8,9.6,1.1,17,1.1,22v39.2h-20.8v-86.9h30.7l31.6,60.4h0.4
		c-0.6-8.8-0.8-15.8-0.8-21.1v-39.3h20.9V-215.8L655.5-215.8z"/>
	<path class="st0" d="M712.6-215.8h-23.5v-67.7h-21.2v-19.2h65.8v19.2h-21.2L712.6-215.8L712.6-215.8z"/>
	<path class="st0" d="M797.7-215.8h-51.6v-86.9h51.6v18.8h-28.1v13.7h26v18.8h-26v16.4h28.1V-215.8z"/>
	<path class="st0" d="M812.9-215.8v-86.9h23.5v67.9h33.5v19L812.9-215.8L812.9-215.8z"/>
	<path class="st0" d="M883.7-215.8v-86.9h23.5v67.9h33.5v19L883.7-215.8L883.7-215.8z"/>
	<path class="st0" d="M1006.2-215.8h-51.6v-86.9h51.6v18.8h-28.1v13.7h26v18.8h-26v16.4h28.1L1006.2-215.8L1006.2-215.8z"/>
	<path class="st0" d="M1060.1-284.7c-5.6,0-9.9,2.3-13.1,6.9c-3.1,4.6-4.7,10.9-4.7,18.9c0,16.7,6.4,25.1,19.1,25.1
		c3.8,0,7.6-0.5,11.2-1.6s7.2-2.4,10.9-3.9v19.8c-7.2,3.2-15.4,4.8-24.6,4.8c-13.1,0-23.2-3.8-30.2-11.4c-7-7.6-10.5-18.6-10.5-33
		c0-9,1.7-16.9,5.1-23.7c3.4-6.8,8.3-12.1,14.6-15.7c6.4-3.7,13.8-5.5,22.4-5.5c9.4,0,18.4,2,26.9,6.1l-7.2,18.5
		c-3.2-1.5-6.4-2.8-9.6-3.8C1067.2-284.2,1063.7-284.7,1060.1-284.7z"/>
	<path class="st0" d="M1138.7-215.8h-23.5v-67.7H1094v-19.2h65.8v19.2h-21.2L1138.7-215.8L1138.7-215.8z"/>
	<path class="st0" d="M1246.1-302.7v52.3c0,11.4-3.2,20.2-9.7,26.4c-6.4,6.2-15.7,9.4-27.8,9.4c-11.8,0-20.9-3-27.3-9.1
		c-6.4-6.1-9.5-14.8-9.5-26.1v-52.9h23.6v51c0,6.1,1.1,10.6,3.4,13.4c2.3,2.8,5.7,4.2,10.2,4.2c4.8,0,8.3-1.4,10.4-4.1
		c2.2-2.8,3.2-7.3,3.2-13.5v-51H1246.1z"/>
	<path class="st0" d="M1317.6-215.8l-4.3-16.3h-28.2l-4.4,16.3H1255l28.3-87.2h31.3l28.7,87.2H1317.6z M1308.5-251.4l-3.7-14.3
		c-0.9-3.2-1.9-7.3-3.2-12.3c-1.2-5-2.1-8.6-2.5-10.8c-0.4,2-1.1,5.3-2.1,10c-1,4.7-3.4,13.8-7,27.4L1308.5-251.4L1308.5-251.4z"/>
	<path class="st0" d="M1352.7-215.8v-86.9h23.5v67.9h33.5v19L1352.7-215.8L1352.7-215.8z"/>
	<path class="st0" d="M722.5-175.7c0,9.7-2.9,17.2-8.6,22.5c-5.7,5.3-13.9,7.9-24.4,7.9h-6.6v28.8h-23.5v-86.9h30.1
		c11,0,19.2,2.4,24.7,7.2C719.8-191.4,722.5-184.6,722.5-175.7z M682.9-164.4h4.3c3.5,0,6.3-1,8.4-3c2.1-2,3.1-4.7,3.1-8.2
		c0-5.9-3.2-8.8-9.7-8.8h-6.1V-164.4z"/>
	<path class="st0" d="M759.8-148.1v31.6h-23.5v-86.9h28.5c23.6,0,35.4,8.6,35.4,25.7c0,10.1-4.9,17.8-14.7,23.4l25.3,37.9h-26.6
		L765.8-148h-6V-148.1z M759.8-165.8h4.4c8.2,0,12.3-3.6,12.3-10.9c0-6-4-9-12.1-9h-4.6L759.8-165.8L759.8-165.8z"/>
	<path class="st0" d="M900-160c0,14.6-3.6,25.7-10.8,33.3c-7.2,7.6-17.7,11.4-31.5,11.4c-13.6,0-24.1-3.8-31.3-11.5
		c-7.3-7.6-10.9-18.8-10.9-33.4c0-14.5,3.6-25.5,10.8-33.1c7.2-7.6,17.7-11.4,31.5-11.4c13.8,0,24.3,3.8,31.4,11.3
		C896.4-185.8,900-174.7,900-160z M840.2-160c0,16.8,5.8,25.2,17.5,25.2c5.9,0,10.3-2,13.2-6.1s4.3-10.4,4.3-19.1
		c0-8.7-1.5-15.1-4.4-19.2c-2.9-4.1-7.3-6.2-13-6.2C846.1-185.5,840.2-177,840.2-160z"/>
	<path class="st0" d="M978.7-175.7c0,9.7-2.9,17.2-8.6,22.5c-5.7,5.3-13.9,7.9-24.4,7.9h-6.6v28.8h-23.5v-86.9h30.1
		c11,0,19.2,2.4,24.7,7.2C976-191.4,978.7-184.6,978.7-175.7z M939.2-164.4h4.3c3.5,0,6.3-1,8.4-3c2.1-2,3.1-4.7,3.1-8.2
		c0-5.9-3.2-8.8-9.7-8.8h-6.1L939.2-164.4L939.2-164.4z"/>
	<path class="st0" d="M1044.2-116.5h-51.6v-86.9h51.6v18.8h-28.1v13.7h26v18.9h-26v16.4h28.1V-116.5z"/>
	<path class="st0" d="M1082.8-148.1v31.6h-23.5v-86.9h28.5c23.6,0,35.4,8.6,35.4,25.7c0,10.1-4.9,17.8-14.7,23.4l25.3,37.9h-26.6
		l-18.4-31.6h-6V-148.1z M1082.8-165.8h4.4c8.2,0,12.3-3.6,12.3-10.9c0-6-4-9-12.1-9h-4.6V-165.8L1082.8-165.8z"/>
	<path class="st0" d="M1180.1-116.5h-23.5v-67.7h-21.2v-19.2h65.8v19.2H1180L1180.1-116.5L1180.1-116.5z"/>
	<path class="st0" d="M1244.6-171.2l15-32.2h25.4l-28.6,52.9v33.9h-23.6v-33.2l-28.6-53.7h25.6L1244.6-171.2z"/>
</g>
</svg>
