<?xml version="1.0" encoding="utf-8"?>
<!-- Generator: Adobe Illustrator 19.1.0, SVG Export Plug-In . SVG Version: 6.00 Build 0)  -->
<!DOCTYPE svg PUBLIC "-//W3C//DTD SVG 1.1//EN" "http://www.w3.org/Graphics/SVG/1.1/DTD/svg11.dtd">
<svg version="1.1" id="Layer_1" xmlns="http://www.w3.org/2000/svg" xmlns:xlink="http://www.w3.org/1999/xlink" x="0px" y="0px"
	 viewBox="0 0 1000 1000" style="enable-background:new 0 0 1000 1000;" xml:space="preserve">
<style type="text/css">
	.st0{fill:#FFFFFF;stroke:#FFFFFF;stroke-width:12;stroke-linecap:round;stroke-linejoin:round;stroke-miterlimit:10;}
	.st1{fill:#FFFFFF;}
	.st2{opacity:0.2;}
	.st3{fill:#495259;}
	.st4{fill:#7EB0D1;}
	.st5{fill:none;stroke:#FFFFFF;stroke-width:7;}
	.st6{fill:#FFFFFF;stroke:#7EB0D1;stroke-width:6;}
	.st7{fill:#495259;stroke:#7EB0D1;stroke-width:6;}
</style>
<g>
	<path class="st0" d="M689,258l-134.9,89.2L194.3,228.5l18.6-12.3l345,113.8l116.3-76.9L689,258z M672.5,330l-116.3,76.9
		L211.3,293.1l-18.6,12.3l359.8,118.7l134.9-89.2L672.5,330z M679.4,406.4l-116.3,76.9L218.2,369.4l-18.6,12.3l359.8,118.7
		l134.9-89.2L679.4,406.4z M192.6,152.8l359.8,118.7l134.9-89.2L327.6,63.6L192.6,152.8z"/>
	<g>
		<path class="st1" d="M587.2,478c1.9,8.2-11.2,21.6-7.6,29c3.6,7.5,22.3,5.7,27.4,12.1c5.2,6.5-0.8,24.2,5.8,29.4
			c6.5,5.2,22.4-4.5,30-0.9c7.4,3.6,9.7,22.1,18,24c8,1.8,18.1-13.9,26.6-13.9s18.7,15.7,26.6,13.9c8.2-1.9,10.5-20.4,18-24
			s23.5,6.1,30,0.9c6.5-5.2,0.6-22.9,5.8-29.4s23.8-4.6,27.4-12.2c3.6-7.4-9.5-20.8-7.6-29c1.8-8,19.4-14.4,19.4-22.9
			s-17.6-14.9-19.4-22.9c-1.9-8.2,11.2-21.6,7.6-29c-3.6-7.5-22.3-5.7-27.4-12.1c-5.2-6.5,0.8-24.2-5.8-29.4
			c-6.5-5.2-22.4,4.5-30,0.9c-7.4-3.6-9.7-22.2-18-24c-8-1.8-18.1,13.9-26.6,13.9s-18.6-15.7-26.6-13.9c-8.2,1.9-10.5,20.4-18,24
			c-7.5,3.6-23.5-6.1-30-0.9c-6.5,5.2-0.6,22.9-5.8,29.4s-23.8,4.6-27.4,12.1c-3.6,7.4,9.5,20.8,7.6,29c-1.8,8-19.4,14.4-19.4,22.9
			C567.8,463.7,585.4,470.1,587.2,478z"/>
	</g>
	<g class="st2">
		<path d="M593.6,488.8c1.9,8.5-11.6,22.4-7.9,30c3.8,7.8,23.1,5.9,28.4,12.6c5.4,6.7-0.8,25.1,6,30.5c6.7,5.4,23.2-4.7,31.1-0.9
			c7.7,3.7,10.1,22.9,18.6,24.9c8.2,1.9,18.7-14.4,27.6-14.4c8.8,0,19.3,16.2,27.6,14.4c8.5-1.9,10.9-21.2,18.6-24.9
			c7.8-3.8,24.4,6.3,31,0.9c6.7-5.4,0.6-23.7,6-30.5c5.4-6.7,24.6-4.8,28.4-12.6c3.7-7.7-9.8-21.5-7.9-30
			c1.9-8.2,20.1-14.9,20.1-23.7s-18.2-15.4-20.1-23.7c-1.9-8.5,11.6-22.4,7.9-30c-3.8-7.8-23.1-5.9-28.4-12.6
			c-5.4-6.7,0.8-25.1-6-30.5c-6.7-5.4-23.2,4.7-31,0.9c-7.7-3.7-10.1-22.9-18.6-24.9c-8.2-1.9-18.7,14.4-27.6,14.4
			c-8.8,0-19.3-16.2-27.6-14.4c-8.5,1.9-10.9,21.2-18.6,24.9c-7.8,3.8-24.4-6.3-31-0.9c-6.7,5.4-0.6,23.7-6,30.5
			c-5.4,6.7-24.6,4.8-28.4,12.6c-3.7,7.7,9.8,21.5,7.9,30c-1.9,8.2-20.1,14.9-20.1,23.7C573.5,474,591.8,480.6,593.6,488.8z
			 M696.6,373c50.9,0,92.2,41.3,92.2,92.2s-41.3,92.2-92.2,92.2s-92.2-41.3-92.2-92.2C604.4,414.3,645.7,373,696.6,373z"/>
		<path d="M754.1,520.4c63.1-65.3-15.3-165.9-93.5-125.7c-25.6,13.2-43.2,39.9-43.2,70.7C617.5,537,704.8,571.6,754.1,520.4z
			 M653,461.1c4.9-4.9,12.8-4.9,17.7,0l11.5,11.5l41-41c4.9-4.9,12.8-4.9,17.7,0s4.9,12.8,0,17.7l-49.8,49.8
			c-2.5,2.4-5.6,3.6-8.8,3.6s-6.4-1.2-8.9-3.6L653,478.8C648.2,473.9,648.2,466,653,461.1z"/>
		<path d="M787.9,558.9c-0.9,4.3-2.8,8.4-6.7,11.4c-3.3,2.6-7.4,4-12.3,4l0,0c-4.3,0-8.7-1-12.9-2c-3-0.7-6.2-1.4-8.1-1.4
			c-0.3,0.4-2.2,4.4-3.3,6.8c-3.5,7.3-7.8,16.5-17.4,18.6c-1.2,0.3-2.5,0.4-3.8,0.4c-7.8,0-14-5.1-19.6-9.5c-1.9-1.5-4.9-4-6.6-4.8
			c-1.7,0.8-4.7,3.3-6.6,4.8c-5.5,4.5-11.8,9.5-19.6,9.5c-1.3,0-2.5-0.1-3.8-0.4c-9.6-2.2-13.9-11.3-17.4-18.7c-1-2-2.5-5.2-3.6-6.8
			c-2.3,0.1-5.1,0.8-7.8,1.4c-8.9,2.1-19,3-25.2-2c-3.8-3.1-5.7-7.1-6.6-11.4l-29.9,29.9c-3.5,3.5-4.8,8.7-3.4,13.5
			c1.5,4.8,5.4,8.4,10.3,9.4l23.4,4.7l4.7,23.4c1,4.9,4.6,8.9,9.4,10.4c4.8,1.4,10,0.1,13.5-3.4l62.5-62.4l62.5,62.4
			c3.5,3.5,8.7,4.8,13.5,3.4c4.8-1.5,8.4-5.4,9.4-10.4l4.7-23.4l23.4-4.7c4.9-1,8.9-4.6,10.3-9.4c1.5-4.8,0.1-10-3.4-13.5
			L787.9,558.9z"/>
	</g>
	<g>
		<path class="st3" d="M583.6,478.8c1.9,8.5-11.6,22.4-7.9,30c3.8,7.8,23.1,5.9,28.4,12.6c5.4,6.7-0.8,25.1,6,30.5
			c6.7,5.4,23.2-4.7,31.1-0.9c7.7,3.7,10.1,22.9,18.6,24.9c8.2,1.9,18.7-14.4,27.6-14.4c8.8,0,19.3,16.2,27.6,14.4
			c8.5-1.9,10.9-21.2,18.6-24.9c7.8-3.8,24.4,6.3,31,0.9c6.7-5.4,0.6-23.7,6-30.5c5.4-6.7,24.6-4.8,28.4-12.6
			c3.7-7.7-9.8-21.5-7.9-30c1.9-8.2,20.1-14.9,20.1-23.7s-18.2-15.4-20.1-23.7c-1.9-8.5,11.6-22.4,7.9-30
			c-3.8-7.8-23.1-5.9-28.4-12.6c-5.4-6.7,0.8-25.1-6-30.5c-6.7-5.4-23.2,4.7-31,0.9c-7.7-3.7-10.1-22.9-18.6-24.9
			c-8.2-1.9-18.7,14.4-27.6,14.4c-8.8,0-19.3-16.2-27.6-14.4c-8.5,1.9-10.9,21.2-18.6,24.9c-7.8,3.8-24.4-6.3-31-0.9
			c-6.7,5.4-0.6,23.7-6,30.5c-5.4,6.7-24.6,4.8-28.4,12.6c-3.7,7.7,9.8,21.5,7.9,30c-1.9,8.2-20.1,14.9-20.1,23.7
			C563.5,464,581.8,470.6,583.6,478.8z M686.6,363c50.9,0,92.2,41.3,92.2,92.2s-41.3,92.2-92.2,92.2s-92.2-41.3-92.2-92.2
			C594.4,404.3,635.7,363,686.6,363z"/>
		<path class="st3" d="M744.1,510.4c63.1-65.3-15.3-165.9-93.5-125.7c-25.6,13.2-43.2,39.9-43.2,70.7
			C607.5,527,694.8,561.6,744.1,510.4z M643,451.1c4.9-4.9,12.8-4.9,17.7,0l11.5,11.5l41-41c4.9-4.9,12.8-4.9,17.7,0
			s4.9,12.8,0,17.7l-49.8,49.8c-2.5,2.4-5.6,3.6-8.8,3.6s-6.4-1.2-8.9-3.6L643,468.8C638.2,463.9,638.2,456,643,451.1z"/>
		<path class="st3" d="M777.9,548.9c-0.9,4.3-2.8,8.4-6.7,11.4c-3.3,2.6-7.4,4-12.3,4l0,0c-4.3,0-8.7-1-12.9-2
			c-3-0.7-6.2-1.4-8.1-1.4c-0.3,0.4-2.2,4.4-3.3,6.8c-3.5,7.3-7.8,16.5-17.4,18.6c-1.2,0.3-2.5,0.4-3.8,0.4c-7.8,0-14-5.1-19.6-9.5
			c-1.9-1.5-4.9-4-6.6-4.8c-1.7,0.8-4.7,3.3-6.6,4.8c-5.5,4.5-11.8,9.5-19.6,9.5c-1.3,0-2.5-0.1-3.8-0.4
			c-9.6-2.2-13.9-11.3-17.4-18.7c-1-2-2.5-5.2-3.6-6.8c-2.3,0.1-5.1,0.8-7.8,1.4c-8.9,2.1-19,3-25.2-2c-3.8-3.1-5.7-7.1-6.6-11.4
			l-29.9,29.9c-3.5,3.5-4.8,8.7-3.4,13.5c1.5,4.8,5.4,8.4,10.3,9.4l23.4,4.7l4.7,23.4c1,4.9,4.6,8.9,9.4,10.4
			c4.8,1.4,10,0.1,13.5-3.4l62.5-62.4l62.5,62.4c3.5,3.5,8.7,4.8,13.5,3.4c4.8-1.5,8.4-5.4,9.4-10.4l4.7-23.4l23.4-4.7
			c4.9-1,8.9-4.6,10.3-9.4c1.5-4.8,0.1-10-3.4-13.5L777.9,548.9z"/>
	</g>
	<g>
		<path class="st4" d="M311.2,146.5c-2.2,3.8-5.9,6.6-10.9,8.3c-5,1.7-11,2.2-18,1.5l-4.4-0.4l-6.6,11.4l-15.6-1.5l20-34.2l19.9,2
			c7.3,0.7,12.2,2.2,14.7,4.5C313,140.1,313.3,143,311.2,146.5z M282.4,148.3l2.8,0.3c2.3,0.2,4.4,0,6.3-0.6c1.8-0.6,3.2-1.7,4-3
			c1.4-2.3-0.1-3.7-4.4-4.1l-4-0.4L282.4,148.3z"/>
		<path class="st4" d="M342.1,174.3l0.9-6.7l-18.7-1.9l-6.7,6.1l-17.1-1.7l38.9-32.5l20.8,2.1l-1.1,36.3L342.1,174.3z M344.2,159.7
			l0.8-5.9c0.2-1.3,0.4-3,0.7-5.1c0.3-2.1,0.6-3.5,0.9-4.4c-0.7,0.8-1.9,2-3.7,3.8c-1.8,1.8-5.4,5.2-10.9,10.3L344.2,159.7z"/>
		<path class="st4" d="M390.7,179.1l-15.6-1.5l15.6-26.7l-14.1-1.4l4.4-7.6l43.6,4.3l-4.4,7.6l-14-1.4L390.7,179.1z"/>
		<path class="st4" d="M447.2,184.7l-34.2-3.4l20-34.2l34.2,3.4l-4.3,7.4l-18.6-1.9l-3.1,5.4l17.2,1.7l-4.3,7.4l-17.2-1.7l-3.8,6.5
			l18.6,1.9L447.2,184.7z"/>
		<path class="st4" d="M512.1,191.2l-20.4-2l-6.9-26.2h-0.4c-1.7,3.8-3.2,6.8-4.3,8.8l-9,15.4l-13.8-1.4l20-34.2l20.3,2l7,25.9h0.2
			c1.7-3.5,3.1-6.3,4.3-8.4l9.1-15.5l13.9,1.4L512.1,191.2z"/>
		<path class="st4" d="M549.9,194.9l-15.6-1.5l15.6-26.7l-14.1-1.4l4.4-7.6l43.6,4.3l-4.4,7.6l-14-1.4L549.9,194.9z"/>
		<path class="st4" d="M615.9,190.5c-1.2,2.1-3.2,3.9-6,5.4s-6.1,2.5-10.1,3.1c-3.9,0.6-8.2,0.6-12.8,0.2c-3.8-0.4-7-0.9-9.4-1.4
			c-2.4-0.6-4.8-1.4-7.1-2.5l4.8-8.2c2.4,1.2,5.1,2.2,8,3s5.7,1.4,8.4,1.6c2.3,0.2,4.1,0.2,5.5-0.2c1.4-0.4,2.3-0.9,2.7-1.7
			c0.3-0.5,0.3-0.9,0.1-1.3s-0.7-0.8-1.5-1.3c-0.7-0.5-2.9-1.4-6.4-3c-3.2-1.4-5.4-2.7-6.7-3.8c-1.3-1.1-2.1-2.4-2.3-3.7
			c-0.2-1.3,0.2-2.8,1.2-4.5c1.8-3.2,5.2-5.4,10.1-6.8c4.9-1.4,10.7-1.7,17.5-1.1c6,0.6,11.6,2,16.8,4.3l-8.9,6.7
			c-4.5-2-8.7-3.2-12.7-3.6c-2-0.2-3.6-0.1-4.8,0.2c-1.2,0.3-1.9,0.8-2.3,1.4c-0.4,0.7-0.2,1.3,0.7,2c0.9,0.6,3.5,1.9,7.8,3.9
			c4.2,1.8,6.8,3.6,7.8,5.3C617.4,186.2,617.2,188.2,615.9,190.5z"/>
	</g>
</g>
<g>
	<path class="st1" d="M173.1,753.3c0,2.5-0.7,4.4-2.2,5.7c-1.5,1.3-3.5,2-6.2,2H163v7.3h-6v-22.1h7.7c2.8,0,4.9,0.6,6.3,1.8
		C172.4,749.3,173.1,751.1,173.1,753.3z M163,756.2h1.1c0.9,0,1.6-0.3,2.1-0.8c0.5-0.5,0.8-1.2,0.8-2.1c0-1.5-0.8-2.2-2.5-2.2H163
		V756.2z"/>
	<path class="st1" d="M190.2,768.4l-1.1-4.1h-7.2l-1.1,4.1h-6.6l7.2-22.2h8l7.3,22.2H190.2z M187.9,759.4l-1-3.6
		c-0.2-0.8-0.5-1.9-0.8-3.1c-0.3-1.3-0.5-2.2-0.6-2.8c-0.1,0.5-0.3,1.4-0.5,2.5c-0.3,1.2-0.9,3.5-1.8,7H187.9z"/>
	<path class="st1" d="M208.9,768.4h-6v-17.2h-5.4v-4.9h16.8v4.9h-5.4V768.4z"/>
	<path class="st1" d="M230.6,768.4h-13.1v-22.1h13.1v4.8h-7.2v3.5h6.6v4.8h-6.6v4.2h7.2V768.4z"/>
	<path class="st1" d="M255.5,768.4h-7.8l-8.1-15.6h-0.1c0.2,2.5,0.3,4.3,0.3,5.6v10h-5.3v-22.1h7.8l8.1,15.4h0.1
		c-0.1-2.2-0.2-4-0.2-5.4v-10h5.3V768.4z"/>
	<path class="st1" d="M270.1,768.4h-6v-17.2h-5.4v-4.9h16.8v4.9h-5.4V768.4z"/>
	<path class="st1" d="M296.4,768.4h-6v-17.2h-5.4v-4.9h16.8v4.9h-5.4V768.4z"/>
	<path class="st1" d="M305,768.4v-22.1h6v22.1H305z"/>
	<path class="st1" d="M325.4,768.4l-4.5-15.9h-0.1c0.2,2.7,0.3,4.8,0.3,6.3v9.6h-5.3v-22.1h8l4.6,15.7h0.1l4.5-15.7h8v22.1h-5.5
		v-9.7c0-0.5,0-1.1,0-1.7c0-0.6,0.1-2.1,0.2-4.5h-0.1l-4.5,15.9H325.4z"/>
	<path class="st1" d="M358.9,768.4h-13.1v-22.1h13.1v4.8h-7.2v3.5h6.6v4.8h-6.6v4.2h7.2V768.4z"/>
	<path class="st1" d="M362.8,768.4v-22.1h6v17.3h8.5v4.8H362.8z"/>
	<path class="st1" d="M380.8,768.4v-22.1h6v22.1H380.8z"/>
	<path class="st1" d="M412.7,768.4h-7.8l-8.1-15.6h-0.1c0.2,2.5,0.3,4.3,0.3,5.6v10h-5.3v-22.1h7.8l8.1,15.4h0.1
		c-0.1-2.2-0.2-4-0.2-5.4v-10h5.3V768.4z"/>
	<path class="st1" d="M430.6,768.4h-13.1v-22.1h13.1v4.8h-7.2v3.5h6.6v4.8h-6.6v4.2h7.2V768.4z"/>
</g>
<g>
	<g>
		<path class="st1" d="M43.6,894.8h-1.5l1.3-6.4h-6.1l-1.3,6.4h-1.6l2.9-13.6h1.6l-1.2,5.8h6.1l1.2-5.8h1.6L43.6,894.8z"/>
		<path class="st1" d="M52.4,884.5c0.6,0,1.1,0.2,1.5,0.5c0.4,0.3,0.8,0.7,1,1.3H55l0.6-1.6h1.2l-2.2,10.2h-1.2l0.2-1.9h-0.1
			c-1.1,1.4-2.3,2.1-3.5,2.1c-0.9,0-1.5-0.3-2-0.9c-0.5-0.6-0.7-1.5-0.7-2.5c0-1.3,0.2-2.5,0.7-3.6c0.4-1.1,1-2,1.8-2.6
			C50.6,884.8,51.4,884.5,52.4,884.5z M50.6,893.7c0.6,0,1.2-0.3,1.8-0.9s1.1-1.3,1.4-2.2c0.4-0.9,0.6-1.8,0.6-2.8
			c0-0.6-0.2-1.1-0.5-1.5c-0.3-0.4-0.8-0.6-1.4-0.6c-0.6,0-1.2,0.3-1.8,0.8c-0.6,0.5-1,1.3-1.3,2.2s-0.5,1.9-0.5,2.9
			c0,0.7,0.1,1.2,0.4,1.6C49.7,893.6,50.1,893.7,50.6,893.7z"/>
		<path class="st1" d="M59.2,894.8l-1.2-10.2h1.6l0.6,5.7c0.1,1.6,0.2,2.7,0.2,3.4h0.1c0.8-1.7,1.3-2.8,1.7-3.4l3-5.6h1.7l-5.5,10.2
			H59.2z"/>
		<path class="st1" d="M70.5,895c-1.1,0-2-0.3-2.7-1c-0.6-0.7-1-1.6-1-2.8c0-1.2,0.2-2.3,0.7-3.3c0.5-1.1,1.1-1.9,1.8-2.5
			s1.6-0.9,2.5-0.9c0.9,0,1.7,0.2,2.1,0.6c0.5,0.4,0.7,1,0.7,1.7c0,1.1-0.5,2-1.5,2.6c-1,0.6-2.5,1-4.4,1h-0.3l0,0.7
			c0,0.8,0.2,1.4,0.6,1.9c0.4,0.5,1,0.7,1.8,0.7c0.4,0,0.8-0.1,1.2-0.2c0.4-0.1,0.9-0.3,1.5-0.6v1.4c-0.6,0.3-1.1,0.5-1.5,0.6
			C71.5,895,71,895,70.5,895z M71.8,885.8c-0.6,0-1.2,0.3-1.8,0.9c-0.6,0.6-1,1.4-1.3,2.4h0.1c1.4,0,2.5-0.2,3.2-0.6
			c0.8-0.4,1.1-0.9,1.1-1.6c0-0.3-0.1-0.6-0.3-0.8C72.6,885.9,72.3,885.8,71.8,885.8z"/>
		<path class="st1" d="M86.2,884.5c0.6,0,1.1,0.2,1.5,0.5c0.4,0.3,0.8,0.7,1,1.3h0.1l0.6-1.6h1.2l-2.2,10.2h-1.2l0.2-1.9h-0.1
			c-1.1,1.4-2.3,2.1-3.5,2.1c-0.9,0-1.5-0.3-2-0.9c-0.5-0.6-0.7-1.5-0.7-2.5c0-1.3,0.2-2.5,0.7-3.6c0.4-1.1,1-2,1.8-2.6
			C84.4,884.8,85.3,884.5,86.2,884.5z M84.4,893.7c0.6,0,1.2-0.3,1.8-0.9s1.1-1.3,1.4-2.2c0.4-0.9,0.6-1.8,0.6-2.8
			c0-0.6-0.2-1.1-0.5-1.5c-0.3-0.4-0.8-0.6-1.4-0.6c-0.6,0-1.2,0.3-1.8,0.8c-0.6,0.5-1,1.3-1.3,2.2s-0.5,1.9-0.5,2.9
			c0,0.7,0.1,1.2,0.4,1.6C83.5,893.6,83.9,893.7,84.4,893.7z"/>
		<path class="st1" d="M93.1,894.8h-1.6l3.1-14.4h1.6L93.1,894.8z"/>
		<path class="st1" d="M97.9,894.8h-1.6l3.1-14.4h1.6L97.9,894.8z"/>
		<path class="st1" d="M112,894.8l1.4-6.4c0.1-0.6,0.2-1,0.2-1.3c0-0.4-0.1-0.8-0.3-1c-0.2-0.2-0.5-0.4-1-0.4c-0.5,0-1,0.2-1.5,0.6
			c-0.5,0.4-0.9,0.9-1.3,1.6c-0.4,0.7-0.7,1.5-0.9,2.5l-0.9,4.4h-1.6l2.2-10.2h1.3l-0.2,1.9h0.1c0.5-0.7,1.1-1.3,1.6-1.6
			c0.5-0.3,1.1-0.5,1.7-0.5c0.7,0,1.2,0.2,1.6,0.6c0.4,0.4,0.6,1,0.7,1.7h0.1c0.5-0.8,1.1-1.3,1.7-1.7c0.6-0.4,1.2-0.6,1.8-0.6
			c0.8,0,1.4,0.2,1.8,0.6c0.4,0.4,0.6,1,0.6,1.8c0,0.4-0.1,1-0.2,1.7l-1.3,6.2H118l1.4-6.4c0.1-0.6,0.2-1.1,0.2-1.4
			c0-0.4-0.1-0.7-0.3-0.9c-0.2-0.2-0.5-0.3-1-0.3c-0.5,0-1,0.2-1.5,0.5c-0.5,0.4-0.9,0.9-1.3,1.5c-0.4,0.7-0.6,1.4-0.8,2.3l-1,4.6
			H112z"/>
		<path class="st1" d="M128.1,884.5c0.6,0,1.1,0.2,1.5,0.5c0.4,0.3,0.8,0.7,1,1.3h0.1l0.6-1.6h1.2l-2.2,10.2h-1.2l0.2-1.9h-0.1
			c-1.1,1.4-2.3,2.1-3.5,2.1c-0.9,0-1.5-0.3-2-0.9c-0.5-0.6-0.7-1.5-0.7-2.5c0-1.3,0.2-2.5,0.7-3.6c0.4-1.1,1-2,1.8-2.6
			C126.3,884.8,127.1,884.5,128.1,884.5z M126.3,893.7c0.6,0,1.2-0.3,1.8-0.9s1.1-1.3,1.4-2.2c0.4-0.9,0.6-1.8,0.6-2.8
			c0-0.6-0.2-1.1-0.5-1.5c-0.3-0.4-0.8-0.6-1.4-0.6c-0.6,0-1.2,0.3-1.8,0.8c-0.6,0.5-1,1.3-1.3,2.2s-0.5,1.9-0.5,2.9
			c0,0.7,0.1,1.2,0.4,1.6C125.4,893.6,125.8,893.7,126.3,893.7z"/>
		<path class="st1" d="M136.5,893.7c0.3,0,0.8-0.1,1.3-0.2v1.2c-0.2,0.1-0.5,0.2-0.8,0.2c-0.3,0.1-0.6,0.1-0.7,0.1
			c-0.8,0-1.4-0.2-1.8-0.6c-0.4-0.4-0.6-0.9-0.6-1.6c0-0.4,0.1-0.9,0.2-1.4l1.2-5.6h-1.6l0.1-0.7l1.7-0.7l1.2-2.1h0.9l-0.5,2.3h2.5
			l-0.2,1.2h-2.5l-1.2,5.6c-0.1,0.5-0.2,0.9-0.2,1.2c0,0.3,0.1,0.6,0.3,0.8C136,893.7,136.2,893.7,136.5,893.7z"/>
		<path class="st1" d="M143.6,895c-1.1,0-2-0.3-2.7-1c-0.6-0.7-1-1.6-1-2.8c0-1.2,0.2-2.3,0.7-3.3c0.5-1.1,1.1-1.9,1.8-2.5
			s1.6-0.9,2.5-0.9c0.9,0,1.7,0.2,2.1,0.6c0.5,0.4,0.7,1,0.7,1.7c0,1.1-0.5,2-1.5,2.6c-1,0.6-2.5,1-4.4,1h-0.3l0,0.7
			c0,0.8,0.2,1.4,0.6,1.9c0.4,0.5,1,0.7,1.8,0.7c0.4,0,0.8-0.1,1.2-0.2c0.4-0.1,0.9-0.3,1.5-0.6v1.4c-0.6,0.3-1.1,0.5-1.5,0.6
			C144.6,895,144.1,895,143.6,895z M144.9,885.8c-0.6,0-1.2,0.3-1.8,0.9c-0.6,0.6-1,1.4-1.3,2.4h0.1c1.4,0,2.5-0.2,3.2-0.6
			c0.8-0.4,1.1-0.9,1.1-1.6c0-0.3-0.1-0.6-0.3-0.8C145.7,885.9,145.4,885.8,144.9,885.8z"/>
		<path class="st1" d="M155.4,884.5c0.4,0,0.8,0,1.1,0.1l-0.3,1.4c-0.3-0.1-0.7-0.1-1-0.1c-0.6,0-1.1,0.2-1.6,0.6
			c-0.5,0.4-0.9,0.9-1.3,1.5c-0.4,0.7-0.6,1.4-0.8,2.2l-1,4.7h-1.6l2.2-10.2h1.3l-0.2,1.9h0.1c0.4-0.6,0.8-1,1.1-1.3
			c0.3-0.3,0.6-0.5,0.9-0.6C154.6,884.5,155,884.5,155.4,884.5z"/>
		<path class="st1" d="M158,894.8h-1.6l2.2-10.2h1.6L158,894.8z M159.1,882.1c0-0.3,0.1-0.6,0.3-0.8c0.2-0.2,0.5-0.3,0.8-0.3
			c0.5,0,0.8,0.3,0.8,0.8c0,0.3-0.1,0.6-0.3,0.9c-0.2,0.2-0.4,0.4-0.7,0.4c-0.2,0-0.5-0.1-0.6-0.2
			C159.2,882.6,159.1,882.3,159.1,882.1z"/>
		<path class="st1" d="M166.7,884.5c0.6,0,1.1,0.2,1.5,0.5c0.4,0.3,0.8,0.7,1,1.3h0.1l0.6-1.6h1.2l-2.2,10.2h-1.2l0.2-1.9h-0.1
			c-1.1,1.4-2.3,2.1-3.5,2.1c-0.9,0-1.5-0.3-2-0.9c-0.5-0.6-0.7-1.5-0.7-2.5c0-1.3,0.2-2.5,0.7-3.6c0.4-1.1,1-2,1.8-2.6
			C164.9,884.8,165.8,884.5,166.7,884.5z M164.9,893.7c0.6,0,1.2-0.3,1.8-0.9s1.1-1.3,1.4-2.2c0.4-0.9,0.6-1.8,0.6-2.8
			c0-0.6-0.2-1.1-0.5-1.5c-0.3-0.4-0.8-0.6-1.4-0.6c-0.6,0-1.2,0.3-1.8,0.8c-0.6,0.5-1,1.3-1.3,2.2s-0.5,1.9-0.5,2.9
			c0,0.7,0.1,1.2,0.4,1.6C164,893.6,164.4,893.7,164.9,893.7z"/>
		<path class="st1" d="M173.6,894.8H172l3.1-14.4h1.6L173.6,894.8z"/>
		<path class="st1" d="M183.1,891.9c0,1-0.3,1.7-1,2.3c-0.7,0.5-1.6,0.8-2.9,0.8c-1,0-2-0.2-2.8-0.6v-1.5c0.4,0.3,0.9,0.5,1.4,0.6
			s1,0.2,1.4,0.2c0.8,0,1.4-0.2,1.8-0.5c0.4-0.3,0.6-0.7,0.6-1.2c0-0.4-0.1-0.6-0.3-0.9c-0.2-0.2-0.7-0.6-1.4-1
			c-0.8-0.5-1.4-0.9-1.7-1.3c-0.3-0.4-0.5-0.9-0.5-1.5c0-0.9,0.3-1.5,0.9-2.1c0.6-0.5,1.4-0.8,2.5-0.8c1.1,0,2.1,0.2,3.1,0.7
			l-0.5,1.3l-0.5-0.2c-0.6-0.3-1.3-0.4-2-0.4c-0.6,0-1,0.1-1.4,0.4c-0.3,0.3-0.5,0.6-0.5,1c0,0.3,0.1,0.6,0.3,0.9
			c0.2,0.2,0.7,0.6,1.4,1c0.7,0.4,1.1,0.7,1.4,1c0.3,0.3,0.5,0.6,0.6,0.9C183.1,891.2,183.1,891.6,183.1,891.9z"/>
		<path class="st1" d="M195.3,884.5c0.6,0,1.1,0.2,1.5,0.5c0.4,0.3,0.8,0.7,1,1.3h0.1l0.6-1.6h1.2l-2.2,10.2h-1.2l0.2-1.9h-0.1
			c-1.1,1.4-2.3,2.1-3.5,2.1c-0.9,0-1.5-0.3-2-0.9c-0.5-0.6-0.7-1.5-0.7-2.5c0-1.3,0.2-2.5,0.7-3.6c0.4-1.1,1-2,1.8-2.6
			C193.5,884.8,194.4,884.5,195.3,884.5z M193.5,893.7c0.6,0,1.2-0.3,1.8-0.9s1.1-1.3,1.4-2.2c0.4-0.9,0.6-1.8,0.6-2.8
			c0-0.6-0.2-1.1-0.5-1.5c-0.3-0.4-0.8-0.6-1.4-0.6c-0.6,0-1.2,0.3-1.8,0.8c-0.6,0.5-1,1.3-1.3,2.2s-0.5,1.9-0.5,2.9
			c0,0.7,0.1,1.2,0.4,1.6C192.6,893.6,193,893.7,193.5,893.7z"/>
		<path class="st1" d="M206.9,894.8l1.4-6.4c0.1-0.6,0.2-1.1,0.2-1.3c0-0.4-0.1-0.7-0.3-0.9c-0.2-0.2-0.6-0.4-1.1-0.4
			c-0.6,0-1.1,0.2-1.6,0.6c-0.5,0.4-1,0.9-1.4,1.6c-0.4,0.7-0.7,1.5-0.9,2.5l-0.9,4.4h-1.6l2.2-10.2h1.3l-0.2,1.9h0.1
			c0.6-0.8,1.2-1.3,1.7-1.6c0.6-0.3,1.1-0.5,1.7-0.5c0.8,0,1.4,0.2,1.9,0.6c0.5,0.4,0.7,1,0.7,1.8c0,0.5-0.1,1-0.2,1.7l-1.3,6.2
			H206.9z"/>
		<path class="st1" d="M217,884.5c1.2,0,2.1,0.6,2.6,1.8h0.1c0.1-1,0.2-1.8,0.4-2.5l0.7-3.3h1.5l-3.1,14.4H218l0.2-1.9h-0.1
			c-0.6,0.8-1.2,1.3-1.8,1.6c-0.5,0.3-1.1,0.5-1.7,0.5c-0.9,0-1.5-0.3-2-0.9s-0.7-1.4-0.7-2.5c0-1.3,0.2-2.5,0.7-3.6s1-2,1.8-2.6
			C215.2,884.8,216.1,884.5,217,884.5z M215.2,893.7c0.6,0,1.2-0.3,1.8-0.9c0.6-0.6,1.1-1.3,1.5-2.2c0.4-0.9,0.5-1.8,0.5-2.8
			c0-0.7-0.2-1.2-0.5-1.6c-0.3-0.4-0.8-0.5-1.5-0.5c-0.6,0-1.2,0.3-1.7,0.8c-0.5,0.5-1,1.2-1.3,2.2c-0.3,0.9-0.5,1.9-0.5,2.9
			C213.6,893,214.1,893.7,215.2,893.7z"/>
		<path class="st1" d="M232.9,884.5c1.2,0,2.1,0.6,2.6,1.8h0.1c0.1-1,0.2-1.8,0.4-2.5l0.7-3.3h1.5l-3.1,14.4h-1.3l0.2-1.9h-0.1
			c-0.6,0.8-1.2,1.3-1.8,1.6c-0.5,0.3-1.1,0.5-1.7,0.5c-0.9,0-1.5-0.3-2-0.9s-0.7-1.4-0.7-2.5c0-1.3,0.2-2.5,0.7-3.6s1-2,1.8-2.6
			C231.1,884.8,232,884.5,232.9,884.5z M231.1,893.7c0.6,0,1.2-0.3,1.8-0.9c0.6-0.6,1.1-1.3,1.5-2.2c0.4-0.9,0.5-1.8,0.5-2.8
			c0-0.7-0.2-1.2-0.5-1.6c-0.3-0.4-0.8-0.5-1.5-0.5c-0.6,0-1.2,0.3-1.7,0.8c-0.5,0.5-1,1.2-1.3,2.2c-0.3,0.9-0.5,1.9-0.5,2.9
			C229.5,893,230,893.7,231.1,893.7z"/>
		<path class="st1" d="M243.9,884.5c1.2,0,2.1,0.3,2.8,1c0.7,0.7,1,1.7,1,2.9c0,1.2-0.2,2.3-0.7,3.3c-0.4,1-1,1.8-1.8,2.4
			c-0.8,0.6-1.6,0.8-2.6,0.8c-1.2,0-2.1-0.3-2.8-1c-0.7-0.7-1-1.7-1-2.9c0-1.2,0.2-2.3,0.7-3.3c0.5-1,1.1-1.8,1.8-2.4
			C242.1,884.8,243,884.5,243.9,884.5z M246.1,888.2c0-0.7-0.2-1.3-0.6-1.7c-0.4-0.4-0.9-0.7-1.6-0.7c-0.7,0-1.3,0.2-1.8,0.7
			c-0.5,0.5-0.9,1.1-1.2,1.9c-0.3,0.8-0.4,1.7-0.4,2.7c0,0.8,0.2,1.4,0.6,1.9c0.4,0.4,1,0.7,1.7,0.7c0.6,0,1.2-0.2,1.7-0.7
			c0.5-0.5,0.9-1.1,1.2-1.9C246,890.3,246.1,889.3,246.1,888.2z"/>
		<path class="st1" d="M253.3,895c-1.2,0-2.1-0.3-2.8-1c-0.7-0.7-1-1.6-1-2.8c0-1.2,0.2-2.4,0.7-3.4s1.1-1.9,1.9-2.4
			c0.8-0.6,1.7-0.9,2.7-0.9c0.8,0,1.7,0.2,2.5,0.5l-0.4,1.3c-0.7-0.3-1.4-0.5-2-0.5c-0.7,0-1.3,0.2-1.9,0.7c-0.6,0.5-1,1.1-1.3,2
			c-0.3,0.8-0.5,1.8-0.5,2.8c0,0.8,0.2,1.4,0.6,1.8c0.4,0.4,1,0.7,1.7,0.7c0.4,0,0.9-0.1,1.3-0.2c0.4-0.1,0.8-0.3,1.2-0.4v1.3
			C255.1,894.8,254.2,895,253.3,895z"/>
		<path class="st1" d="M261.3,884.7l-1.4,6.4c-0.1,0.6-0.2,1-0.2,1.3c0,0.9,0.5,1.3,1.4,1.3c0.5,0,1.1-0.2,1.6-0.6
			c0.5-0.4,1-0.9,1.4-1.6c0.4-0.7,0.7-1.5,0.9-2.5l0.9-4.4h1.5l-2.1,10.2h-1.3l0.2-1.9h-0.1c-0.6,0.8-1.2,1.3-1.7,1.6
			c-0.5,0.3-1.1,0.5-1.7,0.5c-0.8,0-1.4-0.2-1.9-0.6s-0.7-1-0.7-1.8c0-0.4,0.1-0.9,0.2-1.6l1.4-6.3H261.3z"/>
		<path class="st1" d="M274.6,894.8l1.4-6.4c0.1-0.6,0.2-1,0.2-1.3c0-0.4-0.1-0.8-0.3-1c-0.2-0.2-0.5-0.4-1-0.4
			c-0.5,0-1,0.2-1.5,0.6c-0.5,0.4-0.9,0.9-1.3,1.6s-0.7,1.5-0.9,2.5l-0.9,4.4h-1.6l2.2-10.2h1.3l-0.2,1.9h0.1
			c0.5-0.7,1.1-1.3,1.6-1.6s1.1-0.5,1.7-0.5c0.7,0,1.2,0.2,1.6,0.6c0.4,0.4,0.6,1,0.7,1.7h0.1c0.5-0.8,1.1-1.3,1.7-1.7
			c0.6-0.4,1.2-0.6,1.8-0.6c0.8,0,1.4,0.2,1.8,0.6s0.6,1,0.6,1.8c0,0.4-0.1,1-0.2,1.7l-1.3,6.2h-1.6l1.4-6.4
			c0.1-0.6,0.2-1.1,0.2-1.4c0-0.4-0.1-0.7-0.3-0.9c-0.2-0.2-0.5-0.3-1-0.3c-0.5,0-1,0.2-1.5,0.5c-0.5,0.4-0.9,0.9-1.3,1.5
			c-0.4,0.7-0.6,1.4-0.8,2.3l-1,4.6H274.6z"/>
		<path class="st1" d="M289.3,895c-1.1,0-2-0.3-2.7-1c-0.6-0.7-1-1.6-1-2.8c0-1.2,0.2-2.3,0.7-3.3c0.5-1.1,1.1-1.9,1.8-2.5
			s1.6-0.9,2.5-0.9c0.9,0,1.7,0.2,2.1,0.6c0.5,0.4,0.7,1,0.7,1.7c0,1.1-0.5,2-1.5,2.6s-2.5,1-4.4,1h-0.3l0,0.7
			c0,0.8,0.2,1.4,0.6,1.9c0.4,0.5,1,0.7,1.8,0.7c0.4,0,0.8-0.1,1.2-0.2s0.9-0.3,1.5-0.6v1.4c-0.6,0.3-1.1,0.5-1.5,0.6
			C290.3,895,289.8,895,289.3,895z M290.5,885.8c-0.6,0-1.2,0.3-1.8,0.9c-0.6,0.6-1,1.4-1.3,2.4h0.1c1.4,0,2.5-0.2,3.2-0.6
			c0.8-0.4,1.1-0.9,1.1-1.6c0-0.3-0.1-0.6-0.3-0.8S291,885.8,290.5,885.8z"/>
		<path class="st1" d="M300.8,894.8l1.4-6.4c0.1-0.6,0.2-1.1,0.2-1.3c0-0.4-0.1-0.7-0.3-0.9c-0.2-0.2-0.6-0.4-1.1-0.4
			c-0.6,0-1.1,0.2-1.6,0.6c-0.5,0.4-1,0.9-1.4,1.6c-0.4,0.7-0.7,1.5-0.9,2.5l-0.9,4.4h-1.6l2.2-10.2h1.3l-0.2,1.9h0.1
			c0.6-0.8,1.2-1.3,1.7-1.6s1.1-0.5,1.7-0.5c0.8,0,1.4,0.2,1.9,0.6c0.5,0.4,0.7,1,0.7,1.8c0,0.5-0.1,1-0.2,1.7l-1.3,6.2H300.8z"/>
		<path class="st1" d="M308.7,893.7c0.3,0,0.8-0.1,1.3-0.2v1.2c-0.2,0.1-0.5,0.2-0.8,0.2c-0.3,0.1-0.6,0.1-0.7,0.1
			c-0.8,0-1.4-0.2-1.8-0.6c-0.4-0.4-0.6-0.9-0.6-1.6c0-0.4,0.1-0.9,0.2-1.4l1.2-5.6h-1.6l0.1-0.7l1.7-0.7l1.2-2.1h0.9l-0.5,2.3h2.5
			l-0.2,1.2H309l-1.2,5.6c-0.1,0.5-0.2,0.9-0.2,1.2c0,0.3,0.1,0.6,0.3,0.8S308.4,893.7,308.7,893.7z"/>
		<path class="st1" d="M318,891.9c0,1-0.3,1.7-1,2.3c-0.7,0.5-1.6,0.8-2.9,0.8c-1,0-2-0.2-2.8-0.6v-1.5c0.4,0.3,0.9,0.5,1.4,0.6
			c0.5,0.1,1,0.2,1.4,0.2c0.8,0,1.4-0.2,1.8-0.5c0.4-0.3,0.6-0.7,0.6-1.2c0-0.4-0.1-0.6-0.3-0.9c-0.2-0.2-0.7-0.6-1.4-1
			c-0.8-0.5-1.4-0.9-1.7-1.3c-0.3-0.4-0.5-0.9-0.5-1.5c0-0.9,0.3-1.5,0.9-2.1s1.4-0.8,2.5-0.8c1.1,0,2.1,0.2,3.1,0.7l-0.5,1.3
			l-0.5-0.2c-0.6-0.3-1.3-0.4-2-0.4c-0.6,0-1,0.1-1.4,0.4c-0.3,0.3-0.5,0.6-0.5,1c0,0.3,0.1,0.6,0.3,0.9c0.2,0.2,0.7,0.6,1.4,1
			c0.7,0.4,1.1,0.7,1.4,1c0.3,0.3,0.5,0.6,0.6,0.9C317.9,891.2,318,891.6,318,891.9z"/>
	</g>
	<g>
		<path class="st1" d="M46.1,918.2c-0.6,0-1.1-0.2-1.6-0.5c-0.5-0.3-0.8-0.7-1-1.3h-0.1l0,0.4c0,0.2-0.1,0.4-0.1,0.6
			c0,0.3-0.4,2-1.1,5.1h-1.5l3.1-14.7h1.3l-0.2,1.9h0.1c1.1-1.4,2.3-2.1,3.5-2.1c0.8,0,1.5,0.3,2,0.9c0.5,0.6,0.7,1.4,0.7,2.5
			c0,1.3-0.2,2.5-0.6,3.6s-1,1.9-1.8,2.6C47.9,917.9,47.1,918.2,46.1,918.2z M47.9,909c-0.6,0-1.2,0.3-1.8,0.9
			c-0.6,0.6-1.1,1.3-1.5,2.2c-0.4,0.9-0.5,1.8-0.5,2.7c0,0.7,0.2,1.2,0.5,1.6c0.3,0.4,0.8,0.5,1.5,0.5c0.6,0,1.2-0.3,1.7-0.8
			c0.5-0.5,1-1.2,1.3-2.1c0.3-0.9,0.5-1.9,0.5-2.9C49.5,909.7,49,909,47.9,909z"/>
		<path class="st1" d="M59,907.7c0.4,0,0.8,0,1.1,0.1l-0.3,1.4c-0.3-0.1-0.7-0.1-1-0.1c-0.6,0-1.1,0.2-1.6,0.6
			c-0.5,0.4-0.9,0.9-1.3,1.5c-0.4,0.7-0.6,1.4-0.8,2.2l-1,4.7h-1.6l2.2-10.2h1.3l-0.2,1.9h0.1c0.4-0.6,0.8-1,1.1-1.3
			c0.3-0.3,0.6-0.5,0.9-0.6C58.3,907.7,58.6,907.7,59,907.7z"/>
		<path class="st1" d="M64.1,918.2c-1.1,0-2-0.3-2.7-1c-0.6-0.7-1-1.6-1-2.8c0-1.2,0.2-2.3,0.7-3.3c0.5-1.1,1.1-1.9,1.8-2.5
			s1.6-0.9,2.5-0.9c0.9,0,1.7,0.2,2.1,0.6c0.5,0.4,0.7,1,0.7,1.7c0,1.1-0.5,2-1.5,2.6c-1,0.6-2.5,1-4.4,1h-0.3l0,0.7
			c0,0.8,0.2,1.4,0.6,1.9c0.4,0.5,1,0.7,1.8,0.7c0.4,0,0.8-0.1,1.2-0.2c0.4-0.1,0.9-0.3,1.5-0.6v1.4c-0.6,0.3-1.1,0.5-1.5,0.6
			C65.2,918.2,64.7,918.2,64.1,918.2z M65.4,909c-0.6,0-1.2,0.3-1.8,0.9c-0.6,0.6-1,1.4-1.3,2.4h0.1c1.4,0,2.5-0.2,3.2-0.6
			c0.8-0.4,1.1-0.9,1.1-1.6c0-0.3-0.1-0.6-0.3-0.8C66.3,909.1,65.9,909,65.4,909z"/>
		<path class="st1" d="M74,918.2c-0.6,0-1.1-0.2-1.6-0.5c-0.5-0.3-0.8-0.7-1-1.3h-0.1l0,0.4c0,0.2-0.1,0.4-0.1,0.6
			c0,0.3-0.4,2-1.1,5.1h-1.5l3.1-14.7H73l-0.2,1.9h0.1c1.1-1.4,2.3-2.1,3.5-2.1c0.8,0,1.5,0.3,2,0.9c0.5,0.6,0.7,1.4,0.7,2.5
			c0,1.3-0.2,2.5-0.6,3.6s-1,1.9-1.8,2.6C75.8,917.9,75,918.2,74,918.2z M75.7,909c-0.6,0-1.2,0.3-1.8,0.9c-0.6,0.6-1.1,1.3-1.5,2.2
			c-0.4,0.9-0.5,1.8-0.5,2.7c0,0.7,0.2,1.2,0.5,1.6c0.3,0.4,0.8,0.5,1.5,0.5c0.6,0,1.2-0.3,1.7-0.8c0.5-0.5,1-1.2,1.3-2.1
			c0.3-0.9,0.5-1.9,0.5-2.9C77.4,909.7,76.8,909,75.7,909z"/>
		<path class="st1" d="M85.8,907.7c0.6,0,1.1,0.2,1.5,0.5c0.4,0.3,0.8,0.7,1,1.3h0.1l0.6-1.6h1.2L88.1,918h-1.2l0.2-1.9h-0.1
			c-1.1,1.4-2.3,2.1-3.5,2.1c-0.9,0-1.5-0.3-2-0.9c-0.5-0.6-0.7-1.5-0.7-2.5c0-1.3,0.2-2.5,0.7-3.6c0.4-1.1,1-2,1.8-2.6
			C84.1,908,84.9,907.7,85.8,907.7z M84.1,916.9c0.6,0,1.2-0.3,1.8-0.9s1.1-1.3,1.4-2.2c0.4-0.9,0.6-1.8,0.6-2.8
			c0-0.6-0.2-1.1-0.5-1.5c-0.3-0.4-0.8-0.6-1.4-0.6c-0.6,0-1.2,0.3-1.8,0.8c-0.6,0.5-1,1.3-1.3,2.2s-0.5,1.9-0.5,2.9
			c0,0.7,0.1,1.2,0.4,1.6C83.1,916.8,83.5,916.9,84.1,916.9z"/>
		<path class="st1" d="M97.6,907.7c0.4,0,0.8,0,1.1,0.1l-0.3,1.4c-0.3-0.1-0.7-0.1-1-0.1c-0.6,0-1.1,0.2-1.6,0.6
			c-0.5,0.4-0.9,0.9-1.3,1.5c-0.4,0.7-0.6,1.4-0.8,2.2l-1,4.7h-1.6l2.2-10.2h1.3l-0.2,1.9h0.1c0.4-0.6,0.8-1,1.1-1.3
			c0.3-0.3,0.6-0.5,0.9-0.6C96.9,907.7,97.2,907.7,97.6,907.7z"/>
		<path class="st1" d="M102.7,918.2c-1.1,0-2-0.3-2.7-1c-0.6-0.7-1-1.6-1-2.8c0-1.2,0.2-2.3,0.7-3.3c0.5-1.1,1.1-1.9,1.8-2.5
			s1.6-0.9,2.5-0.9c0.9,0,1.7,0.2,2.1,0.6c0.5,0.4,0.7,1,0.7,1.7c0,1.1-0.5,2-1.5,2.6c-1,0.6-2.5,1-4.4,1h-0.3l0,0.7
			c0,0.8,0.2,1.4,0.6,1.9c0.4,0.5,1,0.7,1.8,0.7c0.4,0,0.8-0.1,1.2-0.2c0.4-0.1,0.9-0.3,1.5-0.6v1.4c-0.6,0.3-1.1,0.5-1.5,0.6
			C103.8,918.2,103.3,918.2,102.7,918.2z M104,909c-0.6,0-1.2,0.3-1.8,0.9c-0.6,0.6-1,1.4-1.3,2.4h0.1c1.4,0,2.5-0.2,3.2-0.6
			c0.8-0.4,1.1-0.9,1.1-1.6c0-0.3-0.1-0.6-0.3-0.8C104.9,909.1,104.5,909,104,909z"/>
		<path class="st1" d="M113.5,907.7c1.2,0,2.1,0.6,2.6,1.8h0.1c0.1-1,0.2-1.8,0.4-2.5l0.7-3.3h1.5l-3.1,14.4h-1.3l0.2-1.9h-0.1
			c-0.6,0.8-1.2,1.3-1.8,1.6c-0.5,0.3-1.1,0.5-1.7,0.5c-0.9,0-1.5-0.3-2-0.9s-0.7-1.4-0.7-2.5c0-1.3,0.2-2.5,0.7-3.6s1-2,1.8-2.6
			C111.7,908,112.5,907.7,113.5,907.7z M111.7,916.9c0.6,0,1.2-0.3,1.8-0.9c0.6-0.6,1.1-1.3,1.5-2.2c0.4-0.9,0.5-1.8,0.5-2.8
			c0-0.7-0.2-1.2-0.5-1.6c-0.3-0.4-0.8-0.5-1.5-0.5c-0.6,0-1.2,0.3-1.7,0.8c-0.5,0.5-1,1.2-1.3,2.2c-0.3,0.9-0.5,1.9-0.5,2.9
			C110,916.2,110.6,916.9,111.7,916.9z"/>
		<path class="st1" d="M122.5,922.6c-0.4,0-0.8-0.1-1.2-0.2v-1.3c0.4,0.1,0.7,0.2,1,0.2c0.5,0,0.8-0.2,1.1-0.6s0.5-0.9,0.6-1.6
			l2.1-10h-1.8l0.1-0.6l1.9-0.6l0.2-0.9c0.3-1.2,0.7-2.1,1.2-2.6c0.5-0.5,1.3-0.8,2.2-0.8c0.2,0,0.6,0,0.9,0.1
			c0.4,0.1,0.6,0.1,0.8,0.2l-0.4,1.2c-0.5-0.2-0.9-0.3-1.3-0.3c-0.5,0-1,0.2-1.2,0.5c-0.3,0.3-0.5,0.8-0.7,1.6l-0.2,1h2.2l-0.2,1.2
			h-2.2l-2.2,10.2c-0.2,1.2-0.6,2-1.1,2.6C123.9,922.3,123.3,922.6,122.5,922.6z"/>
		<path class="st1" d="M135.4,907.7c1.2,0,2.1,0.3,2.8,1c0.7,0.7,1,1.7,1,2.9c0,1.2-0.2,2.3-0.7,3.3c-0.4,1-1,1.8-1.8,2.4
			c-0.8,0.6-1.6,0.8-2.6,0.8c-1.2,0-2.1-0.3-2.8-1c-0.7-0.7-1-1.7-1-2.9c0-1.2,0.2-2.3,0.7-3.3c0.5-1,1.1-1.8,1.8-2.4
			C133.6,908,134.4,907.7,135.4,907.7z M137.5,911.4c0-0.7-0.2-1.3-0.6-1.7c-0.4-0.4-0.9-0.7-1.6-0.7c-0.7,0-1.3,0.2-1.8,0.7
			c-0.5,0.5-0.9,1.1-1.2,1.9c-0.3,0.8-0.4,1.7-0.4,2.7c0,0.8,0.2,1.4,0.6,1.9c0.4,0.4,1,0.7,1.7,0.7c0.6,0,1.2-0.2,1.7-0.7
			c0.5-0.5,0.9-1.1,1.2-1.9C137.4,913.5,137.5,912.5,137.5,911.4z"/>
		<path class="st1" d="M147,907.7c0.4,0,0.8,0,1.1,0.1l-0.3,1.4c-0.3-0.1-0.7-0.1-1-0.1c-0.6,0-1.1,0.2-1.6,0.6
			c-0.5,0.4-0.9,0.9-1.3,1.5c-0.4,0.7-0.6,1.4-0.8,2.2l-1,4.7h-1.6l2.2-10.2h1.3l-0.2,1.9h0.1c0.4-0.6,0.8-1,1.1-1.3
			c0.3-0.3,0.6-0.5,0.9-0.6C146.3,907.7,146.6,907.7,147,907.7z"/>
		<path class="st1" d="M158.5,907.7c1.2,0,2.1,0.3,2.8,1c0.7,0.7,1,1.7,1,2.9c0,1.2-0.2,2.3-0.7,3.3c-0.4,1-1,1.8-1.8,2.4
			c-0.8,0.6-1.6,0.8-2.6,0.8c-1.2,0-2.1-0.3-2.8-1c-0.7-0.7-1-1.7-1-2.9c0-1.2,0.2-2.3,0.7-3.3c0.5-1,1.1-1.8,1.8-2.4
			C156.7,908,157.5,907.7,158.5,907.7z M160.7,911.4c0-0.7-0.2-1.3-0.6-1.7c-0.4-0.4-0.9-0.7-1.6-0.7c-0.7,0-1.3,0.2-1.8,0.7
			c-0.5,0.5-0.9,1.1-1.2,1.9c-0.3,0.8-0.4,1.7-0.4,2.7c0,0.8,0.2,1.4,0.6,1.9c0.4,0.4,1,0.7,1.7,0.7c0.6,0,1.2-0.2,1.7-0.7
			c0.5-0.5,0.9-1.1,1.2-1.9C160.5,913.5,160.7,912.5,160.7,911.4z"/>
		<path class="st1" d="M167.3,907.9l-1.4,6.4c-0.1,0.6-0.2,1-0.2,1.3c0,0.9,0.5,1.3,1.4,1.3c0.5,0,1.1-0.2,1.6-0.6
			c0.5-0.4,1-0.9,1.4-1.6c0.4-0.7,0.7-1.5,0.9-2.5l0.9-4.4h1.5l-2.1,10.2h-1.3l0.2-1.9h-0.1c-0.6,0.8-1.2,1.3-1.7,1.6
			c-0.6,0.3-1.1,0.5-1.7,0.5c-0.8,0-1.4-0.2-1.9-0.6c-0.5-0.4-0.7-1-0.7-1.8c0-0.4,0.1-0.9,0.2-1.6l1.4-6.3H167.3z"/>
		<path class="st1" d="M181.1,907.7c0.4,0,0.8,0,1.1,0.1l-0.3,1.4c-0.3-0.1-0.7-0.1-1-0.1c-0.6,0-1.1,0.2-1.6,0.6
			c-0.5,0.4-0.9,0.9-1.3,1.5c-0.4,0.7-0.6,1.4-0.8,2.2l-1,4.7h-1.6l2.2-10.2h1.3l-0.2,1.9h0.1c0.4-0.6,0.8-1,1.1-1.3
			c0.3-0.3,0.6-0.5,0.9-0.6C180.4,907.7,180.7,907.7,181.1,907.7z"/>
		<path class="st1" d="M191.6,918.2c-0.6,0-1.1-0.2-1.6-0.5c-0.5-0.3-0.8-0.7-1-1.3h-0.1l0,0.4c0,0.2-0.1,0.4-0.1,0.6
			c0,0.3-0.4,2-1.1,5.1h-1.5l3.1-14.7h1.3l-0.2,1.9h0.1c1.1-1.4,2.3-2.1,3.5-2.1c0.8,0,1.5,0.3,2,0.9c0.5,0.6,0.7,1.4,0.7,2.5
			c0,1.3-0.2,2.5-0.6,3.6s-1,1.9-1.8,2.6C193.5,917.9,192.6,918.2,191.6,918.2z M193.4,909c-0.6,0-1.2,0.3-1.8,0.9
			c-0.6,0.6-1.1,1.3-1.5,2.2c-0.4,0.9-0.5,1.8-0.5,2.7c0,0.7,0.2,1.2,0.5,1.6c0.3,0.4,0.8,0.5,1.5,0.5c0.6,0,1.2-0.3,1.7-0.8
			c0.5-0.5,1-1.2,1.3-2.1c0.3-0.9,0.5-1.9,0.5-2.9C195,909.7,194.5,909,193.4,909z"/>
		<path class="st1" d="M203.5,907.7c0.6,0,1.1,0.2,1.5,0.5c0.4,0.3,0.8,0.7,1,1.3h0.1l0.6-1.6h1.2l-2.2,10.2h-1.2l0.2-1.9h-0.1
			c-1.1,1.4-2.3,2.1-3.5,2.1c-0.9,0-1.5-0.3-2-0.9c-0.5-0.6-0.7-1.5-0.7-2.5c0-1.3,0.2-2.5,0.7-3.6c0.4-1.1,1-2,1.8-2.6
			C201.7,908,202.6,907.7,203.5,907.7z M201.7,916.9c0.6,0,1.2-0.3,1.8-0.9s1.1-1.3,1.4-2.2c0.4-0.9,0.6-1.8,0.6-2.8
			c0-0.6-0.2-1.1-0.5-1.5c-0.3-0.4-0.8-0.6-1.4-0.6c-0.6,0-1.2,0.3-1.8,0.8c-0.6,0.5-1,1.3-1.3,2.2s-0.5,1.9-0.5,2.9
			c0,0.7,0.1,1.2,0.4,1.6C200.8,916.8,201.2,916.9,201.7,916.9z"/>
		<path class="st1" d="M212,916.9c0.3,0,0.8-0.1,1.3-0.2v1.2c-0.2,0.1-0.5,0.2-0.8,0.2c-0.3,0.1-0.6,0.1-0.7,0.1
			c-0.8,0-1.4-0.2-1.8-0.6c-0.4-0.4-0.6-0.9-0.6-1.6c0-0.4,0.1-0.9,0.2-1.4l1.2-5.6h-1.6l0.1-0.7l1.7-0.7l1.2-2.1h0.9l-0.5,2.3h2.5
			l-0.2,1.2h-2.5l-1.2,5.6c-0.1,0.5-0.2,0.9-0.2,1.2c0,0.3,0.1,0.6,0.3,0.8C211.4,916.9,211.6,916.9,212,916.9z"/>
		<path class="st1" d="M219,918.2c-1.1,0-2-0.3-2.7-1c-0.6-0.7-1-1.6-1-2.8c0-1.2,0.2-2.3,0.7-3.3c0.5-1.1,1.1-1.9,1.8-2.5
			s1.6-0.9,2.5-0.9c0.9,0,1.7,0.2,2.1,0.6c0.5,0.4,0.7,1,0.7,1.7c0,1.1-0.5,2-1.5,2.6c-1,0.6-2.5,1-4.4,1H217l0,0.7
			c0,0.8,0.2,1.4,0.6,1.9c0.4,0.5,1,0.7,1.8,0.7c0.4,0,0.8-0.1,1.2-0.2c0.4-0.1,0.9-0.3,1.5-0.6v1.4c-0.6,0.3-1.1,0.5-1.5,0.6
			C220,918.2,219.6,918.2,219,918.2z M220.3,909c-0.6,0-1.2,0.3-1.8,0.9c-0.6,0.6-1,1.4-1.3,2.4h0.1c1.4,0,2.5-0.2,3.2-0.6
			c0.8-0.4,1.1-0.9,1.1-1.6c0-0.3-0.1-0.6-0.3-0.8C221.1,909.1,220.8,909,220.3,909z"/>
		<path class="st1" d="M230.6,918l1.4-6.4c0.1-0.6,0.2-1.1,0.2-1.3c0-0.4-0.1-0.7-0.3-0.9c-0.2-0.2-0.6-0.4-1.1-0.4
			c-0.6,0-1.1,0.2-1.6,0.6c-0.5,0.4-1,0.9-1.4,1.6c-0.4,0.7-0.7,1.5-0.9,2.5l-0.9,4.4h-1.6l2.2-10.2h1.3l-0.2,1.9h0.1
			c0.6-0.8,1.2-1.3,1.7-1.6c0.6-0.3,1.1-0.5,1.7-0.5c0.8,0,1.4,0.2,1.9,0.6c0.5,0.4,0.7,1,0.7,1.8c0,0.5-0.1,1-0.2,1.7l-1.3,6.2
			H230.6z"/>
		<path class="st1" d="M238.5,916.9c0.3,0,0.8-0.1,1.3-0.2v1.2c-0.2,0.1-0.5,0.2-0.8,0.2c-0.3,0.1-0.6,0.1-0.7,0.1
			c-0.8,0-1.4-0.2-1.8-0.6c-0.4-0.4-0.6-0.9-0.6-1.6c0-0.4,0.1-0.9,0.2-1.4l1.2-5.6h-1.6l0.1-0.7l1.7-0.7l1.2-2.1h0.9l-0.5,2.3h2.5
			l-0.2,1.2h-2.5l-1.2,5.6c-0.1,0.5-0.2,0.9-0.2,1.2c0,0.3,0.1,0.6,0.3,0.8C237.9,916.9,238.1,916.9,238.5,916.9z"/>
		<path class="st1" d="M251.8,907.7c0.6,0,1.1,0.2,1.5,0.5c0.4,0.3,0.8,0.7,1,1.3h0.1l0.6-1.6h1.2l-2.2,10.2h-1.2l0.2-1.9H253
			c-1.1,1.4-2.3,2.1-3.5,2.1c-0.9,0-1.5-0.3-2-0.9c-0.5-0.6-0.7-1.5-0.7-2.5c0-1.3,0.2-2.5,0.7-3.6c0.4-1.1,1-2,1.8-2.6
			C250,908,250.9,907.7,251.8,907.7z M250,916.9c0.6,0,1.2-0.3,1.8-0.9s1.1-1.3,1.4-2.2c0.4-0.9,0.6-1.8,0.6-2.8
			c0-0.6-0.2-1.1-0.5-1.5c-0.3-0.4-0.8-0.6-1.4-0.6c-0.6,0-1.2,0.3-1.8,0.8c-0.6,0.5-1,1.3-1.3,2.2s-0.5,1.9-0.5,2.9
			c0,0.7,0.1,1.2,0.4,1.6C249.1,916.8,249.5,916.9,250,916.9z"/>
		<path class="st1" d="M260.3,916.9c0.3,0,0.8-0.1,1.3-0.2v1.2c-0.2,0.1-0.5,0.2-0.8,0.2c-0.3,0.1-0.6,0.1-0.7,0.1
			c-0.8,0-1.4-0.2-1.8-0.6c-0.4-0.4-0.6-0.9-0.6-1.6c0-0.4,0.1-0.9,0.2-1.4l1.2-5.6h-1.6l0.1-0.7l1.7-0.7l1.2-2.1h0.9l-0.5,2.3h2.5
			l-0.2,1.2h-2.5l-1.2,5.6c-0.1,0.5-0.2,0.9-0.2,1.2c0,0.3,0.1,0.6,0.3,0.8S260,916.9,260.3,916.9z"/>
		<path class="st1" d="M266.4,916.9c0.3,0,0.8-0.1,1.3-0.2v1.2c-0.2,0.1-0.5,0.2-0.8,0.2c-0.3,0.1-0.6,0.1-0.7,0.1
			c-0.8,0-1.4-0.2-1.8-0.6c-0.4-0.4-0.6-0.9-0.6-1.6c0-0.4,0.1-0.9,0.2-1.4l1.2-5.6h-1.6l0.1-0.7l1.7-0.7l1.2-2.1h0.9l-0.5,2.3h2.5
			l-0.2,1.2h-2.5l-1.2,5.6c-0.1,0.5-0.2,0.9-0.2,1.2c0,0.3,0.1,0.6,0.3,0.8S266.1,916.9,266.4,916.9z"/>
		<path class="st1" d="M274.9,907.7c1.2,0,2.1,0.3,2.8,1c0.7,0.7,1,1.7,1,2.9c0,1.2-0.2,2.3-0.7,3.3c-0.4,1-1,1.8-1.8,2.4
			c-0.8,0.6-1.6,0.8-2.6,0.8c-1.2,0-2.1-0.3-2.8-1c-0.7-0.7-1-1.7-1-2.9c0-1.2,0.2-2.3,0.7-3.3c0.5-1,1.1-1.8,1.8-2.4
			C273.1,908,274,907.7,274.9,907.7z M277.1,911.4c0-0.7-0.2-1.3-0.6-1.7c-0.4-0.4-0.9-0.7-1.6-0.7c-0.7,0-1.3,0.2-1.8,0.7
			c-0.5,0.5-0.9,1.1-1.2,1.9s-0.4,1.7-0.4,2.7c0,0.8,0.2,1.4,0.6,1.9c0.4,0.4,1,0.7,1.7,0.7c0.6,0,1.2-0.2,1.7-0.7
			c0.5-0.5,0.9-1.1,1.2-1.9C276.9,913.5,277.1,912.5,277.1,911.4z"/>
		<path class="st1" d="M286.6,907.7c0.4,0,0.8,0,1.1,0.1l-0.3,1.4c-0.3-0.1-0.7-0.1-1-0.1c-0.6,0-1.1,0.2-1.6,0.6
			c-0.5,0.4-0.9,0.9-1.3,1.5c-0.4,0.7-0.6,1.4-0.8,2.2l-1,4.7h-1.6l2.2-10.2h1.3l-0.2,1.9h0.1c0.4-0.6,0.8-1,1.1-1.3
			c0.3-0.3,0.6-0.5,0.9-0.6C285.8,907.7,286.2,907.7,286.6,907.7z"/>
		<path class="st1" d="M293.9,918l1.4-6.4c0.1-0.6,0.2-1.1,0.2-1.3c0-0.4-0.1-0.7-0.3-0.9c-0.2-0.2-0.6-0.4-1.1-0.4
			c-0.6,0-1.1,0.2-1.6,0.6c-0.5,0.4-1,0.9-1.4,1.6c-0.4,0.7-0.7,1.5-0.9,2.5l-0.9,4.4h-1.6l2.2-10.2h1.3l-0.2,1.9h0.1
			c0.6-0.8,1.2-1.3,1.7-1.6s1.1-0.5,1.7-0.5c0.8,0,1.4,0.2,1.9,0.6c0.5,0.4,0.7,1,0.7,1.8c0,0.5-0.1,1-0.2,1.7l-1.3,6.2H293.9z"/>
		<path class="st1" d="M302.7,918.2c-1.1,0-2-0.3-2.7-1c-0.6-0.7-1-1.6-1-2.8c0-1.2,0.2-2.3,0.7-3.3c0.5-1.1,1.1-1.9,1.8-2.5
			s1.6-0.9,2.5-0.9c0.9,0,1.7,0.2,2.1,0.6c0.5,0.4,0.7,1,0.7,1.7c0,1.1-0.5,2-1.5,2.6s-2.5,1-4.4,1h-0.3l0,0.7
			c0,0.8,0.2,1.4,0.6,1.9c0.4,0.5,1,0.7,1.8,0.7c0.4,0,0.8-0.1,1.2-0.2s0.9-0.3,1.5-0.6v1.4c-0.6,0.3-1.1,0.5-1.5,0.6
			C303.7,918.2,303.2,918.2,302.7,918.2z M303.9,909c-0.6,0-1.2,0.3-1.8,0.9c-0.6,0.6-1,1.4-1.3,2.4h0.1c1.4,0,2.5-0.2,3.2-0.6
			c0.8-0.4,1.1-0.9,1.1-1.6c0-0.3-0.1-0.6-0.3-0.8S304.4,909,303.9,909z"/>
		<path class="st1" d="M308.4,907.9h1.6l0.7,5.1c0.1,0.4,0.1,1.1,0.2,1.9s0.1,1.5,0.1,2h0.1c0.2-0.5,0.5-1.2,0.8-1.9
			c0.3-0.7,0.6-1.2,0.7-1.4l3-5.7h1.7l-6.5,11.9c-0.6,1.1-1.1,1.8-1.7,2.2c-0.6,0.4-1.2,0.6-2,0.6c-0.4,0-0.9-0.1-1.3-0.2v-1.3
			c0.4,0.1,0.8,0.2,1.2,0.2c0.5,0,0.9-0.2,1.3-0.5c0.4-0.3,0.7-0.8,1.1-1.4l0.7-1.3L308.4,907.9z"/>
	</g>
	<g>
		<path class="st1" d="M160.1,851.6c0,3.2-0.8,5.7-2.4,7.4s-3.9,2.5-7,2.5c-3,0-5.3-0.8-7-2.5c-1.6-1.7-2.4-4.2-2.4-7.4
			c0-3.2,0.8-5.7,2.4-7.4c1.6-1.7,3.9-2.5,7-2.5c3.1,0,5.4,0.8,7,2.5S160.1,848.4,160.1,851.6z M146.8,851.6c0,3.7,1.3,5.6,3.9,5.6
			c1.3,0,2.3-0.5,2.9-1.4s1-2.3,1-4.2c0-1.9-0.3-3.3-1-4.3c-0.6-0.9-1.6-1.4-2.9-1.4C148.2,846,146.8,847.9,146.8,851.6z"/>
		<path class="st1" d="M172.2,846c-1.2,0-2.2,0.5-2.9,1.5c-0.7,1-1,2.4-1,4.2c0,3.7,1.4,5.6,4.2,5.6c0.9,0,1.7-0.1,2.5-0.4
			s1.6-0.5,2.4-0.9v4.4c-1.6,0.7-3.4,1.1-5.5,1.1c-2.9,0-5.1-0.8-6.7-2.5c-1.6-1.7-2.3-4.1-2.3-7.3c0-2,0.4-3.7,1.1-5.3
			c0.8-1.5,1.8-2.7,3.2-3.5c1.4-0.8,3.1-1.2,5-1.2c2.1,0,4.1,0.5,6,1.4l-1.6,4.1c-0.7-0.3-1.4-0.6-2.1-0.8
			C173.8,846.1,173,846,172.2,846z"/>
		<path class="st1" d="M189.6,861.3h-5.2v-15h-4.7V842h14.6v4.3h-4.7V861.3z"/>
		<path class="st1" d="M214.4,861.3h-5.3v-10.2c0-1.2,0-2.4,0.1-3.4c-0.3,0.4-0.7,0.8-1.2,1.2l-2.2,1.8l-2.7-3.3l6.6-5.4h4.7V861.3z
			"/>
	</g>
</g>
<g>
	<g>
		<path class="st1" d="M636.4,881.3c2.7,0,4,1,4,3.1c0,0.9-0.3,1.6-0.8,2.2c-0.5,0.6-1.3,1-2.3,1.2v0.1c0.7,0.2,1.3,0.5,1.6,1
			c0.4,0.5,0.6,1.1,0.6,1.7c0,1.3-0.5,2.3-1.4,3.1c-0.9,0.7-2.2,1.1-3.8,1.1H630l2.9-13.6H636.4z M631.9,893.5h2.5
			c1.1,0,2-0.2,2.6-0.7c0.6-0.5,0.9-1.2,0.9-2.1c0-0.7-0.2-1.3-0.7-1.6c-0.5-0.4-1.1-0.6-2-0.6H633L631.9,893.5z M633.3,887.1h2.3
			c1,0,1.7-0.2,2.3-0.7c0.6-0.5,0.9-1.1,0.9-1.8c0-0.6-0.2-1.1-0.6-1.4s-1.1-0.5-1.9-0.5h-2L633.3,887.1z"/>
		<path class="st1" d="M645.2,895c-1.1,0-2-0.3-2.7-1c-0.6-0.7-1-1.6-1-2.8c0-1.2,0.2-2.3,0.7-3.3c0.5-1.1,1.1-1.9,1.8-2.5
			s1.6-0.9,2.5-0.9c0.9,0,1.7,0.2,2.1,0.6c0.5,0.4,0.7,1,0.7,1.7c0,1.1-0.5,2-1.5,2.6s-2.5,1-4.4,1h-0.3l0,0.7
			c0,0.8,0.2,1.4,0.6,1.9c0.4,0.5,1,0.7,1.8,0.7c0.4,0,0.8-0.1,1.2-0.2s0.9-0.3,1.5-0.6v1.4c-0.6,0.3-1.1,0.5-1.5,0.6
			C646.2,895,645.7,895,645.2,895z M646.5,885.8c-0.6,0-1.2,0.3-1.8,0.9c-0.6,0.6-1,1.4-1.3,2.4h0.1c1.4,0,2.5-0.2,3.2-0.6
			c0.8-0.4,1.1-0.9,1.1-1.6c0-0.3-0.1-0.6-0.3-0.8S646.9,885.8,646.5,885.8z"/>
		<path class="st1" d="M656.9,894.8h-1.6l2.2-10.2h1.6L656.9,894.8z M658,882.1c0-0.3,0.1-0.6,0.3-0.8s0.5-0.3,0.8-0.3
			c0.5,0,0.8,0.3,0.8,0.8c0,0.3-0.1,0.6-0.3,0.9s-0.4,0.4-0.7,0.4c-0.2,0-0.5-0.1-0.6-0.2C658.1,882.6,658,882.3,658,882.1z"/>
		<path class="st1" d="M666.4,894.8l1.4-6.4c0.1-0.6,0.2-1.1,0.2-1.3c0-0.4-0.1-0.7-0.3-0.9c-0.2-0.2-0.6-0.4-1.1-0.4
			c-0.6,0-1.1,0.2-1.6,0.6c-0.5,0.4-1,0.9-1.4,1.6c-0.4,0.7-0.7,1.5-0.9,2.5l-0.9,4.4h-1.6l2.2-10.2h1.3l-0.2,1.9h0.1
			c0.6-0.8,1.2-1.3,1.7-1.6s1.1-0.5,1.7-0.5c0.8,0,1.4,0.2,1.9,0.6c0.5,0.4,0.7,1,0.7,1.8c0,0.5-0.1,1-0.2,1.7l-1.3,6.2H666.4z"/>
		<path class="st1" d="M680.5,895c-0.6,0-1.1-0.2-1.6-0.5c-0.5-0.3-0.8-0.7-1-1.3h-0.1l0,0.4c0,0.2-0.1,0.4-0.1,0.6
			c0,0.3-0.4,2-1.1,5.1h-1.5l3.1-14.7h1.3l-0.2,1.9h0.1c1.1-1.4,2.3-2.1,3.5-2.1c0.8,0,1.5,0.3,2,0.9c0.5,0.6,0.7,1.4,0.7,2.5
			c0,1.3-0.2,2.5-0.6,3.6s-1,1.9-1.8,2.6C682.3,894.7,681.5,895,680.5,895z M682.2,885.8c-0.6,0-1.2,0.3-1.8,0.9s-1.1,1.3-1.5,2.2
			c-0.4,0.9-0.5,1.8-0.5,2.7c0,0.7,0.2,1.2,0.5,1.6c0.3,0.4,0.8,0.5,1.5,0.5c0.6,0,1.2-0.3,1.7-0.8c0.5-0.5,1-1.2,1.3-2.1
			c0.3-0.9,0.5-1.9,0.5-2.9C683.9,886.5,683.3,885.8,682.2,885.8z"/>
		<path class="st1" d="M692.4,884.5c0.6,0,1.1,0.2,1.5,0.5c0.4,0.3,0.8,0.7,1,1.3h0.1l0.6-1.6h1.2l-2.2,10.2h-1.2l0.2-1.9h-0.1
			c-1.1,1.4-2.3,2.1-3.5,2.1c-0.9,0-1.5-0.3-2-0.9c-0.5-0.6-0.7-1.5-0.7-2.5c0-1.3,0.2-2.5,0.7-3.6c0.4-1.1,1-2,1.8-2.6
			C690.6,884.8,691.4,884.5,692.4,884.5z M690.6,893.7c0.6,0,1.2-0.3,1.8-0.9s1.1-1.3,1.4-2.2c0.4-0.9,0.6-1.8,0.6-2.8
			c0-0.6-0.2-1.1-0.5-1.5s-0.8-0.6-1.4-0.6c-0.6,0-1.2,0.3-1.8,0.8c-0.6,0.5-1,1.3-1.3,2.2c-0.3,0.9-0.5,1.9-0.5,2.9
			c0,0.7,0.1,1.2,0.4,1.6C689.7,893.6,690.1,893.7,690.6,893.7z"/>
		<path class="st1" d="M700.8,893.7c0.3,0,0.8-0.1,1.3-0.2v1.2c-0.2,0.1-0.5,0.2-0.8,0.2c-0.3,0.1-0.6,0.1-0.7,0.1
			c-0.8,0-1.4-0.2-1.8-0.6c-0.4-0.4-0.6-0.9-0.6-1.6c0-0.4,0.1-0.9,0.2-1.4l1.2-5.6H698l0.1-0.7l1.7-0.7l1.2-2.1h0.9l-0.5,2.3h2.5
			l-0.2,1.2h-2.5l-1.2,5.6c-0.1,0.5-0.2,0.9-0.2,1.2c0,0.3,0.1,0.6,0.3,0.8S700.5,893.7,700.8,893.7z"/>
		<path class="st1" d="M707.9,895c-1.1,0-2-0.3-2.7-1c-0.6-0.7-1-1.6-1-2.8c0-1.2,0.2-2.3,0.7-3.3c0.5-1.1,1.1-1.9,1.8-2.5
			s1.6-0.9,2.5-0.9c0.9,0,1.7,0.2,2.1,0.6c0.5,0.4,0.7,1,0.7,1.7c0,1.1-0.5,2-1.5,2.6s-2.5,1-4.4,1h-0.3l0,0.7
			c0,0.8,0.2,1.4,0.6,1.9c0.4,0.5,1,0.7,1.8,0.7c0.4,0,0.8-0.1,1.2-0.2s0.9-0.3,1.5-0.6v1.4c-0.6,0.3-1.1,0.5-1.5,0.6
			C708.9,895,708.4,895,707.9,895z M709.2,885.8c-0.6,0-1.2,0.3-1.8,0.9c-0.6,0.6-1,1.4-1.3,2.4h0.1c1.4,0,2.5-0.2,3.2-0.6
			c0.8-0.4,1.1-0.9,1.1-1.6c0-0.3-0.1-0.6-0.3-0.8S709.7,885.8,709.2,885.8z"/>
		<path class="st1" d="M719.5,894.8l1.4-6.4c0.1-0.6,0.2-1.1,0.2-1.3c0-0.4-0.1-0.7-0.3-0.9c-0.2-0.2-0.6-0.4-1.1-0.4
			c-0.6,0-1.1,0.2-1.6,0.6c-0.5,0.4-1,0.9-1.4,1.6c-0.4,0.7-0.7,1.5-0.9,2.5l-0.9,4.4h-1.6l2.2-10.2h1.3l-0.2,1.9h0.1
			c0.6-0.8,1.2-1.3,1.7-1.6s1.1-0.5,1.7-0.5c0.8,0,1.4,0.2,1.9,0.6c0.5,0.4,0.7,1,0.7,1.8c0,0.5-0.1,1-0.2,1.7l-1.3,6.2H719.5z"/>
		<path class="st1" d="M727.3,893.7c0.3,0,0.8-0.1,1.3-0.2v1.2c-0.2,0.1-0.5,0.2-0.8,0.2c-0.3,0.1-0.6,0.1-0.7,0.1
			c-0.8,0-1.4-0.2-1.8-0.6c-0.4-0.4-0.6-0.9-0.6-1.6c0-0.4,0.1-0.9,0.2-1.4l1.2-5.6h-1.6l0.1-0.7l1.7-0.7l1.2-2.1h0.9l-0.5,2.3h2.5
			l-0.2,1.2h-2.5l-1.2,5.6c-0.1,0.5-0.2,0.9-0.2,1.2c0,0.3,0.1,0.6,0.3,0.8S727,893.7,727.3,893.7z"/>
		<path class="st1" d="M739.7,895c-0.6,0-1.1-0.2-1.6-0.5c-0.5-0.3-0.8-0.7-1-1.3H737l0,0.4c0,0.2-0.1,0.4-0.1,0.6
			c0,0.3-0.4,2-1.1,5.1h-1.5l3.1-14.7h1.3l-0.2,1.9h0.1c1.1-1.4,2.3-2.1,3.5-2.1c0.8,0,1.5,0.3,2,0.9c0.5,0.6,0.7,1.4,0.7,2.5
			c0,1.3-0.2,2.5-0.6,3.6s-1,1.9-1.8,2.6C741.5,894.7,740.7,895,739.7,895z M741.5,885.8c-0.6,0-1.2,0.3-1.8,0.9s-1.1,1.3-1.5,2.2
			c-0.4,0.9-0.5,1.8-0.5,2.7c0,0.7,0.2,1.2,0.5,1.6c0.3,0.4,0.8,0.5,1.5,0.5c0.6,0,1.2-0.3,1.7-0.8c0.5-0.5,1-1.2,1.3-2.1
			c0.3-0.9,0.5-1.9,0.5-2.9C743.1,886.5,742.6,885.8,741.5,885.8z"/>
		<path class="st1" d="M750.2,895c-1.1,0-2-0.3-2.7-1c-0.6-0.7-1-1.6-1-2.8c0-1.2,0.2-2.3,0.7-3.3c0.5-1.1,1.1-1.9,1.8-2.5
			s1.6-0.9,2.5-0.9c0.9,0,1.7,0.2,2.1,0.6c0.5,0.4,0.7,1,0.7,1.7c0,1.1-0.5,2-1.5,2.6s-2.5,1-4.4,1h-0.3l0,0.7
			c0,0.8,0.2,1.4,0.6,1.9c0.4,0.5,1,0.7,1.8,0.7c0.4,0,0.8-0.1,1.2-0.2s0.9-0.3,1.5-0.6v1.4c-0.6,0.3-1.1,0.5-1.5,0.6
			C751.2,895,750.7,895,750.2,895z M751.5,885.8c-0.6,0-1.2,0.3-1.8,0.9c-0.6,0.6-1,1.4-1.3,2.4h0.1c1.4,0,2.5-0.2,3.2-0.6
			c0.8-0.4,1.1-0.9,1.1-1.6c0-0.3-0.1-0.6-0.3-0.8S752,885.8,751.5,885.8z"/>
		<path class="st1" d="M761.8,894.8l1.4-6.4c0.1-0.6,0.2-1.1,0.2-1.3c0-0.4-0.1-0.7-0.3-0.9c-0.2-0.2-0.6-0.4-1.1-0.4
			c-0.6,0-1.1,0.2-1.6,0.6c-0.5,0.4-1,0.9-1.4,1.6c-0.4,0.7-0.7,1.5-0.9,2.5l-0.9,4.4h-1.6l2.2-10.2h1.3l-0.2,1.9h0.1
			c0.6-0.8,1.2-1.3,1.7-1.6s1.1-0.5,1.7-0.5c0.8,0,1.4,0.2,1.9,0.6c0.5,0.4,0.7,1,0.7,1.8c0,0.5-0.1,1-0.2,1.7l-1.3,6.2H761.8z"/>
		<path class="st1" d="M771.9,884.5c1.2,0,2.1,0.6,2.6,1.8h0.1c0.1-1,0.2-1.8,0.4-2.5l0.7-3.3h1.5l-3.1,14.4h-1.3l0.2-1.9h-0.1
			c-0.6,0.8-1.2,1.3-1.8,1.6c-0.5,0.3-1.1,0.5-1.7,0.5c-0.9,0-1.5-0.3-2-0.9s-0.7-1.4-0.7-2.5c0-1.3,0.2-2.5,0.7-3.6s1-2,1.8-2.6
			C770.1,884.8,771,884.5,771.9,884.5z M770.1,893.7c0.6,0,1.2-0.3,1.8-0.9c0.6-0.6,1.1-1.3,1.5-2.2c0.4-0.9,0.5-1.8,0.5-2.8
			c0-0.7-0.2-1.2-0.5-1.6c-0.3-0.4-0.8-0.5-1.5-0.5c-0.6,0-1.2,0.3-1.7,0.8c-0.5,0.5-1,1.2-1.3,2.2c-0.3,0.9-0.5,1.9-0.5,2.9
			C768.5,893,769,893.7,770.1,893.7z"/>
		<path class="st1" d="M779.1,894.8h-1.6l2.2-10.2h1.6L779.1,894.8z M780.1,882.1c0-0.3,0.1-0.6,0.3-0.8s0.5-0.3,0.8-0.3
			c0.5,0,0.8,0.3,0.8,0.8c0,0.3-0.1,0.6-0.3,0.9s-0.4,0.4-0.7,0.4c-0.2,0-0.5-0.1-0.6-0.2C780.2,882.6,780.1,882.3,780.1,882.1z"/>
		<path class="st1" d="M788.5,894.8l1.4-6.4c0.1-0.6,0.2-1.1,0.2-1.3c0-0.4-0.1-0.7-0.3-0.9c-0.2-0.2-0.6-0.4-1.1-0.4
			c-0.6,0-1.1,0.2-1.6,0.6c-0.5,0.4-1,0.9-1.4,1.6c-0.4,0.7-0.7,1.5-0.9,2.5l-0.9,4.4h-1.6l2.2-10.2h1.3l-0.2,1.9h0.1
			c0.6-0.8,1.2-1.3,1.7-1.6s1.1-0.5,1.7-0.5c0.8,0,1.4,0.2,1.9,0.6c0.5,0.4,0.7,1,0.7,1.8c0,0.5-0.1,1-0.2,1.7l-1.3,6.2H788.5z"/>
		<path class="st1" d="M802.9,884.7l-0.2,1l-2,0.2c0.3,0.4,0.4,0.9,0.4,1.5c0,1.2-0.4,2.1-1.1,2.8c-0.7,0.7-1.7,1.1-2.9,1.1
			c-0.3,0-0.6,0-0.8-0.1c-0.9,0.3-1.3,0.7-1.3,1.2c0,0.3,0.1,0.4,0.3,0.5c0.2,0.1,0.5,0.1,0.9,0.2l1.1,0.1c1.1,0.1,1.9,0.4,2.4,0.8
			c0.5,0.4,0.8,1,0.8,1.8c0,1.1-0.5,2-1.4,2.6c-0.9,0.6-2.2,0.9-3.8,0.9c-1.2,0-2.1-0.2-2.8-0.7c-0.7-0.5-1-1.1-1-1.9
			c0-0.6,0.2-1.2,0.7-1.7c0.4-0.5,1.2-0.9,2.2-1.2c-0.5-0.3-0.7-0.6-0.7-1.1c0-0.4,0.2-0.8,0.5-1.1c0.3-0.3,0.8-0.6,1.3-0.9
			c-0.4-0.2-0.7-0.5-1-0.9c-0.2-0.4-0.4-0.8-0.4-1.3c0-1.2,0.4-2.2,1.1-3s1.7-1.2,2.8-1.2c0.5,0,1,0.1,1.4,0.2H802.9z M793.1,896.6
			c0,0.5,0.2,0.9,0.6,1.1c0.4,0.3,1,0.4,1.8,0.4c1.1,0,2-0.2,2.6-0.6c0.6-0.4,1-0.9,1-1.7c0-0.4-0.2-0.7-0.5-0.9s-0.9-0.4-1.7-0.5
			l-1.5-0.1c-0.7,0.2-1.3,0.4-1.7,0.8C793.3,895.6,793.1,896.1,793.1,896.6z M795.6,888.5c0,0.5,0.1,0.9,0.4,1.2
			c0.3,0.3,0.7,0.4,1.2,0.4c0.5,0,0.9-0.1,1.3-0.4c0.4-0.3,0.6-0.6,0.8-1.1c0.2-0.5,0.3-0.9,0.3-1.5c0-0.5-0.1-0.9-0.4-1.2
			c-0.3-0.3-0.7-0.4-1.2-0.4c-0.5,0-0.9,0.1-1.3,0.4c-0.4,0.3-0.6,0.6-0.8,1S795.6,888,795.6,888.5z"/>
		<path class="st1" d="M813.9,891.9c0,1-0.3,1.7-1,2.3c-0.7,0.5-1.6,0.8-2.9,0.8c-1,0-2-0.2-2.8-0.6v-1.5c0.4,0.3,0.9,0.5,1.4,0.6
			c0.5,0.1,1,0.2,1.4,0.2c0.8,0,1.4-0.2,1.8-0.5c0.4-0.3,0.6-0.7,0.6-1.2c0-0.4-0.1-0.6-0.3-0.9c-0.2-0.2-0.7-0.6-1.4-1
			c-0.8-0.5-1.4-0.9-1.7-1.3c-0.3-0.4-0.5-0.9-0.5-1.5c0-0.9,0.3-1.5,0.9-2.1s1.4-0.8,2.5-0.8c1.1,0,2.1,0.2,3.1,0.7l-0.5,1.3
			l-0.5-0.2c-0.6-0.3-1.3-0.4-2-0.4c-0.6,0-1,0.1-1.4,0.4c-0.3,0.3-0.5,0.6-0.5,1c0,0.3,0.1,0.6,0.3,0.9c0.2,0.2,0.7,0.6,1.4,1
			c0.7,0.4,1.1,0.7,1.4,1c0.3,0.3,0.5,0.6,0.6,0.9C813.9,891.2,813.9,891.6,813.9,891.9z"/>
		<path class="st1" d="M818.9,893.7c0.3,0,0.8-0.1,1.3-0.2v1.2c-0.2,0.1-0.5,0.2-0.8,0.2c-0.3,0.1-0.6,0.1-0.7,0.1
			c-0.8,0-1.4-0.2-1.8-0.6c-0.4-0.4-0.6-0.9-0.6-1.6c0-0.4,0.1-0.9,0.2-1.4l1.2-5.6h-1.6l0.1-0.7l1.7-0.7l1.2-2.1h0.9l-0.5,2.3h2.5
			l-0.2,1.2h-2.5l-1.2,5.6c-0.1,0.5-0.2,0.9-0.2,1.2c0,0.3,0.1,0.6,0.3,0.8S818.6,893.7,818.9,893.7z"/>
		<path class="st1" d="M827.3,884.5c0.6,0,1.1,0.2,1.5,0.5c0.4,0.3,0.8,0.7,1,1.3h0.1l0.6-1.6h1.2l-2.2,10.2h-1.2l0.2-1.9h-0.1
			c-1.1,1.4-2.3,2.1-3.5,2.1c-0.9,0-1.5-0.3-2-0.9c-0.5-0.6-0.7-1.5-0.7-2.5c0-1.3,0.2-2.5,0.7-3.6c0.4-1.1,1-2,1.8-2.6
			C825.6,884.8,826.4,884.5,827.3,884.5z M825.6,893.7c0.6,0,1.2-0.3,1.8-0.9s1.1-1.3,1.4-2.2c0.4-0.9,0.6-1.8,0.6-2.8
			c0-0.6-0.2-1.1-0.5-1.5s-0.8-0.6-1.4-0.6c-0.6,0-1.2,0.3-1.8,0.8c-0.6,0.5-1,1.3-1.3,2.2c-0.3,0.9-0.5,1.9-0.5,2.9
			c0,0.7,0.1,1.2,0.4,1.6C824.6,893.6,825.1,893.7,825.6,893.7z"/>
		<path class="st1" d="M835.8,893.7c0.3,0,0.8-0.1,1.3-0.2v1.2c-0.2,0.1-0.5,0.2-0.8,0.2c-0.3,0.1-0.6,0.1-0.7,0.1
			c-0.8,0-1.4-0.2-1.8-0.6c-0.4-0.4-0.6-0.9-0.6-1.6c0-0.4,0.1-0.9,0.2-1.4l1.2-5.6H833l0.1-0.7l1.7-0.7l1.2-2.1h0.9l-0.5,2.3h2.5
			l-0.2,1.2h-2.5l-1.2,5.6c-0.1,0.5-0.2,0.9-0.2,1.2c0,0.3,0.1,0.6,0.3,0.8S835.5,893.7,835.8,893.7z"/>
		<path class="st1" d="M842.5,884.7l-1.4,6.4c-0.1,0.6-0.2,1-0.2,1.3c0,0.9,0.5,1.3,1.4,1.3c0.5,0,1.1-0.2,1.6-0.6
			c0.5-0.4,1-0.9,1.4-1.6c0.4-0.7,0.7-1.5,0.9-2.5l0.9-4.4h1.5l-2.1,10.2h-1.3l0.2-1.9h-0.1c-0.6,0.8-1.2,1.3-1.7,1.6
			c-0.5,0.3-1.1,0.5-1.7,0.5c-0.8,0-1.4-0.2-1.9-0.6s-0.7-1-0.7-1.8c0-0.4,0.1-0.9,0.2-1.6l1.4-6.3H842.5z"/>
		<path class="st1" d="M856.1,891.9c0,1-0.3,1.7-1,2.3c-0.7,0.5-1.6,0.8-2.9,0.8c-1,0-2-0.2-2.8-0.6v-1.5c0.4,0.3,0.9,0.5,1.4,0.6
			c0.5,0.1,1,0.2,1.4,0.2c0.8,0,1.4-0.2,1.8-0.5c0.4-0.3,0.6-0.7,0.6-1.2c0-0.4-0.1-0.6-0.3-0.9c-0.2-0.2-0.7-0.6-1.4-1
			c-0.8-0.5-1.4-0.9-1.7-1.3c-0.3-0.4-0.5-0.9-0.5-1.5c0-0.9,0.3-1.5,0.9-2.1s1.4-0.8,2.5-0.8c1.1,0,2.1,0.2,3.1,0.7l-0.5,1.3
			l-0.5-0.2c-0.6-0.3-1.3-0.4-2-0.4c-0.6,0-1,0.1-1.4,0.4c-0.3,0.3-0.5,0.6-0.5,1c0,0.3,0.1,0.6,0.3,0.9c0.2,0.2,0.7,0.6,1.4,1
			c0.7,0.4,1.1,0.7,1.4,1c0.3,0.3,0.5,0.6,0.6,0.9C856,891.2,856.1,891.6,856.1,891.9z"/>
		<path class="st1" d="M866.8,895c-1.1,0-2-0.3-2.7-1c-0.6-0.7-1-1.6-1-2.8c0-1.2,0.2-2.3,0.7-3.3c0.5-1.1,1.1-1.9,1.8-2.5
			s1.6-0.9,2.5-0.9c0.9,0,1.7,0.2,2.1,0.6c0.5,0.4,0.7,1,0.7,1.7c0,1.1-0.5,2-1.5,2.6s-2.5,1-4.4,1h-0.3l0,0.7
			c0,0.8,0.2,1.4,0.6,1.9c0.4,0.5,1,0.7,1.8,0.7c0.4,0,0.8-0.1,1.2-0.2s0.9-0.3,1.5-0.6v1.4c-0.6,0.3-1.1,0.5-1.5,0.6
			C867.9,895,867.4,895,866.8,895z M868.1,885.8c-0.6,0-1.2,0.3-1.8,0.9c-0.6,0.6-1,1.4-1.3,2.4h0.1c1.4,0,2.5-0.2,3.2-0.6
			c0.8-0.4,1.1-0.9,1.1-1.6c0-0.3-0.1-0.6-0.3-0.8S868.6,885.8,868.1,885.8z"/>
		<path class="st1" d="M878.4,894.8l1.4-6.4c0.1-0.6,0.2-1.1,0.2-1.3c0-0.4-0.1-0.7-0.3-0.9c-0.2-0.2-0.6-0.4-1.1-0.4
			c-0.6,0-1.1,0.2-1.6,0.6c-0.5,0.4-1,0.9-1.4,1.6c-0.4,0.7-0.7,1.5-0.9,2.5l-0.9,4.4h-1.6l2.2-10.2h1.3l-0.2,1.9h0.1
			c0.6-0.8,1.2-1.3,1.7-1.6s1.1-0.5,1.7-0.5c0.8,0,1.4,0.2,1.9,0.6c0.5,0.4,0.7,1,0.7,1.8c0,0.5-0.1,1-0.2,1.7l-1.3,6.2H878.4z"/>
		<path class="st1" d="M886.3,893.7c0.3,0,0.8-0.1,1.3-0.2v1.2c-0.2,0.1-0.5,0.2-0.8,0.2c-0.3,0.1-0.6,0.1-0.7,0.1
			c-0.8,0-1.4-0.2-1.8-0.6c-0.4-0.4-0.6-0.9-0.6-1.6c0-0.4,0.1-0.9,0.2-1.4l1.2-5.6h-1.6l0.1-0.7l1.7-0.7l1.2-2.1h0.9l-0.5,2.3h2.5
			l-0.2,1.2h-2.5l-1.2,5.6c-0.1,0.5-0.2,0.9-0.2,1.2c0,0.3,0.1,0.6,0.3,0.8S885.9,893.7,886.3,893.7z"/>
		<path class="st1" d="M893.3,895c-1.1,0-2-0.3-2.7-1c-0.6-0.7-1-1.6-1-2.8c0-1.2,0.2-2.3,0.7-3.3c0.5-1.1,1.1-1.9,1.8-2.5
			s1.6-0.9,2.5-0.9c0.9,0,1.7,0.2,2.1,0.6c0.5,0.4,0.7,1,0.7,1.7c0,1.1-0.5,2-1.5,2.6s-2.5,1-4.4,1h-0.3l0,0.7
			c0,0.8,0.2,1.4,0.6,1.9c0.4,0.5,1,0.7,1.8,0.7c0.4,0,0.8-0.1,1.2-0.2s0.9-0.3,1.5-0.6v1.4c-0.6,0.3-1.1,0.5-1.5,0.6
			C894.4,895,893.9,895,893.3,895z M894.6,885.8c-0.6,0-1.2,0.3-1.8,0.9c-0.6,0.6-1,1.4-1.3,2.4h0.1c1.4,0,2.5-0.2,3.2-0.6
			c0.8-0.4,1.1-0.9,1.1-1.6c0-0.3-0.1-0.6-0.3-0.8S895.1,885.8,894.6,885.8z"/>
		<path class="st1" d="M905.1,884.5c0.4,0,0.8,0,1.1,0.1l-0.3,1.4c-0.3-0.1-0.7-0.1-1-0.1c-0.6,0-1.1,0.2-1.6,0.6
			c-0.5,0.4-0.9,0.9-1.3,1.5c-0.4,0.7-0.6,1.4-0.8,2.2l-1,4.7h-1.6l2.2-10.2h1.3l-0.2,1.9h0.1c0.4-0.6,0.8-1,1.1-1.3
			c0.3-0.3,0.6-0.5,0.9-0.6C904.4,884.5,904.7,884.5,905.1,884.5z"/>
		<path class="st1" d="M907.8,894.8h-1.6l2.2-10.2h1.6L907.8,894.8z M908.8,882.1c0-0.3,0.1-0.6,0.3-0.8s0.5-0.3,0.8-0.3
			c0.5,0,0.8,0.3,0.8,0.8c0,0.3-0.1,0.6-0.3,0.9s-0.4,0.4-0.7,0.4c-0.2,0-0.5-0.1-0.6-0.2C908.9,882.6,908.8,882.3,908.8,882.1z"/>
		<path class="st1" d="M917.2,894.8l1.4-6.4c0.1-0.6,0.2-1.1,0.2-1.3c0-0.4-0.1-0.7-0.3-0.9c-0.2-0.2-0.6-0.4-1.1-0.4
			c-0.6,0-1.1,0.2-1.6,0.6c-0.5,0.4-1,0.9-1.4,1.6c-0.4,0.7-0.7,1.5-0.9,2.5l-0.9,4.4H911l2.2-10.2h1.3l-0.2,1.9h0.1
			c0.6-0.8,1.2-1.3,1.7-1.6s1.1-0.5,1.7-0.5c0.8,0,1.4,0.2,1.9,0.6c0.5,0.4,0.7,1,0.7,1.8c0,0.5-0.1,1-0.2,1.7l-1.3,6.2H917.2z"/>
		<path class="st1" d="M931.7,884.7l-0.2,1l-2,0.2c0.3,0.4,0.4,0.9,0.4,1.5c0,1.2-0.4,2.1-1.1,2.8c-0.7,0.7-1.7,1.1-2.9,1.1
			c-0.3,0-0.6,0-0.8-0.1c-0.9,0.3-1.3,0.7-1.3,1.2c0,0.3,0.1,0.4,0.3,0.5c0.2,0.1,0.5,0.1,0.9,0.2l1.1,0.1c1.1,0.1,1.9,0.4,2.4,0.8
			c0.5,0.4,0.8,1,0.8,1.8c0,1.1-0.5,2-1.4,2.6c-0.9,0.6-2.2,0.9-3.8,0.9c-1.2,0-2.1-0.2-2.8-0.7c-0.7-0.5-1-1.1-1-1.9
			c0-0.6,0.2-1.2,0.7-1.7c0.4-0.5,1.2-0.9,2.2-1.2c-0.5-0.3-0.7-0.6-0.7-1.1c0-0.4,0.2-0.8,0.5-1.1c0.3-0.3,0.8-0.6,1.3-0.9
			c-0.4-0.2-0.7-0.5-1-0.9c-0.2-0.4-0.4-0.8-0.4-1.3c0-1.2,0.4-2.2,1.1-3s1.7-1.2,2.8-1.2c0.5,0,1,0.1,1.4,0.2H931.7z M921.8,896.6
			c0,0.5,0.2,0.9,0.6,1.1c0.4,0.3,1,0.4,1.8,0.4c1.1,0,2-0.2,2.6-0.6c0.6-0.4,1-0.9,1-1.7c0-0.4-0.2-0.7-0.5-0.9s-0.9-0.4-1.7-0.5
			l-1.5-0.1c-0.7,0.2-1.3,0.4-1.7,0.8C922,895.6,921.8,896.1,921.8,896.6z M924.4,888.5c0,0.5,0.1,0.9,0.4,1.2
			c0.3,0.3,0.7,0.4,1.2,0.4c0.5,0,0.9-0.1,1.3-0.4c0.4-0.3,0.6-0.6,0.8-1.1c0.2-0.5,0.3-0.9,0.3-1.5c0-0.5-0.1-0.9-0.4-1.2
			c-0.3-0.3-0.7-0.4-1.2-0.4c-0.5,0-0.9,0.1-1.3,0.4c-0.4,0.3-0.6,0.6-0.8,1S924.4,888,924.4,888.5z"/>
	</g>
	<g>
		<path class="st1" d="M710.1,918h-1.6l2.2-10.2h1.6L710.1,918z M711.2,905.3c0-0.3,0.1-0.6,0.3-0.8s0.5-0.3,0.8-0.3
			c0.5,0,0.8,0.3,0.8,0.8c0,0.3-0.1,0.6-0.3,0.9s-0.4,0.4-0.7,0.4c-0.2,0-0.5-0.1-0.6-0.2C711.3,905.8,711.2,905.5,711.2,905.3z"/>
		<path class="st1" d="M719.6,918l1.4-6.4c0.1-0.6,0.2-1.1,0.2-1.3c0-0.4-0.1-0.7-0.3-0.9c-0.2-0.2-0.6-0.4-1.1-0.4
			c-0.6,0-1.1,0.2-1.6,0.6c-0.5,0.4-1,0.9-1.4,1.6c-0.4,0.7-0.7,1.5-0.9,2.5L715,918h-1.6l2.2-10.2h1.3l-0.2,1.9h0.1
			c0.6-0.8,1.2-1.3,1.7-1.6s1.1-0.5,1.7-0.5c0.8,0,1.4,0.2,1.9,0.6c0.5,0.4,0.7,1,0.7,1.8c0,0.5-0.1,1-0.2,1.7l-1.3,6.2H719.6z"/>
		<path class="st1" d="M727.5,916.9c0.3,0,0.8-0.1,1.3-0.2v1.2c-0.2,0.1-0.5,0.2-0.8,0.2c-0.3,0.1-0.6,0.1-0.7,0.1
			c-0.8,0-1.4-0.2-1.8-0.6c-0.4-0.4-0.6-0.9-0.6-1.6c0-0.4,0.1-0.9,0.2-1.4l1.2-5.6h-1.6l0.1-0.7l1.7-0.7l1.2-2.1h0.9l-0.5,2.3h2.5
			l-0.2,1.2h-2.5l-1.2,5.6c-0.1,0.5-0.2,0.9-0.2,1.2c0,0.3,0.1,0.6,0.3,0.8S727.2,916.9,727.5,916.9z"/>
		<path class="st1" d="M735.9,907.7c1.2,0,2.1,0.3,2.8,1c0.7,0.7,1,1.7,1,2.9c0,1.2-0.2,2.3-0.7,3.3c-0.4,1-1,1.8-1.8,2.4
			c-0.8,0.6-1.6,0.8-2.6,0.8c-1.2,0-2.1-0.3-2.8-1c-0.7-0.7-1-1.7-1-2.9c0-1.2,0.2-2.3,0.7-3.3c0.5-1,1.1-1.8,1.8-2.4
			C734.2,908,735,907.7,735.9,907.7z M738.1,911.4c0-0.7-0.2-1.3-0.6-1.7c-0.4-0.4-0.9-0.7-1.6-0.7c-0.7,0-1.3,0.2-1.8,0.7
			c-0.5,0.5-0.9,1.1-1.2,1.9s-0.4,1.7-0.4,2.7c0,0.8,0.2,1.4,0.6,1.9c0.4,0.4,1,0.7,1.7,0.7c0.6,0,1.2-0.2,1.7-0.7
			c0.5-0.5,0.9-1.1,1.2-1.9C738,913.5,738.1,912.5,738.1,911.4z"/>
		<path class="st1" d="M749.2,916.9c0.3,0,0.8-0.1,1.3-0.2v1.2c-0.2,0.1-0.5,0.2-0.8,0.2c-0.3,0.1-0.6,0.1-0.7,0.1
			c-0.8,0-1.4-0.2-1.8-0.6c-0.4-0.4-0.6-0.9-0.6-1.6c0-0.4,0.1-0.9,0.2-1.4l1.2-5.6h-1.6l0.1-0.7l1.7-0.7l1.2-2.1h0.9l-0.5,2.3h2.5
			l-0.2,1.2h-2.5l-1.2,5.6c-0.1,0.5-0.2,0.9-0.2,1.2c0,0.3,0.1,0.6,0.3,0.8S748.9,916.9,749.2,916.9z"/>
		<path class="st1" d="M758.5,918l1.4-6.4c0.1-0.6,0.2-1,0.2-1.3c0-0.9-0.5-1.4-1.4-1.4c-0.6,0-1.1,0.2-1.6,0.5
			c-0.5,0.4-1,0.9-1.4,1.6c-0.4,0.7-0.7,1.5-0.9,2.5l-0.9,4.4h-1.6l3.1-14.4h1.6c-0.1,0.5-0.2,1-0.3,1.5c-0.1,0.5-0.2,1-0.3,1.5
			c-0.1,0.5-0.2,1-0.4,1.5c-0.1,0.5-0.3,1.1-0.4,1.8h0.1c0.6-0.8,1.2-1.3,1.7-1.6c0.6-0.3,1.2-0.5,1.8-0.5c0.8,0,1.4,0.2,1.9,0.7
			s0.7,1.1,0.7,1.9c0,0.4-0.1,0.9-0.2,1.5c-0.2,1.2-0.7,3.3-1.3,6.2H758.5z"/>
		<path class="st1" d="M767.3,918.2c-1.1,0-2-0.3-2.7-1c-0.6-0.7-1-1.6-1-2.8c0-1.2,0.2-2.3,0.7-3.3c0.5-1.1,1.1-1.9,1.8-2.5
			s1.6-0.9,2.5-0.9c0.9,0,1.7,0.2,2.1,0.6c0.5,0.4,0.7,1,0.7,1.7c0,1.1-0.5,2-1.5,2.6s-2.5,1-4.4,1h-0.3l0,0.7
			c0,0.8,0.2,1.4,0.6,1.9c0.4,0.5,1,0.7,1.8,0.7c0.4,0,0.8-0.1,1.2-0.2s0.9-0.3,1.5-0.6v1.4c-0.6,0.3-1.1,0.5-1.5,0.6
			C768.3,918.2,767.8,918.2,767.3,918.2z M768.6,909c-0.6,0-1.2,0.3-1.8,0.9c-0.6,0.6-1,1.4-1.3,2.4h0.1c1.4,0,2.5-0.2,3.2-0.6
			c0.8-0.4,1.1-0.9,1.1-1.6c0-0.3-0.1-0.6-0.3-0.8S769,909,768.6,909z"/>
		<path class="st1" d="M783.8,918l1.4-6.4c0.1-0.6,0.2-1.1,0.2-1.3c0-0.4-0.1-0.7-0.3-0.9c-0.2-0.2-0.6-0.4-1.1-0.4
			c-0.6,0-1.1,0.2-1.6,0.6c-0.5,0.4-1,0.9-1.4,1.6c-0.4,0.7-0.7,1.5-0.9,2.5l-0.9,4.4h-1.6l2.2-10.2h1.3l-0.2,1.9h0.1
			c0.6-0.8,1.2-1.3,1.7-1.6s1.1-0.5,1.7-0.5c0.8,0,1.4,0.2,1.9,0.6c0.5,0.4,0.7,1,0.7,1.8c0,0.5-0.1,1-0.2,1.7l-1.3,6.2H783.8z"/>
		<path class="st1" d="M792.5,918.2c-1.1,0-2-0.3-2.7-1c-0.6-0.7-1-1.6-1-2.8c0-1.2,0.2-2.3,0.7-3.3c0.5-1.1,1.1-1.9,1.8-2.5
			s1.6-0.9,2.5-0.9c0.9,0,1.7,0.2,2.1,0.6c0.5,0.4,0.7,1,0.7,1.7c0,1.1-0.5,2-1.5,2.6s-2.5,1-4.4,1h-0.3l0,0.7
			c0,0.8,0.2,1.4,0.6,1.9c0.4,0.5,1,0.7,1.8,0.7c0.4,0,0.8-0.1,1.2-0.2s0.9-0.3,1.5-0.6v1.4c-0.6,0.3-1.1,0.5-1.5,0.6
			C793.6,918.2,793.1,918.2,792.5,918.2z M793.8,909c-0.6,0-1.2,0.3-1.8,0.9c-0.6,0.6-1,1.4-1.3,2.4h0.1c1.4,0,2.5-0.2,3.2-0.6
			c0.8-0.4,1.1-0.9,1.1-1.6c0-0.3-0.1-0.6-0.3-0.8S794.3,909,793.8,909z"/>
		<path class="st1" d="M805.1,918l-0.3-5.6c0-0.6,0-1.1,0-1.6v-1.4h-0.1l-0.5,1.1l-0.8,1.8l-2.7,5.8h-1.9l-0.4-10.2h1.5l0.2,5.5v0.8
			c0,0.9,0,1.7-0.1,2.5h0.1c0.3-0.8,0.7-1.8,1.3-3l2.7-5.8h1.7l0.3,5.5c0,1,0.1,1.8,0.1,2.4v0.5l0,0.4h0.1c0.2-0.5,0.4-1.2,0.8-2
			c0.3-0.8,1.3-3.1,3-6.8h1.7L807,918H805.1z"/>
		<path class="st1" d="M816.8,907.9h1.6l0.7,5.1c0.1,0.4,0.1,1.1,0.2,1.9s0.1,1.5,0.1,2h0.1c0.2-0.5,0.5-1.2,0.8-1.9
			c0.3-0.7,0.6-1.2,0.7-1.4l3-5.7h1.7l-6.5,11.9c-0.6,1.1-1.1,1.8-1.7,2.2c-0.6,0.4-1.2,0.6-2,0.6c-0.4,0-0.9-0.1-1.3-0.2v-1.3
			c0.4,0.1,0.8,0.2,1.2,0.2c0.5,0,0.9-0.2,1.3-0.5c0.4-0.3,0.7-0.8,1.1-1.4l0.7-1.3L816.8,907.9z"/>
		<path class="st1" d="M829.2,918.2c-1.1,0-2-0.3-2.7-1c-0.6-0.7-1-1.6-1-2.8c0-1.2,0.2-2.3,0.7-3.3c0.5-1.1,1.1-1.9,1.8-2.5
			s1.6-0.9,2.5-0.9c0.9,0,1.7,0.2,2.1,0.6c0.5,0.4,0.7,1,0.7,1.7c0,1.1-0.5,2-1.5,2.6s-2.5,1-4.4,1h-0.3l0,0.7
			c0,0.8,0.2,1.4,0.6,1.9c0.4,0.5,1,0.7,1.8,0.7c0.4,0,0.8-0.1,1.2-0.2s0.9-0.3,1.5-0.6v1.4c-0.6,0.3-1.1,0.5-1.5,0.6
			C830.3,918.2,829.8,918.2,829.2,918.2z M830.5,909c-0.6,0-1.2,0.3-1.8,0.9c-0.6,0.6-1,1.4-1.3,2.4h0.1c1.4,0,2.5-0.2,3.2-0.6
			c0.8-0.4,1.1-0.9,1.1-1.6c0-0.3-0.1-0.6-0.3-0.8S831,909,830.5,909z"/>
		<path class="st1" d="M840,907.7c0.6,0,1.1,0.2,1.5,0.5c0.4,0.3,0.8,0.7,1,1.3h0.1l0.6-1.6h1.2l-2.2,10.2H841l0.2-1.9h-0.1
			c-1.1,1.4-2.3,2.1-3.5,2.1c-0.9,0-1.5-0.3-2-0.9c-0.5-0.6-0.7-1.5-0.7-2.5c0-1.3,0.2-2.5,0.7-3.6c0.4-1.1,1-2,1.8-2.6
			C838.2,908,839.1,907.7,840,907.7z M838.2,916.9c0.6,0,1.2-0.3,1.8-0.9s1.1-1.3,1.4-2.2c0.4-0.9,0.6-1.8,0.6-2.8
			c0-0.6-0.2-1.1-0.5-1.5s-0.8-0.6-1.4-0.6c-0.6,0-1.2,0.3-1.8,0.8c-0.6,0.5-1,1.3-1.3,2.2c-0.3,0.9-0.5,1.9-0.5,2.9
			c0,0.7,0.1,1.2,0.4,1.6C837.3,916.8,837.7,916.9,838.2,916.9z"/>
		<path class="st1" d="M851.8,907.7c0.4,0,0.8,0,1.1,0.1l-0.3,1.4c-0.3-0.1-0.7-0.1-1-0.1c-0.6,0-1.1,0.2-1.6,0.6
			c-0.5,0.4-0.9,0.9-1.3,1.5c-0.4,0.7-0.6,1.4-0.8,2.2l-1,4.7h-1.6l2.2-10.2h1.3l-0.2,1.9h0.1c0.4-0.6,0.8-1,1.1-1.3
			c0.3-0.3,0.6-0.5,0.9-0.6C851,907.7,851.4,907.7,851.8,907.7z"/>
		<path class="st1" d="M852.7,917.3c0-0.5,0.1-0.9,0.4-1.1c0.3-0.3,0.6-0.4,1-0.4c0.3,0,0.5,0.1,0.6,0.2c0.2,0.2,0.2,0.4,0.2,0.7
			c0,0.4-0.1,0.8-0.4,1.1c-0.2,0.3-0.6,0.4-1,0.4c-0.3,0-0.5-0.1-0.7-0.2C852.8,917.9,852.7,917.7,852.7,917.3z"/>
	</g>
	<g>
		<path class="st1" d="M761.3,851.6c0,4.4-1.4,7.3-4.2,8.8l4.7,5.4h-6.5l-3.4-4.3l0,0v0l0,0c-3,0-5.3-0.8-7-2.5
			c-1.6-1.7-2.4-4.2-2.4-7.4c0-3.2,0.8-5.7,2.4-7.4c1.6-1.7,3.9-2.5,7-2.5c3.1,0,5.4,0.8,7,2.5S761.3,848.4,761.3,851.6z
			 M748.1,851.6c0,3.7,1.3,5.6,3.9,5.6c1.3,0,2.3-0.5,2.9-1.4c0.6-0.9,1-2.3,1-4.2c0-1.9-0.3-3.3-1-4.3c-0.6-0.9-1.6-1.4-2.9-1.4
			C749.4,846,748.1,847.9,748.1,851.6z"/>
		<path class="st1" d="M775.1,861.3h-5.3v-10.2c0-1.2,0-2.4,0.1-3.4c-0.3,0.4-0.7,0.8-1.2,1.2l-2.2,1.8l-2.7-3.3l6.6-5.4h4.7V861.3z
			"/>
		<path class="st1" d="M786,849.7l-0.2-0.3c0.9-3.4,1.7-5.9,2.3-7.4h3.7c-0.6,2.7-1,5.3-1.3,7.7H786z"/>
		<path class="st1" d="M804.7,861.3h-5.3v-10.2c0-1.2,0-2.4,0.1-3.4c-0.3,0.4-0.7,0.8-1.2,1.2l-2.2,1.8l-2.7-3.3l6.6-5.4h4.7V861.3z
			"/>
		<path class="st1" d="M809,853.1c0-2.7,0.4-4.9,1.2-6.5c0.8-1.7,1.9-2.9,3.4-3.7c1.5-0.8,3.3-1.2,5.5-1.2c0.8,0,1.7,0.1,2.7,0.2
			v4.1c-0.9-0.2-1.8-0.2-2.9-0.2c-1.7,0-3,0.4-3.9,1.1c-0.9,0.8-1.3,2-1.4,3.7h0.2c0.8-1.5,2.1-2.2,3.8-2.2c1.7,0,3,0.6,4,1.7
			c0.9,1.1,1.4,2.6,1.4,4.6c0,2.1-0.6,3.8-1.8,5c-1.2,1.2-2.9,1.8-5,1.8c-2.3,0-4.1-0.7-5.3-2.2S809,855.8,809,853.1z M816.2,857.4
			c0.6,0,1-0.2,1.4-0.6c0.3-0.4,0.5-1.1,0.5-2c0-1.6-0.6-2.3-1.8-2.3c-0.6,0-1.1,0.2-1.5,0.6c-0.4,0.4-0.6,0.9-0.6,1.5
			c0,0.8,0.2,1.5,0.5,2.1C815.1,857.2,815.6,857.4,816.2,857.4z"/>
	</g>
</g>
<line class="st5" x1="184.6" y1="809.5" x2="781.6" y2="809.5"/>
<g>
	<path class="st6" d="M184.6,824.5c8.3,0,15-6.7,15-15s-6.7-15-15-15s-15,6.7-15,15S176.3,824.5,184.6,824.5"/>
	<path class="st7" d="M384.6,824.5c8.3,0,15-6.7,15-15s-6.7-15-15-15c-8.3,0-15,6.7-15,15S376.3,824.5,384.6,824.5"/>
	<path class="st6" d="M585.3,824.5c8.3,0,15-6.7,15-15s-6.7-15-15-15s-15,6.7-15,15S577,824.5,585.3,824.5"/>
	<path class="st7" d="M781.6,824.5c8.3,0,15-6.7,15-15s-6.7-15-15-15c-8.3,0-15,6.7-15,15S773.3,824.5,781.6,824.5"/>
</g>
</svg>
