<?xml version="1.0" encoding="utf-8"?>
<!-- Generator: Adobe Illustrator 19.1.0, SVG Export Plug-In . SVG Version: 6.00 Build 0)  -->
<!DOCTYPE svg PUBLIC "-//W3C//DTD SVG 1.1//EN" "http://www.w3.org/Graphics/SVG/1.1/DTD/svg11.dtd">
<svg version="1.1" id="Layer_1" xmlns="http://www.w3.org/2000/svg" xmlns:xlink="http://www.w3.org/1999/xlink" x="0px" y="0px"
	 viewBox="0 0 1000 600" style="enable-background:new 0 0 1000 600;" xml:space="preserve">
<style type="text/css">
	.st0{fill:#FFFFFF;}
</style>
<g>
	<path class="st0" d="M388.2,74c-6-0.9-12-1.5-18.3-1.5c-68.7,0-124.3,55.6-124.3,124.3c0,68.7,55.6,124.3,124.3,124.3
		c35.2,0,66.8-14.7,89.5-38.1c21.5-22.4,34.8-52.7,34.8-86.2C494.2,134.3,448.2,82.8,388.2,74z M378.2,253.4v18.9h-18.1v-17.6
		c-12.4-0.6-24.4-3.9-31.5-8l5.6-21.7c7.8,4.3,18.7,8.1,30.7,8.1c10.6,0,17.8-4.1,17.8-11.5c0-7-5.9-11.5-19.6-16.1
		c-19.8-6.7-33.3-15.9-33.3-33.9c0-16.3,11.5-29,31.3-32.9v-17.6h18.1v16.3c12.4,0.6,20.7,3.1,26.8,6.1l-5.4,20.9
		c-4.8-2-13.3-6.3-26.6-6.3c-12,0-15.9,5.2-15.9,10.4c0,6.1,6.5,10,22.2,15.9c22,7.8,30.9,17.9,30.9,34.6
		C411.2,235.6,399.5,249.7,378.2,253.4z"/>
	<path class="st0" d="M386.3,410.8c-2.3,21.1,12.9,40.2,34.1,42.5c39.8,4.4,65.7,46.6,80,75.8c7.5,15.3,23.1,25.1,40.2,25.1h170
		c24.7,0,44.8-20.1,44.8-44.8v-67.6c0-43.2-31.6-79.8-74.3-86.2l-75.9-11.3c-5.2-0.8-9-5.2-9-10.5V214.7c0-21.3-17.2-38.5-38.5-38.5
		c-21.3,0-38.5,17.2-38.5,38.5v184.1c0,2.8-1.6,5.4-4.1,6.8c-2.5,1.3-5.5,1.2-7.9-0.4c-21.2-14.1-47.1-25.1-78.5-28.5
		C407.3,374.3,388.6,389.6,386.3,410.8z"/>
	<g>
		<path class="st0" d="M521.7,122.9c-3.5,0-6.8-1.9-8.5-5.3c-2.3-4.7-0.3-10.3,4.4-12.6l41.7-20.3c4.7-2.3,10.3-0.3,12.6,4.3
			c2.3,4.7,0.3,10.3-4.3,12.6L525.8,122C524.5,122.6,523.1,122.9,521.7,122.9z"/>
	</g>
	<g>
		<path class="st0" d="M502.4,108c-1,0-2.1-0.2-3.1-0.5c-4.9-1.7-7.5-7.1-5.8-12l15.1-43.8c1.7-4.9,7.1-7.5,12-5.8
			c4.9,1.7,7.5,7.1,5.8,12l-15.1,43.8C510,105.6,506.3,108,502.4,108z"/>
	</g>
	<g>
		<path class="st0" d="M574.2,161.2c-1,0-2.1-0.2-3.1-0.5l-43.8-15.1c-4.9-1.7-7.5-7.1-5.8-12c1.7-4.9,7.1-7.5,12-5.8l43.8,15.1
			c4.9,1.7,7.5,7.1,5.8,12C581.7,158.8,578.1,161.2,574.2,161.2z"/>
	</g>
</g>
</svg>
