<?xml version="1.0" encoding="utf-8"?>
<!-- Generator: Adobe Illustrator 19.1.0, SVG Export Plug-In . SVG Version: 6.00 Build 0)  -->
<!DOCTYPE svg PUBLIC "-//W3C//DTD SVG 1.1//EN" "http://www.w3.org/Graphics/SVG/1.1/DTD/svg11.dtd">
<svg version="1.1" id="Layer_1" xmlns="http://www.w3.org/2000/svg" xmlns:xlink="http://www.w3.org/1999/xlink" x="0px" y="0px"
	 viewBox="0 0 1000 600" style="enable-background:new 0 0 1000 600;" xml:space="preserve">
<style type="text/css">
	.st0{fill:#FFFFFF;}
	.st1{fill:#1E448B;}
	.st2{fill:#F8F7F8;}
	.st3{fill:none;stroke:#FFFFFF;stroke-width:4;stroke-linecap:round;stroke-linejoin:round;stroke-miterlimit:10;}
</style>
<g>
	<g>
		<path class="st0" d="M576.1,70.4h10l-10.9,33.2h-10.6l-10.8-33.2H564l4.5,16.8c0.9,3.7,1.5,6.3,1.5,7.8c0.1-1.1,0.3-2.4,0.6-4
			s0.6-2.8,0.8-3.7L576.1,70.4z"/>
		<path class="st0" d="M609.5,103.7h-19.7V70.4h19.7v7.2h-10.7v5.2h10v7.2h-10v6.3h10.7V103.7z"/>
		<path class="st0" d="M646.9,103.7h-11.8L623,80.2h-0.2c0.3,3.7,0.4,6.5,0.4,8.4v15h-8V70.4H627l12.1,23.1h0.1
			c-0.2-3.3-0.3-6-0.3-8.1v-15h8V103.7z"/>
		<path class="st0" d="M682.3,86.3c0,5.5-1.5,9.8-4.6,12.8s-7.3,4.5-12.9,4.5h-10.7V70.4h11.5c5.3,0,9.4,1.4,12.3,4.1
			C680.8,77.2,682.3,81.2,682.3,86.3z M673,86.7c0-3-0.6-5.3-1.8-6.8s-3-2.2-5.5-2.2h-2.6v18.6h2c2.7,0,4.7-0.8,6-2.4
			C672.3,92.3,673,89.9,673,86.7z"/>
		<path class="st0" d="M719.3,87c0,5.6-1.4,9.8-4.1,12.7c-2.7,2.9-6.8,4.4-12,4.4c-5.2,0-9.2-1.5-12-4.4c-2.8-2.9-4.2-7.2-4.2-12.8
			c0-5.5,1.4-9.8,4.1-12.7c2.8-2.9,6.8-4.4,12.1-4.4c5.3,0,9.3,1.4,12,4.3C718,77.1,719.3,81.4,719.3,87z M696.5,87
			c0,6.4,2.2,9.6,6.7,9.6c2.3,0,4-0.8,5.1-2.3c1.1-1.6,1.6-4,1.6-7.3c0-3.3-0.6-5.8-1.7-7.4c-1.1-1.6-2.8-2.4-5-2.4
			C698.7,77.3,696.5,80.5,696.5,87z"/>
		<path class="st0" d="M734.3,91.6v12.1h-9V70.4h10.9c9,0,13.5,3.3,13.5,9.8c0,3.8-1.9,6.8-5.6,8.9l9.7,14.5h-10.2l-7-12.1H734.3z
			 M734.3,84.8h1.7c3.1,0,4.7-1.4,4.7-4.2c0-2.3-1.5-3.4-4.6-3.4h-1.8V84.8z"/>
		<path class="st0" d="M786.7,103.7h-9.1V86.1c0-2.1,0-4.1,0.1-5.9c-0.6,0.7-1.3,1.4-2.1,2.1l-3.8,3.1l-4.7-5.7l11.4-9.3h8.1V103.7z
			"/>
		<path class="st0" d="M808.3,70.4h11.6c4.5,0,7.9,0.7,10.1,2s3.3,3.4,3.3,6.3c0,1.9-0.5,3.5-1.4,4.8s-2.2,2.2-3.8,2.5v0.2
			c2.1,0.5,3.6,1.5,4.5,2.7c0.9,1.3,1.4,2.9,1.4,5c0,3-1.1,5.4-3.4,7.1c-2.3,1.7-5.4,2.6-9.3,2.6h-12.9V70.4z M817.2,83.2h2.7
			c1.3,0,2.3-0.3,3-0.8c0.7-0.5,1.1-1.3,1.1-2.4c0-1.9-1.4-2.8-4.2-2.8h-2.5V83.2z M817.2,89.7v7h3.2c2.8,0,4.2-1.2,4.2-3.5
			c0-1.1-0.4-2-1.1-2.5s-1.8-0.9-3.3-0.9H817.2z"/>
		<path class="st0" d="M839.6,103.7V70.4h9v33.2H839.6z"/>
		<path class="st0" d="M884,86.3c0,5.5-1.5,9.8-4.6,12.8s-7.3,4.5-12.9,4.5h-10.7V70.4h11.5c5.3,0,9.4,1.4,12.3,4.1
			C882.6,77.2,884,81.2,884,86.3z M874.7,86.7c0-3-0.6-5.3-1.8-6.8s-3-2.2-5.5-2.2h-2.6v18.6h2c2.7,0,4.7-0.8,6-2.4
			C874.1,92.3,874.7,89.9,874.7,86.7z"/>
		<path class="st0" d="M911.7,93.6c0,2.1-0.5,3.9-1.6,5.5s-2.6,2.8-4.5,3.7c-2,0.9-4.3,1.3-6.9,1.3c-2.2,0-4.1-0.2-5.6-0.5
			c-1.5-0.3-3.1-0.9-4.7-1.6v-8c1.7,0.9,3.5,1.6,5.3,2.1s3.5,0.7,5.1,0.7c1.3,0,2.3-0.2,2.9-0.7c0.6-0.5,0.9-1.1,0.9-1.8
			c0-0.5-0.1-0.9-0.4-1.2s-0.7-0.7-1.2-1c-0.6-0.3-2-1.1-4.4-2.1c-2.2-1-3.8-1.9-4.9-2.9s-1.9-2-2.4-3.2c-0.5-1.2-0.8-2.6-0.8-4.2
			c0-3.1,1.1-5.4,3.3-7.2c2.2-1.7,5.3-2.6,9.2-2.6c3.4,0,6.9,0.8,10.5,2.4l-2.8,6.9c-3.1-1.4-5.8-2.1-8-2.1c-1.2,0-2,0.2-2.5,0.6
			s-0.8,0.9-0.8,1.5c0,0.7,0.3,1.2,1,1.7c0.7,0.5,2.5,1.5,5.5,2.8c2.9,1.3,4.9,2.7,6,4.1C911.1,89.5,911.7,91.3,911.7,93.6z"/>
	</g>
	<g>
		<path class="st0" d="M576.1,278.3h10l-10.9,33.2h-10.6l-10.8-33.2H564l4.5,16.8c0.9,3.7,1.5,6.3,1.5,7.8c0.1-1.1,0.3-2.4,0.6-4
			s0.6-2.8,0.8-3.7L576.1,278.3z"/>
		<path class="st0" d="M609.5,311.5h-19.7v-33.2h19.7v7.2h-10.7v5.2h10v7.2h-10v6.3h10.7V311.5z"/>
		<path class="st0" d="M646.9,311.5h-11.8L623,288.1h-0.2c0.3,3.7,0.4,6.5,0.4,8.4v15h-8v-33.2H627l12.1,23.1h0.1
			c-0.2-3.3-0.3-6-0.3-8.1v-15h8V311.5z"/>
		<path class="st0" d="M682.3,294.2c0,5.5-1.5,9.8-4.6,12.8s-7.3,4.5-12.9,4.5h-10.7v-33.2h11.5c5.3,0,9.4,1.4,12.3,4.1
			C680.8,285.1,682.3,289,682.3,294.2z M673,294.5c0-3-0.6-5.3-1.8-6.8s-3-2.2-5.5-2.2h-2.6v18.6h2c2.7,0,4.7-0.8,6-2.4
			C672.3,300.2,673,297.7,673,294.5z"/>
		<path class="st0" d="M719.3,294.8c0,5.6-1.4,9.8-4.1,12.7c-2.7,2.9-6.8,4.4-12,4.4c-5.2,0-9.2-1.5-12-4.4
			c-2.8-2.9-4.2-7.2-4.2-12.8c0-5.5,1.4-9.8,4.1-12.7c2.8-2.9,6.8-4.4,12.1-4.4c5.3,0,9.3,1.4,12,4.3
			C718,285,719.3,289.2,719.3,294.8z M696.5,294.8c0,6.4,2.2,9.6,6.7,9.6c2.3,0,4-0.8,5.1-2.3c1.1-1.6,1.6-4,1.6-7.3
			c0-3.3-0.6-5.8-1.7-7.4c-1.1-1.6-2.8-2.4-5-2.4C698.7,285.1,696.5,288.3,696.5,294.8z"/>
		<path class="st0" d="M734.3,299.4v12.1h-9v-33.2h10.9c9,0,13.5,3.3,13.5,9.8c0,3.8-1.9,6.8-5.6,8.9l9.7,14.5h-10.2l-7-12.1H734.3z
			 M734.3,292.6h1.7c3.1,0,4.7-1.4,4.7-4.2c0-2.3-1.5-3.4-4.6-3.4h-1.8V292.6z"/>
		<path class="st0" d="M790.8,311.5h-24.1v-5.9l8.1-8.2c2.3-2.4,3.8-4.1,4.5-5c0.7-0.9,1.2-1.6,1.5-2.3s0.4-1.3,0.4-2
			c0-0.9-0.3-1.5-0.8-2c-0.6-0.5-1.3-0.8-2.4-0.8c-1,0-2.1,0.3-3.2,0.9c-1.1,0.6-2.3,1.5-3.6,2.6l-4.9-5.8c1.7-1.5,3.2-2.6,4.3-3.3
			c1.2-0.7,2.4-1.2,3.8-1.5c1.4-0.3,2.9-0.5,4.6-0.5c2.2,0,4.1,0.4,5.8,1.1c1.7,0.8,3,1.8,3.9,3.2c0.9,1.4,1.4,3,1.4,4.7
			c0,1.3-0.2,2.5-0.5,3.6c-0.3,1.1-0.8,2.2-1.5,3.3s-1.6,2.2-2.7,3.4c-1.1,1.2-3.5,3.4-7.2,6.7v0.2h12.6V311.5z"/>
		<path class="st0" d="M808.3,278.3h11.6c4.5,0,7.9,0.7,10.1,2s3.3,3.4,3.3,6.3c0,1.9-0.5,3.5-1.4,4.8s-2.2,2.2-3.8,2.5v0.2
			c2.1,0.5,3.6,1.5,4.5,2.7c0.9,1.3,1.4,2.9,1.4,5c0,3-1.1,5.4-3.4,7.1c-2.3,1.7-5.4,2.6-9.3,2.6h-12.9V278.3z M817.2,291h2.7
			c1.3,0,2.3-0.3,3-0.8c0.7-0.5,1.1-1.3,1.1-2.4c0-1.9-1.4-2.8-4.2-2.8h-2.5V291z M817.2,297.6v7h3.2c2.8,0,4.2-1.2,4.2-3.5
			c0-1.1-0.4-2-1.1-2.5s-1.8-0.9-3.3-0.9H817.2z"/>
		<path class="st0" d="M839.6,311.5v-33.2h9v33.2H839.6z"/>
		<path class="st0" d="M884,294.2c0,5.5-1.5,9.8-4.6,12.8s-7.3,4.5-12.9,4.5h-10.7v-33.2h11.5c5.3,0,9.4,1.4,12.3,4.1
			C882.6,285.1,884,289,884,294.2z M874.7,294.5c0-3-0.6-5.3-1.8-6.8s-3-2.2-5.5-2.2h-2.6v18.6h2c2.7,0,4.7-0.8,6-2.4
			C874.1,300.2,874.7,297.7,874.7,294.5z"/>
		<path class="st0" d="M911.7,301.4c0,2.1-0.5,3.9-1.6,5.5s-2.6,2.8-4.5,3.7c-2,0.9-4.3,1.3-6.9,1.3c-2.2,0-4.1-0.2-5.6-0.5
			c-1.5-0.3-3.1-0.9-4.7-1.6v-8c1.7,0.9,3.5,1.6,5.3,2.1s3.5,0.7,5.1,0.7c1.3,0,2.3-0.2,2.9-0.7s0.9-1.1,0.9-1.8
			c0-0.5-0.1-0.9-0.4-1.2c-0.2-0.3-0.7-0.7-1.2-1c-0.6-0.3-2-1.1-4.4-2.1c-2.2-1-3.8-1.9-4.9-2.9s-1.9-2-2.4-3.2
			c-0.5-1.2-0.8-2.6-0.8-4.2c0-3.1,1.1-5.4,3.3-7.2c2.2-1.7,5.3-2.6,9.2-2.6c3.4,0,6.9,0.8,10.5,2.4l-2.8,6.9
			c-3.1-1.4-5.8-2.1-8-2.1c-1.2,0-2,0.2-2.5,0.6s-0.8,0.9-0.8,1.5c0,0.7,0.3,1.2,1,1.7c0.7,0.5,2.5,1.5,5.5,2.8
			c2.9,1.3,4.9,2.7,6,4.1C911.1,297.3,911.7,299.1,911.7,301.4z"/>
	</g>
	<g>
		<path class="st0" d="M576.1,490.3h10l-10.9,33.2h-10.6l-10.8-33.2H564l4.5,16.8c0.9,3.7,1.5,6.3,1.5,7.8c0.1-1.1,0.3-2.4,0.6-4
			c0.3-1.6,0.6-2.8,0.8-3.7L576.1,490.3z"/>
		<path class="st0" d="M609.5,523.6h-19.7v-33.2h19.7v7.2h-10.7v5.2h10v7.2h-10v6.3h10.7V523.6z"/>
		<path class="st0" d="M646.9,523.6h-11.8L623,500.2h-0.2c0.3,3.7,0.4,6.5,0.4,8.4v15h-8v-33.2H627l12.1,23.1h0.1
			c-0.2-3.3-0.3-6-0.3-8.1v-15h8V523.6z"/>
		<path class="st0" d="M682.3,506.3c0,5.5-1.5,9.8-4.6,12.8s-7.3,4.5-12.9,4.5h-10.7v-33.2h11.5c5.3,0,9.4,1.4,12.3,4.1
			S682.3,501.1,682.3,506.3z M673,506.6c0-3-0.6-5.3-1.8-6.8c-1.2-1.5-3-2.2-5.5-2.2h-2.6v18.6h2c2.7,0,4.7-0.8,6-2.4
			S673,509.8,673,506.6z"/>
		<path class="st0" d="M719.3,506.9c0,5.6-1.4,9.8-4.1,12.7c-2.7,2.9-6.8,4.4-12,4.4c-5.2,0-9.2-1.5-12-4.4
			c-2.8-2.9-4.2-7.2-4.2-12.8c0-5.5,1.4-9.8,4.1-12.7c2.8-2.9,6.8-4.4,12.1-4.4c5.3,0,9.3,1.4,12,4.3
			C718,497.1,719.3,501.3,719.3,506.9z M696.5,506.9c0,6.4,2.2,9.6,6.7,9.6c2.3,0,4-0.8,5.1-2.3c1.1-1.6,1.6-4,1.6-7.3
			c0-3.3-0.6-5.8-1.7-7.4c-1.1-1.6-2.8-2.4-5-2.4C698.7,497.2,696.5,500.4,696.5,506.9z"/>
		<path class="st0" d="M734.3,511.5v12.1h-9v-33.2h10.9c9,0,13.5,3.3,13.5,9.8c0,3.8-1.9,6.8-5.6,8.9l9.7,14.5h-10.2l-7-12.1H734.3z
			 M734.3,504.7h1.7c3.1,0,4.7-1.4,4.7-4.2c0-2.3-1.5-3.4-4.6-3.4h-1.8V504.7z"/>
		<path class="st0" d="M789.7,497.5c0,2.1-0.6,3.8-1.9,5.3c-1.3,1.5-3.1,2.5-5.5,3.2v0.1c5.5,0.7,8.3,3.3,8.3,7.9
			c0,3.1-1.2,5.5-3.7,7.3c-2.4,1.8-5.8,2.7-10.2,2.7c-1.8,0-3.4-0.1-5-0.4c-1.5-0.3-3.2-0.7-4.9-1.4v-7.5c1.5,0.7,2.9,1.3,4.4,1.6
			c1.5,0.4,2.9,0.5,4.2,0.5c2,0,3.4-0.3,4.3-0.8s1.4-1.4,1.4-2.6c0-0.9-0.2-1.6-0.7-2.1s-1.2-0.9-2.3-1.1c-1-0.2-2.4-0.4-4.1-0.4h-2
			v-6.7h2.1c4.6,0,6.8-1.2,6.8-3.5c0-0.9-0.3-1.5-1-2c-0.7-0.4-1.6-0.6-2.7-0.6c-2.1,0-4.3,0.7-6.6,2.1l-3.7-6
			c1.8-1.2,3.6-2.1,5.4-2.6c1.8-0.5,3.9-0.8,6.3-0.8c3.4,0,6.1,0.7,8.1,2C788.7,493.3,789.7,495.2,789.7,497.5z"/>
		<path class="st0" d="M808.3,490.3h11.6c4.5,0,7.9,0.7,10.1,2s3.3,3.4,3.3,6.3c0,1.9-0.5,3.5-1.4,4.8c-1,1.3-2.2,2.2-3.8,2.5v0.2
			c2.1,0.5,3.6,1.5,4.5,2.7c0.9,1.3,1.4,2.9,1.4,5c0,3-1.1,5.4-3.4,7.1c-2.3,1.7-5.4,2.6-9.3,2.6h-12.9V490.3z M817.2,503.1h2.7
			c1.3,0,2.3-0.3,3-0.8c0.7-0.5,1.1-1.3,1.1-2.4c0-1.9-1.4-2.8-4.2-2.8h-2.5V503.1z M817.2,509.7v7h3.2c2.8,0,4.2-1.2,4.2-3.5
			c0-1.1-0.4-2-1.1-2.5s-1.8-0.9-3.3-0.9H817.2z"/>
		<path class="st0" d="M839.6,523.6v-33.2h9v33.2H839.6z"/>
		<path class="st0" d="M884,506.3c0,5.5-1.5,9.8-4.6,12.8s-7.3,4.5-12.9,4.5h-10.7v-33.2h11.5c5.3,0,9.4,1.4,12.3,4.1
			S884,501.1,884,506.3z M874.7,506.6c0-3-0.6-5.3-1.8-6.8c-1.2-1.5-3-2.2-5.5-2.2h-2.6v18.6h2c2.7,0,4.7-0.8,6-2.4
			S874.7,509.8,874.7,506.6z"/>
		<path class="st0" d="M911.7,513.5c0,2.1-0.5,3.9-1.6,5.5s-2.6,2.8-4.5,3.7c-2,0.9-4.3,1.3-6.9,1.3c-2.2,0-4.1-0.2-5.6-0.5
			c-1.5-0.3-3.1-0.9-4.7-1.6v-8c1.7,0.9,3.5,1.6,5.3,2.1s3.5,0.7,5.1,0.7c1.3,0,2.3-0.2,2.9-0.7s0.9-1.1,0.9-1.8
			c0-0.5-0.1-0.9-0.4-1.2s-0.7-0.7-1.2-1c-0.6-0.3-2-1.1-4.4-2.1c-2.2-1-3.8-1.9-4.9-2.9s-1.9-2-2.4-3.2s-0.8-2.6-0.8-4.2
			c0-3.1,1.1-5.4,3.3-7.2c2.2-1.7,5.3-2.6,9.2-2.6c3.4,0,6.9,0.8,10.5,2.4l-2.8,6.9c-3.1-1.4-5.8-2.1-8-2.1c-1.2,0-2,0.2-2.5,0.6
			c-0.5,0.4-0.8,0.9-0.8,1.5c0,0.7,0.3,1.2,1,1.8s2.5,1.5,5.5,2.8c2.9,1.3,4.9,2.7,6,4.1C911.1,509.4,911.7,511.2,911.7,513.5z"/>
	</g>
	<g>
		<path class="st1" d="M94,127.4H63l-3.1,83.1c1.1-0.8,2.2-1.7,3.3-2.6C84.5,190.4,94.9,163.3,94,127.4z"/>
		<path class="st1" d="M190.6,208.6c1,0.8,2,1.6,3,2.3l-5.8-83.5h-28.1C158.8,163.6,169.1,190.9,190.6,208.6z"/>
		<g>
			<path class="st1" d="M193.3,240.7l0.6-25.8c-1.5-1-2.9-2.2-4.4-3.4c-15.5-12.7-33.3-37.6-32.2-84.1H96.4
				c1,46.2-16.8,70.9-32.2,83.5c-1.5,1.2-3,2.4-4.6,3.5l1.2,30.3l2.2,133.3l-3.3,144.6l38.7,0.9l11.3-146.9L130.9,214l23.2,164.2
				l14.7,144.5l39.5,0.9l-12.2-149.9L193.3,240.7z M135.3,212.3c0,0.6-0.3,1-0.7,1.1c0,0-0.2,0-0.5,0c-1.2,0-4.4-0.5-7.6-4.7
				c-7.6-10.3-8.1-33.4-7.1-50.9c0-0.6,0.4-1,0.8-1h14.3c0.4,0,0.8,0.5,0.8,1.1V212.3z"/>
			<path class="st1" d="M127.6,207.1c2.5,3.4,5,4,6.1,4.1v-52.3h-12.8C119.3,189.1,123.7,201.8,127.6,207.1z"/>
		</g>
		<path class="st2" d="M188.1,140H63.1c-0.4,0-0.6,0.5-0.6,1.1s0.3,1.1,0.6,1.1h125.1c0.4,0,0.6-0.5,0.6-1.1S188.5,140,188.1,140z"
			/>
	</g>
	<g>
		<polyline class="st3" points="517.9,93.3 367.7,93.3 239.9,297.4 520.6,297.4 		"/>
		<polyline class="st3" points="517.9,507.3 367.7,507.3 239.9,303.1 		"/>
	</g>
</g>
</svg>
