<?xml version="1.0" encoding="utf-8"?>
<!-- Generator: Adobe Illustrator 19.1.0, SVG Export Plug-In . SVG Version: 6.00 Build 0)  -->
<!DOCTYPE svg PUBLIC "-//W3C//DTD SVG 1.1//EN" "http://www.w3.org/Graphics/SVG/1.1/DTD/svg11.dtd">
<svg version="1.1" id="Layer_1" xmlns="http://www.w3.org/2000/svg" xmlns:xlink="http://www.w3.org/1999/xlink" x="0px" y="0px"
	 viewBox="0 0 1000 600" style="enable-background:new 0 0 1000 600;" xml:space="preserve">
<style type="text/css">
	.st0{opacity:0.15;enable-background:new    ;}
	.st1{clip-path:url(#SVGID_2_);}
	.st2{clip-path:url(#SVGID_4_);}
	.st3{clip-path:url(#SVGID_6_);fill:#3F3F3F;}
	.st4{clip-path:url(#SVGID_8_);fill:#3F3F3F;}
	.st5{clip-path:url(#SVGID_10_);fill:#E9E9E9;}
	.st6{clip-path:url(#SVGID_12_);fill:#E9E9E9;}
	.st7{clip-path:url(#SVGID_14_);fill:#FFFFFF;}
	.st8{clip-path:url(#SVGID_16_);fill:#B5B4B4;}
	.st9{clip-path:url(#SVGID_18_);fill:#F2F2F2;}
	.st10{clip-path:url(#SVGID_20_);fill:#454545;}
	.st11{clip-path:url(#SVGID_22_);fill:#DA3628;}
	.st12{clip-path:url(#SVGID_24_);fill:#DA3628;}
	.st13{clip-path:url(#SVGID_26_);fill:#DA3628;}
	.st14{clip-path:url(#SVGID_28_);fill:#DA3628;}
	.st15{clip-path:url(#SVGID_30_);fill:#DA3628;}
	.st16{clip-path:url(#SVGID_32_);fill:#DA3628;}
	.st17{clip-path:url(#SVGID_34_);fill:#DA3628;}
	.st18{clip-path:url(#SVGID_36_);fill:#DA3628;}
	.st19{fill:none;stroke:#FDFEFF;stroke-width:1.9888;stroke-miterlimit:10;}
	.st20{fill:none;stroke:#010101;stroke-width:1.9888;stroke-miterlimit:10;}
	
		.st21{clip-path:url(#SVGID_38_);fill:#D4D6D8;stroke:#000000;stroke-width:0.7955;stroke-linecap:round;stroke-linejoin:round;stroke-miterlimit:10;}
	.st22{fill:#1E448B;}
	.st23{fill:#F8F7F8;}
	.st24{fill:#FFFFFF;fill-opacity:0.67;stroke:#000000;stroke-width:0.7955;stroke-miterlimit:10;}
	.st25{fill:#0B0B0B;}
	.st26{fill:#FFFFFF;}
	.st27{fill:none;stroke:#000000;stroke-width:0.7955;stroke-miterlimit:10;}
	.st28{clip-path:url(#SVGID_40_);fill:#DA3628;}
	.st29{clip-path:url(#SVGID_42_);fill:#DA3628;}
	.st30{clip-path:url(#SVGID_44_);fill:#DA3628;}
	.st31{clip-path:url(#SVGID_46_);fill:#DA3628;}
	.st32{clip-path:url(#SVGID_48_);fill:#DA3628;}
	.st33{clip-path:url(#SVGID_50_);fill:#DA3628;}
	.st34{clip-path:url(#SVGID_52_);fill:#DA3628;}
	.st35{clip-path:url(#SVGID_54_);fill:#DA3628;}
</style>
<g>
	<g class="st0">
		<g>
			<defs>
				<rect id="SVGID_1_" x="20.3" y="527.2" width="959.7" height="27.3"/>
			</defs>
			<clipPath id="SVGID_2_">
				<use xlink:href="#SVGID_1_"  style="overflow:visible;"/>
			</clipPath>
			<g class="st1">
				<defs>
					<path id="SVGID_3_" d="M500.1,527.7c264.7,0,479.2,5.9,479.2,13.4c0,7.4-214.5,13.4-479.2,13.4s-479.2-5.9-479.2-13.4
						C20.9,533.7,235.5,527.7,500.1,527.7z"/>
				</defs>
				<clipPath id="SVGID_4_">
					<use xlink:href="#SVGID_3_"  style="overflow:visible;"/>
				</clipPath>
				<g class="st2">
					<defs>
						<rect id="SVGID_5_" x="20.3" y="527.2" width="959.7" height="27.3"/>
					</defs>
					<clipPath id="SVGID_6_">
						<use xlink:href="#SVGID_5_"  style="overflow:visible;"/>
					</clipPath>
					<rect x="16.1" y="522.8" class="st3" width="968.1" height="36.5"/>
				</g>
			</g>
		</g>
	</g>
	<g>
		<defs>
			<path id="SVGID_7_" d="M500.1,504.5H154.1V69.7c0-13.1,10.6-23.6,23.6-23.6h322.5h304.7c13.1,0,23.6,10.6,23.6,23.6v434.8H500.1z
				"/>
		</defs>
		<clipPath id="SVGID_8_">
			<use xlink:href="#SVGID_7_"  style="overflow:visible;"/>
		</clipPath>
		<rect x="149.2" y="41.2" class="st4" width="684.1" height="468.2"/>
	</g>
	<g>
		<defs>
			<path id="SVGID_9_" d="M917.3,504.5c0,19.6-15.6,35.6-34.8,35.6H100.2c-19.2,0-34.8-15.8-34.8-35.6H917.3z"/>
		</defs>
		<clipPath id="SVGID_10_">
			<use xlink:href="#SVGID_9_"  style="overflow:visible;"/>
		</clipPath>
		<rect x="60.5" y="499.6" class="st5" width="861.6" height="45.4"/>
	</g>
	<g>
		<defs>
			<path id="SVGID_11_" d="M501.7,52.3c3.1,0,5.6,2.4,5.6,5.6c0,3.1-2.4,5.6-5.6,5.6c-3.1,0-5.6-2.4-5.6-5.6
				C496.1,54.8,498.6,52.3,501.7,52.3z"/>
		</defs>
		<clipPath id="SVGID_12_">
			<use xlink:href="#SVGID_11_"  style="overflow:visible;"/>
		</clipPath>
		<rect x="491.3" y="47.5" class="st6" width="20.9" height="20.9"/>
	</g>
	<g>
		<defs>
			<rect id="SVGID_13_" x="171.8" y="69.7" width="639" height="411.2"/>
		</defs>
		<clipPath id="SVGID_14_">
			<use xlink:href="#SVGID_13_"  style="overflow:visible;"/>
		</clipPath>
		<rect x="166.9" y="64.8" class="st7" width="648.7" height="421"/>
	</g>
	<g>
		<defs>
			<path id="SVGID_15_" d="M550.5,504.5c0,6.5-5.5,11.8-12.1,11.8h-94.2c-6.6,0-12.1-5.4-12.1-11.8H550.5z"/>
		</defs>
		<clipPath id="SVGID_16_">
			<use xlink:href="#SVGID_15_"  style="overflow:visible;"/>
		</clipPath>
		<rect x="427.2" y="499.6" class="st8" width="128.2" height="21.6"/>
	</g>
	<g>
		<defs>
			<rect id="SVGID_17_" x="171.8" y="69.7" width="639" height="55.2"/>
		</defs>
		<clipPath id="SVGID_18_">
			<use xlink:href="#SVGID_17_"  style="overflow:visible;"/>
		</clipPath>
		<rect x="166.9" y="64.8" class="st9" width="648.7" height="65"/>
	</g>
	<g>
		<defs>
			<rect id="SVGID_19_" x="171.8" y="124.9" width="639" height="20.9"/>
		</defs>
		<clipPath id="SVGID_20_">
			<use xlink:href="#SVGID_19_"  style="overflow:visible;"/>
		</clipPath>
		<rect x="166.9" y="120" class="st10" width="648.7" height="30.6"/>
	</g>
	<g>
		<defs>
			<path id="SVGID_21_" d="M397.2,99.9v-5h-6C393.6,95.8,395.7,97.5,397.2,99.9z M397.2,81.6H409v24.3h-11.8v-0.2
				c-2.7-4.2-6.6-7.4-11.7-9.6v9.8h-11.8V81.5h11.8v9.9h11.7C397.2,91.5,397.2,81.6,397.2,81.6z"/>
		</defs>
		<clipPath id="SVGID_22_">
			<use xlink:href="#SVGID_21_"  style="overflow:visible;"/>
		</clipPath>
		<rect x="368.8" y="76.6" class="st11" width="45.1" height="34.1"/>
	</g>
	<g>
		<defs>
			<path id="SVGID_23_" d="M446.9,101.2v3.8c-1.9,0.8-4.9,1.2-9,1.2c-1.4,0-2.8-0.1-4.2-0.4c-1.8-0.4-3-0.9-3.7-1.6
				c-2.3,1.4-5.2,2-8.5,2c-2.3,0-4.5-0.4-6.5-1.3c-2.6-1.2-3.9-2.7-3.9-4.7V89.8h11.6v9c0,0.9,0.3,1.5,0.9,2
				c0.6,0.5,1.3,0.7,2.1,0.7c0.9,0,1.6-0.2,2.2-0.7c0.6-0.5,1-1.2,1-2v-9h11.7V99c0,0.9,0.3,1.6,0.9,2c0.6,0.5,1.4,0.8,2.2,0.8
				c0.4,0,0.9-0.1,1.5-0.2C446.3,101.3,446.8,101.2,446.9,101.2z"/>
		</defs>
		<clipPath id="SVGID_24_">
			<use xlink:href="#SVGID_23_"  style="overflow:visible;"/>
		</clipPath>
		<rect x="406.2" y="84.9" class="st12" width="45.5" height="26.1"/>
	</g>
	<g>
		<defs>
			<path id="SVGID_25_" d="M477.2,95h-4.4c0,4.5-1.4,7.6-4.3,9.4c-2.1,1.3-5.8,2-10.6,2c-2.3,0-4.6-0.6-6.9-1.7
				c-2.8-1.3-4.2-3-4.2-5V81.7h11.7v15.4c0,1.3,0.4,2.2,1.3,3.1c0.9,0.9,1.9,1.2,3,1.2c1.5,0,2.7-0.5,3.7-1.4c1-0.9,1.5-2.1,1.5-3.6
				v-1.4h-0.5c-1.3,0-2.4-0.3-3.3-0.9c-1.1-0.7-1.7-1.7-1.7-2.9s0.5-2.1,1.4-2.8c0.9-0.6,1.9-0.9,3.2-0.9c1.1,0,2,0.2,3,0.6
				c1.1,0.4,2,1,2.4,1.8h4.7V95z"/>
		</defs>
		<clipPath id="SVGID_26_">
			<use xlink:href="#SVGID_25_"  style="overflow:visible;"/>
		</clipPath>
		<rect x="441.9" y="76.8" class="st13" width="40.2" height="34.3"/>
	</g>
	<g>
		<defs>
			<path id="SVGID_27_" d="M508.5,112.3h-10.9v-7.6c-1.4,1-4.1,1.5-8.4,1.5c-2.8,0-5.4-0.6-7.8-1.8c-3-1.5-4.5-3.4-4.5-5.9
				c0-2.9,1.3-5.2,3.9-6.8c2.1-1.4,4.8-2,7.9-2h7.4v4.8h-1.1c-1.6,0-2.9,0.2-3.9,0.6c-1.5,0.6-2.2,1.6-2.2,2.9
				c0,2.1,1.6,3.2,4.8,3.2c1.2,0,2-0.3,2.8-0.9c0.8-0.6,1.1-1.4,1.1-2.5v-3v-3v-1.9h10.8L508.5,112.3z"/>
		</defs>
		<clipPath id="SVGID_28_">
			<use xlink:href="#SVGID_27_"  style="overflow:visible;"/>
		</clipPath>
		<rect x="472" y="84.8" class="st14" width="41.4" height="32.4"/>
	</g>
	<g>
		<defs>
			<path id="SVGID_29_" d="M546.6,101.2v3.8c-1.9,0.8-4.9,1.2-9,1.2c-1.4,0-2.8-0.1-4.2-0.4c-1.8-0.4-3-0.9-3.7-1.6
				c-2.3,1.4-5.2,2-8.5,2c-2.3,0-4.5-0.4-6.5-1.3c-2.6-1.2-3.9-2.7-3.9-4.7V89.8h11.6v9c0,0.9,0.3,1.5,0.9,2
				c0.6,0.5,1.3,0.7,2.1,0.7s1.6-0.2,2.2-0.7c0.6-0.5,1-1.2,1-2v-9h11.7V99c0,0.9,0.3,1.6,0.9,2c0.6,0.5,1.4,0.8,2.2,0.8
				c0.4,0,0.9-0.1,1.5-0.2C546,101.3,546.5,101.2,546.6,101.2z"/>
		</defs>
		<clipPath id="SVGID_30_">
			<use xlink:href="#SVGID_29_"  style="overflow:visible;"/>
		</clipPath>
		<rect x="505.9" y="84.9" class="st15" width="45.5" height="26.1"/>
	</g>
	<g>
		<defs>
			<path id="SVGID_31_" d="M566,105.1c-0.7,0.4-1.8,0.7-3.2,1c-1.3,0.3-2.4,0.4-3.3,0.4c-7.5,0-11.2-1.9-11.2-5.5V89.9h11.7V100
				c0,1.4,0.9,2,2.6,2c1,0,2-0.3,3.4-1V105.1z M560.9,83.9c0,1.1-0.9,1.9-2.7,2.5c-1.4,0.5-2.7,0.7-4.1,0.7s-2.7-0.2-4.1-0.7
				c-1.8-0.6-2.7-1.4-2.7-2.5c0-1.1,0.9-1.9,2.7-2.5c1.3-0.4,2.6-0.6,4.1-0.6c1.4,0,2.7,0.2,4.1,0.6C560,82.1,560.9,82.9,560.9,83.9
				z"/>
		</defs>
		<clipPath id="SVGID_32_">
			<use xlink:href="#SVGID_31_"  style="overflow:visible;"/>
		</clipPath>
		<rect x="542.4" y="75.9" class="st16" width="28.5" height="35.4"/>
	</g>
	<g>
		<defs>
			<path id="SVGID_33_" d="M595.6,105.1c-2.2,0.7-4.9,1-7.9,1c-2.3,0-4.4-0.4-6-1.2c-2.1-1-3.3-2.6-3.3-4.7c0-1.9,1.3-3.7,3.7-5.3
				h-7.5c-0.9,5.5-3.8,8.9-8.8,10.1v-3.8c1.4-0.6,2.4-1.4,3.1-2.4c0.6-0.9,1-2.1,1.2-3.8h-0.6c-1.1,0-2-0.3-2.9-1
				c-0.9-0.7-1.4-1.5-1.4-2.5c0-1.1,0.5-2,1.4-2.8c0.9-0.7,1.9-1.1,3-1.1c0.8,0,1.7,0.2,2.5,0.6c1,0.5,1.6,1,1.9,1.7h19.7v5h-3.1
				c-1.3,0.9-1.9,1.9-1.9,3c0,1,0.5,1.8,1.4,2.5c0.9,0.7,1.9,1.1,2.9,1.1c0.9,0,1.8-0.1,2.5-0.3L595.6,105.1L595.6,105.1z"/>
		</defs>
		<clipPath id="SVGID_34_">
			<use xlink:href="#SVGID_33_"  style="overflow:visible;"/>
		</clipPath>
		<rect x="560.3" y="82.8" class="st17" width="40.2" height="28.2"/>
	</g>
	<g>
		<defs>
			<path id="SVGID_35_" d="M626.5,101.2v3.8c-3.8,1-8.7,1.5-14.6,1.5c-3.2,0-6.1-0.3-8.6-0.8c-4.1-0.9-6.1-2.2-6.1-4.3
				c0-1.9,2.1-3.4,6.4-4.6c-1-0.3-1.9-0.7-2.7-1.2c-1.1-0.7-1.7-1.4-1.7-2.1c0-2.1,2.5-3.7,7.7-4.5c2.8-0.5,6.2-0.7,10.2-0.7
				c1.7,0,3.1,0,4.6,0.1v3.9c-1.6,0.1-3.1,0.1-4.7,0.1c-2.4,0.2-3.7,0.6-3.7,1.2c0,0.5,0.7,0.9,2,1.1c1,0.2,1.9,0.3,2.7,0.3h0.5v2.4
				c-4.9,0.6-7.3,1.6-7.3,2.7c0,1.3,2.6,1.9,7.8,1.9C622.3,102.1,624.9,101.8,626.5,101.2z"/>
		</defs>
		<clipPath id="SVGID_36_">
			<use xlink:href="#SVGID_35_"  style="overflow:visible;"/>
		</clipPath>
		<rect x="592.3" y="83.5" class="st18" width="39.1" height="27.9"/>
	</g>
	<line class="st19" x1="193.9" y1="135.3" x2="229" y2="135.3"/>
	<line class="st19" x1="255" y1="135.3" x2="290.1" y2="135.3"/>
	<line class="st19" x1="304.5" y1="135.3" x2="363" y2="135.3"/>
	<line class="st19" x1="377.4" y1="135.3" x2="412.3" y2="135.3"/>
	<line class="st20" x1="451.7" y1="281.4" x2="486.8" y2="281.4"/>
	<line class="st20" x1="512.8" y1="281.4" x2="538.2" y2="281.4"/>
	<line class="st20" x1="557.4" y1="281.4" x2="615.9" y2="281.4"/>
	<line class="st20" x1="635.2" y1="281.4" x2="670.1" y2="281.4"/>
	<line class="st20" x1="451.7" y1="308.8" x2="514.1" y2="308.8"/>
	<line class="st20" x1="529.9" y1="308.8" x2="577" y2="308.8"/>
	<line class="st20" x1="591.2" y1="308.8" x2="613.4" y2="308.8"/>
	<line class="st20" x1="637.1" y1="308.8" x2="668.9" y2="308.8"/>
	<line class="st20" x1="682.4" y1="308.8" x2="723.5" y2="308.8"/>
	<line class="st20" x1="682.4" y1="281.4" x2="731.6" y2="281.4"/>
	<line class="st20" x1="451.7" y1="336.1" x2="486.8" y2="336.1"/>
	<g>
		<defs>
			<rect id="SVGID_37_" x="193.9" y="176.6" width="212.8" height="303.6"/>
		</defs>
		<use xlink:href="#SVGID_37_"  style="overflow:visible;fill-rule:evenodd;clip-rule:evenodd;fill:#D4D6D8;"/>
		<clipPath id="SVGID_38_">
			<use xlink:href="#SVGID_37_"  style="overflow:visible;"/>
		</clipPath>
		<rect x="189" y="171.7" class="st21" width="222.6" height="313.4"/>
		
			<use xlink:href="#SVGID_37_"  style="overflow:visible;fill-rule:evenodd;clip-rule:evenodd;fill:none;stroke:#000000;stroke-width:0.7955;stroke-linecap:round;stroke-linejoin:round;stroke-miterlimit:10;"/>
	</g>
	<line class="st20" x1="503.1" y1="336.1" x2="538.2" y2="336.1"/>
	<line class="st20" x1="552.5" y1="336.1" x2="611" y2="336.1"/>
	<line class="st20" x1="625.5" y1="336.1" x2="660.4" y2="336.1"/>
	<line class="st20" x1="673.8" y1="336.1" x2="731.6" y2="336.1"/>
	<line class="st20" x1="451.7" y1="363.4" x2="486.8" y2="363.4"/>
	<line class="st20" x1="503.1" y1="363.4" x2="538.2" y2="363.4"/>
	<line class="st20" x1="552.5" y1="363.4" x2="611" y2="363.4"/>
	<line class="st20" x1="673.7" y1="363.4" x2="712.4" y2="363.4"/>
	<line class="st20" x1="624.5" y1="363.4" x2="659.4" y2="363.4"/>
	<line class="st20" x1="451.7" y1="389.7" x2="473.1" y2="389.7"/>
	<line class="st20" x1="487.7" y1="389.7" x2="502.8" y2="389.7"/>
	<line class="st20" x1="517.3" y1="389.7" x2="538.2" y2="389.7"/>
	<line class="st20" x1="551.7" y1="389.7" x2="586.6" y2="389.7"/>
	<line class="st20" x1="596.3" y1="389.7" x2="617.2" y2="389.7"/>
	<line class="st20" x1="630.7" y1="389.7" x2="665.6" y2="389.7"/>
	<line class="st20" x1="682.4" y1="389.7" x2="717.3" y2="389.7"/>
	<line class="st20" x1="451.7" y1="417" x2="486.8" y2="417"/>
	<line class="st20" x1="512.8" y1="417" x2="547.9" y2="417"/>
	<line class="st20" x1="562.3" y1="417" x2="620.8" y2="417"/>
	<line class="st20" x1="635.2" y1="417" x2="670.1" y2="417"/>
	<g>
		<path class="st22" d="M270,237.3h-17.4l-1.8,46.5c0.6-0.5,1.2-0.9,1.8-1.4C264.7,272.5,270.5,257.4,270,237.3z"/>
		<path class="st22" d="M324,282.7c0.6,0.5,1.1,0.9,1.7,1.3l-3.3-46.7h-15.7C306.2,257.5,312,272.8,324,282.7z"/>
		<g>
			<path class="st22" d="M325.5,300.6l0.3-14.4c-0.8-0.6-1.6-1.2-2.5-1.9c-8.6-7.1-18.6-21-18-47h-34.1c0.6,25.8-9.4,39.6-18,46.7
				c-0.8,0.7-1.7,1.3-2.5,1.9l0.7,17l1.2,74.5l-1.8,80.8l21.6,0.5l6.3-82.1l11.8-91l13,91.8l8.2,80.8l22.1,0.5l-6.8-83.8
				L325.5,300.6z M293.1,284.7c0,0.3-0.2,0.6-0.4,0.6c0,0-0.1,0-0.3,0c-0.7,0-2.5-0.3-4.2-2.7c-4.3-5.8-4.5-18.7-4-28.5
				c0-0.3,0.2-0.6,0.4-0.6h8c0.2,0,0.4,0.3,0.4,0.6V284.7z"/>
			<path class="st22" d="M288.8,281.8c1.4,1.9,2.8,2.2,3.4,2.3v-29.2H285C284.2,271.8,286.6,278.9,288.8,281.8z"/>
		</g>
		<path class="st23" d="M322.6,244.3h-69.9c-0.2,0-0.4,0.3-0.4,0.6s0.2,0.6,0.4,0.6h69.9c0.2,0,0.4-0.3,0.4-0.6
			S322.8,244.3,322.6,244.3z"/>
	</g>
	<g>
		<path d="M473.4,187.6c0,3-0.9,5.3-2.6,6.9c-1.8,1.6-4.3,2.4-7.5,2.4h-2v8.9h-7.2v-26.8h9.3c3.4,0,5.9,0.7,7.6,2.2
			C472.5,182.8,473.4,184.9,473.4,187.6z M461.2,191.1h1.3c1.1,0,2-0.3,2.6-0.9c0.6-0.6,1-1.5,1-2.5c0-1.8-1-2.7-3-2.7h-1.9V191.1z"
			/>
		<path d="M494.1,205.9l-1.3-5h-8.7l-1.4,5h-8l8.7-26.9h9.7l8.9,26.9H494.1z M491.3,194.9l-1.2-4.4c-0.3-1-0.6-2.2-1-3.8
			c-0.4-1.6-0.6-2.7-0.8-3.3c-0.1,0.6-0.3,1.7-0.7,3.1c-0.3,1.4-1,4.2-2.2,8.5H491.3z"/>
		<path d="M530.5,205.9H521l-9.8-18.9H511c0.2,3,0.3,5.2,0.3,6.8v12.1h-6.4v-26.8h9.5l9.8,18.6h0.1c-0.2-2.7-0.3-4.9-0.3-6.5v-12.1
			h6.5V205.9z"/>
		<path d="M548.1,205.9h-7.2V185h-6.5v-5.9h20.3v5.9h-6.5V205.9z"/>
		<path d="M576,197.7c0,1.7-0.4,3.1-1.3,4.4c-0.8,1.3-2.1,2.3-3.6,3c-1.6,0.7-3.5,1.1-5.6,1.1c-1.8,0-3.3-0.1-4.5-0.4
			c-1.2-0.3-2.5-0.7-3.8-1.3v-6.5c1.4,0.7,2.8,1.3,4.3,1.7c1.5,0.4,2.9,0.6,4.1,0.6c1.1,0,1.9-0.2,2.4-0.6c0.5-0.4,0.8-0.9,0.8-1.4
			c0-0.4-0.1-0.7-0.3-1c-0.2-0.3-0.5-0.6-1-0.8c-0.4-0.3-1.6-0.9-3.6-1.7c-1.7-0.8-3.1-1.6-3.9-2.3c-0.9-0.7-1.5-1.6-1.9-2.6
			s-0.6-2.1-0.6-3.4c0-2.5,0.9-4.4,2.7-5.8c1.8-1.4,4.3-2.1,7.4-2.1c2.8,0,5.6,0.6,8.5,1.9l-2.2,5.6c-2.5-1.1-4.7-1.7-6.5-1.7
			c-0.9,0-1.6,0.2-2.1,0.5s-0.6,0.7-0.6,1.2c0,0.5,0.3,1,0.8,1.4c0.5,0.4,2,1.2,4.4,2.3c2.3,1,3.9,2.2,4.8,3.3
			C575.5,194.4,576,195.9,576,197.7z"/>
		<path d="M578.6,198.3v-5.1h34.8v5.1H578.6z"/>
		<path d="M640.7,205.9h-7.3V195H625v10.9h-7.3v-26.8h7.3v9.9h8.4v-9.9h7.3V205.9z"/>
		<path d="M671.5,192.4c0,4.5-1.1,7.9-3.3,10.3c-2.2,2.3-5.5,3.5-9.7,3.5c-4.2,0-7.4-1.2-9.7-3.5c-2.2-2.4-3.4-5.8-3.4-10.3
			c0-4.5,1.1-7.9,3.3-10.2c2.2-2.4,5.5-3.5,9.7-3.5c4.3,0,7.5,1.2,9.7,3.5C670.4,184.5,671.5,187.9,671.5,192.4z M653.1,192.4
			c0,5.2,1.8,7.8,5.4,7.8c1.8,0,3.2-0.6,4.1-1.9c0.9-1.3,1.3-3.2,1.3-5.9c0-2.7-0.4-4.7-1.3-5.9c-0.9-1.3-2.2-1.9-4-1.9
			C654.9,184.6,653.1,187.2,653.1,192.4z"/>
		<path d="M688.2,205.9H681V185h-6.5v-5.9h20.3v5.9h-6.5V205.9z"/>
		<path d="M461.2,235.3v9.8h-7.2v-26.8h8.8c7.3,0,10.9,2.6,10.9,7.9c0,3.1-1.5,5.5-4.5,7.2l7.8,11.7h-8.2l-5.7-9.8H461.2z
			 M461.2,229.9h1.4c2.5,0,3.8-1.1,3.8-3.4c0-1.8-1.2-2.8-3.7-2.8h-1.4V229.9z"/>
		<path d="M479.3,245.1v-26.8h7.3v26.8H479.3z"/>
		<path d="M503.2,229.4h11.6v14.5c-3.1,1.1-6.6,1.6-10.4,1.6c-4.1,0-7.3-1.2-9.6-3.6c-2.3-2.4-3.4-5.8-3.4-10.3
			c0-4.3,1.2-7.7,3.7-10.1s5.9-3.6,10.4-3.6c1.7,0,3.3,0.2,4.8,0.5c1.5,0.3,2.8,0.7,3.9,1.2l-2.3,5.7c-1.9-1-4.1-1.4-6.4-1.4
			c-2.1,0-3.8,0.7-4.9,2.1s-1.7,3.3-1.7,5.9c0,2.5,0.5,4.4,1.6,5.7c1,1.3,2.6,2,4.5,2c1.1,0,2.1-0.1,3-0.3V235h-4.8V229.4z"/>
		<path d="M543.2,245.1h-7.3v-10.9h-8.4v10.9h-7.3v-26.8h7.3v9.9h8.4v-9.9h7.3V245.1z"/>
		<path d="M560.8,245.1h-7.2v-20.9H547v-5.9h20.3v5.9h-6.5V245.1z"/>
		<path d="M606.5,245.1H597l-9.8-18.9H587c0.2,3,0.3,5.2,0.3,6.8v12.1H581v-26.8h9.5l9.8,18.6h0.1c-0.2-2.7-0.3-4.9-0.3-6.5v-12.1
			h6.5V245.1z"/>
		<path d="M637.4,231.7c0,4.5-1.1,7.9-3.3,10.3c-2.2,2.3-5.5,3.5-9.7,3.5c-4.2,0-7.4-1.2-9.7-3.5c-2.2-2.4-3.4-5.8-3.4-10.3
			c0-4.5,1.1-7.9,3.3-10.2c2.2-2.4,5.5-3.5,9.7-3.5c4.3,0,7.5,1.2,9.7,3.5C636.3,223.7,637.4,227.1,637.4,231.7z M618.9,231.7
			c0,5.2,1.8,7.8,5.4,7.8c1.8,0,3.2-0.6,4.1-1.9c0.9-1.3,1.3-3.2,1.3-5.9c0-2.7-0.4-4.7-1.3-5.9c-0.9-1.3-2.2-1.9-4-1.9
			C620.7,223.8,618.9,226.4,618.9,231.7z"/>
		<path d="M671.2,245.1h-8.6l-2.6-11.7c-0.1-0.5-0.3-1.5-0.6-2.9c-0.3-1.5-0.5-2.7-0.6-3.6c-0.1,0.8-0.3,1.8-0.5,3
			c-0.2,1.2-0.4,2.3-0.7,3.3s-1.1,5-2.7,12h-8.6l-6.6-26.8h7l2.9,13.4c0.7,3,1.1,5.3,1.4,7.1c0.2-1.2,0.4-2.9,0.9-5.1
			c0.4-2.1,0.8-3.9,1.1-5.3l2.4-10.1h6.7l2.3,10.1c0.4,1.6,0.8,3.5,1.2,5.6s0.7,3.7,0.8,4.8c0.2-1.4,0.6-3.7,1.3-7.1l3-13.5h7
			L671.2,245.1z"/>
		<path d="M679.9,242.1c0-1.1,0.3-2,1-2.6c0.7-0.6,1.6-0.9,2.9-0.9c1.2,0,2.1,0.3,2.8,0.9c0.6,0.6,1,1.5,1,2.6c0,1.1-0.3,2-1,2.6
			c-0.7,0.6-1.6,0.9-2.8,0.9c-1.2,0-2.2-0.3-2.9-0.9C680.3,244,679.9,243.2,679.9,242.1z"/>
	</g>
	<g>
		<rect id="shop_now_rect" x="211.4" y="301.9" class="st24" width="179.8" height="59.8"/>
		<g>
			<path class="st25" d="M240,337c0,1.2-0.3,2.2-0.9,3.1c-0.6,0.9-1.4,1.6-2.6,2.1c-1.1,0.5-2.4,0.8-3.9,0.8c-1.3,0-2.3-0.1-3.2-0.3
				c-0.8-0.2-1.7-0.5-2.6-0.9v-4.5c1,0.5,2,0.9,3,1.2c1,0.3,2,0.4,2.9,0.4c0.8,0,1.3-0.1,1.7-0.4c0.4-0.3,0.5-0.6,0.5-1
				c0-0.3-0.1-0.5-0.2-0.7c-0.1-0.2-0.4-0.4-0.7-0.6s-1.1-0.6-2.5-1.2c-1.2-0.6-2.1-1.1-2.8-1.6c-0.6-0.5-1.1-1.1-1.4-1.8
				c-0.3-0.7-0.4-1.5-0.4-2.4c0-1.7,0.6-3.1,1.9-4.1c1.3-1,3-1.5,5.2-1.5c1.9,0,3.9,0.5,6,1.4l-1.6,3.9c-1.8-0.8-3.3-1.2-4.6-1.2
				c-0.7,0-1.1,0.1-1.4,0.3c-0.3,0.2-0.4,0.5-0.4,0.9c0,0.4,0.2,0.7,0.6,1c0.4,0.3,1.4,0.8,3.1,1.6c1.6,0.7,2.7,1.5,3.4,2.3
				S240,335.7,240,337z"/>
			<path class="st25" d="M259,342.7h-5.1V335H248v7.7h-5.1v-18.8h5.1v7h5.9v-7h5.1V342.7z"/>
			<path class="st25" d="M280.7,333.3c0,3.2-0.8,5.6-2.3,7.2c-1.6,1.6-3.8,2.5-6.8,2.5c-2.9,0-5.2-0.8-6.8-2.5s-2.4-4.1-2.4-7.2
				c0-3.1,0.8-5.5,2.3-7.2c1.6-1.6,3.8-2.5,6.8-2.5c3,0,5.3,0.8,6.8,2.5C279.9,327.7,280.7,330.1,280.7,333.3z M267.7,333.3
				c0,3.6,1.3,5.5,3.8,5.5c1.3,0,2.2-0.4,2.9-1.3s0.9-2.3,0.9-4.1c0-1.9-0.3-3.3-0.9-4.2c-0.6-0.9-1.6-1.3-2.8-1.3
				C269,327.8,267.7,329.6,267.7,333.3z"/>
			<path class="st25" d="M297.7,329.9c0,2.1-0.6,3.7-1.9,4.9s-3,1.7-5.3,1.7h-1.4v6.2h-5.1v-18.8h6.5c2.4,0,4.2,0.5,5.3,1.6
				S297.7,328,297.7,329.9z M289.1,332.3h0.9c0.8,0,1.4-0.2,1.8-0.6c0.5-0.4,0.7-1,0.7-1.8c0-1.3-0.7-1.9-2.1-1.9h-1.3V332.3z"/>
			<path class="st25" d="M325.4,342.7h-6.7l-6.9-13.2h-0.1c0.2,2.1,0.2,3.7,0.2,4.8v8.5h-4.5v-18.8h6.6L321,337h0.1
				c-0.1-1.9-0.2-3.4-0.2-4.6v-8.5h4.5V342.7z"/>
			<path class="st25" d="M347.1,333.3c0,3.2-0.8,5.6-2.3,7.2c-1.6,1.6-3.8,2.5-6.8,2.5c-2.9,0-5.2-0.8-6.8-2.5s-2.4-4.1-2.4-7.2
				c0-3.1,0.8-5.5,2.3-7.2c1.6-1.6,3.8-2.5,6.8-2.5c3,0,5.3,0.8,6.8,2.5C346.3,327.7,347.1,330.1,347.1,333.3z M334.2,333.3
				c0,3.6,1.3,5.5,3.8,5.5c1.3,0,2.2-0.4,2.9-1.3s0.9-2.3,0.9-4.1c0-1.9-0.3-3.3-0.9-4.2c-0.6-0.9-1.6-1.3-2.8-1.3
				C335.4,327.8,334.2,329.6,334.2,333.3z"/>
			<path class="st25" d="M370.8,342.7h-6l-1.8-8.2c-0.1-0.3-0.2-1-0.4-2c-0.2-1-0.3-1.9-0.4-2.6c-0.1,0.6-0.2,1.2-0.3,2.1
				s-0.3,1.6-0.5,2.3s-0.8,3.5-1.9,8.4h-6l-4.7-18.8h4.9l2,9.4c0.5,2.1,0.8,3.7,1,5c0.1-0.9,0.3-2.1,0.6-3.6
				c0.3-1.5,0.6-2.7,0.8-3.7l1.7-7.1h4.7l1.6,7.1c0.3,1.1,0.6,2.5,0.8,3.9c0.3,1.5,0.5,2.6,0.6,3.3c0.1-1,0.4-2.6,0.9-5l2.1-9.5h4.9
				L370.8,342.7z"/>
		</g>
	</g>
	<g>
		
			<image style="overflow:visible;opacity:0.75;" width="620" height="1040" xlink:href="4A59D1FEE66A8AE4.png"  transform="matrix(0.24 0 0 0.24 665.2737 195.0646)">
		</image>
		<g>
			<rect x="674.4" y="198.6" class="st26" width="135.9" height="236.7"/>
			<rect x="674.4" y="198.6" class="st27" width="135.9" height="236.7"/>
		</g>
	</g>
	<rect x="693" y="407.2" width="100" height="17.9"/>
	<line class="st20" x1="692.5" y1="385.1" x2="727.6" y2="385.1"/>
	<g>
		<path class="st22" d="M726.8,248.4h-9.5l-1,25.3c0.3-0.2,0.7-0.5,1-0.8C723.9,267.6,727,259.3,726.8,248.4z"/>
		<path class="st22" d="M756.2,273.1c0.3,0.3,0.6,0.5,0.9,0.7l-1.8-25.5h-8.6C746.5,259.4,749.7,267.7,756.2,273.1z"/>
		<g>
			<path class="st22" d="M757,282.9l0.2-7.9c-0.4-0.3-0.9-0.7-1.3-1c-4.7-3.9-10.2-11.4-9.8-25.6h-18.6c0.3,14.1-5.1,21.6-9.8,25.5
				c-0.5,0.4-0.9,0.7-1.4,1.1l0.4,9.2l0.7,40.6l-1,44.1l11.8,0.3l3.4-44.8l6.4-49.6l7.1,50.1l4.5,44l12,0.3l-3.7-45.7L757,282.9z
				 M739.3,274.3c0,0.2-0.1,0.3-0.2,0.3c0,0-0.1,0-0.2,0c-0.4,0-1.3-0.1-2.3-1.4c-2.3-3.1-2.5-10.2-2.2-15.5c0-0.2,0.1-0.3,0.2-0.3
				h4.4c0.1,0,0.2,0.2,0.2,0.3V274.3z"/>
			<path class="st22" d="M737,272.7c0.8,1,1.5,1.2,1.9,1.3V258H735C734.5,267.2,735.8,271,737,272.7z"/>
		</g>
		<path class="st23" d="M755.5,252.2h-38.1c-0.1,0-0.2,0.2-0.2,0.3c0,0.2,0.1,0.3,0.2,0.3h38.1c0.1,0,0.2-0.2,0.2-0.3
			C755.6,252.4,755.6,252.2,755.5,252.2z"/>
	</g>
	<g>
		<path class="st26" d="M718,414.6c0,0.9-0.3,1.7-0.8,2.2c-0.6,0.5-1.3,0.8-2.3,0.8h-0.6v2.8H712v-8.4h2.9c1.1,0,1.8,0.2,2.4,0.7
			C717.8,413.1,718,413.7,718,414.6z M714.2,415.7h0.4c0.3,0,0.6-0.1,0.8-0.3c0.2-0.2,0.3-0.5,0.3-0.8c0-0.6-0.3-0.8-0.9-0.8h-0.6
			V415.7z"/>
		<path class="st26" d="M726.5,411.9v5c0,1.1-0.3,1.9-0.9,2.5c-0.6,0.6-1.5,0.9-2.7,0.9c-1.1,0-2-0.3-2.6-0.9s-0.9-1.4-0.9-2.5v-5.1
			h2.3v4.9c0,0.6,0.1,1,0.3,1.3c0.2,0.3,0.5,0.4,1,0.4c0.5,0,0.8-0.1,1-0.4c0.2-0.3,0.3-0.7,0.3-1.3v-4.9H726.5z"/>
		<path class="st26" d="M730.5,417.2v3h-2.3v-8.4h2.7c2.3,0,3.4,0.8,3.4,2.5c0,1-0.5,1.7-1.4,2.2l2.4,3.6h-2.6l-1.8-3H730.5z
			 M730.5,415.6h0.4c0.8,0,1.2-0.3,1.2-1c0-0.6-0.4-0.9-1.2-0.9h-0.4V415.6z"/>
		<path class="st26" d="M739.9,413.7c-0.5,0-1,0.2-1.3,0.7c-0.3,0.4-0.5,1-0.5,1.8c0,1.6,0.6,2.4,1.8,2.4c0.4,0,0.7-0.1,1.1-0.2
			c0.3-0.1,0.7-0.2,1-0.4v1.9c-0.7,0.3-1.5,0.5-2.4,0.5c-1.3,0-2.2-0.4-2.9-1.1c-0.7-0.7-1-1.8-1-3.2c0-0.9,0.2-1.6,0.5-2.3
			s0.8-1.2,1.4-1.5c0.6-0.4,1.3-0.5,2.2-0.5c0.9,0,1.8,0.2,2.6,0.6l-0.7,1.8c-0.3-0.1-0.6-0.3-0.9-0.4
			C740.5,413.7,740.2,413.7,739.9,413.7z"/>
		<path class="st26" d="M750.9,420.3h-2.3v-3.4H746v3.4h-2.3v-8.4h2.3v3.1h2.6v-3.1h2.3V420.3z"/>
		<path class="st26" d="M757.8,420.3l-0.4-1.6h-2.7l-0.4,1.6h-2.5l2.7-8.4h3l2.8,8.4H757.8z M756.9,416.9l-0.4-1.4
			c-0.1-0.3-0.2-0.7-0.3-1.2c-0.1-0.5-0.2-0.8-0.2-1c0,0.2-0.1,0.5-0.2,1c-0.1,0.4-0.3,1.3-0.7,2.6H756.9z"/>
		<path class="st26" d="M766.7,417.8c0,0.5-0.1,1-0.4,1.4c-0.3,0.4-0.6,0.7-1.1,0.9c-0.5,0.2-1.1,0.3-1.7,0.3c-0.6,0-1,0-1.4-0.1
			s-0.8-0.2-1.2-0.4v-2c0.4,0.2,0.9,0.4,1.3,0.5c0.5,0.1,0.9,0.2,1.3,0.2c0.3,0,0.6-0.1,0.7-0.2s0.2-0.3,0.2-0.4
			c0-0.1,0-0.2-0.1-0.3c-0.1-0.1-0.2-0.2-0.3-0.3c-0.1-0.1-0.5-0.3-1.1-0.5c-0.5-0.2-1-0.5-1.2-0.7s-0.5-0.5-0.6-0.8
			c-0.1-0.3-0.2-0.7-0.2-1.1c0-0.8,0.3-1.4,0.8-1.8c0.6-0.4,1.3-0.6,2.3-0.6c0.9,0,1.7,0.2,2.6,0.6l-0.7,1.7c-0.8-0.4-1.5-0.5-2-0.5
			c-0.3,0-0.5,0.1-0.6,0.2c-0.1,0.1-0.2,0.2-0.2,0.4c0,0.2,0.1,0.3,0.3,0.4c0.2,0.1,0.6,0.4,1.4,0.7c0.7,0.3,1.2,0.7,1.5,1
			S766.7,417.2,766.7,417.8z"/>
		<path class="st26" d="M772.9,420.3h-5v-8.4h5v1.8h-2.7v1.3h2.5v1.8h-2.5v1.6h2.7V420.3z"/>
	</g>
	<g>
		<g>
			<defs>
				<path id="SVGID_39_" d="M700.1,221.1v-2h-2.5C698.7,219.4,699.5,220.1,700.1,221.1z M700.1,213.6h4.8v9.9h-4.8v-0.1
					c-1.1-1.7-2.7-3-4.8-3.9v4h-4.8v-9.9h4.8v4h4.8C700.1,217.6,700.1,213.6,700.1,213.6z"/>
			</defs>
			<clipPath id="SVGID_40_">
				<use xlink:href="#SVGID_39_"  style="overflow:visible;"/>
			</clipPath>
			<rect x="688.6" y="211.6" class="st28" width="18.3" height="13.9"/>
		</g>
		<g>
			<defs>
				<path id="SVGID_41_" d="M720.3,221.6v1.5c-0.8,0.3-2,0.5-3.6,0.5c-0.6,0-1.2,0-1.7-0.2c-0.7-0.2-1.2-0.4-1.5-0.6
					c-1,0.6-2.1,0.8-3.5,0.8c-1,0-1.8-0.2-2.7-0.5c-1.1-0.5-1.6-1.1-1.6-1.9v-4.2h4.7v3.6c0,0.4,0.1,0.6,0.4,0.8
					c0.2,0.2,0.5,0.3,0.9,0.3c0.4,0,0.6-0.1,0.9-0.3c0.2-0.2,0.4-0.5,0.4-0.8v-3.6h4.8v3.7c0,0.4,0.1,0.6,0.4,0.8
					c0.2,0.2,0.6,0.3,0.9,0.3c0.2,0,0.4,0,0.6-0.1C720.1,221.6,720.3,221.6,720.3,221.6z"/>
			</defs>
			<clipPath id="SVGID_42_">
				<use xlink:href="#SVGID_41_"  style="overflow:visible;"/>
			</clipPath>
			<rect x="703.8" y="214.9" class="st29" width="18.5" height="10.6"/>
		</g>
		<g>
			<defs>
				<path id="SVGID_43_" d="M732.7,219h-1.8c0,1.8-0.6,3.1-1.7,3.8c-0.9,0.5-2.3,0.8-4.3,0.8c-1,0-1.9-0.2-2.8-0.7
					c-1.2-0.5-1.7-1.2-1.7-2v-7.3h4.8v6.3c0,0.5,0.2,0.9,0.5,1.3c0.4,0.4,0.8,0.5,1.2,0.5c0.6,0,1.1-0.2,1.5-0.6s0.6-0.9,0.6-1.5
					v-0.6h-0.2c-0.5,0-1-0.1-1.3-0.4c-0.4-0.3-0.7-0.7-0.7-1.2c0-0.5,0.2-0.9,0.6-1.2c0.4-0.2,0.8-0.4,1.3-0.4
					c0.4,0,0.8,0.1,1.2,0.2c0.4,0.2,0.8,0.4,1,0.7h1.9V219z"/>
			</defs>
			<clipPath id="SVGID_44_">
				<use xlink:href="#SVGID_43_"  style="overflow:visible;"/>
			</clipPath>
			<rect x="718.3" y="211.7" class="st30" width="16.3" height="14"/>
		</g>
		<g>
			<defs>
				<path id="SVGID_45_" d="M745.4,226.1h-4.4V223c-0.6,0.4-1.7,0.6-3.4,0.6c-1.2,0-2.2-0.2-3.2-0.7c-1.2-0.6-1.8-1.4-1.8-2.4
					c0-1.2,0.5-2.1,1.6-2.8c0.9-0.6,1.9-0.8,3.2-0.8h3v1.9h-0.4c-0.6,0-1.2,0.1-1.6,0.2c-0.6,0.2-0.9,0.6-0.9,1.2
					c0,0.9,0.6,1.3,1.9,1.3c0.5,0,0.8-0.1,1.2-0.4c0.3-0.2,0.4-0.6,0.4-1V219v-1.2V217h4.4L745.4,226.1z"/>
			</defs>
			<clipPath id="SVGID_46_">
				<use xlink:href="#SVGID_45_"  style="overflow:visible;"/>
			</clipPath>
			<rect x="730.6" y="214.9" class="st31" width="16.8" height="13.2"/>
		</g>
		<g>
			<defs>
				<path id="SVGID_47_" d="M760.9,221.6v1.5c-0.8,0.3-2,0.5-3.6,0.5c-0.6,0-1.2,0-1.7-0.2c-0.7-0.2-1.2-0.4-1.5-0.6
					c-1,0.6-2.1,0.8-3.5,0.8c-1,0-1.8-0.2-2.7-0.5c-1.1-0.5-1.6-1.1-1.6-1.9v-4.2h4.7v3.6c0,0.4,0.1,0.6,0.4,0.8
					c0.2,0.2,0.5,0.3,0.9,0.3c0.4,0,0.6-0.1,0.9-0.3c0.2-0.2,0.4-0.5,0.4-0.8v-3.6h4.8v3.7c0,0.4,0.1,0.6,0.4,0.8s0.6,0.3,0.9,0.3
					c0.2,0,0.4,0,0.6-0.1C760.6,221.6,760.8,221.6,760.9,221.6z"/>
			</defs>
			<clipPath id="SVGID_48_">
				<use xlink:href="#SVGID_47_"  style="overflow:visible;"/>
			</clipPath>
			<rect x="744.3" y="214.9" class="st32" width="18.5" height="10.6"/>
		</g>
		<g>
			<defs>
				<path id="SVGID_49_" d="M768.7,223.2c-0.3,0.2-0.7,0.3-1.3,0.4c-0.5,0.1-1,0.2-1.3,0.2c-3.1,0-4.6-0.8-4.6-2.2V217h4.8v4.1
					c0,0.6,0.4,0.8,1.1,0.8c0.4,0,0.8-0.1,1.4-0.4V223.2z M766.7,214.6c0,0.4-0.4,0.8-1.1,1c-0.6,0.2-1.1,0.3-1.7,0.3
					s-1.1-0.1-1.7-0.3c-0.7-0.2-1.1-0.6-1.1-1c0-0.4,0.4-0.8,1.1-1c0.5-0.2,1.1-0.2,1.7-0.2c0.6,0,1.1,0.1,1.7,0.2
					C766.3,213.8,766.7,214.1,766.7,214.6z"/>
			</defs>
			<clipPath id="SVGID_50_">
				<use xlink:href="#SVGID_49_"  style="overflow:visible;"/>
			</clipPath>
			<rect x="759.2" y="211.3" class="st33" width="11.6" height="14.4"/>
		</g>
		<g>
			<defs>
				<path id="SVGID_51_" d="M780.8,223.2c-0.9,0.3-2,0.4-3.2,0.4c-1,0-1.8-0.2-2.5-0.5c-0.9-0.4-1.3-1.1-1.3-1.9
					c0-0.8,0.5-1.5,1.5-2.1h-3.1c-0.4,2.2-1.5,3.6-3.6,4.1v-1.5c0.6-0.2,1-0.6,1.3-1c0.2-0.4,0.4-0.9,0.5-1.5h-0.2
					c-0.4,0-0.8-0.1-1.2-0.4c-0.4-0.3-0.6-0.6-0.6-1c0-0.4,0.2-0.8,0.6-1.2c0.4-0.3,0.8-0.4,1.2-0.4c0.3,0,0.7,0.1,1,0.2
					c0.4,0.2,0.6,0.4,0.8,0.7h8v2h-1.3c-0.5,0.4-0.8,0.8-0.8,1.2c0,0.4,0.2,0.7,0.6,1c0.4,0.3,0.8,0.4,1.2,0.4c0.4,0,0.7,0,1-0.1
					L780.8,223.2L780.8,223.2z"/>
			</defs>
			<clipPath id="SVGID_52_">
				<use xlink:href="#SVGID_51_"  style="overflow:visible;"/>
			</clipPath>
			<rect x="766.4" y="214.1" class="st34" width="16.3" height="11.5"/>
		</g>
		<g>
			<defs>
				<path id="SVGID_53_" d="M793.4,221.6v1.5c-1.5,0.4-3.5,0.6-5.9,0.6c-1.3,0-2.5-0.1-3.5-0.3c-1.7-0.4-2.5-0.9-2.5-1.7
					c0-0.8,0.9-1.4,2.6-1.9c-0.4-0.1-0.8-0.3-1.1-0.5c-0.4-0.3-0.7-0.6-0.7-0.9c0-0.9,1-1.5,3.1-1.8c1.2-0.2,2.5-0.3,4.2-0.3
					c0.7,0,1.3,0,1.9,0v1.6c-0.6,0-1.3,0-1.9,0c-1,0.1-1.5,0.2-1.5,0.5c0,0.2,0.3,0.4,0.8,0.4c0.4,0.1,0.8,0.1,1.1,0.1h0.2v1
					c-2,0.2-3,0.6-3,1.1c0,0.5,1.1,0.8,3.2,0.8C791.7,221.9,792.7,221.8,793.4,221.6z"/>
			</defs>
			<clipPath id="SVGID_54_">
				<use xlink:href="#SVGID_53_"  style="overflow:visible;"/>
			</clipPath>
			<rect x="779.5" y="214.4" class="st35" width="15.9" height="11.3"/>
		</g>
	</g>
</g>
</svg>
