<?xml version="1.0" encoding="utf-8"?>
<!-- Generator: Adobe Illustrator 19.1.0, SVG Export Plug-In . SVG Version: 6.00 Build 0)  -->
<!DOCTYPE svg PUBLIC "-//W3C//DTD SVG 1.1//EN" "http://www.w3.org/Graphics/SVG/1.1/DTD/svg11.dtd">
<svg version="1.1" id="Layer_1" xmlns="http://www.w3.org/2000/svg" xmlns:xlink="http://www.w3.org/1999/xlink" x="0px" y="0px"
	 viewBox="0 0 1000 600" style="enable-background:new 0 0 1000 600;" xml:space="preserve">
<style type="text/css">
	.st0{fill:#FFFFFF;}
</style>
<g>
	<g>
		<path class="st0" d="M369.5,93.2l-26.1,113.3l-51.5,104.2c-3,8.5,1.4,17.9,9.9,20.9l102,36.4c8.5,3,17.9-1.4,20.9-9.9l26.1-113.3
			l51.5-104.2c3-8.5-1.4-17.9-9.9-20.9l-102-36.4C382,80.3,372.6,84.8,369.5,93.2z"/>
		<path class="st0" d="M416.2,402.3l6.3-17.7c0.7-2-0.3-4.3-2.4-5l-140.8-50.3c-2-0.7-4.3,0.3-5,2.4l-6.3,17.7c-0.7,2,0.3,4.3,2.4,5
			l140.8,50.3C413.2,405.4,415.4,404.3,416.2,402.3z"/>
		<path class="st0" d="M517.3,119.1l6.3-17.7c0.7-2-0.3-4.3-2.4-5L380.4,46.1c-2-0.7-4.3,0.3-5,2.4l-6.3,17.7c-0.7,2,0.3,4.3,2.4,5
			l140.8,50.3C514.3,122.2,516.6,121.1,517.3,119.1z"/>
	</g>
	<g>
		<path class="st0" d="M795.6,368L795.6,368c2.3-6.4-1.4-13.7-8.3-16.2L489.8,232.6c-6.9-2.5-18.5,12.4-20.8,18.8l0,0
			c-2.3,6.4-2.7,25.3,4.2,27.7l305.7,96.1C785.8,377.7,793.3,374.4,795.6,368z"/>
		<circle class="st0" cx="795.6" cy="368" r="24.7"/>
		<path class="st0" d="M513.9,227.6l-25.5,71.5c-0.7,1.9-2.7,2.8-4.6,2.2l-16.3-5.8c-1.9-0.7-2.8-2.7-2.2-4.6l25.5-71.5
			c0.7-1.9,2.7-2.8,4.6-2.2l16.3,5.8C513.6,223.7,514.5,225.7,513.9,227.6z"/>
	</g>
	<path class="st0" d="M482.4,552.7H186.9c-4,0-7.2-3.2-7.2-7.2v-34.6c0-4,3.2-7.2,7.2-7.2h295.5c4,0,7.2,3.2,7.2,7.2v34.6
		C489.6,549.5,486.3,552.7,482.4,552.7z"/>
	<path class="st0" d="M440.7,493.1H228.5c-1.8,0-3.4-1.5-3.4-3.4v-16.1c0-1.8,1.5-3.4,3.4-3.4h212.2c1.8,0,3.4,1.5,3.4,3.4v16.1
		C444.1,491.6,442.6,493.1,440.7,493.1z"/>
</g>
</svg>
