<?xml version="1.0" encoding="utf-8"?>
<!-- Generator: Adobe Illustrator 19.1.0, SVG Export Plug-In . SVG Version: 6.00 Build 0)  -->
<!DOCTYPE svg PUBLIC "-//W3C//DTD SVG 1.1//EN" "http://www.w3.org/Graphics/SVG/1.1/DTD/svg11.dtd">
<svg version="1.1" id="Layer_1" xmlns="http://www.w3.org/2000/svg" xmlns:xlink="http://www.w3.org/1999/xlink" x="0px" y="0px"
	 viewBox="0 0 2000 770" style="enable-background:new 0 0 2000 770;" xml:space="preserve">
<style type="text/css">
	.st0{fill:#FFFFFF;}
	.st1{fill:#495259;}
	.st2{fill:#939598;}
	.st3{fill:#B1B3B6;}
	.st4{fill:#E6E7E8;}
	.st5{fill:#183B51;}
	.st6{fill:#80B1D1;}
	.st7{fill:none;stroke:#FAFCFD;stroke-width:8.0118;stroke-linecap:round;stroke-miterlimit:10;}
	.st8{fill:#FAFCFD;}
	.st9{opacity:0.15;enable-background:new    ;}
	.st10{clip-path:url(#SVGID_2_);}
	.st11{clip-path:url(#SVGID_4_);}
	.st12{clip-path:url(#SVGID_6_);fill:#3F3F3F;}
	.st13{clip-path:url(#SVGID_8_);fill:#3F3F3F;}
	.st14{clip-path:url(#SVGID_10_);fill:#E9E9E9;}
	.st15{clip-path:url(#SVGID_12_);fill:#E9E9E9;}
	.st16{clip-path:url(#SVGID_14_);fill:#FFFFFF;}
	.st17{clip-path:url(#SVGID_16_);fill:#B5B4B4;}
	.st18{clip-path:url(#SVGID_18_);fill:#F2F2F2;}
	.st19{clip-path:url(#SVGID_20_);fill:#454545;}
	.st20{clip-path:url(#SVGID_22_);fill:#DA3628;}
	.st21{clip-path:url(#SVGID_24_);fill:#DA3628;}
	.st22{clip-path:url(#SVGID_26_);fill:#DA3628;}
	.st23{clip-path:url(#SVGID_28_);fill:#DA3628;}
	.st24{clip-path:url(#SVGID_30_);fill:#DA3628;}
	.st25{clip-path:url(#SVGID_32_);fill:#DA3628;}
	.st26{clip-path:url(#SVGID_34_);fill:#DA3628;}
	.st27{clip-path:url(#SVGID_36_);fill:#DA3628;}
	.st28{fill:none;stroke:#FDFEFF;stroke-width:1.9888;stroke-miterlimit:10;}
	.st29{fill:none;stroke:#010101;stroke-width:1.9888;stroke-miterlimit:10;}
	
		.st30{clip-path:url(#SVGID_38_);fill:#D4D6D8;stroke:#000000;stroke-width:0.7955;stroke-linecap:round;stroke-linejoin:round;stroke-miterlimit:10;}
	.st31{fill:#1E448B;}
	.st32{fill:#F8F7F8;}
	.st33{fill:#FFFFFF;fill-opacity:0.67;stroke:#000000;stroke-width:0.7955;stroke-miterlimit:10;}
	.st34{fill:#0B0B0B;}
	.st35{fill:none;stroke:#000000;stroke-width:0.7955;stroke-miterlimit:10;}
	.st36{clip-path:url(#SVGID_40_);fill:#DA3628;}
	.st37{clip-path:url(#SVGID_42_);fill:#DA3628;}
	.st38{clip-path:url(#SVGID_44_);fill:#DA3628;}
	.st39{clip-path:url(#SVGID_46_);fill:#DA3628;}
	.st40{clip-path:url(#SVGID_48_);fill:#DA3628;}
	.st41{clip-path:url(#SVGID_50_);fill:#DA3628;}
	.st42{clip-path:url(#SVGID_52_);fill:#DA3628;}
	.st43{clip-path:url(#SVGID_54_);fill:#DA3628;}
	.st44{fill:none;stroke:#183B51;stroke-width:9.6369;stroke-linecap:round;stroke-miterlimit:10;}
	.st45{fill:none;stroke:#183B51;stroke-width:9.5953;stroke-linecap:round;stroke-miterlimit:10;}
	.st46{enable-background:new    ;}
	.st47{fill:#4F605F;}
	.st48{fill:#364545;}
	.st49{fill:#3B4A4A;}
	.st50{fill:none;stroke:#77797B;stroke-width:7;stroke-linecap:round;stroke-linejoin:round;stroke-miterlimit:10;}
	.st51{fill:#A39F9F;}
	.st52{fill:#438CCB;}
	.st53{fill:#7EB0D1;stroke:#FFFFFF;stroke-width:4.3631;stroke-miterlimit:10;}
	.st54{fill:none;stroke:#D2D3D4;stroke-linecap:round;stroke-linejoin:round;stroke-miterlimit:10;}
	.st55{fill:#764E3D;}
	.st56{fill:#553628;}
	.st57{fill:#4B2E20;}
	.st58{fill:none;stroke:#77797B;stroke-width:8;stroke-linecap:round;stroke-linejoin:round;stroke-miterlimit:10;}
	.st59{fill:#C1282D;}
	.st60{fill:#7EB0D1;stroke:#FFFFFF;stroke-width:4.8671;stroke-miterlimit:10;}
	.st61{fill:none;stroke:#D2D3D4;stroke-width:2;stroke-linecap:round;stroke-linejoin:round;stroke-miterlimit:10;}
</style>
<g>
	<path class="st0" d="M599.2,235.3c0,1.1-0.3,2.1-0.8,3c-0.6,0.9-1.4,1.5-2.4,2c-1.1,0.5-2.3,0.7-3.7,0.7c-1.2,0-2.2-0.1-3-0.3
		c-0.8-0.2-1.7-0.5-2.5-0.9v-4.3c0.9,0.5,1.9,0.8,2.9,1.1s1.9,0.4,2.7,0.4c0.7,0,1.2-0.1,1.6-0.4c0.3-0.2,0.5-0.6,0.5-1
		c0-0.2-0.1-0.5-0.2-0.6c-0.1-0.2-0.4-0.4-0.6-0.6s-1.1-0.6-2.4-1.2c-1.2-0.5-2-1-2.6-1.5c-0.6-0.5-1-1.1-1.3-1.7
		c-0.3-0.6-0.4-1.4-0.4-2.3c0-1.7,0.6-2.9,1.8-3.9c1.2-0.9,2.9-1.4,5-1.4c1.9,0,3.7,0.4,5.7,1.3l-1.5,3.7c-1.7-0.8-3.1-1.2-4.3-1.2
		c-0.6,0-1.1,0.1-1.4,0.3s-0.4,0.5-0.4,0.8c0,0.4,0.2,0.7,0.5,0.9c0.4,0.3,1.4,0.8,3,1.5c1.5,0.7,2.6,1.4,3.2,2.2
		C598.9,233,599.2,234,599.2,235.3z"/>
	<path class="st0" d="M612.6,240.7H602v-17.9h10.6v3.9h-5.8v2.8h5.4v3.9h-5.4v3.4h5.8V240.7z"/>
	<path class="st0" d="M615.8,240.7v-17.9h4.8v14h6.9v3.9H615.8z"/>
	<path class="st0" d="M630.4,240.7v-17.9h4.8v14h6.9v3.9H630.4z"/>
	<path class="st0" d="M659.4,240.7h-4.8v-14h-4.4v-4h13.6v4h-4.4V240.7z"/>
	<path class="st0" d="M683.1,231.7c0,3-0.7,5.3-2.2,6.9s-3.6,2.4-6.5,2.4c-2.8,0-5-0.8-6.5-2.4s-2.2-3.9-2.2-6.9
		c0-3,0.7-5.3,2.2-6.8s3.7-2.4,6.5-2.4c2.9,0,5,0.8,6.5,2.3C682.4,226.4,683.1,228.7,683.1,231.7z M670.8,231.7
		c0,3.5,1.2,5.2,3.6,5.2c1.2,0,2.1-0.4,2.7-1.3c0.6-0.8,0.9-2.2,0.9-3.9c0-1.8-0.3-3.1-0.9-4c-0.6-0.9-1.5-1.3-2.7-1.3
		C672,226.5,670.8,228.2,670.8,231.7z"/>
</g>
<g>
	<path class="st0" d="M1325.2,235.3c0,1.1-0.3,2.1-0.8,3c-0.6,0.9-1.4,1.5-2.4,2c-1.1,0.5-2.3,0.7-3.7,0.7c-1.2,0-2.2-0.1-3-0.3
		c-0.8-0.2-1.7-0.5-2.5-0.9v-4.3c0.9,0.5,1.9,0.8,2.9,1.1c1,0.3,1.9,0.4,2.7,0.4c0.7,0,1.2-0.1,1.6-0.4c0.3-0.2,0.5-0.6,0.5-1
		c0-0.2-0.1-0.5-0.2-0.6c-0.1-0.2-0.4-0.4-0.7-0.6c-0.3-0.2-1.1-0.6-2.4-1.2c-1.2-0.5-2-1-2.6-1.5c-0.6-0.5-1-1.1-1.3-1.7
		c-0.3-0.6-0.4-1.4-0.4-2.3c0-1.7,0.6-2.9,1.8-3.9c1.2-0.9,2.9-1.4,5-1.4c1.9,0,3.7,0.4,5.7,1.3l-1.5,3.7c-1.7-0.8-3.1-1.2-4.3-1.2
		c-0.6,0-1.1,0.1-1.4,0.3s-0.4,0.5-0.4,0.8c0,0.4,0.2,0.7,0.5,0.9s1.4,0.8,3,1.5c1.5,0.7,2.6,1.4,3.2,2.2
		C1324.9,233,1325.2,234,1325.2,235.3z"/>
	<path class="st0" d="M1338.6,240.7H1328v-17.9h10.6v3.9h-5.8v2.8h5.4v3.9h-5.4v3.4h5.8V240.7z"/>
	<path class="st0" d="M1341.8,240.7v-17.9h4.8v14h6.9v3.9H1341.8z"/>
	<path class="st0" d="M1356.4,240.7v-17.9h4.8v14h6.9v3.9H1356.4z"/>
	<path class="st0" d="M1385.4,240.7h-4.8v-14h-4.4v-4h13.6v4h-4.4V240.7z"/>
	<path class="st0" d="M1409.1,231.7c0,3-0.7,5.3-2.2,6.9s-3.6,2.4-6.5,2.4c-2.8,0-5-0.8-6.5-2.4s-2.2-3.9-2.2-6.9
		c0-3,0.7-5.3,2.2-6.8c1.5-1.6,3.7-2.4,6.5-2.4c2.9,0,5,0.8,6.5,2.3C1408.4,226.4,1409.1,228.7,1409.1,231.7z M1396.8,231.7
		c0,3.5,1.2,5.2,3.6,5.2c1.2,0,2.1-0.4,2.7-1.3c0.6-0.8,0.9-2.2,0.9-3.9c0-1.8-0.3-3.1-0.9-4c-0.6-0.9-1.5-1.3-2.7-1.3
		C1398,226.5,1396.8,228.2,1396.8,231.7z"/>
</g>
<g>
	<path class="st0" d="M628.7,554.1c-1.2,0-2.1,0.5-2.7,1.4c-0.6,0.9-1,2.2-1,3.9c0,3.4,1.3,5.2,3.9,5.2c0.8,0,1.6-0.1,2.3-0.3
		c0.7-0.2,1.5-0.5,2.2-0.8v4.1c-1.5,0.7-3.2,1-5.1,1c-2.7,0-4.8-0.8-6.2-2.4c-1.4-1.6-2.2-3.8-2.2-6.8c0-1.9,0.3-3.5,1-4.9
		s1.7-2.5,3-3.2s2.9-1.1,4.6-1.1c1.9,0,3.8,0.4,5.6,1.3l-1.5,3.8c-0.7-0.3-1.3-0.6-2-0.8C630.2,554.2,629.5,554.1,628.7,554.1z"/>
	<path class="st0" d="M653.8,559.3c0,3-0.7,5.3-2.2,6.9c-1.5,1.6-3.6,2.4-6.5,2.4c-2.8,0-5-0.8-6.5-2.4s-2.2-3.9-2.2-6.9
		c0-3,0.7-5.3,2.2-6.8s3.7-2.4,6.5-2.4c2.9,0,5,0.8,6.5,2.3C653,554,653.8,556.3,653.8,559.3z M641.4,559.3c0,3.5,1.2,5.2,3.6,5.2
		c1.2,0,2.1-0.4,2.7-1.3c0.6-0.8,0.9-2.2,0.9-3.9c0-1.8-0.3-3.1-0.9-4c-0.6-0.9-1.5-1.3-2.7-1.3C642.7,554,641.4,555.8,641.4,559.3z
		"/>
	<path class="st0" d="M674.1,568.3h-6.3l-6.5-12.6h-0.1c0.2,2,0.2,3.5,0.2,4.5v8.1H657v-17.9h6.3l6.5,12.5h0.1
		c-0.1-1.8-0.2-3.3-0.2-4.4v-8.1h4.3V568.3z"/>
	<path class="st0" d="M688,550.3h5.4l-5.9,17.9h-5.7l-5.8-17.9h5.4l2.4,9.1c0.5,2,0.8,3.4,0.8,4.2c0.1-0.6,0.2-1.3,0.3-2.1
		s0.3-1.5,0.5-2L688,550.3z"/>
	<path class="st0" d="M706,568.3h-10.6v-17.9H706v3.9h-5.8v2.8h5.4v3.9h-5.4v3.4h5.8V568.3z"/>
	<path class="st0" d="M714,561.7v6.5h-4.8v-17.9h5.9c4.9,0,7.3,1.8,7.3,5.3c0,2.1-1,3.7-3,4.8l5.2,7.8H719l-3.8-6.5H714z M714,558.1
		h0.9c1.7,0,2.5-0.7,2.5-2.2c0-1.2-0.8-1.9-2.5-1.9h-1V558.1z"/>
	<path class="st0" d="M737.9,562.8c0,1.1-0.3,2.1-0.8,3s-1.4,1.5-2.4,2c-1.1,0.5-2.3,0.7-3.7,0.7c-1.2,0-2.2-0.1-3-0.3
		c-0.8-0.2-1.7-0.5-2.5-0.9v-4.3c0.9,0.5,1.9,0.8,2.9,1.1s1.9,0.4,2.7,0.4c0.7,0,1.2-0.1,1.6-0.4c0.3-0.2,0.5-0.6,0.5-1
		c0-0.2-0.1-0.5-0.2-0.6c-0.1-0.2-0.4-0.4-0.6-0.6c-0.3-0.2-1.1-0.6-2.4-1.2c-1.2-0.5-2-1-2.6-1.5c-0.6-0.5-1-1.1-1.3-1.7
		c-0.3-0.6-0.4-1.4-0.4-2.3c0-1.7,0.6-2.9,1.8-3.9c1.2-0.9,2.9-1.4,5-1.4c1.9,0,3.7,0.4,5.7,1.3l-1.5,3.7c-1.7-0.8-3.1-1.2-4.3-1.2
		c-0.6,0-1.1,0.1-1.4,0.3s-0.4,0.5-0.4,0.8c0,0.4,0.2,0.7,0.5,0.9c0.4,0.3,1.4,0.8,3,1.5c1.5,0.7,2.6,1.4,3.2,2.2
		S737.9,561.6,737.9,562.8z"/>
	<path class="st0" d="M740.6,568.3v-17.9h4.9v17.9H740.6z"/>
	<path class="st0" d="M766.1,559.3c0,3-0.7,5.3-2.2,6.9c-1.5,1.6-3.6,2.4-6.5,2.4c-2.8,0-5-0.8-6.5-2.4s-2.2-3.9-2.2-6.9
		c0-3,0.7-5.3,2.2-6.8s3.7-2.4,6.5-2.4c2.9,0,5,0.8,6.5,2.3C765.4,554,766.1,556.3,766.1,559.3z M753.8,559.3c0,3.5,1.2,5.2,3.6,5.2
		c1.2,0,2.1-0.4,2.7-1.3c0.6-0.8,0.9-2.2,0.9-3.9c0-1.8-0.3-3.1-0.9-4c-0.6-0.9-1.5-1.3-2.7-1.3C755,554,753.8,555.8,753.8,559.3z"
		/>
	<path class="st0" d="M786.4,568.3h-6.3l-6.5-12.6h-0.1c0.2,2,0.2,3.5,0.2,4.5v8.1h-4.3v-17.9h6.3l6.5,12.5h0.1
		c-0.1-1.8-0.2-3.3-0.2-4.4v-8.1h4.3V568.3z"/>
	<path class="st0" d="M802,562.8c0,1.1-0.3,2.1-0.8,3s-1.4,1.5-2.4,2c-1.1,0.5-2.3,0.7-3.7,0.7c-1.2,0-2.2-0.1-3-0.3
		c-0.8-0.2-1.7-0.5-2.5-0.9v-4.3c0.9,0.5,1.9,0.8,2.9,1.1s1.9,0.4,2.7,0.4c0.7,0,1.2-0.1,1.6-0.4c0.3-0.2,0.5-0.6,0.5-1
		c0-0.2-0.1-0.5-0.2-0.6c-0.1-0.2-0.4-0.4-0.6-0.6c-0.3-0.2-1.1-0.6-2.4-1.2c-1.2-0.5-2-1-2.6-1.5c-0.6-0.5-1-1.1-1.3-1.7
		c-0.3-0.6-0.4-1.4-0.4-2.3c0-1.7,0.6-2.9,1.8-3.9c1.2-0.9,2.9-1.4,5-1.4c1.9,0,3.7,0.4,5.7,1.3l-1.5,3.7c-1.7-0.8-3.1-1.2-4.3-1.2
		c-0.6,0-1.1,0.1-1.4,0.3s-0.4,0.5-0.4,0.8c0,0.4,0.2,0.7,0.5,0.9c0.4,0.3,1.4,0.8,3,1.5c1.5,0.7,2.6,1.4,3.2,2.2
		S802,561.6,802,562.8z"/>
</g>
<g>
	<path class="st0" d="M529.3,607.3c0,1.1-0.3,2.1-0.8,3c-0.6,0.9-1.4,1.5-2.4,2s-2.3,0.7-3.7,0.7c-1.2,0-2.2-0.1-3-0.3
		s-1.7-0.5-2.5-0.9v-4.3c0.9,0.5,1.9,0.8,2.9,1.1s1.9,0.4,2.7,0.4c0.7,0,1.2-0.1,1.6-0.4c0.3-0.2,0.5-0.6,0.5-1
		c0-0.2-0.1-0.5-0.2-0.6s-0.4-0.4-0.6-0.6c-0.3-0.2-1.1-0.6-2.4-1.2c-1.2-0.5-2-1-2.6-1.5c-0.6-0.5-1-1.1-1.3-1.7
		c-0.3-0.6-0.4-1.4-0.4-2.3c0-1.7,0.6-2.9,1.8-3.9s2.9-1.4,5-1.4c1.9,0,3.7,0.4,5.7,1.3l-1.5,3.7c-1.7-0.8-3.1-1.2-4.3-1.2
		c-0.6,0-1.1,0.1-1.4,0.3s-0.4,0.5-0.4,0.8c0,0.4,0.2,0.7,0.5,0.9c0.4,0.3,1.4,0.8,3,1.5c1.5,0.7,2.6,1.4,3.2,2.2
		C529,605,529.3,606.1,529.3,607.3z"/>
	<path class="st0" d="M548.8,603.7c0,3-0.7,5.3-2.2,6.9c-1.5,1.6-3.6,2.4-6.5,2.4c-2.8,0-5-0.8-6.5-2.4s-2.2-3.9-2.2-6.9
		c0-3,0.7-5.3,2.2-6.8s3.7-2.4,6.5-2.4c2.9,0,5,0.8,6.5,2.3C548.1,598.4,548.8,600.7,548.8,603.7z M536.5,603.7
		c0,3.5,1.2,5.2,3.6,5.2c1.2,0,2.1-0.4,2.7-1.3c0.6-0.8,0.9-2.2,0.9-3.9c0-1.8-0.3-3.1-0.9-4c-0.6-0.9-1.5-1.3-2.7-1.3
		C537.7,598.5,536.5,600.2,536.5,603.7z"/>
	<path class="st0" d="M560.1,598.5c-1.2,0-2.1,0.5-2.7,1.4c-0.6,0.9-1,2.2-1,3.9c0,3.4,1.3,5.2,3.9,5.2c0.8,0,1.6-0.1,2.3-0.3
		s1.5-0.5,2.2-0.8v4.1c-1.5,0.7-3.2,1-5.1,1c-2.7,0-4.8-0.8-6.2-2.4c-1.4-1.6-2.2-3.8-2.2-6.8c0-1.9,0.3-3.5,1-4.9
		c0.7-1.4,1.7-2.5,3-3.2s2.9-1.1,4.6-1.1c1.9,0,3.8,0.4,5.6,1.3l-1.5,3.8c-0.7-0.3-1.3-0.6-2-0.8
		C561.5,598.6,560.8,598.5,560.1,598.5z"/>
	<path class="st0" d="M568.4,612.7v-17.9h4.9v17.9H568.4z"/>
	<path class="st0" d="M588.1,612.7l-0.9-3.4h-5.8l-0.9,3.4h-5.3l5.8-18h6.5l5.9,18H588.1z M586.2,605.4l-0.8-2.9
		c-0.2-0.7-0.4-1.5-0.7-2.5c-0.3-1-0.4-1.8-0.5-2.2c-0.1,0.4-0.2,1.1-0.4,2.1s-0.7,2.8-1.4,5.7H586.2z"/>
	<path class="st0" d="M595.3,612.7v-17.9h4.8v14h6.9v3.9H595.3z"/>
	<path class="st0" d="M608.5,607.9v-3.8h6.9v3.8H608.5z"/>
	<path class="st0" d="M622.8,606.2v6.5h-4.8v-17.9h5.9c4.9,0,7.3,1.8,7.3,5.3c0,2.1-1,3.7-3,4.8l5.2,7.8h-5.5l-3.8-6.5H622.8z
		 M622.8,602.5h0.9c1.7,0,2.5-0.7,2.5-2.2c0-1.2-0.8-1.9-2.5-1.9h-1V602.5z"/>
	<path class="st0" d="M645.6,612.7h-10.6v-17.9h10.6v3.9h-5.8v2.8h5.4v3.9h-5.4v3.4h5.8V612.7z"/>
	<path class="st0" d="M648.7,612.7v-17.9h4.8v14h6.9v3.9H648.7z"/>
	<path class="st0" d="M674.3,612.7l-0.9-3.4h-5.8l-0.9,3.4h-5.3l5.8-18h6.5l5.9,18H674.3z M672.4,605.4l-0.8-2.9
		c-0.2-0.7-0.4-1.5-0.7-2.5c-0.3-1-0.4-1.8-0.5-2.2c-0.1,0.4-0.2,1.1-0.4,2.1s-0.7,2.8-1.4,5.7H672.4z"/>
	<path class="st0" d="M689.4,612.7h-4.8v-14h-4.4v-4h13.6v4h-4.4V612.7z"/>
	<path class="st0" d="M707,612.7h-10.6v-17.9H707v3.9h-5.8v2.8h5.4v3.9h-5.4v3.4h5.8V612.7z"/>
	<path class="st0" d="M725.4,603.4c0,3-0.8,5.3-2.5,6.9c-1.6,1.6-4,2.4-6.9,2.4h-5.8v-17.9h6.2c2.9,0,5.1,0.7,6.7,2.2
		C724.6,598.5,725.4,600.6,725.4,603.4z M720.3,603.5c0-1.6-0.3-2.9-1-3.7c-0.6-0.8-1.6-1.2-3-1.2H715v10h1.1c1.5,0,2.5-0.4,3.2-1.3
		C720,606.6,720.3,605.3,720.3,603.5z"/>
	<path class="st0" d="M750.3,603.4c0,3-0.8,5.3-2.5,6.9c-1.6,1.6-4,2.4-6.9,2.4h-5.8v-17.9h6.2c2.9,0,5.1,0.7,6.7,2.2
		C749.5,598.5,750.3,600.6,750.3,603.4z M745.3,603.5c0-1.6-0.3-2.9-1-3.7c-0.6-0.8-1.6-1.2-3-1.2h-1.4v10h1.1
		c1.5,0,2.5-0.4,3.2-1.3C744.9,606.6,745.3,605.3,745.3,603.5z"/>
	<path class="st0" d="M764.5,612.7l-0.9-3.4h-5.8l-0.9,3.4h-5.3l5.8-18h6.5l5.9,18H764.5z M762.6,605.4l-0.8-2.9
		c-0.2-0.7-0.4-1.5-0.7-2.5c-0.3-1-0.4-1.8-0.5-2.2c-0.1,0.4-0.2,1.1-0.4,2.1s-0.7,2.8-1.4,5.7H762.6z"/>
	<path class="st0" d="M779.6,612.7h-4.8v-14h-4.4v-4H784v4h-4.4V612.7z"/>
	<path class="st0" d="M797.6,612.7l-0.9-3.4h-5.8l-0.9,3.4h-5.3l5.8-18h6.5l5.9,18H797.6z M795.7,605.4l-0.8-2.9
		c-0.2-0.7-0.4-1.5-0.7-2.5c-0.3-1-0.4-1.8-0.5-2.2c-0.1,0.4-0.2,1.1-0.4,2.1s-0.7,2.8-1.4,5.7H795.7z"/>
</g>
<g>
	<path class="st0" d="M545.4,661.8v6.5h-4.8v-17.9h5.9c4.9,0,7.3,1.8,7.3,5.3c0,2.1-1,3.7-3,4.8l5.2,7.8h-5.5l-3.8-6.5H545.4z
		 M545.4,658.2h0.9c1.7,0,2.5-0.7,2.5-2.2c0-1.2-0.8-1.9-2.5-1.9h-1V658.2z"/>
	<path class="st0" d="M568.2,668.4h-10.6v-17.9h10.6v3.9h-5.8v2.8h5.4v3.9h-5.4v3.4h5.8V668.4z"/>
	<path class="st0" d="M582.3,668.4l-0.9-3.4h-5.8l-0.9,3.4h-5.3l5.8-18h6.5l5.9,18H582.3z M580.4,661l-0.8-2.9
		c-0.2-0.7-0.4-1.5-0.7-2.5s-0.4-1.8-0.5-2.2c-0.1,0.4-0.2,1.1-0.4,2.1s-0.7,2.8-1.4,5.7H580.4z"/>
	<path class="st0" d="M604.8,659c0,3-0.8,5.3-2.5,6.9c-1.6,1.6-4,2.4-6.9,2.4h-5.8v-17.9h6.2c2.9,0,5.1,0.7,6.7,2.2
		S604.8,656.2,604.8,659z M599.7,659.2c0-1.6-0.3-2.9-1-3.7c-0.6-0.8-1.6-1.2-3-1.2h-1.4v10h1.1c1.5,0,2.5-0.4,3.2-1.3
		C599.4,662.3,599.7,661,599.7,659.2z"/>
	<path class="st0" d="M618.6,668.4H608v-17.9h10.6v3.9h-5.8v2.8h5.4v3.9h-5.4v3.4h5.8V668.4z"/>
	<path class="st0" d="M626.6,661.8v6.5h-4.8v-17.9h5.9c4.9,0,7.3,1.8,7.3,5.3c0,2.1-1,3.7-3,4.8l5.2,7.8h-5.5l-3.8-6.5H626.6z
		 M626.6,658.2h0.9c1.7,0,2.5-0.7,2.5-2.2c0-1.2-0.8-1.9-2.5-1.9h-1V658.2z"/>
	<path class="st0" d="M637.3,663.6v-3.8h6.9v3.8H637.3z"/>
	<path class="st0" d="M646.7,650.4h6.3c2.4,0,4.2,0.4,5.4,1.1c1.2,0.7,1.8,1.8,1.8,3.4c0,1-0.3,1.9-0.8,2.6c-0.5,0.7-1.2,1.2-2,1.4
		v0.1c1.1,0.3,1.9,0.8,2.4,1.5s0.7,1.6,0.7,2.7c0,1.6-0.6,2.9-1.8,3.8c-1.2,0.9-2.9,1.4-5,1.4h-7V650.4z M651.6,657.3h1.5
		c0.7,0,1.2-0.1,1.6-0.4s0.6-0.7,0.6-1.3c0-1-0.8-1.5-2.3-1.5h-1.4V657.3z M651.6,660.9v3.8h1.7c1.5,0,2.3-0.6,2.3-1.9
		c0-0.6-0.2-1.1-0.6-1.4c-0.4-0.3-1-0.5-1.8-0.5H651.6z"/>
	<path class="st0" d="M674.6,668.4l-0.9-3.4h-5.8l-0.9,3.4h-5.3l5.8-18h6.5l5.9,18H674.6z M672.8,661l-0.8-2.9
		c-0.2-0.7-0.4-1.5-0.7-2.5s-0.4-1.8-0.5-2.2c-0.1,0.4-0.2,1.1-0.4,2.1s-0.7,2.8-1.4,5.7H672.8z"/>
	<path class="st0" d="M693.6,662.9c0,1.1-0.3,2.1-0.8,3s-1.4,1.5-2.4,2c-1.1,0.5-2.3,0.7-3.7,0.7c-1.2,0-2.2-0.1-3-0.3
		c-0.8-0.2-1.7-0.5-2.5-0.9v-4.3c0.9,0.5,1.9,0.8,2.9,1.1s1.9,0.4,2.7,0.4c0.7,0,1.2-0.1,1.6-0.4c0.3-0.2,0.5-0.6,0.5-1
		c0-0.2-0.1-0.5-0.2-0.6c-0.1-0.2-0.4-0.4-0.6-0.6c-0.3-0.2-1.1-0.6-2.4-1.2c-1.2-0.5-2-1-2.6-1.5c-0.6-0.5-1-1.1-1.3-1.7
		c-0.3-0.6-0.4-1.4-0.4-2.3c0-1.7,0.6-2.9,1.8-3.9c1.2-0.9,2.9-1.4,5-1.4c1.9,0,3.7,0.4,5.7,1.3l-1.5,3.7c-1.7-0.8-3.1-1.2-4.3-1.2
		c-0.6,0-1.1,0.1-1.4,0.3s-0.4,0.5-0.4,0.8c0,0.4,0.2,0.7,0.5,0.9c0.4,0.3,1.4,0.8,3,1.5c1.5,0.7,2.6,1.4,3.2,2.2
		S693.6,661.7,693.6,662.9z"/>
	<path class="st0" d="M707,668.4h-10.6v-17.9H707v3.9h-5.8v2.8h5.4v3.9h-5.4v3.4h5.8V668.4z"/>
	<path class="st0" d="M725.4,659c0,3-0.8,5.3-2.5,6.9c-1.6,1.6-4,2.4-6.9,2.4h-5.8v-17.9h6.2c2.9,0,5.1,0.7,6.7,2.2
		S725.4,656.2,725.4,659z M720.3,659.2c0-1.6-0.3-2.9-1-3.7c-0.6-0.8-1.6-1.2-3-1.2H715v10h1.1c1.5,0,2.5-0.4,3.2-1.3
		C720,662.3,720.3,661,720.3,659.2z"/>
	<path class="st0" d="M750.3,659c0,3-0.8,5.3-2.5,6.9c-1.6,1.6-4,2.4-6.9,2.4h-5.8v-17.9h6.2c2.9,0,5.1,0.7,6.7,2.2
		S750.3,656.2,750.3,659z M745.3,659.2c0-1.6-0.3-2.9-1-3.7c-0.6-0.8-1.6-1.2-3-1.2h-1.4v10h1.1c1.5,0,2.5-0.4,3.2-1.3
		C744.9,662.3,745.3,661,745.3,659.2z"/>
	<path class="st0" d="M764.5,668.4l-0.9-3.4h-5.8l-0.9,3.4h-5.3l5.8-18h6.5l5.9,18H764.5z M762.6,661l-0.8-2.9
		c-0.2-0.7-0.4-1.5-0.7-2.5s-0.4-1.8-0.5-2.2c-0.1,0.4-0.2,1.1-0.4,2.1s-0.7,2.8-1.4,5.7H762.6z"/>
	<path class="st0" d="M779.6,668.4h-4.8v-14h-4.4v-4H784v4h-4.4V668.4z"/>
	<path class="st0" d="M797.6,668.4l-0.9-3.4h-5.8l-0.9,3.4h-5.3l5.8-18h6.5l5.9,18H797.6z M795.7,661l-0.8-2.9
		c-0.2-0.7-0.4-1.5-0.7-2.5s-0.4-1.8-0.5-2.2c-0.1,0.4-0.2,1.1-0.4,2.1s-0.7,2.8-1.4,5.7H795.7z"/>
</g>
<g>
	<path class="st0" d="M582.6,698.8c0,1.1-0.3,2.1-1,2.9c-0.7,0.8-1.7,1.4-2.9,1.7v0.1c3,0.4,4.5,1.8,4.5,4.2c0,1.7-0.7,3-2,3.9
		s-3.2,1.4-5.5,1.4c-1,0-1.9-0.1-2.7-0.2c-0.8-0.1-1.7-0.4-2.7-0.8v-4c0.8,0.4,1.6,0.7,2.4,0.9c0.8,0.2,1.6,0.3,2.2,0.3
		c1.1,0,1.8-0.1,2.3-0.4s0.7-0.8,0.7-1.4c0-0.5-0.1-0.9-0.4-1.1c-0.3-0.3-0.7-0.5-1.2-0.6s-1.3-0.2-2.2-0.2h-1.1v-3.6h1.1
		c2.5,0,3.7-0.6,3.7-1.9c0-0.5-0.2-0.8-0.5-1.1c-0.4-0.2-0.9-0.3-1.5-0.3c-1.1,0-2.3,0.4-3.6,1.2l-2-3.2c0.9-0.7,1.9-1.1,2.9-1.4
		c1-0.3,2.1-0.4,3.4-0.4c1.9,0,3.3,0.4,4.4,1.1S582.6,697.5,582.6,698.8z"/>
	<path class="st0" d="M590.9,706.3v6.5h-4.8v-17.9h5.9c4.9,0,7.3,1.8,7.3,5.3c0,2.1-1,3.7-3,4.8l5.2,7.8H596l-3.8-6.5H590.9z
		 M590.9,702.6h0.9c1.7,0,2.5-0.7,2.5-2.2c0-1.2-0.8-1.9-2.5-1.9h-1V702.6z"/>
	<path class="st0" d="M618.3,703.5c0,3-0.8,5.3-2.5,6.9c-1.6,1.6-4,2.4-6.9,2.4h-5.8v-17.9h6.2c2.9,0,5.1,0.7,6.7,2.2
		S618.3,700.7,618.3,703.5z M613.3,703.6c0-1.6-0.3-2.9-1-3.7c-0.6-0.8-1.6-1.2-3-1.2h-1.4v10h1.1c1.5,0,2.5-0.4,3.2-1.3
		C612.9,706.7,613.3,705.4,613.3,703.6z"/>
	<path class="st0" d="M641,700.6c0,2-0.6,3.5-1.8,4.6c-1.2,1.1-2.9,1.6-5,1.6h-1.4v5.9H628v-17.9h6.2c2.3,0,4,0.5,5.1,1.5
		C640.5,697.4,641,698.8,641,700.6z M632.9,702.9h0.9c0.7,0,1.3-0.2,1.7-0.6c0.4-0.4,0.6-1,0.6-1.7c0-1.2-0.7-1.8-2-1.8h-1.2V702.9z
		"/>
	<path class="st0" d="M654.9,712.8l-0.9-3.4h-5.8l-0.9,3.4H642l5.8-18h6.5l5.9,18H654.9z M653,705.5l-0.8-2.9
		c-0.2-0.7-0.4-1.5-0.7-2.5s-0.4-1.8-0.5-2.2c-0.1,0.4-0.2,1.1-0.4,2.1s-0.7,2.8-1.4,5.7H653z"/>
	<path class="st0" d="M667,706.3v6.5h-4.8v-17.9h5.9c4.9,0,7.3,1.8,7.3,5.3c0,2.1-1,3.7-3,4.8l5.2,7.8H672l-3.8-6.5H667z M667,702.6
		h0.9c1.7,0,2.5-0.7,2.5-2.2c0-1.2-0.8-1.9-2.5-1.9h-1V702.6z"/>
	<path class="st0" d="M687,712.8h-4.8v-14h-4.4v-4h13.6v4H687V712.8z"/>
	<path class="st0" d="M700.3,701.5l3.1-6.6h5.2l-5.9,10.9v7h-4.9V706l-5.9-11.1h5.3L700.3,701.5z"/>
	<path class="st0" d="M725.1,698.6c-1.2,0-2.1,0.5-2.7,1.4c-0.6,0.9-1,2.2-1,3.9c0,3.4,1.3,5.2,3.9,5.2c0.8,0,1.6-0.1,2.3-0.3
		c0.7-0.2,1.5-0.5,2.2-0.8v4.1c-1.5,0.7-3.2,1-5.1,1c-2.7,0-4.8-0.8-6.2-2.4c-1.4-1.6-2.2-3.8-2.2-6.8c0-1.9,0.3-3.5,1-4.9
		s1.7-2.5,3-3.2s2.9-1.1,4.6-1.1c1.9,0,3.8,0.4,5.6,1.3l-1.5,3.8c-0.7-0.3-1.3-0.6-2-0.8C726.6,698.7,725.9,698.6,725.1,698.6z"/>
	<path class="st0" d="M733.4,712.8v-17.9h4.8v14h6.9v3.9H733.4z"/>
	<path class="st0" d="M748,712.8v-17.9h4.9v17.9H748z"/>
	<path class="st0" d="M764.8,698.6c-1.2,0-2.1,0.5-2.7,1.4c-0.6,0.9-1,2.2-1,3.9c0,3.4,1.3,5.2,3.9,5.2c0.8,0,1.6-0.1,2.3-0.3
		c0.7-0.2,1.5-0.5,2.2-0.8v4.1c-1.5,0.7-3.2,1-5.1,1c-2.7,0-4.8-0.8-6.2-2.4c-1.4-1.6-2.2-3.8-2.2-6.8c0-1.9,0.3-3.5,1-4.9
		s1.7-2.5,3-3.2s2.9-1.1,4.6-1.1c1.9,0,3.8,0.4,5.6,1.3l-1.5,3.8c-0.7-0.3-1.3-0.6-2-0.8C766.2,698.7,765.5,698.6,764.8,698.6z"/>
	<path class="st0" d="M788.4,712.8h-5.5l-3.5-6.9l-1.4,0.9v6h-4.9v-17.9h4.9v7.8c0.2-0.5,0.7-1.2,1.5-2.3l3.8-5.5h5.3l-5.7,8
		L788.4,712.8z"/>
	<path class="st0" d="M802,707.4c0,1.1-0.3,2.1-0.8,3s-1.4,1.5-2.4,2c-1.1,0.5-2.3,0.7-3.7,0.7c-1.2,0-2.2-0.1-3-0.3
		c-0.8-0.2-1.7-0.5-2.5-0.9v-4.3c0.9,0.5,1.9,0.8,2.9,1.1s1.9,0.4,2.7,0.4c0.7,0,1.2-0.1,1.6-0.4c0.3-0.2,0.5-0.6,0.5-1
		c0-0.2-0.1-0.5-0.2-0.6c-0.1-0.2-0.4-0.4-0.6-0.6c-0.3-0.2-1.1-0.6-2.4-1.2c-1.2-0.5-2-1-2.6-1.5c-0.6-0.5-1-1.1-1.3-1.7
		c-0.3-0.6-0.4-1.4-0.4-2.3c0-1.7,0.6-2.9,1.8-3.9c1.2-0.9,2.9-1.4,5-1.4c1.9,0,3.7,0.4,5.7,1.3l-1.5,3.7c-1.7-0.8-3.1-1.2-4.3-1.2
		c-0.6,0-1.1,0.1-1.4,0.3s-0.4,0.5-0.4,0.8c0,0.4,0.2,0.7,0.5,0.9c0.4,0.3,1.4,0.8,3,1.5c1.5,0.7,2.6,1.4,3.2,2.2
		S802,706.2,802,707.4z"/>
</g>
<g>
	<path class="st0" d="M1198.1,568.3v-17.9h4.9v17.9H1198.1z"/>
	<path class="st0" d="M1214.7,568.3l-3.7-12.9h-0.1c0.2,2.2,0.3,3.9,0.3,5.1v7.8h-4.3v-17.9h6.4l3.7,12.7h0.1l3.7-12.7h6.5v17.9
		h-4.5v-7.9c0-0.4,0-0.9,0-1.4c0-0.5,0.1-1.7,0.2-3.7h-0.1l-3.6,12.9H1214.7z"/>
	<path class="st0" d="M1244.2,556c0,2-0.6,3.5-1.8,4.6c-1.2,1.1-2.9,1.6-5,1.6h-1.4v5.9h-4.8v-17.9h6.2c2.3,0,4,0.5,5.1,1.5
		C1243.6,552.8,1244.2,554.2,1244.2,556z M1236,558.4h0.9c0.7,0,1.3-0.2,1.7-0.6c0.4-0.4,0.6-1,0.6-1.7c0-1.2-0.7-1.8-2-1.8h-1.2
		V558.4z"/>
	<path class="st0" d="M1251.9,561.7v6.5h-4.8v-17.9h5.9c4.9,0,7.3,1.8,7.3,5.3c0,2.1-1,3.7-3,4.8l5.2,7.8h-5.5l-3.8-6.5H1251.9z
		 M1251.9,558.1h0.9c1.7,0,2.5-0.7,2.5-2.2c0-1.2-0.8-1.9-2.5-1.9h-1V558.1z"/>
	<path class="st0" d="M1274.6,568.3H1264v-17.9h10.6v3.9h-5.8v2.8h5.4v3.9h-5.4v3.4h5.8V568.3z"/>
	<path class="st0" d="M1289.5,562.8c0,1.1-0.3,2.1-0.8,3c-0.6,0.9-1.4,1.5-2.4,2c-1.1,0.5-2.3,0.7-3.7,0.7c-1.2,0-2.2-0.1-3-0.3
		c-0.8-0.2-1.7-0.5-2.5-0.9v-4.3c0.9,0.5,1.9,0.8,2.9,1.1s1.9,0.4,2.7,0.4c0.7,0,1.2-0.1,1.6-0.4c0.3-0.2,0.5-0.6,0.5-1
		c0-0.2-0.1-0.5-0.2-0.6c-0.1-0.2-0.4-0.4-0.6-0.6c-0.3-0.2-1.1-0.6-2.4-1.2c-1.2-0.5-2-1-2.6-1.5c-0.6-0.5-1-1.1-1.3-1.7
		c-0.3-0.6-0.4-1.4-0.4-2.3c0-1.7,0.6-2.9,1.8-3.9c1.2-0.9,2.9-1.4,5-1.4c1.9,0,3.7,0.4,5.7,1.3l-1.5,3.7c-1.7-0.8-3.1-1.2-4.3-1.2
		c-0.6,0-1.1,0.1-1.4,0.3s-0.4,0.5-0.4,0.8c0,0.4,0.2,0.7,0.5,0.9c0.4,0.3,1.4,0.8,3,1.5c1.5,0.7,2.6,1.4,3.2,2.2
		S1289.5,561.6,1289.5,562.8z"/>
	<path class="st0" d="M1304,562.8c0,1.1-0.3,2.1-0.8,3c-0.6,0.9-1.4,1.5-2.4,2c-1.1,0.5-2.3,0.7-3.7,0.7c-1.2,0-2.2-0.1-3-0.3
		c-0.8-0.2-1.7-0.5-2.5-0.9v-4.3c0.9,0.5,1.9,0.8,2.9,1.1s1.9,0.4,2.7,0.4c0.7,0,1.2-0.1,1.6-0.4s0.5-0.6,0.5-1
		c0-0.2-0.1-0.5-0.2-0.6c-0.1-0.2-0.4-0.4-0.7-0.6c-0.3-0.2-1.1-0.6-2.4-1.2c-1.2-0.5-2-1-2.6-1.5c-0.6-0.5-1-1.1-1.3-1.7
		s-0.4-1.4-0.4-2.3c0-1.7,0.6-2.9,1.8-3.9c1.2-0.9,2.9-1.4,5-1.4c1.9,0,3.7,0.4,5.7,1.3l-1.5,3.7c-1.7-0.8-3.1-1.2-4.3-1.2
		c-0.6,0-1.1,0.1-1.4,0.3s-0.4,0.5-0.4,0.8c0,0.4,0.2,0.7,0.5,0.9c0.4,0.3,1.4,0.8,3,1.5c1.5,0.7,2.6,1.4,3.2,2.2
		S1304,561.6,1304,562.8z"/>
	<path class="st0" d="M1306.8,568.3v-17.9h4.9v17.9H1306.8z"/>
	<path class="st0" d="M1332.3,559.3c0,3-0.7,5.3-2.2,6.9c-1.5,1.6-3.6,2.4-6.5,2.4c-2.8,0-5-0.8-6.5-2.4c-1.5-1.6-2.2-3.9-2.2-6.9
		c0-3,0.7-5.3,2.2-6.8s3.7-2.4,6.5-2.4c2.9,0,5,0.8,6.5,2.3C1331.5,554,1332.3,556.3,1332.3,559.3z M1319.9,559.3
		c0,3.5,1.2,5.2,3.6,5.2c1.2,0,2.1-0.4,2.7-1.3c0.6-0.8,0.9-2.2,0.9-3.9c0-1.8-0.3-3.1-0.9-4c-0.6-0.9-1.5-1.3-2.7-1.3
		C1321.1,554,1319.9,555.8,1319.9,559.3z"/>
	<path class="st0" d="M1352.6,568.3h-6.3l-6.5-12.6h-0.1c0.2,2,0.2,3.5,0.2,4.5v8.1h-4.3v-17.9h6.3l6.5,12.5h0.1
		c-0.1-1.8-0.2-3.3-0.2-4.4v-8.1h4.3V568.3z"/>
	<path class="st0" d="M1368.2,562.8c0,1.1-0.3,2.1-0.8,3c-0.6,0.9-1.4,1.5-2.4,2c-1.1,0.5-2.3,0.7-3.7,0.7c-1.2,0-2.2-0.1-3-0.3
		c-0.8-0.2-1.7-0.5-2.5-0.9v-4.3c0.9,0.5,1.9,0.8,2.9,1.1s1.9,0.4,2.7,0.4c0.7,0,1.2-0.1,1.6-0.4s0.5-0.6,0.5-1
		c0-0.2-0.1-0.5-0.2-0.6c-0.1-0.2-0.4-0.4-0.7-0.6c-0.3-0.2-1.1-0.6-2.4-1.2c-1.2-0.5-2-1-2.6-1.5c-0.6-0.5-1-1.1-1.3-1.7
		s-0.4-1.4-0.4-2.3c0-1.7,0.6-2.9,1.8-3.9c1.2-0.9,2.9-1.4,5-1.4c1.9,0,3.7,0.4,5.7,1.3l-1.5,3.7c-1.7-0.8-3.1-1.2-4.3-1.2
		c-0.6,0-1.1,0.1-1.4,0.3s-0.4,0.5-0.4,0.8c0,0.4,0.2,0.7,0.5,0.9c0.4,0.3,1.4,0.8,3,1.5c1.5,0.7,2.6,1.4,3.2,2.2
		S1368.2,561.6,1368.2,562.8z"/>
</g>
<g>
	<path class="st0" d="M1209.1,612.7l-0.9-3.4h-5.8l-0.9,3.4h-5.3l5.8-18h6.5l5.9,18H1209.1z M1207.2,605.4l-0.8-2.9
		c-0.2-0.7-0.4-1.5-0.7-2.5c-0.3-1-0.4-1.8-0.5-2.2c-0.1,0.4-0.2,1.1-0.4,2.1c-0.2,1-0.7,2.8-1.4,5.7H1207.2z"/>
	<path class="st0" d="M1221.2,606.2v6.5h-4.8v-17.9h5.9c4.9,0,7.3,1.8,7.3,5.3c0,2.1-1,3.7-3,4.8l5.2,7.8h-5.5l-3.8-6.5H1221.2z
		 M1221.2,602.5h0.9c1.7,0,2.5-0.7,2.5-2.2c0-1.2-0.8-1.9-2.5-1.9h-1V602.5z"/>
	<path class="st0" d="M1241.3,612.7h-4.8v-14h-4.4v-4h13.6v4h-4.4V612.7z"/>
	<path class="st0" d="M1248.2,612.7v-17.9h4.9v17.9H1248.2z"/>
	<path class="st0" d="M1264.9,598.5c-1.2,0-2.1,0.5-2.7,1.4c-0.6,0.9-1,2.2-1,3.9c0,3.4,1.3,5.2,3.9,5.2c0.8,0,1.6-0.1,2.3-0.3
		c0.7-0.2,1.5-0.5,2.2-0.8v4.1c-1.5,0.7-3.2,1-5.1,1c-2.7,0-4.8-0.8-6.2-2.4c-1.4-1.6-2.2-3.8-2.2-6.8c0-1.9,0.3-3.5,1-4.9
		c0.7-1.4,1.7-2.5,3-3.2s2.9-1.1,4.6-1.1c1.9,0,3.8,0.4,5.6,1.3l-1.5,3.8c-0.7-0.3-1.3-0.6-2-0.8
		C1266.4,598.6,1265.7,598.5,1264.9,598.5z"/>
	<path class="st0" d="M1273.2,612.7v-17.9h4.8v14h6.9v3.9H1273.2z"/>
	<path class="st0" d="M1298.5,612.7h-10.6v-17.9h10.6v3.9h-5.8v2.8h5.4v3.9h-5.4v3.4h5.8V612.7z"/>
	<path class="st0" d="M1310.7,594.5L1304,613h-4.2l6.7-18.4H1310.7z"/>
	<path class="st0" d="M1325.7,600.5c0,2-0.6,3.5-1.8,4.6s-2.9,1.6-5,1.6h-1.4v5.9h-4.8v-17.9h6.2c2.3,0,4,0.5,5.1,1.5
		C1325.1,597.3,1325.7,598.7,1325.7,600.5z M1317.5,602.8h0.9c0.7,0,1.3-0.2,1.7-0.6c0.4-0.4,0.6-1,0.6-1.7c0-1.2-0.7-1.8-2-1.8
		h-1.2V602.8z"/>
	<path class="st0" d="M1345.3,603.7c0,3-0.7,5.3-2.2,6.9c-1.5,1.6-3.6,2.4-6.5,2.4c-2.8,0-5-0.8-6.5-2.4c-1.5-1.6-2.2-3.9-2.2-6.9
		c0-3,0.7-5.3,2.2-6.8s3.7-2.4,6.5-2.4c2.9,0,5,0.8,6.5,2.3C1344.6,598.4,1345.3,600.7,1345.3,603.7z M1333,603.7
		c0,3.5,1.2,5.2,3.6,5.2c1.2,0,2.1-0.4,2.7-1.3s0.9-2.2,0.9-3.9c0-1.8-0.3-3.1-0.9-4c-0.6-0.9-1.5-1.3-2.7-1.3
		C1334.2,598.5,1333,600.2,1333,603.7z"/>
	<path class="st0" d="M1360.3,607.3c0,1.1-0.3,2.1-0.8,3c-0.6,0.9-1.4,1.5-2.4,2s-2.3,0.7-3.7,0.7c-1.2,0-2.2-0.1-3-0.3
		c-0.8-0.2-1.7-0.5-2.5-0.9v-4.3c0.9,0.5,1.9,0.8,2.9,1.1s1.9,0.4,2.7,0.4c0.7,0,1.2-0.1,1.6-0.4c0.3-0.2,0.5-0.6,0.5-1
		c0-0.2-0.1-0.5-0.2-0.6s-0.4-0.4-0.6-0.6c-0.3-0.2-1.1-0.6-2.4-1.2c-1.2-0.5-2-1-2.6-1.5c-0.6-0.5-1-1.1-1.3-1.7
		c-0.3-0.6-0.4-1.4-0.4-2.3c0-1.7,0.6-2.9,1.8-3.9s2.9-1.4,5-1.4c1.9,0,3.7,0.4,5.7,1.3l-1.5,3.7c-1.7-0.8-3.1-1.2-4.3-1.2
		c-0.6,0-1.1,0.1-1.4,0.3s-0.4,0.5-0.4,0.8c0,0.4,0.2,0.7,0.5,0.9c0.4,0.3,1.4,0.8,3,1.5c1.5,0.7,2.6,1.4,3.2,2.2
		C1360,605,1360.3,606.1,1360.3,607.3z"/>
	<path class="st0" d="M1371,612.7h-4.8v-14h-4.4v-4h13.6v4h-4.4V612.7z"/>
	<path class="st0" d="M1397.4,600.5c0,2-0.6,3.5-1.8,4.6c-1.2,1.1-2.9,1.6-5,1.6h-1.4v5.9h-4.8v-17.9h6.2c2.3,0,4,0.5,5.1,1.5
		C1396.8,597.3,1397.4,598.7,1397.4,600.5z M1389.3,602.8h0.9c0.7,0,1.3-0.2,1.7-0.6c0.4-0.4,0.6-1,0.6-1.7c0-1.2-0.7-1.8-2-1.8
		h-1.2V602.8z"/>
	<path class="st0" d="M1410.9,612.7h-10.6v-17.9h10.6v3.9h-5.8v2.8h5.4v3.9h-5.4v3.4h5.8V612.7z"/>
	<path class="st0" d="M1418.9,606.2v6.5h-4.8v-17.9h5.9c4.9,0,7.3,1.8,7.3,5.3c0,2.1-1,3.7-3,4.8l5.2,7.8h-5.5l-3.8-6.5H1418.9z
		 M1418.9,602.5h0.9c1.7,0,2.5-0.7,2.5-2.2c0-1.2-0.8-1.9-2.5-1.9h-1V602.5z"/>
	<path class="st0" d="M1435.8,612.7h-4.8v-17.9h10.6v3.9h-5.8v3.4h5.4v3.9h-5.4V612.7z"/>
	<path class="st0" d="M1461.3,603.7c0,3-0.7,5.3-2.2,6.9c-1.5,1.6-3.6,2.4-6.5,2.4c-2.8,0-5-0.8-6.5-2.4c-1.5-1.6-2.2-3.9-2.2-6.9
		c0-3,0.7-5.3,2.2-6.8s3.7-2.4,6.5-2.4c2.9,0,5,0.8,6.5,2.3S1461.3,600.7,1461.3,603.7z M1449,603.7c0,3.5,1.2,5.2,3.6,5.2
		c1.2,0,2.1-0.4,2.7-1.3c0.6-0.8,0.9-2.2,0.9-3.9c0-1.8-0.3-3.1-0.9-4s-1.5-1.3-2.7-1.3C1450.2,598.5,1449,600.2,1449,603.7z"/>
	<path class="st0" d="M1469.4,606.2v6.5h-4.8v-17.9h5.9c4.9,0,7.3,1.8,7.3,5.3c0,2.1-1,3.7-3,4.8l5.2,7.8h-5.5l-3.8-6.5H1469.4z
		 M1469.4,602.5h0.9c1.7,0,2.5-0.7,2.5-2.2c0-1.2-0.8-1.9-2.5-1.9h-1V602.5z"/>
	<path class="st0" d="M1489.4,612.7l-3.7-12.9h-0.1c0.2,2.2,0.3,3.9,0.3,5.1v7.8h-4.3v-17.9h6.4l3.7,12.7h0.1l3.7-12.7h6.5v17.9
		h-4.4v-7.9c0-0.4,0-0.9,0-1.4c0-0.5,0.1-1.7,0.2-3.7h-0.1l-3.6,12.9H1489.4z"/>
	<path class="st0" d="M1516.8,612.7l-0.9-3.4h-5.8l-0.9,3.4h-5.3l5.8-18h6.5l5.9,18H1516.8z M1514.9,605.4l-0.8-2.9
		c-0.2-0.7-0.4-1.5-0.7-2.5c-0.3-1-0.4-1.8-0.5-2.2c-0.1,0.4-0.2,1.1-0.4,2.1c-0.2,1-0.7,2.8-1.4,5.7H1514.9z"/>
	<path class="st0" d="M1541.1,612.7h-6.3l-6.5-12.6h-0.1c0.2,2,0.2,3.5,0.2,4.5v8.1h-4.3v-17.9h6.3l6.5,12.5h0.1
		c-0.1-1.8-0.2-3.3-0.2-4.4v-8.1h4.3V612.7z"/>
	<path class="st0" d="M1553,598.5c-1.2,0-2.1,0.5-2.7,1.4c-0.6,0.9-1,2.2-1,3.9c0,3.4,1.3,5.2,3.9,5.2c0.8,0,1.6-0.1,2.3-0.3
		c0.7-0.2,1.5-0.5,2.2-0.8v4.1c-1.5,0.7-3.2,1-5.1,1c-2.7,0-4.8-0.8-6.2-2.4c-1.4-1.6-2.2-3.8-2.2-6.8c0-1.9,0.3-3.5,1-4.9
		c0.7-1.4,1.7-2.5,3-3.2s2.9-1.1,4.6-1.1c1.9,0,3.8,0.4,5.6,1.3l-1.5,3.8c-0.7-0.3-1.3-0.6-2-0.8
		C1554.5,598.6,1553.7,598.5,1553,598.5z"/>
	<path class="st0" d="M1571.9,612.7h-10.6v-17.9h10.6v3.9h-5.8v2.8h5.4v3.9h-5.4v3.4h5.8V612.7z"/>
</g>
<g>
	<path class="st0" d="M1213.5,668.4h-4.9v-7.3h-5.6v7.3h-4.9v-17.9h4.9v6.6h5.6v-6.6h4.9V668.4z"/>
	<path class="st0" d="M1228,668.4h-10.6v-17.9h10.6v3.9h-5.8v2.8h5.4v3.9h-5.4v3.4h5.8V668.4z"/>
	<path class="st0" d="M1242.1,668.4l-0.9-3.4h-5.8l-0.9,3.4h-5.3l5.8-18h6.5l5.9,18H1242.1z M1240.3,661l-0.8-2.9
		c-0.2-0.7-0.4-1.5-0.7-2.5c-0.3-1-0.4-1.8-0.5-2.2c-0.1,0.4-0.2,1.1-0.4,2.1c-0.2,1-0.7,2.8-1.4,5.7H1240.3z"/>
	<path class="st0" d="M1257.3,668.4h-4.8v-14h-4.4v-4h13.6v4h-4.4V668.4z"/>
	<path class="st0" d="M1272,668.4l-3.7-12.9h-0.1c0.2,2.2,0.3,3.9,0.3,5.1v7.8h-4.3v-17.9h6.4l3.7,12.7h0.1l3.7-12.7h6.5v17.9h-4.5
		v-7.9c0-0.4,0-0.9,0-1.4c0-0.5,0.1-1.7,0.2-3.7h-0.1l-3.6,12.9H1272z"/>
	<path class="st0" d="M1299.5,668.4l-0.9-3.4h-5.8l-0.9,3.4h-5.3l5.8-18h6.5l5.9,18H1299.5z M1297.6,661l-0.8-2.9
		c-0.2-0.7-0.4-1.5-0.7-2.5c-0.3-1-0.4-1.8-0.5-2.2c-0.1,0.4-0.2,1.1-0.4,2.1c-0.2,1-0.7,2.8-1.4,5.7H1297.6z"/>
	<path class="st0" d="M1319.7,656.1c0,2-0.6,3.5-1.8,4.6c-1.2,1.1-2.9,1.6-5,1.6h-1.4v5.9h-4.8v-17.9h6.2c2.3,0,4,0.5,5.1,1.5
		C1319.1,652.9,1319.7,654.3,1319.7,656.1z M1311.5,658.5h0.9c0.7,0,1.3-0.2,1.7-0.6c0.4-0.4,0.6-1,0.6-1.7c0-1.2-0.7-1.8-2-1.8
		h-1.2V658.5z"/>
	<path class="st0" d="M1334.3,662.9c0,1.1-0.3,2.1-0.8,3c-0.6,0.9-1.4,1.5-2.4,2c-1.1,0.5-2.3,0.7-3.7,0.7c-1.2,0-2.2-0.1-3-0.3
		c-0.8-0.2-1.7-0.5-2.5-0.9v-4.3c0.9,0.5,1.9,0.8,2.9,1.1s1.9,0.4,2.7,0.4c0.7,0,1.2-0.1,1.6-0.4s0.5-0.6,0.5-1
		c0-0.2-0.1-0.5-0.2-0.6c-0.1-0.2-0.4-0.4-0.7-0.6c-0.3-0.2-1.1-0.6-2.4-1.2c-1.2-0.5-2-1-2.6-1.5c-0.6-0.5-1-1.1-1.3-1.7
		s-0.4-1.4-0.4-2.3c0-1.7,0.6-2.9,1.8-3.9c1.2-0.9,2.9-1.4,5-1.4c1.9,0,3.7,0.4,5.7,1.3l-1.5,3.7c-1.7-0.8-3.1-1.2-4.3-1.2
		c-0.6,0-1.1,0.1-1.4,0.3s-0.4,0.5-0.4,0.8c0,0.4,0.2,0.7,0.5,0.9c0.4,0.3,1.4,0.8,3,1.5c1.5,0.7,2.6,1.4,3.2,2.2
		S1334.3,661.7,1334.3,662.9z"/>
</g>
<g>
	<path class="st0" d="M1198.1,712.8v-17.9h4.8v14h6.9v3.9H1198.1z"/>
	<path class="st0" d="M1229.5,703.8c0,3-0.7,5.3-2.2,6.9c-1.5,1.6-3.6,2.4-6.5,2.4c-2.8,0-5-0.8-6.5-2.4c-1.5-1.6-2.2-3.9-2.2-6.9
		c0-3,0.7-5.3,2.2-6.8s3.7-2.4,6.5-2.4c2.9,0,5,0.8,6.5,2.3C1228.8,698.5,1229.5,700.8,1229.5,703.8z M1217.2,703.8
		c0,3.5,1.2,5.2,3.6,5.2c1.2,0,2.1-0.4,2.7-1.3c0.6-0.8,0.9-2.2,0.9-3.9c0-1.8-0.3-3.1-0.9-4c-0.6-0.9-1.5-1.3-2.7-1.3
		C1218.4,698.6,1217.2,700.3,1217.2,703.8z"/>
	<path class="st0" d="M1240.7,698.6c-1.2,0-2.1,0.5-2.7,1.4c-0.6,0.9-1,2.2-1,3.9c0,3.4,1.3,5.2,3.9,5.2c0.8,0,1.6-0.1,2.3-0.3
		c0.7-0.2,1.5-0.5,2.2-0.8v4.1c-1.5,0.7-3.2,1-5.1,1c-2.7,0-4.8-0.8-6.2-2.4c-1.4-1.6-2.2-3.8-2.2-6.8c0-1.9,0.3-3.5,1-4.9
		c0.7-1.4,1.7-2.5,3-3.2s2.9-1.1,4.6-1.1c1.9,0,3.8,0.4,5.6,1.3l-1.5,3.8c-0.7-0.3-1.3-0.6-2-0.8
		C1242.2,698.7,1241.5,698.6,1240.7,698.6z"/>
	<path class="st0" d="M1260,712.8l-0.9-3.4h-5.8l-0.9,3.4h-5.3l5.8-18h6.5l5.9,18H1260z M1258.2,705.5l-0.8-2.9
		c-0.2-0.7-0.4-1.5-0.7-2.5c-0.3-1-0.4-1.8-0.5-2.2c-0.1,0.4-0.2,1.1-0.4,2.1c-0.2,1-0.7,2.8-1.4,5.7H1258.2z"/>
	<path class="st0" d="M1275.2,712.8h-4.8v-14h-4.4v-4h13.6v4h-4.4V712.8z"/>
	<path class="st0" d="M1282.1,712.8v-17.9h4.9v17.9H1282.1z"/>
	<path class="st0" d="M1307.6,703.8c0,3-0.7,5.3-2.2,6.9c-1.5,1.6-3.6,2.4-6.5,2.4c-2.8,0-5-0.8-6.5-2.4c-1.5-1.6-2.2-3.9-2.2-6.9
		c0-3,0.7-5.3,2.2-6.8s3.7-2.4,6.5-2.4c2.9,0,5,0.8,6.5,2.3C1306.9,698.5,1307.6,700.8,1307.6,703.8z M1295.3,703.8
		c0,3.5,1.2,5.2,3.6,5.2c1.2,0,2.1-0.4,2.7-1.3c0.6-0.8,0.9-2.2,0.9-3.9c0-1.8-0.3-3.1-0.9-4c-0.6-0.9-1.5-1.3-2.7-1.3
		C1296.5,698.6,1295.3,700.3,1295.3,703.8z"/>
	<path class="st0" d="M1327.9,712.8h-6.3l-6.5-12.6h-0.1c0.2,2,0.2,3.5,0.2,4.5v8.1h-4.3v-17.9h6.3l6.5,12.5h0.1
		c-0.1-1.8-0.2-3.3-0.2-4.4v-8.1h4.3V712.8z"/>
	<path class="st0" d="M1330.4,708v-3.8h6.9v3.8H1330.4z"/>
	<path class="st0" d="M1339.8,694.9h6.3c2.4,0,4.2,0.4,5.4,1.1c1.2,0.7,1.8,1.8,1.8,3.4c0,1-0.3,1.9-0.8,2.6s-1.2,1.2-2,1.4v0.1
		c1.1,0.3,1.9,0.8,2.4,1.5c0.5,0.7,0.7,1.6,0.7,2.7c0,1.6-0.6,2.9-1.8,3.8c-1.2,0.9-2.9,1.4-5,1.4h-7V694.9z M1344.6,701.8h1.5
		c0.7,0,1.2-0.1,1.6-0.4s0.6-0.7,0.6-1.3c0-1-0.8-1.5-2.3-1.5h-1.4V701.8z M1344.6,705.3v3.8h1.7c1.5,0,2.3-0.6,2.3-1.9
		c0-0.6-0.2-1.1-0.6-1.4c-0.4-0.3-1-0.5-1.8-0.5H1344.6z"/>
	<path class="st0" d="M1367.7,712.8l-0.9-3.4h-5.8l-0.9,3.4h-5.3l5.8-18h6.5l5.9,18H1367.7z M1365.8,705.5l-0.8-2.9
		c-0.2-0.7-0.4-1.5-0.7-2.5c-0.3-1-0.4-1.8-0.5-2.2c-0.1,0.4-0.2,1.1-0.4,2.1c-0.2,1-0.7,2.8-1.4,5.7H1365.8z"/>
	<path class="st0" d="M1386.6,707.4c0,1.1-0.3,2.1-0.8,3c-0.6,0.9-1.4,1.5-2.4,2c-1.1,0.5-2.3,0.7-3.7,0.7c-1.2,0-2.2-0.1-3-0.3
		c-0.8-0.2-1.7-0.5-2.5-0.9v-4.3c0.9,0.5,1.9,0.8,2.9,1.1s1.9,0.4,2.7,0.4c0.7,0,1.2-0.1,1.6-0.4s0.5-0.6,0.5-1
		c0-0.2-0.1-0.5-0.2-0.6c-0.1-0.2-0.4-0.4-0.7-0.6c-0.3-0.2-1.1-0.6-2.4-1.2c-1.2-0.5-2-1-2.6-1.5c-0.6-0.5-1-1.1-1.3-1.7
		s-0.4-1.4-0.4-2.3c0-1.7,0.6-2.9,1.8-3.9c1.2-0.9,2.9-1.4,5-1.4c1.9,0,3.7,0.4,5.7,1.3l-1.5,3.7c-1.7-0.8-3.1-1.2-4.3-1.2
		c-0.6,0-1.1,0.1-1.4,0.3s-0.4,0.5-0.4,0.8c0,0.4,0.2,0.7,0.5,0.9c0.4,0.3,1.4,0.8,3,1.5c1.5,0.7,2.6,1.4,3.2,2.2
		S1386.6,706.2,1386.6,707.4z"/>
	<path class="st0" d="M1400,712.8h-10.6v-17.9h10.6v3.9h-5.8v2.8h5.4v3.9h-5.4v3.4h5.8V712.8z"/>
	<path class="st0" d="M1418.4,703.5c0,3-0.8,5.3-2.5,6.9c-1.6,1.6-4,2.4-6.9,2.4h-5.8v-17.9h6.2c2.9,0,5.1,0.7,6.7,2.2
		C1417.6,698.6,1418.4,700.7,1418.4,703.5z M1413.4,703.6c0-1.6-0.3-2.9-1-3.7c-0.6-0.8-1.6-1.2-3-1.2h-1.4v10h1.1
		c1.5,0,2.5-0.4,3.2-1.3C1413,706.7,1413.4,705.4,1413.4,703.6z"/>
	<path class="st0" d="M1443.3,703.5c0,3-0.8,5.3-2.5,6.9c-1.6,1.6-4,2.4-6.9,2.4h-5.8v-17.9h6.2c2.9,0,5.1,0.7,6.7,2.2
		C1442.6,698.6,1443.3,700.7,1443.3,703.5z M1438.3,703.6c0-1.6-0.3-2.9-1-3.7c-0.6-0.8-1.6-1.2-3-1.2h-1.4v10h1.1
		c1.5,0,2.5-0.4,3.2-1.3C1438,706.7,1438.3,705.4,1438.3,703.6z"/>
	<path class="st0" d="M1457.5,712.8l-0.9-3.4h-5.8l-0.9,3.4h-5.3l5.8-18h6.5l5.9,18H1457.5z M1455.7,705.5l-0.8-2.9
		c-0.2-0.7-0.4-1.5-0.7-2.5c-0.3-1-0.4-1.8-0.5-2.2c-0.1,0.4-0.2,1.1-0.4,2.1c-0.2,1-0.7,2.8-1.4,5.7H1455.7z"/>
	<path class="st0" d="M1472.7,712.8h-4.8v-14h-4.4v-4h13.6v4h-4.4V712.8z"/>
	<path class="st0" d="M1490.6,712.8l-0.9-3.4h-5.8l-0.9,3.4h-5.3l5.8-18h6.5l5.9,18H1490.6z M1488.7,705.5l-0.8-2.9
		c-0.2-0.7-0.4-1.5-0.7-2.5c-0.3-1-0.4-1.8-0.5-2.2c-0.1,0.4-0.2,1.1-0.4,2.1c-0.2,1-0.7,2.8-1.4,5.7H1488.7z"/>
</g>
<path class="st1" d="M1225.5,469h-451c-32.9,0-59.5-26.7-59.5-59.5V81.4c0-32.9,26.7-59.5,59.5-59.5h451c32.9,0,59.5,26.7,59.5,59.5
	v328.1C1285,442.4,1258.4,469,1225.5,469z"/>
<g>
	<g>
		<g>
			<g>
				<polygon class="st2" points="956.2,107.4 976.3,96.2 976.3,157.9 956.2,171.2 				"/>
				<rect x="976.3" y="95.4" class="st3" width="63.8" height="63.8"/>
				<rect x="956.2" y="107.4" class="st0" width="63.8" height="63.8"/>
				<polygon class="st4" points="1019.9,107.4 1040.1,96.2 1040.1,157.9 1019.9,171.2 				"/>
				<polygon class="st0" points="1040.1,96.2 1052.9,101.4 1035.1,113.4 1019.9,107.4 				"/>
				<polygon class="st0" points="976.3,95.4 962,101 942.7,113.4 956.2,107.4 				"/>
			</g>
			<g>
				<path class="st5" d="M979.8,150.8c1.5,1.5,2.2,3,2.2,4.6c0,1.6-0.7,3.1-2.2,4.6l-2.8,2.8l-8.7-8.7l3-3c1.4-1.4,2.8-2.1,4.3-2.2
					C977.1,148.8,978.5,149.5,979.8,150.8z M977.5,153.4c-0.8-0.8-1.6-1.2-2.3-1.3c-0.7-0.1-1.4,0.2-2,0.9l-0.7,0.7l4.9,4.9l0.5-0.5
					c0.7-0.7,1-1.4,1-2.2C978.8,155,978.3,154.2,977.5,153.4z"/>
				<path class="st5" d="M991.3,148.5l-2.1-1.2l-2.8,2.8l1.2,2.1l-2.6,2.6l-5.9-11.6l3.1-3.1l11.6,5.9L991.3,148.5z M986.8,145.8
					l-1.8-1.1c-0.4-0.2-0.9-0.5-1.6-0.9c-0.6-0.4-1.1-0.7-1.3-0.8c0.2,0.2,0.4,0.6,0.8,1.2c0.4,0.6,1,1.7,2,3.5L986.8,145.8z"/>
				<path class="st5" d="M998.7,141.1l-2.4,2.4l-6.8-6.8l-2.1,2.1l-1.9-1.9l6.6-6.6l1.9,1.9l-2.1,2.1L998.7,141.1z"/>
				<path class="st5" d="M1007.4,132.4l-2.1-1.2l-2.8,2.8l1.2,2.1l-2.6,2.6l-5.9-11.6l3.1-3.1l11.6,5.9L1007.4,132.4z M1002.9,129.7
					l-1.8-1.1c-0.4-0.2-0.9-0.5-1.6-0.9c-0.6-0.4-1.1-0.7-1.3-0.8c0.2,0.2,0.4,0.6,0.8,1.2c0.4,0.6,1,1.7,2,3.5L1002.9,129.7z"/>
			</g>
		</g>
		<g>
			<g>
				<polygon class="st2" points="1070.8,107.4 1090.9,96.2 1090.9,157.9 1070.8,171.2 				"/>
				<rect x="1090.9" y="95.4" class="st3" width="63.8" height="63.8"/>
				<rect x="1070.8" y="107.4" class="st0" width="63.8" height="63.8"/>
				<polygon class="st4" points="1134.5,107.4 1154.6,96.2 1154.6,157.9 1134.5,171.2 				"/>
				<polygon class="st0" points="1154.6,96.2 1167.5,101.4 1149.7,113.4 1134.5,107.4 				"/>
				<polygon class="st0" points="1090.9,95.4 1076.6,101 1057.3,113.4 1070.8,107.4 				"/>
			</g>
			<g>
				<path class="st5" d="M1094.4,150.8c1.5,1.5,2.2,3,2.2,4.6c0,1.6-0.7,3.1-2.2,4.6l-2.8,2.8l-8.7-8.7l3-3c1.4-1.4,2.8-2.1,4.3-2.2
					C1091.7,148.8,1093.1,149.5,1094.4,150.8z M1092.1,153.4c-0.8-0.8-1.5-1.2-2.3-1.3c-0.7-0.1-1.4,0.2-2,0.9l-0.7,0.7l4.9,4.9
					l0.5-0.5c0.7-0.7,1-1.4,1-2.2C1093.4,155,1092.9,154.2,1092.1,153.4z"/>
				<path class="st5" d="M1105.9,148.5l-2.1-1.2l-2.8,2.8l1.2,2.1l-2.6,2.6l-5.9-11.6l3.1-3.1l11.6,5.9L1105.9,148.5z M1101.4,145.8
					l-1.8-1.1c-0.4-0.2-0.9-0.5-1.6-0.9c-0.6-0.4-1.1-0.7-1.3-0.8c0.2,0.2,0.4,0.6,0.8,1.2c0.4,0.6,1,1.7,2,3.5L1101.4,145.8z"/>
				<path class="st5" d="M1113.3,141.1l-2.4,2.4l-6.8-6.8l-2.1,2.1l-1.9-1.9l6.6-6.6l1.9,1.9l-2.1,2.1L1113.3,141.1z"/>
				<path class="st5" d="M1122,132.4l-2.1-1.2l-2.8,2.8l1.2,2.1l-2.6,2.6l-5.9-11.6l3.1-3.1l11.6,5.9L1122,132.4z M1117.5,129.7
					l-1.8-1.1c-0.4-0.2-0.9-0.5-1.6-0.9c-0.6-0.4-1.1-0.7-1.3-0.8c0.2,0.2,0.4,0.6,0.8,1.2c0.4,0.6,1,1.7,2,3.5L1117.5,129.7z"/>
			</g>
		</g>
		<g>
			<g>
				<polygon class="st2" points="846,107.4 866.1,96.2 866.1,157.9 846,171.2 				"/>
				<rect x="866.1" y="95.4" class="st3" width="63.8" height="63.8"/>
				<rect x="846" y="107.4" class="st0" width="63.8" height="63.8"/>
				<polygon class="st4" points="909.8,107.4 929.9,96.2 929.9,157.9 909.8,171.2 				"/>
				<polygon class="st0" points="929.9,96.2 942.7,101.4 924.9,113.4 909.8,107.4 				"/>
				<polygon class="st0" points="866.1,95.4 851.8,101 832.5,113.4 846,107.4 				"/>
			</g>
			<g>
				<path class="st5" d="M869.7,150.8c1.5,1.5,2.2,3,2.2,4.6c0,1.6-0.7,3.1-2.2,4.6l-2.8,2.8l-8.7-8.7l3-3c1.4-1.4,2.8-2.1,4.3-2.2
					C866.9,148.8,868.3,149.5,869.7,150.8z M867.3,153.4c-0.8-0.8-1.6-1.2-2.3-1.3c-0.7-0.1-1.4,0.2-2,0.9l-0.7,0.7l4.9,4.9l0.5-0.5
					c0.7-0.7,1-1.4,1-2.2C868.6,155,868.2,154.2,867.3,153.4z"/>
				<path class="st5" d="M881.1,148.5l-2.1-1.2l-2.8,2.8l1.2,2.1l-2.6,2.6l-5.9-11.6l3.1-3.1l11.6,5.9L881.1,148.5z M876.6,145.8
					l-1.8-1.1c-0.4-0.2-0.9-0.5-1.6-0.9c-0.6-0.4-1.1-0.7-1.3-0.8c0.2,0.2,0.4,0.6,0.8,1.2c0.4,0.6,1,1.7,2,3.5L876.6,145.8z"/>
				<path class="st5" d="M888.5,141.1l-2.4,2.4l-6.8-6.8l-2.1,2.1l-1.9-1.9l6.6-6.6l1.9,1.9l-2.1,2.1L888.5,141.1z"/>
				<path class="st5" d="M897.2,132.4l-2.1-1.2l-2.8,2.8l1.2,2.1l-2.6,2.6l-5.9-11.6l3.1-3.1l11.6,5.9L897.2,132.4z M892.7,129.7
					l-1.8-1.1c-0.4-0.2-0.9-0.5-1.6-0.9c-0.6-0.4-1.1-0.7-1.3-0.8c0.2,0.2,0.4,0.6,0.8,1.2c0.4,0.6,1,1.7,2,3.5L892.7,129.7z"/>
			</g>
		</g>
	</g>
	<g>
		<g>
			<g>
				<polygon class="st2" points="1070.8,223.5 1090.9,212.3 1090.9,274 1070.8,287.3 				"/>
				<rect x="1090.9" y="211.5" class="st3" width="63.8" height="63.8"/>
				<rect x="1070.8" y="223.5" class="st0" width="63.8" height="63.8"/>
				<polygon class="st4" points="1134.5,223.5 1154.6,212.3 1154.6,274 1134.5,287.3 				"/>
				<polygon class="st0" points="1154.6,212.3 1167.5,217.6 1149.7,229.5 1134.5,223.5 				"/>
				<polygon class="st0" points="1090.9,211.5 1076.6,217.1 1057.3,229.5 1070.8,223.5 				"/>
			</g>
			<g>
				<path class="st5" d="M1094.4,267c1.5,1.5,2.2,3,2.2,4.6c0,1.6-0.7,3.1-2.2,4.6l-2.8,2.8l-8.7-8.7l3-3c1.4-1.4,2.8-2.1,4.3-2.2
					C1091.7,265,1093.1,265.6,1094.4,267z M1092.1,269.5c-0.8-0.8-1.5-1.2-2.3-1.3c-0.7-0.1-1.4,0.2-2,0.9l-0.7,0.7l4.9,4.9l0.5-0.5
					c0.7-0.7,1-1.4,1-2.2C1093.4,271.1,1092.9,270.3,1092.1,269.5z"/>
				<path class="st5" d="M1105.9,264.6l-2.1-1.2l-2.8,2.8l1.2,2.1l-2.6,2.6l-5.9-11.6l3.1-3.1l11.6,5.9L1105.9,264.6z M1101.4,261.9
					l-1.8-1.1c-0.4-0.2-0.9-0.5-1.6-0.9c-0.6-0.4-1.1-0.7-1.3-0.8c0.2,0.2,0.4,0.6,0.8,1.2c0.4,0.6,1,1.7,2,3.5L1101.4,261.9z"/>
				<path class="st5" d="M1113.3,257.2l-2.4,2.4l-6.8-6.8l-2.1,2.1l-1.9-1.9l6.6-6.6l1.9,1.9l-2.1,2.1L1113.3,257.2z"/>
				<path class="st5" d="M1122,248.5l-2.1-1.2l-2.8,2.8l1.2,2.1l-2.6,2.6l-5.9-11.6l3.1-3.1l11.6,5.9L1122,248.5z M1117.5,245.8
					l-1.8-1.1c-0.4-0.2-0.9-0.5-1.6-0.9c-0.6-0.4-1.1-0.7-1.3-0.8c0.2,0.2,0.4,0.6,0.8,1.2c0.4,0.6,1,1.7,2,3.5L1117.5,245.8z"/>
			</g>
		</g>
		<g>
			<g>
				<polygon class="st2" points="846,223.5 866.1,212.3 866.1,274 846,287.3 				"/>
				<rect x="866.1" y="211.5" class="st3" width="63.8" height="63.8"/>
				<rect x="846" y="223.5" class="st0" width="63.8" height="63.8"/>
				<polygon class="st4" points="909.8,223.5 929.9,212.3 929.9,274 909.8,287.3 				"/>
				<polygon class="st0" points="929.9,212.3 942.7,217.6 924.9,229.5 909.8,223.5 				"/>
				<polygon class="st0" points="866.1,211.5 851.8,217.1 832.5,229.5 846,223.5 				"/>
			</g>
			<g>
				<path class="st5" d="M869.7,267c1.5,1.5,2.2,3,2.2,4.6c0,1.6-0.7,3.1-2.2,4.6l-2.8,2.8l-8.7-8.7l3-3c1.4-1.4,2.8-2.1,4.3-2.2
					C866.9,265,868.3,265.6,869.7,267z M867.3,269.5c-0.8-0.8-1.6-1.2-2.3-1.3c-0.7-0.1-1.4,0.2-2,0.9l-0.7,0.7l4.9,4.9l0.5-0.5
					c0.7-0.7,1-1.4,1-2.2C868.6,271.1,868.2,270.3,867.3,269.5z"/>
				<path class="st5" d="M881.1,264.6l-2.1-1.2l-2.8,2.8l1.2,2.1l-2.6,2.6l-5.9-11.6l3.1-3.1l11.6,5.9L881.1,264.6z M876.6,261.9
					l-1.8-1.1c-0.4-0.2-0.9-0.5-1.6-0.9c-0.6-0.4-1.1-0.7-1.3-0.8c0.2,0.2,0.4,0.6,0.8,1.2c0.4,0.6,1,1.7,2,3.5L876.6,261.9z"/>
				<path class="st5" d="M888.5,257.2l-2.4,2.4l-6.8-6.8l-2.1,2.1l-1.9-1.9l6.6-6.6l1.9,1.9l-2.1,2.1L888.5,257.2z"/>
				<path class="st5" d="M897.2,248.5l-2.1-1.2l-2.8,2.8l1.2,2.1l-2.6,2.6l-5.9-11.6l3.1-3.1l11.6,5.9L897.2,248.5z M892.7,245.8
					l-1.8-1.1c-0.4-0.2-0.9-0.5-1.6-0.9c-0.6-0.4-1.1-0.7-1.3-0.8c0.2,0.2,0.4,0.6,0.8,1.2c0.4,0.6,1,1.7,2,3.5L892.7,245.8z"/>
			</g>
		</g>
	</g>
	<g>
		<g>
			<g>
				<polygon class="st2" points="956.2,339.6 976.3,328.4 976.3,390.1 956.2,403.4 				"/>
				<rect x="976.3" y="327.6" class="st3" width="63.8" height="63.8"/>
				<rect x="956.2" y="339.6" class="st0" width="63.8" height="63.8"/>
				<polygon class="st4" points="1019.9,339.6 1040.1,328.4 1040.1,390.1 1019.9,403.4 				"/>
				<polygon class="st0" points="1040.1,328.4 1052.9,333.7 1035.1,345.6 1019.9,339.6 				"/>
				<polygon class="st0" points="976.3,327.6 962,333.2 942.7,345.6 956.2,339.6 				"/>
			</g>
			<g>
				<path class="st5" d="M979.8,383.1c1.5,1.5,2.2,3,2.2,4.6c0,1.6-0.7,3.1-2.2,4.6L977,395l-8.7-8.7l3-3c1.4-1.4,2.8-2.1,4.3-2.2
					C977.1,381.1,978.5,381.7,979.8,383.1z M977.5,385.6c-0.8-0.8-1.6-1.2-2.3-1.3c-0.7-0.1-1.4,0.2-2,0.9l-0.7,0.7l4.9,4.9l0.5-0.5
					c0.7-0.7,1-1.4,1-2.2C978.8,387.2,978.3,386.4,977.5,385.6z"/>
				<path class="st5" d="M991.3,380.7l-2.1-1.2l-2.8,2.8l1.2,2.1L985,387l-5.9-11.6l3.1-3.1l11.6,5.9L991.3,380.7z M986.8,378
					L985,377c-0.4-0.2-0.9-0.5-1.6-0.9c-0.6-0.4-1.1-0.7-1.3-0.8c0.2,0.2,0.4,0.6,0.8,1.2c0.4,0.6,1,1.7,2,3.5L986.8,378z"/>
				<path class="st5" d="M998.7,373.3l-2.4,2.4l-6.8-6.8l-2.1,2.1l-1.9-1.9l6.6-6.6l1.9,1.9l-2.1,2.1L998.7,373.3z"/>
				<path class="st5" d="M1007.4,364.6l-2.1-1.2l-2.8,2.8l1.2,2.1l-2.6,2.6l-5.9-11.6l3.1-3.1l11.6,5.9L1007.4,364.6z M1002.9,362
					l-1.8-1.1c-0.4-0.2-0.9-0.5-1.6-0.9c-0.6-0.4-1.1-0.7-1.3-0.8c0.2,0.2,0.4,0.6,0.8,1.2c0.4,0.6,1,1.7,2,3.5L1002.9,362z"/>
			</g>
		</g>
		<g>
			<g>
				<polygon class="st2" points="1070.8,339.6 1090.9,328.4 1090.9,390.1 1070.8,403.4 				"/>
				<rect x="1090.9" y="327.6" class="st3" width="63.8" height="63.8"/>
				<rect x="1070.8" y="339.6" class="st0" width="63.8" height="63.8"/>
				<polygon class="st4" points="1134.5,339.6 1154.6,328.4 1154.6,390.1 1134.5,403.4 				"/>
				<polygon class="st0" points="1154.6,328.4 1167.5,333.7 1149.7,345.6 1134.5,339.6 				"/>
				<polygon class="st0" points="1090.9,327.6 1076.6,333.2 1057.3,345.6 1070.8,339.6 				"/>
			</g>
			<g>
				<path class="st5" d="M1094.4,383.1c1.5,1.5,2.2,3,2.2,4.6c0,1.6-0.7,3.1-2.2,4.6l-2.8,2.8l-8.7-8.7l3-3c1.4-1.4,2.8-2.1,4.3-2.2
					C1091.7,381.1,1093.1,381.7,1094.4,383.1z M1092.1,385.6c-0.8-0.8-1.5-1.2-2.3-1.3c-0.7-0.1-1.4,0.2-2,0.9l-0.7,0.7l4.9,4.9
					l0.5-0.5c0.7-0.7,1-1.4,1-2.2C1093.4,387.2,1092.9,386.4,1092.1,385.6z"/>
				<path class="st5" d="M1105.9,380.7l-2.1-1.2l-2.8,2.8l1.2,2.1l-2.6,2.6l-5.9-11.6l3.1-3.1l11.6,5.9L1105.9,380.7z M1101.4,378
					l-1.8-1.1c-0.4-0.2-0.9-0.5-1.6-0.9c-0.6-0.4-1.1-0.7-1.3-0.8c0.2,0.2,0.4,0.6,0.8,1.2s1,1.7,2,3.5L1101.4,378z"/>
				<path class="st5" d="M1113.3,373.3l-2.4,2.4l-6.8-6.8l-2.1,2.1l-1.9-1.9l6.6-6.6l1.9,1.9l-2.1,2.1L1113.3,373.3z"/>
				<path class="st5" d="M1122,364.6l-2.1-1.2l-2.8,2.8l1.2,2.1l-2.6,2.6l-5.9-11.6l3.1-3.1l11.6,5.9L1122,364.6z M1117.5,362
					l-1.8-1.1c-0.4-0.2-0.9-0.5-1.6-0.9s-1.1-0.7-1.3-0.8c0.2,0.2,0.4,0.6,0.8,1.2c0.4,0.6,1,1.7,2,3.5L1117.5,362z"/>
			</g>
		</g>
		<g>
			<g>
				<polygon class="st2" points="846,339.6 866.1,328.4 866.1,390.1 846,403.4 				"/>
				<rect x="866.1" y="327.6" class="st3" width="63.8" height="63.8"/>
				<rect x="846" y="339.6" class="st0" width="63.8" height="63.8"/>
				<polygon class="st4" points="909.8,339.6 929.9,328.4 929.9,390.1 909.8,403.4 				"/>
				<polygon class="st0" points="929.9,328.4 942.7,333.7 924.9,345.6 909.8,339.6 				"/>
				<polygon class="st0" points="866.1,327.6 851.8,333.2 832.5,345.6 846,339.6 				"/>
			</g>
			<g>
				<path class="st5" d="M869.7,383.1c1.5,1.5,2.2,3,2.2,4.6c0,1.6-0.7,3.1-2.2,4.6l-2.8,2.8l-8.7-8.7l3-3c1.4-1.4,2.8-2.1,4.3-2.2
					C866.9,381.1,868.3,381.7,869.7,383.1z M867.3,385.6c-0.8-0.8-1.6-1.2-2.3-1.3c-0.7-0.1-1.4,0.2-2,0.9l-0.7,0.7l4.9,4.9l0.5-0.5
					c0.7-0.7,1-1.4,1-2.2C868.6,387.2,868.2,386.4,867.3,385.6z"/>
				<path class="st5" d="M881.1,380.7l-2.1-1.2l-2.8,2.8l1.2,2.1l-2.6,2.6l-5.9-11.6l3.1-3.1l11.6,5.9L881.1,380.7z M876.6,378
					l-1.8-1.1c-0.4-0.2-0.9-0.5-1.6-0.9c-0.6-0.4-1.1-0.7-1.3-0.8c0.2,0.2,0.4,0.6,0.8,1.2c0.4,0.6,1,1.7,2,3.5L876.6,378z"/>
				<path class="st5" d="M888.5,373.3l-2.4,2.4l-6.8-6.8l-2.1,2.1l-1.9-1.9l6.6-6.6l1.9,1.9l-2.1,2.1L888.5,373.3z"/>
				<path class="st5" d="M897.2,364.6l-2.1-1.2l-2.8,2.8l1.2,2.1l-2.6,2.6l-5.9-11.6l3.1-3.1l11.6,5.9L897.2,364.6z M892.7,362
					l-1.8-1.1c-0.4-0.2-0.9-0.5-1.6-0.9c-0.6-0.4-1.1-0.7-1.3-0.8c0.2,0.2,0.4,0.6,0.8,1.2c0.4,0.6,1,1.7,2,3.5L892.7,362z"/>
			</g>
		</g>
	</g>
	<g>
		<path class="st0" d="M986.9,257.1c0,2.3,0.4,4.4,1.3,6.3c0.9,2,2,3.7,3.5,5.2c1.5,1.5,3.2,2.7,5.2,3.5c2,0.9,4.1,1.3,6.3,1.3
			c2.3,0,4.4-0.4,6.4-1.3c2-0.9,3.8-2,5.2-3.5c1.5-1.5,2.7-3.2,3.5-5.2c0.9-2,1.3-4.1,1.3-6.3s-0.4-4.4-1.3-6.4
			c-0.9-2-2-3.8-3.5-5.2c-1.5-1.5-3.2-2.7-5.2-3.5c-2-0.9-4.1-1.3-6.4-1.3c-2.2,0-4.3,0.4-6.2,1.2c-1.9,0.8-3.7,2-5.1,3.4
			c-1.5,1.5-2.6,3.2-3.6,5.2C987.4,252.6,986.9,254.8,986.9,257.1L986.9,257.1z M1003.4,234.9c2.9,0,5.7,0.6,8.4,1.8
			c2.6,1.2,5,2.8,7,4.8s3.6,4.4,4.8,7c1.2,2.7,1.8,5.5,1.8,8.6c0,3-0.6,5.8-1.7,8.4c-1.2,2.6-2.7,5-4.7,7c-2,2-4.3,3.6-7,4.7
			c-2.7,1.2-5.6,1.7-8.7,1.7c-3,0-5.9-0.5-8.5-1.6c-2.6-1.1-5-2.6-7-4.6c-2-1.9-3.6-4.3-4.7-6.9c-1.2-2.7-1.7-5.6-1.7-8.8v-33.8
			c0-0.8,0.3-1.5,0.8-2c0.5-0.5,1.2-0.8,2-0.8c0.8,0,1.5,0.3,2,0.8c0.5,0.5,0.8,1.2,0.8,2v19.9c2-2.2,4.4-4.1,7.2-5.7
			C996.9,235.9,1000,235.1,1003.4,234.9L1003.4,234.9z"/>
		<path class="st6" d="M995,257.1c0,1.1,0.2,2.2,0.6,3.2c0.4,1,1,1.9,1.8,2.6c0.7,0.7,1.6,1.3,2.6,1.8c1,0.4,2.1,0.6,3.2,0.6
			c1.1,0,2.2-0.2,3.2-0.6c1-0.4,1.9-1,2.6-1.8c0.7-0.7,1.3-1.6,1.8-2.6c0.4-1,0.6-2.1,0.6-3.2c0-1.1-0.2-2.2-0.6-3.2
			c-0.4-1-1-1.9-1.8-2.6c-0.7-0.7-1.6-1.3-2.6-1.8c-1-0.4-2.1-0.6-3.2-0.6c-1.1,0-2.1,0.2-3.1,0.6c-1,0.4-1.8,1-2.6,1.7
			c-0.7,0.7-1.3,1.6-1.8,2.6C995.3,254.8,995.1,255.9,995,257.1L995,257.1z"/>
	</g>
</g>
<g>
	<g>
		<line class="st7" x1="1003.2" y1="573.9" x2="1003.2" y2="465.3"/>
		<g>
			<path class="st8" d="M1003.2,433.8c5.5,14.8,14.9,33.1,24.8,44.5l-24.8-9l-24.8,9C988.4,467,997.8,448.6,1003.2,433.8z"/>
		</g>
	</g>
</g>
<g>
	<g class="st9">
		<g>
			<defs>
				<rect id="SVGID_1_" x="804.8" y="728.1" width="391.4" height="11.1"/>
			</defs>
			<clipPath id="SVGID_2_">
				<use xlink:href="#SVGID_1_"  style="overflow:visible;"/>
			</clipPath>
			<g class="st10">
				<defs>
					<path id="SVGID_3_" d="M1000.5,728.3c108,0,195.4,2.4,195.4,5.4c0,3-87.5,5.4-195.4,5.4c-108,0-195.4-2.4-195.4-5.4
						C805.1,730.7,892.6,728.3,1000.5,728.3z"/>
				</defs>
				<clipPath id="SVGID_4_">
					<use xlink:href="#SVGID_3_"  style="overflow:visible;"/>
				</clipPath>
				<g class="st11">
					<defs>
						<rect id="SVGID_5_" x="804.8" y="728.1" width="391.4" height="11.1"/>
					</defs>
					<clipPath id="SVGID_6_">
						<use xlink:href="#SVGID_5_"  style="overflow:visible;"/>
					</clipPath>
					<rect x="803.1" y="726.3" class="st12" width="394.8" height="14.9"/>
				</g>
			</g>
		</g>
	</g>
	<g>
		<defs>
			<path id="SVGID_7_" d="M1000.5,718.8H859.4V541.5c0-5.3,4.3-9.6,9.6-9.6h131.5h124.3c5.3,0,9.6,4.3,9.6,9.6v177.3H1000.5z"/>
		</defs>
		<clipPath id="SVGID_8_">
			<use xlink:href="#SVGID_7_"  style="overflow:visible;"/>
		</clipPath>
		<rect x="857.4" y="529.9" class="st13" width="279" height="190.9"/>
	</g>
	<g>
		<defs>
			<path id="SVGID_9_" d="M1170.6,718.8c0,8-6.4,14.5-14.2,14.5h-319c-7.8,0-14.2-6.4-14.2-14.5H1170.6z"/>
		</defs>
		<clipPath id="SVGID_10_">
			<use xlink:href="#SVGID_9_"  style="overflow:visible;"/>
		</clipPath>
		<rect x="821.2" y="716.8" class="st14" width="351.4" height="18.5"/>
	</g>
	<g>
		<defs>
			<path id="SVGID_11_" d="M1001.1,534.4c1.3,0,2.3,1,2.3,2.3s-1,2.3-2.3,2.3c-1.3,0-2.3-1-2.3-2.3S999.9,534.4,1001.1,534.4z"/>
		</defs>
		<clipPath id="SVGID_12_">
			<use xlink:href="#SVGID_11_"  style="overflow:visible;"/>
		</clipPath>
		<rect x="996.9" y="532.4" class="st15" width="8.5" height="8.5"/>
	</g>
	<g>
		<defs>
			<rect id="SVGID_13_" x="866.6" y="541.5" width="260.6" height="167.7"/>
		</defs>
		<clipPath id="SVGID_14_">
			<use xlink:href="#SVGID_13_"  style="overflow:visible;"/>
		</clipPath>
		<rect x="864.6" y="539.5" class="st16" width="264.6" height="171.7"/>
	</g>
	<g>
		<defs>
			<path id="SVGID_15_" d="M1021,718.8c0,2.7-2.2,4.8-4.9,4.8h-38.4c-2.7,0-4.9-2.2-4.9-4.8H1021z"/>
		</defs>
		<clipPath id="SVGID_16_">
			<use xlink:href="#SVGID_15_"  style="overflow:visible;"/>
		</clipPath>
		<rect x="970.7" y="716.8" class="st17" width="52.3" height="8.8"/>
	</g>
	<g>
		<defs>
			<rect id="SVGID_17_" x="866.6" y="541.5" width="260.6" height="22.5"/>
		</defs>
		<clipPath id="SVGID_18_">
			<use xlink:href="#SVGID_17_"  style="overflow:visible;"/>
		</clipPath>
		<rect x="864.6" y="539.5" class="st18" width="264.6" height="26.5"/>
	</g>
	<g>
		<defs>
			<rect id="SVGID_19_" x="866.6" y="564" width="260.6" height="8.5"/>
		</defs>
		<clipPath id="SVGID_20_">
			<use xlink:href="#SVGID_19_"  style="overflow:visible;"/>
		</clipPath>
		<rect x="864.6" y="562" class="st19" width="264.6" height="12.5"/>
	</g>
	<g>
		<defs>
			<path id="SVGID_21_" d="M958.5,553.8v-2h-2.5C957.1,552.2,957.9,552.8,958.5,553.8z M958.5,546.3h4.8v9.9h-4.8v-0.1
				c-1.1-1.7-2.7-3-4.8-3.9v4h-4.8v-9.9h4.8v4h4.8C958.5,550.4,958.5,546.3,958.5,546.3z"/>
		</defs>
		<clipPath id="SVGID_22_">
			<use xlink:href="#SVGID_21_"  style="overflow:visible;"/>
		</clipPath>
		<rect x="947" y="544.3" class="st20" width="18.4" height="13.9"/>
	</g>
	<g>
		<defs>
			<path id="SVGID_23_" d="M978.8,554.3v1.6c-0.8,0.3-2,0.5-3.7,0.5c-0.6,0-1.2,0-1.7-0.2c-0.7-0.2-1.2-0.4-1.5-0.6
				c-1,0.6-2.1,0.8-3.5,0.8c-1,0-1.8-0.2-2.7-0.5c-1.1-0.5-1.6-1.1-1.6-1.9v-4.3h4.7v3.7c0,0.4,0.1,0.6,0.4,0.8
				c0.2,0.2,0.5,0.3,0.9,0.3c0.4,0,0.6-0.1,0.9-0.3c0.2-0.2,0.4-0.5,0.4-0.8v-3.7h4.8v3.7c0,0.4,0.1,0.6,0.4,0.8
				c0.2,0.2,0.6,0.3,0.9,0.3c0.2,0,0.4,0,0.6-0.1C978.5,554.4,978.7,554.3,978.8,554.3z"/>
		</defs>
		<clipPath id="SVGID_24_">
			<use xlink:href="#SVGID_23_"  style="overflow:visible;"/>
		</clipPath>
		<rect x="962.2" y="547.7" class="st21" width="18.6" height="10.7"/>
	</g>
	<g>
		<defs>
			<path id="SVGID_25_" d="M991.2,551.8h-1.8c0,1.8-0.6,3.1-1.8,3.8c-0.9,0.5-2.3,0.8-4.3,0.8c-1,0-1.9-0.2-2.8-0.7
				c-1.2-0.5-1.7-1.2-1.7-2v-7.3h4.8v6.3c0,0.5,0.2,0.9,0.5,1.3c0.4,0.4,0.8,0.5,1.2,0.5c0.6,0,1.1-0.2,1.5-0.6
				c0.4-0.4,0.6-0.9,0.6-1.5v-0.6h-0.2c-0.5,0-1-0.1-1.4-0.4c-0.4-0.3-0.7-0.7-0.7-1.2s0.2-0.9,0.6-1.2c0.4-0.2,0.8-0.4,1.3-0.4
				c0.4,0,0.8,0.1,1.2,0.2c0.4,0.2,0.8,0.4,1,0.7h1.9V551.8z"/>
		</defs>
		<clipPath id="SVGID_26_">
			<use xlink:href="#SVGID_25_"  style="overflow:visible;"/>
		</clipPath>
		<rect x="976.8" y="544.4" class="st22" width="16.4" height="14"/>
	</g>
	<g>
		<defs>
			<path id="SVGID_27_" d="M1003.9,558.9h-4.5v-3.1c-0.6,0.4-1.7,0.6-3.4,0.6c-1.2,0-2.2-0.2-3.2-0.7c-1.2-0.6-1.8-1.4-1.8-2.4
				c0-1.2,0.5-2.1,1.6-2.8c0.9-0.6,1.9-0.8,3.2-0.8h3v1.9h-0.4c-0.6,0-1.2,0.1-1.6,0.2c-0.6,0.2-0.9,0.6-0.9,1.2
				c0,0.9,0.6,1.3,1.9,1.3c0.5,0,0.8-0.1,1.2-0.4c0.3-0.2,0.4-0.6,0.4-1v-1.2v-1.2v-0.8h4.4L1003.9,558.9z"/>
		</defs>
		<clipPath id="SVGID_28_">
			<use xlink:href="#SVGID_27_"  style="overflow:visible;"/>
		</clipPath>
		<rect x="989" y="547.7" class="st23" width="16.9" height="13.2"/>
	</g>
	<g>
		<defs>
			<path id="SVGID_29_" d="M1019.4,554.3v1.6c-0.8,0.3-2,0.5-3.7,0.5c-0.6,0-1.2,0-1.7-0.2c-0.7-0.2-1.2-0.4-1.5-0.6
				c-1,0.6-2.1,0.8-3.5,0.8c-1,0-1.8-0.2-2.7-0.5c-1.1-0.5-1.6-1.1-1.6-1.9v-4.3h4.7v3.7c0,0.4,0.1,0.6,0.4,0.8
				c0.2,0.2,0.5,0.3,0.9,0.3s0.6-0.1,0.9-0.3c0.2-0.2,0.4-0.5,0.4-0.8v-3.7h4.8v3.7c0,0.4,0.1,0.6,0.4,0.8c0.2,0.2,0.6,0.3,0.9,0.3
				c0.2,0,0.4,0,0.6-0.1C1019.2,554.4,1019.4,554.3,1019.4,554.3z"/>
		</defs>
		<clipPath id="SVGID_30_">
			<use xlink:href="#SVGID_29_"  style="overflow:visible;"/>
		</clipPath>
		<rect x="1002.8" y="547.7" class="st24" width="18.6" height="10.7"/>
	</g>
	<g>
		<defs>
			<path id="SVGID_31_" d="M1027.3,555.9c-0.3,0.2-0.7,0.3-1.3,0.4c-0.5,0.1-1,0.2-1.4,0.2c-3.1,0-4.6-0.8-4.6-2.2v-4.5h4.8v4.1
				c0,0.6,0.4,0.8,1.1,0.8c0.4,0,0.8-0.1,1.4-0.4V555.9z M1025.3,547.3c0,0.4-0.4,0.8-1.1,1c-0.6,0.2-1.1,0.3-1.7,0.3
				c-0.6,0-1.1-0.1-1.7-0.3c-0.7-0.2-1.1-0.6-1.1-1c0-0.4,0.4-0.8,1.1-1c0.5-0.2,1.1-0.2,1.7-0.2c0.6,0,1.1,0.1,1.7,0.2
				C1024.9,546.5,1025.3,546.9,1025.3,547.3z"/>
		</defs>
		<clipPath id="SVGID_32_">
			<use xlink:href="#SVGID_31_"  style="overflow:visible;"/>
		</clipPath>
		<rect x="1017.7" y="544" class="st25" width="11.6" height="14.4"/>
	</g>
	<g>
		<defs>
			<path id="SVGID_33_" d="M1039.4,555.9c-0.9,0.3-2,0.4-3.2,0.4c-1,0-1.8-0.2-2.5-0.5c-0.9-0.4-1.4-1.1-1.4-1.9
				c0-0.8,0.5-1.5,1.5-2.1h-3.1c-0.4,2.2-1.6,3.6-3.6,4.1v-1.6c0.6-0.2,1-0.6,1.3-1c0.2-0.4,0.4-0.9,0.5-1.6h-0.2
				c-0.4,0-0.8-0.1-1.2-0.4s-0.6-0.6-0.6-1c0-0.4,0.2-0.8,0.6-1.2c0.4-0.3,0.8-0.4,1.2-0.4c0.3,0,0.7,0.1,1,0.2
				c0.4,0.2,0.6,0.4,0.8,0.7h8v2h-1.3c-0.5,0.4-0.8,0.8-0.8,1.2c0,0.4,0.2,0.7,0.6,1c0.4,0.3,0.8,0.4,1.2,0.4c0.4,0,0.7,0,1-0.1
				L1039.4,555.9L1039.4,555.9z"/>
		</defs>
		<clipPath id="SVGID_34_">
			<use xlink:href="#SVGID_33_"  style="overflow:visible;"/>
		</clipPath>
		<rect x="1025" y="546.8" class="st26" width="16.4" height="11.5"/>
	</g>
	<g>
		<defs>
			<path id="SVGID_35_" d="M1052.1,554.3v1.6c-1.6,0.4-3.5,0.6-6,0.6c-1.3,0-2.5-0.1-3.5-0.3c-1.7-0.4-2.5-0.9-2.5-1.8
				c0-0.8,0.9-1.4,2.6-1.9c-0.4-0.1-0.8-0.3-1.1-0.5c-0.4-0.3-0.7-0.6-0.7-0.9c0-0.9,1-1.5,3.1-1.8c1.2-0.2,2.5-0.3,4.2-0.3
				c0.7,0,1.3,0,1.9,0v1.6c-0.6,0-1.3,0-1.9,0c-1,0.1-1.5,0.2-1.5,0.5c0,0.2,0.3,0.4,0.8,0.4c0.4,0.1,0.8,0.1,1.1,0.1h0.2v1
				c-2,0.2-3,0.6-3,1.1c0,0.5,1.1,0.8,3.2,0.8C1050.3,554.7,1051.4,554.6,1052.1,554.3z"/>
		</defs>
		<clipPath id="SVGID_36_">
			<use xlink:href="#SVGID_35_"  style="overflow:visible;"/>
		</clipPath>
		<rect x="1038.1" y="547.1" class="st27" width="16" height="11.4"/>
	</g>
	<line class="st28" x1="875.6" y1="568.3" x2="889.9" y2="568.3"/>
	<line class="st28" x1="900.5" y1="568.3" x2="914.9" y2="568.3"/>
	<line class="st28" x1="920.7" y1="568.3" x2="944.6" y2="568.3"/>
	<line class="st28" x1="950.5" y1="568.3" x2="964.7" y2="568.3"/>
	<line class="st29" x1="980.7" y1="627.8" x2="995.1" y2="627.8"/>
	<line class="st29" x1="1005.7" y1="627.8" x2="1016" y2="627.8"/>
	<line class="st29" x1="1023.8" y1="627.8" x2="1047.7" y2="627.8"/>
	<line class="st29" x1="1055.6" y1="627.8" x2="1069.8" y2="627.8"/>
	<line class="st29" x1="980.7" y1="639" x2="1006.2" y2="639"/>
	<line class="st29" x1="1012.6" y1="639" x2="1031.8" y2="639"/>
	<line class="st29" x1="1037.7" y1="639" x2="1046.7" y2="639"/>
	<line class="st29" x1="1056.3" y1="639" x2="1069.3" y2="639"/>
	<line class="st29" x1="1074.8" y1="639" x2="1091.6" y2="639"/>
	<line class="st29" x1="1074.8" y1="627.8" x2="1094.9" y2="627.8"/>
	<line class="st29" x1="980.7" y1="650.1" x2="995.1" y2="650.1"/>
	<g>
		<defs>
			<rect id="SVGID_37_" x="875.6" y="585.1" width="86.8" height="123.8"/>
		</defs>
		<use xlink:href="#SVGID_37_"  style="overflow:visible;fill-rule:evenodd;clip-rule:evenodd;fill:#D4D6D8;"/>
		<clipPath id="SVGID_38_">
			<use xlink:href="#SVGID_37_"  style="overflow:visible;"/>
		</clipPath>
		<rect x="873.6" y="583.1" class="st30" width="90.8" height="127.8"/>
		
			<use xlink:href="#SVGID_37_"  style="overflow:visible;fill-rule:evenodd;clip-rule:evenodd;fill:none;stroke:#000000;stroke-width:0.7955;stroke-linecap:round;stroke-linejoin:round;stroke-miterlimit:10;"/>
	</g>
	<line class="st29" x1="1001.7" y1="650.1" x2="1016" y2="650.1"/>
	<line class="st29" x1="1021.9" y1="650.1" x2="1045.7" y2="650.1"/>
	<line class="st29" x1="1051.6" y1="650.1" x2="1065.9" y2="650.1"/>
	<line class="st29" x1="1071.3" y1="650.1" x2="1094.9" y2="650.1"/>
	<line class="st29" x1="980.7" y1="661.3" x2="995.1" y2="661.3"/>
	<line class="st29" x1="1001.7" y1="661.3" x2="1016" y2="661.3"/>
	<line class="st29" x1="1021.9" y1="661.3" x2="1045.7" y2="661.3"/>
	<line class="st29" x1="1071.3" y1="661.3" x2="1087.1" y2="661.3"/>
	<line class="st29" x1="1051.2" y1="661.3" x2="1065.5" y2="661.3"/>
	<line class="st29" x1="980.7" y1="672" x2="989.5" y2="672"/>
	<line class="st29" x1="995.4" y1="672" x2="1001.6" y2="672"/>
	<line class="st29" x1="1007.5" y1="672" x2="1016" y2="672"/>
	<line class="st29" x1="1021.5" y1="672" x2="1035.8" y2="672"/>
	<line class="st29" x1="1039.7" y1="672" x2="1048.2" y2="672"/>
	<line class="st29" x1="1053.8" y1="672" x2="1068" y2="672"/>
	<line class="st29" x1="1074.8" y1="672" x2="1089.1" y2="672"/>
	<line class="st29" x1="980.7" y1="683.1" x2="995.1" y2="683.1"/>
	<line class="st29" x1="1005.7" y1="683.1" x2="1020" y2="683.1"/>
	<line class="st29" x1="1025.8" y1="683.1" x2="1049.7" y2="683.1"/>
	<line class="st29" x1="1055.6" y1="683.1" x2="1069.8" y2="683.1"/>
	<g>
		<path class="st31" d="M906.7,609.8h-7.1l-0.7,19c0.2-0.2,0.5-0.4,0.7-0.6C904.5,624.2,906.9,618,906.7,609.8z"/>
		<path class="st31" d="M928.7,628.4c0.2,0.2,0.5,0.4,0.7,0.5l-1.3-19h-6.4C921.4,618.1,923.8,624.3,928.7,628.4z"/>
		<g>
			<path class="st31" d="M929.3,635.7l0.1-5.9c-0.3-0.2-0.7-0.5-1-0.8c-3.5-2.9-7.6-8.6-7.3-19.2h-13.9c0.2,10.5-3.8,16.2-7.3,19
				c-0.3,0.3-0.7,0.5-1,0.8l0.3,6.9l0.5,30.4l-0.7,33l8.8,0.2l2.6-33.5l4.8-37.1l5.3,37.5l3.3,32.9l9,0.2l-2.8-34.2L929.3,635.7z
				 M916.1,629.2c0,0.1-0.1,0.2-0.2,0.3c0,0,0,0-0.1,0c-0.3,0-1-0.1-1.7-1.1c-1.7-2.4-1.8-7.6-1.6-11.6c0-0.1,0.1-0.2,0.2-0.2h3.3
				c0.1,0,0.2,0.1,0.2,0.3V629.2z"/>
			<path class="st31" d="M914.3,628c0.6,0.8,1.1,0.9,1.4,0.9V617h-2.9C912.4,623.9,913.4,626.8,914.3,628z"/>
		</g>
		<path class="st32" d="M928.1,612.7h-28.5c-0.1,0-0.1,0.1-0.1,0.3s0.1,0.3,0.1,0.3h28.5c0.1,0,0.1-0.1,0.1-0.3
			S928.2,612.7,928.1,612.7z"/>
	</g>
	<g>
		<path d="M989.6,589.6c0,1.2-0.4,2.2-1.1,2.8c-0.7,0.7-1.7,1-3.1,1h-0.8v3.6h-3v-10.9h3.8c1.4,0,2.4,0.3,3.1,0.9
			S989.6,588.5,989.6,589.6z M984.6,591h0.5c0.4,0,0.8-0.1,1.1-0.4c0.3-0.2,0.4-0.6,0.4-1c0-0.7-0.4-1.1-1.2-1.1h-0.8V591z"/>
		<path d="M998,597l-0.5-2H994l-0.6,2h-3.2l3.6-11h3.9l3.6,11H998z M996.9,592.6l-0.5-1.8c-0.1-0.4-0.2-0.9-0.4-1.5
			c-0.2-0.6-0.3-1.1-0.3-1.4c0,0.3-0.1,0.7-0.3,1.3c-0.1,0.6-0.4,1.7-0.9,3.4H996.9z"/>
		<path d="M1012.9,597h-3.9l-4-7.7h-0.1c0.1,1.2,0.1,2.1,0.1,2.8v4.9h-2.6v-10.9h3.9l4,7.6h0c-0.1-1.1-0.1-2-0.1-2.7v-4.9h2.6V597z"
			/>
		<path d="M1020.1,597h-3v-8.5h-2.7v-2.4h8.3v2.4h-2.7V597z"/>
		<path d="M1031.4,593.7c0,0.7-0.2,1.3-0.5,1.8c-0.3,0.5-0.8,0.9-1.5,1.2c-0.6,0.3-1.4,0.4-2.3,0.4c-0.7,0-1.3-0.1-1.8-0.2
			c-0.5-0.1-1-0.3-1.5-0.5v-2.6c0.6,0.3,1.1,0.5,1.8,0.7c0.6,0.2,1.2,0.2,1.7,0.2c0.4,0,0.8-0.1,1-0.2c0.2-0.2,0.3-0.3,0.3-0.6
			c0-0.1,0-0.3-0.1-0.4s-0.2-0.2-0.4-0.3c-0.2-0.1-0.7-0.3-1.5-0.7c-0.7-0.3-1.2-0.6-1.6-0.9c-0.4-0.3-0.6-0.7-0.8-1
			c-0.2-0.4-0.3-0.9-0.3-1.4c0-1,0.4-1.8,1.1-2.4s1.7-0.8,3-0.8c1.1,0,2.3,0.3,3.5,0.8l-0.9,2.3c-1-0.5-1.9-0.7-2.6-0.7
			c-0.4,0-0.7,0.1-0.8,0.2c-0.2,0.1-0.3,0.3-0.3,0.5c0,0.2,0.1,0.4,0.3,0.6c0.2,0.2,0.8,0.5,1.8,0.9c0.9,0.4,1.6,0.9,2,1.4
			C1031.3,592.4,1031.4,593,1031.4,593.7z"/>
		<path d="M1032.5,593.9v-2.1h14.2v2.1H1032.5z"/>
		<path d="M1057.8,597h-3v-4.5h-3.4v4.5h-3v-10.9h3v4.1h3.4v-4.1h3V597z"/>
		<path d="M1070.4,591.5c0,1.8-0.5,3.2-1.4,4.2s-2.2,1.4-4,1.4c-1.7,0-3-0.5-3.9-1.4c-0.9-1-1.4-2.4-1.4-4.2c0-1.8,0.5-3.2,1.4-4.2
			s2.2-1.4,4-1.4c1.7,0,3.1,0.5,4,1.4S1070.4,589.7,1070.4,591.5z M1062.9,591.5c0,2.1,0.7,3.2,2.2,3.2c0.7,0,1.3-0.3,1.7-0.8
			s0.5-1.3,0.5-2.4c0-1.1-0.2-1.9-0.6-2.4c-0.4-0.5-0.9-0.8-1.6-0.8C1063.6,588.3,1062.9,589.4,1062.9,591.5z"/>
		<path d="M1077.2,597h-3v-8.5h-2.7v-2.4h8.3v2.4h-2.7V597z"/>
		<path d="M984.6,609v4h-3v-10.9h3.6c3,0,4.5,1.1,4.5,3.2c0,1.3-0.6,2.2-1.9,2.9l3.2,4.8h-3.4l-2.3-4H984.6z M984.6,606.8h0.6
			c1,0,1.5-0.5,1.5-1.4c0-0.8-0.5-1.1-1.5-1.1h-0.6V606.8z"/>
		<path d="M992,613v-10.9h3V613H992z"/>
		<path d="M1001.8,606.6h4.7v5.9c-1.3,0.4-2.7,0.7-4.2,0.7c-1.7,0-3-0.5-3.9-1.5s-1.4-2.4-1.4-4.2c0-1.8,0.5-3.1,1.5-4.1
			c1-1,2.4-1.5,4.2-1.5c0.7,0,1.3,0.1,1.9,0.2c0.6,0.1,1.1,0.3,1.6,0.5l-0.9,2.3c-0.8-0.4-1.7-0.6-2.6-0.6c-0.9,0-1.5,0.3-2,0.8
			c-0.5,0.6-0.7,1.4-0.7,2.4c0,1,0.2,1.8,0.6,2.3c0.4,0.5,1,0.8,1.8,0.8c0.4,0,0.8,0,1.2-0.1v-1.7h-2V606.6z"/>
		<path d="M1018.1,613h-3v-4.5h-3.4v4.5h-3v-10.9h3v4.1h3.4v-4.1h3V613z"/>
		<path d="M1025.3,613h-3v-8.5h-2.7v-2.4h8.3v2.4h-2.7V613z"/>
		<path d="M1043.9,613h-3.9l-4-7.7h-0.1c0.1,1.2,0.1,2.1,0.1,2.8v4.9h-2.6v-10.9h3.9l4,7.6h0c-0.1-1.1-0.1-2-0.1-2.7v-4.9h2.6V613z"
			/>
		<path d="M1056.5,607.5c0,1.8-0.5,3.2-1.4,4.2c-0.9,1-2.2,1.4-4,1.4c-1.7,0-3-0.5-3.9-1.4c-0.9-1-1.4-2.4-1.4-4.2
			c0-1.8,0.5-3.2,1.4-4.2c0.9-1,2.2-1.4,4-1.4c1.7,0,3.1,0.5,4,1.4C1056,604.3,1056.5,605.7,1056.5,607.5z M1048.9,607.5
			c0,2.1,0.7,3.2,2.2,3.2c0.7,0,1.3-0.3,1.7-0.8s0.5-1.3,0.5-2.4c0-1.1-0.2-1.9-0.5-2.4c-0.4-0.5-0.9-0.8-1.6-0.8
			C1049.7,604.3,1048.9,605.4,1048.9,607.5z"/>
		<path d="M1070.3,613h-3.5l-1-4.8c0-0.2-0.1-0.6-0.2-1.2c-0.1-0.6-0.2-1.1-0.2-1.5c0,0.3-0.1,0.7-0.2,1.2s-0.2,0.9-0.3,1.3
			c-0.1,0.4-0.4,2-1.1,4.9h-3.5l-2.7-10.9h2.8l1.2,5.5c0.3,1.2,0.5,2.2,0.6,2.9c0.1-0.5,0.2-1.2,0.3-2.1c0.2-0.9,0.3-1.6,0.5-2.2
			l1-4.1h2.7l0.9,4.1c0.2,0.7,0.3,1.4,0.5,2.3c0.2,0.9,0.3,1.5,0.3,1.9c0.1-0.6,0.2-1.5,0.5-2.9l1.2-5.5h2.8L1070.3,613z"/>
		<path d="M1073.8,611.8c0-0.5,0.1-0.8,0.4-1.1c0.3-0.2,0.7-0.4,1.2-0.4c0.5,0,0.9,0.1,1.1,0.4c0.3,0.2,0.4,0.6,0.4,1.1
			c0,0.4-0.1,0.8-0.4,1.1c-0.3,0.3-0.6,0.4-1.1,0.4c-0.5,0-0.9-0.1-1.2-0.4C1074,612.6,1073.8,612.2,1073.8,611.8z"/>
	</g>
	<g>
		<rect id="shop_now_rect" x="882.8" y="636.2" class="st33" width="73.3" height="24.4"/>
		<g>
			<path class="st34" d="M894.4,650.5c0,0.5-0.1,0.9-0.4,1.3s-0.6,0.7-1,0.9c-0.5,0.2-1,0.3-1.6,0.3c-0.5,0-0.9,0-1.3-0.1
				c-0.3-0.1-0.7-0.2-1.1-0.4v-1.8c0.4,0.2,0.8,0.4,1.2,0.5c0.4,0.1,0.8,0.2,1.2,0.2c0.3,0,0.5-0.1,0.7-0.2c0.1-0.1,0.2-0.2,0.2-0.4
				c0-0.1,0-0.2-0.1-0.3c-0.1-0.1-0.2-0.2-0.3-0.2c-0.1-0.1-0.5-0.2-1-0.5c-0.5-0.2-0.9-0.4-1.1-0.7s-0.4-0.5-0.6-0.7
				c-0.1-0.3-0.2-0.6-0.2-1c0-0.7,0.3-1.3,0.8-1.7c0.5-0.4,1.2-0.6,2.1-0.6c0.8,0,1.6,0.2,2.4,0.6l-0.6,1.6
				c-0.7-0.3-1.3-0.5-1.9-0.5c-0.3,0-0.5,0-0.6,0.1c-0.1,0.1-0.2,0.2-0.2,0.4c0,0.2,0.1,0.3,0.2,0.4c0.2,0.1,0.6,0.3,1.3,0.7
				c0.7,0.3,1.1,0.6,1.4,1C894.3,649.6,894.4,650,894.4,650.5z"/>
			<path class="st34" d="M902.2,652.8h-2.1v-3.1h-2.4v3.1h-2.1v-7.7h2.1v2.8h2.4v-2.8h2.1V652.8z"/>
			<path class="st34" d="M911,649c0,1.3-0.3,2.3-0.9,2.9c-0.6,0.7-1.6,1-2.8,1c-1.2,0-2.1-0.3-2.8-1c-0.6-0.7-1-1.7-1-2.9
				c0-1.3,0.3-2.2,1-2.9s1.6-1,2.8-1c1.2,0,2.1,0.3,2.8,1C910.7,646.7,911,647.7,911,649z M905.7,649c0,1.5,0.5,2.2,1.5,2.2
				c0.5,0,0.9-0.2,1.2-0.5c0.3-0.4,0.4-0.9,0.4-1.7c0-0.8-0.1-1.3-0.4-1.7s-0.6-0.5-1.2-0.5C906.2,646.7,905.7,647.5,905.7,649z"/>
			<path class="st34" d="M917.9,647.6c0,0.9-0.3,1.5-0.8,2c-0.5,0.5-1.2,0.7-2.2,0.7h-0.6v2.5h-2.1v-7.7h2.7c1,0,1.7,0.2,2.2,0.6
				S917.9,646.8,917.9,647.6z M914.5,648.6h0.4c0.3,0,0.6-0.1,0.7-0.3s0.3-0.4,0.3-0.7c0-0.5-0.3-0.8-0.9-0.8h-0.5V648.6z"/>
			<path class="st34" d="M929.3,652.8h-2.7l-2.8-5.4h0c0.1,0.8,0.1,1.5,0.1,1.9v3.5H922v-7.7h2.7l2.8,5.3h0c0-0.8-0.1-1.4-0.1-1.9
				v-3.5h1.8V652.8z"/>
			<path class="st34" d="M938.1,649c0,1.3-0.3,2.3-0.9,2.9c-0.6,0.7-1.6,1-2.8,1c-1.2,0-2.1-0.3-2.8-1c-0.6-0.7-1-1.7-1-2.9
				c0-1.3,0.3-2.2,1-2.9s1.6-1,2.8-1c1.2,0,2.1,0.3,2.8,1C937.8,646.7,938.1,647.7,938.1,649z M932.8,649c0,1.5,0.5,2.2,1.5,2.2
				c0.5,0,0.9-0.2,1.2-0.5c0.3-0.4,0.4-0.9,0.4-1.7c0-0.8-0.1-1.3-0.4-1.7s-0.6-0.5-1.2-0.5C933.3,646.7,932.8,647.5,932.8,649z"/>
			<path class="st34" d="M947.8,652.8h-2.4l-0.7-3.3c0-0.1-0.1-0.4-0.2-0.8s-0.1-0.8-0.2-1c0,0.2-0.1,0.5-0.1,0.8
				c-0.1,0.3-0.1,0.6-0.2,0.9c-0.1,0.3-0.3,1.4-0.8,3.4h-2.4l-1.9-7.7h2l0.8,3.8c0.2,0.8,0.3,1.5,0.4,2c0-0.4,0.1-0.8,0.2-1.5
				c0.1-0.6,0.2-1.1,0.3-1.5l0.7-2.9h1.9l0.7,2.9c0.1,0.5,0.2,1,0.3,1.6c0.1,0.6,0.2,1.1,0.2,1.4c0-0.4,0.2-1.1,0.4-2l0.8-3.9h2
				L947.8,652.8z"/>
		</g>
	</g>
	<g>
		
			<image style="overflow:visible;opacity:0.75;" width="284" height="456" xlink:href="7E0A1FB878E9E70.png"  transform="matrix(0.24 0 0 0.24 1062.4327 590.4985)">
		</image>
		<g>
			<rect x="1071.6" y="594.1" class="st0" width="55.4" height="96.5"/>
			<rect x="1071.6" y="594.1" class="st35" width="55.4" height="96.5"/>
		</g>
	</g>
	<rect x="1079.2" y="679.1" width="40.8" height="7.3"/>
	<line class="st29" x1="1079" y1="670.1" x2="1093.3" y2="670.1"/>
	<g>
		<path class="st31" d="M1092.9,614.4h-3.9l-0.4,10.3c0.1-0.1,0.3-0.2,0.4-0.3C1091.7,622.2,1093,618.8,1092.9,614.4z"/>
		<path class="st31" d="M1104.9,624.5c0.1,0.1,0.2,0.2,0.4,0.3l-0.7-10.4h-3.5C1101,618.9,1102.3,622.3,1104.9,624.5z"/>
		<g>
			<path class="st31" d="M1105.3,628.4l0.1-3.2c-0.2-0.1-0.4-0.3-0.5-0.4c-1.9-1.6-4.1-4.7-4-10.5h-7.6c0.1,5.7-2.1,8.8-4,10.4
				c-0.2,0.2-0.4,0.3-0.6,0.4l0.2,3.8l0.3,16.6l-0.4,18l4.8,0.1l1.4-18.3l2.6-20.2l2.9,20.4l1.8,18l4.9,0.1l-1.5-18.6L1105.3,628.4z
				 M1098.1,624.9c0,0.1,0,0.1-0.1,0.1c0,0,0,0-0.1,0c-0.2,0-0.5-0.1-0.9-0.6c-0.9-1.3-1-4.2-0.9-6.3c0-0.1,0-0.1,0.1-0.1h1.8
				c0.1,0,0.1,0.1,0.1,0.1V624.9z"/>
			<path class="st31" d="M1097.1,624.3c0.3,0.4,0.6,0.5,0.8,0.5v-6.5h-1.6C1096.1,622,1096.6,623.6,1097.1,624.3z"/>
		</g>
		<path class="st32" d="M1104.6,615.9h-15.5c0,0-0.1,0.1-0.1,0.1s0,0.1,0.1,0.1h15.5c0,0,0.1-0.1,0.1-0.1S1104.7,615.9,1104.6,615.9
			z"/>
	</g>
	<g>
		<path class="st0" d="M1089.4,682.1c0,0.4-0.1,0.7-0.3,0.9c-0.2,0.2-0.5,0.3-1,0.3h-0.3v1.1h-0.9v-3.4h1.2c0.4,0,0.8,0.1,1,0.3
			C1089.3,681.5,1089.4,681.8,1089.4,682.1z M1087.8,682.6h0.2c0.1,0,0.2,0,0.3-0.1c0.1-0.1,0.1-0.2,0.1-0.3c0-0.2-0.1-0.3-0.4-0.3
			h-0.2V682.6z"/>
		<path class="st0" d="M1092.8,681.1v2.1c0,0.4-0.1,0.8-0.4,1c-0.3,0.2-0.6,0.4-1.1,0.4c-0.5,0-0.8-0.1-1.1-0.4
			c-0.2-0.2-0.4-0.6-0.4-1v-2.1h0.9v2c0,0.2,0,0.4,0.1,0.5c0.1,0.1,0.2,0.2,0.4,0.2c0.2,0,0.3-0.1,0.4-0.2c0.1-0.1,0.1-0.3,0.1-0.5
			v-2H1092.8z"/>
		<path class="st0" d="M1094.4,683.2v1.2h-0.9v-3.4h1.1c0.9,0,1.4,0.3,1.4,1c0,0.4-0.2,0.7-0.6,0.9l1,1.5h-1l-0.7-1.2H1094.4z
			 M1094.4,682.5h0.2c0.3,0,0.5-0.1,0.5-0.4c0-0.2-0.2-0.4-0.5-0.4h-0.2V682.5z"/>
		<path class="st0" d="M1098.3,681.8c-0.2,0-0.4,0.1-0.5,0.3c-0.1,0.2-0.2,0.4-0.2,0.7c0,0.7,0.2,1,0.7,1c0.2,0,0.3,0,0.4-0.1
			c0.1,0,0.3-0.1,0.4-0.2v0.8c-0.3,0.1-0.6,0.2-1,0.2c-0.5,0-0.9-0.1-1.2-0.4c-0.3-0.3-0.4-0.7-0.4-1.3c0-0.4,0.1-0.7,0.2-0.9
			s0.3-0.5,0.6-0.6s0.5-0.2,0.9-0.2c0.4,0,0.7,0.1,1.1,0.2l-0.3,0.7c-0.1-0.1-0.3-0.1-0.4-0.1
			C1098.5,681.8,1098.4,681.8,1098.3,681.8z"/>
		<path class="st0" d="M1102.8,684.5h-0.9v-1.4h-1.1v1.4h-0.9v-3.4h0.9v1.3h1.1v-1.3h0.9V684.5z"/>
		<path class="st0" d="M1105.6,684.5l-0.2-0.6h-1.1l-0.2,0.6h-1l1.1-3.4h1.2l1.1,3.4H1105.6z M1105.2,683.1l-0.1-0.6
			c0-0.1-0.1-0.3-0.1-0.5s-0.1-0.3-0.1-0.4c0,0.1,0,0.2-0.1,0.4s-0.1,0.5-0.3,1.1H1105.2z"/>
		<path class="st0" d="M1109.2,683.4c0,0.2-0.1,0.4-0.2,0.6s-0.3,0.3-0.5,0.4s-0.4,0.1-0.7,0.1c-0.2,0-0.4,0-0.6,0
			c-0.2,0-0.3-0.1-0.5-0.2v-0.8c0.2,0.1,0.4,0.2,0.5,0.2c0.2,0.1,0.4,0.1,0.5,0.1c0.1,0,0.2,0,0.3-0.1c0.1,0,0.1-0.1,0.1-0.2
			c0,0,0-0.1,0-0.1c0,0-0.1-0.1-0.1-0.1c-0.1,0-0.2-0.1-0.5-0.2c-0.2-0.1-0.4-0.2-0.5-0.3c-0.1-0.1-0.2-0.2-0.2-0.3
			c-0.1-0.1-0.1-0.3-0.1-0.4c0-0.3,0.1-0.6,0.3-0.7c0.2-0.2,0.5-0.3,0.9-0.3c0.4,0,0.7,0.1,1.1,0.2l-0.3,0.7
			c-0.3-0.1-0.6-0.2-0.8-0.2c-0.1,0-0.2,0-0.3,0.1c-0.1,0-0.1,0.1-0.1,0.2c0,0.1,0,0.1,0.1,0.2c0.1,0.1,0.3,0.1,0.6,0.3
			c0.3,0.1,0.5,0.3,0.6,0.4C1109.1,683,1109.2,683.2,1109.2,683.4z"/>
		<path class="st0" d="M1111.7,684.5h-2v-3.4h2v0.7h-1.1v0.5h1v0.7h-1v0.6h1.1V684.5z"/>
	</g>
	<g>
		<g>
			<defs>
				<path id="SVGID_39_" d="M1082.1,603.2v-0.8h-1C1081.5,602.5,1081.8,602.8,1082.1,603.2z M1082.1,600.2h2v4h-2v0
					c-0.5-0.7-1.1-1.2-1.9-1.6v1.6h-2v-4h2v1.6h1.9C1082.1,601.8,1082.1,600.2,1082.1,600.2z"/>
			</defs>
			<clipPath id="SVGID_40_">
				<use xlink:href="#SVGID_39_"  style="overflow:visible;"/>
			</clipPath>
			<rect x="1077.4" y="599.4" class="st36" width="7.5" height="5.7"/>
		</g>
		<g>
			<defs>
				<path id="SVGID_41_" d="M1090.3,603.4v0.6c-0.3,0.1-0.8,0.2-1.5,0.2c-0.2,0-0.5,0-0.7-0.1c-0.3-0.1-0.5-0.1-0.6-0.3
					c-0.4,0.2-0.9,0.3-1.4,0.3c-0.4,0-0.7-0.1-1.1-0.2c-0.4-0.2-0.6-0.5-0.6-0.8v-1.7h1.9v1.5c0,0.1,0,0.2,0.1,0.3s0.2,0.1,0.4,0.1
					c0.1,0,0.3,0,0.4-0.1c0.1-0.1,0.2-0.2,0.2-0.3v-1.5h1.9v1.5c0,0.1,0,0.3,0.1,0.3s0.2,0.1,0.4,0.1c0.1,0,0.1,0,0.2,0
					C1090.2,603.4,1090.3,603.4,1090.3,603.4z"/>
			</defs>
			<clipPath id="SVGID_42_">
				<use xlink:href="#SVGID_41_"  style="overflow:visible;"/>
			</clipPath>
			<rect x="1083.6" y="600.7" class="st37" width="7.6" height="4.3"/>
		</g>
		<g>
			<defs>
				<path id="SVGID_43_" d="M1095.3,602.4h-0.7c0,0.7-0.2,1.3-0.7,1.6c-0.4,0.2-1,0.3-1.8,0.3c-0.4,0-0.8-0.1-1.1-0.3
					c-0.5-0.2-0.7-0.5-0.7-0.8v-3h1.9v2.6c0,0.2,0.1,0.4,0.2,0.5c0.1,0.1,0.3,0.2,0.5,0.2c0.2,0,0.5-0.1,0.6-0.2s0.2-0.4,0.2-0.6
					v-0.2h-0.1c-0.2,0-0.4,0-0.5-0.1c-0.2-0.1-0.3-0.3-0.3-0.5s0.1-0.4,0.2-0.5c0.1-0.1,0.3-0.1,0.5-0.1c0.2,0,0.3,0,0.5,0.1
					c0.2,0.1,0.3,0.2,0.4,0.3h0.8V602.4z"/>
			</defs>
			<clipPath id="SVGID_44_">
				<use xlink:href="#SVGID_43_"  style="overflow:visible;"/>
			</clipPath>
			<rect x="1089.5" y="599.4" class="st38" width="6.7" height="5.7"/>
		</g>
		<g>
			<defs>
				<path id="SVGID_45_" d="M1100.5,605.3h-1.8V604c-0.2,0.2-0.7,0.2-1.4,0.2c-0.5,0-0.9-0.1-1.3-0.3c-0.5-0.2-0.7-0.6-0.7-1
					c0-0.5,0.2-0.9,0.6-1.1c0.4-0.2,0.8-0.3,1.3-0.3h1.2v0.8h-0.2c-0.3,0-0.5,0-0.6,0.1c-0.2,0.1-0.4,0.3-0.4,0.5
					c0,0.4,0.3,0.5,0.8,0.5c0.2,0,0.3,0,0.5-0.1s0.2-0.2,0.2-0.4v-0.5v-0.5v-0.3h1.8L1100.5,605.3z"/>
			</defs>
			<clipPath id="SVGID_46_">
				<use xlink:href="#SVGID_45_"  style="overflow:visible;"/>
			</clipPath>
			<rect x="1094.5" y="600.7" class="st39" width="6.9" height="5.4"/>
		</g>
		<g>
			<defs>
				<path id="SVGID_47_" d="M1106.8,603.4v0.6c-0.3,0.1-0.8,0.2-1.5,0.2c-0.2,0-0.5,0-0.7-0.1c-0.3-0.1-0.5-0.1-0.6-0.3
					c-0.4,0.2-0.9,0.3-1.4,0.3c-0.4,0-0.7-0.1-1.1-0.2c-0.4-0.2-0.6-0.5-0.6-0.8v-1.7h1.9v1.5c0,0.1,0,0.2,0.1,0.3s0.2,0.1,0.4,0.1
					c0.1,0,0.3,0,0.4-0.1c0.1-0.1,0.2-0.2,0.2-0.3v-1.5h1.9v1.5c0,0.1,0,0.3,0.1,0.3s0.2,0.1,0.4,0.1c0.1,0,0.1,0,0.2,0
					C1106.7,603.4,1106.8,603.4,1106.8,603.4z"/>
			</defs>
			<clipPath id="SVGID_48_">
				<use xlink:href="#SVGID_47_"  style="overflow:visible;"/>
			</clipPath>
			<rect x="1100.1" y="600.7" class="st40" width="7.6" height="4.3"/>
		</g>
		<g>
			<defs>
				<path id="SVGID_49_" d="M1110,604.1c-0.1,0.1-0.3,0.1-0.5,0.2c-0.2,0-0.4,0.1-0.6,0.1c-1.2,0-1.9-0.3-1.9-0.9v-1.8h1.9v1.7
					c0,0.2,0.1,0.3,0.4,0.3c0.2,0,0.3,0,0.6-0.2V604.1z M1109.2,600.6c0,0.2-0.1,0.3-0.5,0.4c-0.2,0.1-0.5,0.1-0.7,0.1
					s-0.5,0-0.7-0.1c-0.3-0.1-0.5-0.2-0.5-0.4c0-0.2,0.1-0.3,0.5-0.4c0.2-0.1,0.4-0.1,0.7-0.1c0.2,0,0.5,0,0.7,0.1
					C1109.1,600.3,1109.2,600.4,1109.2,600.6z"/>
			</defs>
			<clipPath id="SVGID_50_">
				<use xlink:href="#SVGID_49_"  style="overflow:visible;"/>
			</clipPath>
			<rect x="1106.1" y="599.2" class="st41" width="4.7" height="5.9"/>
		</g>
		<g>
			<defs>
				<path id="SVGID_51_" d="M1115,604.1c-0.4,0.1-0.8,0.2-1.3,0.2c-0.4,0-0.7-0.1-1-0.2c-0.4-0.2-0.5-0.4-0.5-0.8
					c0-0.3,0.2-0.6,0.6-0.9h-1.2c-0.1,0.9-0.6,1.5-1.5,1.7v-0.6c0.2-0.1,0.4-0.2,0.5-0.4c0.1-0.1,0.2-0.4,0.2-0.6h-0.1
					c-0.2,0-0.3,0-0.5-0.2c-0.1-0.1-0.2-0.2-0.2-0.4s0.1-0.3,0.2-0.5c0.1-0.1,0.3-0.2,0.5-0.2c0.1,0,0.3,0,0.4,0.1
					c0.2,0.1,0.3,0.2,0.3,0.3h3.3v0.8h-0.5c-0.2,0.1-0.3,0.3-0.3,0.5c0,0.2,0.1,0.3,0.2,0.4c0.1,0.1,0.3,0.2,0.5,0.2
					c0.1,0,0.3,0,0.4,0L1115,604.1L1115,604.1z"/>
			</defs>
			<clipPath id="SVGID_52_">
				<use xlink:href="#SVGID_51_"  style="overflow:visible;"/>
			</clipPath>
			<rect x="1109.1" y="600.4" class="st42" width="6.7" height="4.7"/>
		</g>
		<g>
			<defs>
				<path id="SVGID_53_" d="M1120.1,603.4v0.6c-0.6,0.2-1.4,0.2-2.4,0.2c-0.5,0-1,0-1.4-0.1c-0.7-0.1-1-0.4-1-0.7
					c0-0.3,0.4-0.6,1.1-0.8c-0.2,0-0.3-0.1-0.5-0.2c-0.2-0.1-0.3-0.2-0.3-0.4c0-0.4,0.4-0.6,1.3-0.7c0.5-0.1,1-0.1,1.7-0.1
					c0.3,0,0.5,0,0.8,0v0.6c-0.3,0-0.5,0-0.8,0c-0.4,0-0.6,0.1-0.6,0.2c0,0.1,0.1,0.1,0.3,0.2c0.2,0,0.3,0,0.5,0h0.1v0.4
					c-0.8,0.1-1.2,0.3-1.2,0.5c0,0.2,0.4,0.3,1.3,0.3C1119.4,603.6,1119.8,603.5,1120.1,603.4z"/>
			</defs>
			<clipPath id="SVGID_54_">
				<use xlink:href="#SVGID_53_"  style="overflow:visible;"/>
			</clipPath>
			<rect x="1114.4" y="600.5" class="st43" width="6.5" height="4.6"/>
		</g>
	</g>
</g>
<g>
	<g>
		<line class="st44" x1="715.1" y1="258.1" x2="550.2" y2="258.1"/>
		<g>
			<path class="st5" d="M512.4,258.1c17.8-6.6,39.9-17.9,53.5-29.8l-10.8,29.8l10.8,29.8C552.3,275.9,530.2,264.7,512.4,258.1z"/>
		</g>
	</g>
</g>
<g>
	<g>
		<line class="st45" x1="1284" y1="258.1" x2="1447.3" y2="258.1"/>
		<g>
			<path class="st5" d="M1485,258.1c-17.7,6.6-39.7,17.8-53.3,29.7l10.7-29.7l-10.7-29.7C1445.3,240.3,1467.2,251.5,1485,258.1z"/>
		</g>
	</g>
</g>
<g>
	<g>
		<g class="st46">
			<g>
				<polygon class="st47" points="356.1,212 353.8,311.1 192.9,312.1 195.2,212.9 				"/>
			</g>
			<g>
				<polygon class="st48" points="264.8,187.4 356.1,212 195.2,212.9 103.9,188.4 				"/>
			</g>
			<g>
				<polygon class="st49" points="103.9,188.4 195.2,212.9 192.9,312.1 101.6,287.6 				"/>
			</g>
		</g>
	</g>
</g>
<line class="st50" x1="401.5" y1="305" x2="401.5" y2="116"/>
<circle class="st51" cx="401.1" cy="116.3" r="8"/>
<polygon class="st52" points="403,123.4 512.4,148.4 403,173.4 "/>
<g>
	<path class="st4" d="M434.6,144.9c0,3.2-1,5.8-2.9,7.5c-1.9,1.8-4.6,2.7-8.2,2.7h-2.2v9.6h-7.9v-29.1h10.1c3.7,0,6.4,0.8,8.3,2.4
		C433.7,139.6,434.6,141.9,434.6,144.9z M421.4,148.6h1.4c1.2,0,2.1-0.3,2.8-1c0.7-0.7,1-1.6,1-2.7c0-2-1.1-2.9-3.3-2.9h-2V148.6z"
		/>
</g>
<g>
	<path class="st1" d="M156,348.3c0,3.4-1,6-3,7.9s-4.8,2.8-8.5,2.8h-2.3V369h-8.2v-30.4h10.5c3.8,0,6.7,0.8,8.6,2.5
		C155,342.8,156,345.2,156,348.3z M142.2,352.2h1.5c1.2,0,2.2-0.3,2.9-1c0.7-0.7,1.1-1.6,1.1-2.9c0-2.1-1.1-3.1-3.4-3.1h-2.1V352.2z
		"/>
	<path class="st1" d="M186.7,338.6v18.3c0,4-1.1,7.1-3.4,9.2c-2.3,2.2-5.5,3.3-9.7,3.3c-4.1,0-7.3-1.1-9.6-3.2
		c-2.2-2.1-3.3-5.2-3.3-9.1v-18.5h8.3v17.8c0,2.1,0.4,3.7,1.2,4.7c0.8,1,2,1.5,3.6,1.5c1.7,0,2.9-0.5,3.6-1.4c0.8-1,1.1-2.5,1.1-4.7
		v-17.8H186.7z"/>
	<path class="st1" d="M193.1,338.6h10.6c4.1,0,7.2,0.6,9.2,1.8s3,3.1,3,5.7c0,1.7-0.4,3.2-1.3,4.4c-0.9,1.2-2,2-3.5,2.3v0.2
		c1.9,0.5,3.3,1.3,4.1,2.5c0.8,1.2,1.3,2.7,1.3,4.5c0,2.8-1,4.9-3.1,6.5c-2.1,1.6-4.9,2.4-8.5,2.4h-11.8V338.6z M201.3,350.3h2.5
		c1.2,0,2.1-0.2,2.7-0.7c0.6-0.5,1-1.2,1-2.2c0-1.7-1.3-2.6-3.9-2.6h-2.3V350.3z M201.3,356.3v6.4h2.9c2.6,0,3.8-1.1,3.8-3.2
		c0-1-0.3-1.8-1-2.3c-0.7-0.5-1.7-0.8-3-0.8H201.3z"/>
	<path class="st1" d="M221.8,369v-30.4h8.2v23.8h11.7v6.6H221.8z"/>
	<path class="st1" d="M246.6,369v-30.4h8.3V369H246.6z"/>
	<path class="st1" d="M281.3,359.8c0,1.9-0.5,3.6-1.4,5c-1,1.5-2.3,2.6-4.1,3.4c-1.8,0.8-3.9,1.2-6.3,1.2c-2,0-3.7-0.1-5.1-0.4
		c-1.4-0.3-2.8-0.8-4.3-1.5v-7.3c1.6,0.8,3.2,1.4,4.9,1.9c1.7,0.5,3.2,0.7,4.7,0.7c1.2,0,2.1-0.2,2.7-0.6s0.9-1,0.9-1.6
		c0-0.4-0.1-0.8-0.3-1.1c-0.2-0.3-0.6-0.6-1.1-0.9c-0.5-0.3-1.9-1-4-2c-2-0.9-3.5-1.8-4.5-2.6s-1.7-1.8-2.2-2.9
		c-0.5-1.1-0.7-2.4-0.7-3.9c0-2.8,1-5,3.1-6.5s4.8-2.3,8.4-2.3c3.1,0,6.4,0.7,9.6,2.2l-2.5,6.3c-2.8-1.3-5.3-2-7.4-2
		c-1.1,0-1.8,0.2-2.3,0.6s-0.7,0.8-0.7,1.4c0,0.6,0.3,1.1,0.9,1.6c0.6,0.5,2.3,1.3,5,2.6c2.6,1.2,4.4,2.4,5.5,3.8
		C280.7,356,281.3,357.7,281.3,359.8z"/>
	<path class="st1" d="M312,369h-8.3v-12.4h-9.5V369H286v-30.4h8.3v11.3h9.5v-11.3h8.3V369z"/>
	<path class="st1" d="M336.6,369h-18v-30.4h18v6.6h-9.8v4.8h9.1v6.6h-9.1v5.7h9.8V369z"/>
	<path class="st1" d="M350.2,357.9V369H342v-30.4h10c8.3,0,12.4,3,12.4,9c0,3.5-1.7,6.2-5.2,8.2L368,369h-9.3l-6.4-11.1H350.2z
		 M350.2,351.8h1.5c2.9,0,4.3-1.3,4.3-3.8c0-2.1-1.4-3.1-4.2-3.1h-1.6V351.8z"/>
	<path class="st1" d="M390.6,359.8c0,1.9-0.5,3.6-1.4,5c-1,1.5-2.3,2.6-4.1,3.4c-1.8,0.8-3.9,1.2-6.3,1.2c-2,0-3.7-0.1-5.1-0.4
		c-1.4-0.3-2.8-0.8-4.3-1.5v-7.3c1.6,0.8,3.2,1.4,4.9,1.9c1.7,0.5,3.2,0.7,4.7,0.7c1.2,0,2.1-0.2,2.7-0.6s0.9-1,0.9-1.6
		c0-0.4-0.1-0.8-0.3-1.1c-0.2-0.3-0.6-0.6-1.1-0.9c-0.5-0.3-1.9-1-4-2c-2-0.9-3.5-1.8-4.5-2.6s-1.7-1.8-2.2-2.9
		c-0.5-1.1-0.7-2.4-0.7-3.9c0-2.8,1-5,3.1-6.5s4.8-2.3,8.4-2.3c3.1,0,6.4,0.7,9.6,2.2l-2.5,6.3c-2.8-1.3-5.3-2-7.4-2
		c-1.1,0-1.8,0.2-2.3,0.6s-0.7,0.8-0.7,1.4c0,0.6,0.3,1.1,0.9,1.6c0.6,0.5,2.3,1.3,5,2.6c2.6,1.2,4.4,2.4,5.5,3.8
		C390.1,356,390.6,357.7,390.6,359.8z"/>
</g>
<g>
	<rect x="214.7" y="231.2" class="st53" width="28" height="36.2"/>
	<line class="st54" x1="228.5" y1="232" x2="228.5" y2="268"/>
	<line class="st54" x1="215" y1="250.5" x2="243" y2="250.5"/>
</g>
<g>
	<rect x="307.8" y="231.2" class="st53" width="28" height="36.2"/>
	<line class="st54" x1="321.5" y1="232" x2="321.5" y2="268"/>
	<line class="st54" x1="308" y1="250.5" x2="336" y2="250.5"/>
</g>
<g>
	<g>
		<g class="st46">
			<g>
				<polygon class="st55" points="1648.8,205.1 1832.1,206.1 1834,316.7 1650.6,315.7 				"/>
			</g>
			<g>
				<polygon class="st56" points="1648.8,205.1 1729.7,177.7 1913.1,178.8 1832.1,206.1 				"/>
			</g>
			<g>
				<polygon class="st57" points="1832.1,206.1 1913.1,178.8 1915,289.4 1834,316.7 				"/>
			</g>
		</g>
	</g>
</g>
<line class="st58" x1="1610" y1="309" x2="1610" y2="98"/>
<circle class="st51" cx="1609.8" cy="98.3" r="8.9"/>
<polygon class="st59" points="1607,106.3 1485,134.2 1607,162 "/>
<g>
	<path class="st4" d="M1591.1,149.9l-1.6-6.1h-10.5l-1.6,6.1h-9.6l10.6-32.6h11.7l10.7,32.6H1591.1z M1587.7,136.6l-1.4-5.3
		c-0.3-1.2-0.7-2.7-1.2-4.6c-0.5-1.9-0.8-3.2-0.9-4c-0.1,0.8-0.4,2-0.8,3.7c-0.4,1.7-1.3,5.1-2.6,10.2H1587.7z"/>
</g>
<g>
	<path class="st1" d="M1581.5,377.8l-1.7-6.4h-11l-1.7,6.4h-10.1l11.1-34h12.2l11.2,34H1581.5z M1578,363.9l-1.5-5.6
		c-0.3-1.2-0.8-2.8-1.2-4.8c-0.5-2-0.8-3.4-1-4.2c-0.1,0.8-0.4,2.1-0.8,3.9c-0.4,1.8-1.3,5.4-2.7,10.7H1578z"/>
	<path class="st1" d="M1624,360.1c0,5.7-1.6,10-4.7,13.1c-3.1,3.1-7.5,4.6-13.1,4.6h-11v-33.9h11.7c5.4,0,9.6,1.4,12.6,4.2
		S1624,354.9,1624,360.1z M1614.5,360.5c0-3.1-0.6-5.4-1.8-6.9c-1.2-1.5-3.1-2.2-5.6-2.2h-2.7v19h2c2.8,0,4.8-0.8,6.1-2.4
		C1613.8,366.3,1614.5,363.8,1614.5,360.5z"/>
	<path class="st1" d="M1649.1,343.9h10.3l-11.1,33.9h-10.8l-11.1-33.9h10.3l4.6,17.2c1,3.8,1.5,6.5,1.6,8c0.1-1.1,0.3-2.4,0.6-4.1
		c0.3-1.6,0.6-2.9,0.9-3.8L1649.1,343.9z"/>
	<path class="st1" d="M1683.2,377.8H1663v-33.9h20.1v7.4h-11v5.3h10.2v7.4h-10.2v6.4h11V377.8z"/>
	<path class="st1" d="M1698.3,365.5v12.3h-9.2v-33.9h11.1c9.2,0,13.8,3.3,13.8,10c0,3.9-1.9,7-5.8,9.1l9.9,14.8h-10.4l-7.2-12.3
		H1698.3z M1698.3,358.6h1.7c3.2,0,4.8-1.4,4.8-4.2c0-2.3-1.6-3.5-4.7-3.5h-1.8V358.6z"/>
	<path class="st1" d="M1736.2,377.8h-9.2v-26.4h-8.3v-7.5h25.7v7.5h-8.3V377.8z"/>
	<path class="st1" d="M1749.3,377.8v-33.9h9.2v33.9H1749.3z"/>
	<path class="st1" d="M1788,367.5c0,2.1-0.5,4-1.6,5.6c-1.1,1.6-2.6,2.9-4.6,3.8c-2,0.9-4.4,1.4-7.1,1.4c-2.3,0-4.2-0.2-5.7-0.5
		c-1.5-0.3-3.1-0.9-4.8-1.7V368c1.7,0.9,3.6,1.6,5.5,2.1c1.9,0.5,3.6,0.8,5.2,0.8c1.4,0,2.4-0.2,3-0.7s1-1.1,1-1.8
		c0-0.5-0.1-0.9-0.4-1.2s-0.7-0.7-1.2-1.1c-0.6-0.4-2.1-1.1-4.5-2.2c-2.2-1-3.9-2-5-2.9c-1.1-0.9-1.9-2-2.5-3.2
		c-0.5-1.2-0.8-2.7-0.8-4.3c0-3.1,1.1-5.6,3.4-7.3c2.3-1.7,5.4-2.6,9.4-2.6c3.5,0,7.1,0.8,10.7,2.4l-2.8,7.1
		c-3.2-1.5-5.9-2.2-8.2-2.2c-1.2,0-2.1,0.2-2.6,0.6c-0.5,0.4-0.8,0.9-0.8,1.6c0,0.7,0.3,1.3,1,1.8c0.7,0.5,2.6,1.5,5.6,2.9
		c2.9,1.3,5,2.7,6.1,4.2C1787.5,363.3,1788,365.2,1788,367.5z"/>
	<path class="st1" d="M1813.4,377.8h-20.1v-33.9h20.1v7.4h-11v5.3h10.2v7.4h-10.2v6.4h11V377.8z"/>
	<path class="st1" d="M1828.5,365.5v12.3h-9.2v-33.9h11.1c9.2,0,13.8,3.3,13.8,10c0,3.9-1.9,7-5.8,9.1l9.9,14.8H1838l-7.2-12.3
		H1828.5z M1828.5,358.6h1.7c3.2,0,4.8-1.4,4.8-4.2c0-2.3-1.6-3.5-4.7-3.5h-1.8V358.6z"/>
	<path class="st1" d="M1873.7,367.5c0,2.1-0.5,4-1.6,5.6c-1.1,1.6-2.6,2.9-4.6,3.8c-2,0.9-4.4,1.4-7.1,1.4c-2.3,0-4.2-0.2-5.7-0.5
		c-1.5-0.3-3.1-0.9-4.8-1.7V368c1.7,0.9,3.6,1.6,5.5,2.1c1.9,0.5,3.6,0.8,5.2,0.8c1.4,0,2.4-0.2,3-0.7s1-1.1,1-1.8
		c0-0.5-0.1-0.9-0.4-1.2s-0.7-0.7-1.2-1.1c-0.6-0.4-2.1-1.1-4.5-2.2c-2.2-1-3.9-2-5-2.9c-1.1-0.9-1.9-2-2.5-3.2
		c-0.5-1.2-0.8-2.7-0.8-4.3c0-3.1,1.1-5.6,3.4-7.3c2.3-1.7,5.4-2.6,9.4-2.6c3.5,0,7.1,0.8,10.7,2.4l-2.8,7.1
		c-3.2-1.5-5.9-2.2-8.2-2.2c-1.2,0-2.1,0.2-2.6,0.6c-0.5,0.4-0.8,0.9-0.8,1.6c0,0.7,0.3,1.3,1,1.8c0.7,0.5,2.6,1.5,5.6,2.9
		c2.9,1.3,5,2.7,6.1,4.2C1873.1,363.3,1873.7,365.2,1873.7,367.5z"/>
</g>
<g>
	<rect x="1674.4" y="226.5" class="st60" width="31.3" height="40.4"/>
	<line class="st61" x1="1690" y1="227" x2="1690" y2="268"/>
	<line class="st61" x1="1675" y1="248" x2="1706" y2="248"/>
</g>
<g>
	<rect x="1778.2" y="226.5" class="st60" width="31.3" height="40.4"/>
	<line class="st61" x1="1794" y1="227" x2="1794" y2="268"/>
	<line class="st61" x1="1779" y1="248" x2="1810" y2="248"/>
</g>
</svg>
