<?xml version="1.0" encoding="utf-8"?>
<!-- Generator: Adobe Illustrator 19.1.0, SVG Export Plug-In . SVG Version: 6.00 Build 0)  -->
<!DOCTYPE svg PUBLIC "-//W3C//DTD SVG 1.1//EN" "http://www.w3.org/Graphics/SVG/1.1/DTD/svg11.dtd">
<svg version="1.1" id="Layer_1" xmlns="http://www.w3.org/2000/svg" xmlns:xlink="http://www.w3.org/1999/xlink" x="0px" y="0px"
	 viewBox="0 0 1000 1000" style="enable-background:new 0 0 1000 1000;" xml:space="preserve">
<style type="text/css">
	.st0{opacity:0.2;enable-background:new    ;}
	.st1{fill:#495259;enable-background:new    ;}
	.st2{opacity:0.17;}
	.st3{fill:#80B1D2;}
</style>
<circle class="st0" cx="520" cy="520" r="300"/>
<circle class="st1" cx="500" cy="500" r="300"/>
<g>
	<g class="st2">
		<g>
			<path class="st3" d="M327.7,575.5v-47.8h12.9v37.4h18.4v10.4H327.7z"/>
			<path class="st3" d="M366.6,575.5v-47.8h12.9v47.8H366.6z"/>
			<path class="st3" d="M411.2,537.6c-3,0-5.5,1.3-7.2,3.7c-1.7,2.5-2.6,6-2.6,10.4c0,9.2,3.5,13.8,10.5,13.8c2.1,0,4.2-0.3,6.2-0.9
				c2-0.6,4-1.3,6-2.1v10.9c-4,1.8-8.5,2.7-13.5,2.7c-7.2,0-12.7-2.1-16.6-6.3c-3.9-4.2-5.8-10.2-5.8-18.1c0-4.9,1-9.3,2.8-13
				c1.8-3.7,4.6-6.6,8.1-8.6c3.5-2,7.6-3,12.3-3c5.1,0,10.1,1.1,14.8,3.4l-3.9,10.1c-1.8-0.8-3.6-1.5-5.3-2.1
				C415.1,537.9,413.2,537.6,411.2,537.6z"/>
			<path class="st3" d="M461.7,575.5h-28.4v-47.8h28.4v10.3h-15.5v7.5h14.3v10.3h-14.3v9h15.5V575.5z"/>
			<path class="st3" d="M515.5,575.5h-16.9l-17.4-33.6h-0.3c0.4,5.3,0.6,9.3,0.6,12.1v21.5H470v-47.8h16.9l17.4,33.2h0.2
				c-0.3-4.8-0.4-8.7-0.4-11.6v-21.6h11.5L515.5,575.5L515.5,575.5z"/>
			<path class="st3" d="M557,561c0,3-0.8,5.6-2.3,7.9c-1.5,2.3-3.7,4.1-6.5,5.3c-2.9,1.3-6.2,1.9-10,1.9c-3.2,0-5.8-0.3-8-0.7
				c-2.2-0.4-4.4-1.2-6.7-2.3v-11.5c2.5,1.3,5,2.2,7.7,3c2.7,0.7,5.1,1.1,7.3,1.1c1.9,0,3.3-0.3,4.2-1c0.9-0.6,1.3-1.5,1.3-2.5
				c0-0.6-0.2-1.2-0.5-1.7c-0.4-0.5-1-1-1.7-1.5c-0.8-0.5-2.9-1.5-6.3-3c-3.1-1.4-5.5-2.8-7-4.1c-1.6-1.3-2.7-2.9-3.5-4.6
				s-1.1-3.7-1.1-6.1c0-4.4,1.6-7.8,4.8-10.3c3.2-2.5,7.6-3.7,13.2-3.7c4.9,0,10,1.1,15.1,3.4l-3.9,10c-4.4-2-8.3-3-11.5-3
				c-1.6,0-2.9,0.3-3.7,0.9c-0.8,0.6-1.1,1.3-1.1,2.2c0,1,0.5,1.8,1.5,2.5c1,0.8,3.6,2.1,7.9,4.1c4.1,1.8,7,3.9,8.6,6
				C556.3,555.1,557,557.7,557,561z"/>
			<path class="st3" d="M564.4,575.5v-47.8h12.9v47.8H564.4z"/>
			<path class="st3" d="M633.2,575.5h-16.9l-17.4-33.6h-0.3c0.4,5.3,0.6,9.3,0.6,12.1v21.5h-11.4v-47.8h16.9l17.4,33.2h0.2
				c-0.3-4.8-0.4-8.7-0.4-11.6v-21.6h11.5V575.5z"/>
			<path class="st3" d="M662.7,547.5h20.6v25.8c-5.6,1.9-11.7,2.9-18.5,2.9c-7.4,0-13.1-2.2-17.1-6.4c-4-4.2-6-10.3-6-18.3
				c0-7.7,2.2-13.7,6.6-18c4.4-4.3,10.6-6.4,18.5-6.4c3,0,5.8,0.3,8.5,0.8c2.7,0.6,5,1.3,7,2.2l-4.1,10.1c-3.4-1.7-7.2-2.5-11.4-2.5
				c-3.7,0-6.7,1.2-8.8,3.7c-2,2.5-3.1,6-3.1,10.5c0,4.4,1,7.9,2.8,10.2c1.8,2.3,4.6,3.5,8.1,3.5c1.9,0,3.7-0.2,5.3-0.6v-7.5h-8.5
				L662.7,547.5L662.7,547.5z"/>
			<path class="st3" d="M360.2,708.3H328V587.1h71.6v26.3h-39.4v23.2h36.3v26.3h-36.3V708.3z"/>
			<path class="st3" d="M491.4,708.3h-71.9V587.1h71.9v26.3h-39.2v19.1h36.3v26.3h-36.3v22.9h39.2V708.3z"/>
			<path class="st3" d="M584.5,708.3h-71.9V587.1h71.9v26.3h-39.2v19.1h36.3v26.3h-36.3v22.9h39.2V708.3L584.5,708.3z"/>
			<path class="st3" d="M685,671.5c0,7.5-1.9,14.2-5.7,20c-3.8,5.8-9.3,10.3-16.5,13.6c-7.2,3.2-15.6,4.8-25.3,4.8
				c-8.1,0-14.8-0.6-20.3-1.7c-5.5-1.1-11.2-3.1-17.1-5.9v-29.2c6.2,3.2,12.7,5.7,19.5,7.5c6.7,1.8,12.9,2.7,18.6,2.7
				c4.9,0,8.4-0.8,10.7-2.5s3.4-3.9,3.4-6.5c0-1.6-0.4-3.1-1.4-4.4c-0.9-1.3-2.3-2.5-4.4-3.7s-7.4-3.9-16.1-7.8
				c-7.9-3.6-13.8-7.1-17.8-10.5c-3.9-3.4-6.8-7.2-8.8-11.6c-1.9-4.4-2.9-9.5-2.9-15.5c0-11.2,4.1-19.9,12.2-26.1
				c8.1-6.2,19.3-9.4,33.5-9.4c12.6,0,25.3,2.9,38.4,8.7l-10,25.3c-11.4-5.2-21.1-7.8-29.4-7.8c-4.2,0-7.4,0.8-9.3,2.2
				c-2,1.5-2.9,3.4-2.9,5.6c0,2.3,1.2,4.5,3.7,6.4c2.5,1.9,9.1,5.3,20,10.3c10.5,4.7,17.7,9.8,21.8,15.1
				C683,656.5,685,663.3,685,671.5z"/>
		</g>
		<path class="st3" d="M561.6,304c-12.4-17.7-30.9-26.6-55.2-26.6c-25.1,0-43.6,8.5-55.8,25.5c-12.1,17-18.2,43.7-18.2,80.1
			c0,34.8,6.2,60.9,18.6,78.5c12.4,17.6,30.9,26.4,55.3,26.4c25.1,0,43.6-8.4,55.8-25.3s18.2-43.4,18.2-79.7
			C580.3,348,574.1,321.6,561.6,304z M491.8,334.8c2.9-8.8,7.7-13.2,14.6-13.2c3,0,5.6,0.9,7.9,2.7l-26.6,72.4
			c-0.1-4.2-0.2-8.9-0.2-13.8C487.4,359.6,488.9,343.6,491.8,334.8z M521,430.4c-2.9,8.9-7.7,13.4-14.7,13.4c-3,0-5.7-0.9-8-2.6
			l26.7-72.6c0.1,4.4,0.3,9.3,0.3,14.4C525.2,405.6,523.8,421.4,521,430.4z"/>
	</g>
	<g>
		<g>
			<path class="st3" d="M315,562.8V515h12.9v37.4h18.4v10.4H315z"/>
			<path class="st3" d="M353.9,562.8V515h12.9v47.8H353.9z"/>
			<path class="st3" d="M398.5,524.9c-3,0-5.5,1.3-7.2,3.7c-1.7,2.5-2.6,6-2.6,10.4c0,9.2,3.5,13.8,10.5,13.8c2.1,0,4.2-0.3,6.2-0.9
				c2-0.6,4-1.3,6-2.1v10.9c-4,1.8-8.5,2.7-13.5,2.7c-7.2,0-12.7-2.1-16.6-6.3c-3.9-4.2-5.8-10.2-5.8-18.1c0-4.9,1-9.3,2.8-13
				s4.6-6.6,8.1-8.6s7.6-3,12.3-3c5.1,0,10.1,1.1,14.8,3.4l-3.9,10.1c-1.8-0.8-3.6-1.5-5.3-2.1C402.4,525.2,400.5,524.9,398.5,524.9
				z"/>
			<path class="st3" d="M449,562.8h-28.4V515H449v10.3h-15.5v7.5h14.3v10.3h-14.3v9H449V562.8z"/>
			<path class="st3" d="M502.8,562.8h-16.9l-17.4-33.6h-0.3c0.4,5.3,0.6,9.3,0.6,12.1v21.5h-11.4V515h16.9l17.4,33.2h0.2
				c-0.3-4.8-0.4-8.7-0.4-11.6V515h11.5V562.8L502.8,562.8z"/>
			<path class="st3" d="M544.3,548.3c0,3-0.8,5.6-2.3,7.9c-1.5,2.3-3.7,4.1-6.5,5.3c-2.9,1.3-6.2,1.9-10,1.9c-3.2,0-5.8-0.3-8-0.7
				s-4.4-1.2-6.7-2.3v-11.5c2.5,1.3,5,2.2,7.7,3c2.7,0.7,5.1,1.1,7.3,1.1c1.9,0,3.3-0.3,4.2-1c0.9-0.6,1.3-1.5,1.3-2.5
				c0-0.6-0.2-1.2-0.5-1.7c-0.4-0.5-1-1-1.7-1.5c-0.8-0.5-2.9-1.5-6.3-3c-3.1-1.4-5.5-2.8-7-4.1c-1.6-1.3-2.7-2.9-3.5-4.6
				s-1.1-3.7-1.1-6.1c0-4.4,1.6-7.8,4.8-10.3c3.2-2.5,7.6-3.7,13.2-3.7c4.9,0,10,1.1,15.1,3.4l-3.9,10c-4.4-2-8.3-3-11.5-3
				c-1.6,0-2.9,0.3-3.7,0.9c-0.8,0.6-1.1,1.3-1.1,2.2c0,1,0.5,1.8,1.5,2.5c1,0.8,3.6,2.1,7.9,4.1c4.1,1.8,7,3.9,8.6,6
				C543.6,542.4,544.3,545,544.3,548.3z"/>
			<path class="st3" d="M551.8,562.8V515h12.9v47.8H551.8z"/>
			<path class="st3" d="M620.5,562.8h-16.9l-17.4-33.6h-0.3c0.4,5.3,0.6,9.3,0.6,12.1v21.5H575V515h16.9l17.4,33.2h0.2
				c-0.3-4.8-0.4-8.7-0.4-11.6V515h11.5V562.8z"/>
			<path class="st3" d="M650,534.8h20.6v25.8c-5.6,1.9-11.7,2.9-18.5,2.9c-7.4,0-13.1-2.2-17.1-6.4s-6-10.3-6-18.3
				c0-7.7,2.2-13.7,6.6-18s10.6-6.4,18.5-6.4c3,0,5.8,0.3,8.5,0.8c2.7,0.6,5,1.3,7,2.2l-4.1,10.1c-3.4-1.7-7.2-2.5-11.4-2.5
				c-3.7,0-6.7,1.2-8.8,3.7c-2,2.5-3.1,6-3.1,10.5c0,4.4,1,7.9,2.8,10.2c1.8,2.3,4.6,3.5,8.1,3.5c1.9,0,3.7-0.2,5.3-0.6v-7.5h-8.5
				L650,534.8L650,534.8z"/>
			<path class="st3" d="M347.5,695.6h-32.2V574.5h71.6v26.3h-39.4v23.2h36.3v26.3h-36.3V695.6z"/>
			<path class="st3" d="M478.7,695.6h-71.9V574.5h71.9v26.3h-39.2v19.1h36.3v26.3h-36.3V669h39.2V695.6z"/>
			<path class="st3" d="M571.9,695.6h-71.9V574.5h71.9v26.3h-39.2v19.1h36.3v26.3h-36.3V669h39.2V695.6z"/>
			<path class="st3" d="M672.3,658.8c0,7.5-1.9,14.2-5.7,20c-3.8,5.8-9.3,10.3-16.5,13.6c-7.2,3.2-15.6,4.8-25.3,4.8
				c-8.1,0-14.8-0.6-20.3-1.7c-5.5-1.1-11.2-3.1-17.1-5.9v-29.2c6.2,3.2,12.7,5.7,19.5,7.5c6.7,1.8,12.9,2.7,18.6,2.7
				c4.9,0,8.4-0.8,10.7-2.5s3.4-3.9,3.4-6.5c0-1.6-0.4-3.1-1.4-4.4c-0.9-1.3-2.3-2.5-4.4-3.7c-2-1.3-7.4-3.9-16.1-7.8
				c-7.9-3.6-13.8-7.1-17.8-10.5s-6.8-7.2-8.8-11.6c-1.9-4.4-2.9-9.5-2.9-15.5c0-11.2,4.1-19.9,12.2-26.1c8.1-6.2,19.3-9.4,33.5-9.4
				c12.6,0,25.3,2.9,38.4,8.7l-10,25.3c-11.4-5.2-21.1-7.8-29.4-7.8c-4.2,0-7.4,0.8-9.3,2.2c-2,1.5-2.9,3.4-2.9,5.6
				c0,2.3,1.2,4.5,3.7,6.4c2.5,1.9,9.1,5.3,20,10.3c10.5,4.7,17.7,9.8,21.8,15.1C670.3,643.8,672.3,650.6,672.3,658.8z"/>
		</g>
		<path class="st3" d="M548.9,291.3c-12.4-17.7-30.9-26.6-55.2-26.6c-25.1,0-43.6,8.5-55.8,25.5s-18.2,43.7-18.2,80.1
			c0,34.8,6.2,60.9,18.6,78.5c12.4,17.6,30.9,26.4,55.3,26.4c25.1,0,43.6-8.4,55.8-25.3c12.1-16.9,18.2-43.4,18.2-79.7
			C567.6,335.3,561.4,309,548.9,291.3z M479.1,322.1c2.9-8.8,7.7-13.2,14.6-13.2c3,0,5.6,0.9,7.9,2.7L474.9,384
			c-0.1-4.2-0.2-8.9-0.2-13.8C474.8,347,476.2,330.9,479.1,322.1z M508.3,417.7c-2.9,8.9-7.7,13.4-14.7,13.4c-3,0-5.7-0.9-8-2.6
			l26.7-72.6c0.1,4.4,0.3,9.3,0.3,14.4C512.6,392.9,511.2,408.7,508.3,417.7z"/>
	</g>
</g>
</svg>
