<?xml version="1.0" encoding="utf-8"?>
<!-- Generator: Adobe Illustrator 19.1.0, SVG Export Plug-In . SVG Version: 6.00 Build 0)  -->
<!DOCTYPE svg PUBLIC "-//W3C//DTD SVG 1.1//EN" "http://www.w3.org/Graphics/SVG/1.1/DTD/svg11.dtd">
<svg version="1.1" id="Layer_1" xmlns="http://www.w3.org/2000/svg" xmlns:xlink="http://www.w3.org/1999/xlink" x="0px" y="0px"
	 viewBox="0 0 1000 1000" style="enable-background:new 0 0 1000 1000;" xml:space="preserve">
<style type="text/css">
	.st0{opacity:0.2;enable-background:new    ;}
	.st1{fill:#D4D6D7;}
	.st2{fill:#495259;}
	.st3{fill:#FFFFFF;}
</style>
<circle class="st0" cx="521.9" cy="519.8" r="299"/>
<g>
	<circle class="st1" cx="501.9" cy="499.8" r="299"/>
	<g>
		<g>
			<path class="st2" d="M502.3,499.8l1.7-299.5c165.2,0.9,298.8,136,297.9,301.2s-136,298.8-301.2,297.9
				c-165.2-0.9-298.8-136-297.9-301.2l0,0L502.3,499.8z"/>
		</g>
	</g>
</g>
<g>
	<g>
		<path class="st2" d="M270.3,347.4h9.3c3.6,0,6.3,0.5,8.1,1.6c1.8,1.1,2.6,2.8,2.6,5c0,1.5-0.4,2.8-1.2,3.8c-0.8,1.1-1.8,1.7-3,2
			v0.2c1.7,0.4,2.9,1.2,3.6,2.2s1.1,2.4,1.1,4c0,2.4-0.9,4.3-2.7,5.7c-1.8,1.4-4.3,2.1-7.4,2.1h-10.4V347.4z M277.5,357.7h2.2
			c1,0,1.8-0.2,2.4-0.6c0.6-0.4,0.9-1.1,0.9-1.9c0-1.5-1.1-2.2-3.4-2.2h-2v4.7H277.5z M277.5,363v5.6h2.5c2.3,0,3.4-1,3.4-2.9
			c0-0.9-0.3-1.6-0.9-2c-0.6-0.5-1.5-0.7-2.6-0.7H277.5L277.5,363z"/>
		<path class="st2" d="M302.7,364.4v9.7h-7.2v-26.7h8.8c7.3,0,10.9,2.6,10.9,7.9c0,3.1-1.5,5.5-4.5,7.2l7.8,11.6h-8.2l-5.7-9.7
			H302.7z M302.7,359h1.4c2.5,0,3.8-1.1,3.8-3.3c0-1.8-1.2-2.8-3.7-2.8h-1.4L302.7,359L302.7,359z"/>
		<path class="st2" d="M320.8,374.2v-26.7h7.3v26.7H320.8z"/>
		<path class="st2" d="M359.3,374.2h-9.5l-9.8-18.8h-0.2c0.2,3,0.3,5.2,0.3,6.8v12h-6.4v-26.7h9.4L353,366h0.1
			c-0.2-2.7-0.3-4.9-0.3-6.5v-12.1h6.4L359.3,374.2L359.3,374.2z"/>
		<path class="st2" d="M375.8,358.5h11.5v14.4c-3.1,1.1-6.6,1.6-10.3,1.6c-4.1,0-7.3-1.2-9.6-3.6c-2.2-2.4-3.4-5.8-3.4-10.2
			c0-4.3,1.2-7.7,3.7-10.1c2.5-2.4,5.9-3.6,10.3-3.6c1.7,0,3.3,0.2,4.8,0.5s2.8,0.7,3.9,1.2l-2.3,5.7c-1.9-1-4-1.4-6.3-1.4
			c-2.1,0-3.7,0.7-4.9,2.1s-1.7,3.3-1.7,5.9c0,2.5,0.5,4.4,1.6,5.7c1.1,1.3,2.5,2,4.5,2c1.1,0,2.1-0.1,3-0.3v-4.2h-4.8L375.8,358.5
			L375.8,358.5z"/>
		<path class="st2" d="M415.7,374.2h-7.3v-10.9H400v10.9h-7.3v-26.7h7.3v9.9h8.4v-9.9h7.3L415.7,374.2L415.7,374.2z"/>
		<path class="st2" d="M444.2,347.4v16.1c0,3.5-1,6.2-3,8.1s-4.8,2.9-8.6,2.9c-3.6,0-6.4-0.9-8.4-2.8c-2-1.9-2.9-4.5-2.9-8v-16.3
			h7.3v15.7c0,1.9,0.4,3.3,1.1,4.1c0.7,0.9,1.7,1.3,3.1,1.3c1.5,0,2.5-0.4,3.2-1.3c0.7-0.8,1-2.2,1-4.2v-15.6H444.2z"/>
		<path class="st2" d="M449.8,347.4h9.3c3.6,0,6.3,0.5,8.1,1.6s2.6,2.8,2.6,5c0,1.5-0.4,2.8-1.2,3.8s-1.8,1.7-3,2v0.2
			c1.7,0.4,2.9,1.2,3.6,2.2c0.7,1,1.1,2.4,1.1,4c0,2.4-0.9,4.3-2.7,5.7s-4.3,2.1-7.5,2.1h-10.4v-26.6H449.8z M457,357.7h2.2
			c1,0,1.8-0.2,2.4-0.6c0.6-0.4,0.9-1.1,0.9-1.9c0-1.5-1.1-2.2-3.4-2.2h-2v4.7H457z M457,363v5.6h2.5c2.3,0,3.4-1,3.4-2.9
			c0-0.9-0.3-1.6-0.9-2c-0.6-0.5-1.5-0.7-2.6-0.7H457L457,363z"/>
	</g>
	<g>
		<path class="st2" d="M347.2,389.8c-1.7,0-3.1,0.7-4,2.1c-1,1.4-1.4,3.3-1.4,5.8c0,5.1,2,7.7,5.9,7.7c1.2,0,2.3-0.2,3.4-0.5
			c1.1-0.3,2.2-0.7,3.3-1.2v6.1c-2.2,1-4.8,1.5-7.6,1.5c-4,0-7.1-1.2-9.3-3.5s-3.2-5.7-3.2-10.1c0-2.8,0.5-5.2,1.6-7.3
			c1-2.1,2.5-3.7,4.5-4.8s4.3-1.7,6.9-1.7c2.9,0,5.6,0.6,8.3,1.9l-2.2,5.7c-1-0.5-2-0.9-3-1.2C349.4,389.9,348.3,389.8,347.2,389.8z
			"/>
		<path class="st2" d="M382.3,384.2v16.1c0,3.5-1,6.2-3,8.1c-2,1.9-4.8,2.9-8.6,2.9c-3.6,0-6.4-0.9-8.4-2.8c-2-1.9-2.9-4.5-2.9-8
			v-16.3h7.3v15.7c0,1.9,0.4,3.3,1.1,4.1c0.7,0.9,1.7,1.3,3.1,1.3c1.5,0,2.5-0.4,3.2-1.3c0.7-0.8,1-2.2,1-4.2v-15.6H382.3z"/>
		<path class="st2" d="M399.7,411h-7.2v-20.8H386v-5.9h20.3v5.9h-6.5L399.7,411L399.7,411z"/>
	</g>
</g>
<g>
	<path class="st3" d="M417.9,581.9c0,3-0.9,5.3-2.6,6.9c-1.8,1.6-4.3,2.4-7.5,2.4h-2v8.9h-7.2v-26.8h9.3c3.4,0,5.9,0.7,7.6,2.2
		C417,577.1,417.9,579.2,417.9,581.9z M405.7,585.4h1.3c1.1,0,1.9-0.3,2.6-0.9s1-1.5,1-2.5c0-1.8-1-2.7-3-2.7h-1.9V585.4z"/>
	<path class="st3" d="M444.9,573.4v16.1c0,3.5-1,6.2-3,8.1c-2,1.9-4.8,2.9-8.6,2.9c-3.6,0-6.5-0.9-8.4-2.8s-2.9-4.5-2.9-8.1v-16.3
		h7.3v15.7c0,1.9,0.4,3.3,1.1,4.1c0.7,0.9,1.8,1.3,3.1,1.3c1.5,0,2.5-0.4,3.2-1.3c0.7-0.8,1-2.2,1-4.2v-15.7H444.9z"/>
	<path class="st3" d="M450.5,573.4h9.3c3.6,0,6.3,0.5,8.1,1.6c1.8,1.1,2.6,2.8,2.6,5c0,1.5-0.4,2.8-1.2,3.8s-1.8,1.7-3,2v0.2
		c1.7,0.4,2.9,1.2,3.6,2.2c0.7,1,1.1,2.4,1.1,4c0,2.4-0.9,4.3-2.7,5.7c-1.8,1.4-4.3,2.1-7.5,2.1h-10.4V573.4z M457.7,583.7h2.2
		c1,0,1.8-0.2,2.4-0.6c0.6-0.4,0.9-1.1,0.9-1.9c0-1.5-1.1-2.3-3.4-2.3h-2V583.7z M457.7,589v5.6h2.5c2.3,0,3.4-1,3.4-2.9
		c0-0.9-0.3-1.6-0.9-2s-1.5-0.7-2.6-0.7H457.7z"/>
	<path class="st3" d="M475.7,600.2v-26.8h7.2v20.9h10.3v5.8H475.7z"/>
	<path class="st3" d="M497.6,600.2v-26.8h7.3v26.8H497.6z"/>
	<path class="st3" d="M528.1,592.1c0,1.7-0.4,3.1-1.3,4.4s-2.1,2.3-3.6,3c-1.6,0.7-3.4,1.1-5.6,1.1c-1.8,0-3.3-0.1-4.5-0.4
		c-1.2-0.2-2.5-0.7-3.8-1.3v-6.4c1.4,0.7,2.8,1.3,4.3,1.7s2.9,0.6,4.1,0.6c1.1,0,1.9-0.2,2.4-0.6c0.5-0.4,0.8-0.9,0.8-1.4
		c0-0.4-0.1-0.7-0.3-1c-0.2-0.3-0.5-0.6-1-0.8c-0.4-0.3-1.6-0.9-3.6-1.7c-1.7-0.8-3.1-1.6-3.9-2.3c-0.9-0.7-1.5-1.6-1.9-2.6
		c-0.4-1-0.6-2.1-0.6-3.4c0-2.5,0.9-4.4,2.7-5.8c1.8-1.4,4.3-2.1,7.4-2.1c2.8,0,5.6,0.6,8.5,1.9l-2.2,5.6c-2.5-1.1-4.7-1.7-6.5-1.7
		c-0.9,0-1.6,0.2-2,0.5s-0.6,0.7-0.6,1.2c0,0.5,0.3,1,0.8,1.4c0.5,0.4,2,1.2,4.4,2.3c2.3,1,3.9,2.1,4.8,3.3S528.1,590.3,528.1,592.1
		z"/>
	<path class="st3" d="M555.2,600.2h-7.3v-10.9h-8.4v10.9h-7.3v-26.8h7.3v9.9h8.4v-9.9h7.3V600.2z"/>
	<path class="st3" d="M576.8,600.2h-15.9v-26.8h15.9v5.8h-8.7v4.2h8v5.8h-8v5h8.7V600.2z"/>
	<path class="st3" d="M588.7,590.4v9.7h-7.2v-26.8h8.8c7.3,0,10.9,2.6,10.9,7.9c0,3.1-1.5,5.5-4.5,7.2l7.8,11.7h-8.2l-5.7-9.7H588.7
		z M588.7,585h1.4c2.5,0,3.8-1.1,3.8-3.3c0-1.8-1.2-2.8-3.7-2.8h-1.4V585z"/>
</g>
</svg>
