<?xml version="1.0" encoding="utf-8"?>
<!-- Generator: Adobe Illustrator 19.1.0, SVG Export Plug-In . SVG Version: 6.00 Build 0)  -->
<!DOCTYPE svg PUBLIC "-//W3C//DTD SVG 1.1//EN" "http://www.w3.org/Graphics/SVG/1.1/DTD/svg11.dtd">
<svg version="1.1" id="Layer_1" xmlns="http://www.w3.org/2000/svg" xmlns:xlink="http://www.w3.org/1999/xlink" x="0px" y="0px"
	 viewBox="0 0 1000 1000" style="enable-background:new 0 0 1000 1000;" xml:space="preserve">
<style type="text/css">
	.st0{fill:#183B51;}
	.st1{clip-path:url(#SVGID_2_);fill:#FFFFFF;}
	.st2{fill:#FFFFFF;}
	.st3{fill:#495259;}
	.st4{fill:none;stroke:#495259;stroke-width:2;stroke-miterlimit:10;stroke-dasharray:3,3;}
	.st5{fill:#D4D6D7;}
	
		.st6{fill:none;stroke:#183B51;stroke-width:3;stroke-linecap:round;stroke-linejoin:round;stroke-miterlimit:10;stroke-dasharray:12;}
	.st7{fill:none;stroke:#183B51;stroke-width:3;stroke-linecap:round;stroke-linejoin:round;}
	.st8{fill:none;stroke:#183B51;stroke-width:3;stroke-linecap:round;stroke-linejoin:round;stroke-dasharray:10.4008,10.4008;}
	.st9{fill:none;stroke:#183B51;stroke-width:3;stroke-linecap:round;stroke-linejoin:round;stroke-dasharray:11.5832,11.5832;}
	.st10{fill:none;stroke:#FFFFFF;stroke-width:16;stroke-linecap:square;stroke-linejoin:round;stroke-miterlimit:10;}
</style>
<g>
	<rect x="446.5" y="35.8" class="st0" width="5.2" height="43.6"/>
	<rect x="362.7" y="35.8" class="st0" width="5.2" height="41.6"/>
	<path class="st0" d="M345.9,268h121c0,0,0,0.1,0-0.1l-21.7-111.5l21.7-83.8c0-0.3,0-0.5,0-0.7c-0.6-8.3-11.5-11.9-17.7-6
		l-35.5,26.4c-4.1,3.8-10.6,3.8-14.6,0l-35.5-26.3c-6.2-5.9-17.1-2.3-17.7,6.1c0,0.3,0,0.5,0,0.8l21.7,84.5L345.9,268
		C345.8,268.1,345.9,268,345.9,268z"/>
	<g>
		<defs>
			<path id="SVGID_1_" d="M444.4,290.3H369c-12.6,0-22.8-9.8-22.8-21.8l21.7-111.3l-21.7-84.5c0-0.3,0-0.5,0-0.8
				c0.6-8.3,11.5-11.9,17.7-6.1l35.5,26.3c4.1,3.8,10.6,3.8,14.6,0l35.5-26.3c6.2-5.9,17.1-2.3,17.7,6.1c0,0.3,0,0.5,0,0.8l-21.7,84
				l21.7,111.8C467.2,280.5,457,290.3,444.4,290.3z"/>
		</defs>
		<clipPath id="SVGID_2_">
			<use xlink:href="#SVGID_1_"  style="overflow:visible;"/>
		</clipPath>
		<rect x="361.1" y="155.3" class="st1" width="90" height="13.4"/>
	</g>
	<path class="st2" d="M415.1,214.1l3.6,0.9c0.9,0.2,1.9-0.3,2.1-1.3l11.7-47.8c0.2-0.9-0.3-1.9-1.3-2.1l-3.6-0.9
		c-0.9-0.2-1.9,0.3-2.1,1.3l-11.7,47.8C413.6,212.9,414.2,213.8,415.1,214.1z"/>
	<path class="st2" d="M441.3,200.2l-3.6,0.9c-0.9,0.2-1.9-0.3-2.1-1.3l-8.3-33.9c-0.2-0.9,0.3-1.9,1.3-2.1l3.6-0.9
		c0.9-0.2,1.9,0.3,2.1,1.3l8.3,33.9C442.8,199,442.3,199.9,441.3,200.2z"/>
</g>
<g>
	<path class="st3" d="M557.4,215H691V92H557.6L502,125.3v52.7L557.4,215z M518.4,162.4c-5.6,0-10.1-4.5-10.1-10.1
		c0-5.6,4.5-10.1,10.1-10.1s10.1,4.5,10.1,10.1C528.5,157.9,524,162.4,518.4,162.4z"/>
	<rect x="677.1" y="91.3" class="st3" width="24" height="123.4"/>
</g>
<g>
	<path class="st2" d="M601.1,128.6c0,2-0.5,3.7-1.5,5.2c-1,1.5-2.4,2.7-4.3,3.6c-1.9,0.8-4.1,1.3-6.6,1.3c-2.1,0-3.9-0.1-5.3-0.4
		s-2.9-0.8-4.5-1.6V129c1.6,0.8,3.3,1.5,5.1,2c1.8,0.5,3.4,0.7,4.9,0.7c1.3,0,2.2-0.2,2.8-0.7c0.6-0.4,0.9-1,0.9-1.7
		c0-0.4-0.1-0.8-0.4-1.1c-0.2-0.3-0.6-0.7-1.2-1c-0.5-0.3-1.9-1-4.2-2c-2.1-0.9-3.6-1.9-4.7-2.7c-1-0.9-1.8-1.9-2.3-3
		c-0.5-1.1-0.8-2.5-0.8-4.1c0-2.9,1.1-5.2,3.2-6.8s5.1-2.5,8.8-2.5c3.3,0,6.6,0.8,10.1,2.3l-2.6,6.6c-3-1.4-5.5-2-7.7-2
		c-1.1,0-1.9,0.2-2.4,0.6c-0.5,0.4-0.8,0.9-0.8,1.5c0,0.6,0.3,1.2,1,1.7c0.6,0.5,2.4,1.4,5.2,2.7c2.7,1.2,4.6,2.6,5.7,4
		S601.1,126.4,601.1,128.6z"/>
	<path class="st2" d="M606.1,138.2v-31.8h8.6v31.8H606.1z"/>
	<path class="st2" d="M621.6,138.2v-31.8h8.6v24.8h12.2v6.9H621.6z"/>
	<path class="st2" d="M674.6,138.2h-9.7l-6.3-12.2l-2.5,1.5v10.6h-8.6v-31.8h8.6v13.8c0.4-0.9,1.3-2.2,2.6-4.1l6.7-9.7h9.4l-10,14.2
		L674.6,138.2z"/>
	<path class="st2" d="M596.8,159.4c0,3.9-1.1,7-3.3,9.1c-2.2,2.1-5.2,3.2-9.2,3.2h-7.6v-23.6h8.2c3.8,0,6.7,1,8.8,2.9
		S596.8,155.7,596.8,159.4z M590.2,159.6c0-2.2-0.4-3.8-1.3-4.8c-0.9-1-2.2-1.6-3.9-1.6h-1.9v13.2h1.4c1.9,0,3.4-0.6,4.3-1.7
		S590.2,162,590.2,159.6z"/>
	<path class="st2" d="M607.5,163.1v8.6h-6.4v-23.6h7.7c6.4,0,9.6,2.3,9.6,7c0,2.7-1.3,4.9-4,6.4l6.9,10.3h-7.2l-5-8.6H607.5z
		 M607.5,158.3h1.2c2.2,0,3.3-1,3.3-3c0-1.6-1.1-2.4-3.3-2.4h-1.3V158.3z"/>
	<path class="st2" d="M637.5,171.7h-14v-23.6h14v5.1h-7.6v3.7h7.1v5.1h-7.1v4.5h7.6V171.7z"/>
	<path class="st2" d="M657.1,164.6c0,1.5-0.4,2.8-1.1,3.9c-0.7,1.1-1.8,2-3.2,2.7c-1.4,0.6-3,0.9-4.9,0.9c-1.6,0-2.9-0.1-4-0.3
		c-1.1-0.2-2.2-0.6-3.3-1.2v-5.7c1.2,0.6,2.5,1.1,3.8,1.5c1.3,0.3,2.5,0.5,3.6,0.5c0.9,0,1.6-0.2,2.1-0.5c0.4-0.3,0.7-0.8,0.7-1.3
		c0-0.3-0.1-0.6-0.3-0.8c-0.2-0.2-0.5-0.5-0.9-0.7s-1.4-0.8-3.1-1.5c-1.5-0.7-2.7-1.4-3.5-2c-0.8-0.7-1.3-1.4-1.7-2.3
		c-0.4-0.9-0.6-1.9-0.6-3c0-2.2,0.8-3.9,2.4-5.1c1.6-1.2,3.8-1.8,6.5-1.8c2.4,0,4.9,0.6,7.5,1.7l-2,4.9c-2.2-1-4.1-1.5-5.7-1.5
		c-0.8,0-1.4,0.1-1.8,0.4c-0.4,0.3-0.6,0.7-0.6,1.1c0,0.5,0.2,0.9,0.7,1.2c0.5,0.4,1.8,1,3.9,2c2,0.9,3.5,1.9,4.2,3
		S657.1,163,657.1,164.6z"/>
	<path class="st2" d="M676.2,164.6c0,1.5-0.4,2.8-1.1,3.9c-0.7,1.1-1.8,2-3.2,2.7c-1.4,0.6-3,0.9-4.9,0.9c-1.6,0-2.9-0.1-4-0.3
		c-1.1-0.2-2.2-0.6-3.3-1.2v-5.7c1.2,0.6,2.5,1.1,3.8,1.5c1.3,0.3,2.5,0.5,3.6,0.5c0.9,0,1.6-0.2,2.1-0.5c0.4-0.3,0.7-0.8,0.7-1.3
		c0-0.3-0.1-0.6-0.3-0.8c-0.2-0.2-0.5-0.5-0.9-0.7s-1.4-0.8-3.1-1.5c-1.5-0.7-2.7-1.4-3.5-2c-0.8-0.7-1.3-1.4-1.7-2.3
		s-0.6-1.9-0.6-3c0-2.2,0.8-3.9,2.4-5.1c1.6-1.2,3.8-1.8,6.5-1.8c2.4,0,4.9,0.6,7.5,1.7l-2,4.9c-2.2-1-4.1-1.5-5.7-1.5
		c-0.8,0-1.4,0.1-1.8,0.4s-0.6,0.7-0.6,1.1c0,0.5,0.2,0.9,0.7,1.2c0.5,0.4,1.8,1,3.9,2c2,0.9,3.5,1.9,4.2,3
		C675.8,161.6,676.2,163,676.2,164.6z"/>
	<path class="st2" d="M586.3,198.4c-1.7-0.1-3.3-0.5-4.9-1.1v-3.9c0.9,0.5,1.9,0.8,2.9,1.1c1.1,0.3,2,0.5,2.8,0.5
		c0.7,0,1.1-0.1,1.5-0.2s0.5-0.4,0.5-0.8c0-0.3-0.1-0.5-0.3-0.7s-0.6-0.4-1.1-0.6c-0.5-0.2-1.2-0.5-2.1-0.8c-1-0.4-1.8-0.8-2.4-1.2
		c-0.6-0.5-1-1-1.3-1.5c-0.3-0.6-0.4-1.3-0.4-2.1c0-1.3,0.4-2.3,1.2-3c0.8-0.7,2.1-1.2,3.7-1.3v-1.6h2.4v1.6
		c1.5,0.1,3.1,0.5,4.7,1.1l-1.4,3.3c-1.6-0.7-3.1-1.1-4.4-1.1c-0.6,0-1.1,0.1-1.3,0.2c-0.3,0.2-0.4,0.4-0.4,0.7
		c0,0.3,0.1,0.5,0.3,0.6c0.2,0.2,0.5,0.4,0.9,0.6c0.5,0.2,1.1,0.4,1.9,0.7c1.6,0.6,2.8,1.2,3.5,2c0.7,0.7,1.1,1.7,1.1,2.8
		c0,1.3-0.4,2.4-1.2,3.2s-2,1.3-3.6,1.5v2.2h-2.4V198.4z"/>
	<path class="st2" d="M605.3,199.2h-4.7v-9c0-1.1,0-2.1,0.1-3c-0.3,0.3-0.6,0.7-1.1,1.1l-1.9,1.6l-2.4-2.9l5.8-4.8h4.1V199.2z"/>
	<path class="st2" d="M621.5,190.7c0,3-0.5,5.2-1.5,6.6c-1,1.4-2.6,2.1-4.6,2.1c-2,0-3.6-0.7-4.6-2.2c-1-1.5-1.5-3.6-1.5-6.5
		c0-3,0.5-5.2,1.5-6.7s2.6-2.1,4.6-2.1c2,0,3.6,0.7,4.6,2.2C621,185.6,621.5,187.8,621.5,190.7z M613.8,190.7c0,1.9,0.1,3.2,0.4,4
		c0.2,0.7,0.6,1.1,1.2,1.1c0.6,0,1-0.4,1.2-1.1c0.2-0.7,0.4-2.1,0.4-3.9c0-1.9-0.1-3.2-0.4-4c-0.2-0.8-0.6-1.1-1.2-1.1
		c-0.6,0-1,0.4-1.2,1.1C613.9,187.4,613.8,188.8,613.8,190.7z"/>
	<path class="st2" d="M635.5,190.7c0,3-0.5,5.2-1.5,6.6c-1,1.4-2.6,2.1-4.6,2.1c-2,0-3.6-0.7-4.6-2.2c-1-1.5-1.5-3.6-1.5-6.5
		c0-3,0.5-5.2,1.5-6.7c1-1.4,2.6-2.1,4.6-2.1c2,0,3.6,0.7,4.6,2.2C634.9,185.6,635.5,187.8,635.5,190.7z M627.7,190.7
		c0,1.9,0.1,3.2,0.4,4c0.2,0.7,0.6,1.1,1.2,1.1c0.6,0,1-0.4,1.2-1.1c0.2-0.7,0.4-2.1,0.4-3.9c0-1.9-0.1-3.2-0.4-4
		c-0.2-0.8-0.6-1.1-1.2-1.1c-0.6,0-1,0.4-1.2,1.1C627.9,187.4,627.7,188.8,627.7,190.7z"/>
	<path class="st2" d="M637.3,197.3c0-0.7,0.2-1.3,0.6-1.7c0.4-0.4,1-0.6,1.8-0.6c0.8,0,1.4,0.2,1.8,0.6c0.4,0.4,0.6,0.9,0.6,1.7
		c0,0.7-0.2,1.2-0.6,1.6c-0.4,0.4-1,0.6-1.8,0.6c-0.8,0-1.4-0.2-1.8-0.6C637.5,198.5,637.3,198,637.3,197.3z"/>
	<path class="st2" d="M656.3,190.7c0,3-0.5,5.2-1.5,6.6c-1,1.4-2.6,2.1-4.6,2.1c-2,0-3.6-0.7-4.6-2.2c-1-1.5-1.5-3.6-1.5-6.5
		c0-3,0.5-5.2,1.5-6.7s2.6-2.1,4.6-2.1c2,0,3.6,0.7,4.6,2.2C655.8,185.6,656.3,187.8,656.3,190.7z M648.6,190.7c0,1.9,0.1,3.2,0.4,4
		c0.2,0.7,0.6,1.1,1.2,1.1c0.6,0,1-0.4,1.2-1.1c0.2-0.7,0.4-2.1,0.4-3.9c0-1.9-0.1-3.2-0.4-4c-0.2-0.8-0.6-1.1-1.2-1.1
		c-0.6,0-1,0.4-1.2,1.1C648.7,187.4,648.6,188.8,648.6,190.7z"/>
	<path class="st2" d="M670.3,190.7c0,3-0.5,5.2-1.5,6.6c-1,1.4-2.6,2.1-4.6,2.1c-2,0-3.6-0.7-4.6-2.2c-1-1.5-1.5-3.6-1.5-6.5
		c0-3,0.5-5.2,1.5-6.7c1-1.4,2.6-2.1,4.6-2.1c2,0,3.6,0.7,4.6,2.2C669.8,185.6,670.3,187.8,670.3,190.7z M662.6,190.7
		c0,1.9,0.1,3.2,0.4,4c0.2,0.7,0.6,1.1,1.2,1.1c0.6,0,1-0.4,1.2-1.1c0.2-0.7,0.4-2.1,0.4-3.9c0-1.9-0.1-3.2-0.4-4
		c-0.2-0.8-0.6-1.1-1.2-1.1c-0.6,0-1,0.4-1.2,1.1C662.7,187.4,662.6,188.8,662.6,190.7z"/>
</g>
<g>
	<path class="st2" d="M702.7,858.5c0,2-0.6,3.5-1.8,4.6c-1.2,1.1-2.8,1.6-5,1.6h-1.4v5.9h-4.8v-17.8h6.2c2.3,0,3.9,0.5,5.1,1.5
		C702.2,855.3,702.7,856.7,702.7,858.5z M694.6,860.8h0.9c0.7,0,1.3-0.2,1.7-0.6c0.4-0.4,0.6-1,0.6-1.7c0-1.2-0.7-1.8-2-1.8h-1.2
		V860.8z"/>
	<path class="st2" d="M720.8,852.8v10.7c0,2.3-0.7,4.1-2,5.4c-1.3,1.3-3.2,1.9-5.7,1.9c-2.4,0-4.3-0.6-5.6-1.9c-1.3-1.2-2-3-2-5.4
		v-10.9h4.8v10.5c0,1.3,0.2,2.2,0.7,2.7s1.2,0.9,2.1,0.9c1,0,1.7-0.3,2.1-0.8c0.4-0.6,0.7-1.5,0.7-2.8v-10.4H720.8z"/>
	<path class="st2" d="M724.5,852.8h6.2c2.4,0,4.2,0.4,5.4,1.1c1.2,0.7,1.8,1.8,1.8,3.4c0,1-0.3,1.9-0.8,2.6s-1.2,1.2-2,1.4v0.1
		c1.1,0.3,1.9,0.8,2.4,1.5s0.7,1.6,0.7,2.7c0,1.6-0.6,2.9-1.8,3.8s-2.9,1.4-5,1.4h-6.9V852.8z M729.3,859.7h1.5
		c0.7,0,1.2-0.1,1.6-0.4c0.4-0.3,0.6-0.7,0.6-1.3c0-1-0.8-1.5-2.3-1.5h-1.4V859.7z M729.3,863.2v3.7h1.7c1.5,0,2.3-0.6,2.3-1.9
		c0-0.6-0.2-1-0.6-1.4c-0.4-0.3-1-0.5-1.8-0.5H729.3z"/>
	<path class="st2" d="M741.3,870.7v-17.8h4.8v14h6.9v3.9H741.3z"/>
	<path class="st2" d="M755.9,870.7v-17.8h4.8v17.8H755.9z"/>
	<path class="st2" d="M776.3,865.3c0,1.1-0.3,2.1-0.8,2.9s-1.4,1.5-2.4,2c-1.1,0.5-2.3,0.7-3.7,0.7c-1.2,0-2.2-0.1-3-0.2
		s-1.6-0.5-2.5-0.9v-4.3c0.9,0.5,1.9,0.8,2.9,1.1c1,0.3,1.9,0.4,2.7,0.4c0.7,0,1.2-0.1,1.6-0.4c0.3-0.2,0.5-0.6,0.5-1
		c0-0.2-0.1-0.5-0.2-0.6c-0.1-0.2-0.3-0.4-0.6-0.6c-0.3-0.2-1.1-0.6-2.4-1.1c-1.2-0.5-2-1-2.6-1.5c-0.6-0.5-1-1.1-1.3-1.7
		c-0.3-0.6-0.4-1.4-0.4-2.3c0-1.6,0.6-2.9,1.8-3.8c1.2-0.9,2.8-1.4,4.9-1.4c1.8,0,3.7,0.4,5.7,1.3l-1.5,3.7
		c-1.7-0.8-3.1-1.1-4.3-1.1c-0.6,0-1.1,0.1-1.4,0.3c-0.3,0.2-0.4,0.5-0.4,0.8c0,0.3,0.2,0.7,0.5,0.9c0.4,0.3,1.3,0.8,2.9,1.5
		c1.5,0.7,2.6,1.4,3.2,2.2C776,863.1,776.3,864,776.3,865.3z"/>
	<path class="st2" d="M794.3,870.7h-4.8v-7.3h-5.6v7.3H779v-17.8h4.8v6.6h5.6v-6.6h4.8V870.7z"/>
	<path class="st2" d="M808.8,870.7h-10.6v-17.8h10.6v3.9H803v2.8h5.3v3.9H803v3.4h5.8V870.7z"/>
	<path class="st2" d="M816.7,864.2v6.5h-4.8v-17.8h5.8c4.9,0,7.3,1.8,7.3,5.3c0,2.1-1,3.7-3,4.8l5.2,7.8h-5.5l-3.8-6.5H816.7z
		 M816.7,860.6h0.9c1.7,0,2.5-0.7,2.5-2.2c0-1.2-0.8-1.8-2.5-1.8h-1V860.6z"/>
	<path class="st2" d="M708.1,888.1c0,2.6-0.8,4.7-2.3,6.1c-1.6,1.4-3.8,2.2-6.6,2.2h-1.8v7.8H691v-23.6h8.2c3,0,5.2,0.7,6.7,2
		C707.4,883.8,708.1,885.7,708.1,888.1z M697.3,891.1h1.2c1,0,1.7-0.3,2.3-0.8c0.6-0.5,0.8-1.3,0.8-2.2c0-1.6-0.9-2.4-2.7-2.4h-1.6
		V891.1z"/>
	<path class="st2" d="M726.4,904.2l-1.2-4.4h-7.7l-1.2,4.4h-7l7.7-23.7h8.5l7.8,23.7H726.4z M723.9,894.5l-1-3.9
		c-0.2-0.9-0.5-2-0.9-3.3c-0.3-1.4-0.6-2.3-0.7-2.9c-0.1,0.5-0.3,1.5-0.6,2.7c-0.3,1.3-0.9,3.7-1.9,7.5H723.9z"/>
	<path class="st2" d="M744.4,889.3l4.1-8.8h6.9l-7.8,14.4v9.2h-6.4v-9l-7.8-14.6h7L744.4,889.3z"/>
	<path class="st2" d="M780,892.3c0,4-1,7-2.9,9.1c-2,2.1-4.8,3.1-8.6,3.1c-3.7,0-6.5-1-8.5-3.1c-2-2.1-3-5.1-3-9.1c0-3.9,1-6.9,3-9
		c2-2.1,4.8-3.1,8.6-3.1c3.8,0,6.6,1,8.6,3.1C779,885.3,780,888.4,780,892.3z M763.8,892.3c0,4.6,1.6,6.9,4.8,6.9
		c1.6,0,2.8-0.6,3.6-1.7c0.8-1.1,1.2-2.8,1.2-5.2c0-2.4-0.4-4.1-1.2-5.2s-2-1.7-3.5-1.7C765.4,885.4,763.8,887.7,763.8,892.3z"/>
	<path class="st2" d="M804.4,880.6v14.2c0,3.1-0.9,5.5-2.6,7.2s-4.3,2.5-7.6,2.5c-3.2,0-5.7-0.8-7.4-2.5c-1.7-1.6-2.6-4-2.6-7.1
		v-14.4h6.4v13.9c0,1.7,0.3,2.9,0.9,3.6c0.6,0.8,1.5,1.1,2.8,1.1c1.3,0,2.2-0.4,2.8-1.1c0.6-0.7,0.9-2,0.9-3.7v-13.8H804.4z"/>
	<path class="st2" d="M819.8,904.2h-6.4v-18.4h-5.8v-5.2h17.9v5.2h-5.8V904.2z"/>
</g>
<g>
	<path class="st2" d="M637.9,943.4c-1.7-0.1-3.3-0.5-4.9-1.1v-3.9c0.9,0.5,1.9,0.8,2.9,1.1c1.1,0.3,2,0.5,2.8,0.5
		c0.7,0,1.1-0.1,1.5-0.2s0.5-0.4,0.5-0.8c0-0.3-0.1-0.5-0.3-0.7c-0.2-0.2-0.6-0.4-1.1-0.6c-0.5-0.2-1.2-0.5-2.1-0.8
		c-1-0.4-1.8-0.8-2.4-1.2c-0.6-0.5-1-1-1.3-1.5c-0.3-0.6-0.4-1.3-0.4-2.1c0-1.3,0.4-2.3,1.2-3c0.8-0.7,2.1-1.2,3.7-1.3v-1.6h2.4v1.6
		c1.5,0.1,3.1,0.5,4.7,1.1l-1.4,3.3c-1.6-0.7-3.1-1.1-4.4-1.1c-0.6,0-1.1,0.1-1.3,0.2c-0.3,0.2-0.4,0.4-0.4,0.7
		c0,0.3,0.1,0.5,0.3,0.6s0.5,0.4,0.9,0.6c0.5,0.2,1.1,0.4,1.9,0.7c1.6,0.6,2.8,1.2,3.5,2c0.7,0.7,1.1,1.7,1.1,2.8
		c0,1.3-0.4,2.4-1.2,3.2c-0.8,0.8-2,1.3-3.6,1.5v2.2h-2.4V943.4z"/>
	<path class="st2" d="M657,944.2h-4.7v-9c0-1.1,0-2.1,0.1-3c-0.3,0.3-0.6,0.7-1.1,1.1l-1.9,1.6l-2.4-2.9l5.8-4.8h4.1V944.2z"/>
	<path class="st2" d="M667.7,933c1,0,1.9,0.2,2.6,0.7s1.4,1.1,1.8,1.9c0.4,0.8,0.7,1.8,0.7,2.9c0,1.9-0.6,3.4-1.7,4.4
		c-1.1,1-2.9,1.5-5.2,1.5c-2,0-3.6-0.3-4.9-0.9v-3.8c0.7,0.3,1.4,0.6,2.3,0.8c0.9,0.2,1.6,0.3,2.2,0.3c0.9,0,1.5-0.2,2-0.5
		s0.7-0.9,0.7-1.6c0-0.7-0.2-1.2-0.7-1.5c-0.5-0.4-1.2-0.5-2.1-0.5c-0.7,0-1.5,0.1-2.3,0.4l-1.7-0.8l0.6-9h9.7v3.8h-5.8l-0.2,2.2
		c0.6-0.1,1-0.2,1.3-0.2C667.3,933,667.5,933,667.7,933z"/>
	<path class="st2" d="M675,942.2c0-0.7,0.2-1.3,0.6-1.7c0.4-0.4,1-0.6,1.8-0.6c0.8,0,1.4,0.2,1.8,0.6c0.4,0.4,0.6,0.9,0.6,1.7
		c0,0.7-0.2,1.2-0.6,1.6c-0.4,0.4-1,0.6-1.8,0.6c-0.8,0-1.4-0.2-1.8-0.6C675.2,943.5,675,942.9,675,942.2z"/>
	<path class="st2" d="M694,935.7c0,3-0.5,5.2-1.5,6.6c-1,1.4-2.6,2.1-4.6,2.1c-2,0-3.6-0.7-4.6-2.2c-1-1.5-1.5-3.6-1.5-6.5
		c0-3,0.5-5.2,1.5-6.7c1-1.4,2.6-2.1,4.6-2.1c2,0,3.6,0.7,4.6,2.2C693.5,930.6,694,932.8,694,935.7z M686.3,935.7
		c0,1.9,0.1,3.2,0.4,4c0.2,0.7,0.6,1.1,1.2,1.1c0.6,0,1-0.4,1.2-1.1c0.2-0.7,0.4-2.1,0.4-3.9c0-1.9-0.1-3.2-0.4-4
		c-0.2-0.8-0.6-1.1-1.2-1.1c-0.6,0-1,0.4-1.2,1.1C686.4,932.4,686.3,933.7,686.3,935.7z"/>
	<path class="st2" d="M708,935.7c0,3-0.5,5.2-1.5,6.6c-1,1.4-2.6,2.1-4.6,2.1c-2,0-3.6-0.7-4.6-2.2c-1-1.5-1.5-3.6-1.5-6.5
		c0-3,0.5-5.2,1.5-6.7c1-1.4,2.6-2.1,4.6-2.1c2,0,3.6,0.7,4.6,2.2C707.5,930.6,708,932.8,708,935.7z M700.3,935.7
		c0,1.9,0.1,3.2,0.4,4c0.2,0.7,0.6,1.1,1.2,1.1c0.6,0,1-0.4,1.2-1.1c0.2-0.7,0.4-2.1,0.4-3.9c0-1.9-0.1-3.2-0.4-4
		c-0.2-0.8-0.6-1.1-1.2-1.1c-0.6,0-1,0.4-1.2,1.1C700.4,932.4,700.3,933.7,700.3,935.7z"/>
</g>
<g>
	<path class="st2" d="M292.4,943.4c-1.7-0.1-3.3-0.5-4.9-1.1v-3.9c0.9,0.5,1.9,0.8,2.9,1.1c1.1,0.3,2,0.5,2.8,0.5
		c0.7,0,1.1-0.1,1.5-0.2s0.5-0.4,0.5-0.8c0-0.3-0.1-0.5-0.3-0.7c-0.2-0.2-0.6-0.4-1.1-0.6c-0.5-0.2-1.2-0.5-2.1-0.8
		c-1-0.4-1.8-0.8-2.4-1.2c-0.6-0.5-1-1-1.3-1.5c-0.3-0.6-0.4-1.3-0.4-2.1c0-1.3,0.4-2.3,1.2-3c0.8-0.7,2.1-1.2,3.7-1.3v-1.6h2.4v1.6
		c1.5,0.1,3.1,0.5,4.7,1.1l-1.4,3.3c-1.6-0.7-3.1-1.1-4.4-1.1c-0.6,0-1.1,0.1-1.3,0.2s-0.4,0.4-0.4,0.7c0,0.3,0.1,0.5,0.3,0.6
		c0.2,0.2,0.5,0.4,0.9,0.6c0.5,0.2,1.1,0.4,1.9,0.7c1.6,0.6,2.8,1.2,3.5,2c0.7,0.7,1.1,1.7,1.1,2.8c0,1.3-0.4,2.4-1.2,3.2
		c-0.8,0.8-2,1.3-3.6,1.5v2.2h-2.4V943.4z"/>
	<path class="st2" d="M308.3,933c1,0,1.9,0.2,2.6,0.7s1.4,1.1,1.8,1.9c0.4,0.8,0.7,1.8,0.7,2.9c0,1.9-0.6,3.4-1.7,4.4
		c-1.1,1-2.9,1.5-5.2,1.5c-2,0-3.6-0.3-4.9-0.9v-3.8c0.7,0.3,1.4,0.6,2.3,0.8c0.9,0.2,1.6,0.3,2.2,0.3c0.9,0,1.5-0.2,2-0.5
		s0.7-0.9,0.7-1.6c0-0.7-0.2-1.2-0.7-1.5c-0.5-0.4-1.2-0.5-2.1-0.5c-0.7,0-1.5,0.1-2.3,0.4l-1.7-0.8l0.6-9h9.7v3.8h-5.8l-0.2,2.2
		c0.6-0.1,1-0.2,1.3-0.2S308,933,308.3,933z"/>
	<path class="st2" d="M315.5,942.2c0-0.7,0.2-1.3,0.6-1.7c0.4-0.4,1-0.6,1.8-0.6c0.8,0,1.4,0.2,1.8,0.6c0.4,0.4,0.6,0.9,0.6,1.7
		c0,0.7-0.2,1.2-0.6,1.6c-0.4,0.4-1,0.6-1.8,0.6c-0.8,0-1.4-0.2-1.8-0.6C315.7,943.5,315.5,942.9,315.5,942.2z"/>
	<path class="st2" d="M334.5,935.7c0,3-0.5,5.2-1.5,6.6s-2.6,2.1-4.6,2.1c-2,0-3.6-0.7-4.6-2.2c-1-1.5-1.5-3.6-1.5-6.5
		c0-3,0.5-5.2,1.5-6.7c1-1.4,2.6-2.1,4.6-2.1c2,0,3.6,0.7,4.6,2.2S334.5,932.8,334.5,935.7z M326.8,935.7c0,1.9,0.1,3.2,0.4,4
		c0.2,0.7,0.6,1.1,1.2,1.1c0.6,0,1-0.4,1.2-1.1c0.2-0.7,0.4-2.1,0.4-3.9c0-1.9-0.1-3.2-0.4-4c-0.2-0.8-0.6-1.1-1.2-1.1
		s-1,0.4-1.2,1.1C326.9,932.4,326.8,933.7,326.8,935.7z"/>
	<path class="st2" d="M348.5,935.7c0,3-0.5,5.2-1.5,6.6s-2.6,2.1-4.6,2.1c-2,0-3.6-0.7-4.6-2.2c-1-1.5-1.5-3.6-1.5-6.5
		c0-3,0.5-5.2,1.5-6.7c1-1.4,2.6-2.1,4.6-2.1c2,0,3.6,0.7,4.6,2.2S348.5,932.8,348.5,935.7z M340.8,935.7c0,1.9,0.1,3.2,0.4,4
		c0.2,0.7,0.6,1.1,1.2,1.1c0.6,0,1-0.4,1.2-1.1c0.2-0.7,0.4-2.1,0.4-3.9c0-1.9-0.1-3.2-0.4-4c-0.2-0.8-0.6-1.1-1.2-1.1
		s-1,0.4-1.2,1.1C340.9,932.4,340.8,933.7,340.8,935.7z"/>
</g>
<g>
	<path class="st2" d="M338.4,852.8h6.2c2.4,0,4.2,0.4,5.4,1.1c1.2,0.7,1.8,1.8,1.8,3.4c0,1-0.3,1.9-0.8,2.6s-1.2,1.2-2,1.4v0.1
		c1.1,0.3,1.9,0.8,2.4,1.5c0.5,0.7,0.7,1.6,0.7,2.7c0,1.6-0.6,2.9-1.8,3.8c-1.2,0.9-2.9,1.4-5,1.4h-6.9V852.8z M343.2,859.7h1.5
		c0.7,0,1.2-0.1,1.6-0.4c0.4-0.3,0.6-0.7,0.6-1.3c0-1-0.8-1.5-2.3-1.5h-1.4V859.7z M343.2,863.2v3.7h1.7c1.5,0,2.3-0.6,2.3-1.9
		c0-0.6-0.2-1-0.6-1.4c-0.4-0.3-1-0.5-1.8-0.5H343.2z"/>
	<path class="st2" d="M360.1,864.2v6.5h-4.8v-17.8h5.8c4.9,0,7.3,1.8,7.3,5.3c0,2.1-1,3.7-3,4.8l5.2,7.8h-5.5l-3.8-6.5H360.1z
		 M360.1,860.6h0.9c1.7,0,2.5-0.7,2.5-2.2c0-1.2-0.8-1.8-2.5-1.8h-1V860.6z"/>
	<path class="st2" d="M372.2,870.7v-17.8h4.8v17.8H372.2z"/>
	<path class="st2" d="M397.9,870.7h-6.3l-6.5-12.6h-0.1c0.2,2,0.2,3.5,0.2,4.5v8h-4.3v-17.8h6.3l6.5,12.4h0.1
		c-0.1-1.8-0.2-3.2-0.2-4.3v-8.1h4.3V870.7z"/>
	<path class="st2" d="M408.9,860.2h7.7v9.6c-2.1,0.7-4.4,1.1-6.9,1.1c-2.8,0-4.9-0.8-6.4-2.4c-1.5-1.6-2.3-3.9-2.3-6.8
		c0-2.9,0.8-5.1,2.5-6.7c1.6-1.6,3.9-2.4,6.9-2.4c1.1,0,2.2,0.1,3.2,0.3c1,0.2,1.9,0.5,2.6,0.8l-1.5,3.8c-1.3-0.6-2.7-1-4.2-1
		c-1.4,0-2.5,0.5-3.3,1.4c-0.8,0.9-1.2,2.2-1.2,3.9c0,1.7,0.3,2.9,1,3.8c0.7,0.9,1.7,1.3,3,1.3c0.7,0,1.4-0.1,2-0.2v-2.8h-3.2V860.2
		z"/>
	<path class="st2" d="M435.5,870.7h-4.8v-7.3h-5.6v7.3h-4.8v-17.8h4.8v6.6h5.6v-6.6h4.8V870.7z"/>
	<path class="st2" d="M454.6,852.8v10.7c0,2.3-0.7,4.1-2,5.4c-1.3,1.3-3.2,1.9-5.7,1.9c-2.4,0-4.3-0.6-5.6-1.9c-1.3-1.2-2-3-2-5.4
		v-10.9h4.8v10.5c0,1.3,0.2,2.2,0.7,2.7c0.5,0.6,1.2,0.9,2.1,0.9c1,0,1.7-0.3,2.1-0.8c0.4-0.6,0.7-1.5,0.7-2.8v-10.4H454.6z"/>
	<path class="st2" d="M458.3,852.8h6.2c2.4,0,4.2,0.4,5.4,1.1c1.2,0.7,1.8,1.8,1.8,3.4c0,1-0.3,1.9-0.8,2.6s-1.2,1.2-2,1.4v0.1
		c1.1,0.3,1.9,0.8,2.4,1.5c0.5,0.7,0.7,1.6,0.7,2.7c0,1.6-0.6,2.9-1.8,3.8c-1.2,0.9-2.9,1.4-5,1.4h-6.9V852.8z M463.1,859.7h1.5
		c0.7,0,1.2-0.1,1.6-0.4c0.4-0.3,0.6-0.7,0.6-1.3c0-1-0.8-1.5-2.3-1.5h-1.4V859.7z M463.1,863.2v3.7h1.7c1.5,0,2.3-0.6,2.3-1.9
		c0-0.6-0.2-1-0.6-1.4c-0.4-0.3-1-0.5-1.8-0.5H463.1z"/>
	<path class="st2" d="M355.6,888.1c0,2.6-0.8,4.7-2.3,6.1s-3.8,2.2-6.6,2.2h-1.8v7.8h-6.4v-23.6h8.2c3,0,5.2,0.7,6.7,2
		C354.9,883.8,355.6,885.7,355.6,888.1z M344.8,891.1h1.2c1,0,1.7-0.3,2.3-0.8c0.6-0.5,0.8-1.3,0.8-2.2c0-1.6-0.9-2.4-2.7-2.4h-1.6
		V891.1z"/>
	<path class="st2" d="M373.9,904.2l-1.2-4.4H365l-1.2,4.4h-7l7.7-23.7h8.5l7.8,23.7H373.9z M371.4,894.5l-1-3.9
		c-0.2-0.9-0.5-2-0.9-3.3c-0.3-1.4-0.6-2.3-0.7-2.9c-0.1,0.5-0.3,1.5-0.6,2.7c-0.3,1.3-0.9,3.7-1.9,7.5H371.4z"/>
	<path class="st2" d="M391.8,889.3l4.1-8.8h6.9l-7.8,14.4v9.2h-6.4v-9l-7.8-14.6h7L391.8,889.3z"/>
	<path class="st2" d="M427.5,892.3c0,4-1,7-2.9,9.1c-2,2.1-4.8,3.1-8.6,3.1c-3.7,0-6.5-1-8.5-3.1c-2-2.1-3-5.1-3-9.1
		c0-3.9,1-6.9,3-9c2-2.1,4.8-3.1,8.6-3.1c3.8,0,6.6,1,8.6,3.1C426.5,885.3,427.5,888.4,427.5,892.3z M411.2,892.3
		c0,4.6,1.6,6.9,4.8,6.9c1.6,0,2.8-0.6,3.6-1.7c0.8-1.1,1.2-2.8,1.2-5.2c0-2.4-0.4-4.1-1.2-5.2c-0.8-1.1-2-1.7-3.5-1.7
		C412.8,885.4,411.2,887.7,411.2,892.3z"/>
	<path class="st2" d="M451.9,880.6v14.2c0,3.1-0.9,5.5-2.6,7.2c-1.8,1.7-4.3,2.5-7.6,2.5c-3.2,0-5.7-0.8-7.4-2.5
		c-1.7-1.6-2.6-4-2.6-7.1v-14.4h6.4v13.9c0,1.7,0.3,2.9,0.9,3.6c0.6,0.8,1.5,1.1,2.8,1.1c1.3,0,2.2-0.4,2.8-1.1s0.9-2,0.9-3.7v-13.8
		H451.9z"/>
	<path class="st2" d="M467.3,904.2h-6.4v-18.4h-5.8v-5.2H473v5.2h-5.8V904.2z"/>
</g>
<g>
	<path class="st2" d="M421.4,451.4c-2.7-0.1-5.2-0.7-7.7-1.8v-6c1.4,0.7,2.9,1.3,4.6,1.8c1.7,0.5,3.1,0.7,4.4,0.7
		c1,0,1.8-0.1,2.3-0.4c0.5-0.2,0.7-0.7,0.7-1.2c0-0.4-0.2-0.7-0.5-1s-0.9-0.6-1.7-0.9c-0.8-0.4-1.9-0.8-3.3-1.3
		c-1.5-0.6-2.8-1.2-3.7-1.9c-0.9-0.7-1.6-1.5-2.1-2.4s-0.6-2-0.6-3.3c0-2,0.6-3.6,1.9-4.7c1.3-1.1,3.2-1.8,5.8-2.1v-2.5h3.8v2.5
		c2.4,0.1,4.9,0.7,7.3,1.8l-2.2,5.2c-2.5-1.1-4.8-1.7-6.9-1.7c-1,0-1.7,0.1-2,0.4s-0.6,0.6-0.6,1c0,0.4,0.1,0.7,0.4,1
		c0.3,0.3,0.8,0.6,1.5,0.9c0.7,0.3,1.7,0.7,2.9,1.1c2.5,0.9,4.4,1.9,5.5,3.1c1.1,1.1,1.7,2.6,1.7,4.4c0,2-0.6,3.7-1.9,5
		c-1.3,1.3-3.2,2.1-5.7,2.4v3.5h-3.8V451.4z"/>
	<path class="st2" d="M454.5,452.6h-19.3v-4.7l6.5-6.6c1.9-1.9,3.1-3.3,3.6-4c0.6-0.7,1-1.3,1.2-1.8c0.2-0.5,0.3-1,0.3-1.6
		c0-0.7-0.2-1.2-0.7-1.6s-1.1-0.6-1.9-0.6c-0.8,0-1.7,0.2-2.5,0.7c-0.9,0.5-1.8,1.2-2.9,2.1l-4-4.6c1.4-1.2,2.5-2.1,3.5-2.6
		c0.9-0.5,2-0.9,3.1-1.2c1.1-0.3,2.3-0.4,3.7-0.4c1.7,0,3.3,0.3,4.6,0.9c1.4,0.6,2.4,1.5,3.2,2.6c0.7,1.1,1.1,2.4,1.1,3.8
		c0,1-0.1,2-0.4,2.9c-0.3,0.9-0.7,1.8-1.2,2.6s-1.3,1.8-2.2,2.7c-0.9,0.9-2.8,2.7-5.8,5.4v0.2h10.1V452.6z"/>
	<path class="st2" d="M476.5,439.4c0,4.7-0.8,8.2-2.4,10.4c-1.6,2.2-4,3.3-7.2,3.3c-3.2,0-5.6-1.1-7.2-3.4
		c-1.6-2.3-2.4-5.7-2.4-10.2c0-4.7,0.8-8.2,2.4-10.4c1.6-2.2,4-3.3,7.2-3.3c3.2,0,5.6,1.2,7.2,3.5
		C475.7,431.4,476.5,434.8,476.5,439.4z M464.4,439.4c0,3,0.2,5.1,0.6,6.2c0.4,1.1,1,1.7,1.9,1.7c0.9,0,1.5-0.6,1.9-1.7
		c0.4-1.2,0.6-3.2,0.6-6.2c0-3-0.2-5-0.6-6.2s-1-1.8-1.9-1.8c-0.9,0-1.5,0.6-1.9,1.7C464.6,434.2,464.4,436.3,464.4,439.4z"/>
	<path class="st2" d="M479.4,449.6c0-1.1,0.3-2,1-2.6c0.7-0.6,1.6-0.9,2.9-0.9c1.2,0,2.1,0.3,2.8,0.9c0.6,0.6,1,1.5,1,2.6
		c0,1.1-0.3,1.9-1,2.6c-0.7,0.6-1.6,0.9-2.7,0.9c-1.2,0-2.1-0.3-2.8-0.9C479.7,451.6,479.4,450.7,479.4,449.6z"/>
	<path class="st2" d="M509.1,439.4c0,4.7-0.8,8.2-2.4,10.4c-1.6,2.2-4,3.3-7.2,3.3c-3.2,0-5.6-1.1-7.2-3.4
		c-1.6-2.3-2.4-5.7-2.4-10.2c0-4.7,0.8-8.2,2.4-10.4c1.6-2.2,4-3.3,7.2-3.3c3.2,0,5.6,1.2,7.2,3.5
		C508.3,431.4,509.1,434.8,509.1,439.4z M497.1,439.4c0,3,0.2,5.1,0.6,6.2c0.4,1.1,1,1.7,1.9,1.7c0.9,0,1.5-0.6,1.9-1.7
		s0.6-3.2,0.6-6.2c0-3-0.2-5-0.6-6.2c-0.4-1.2-1-1.8-1.9-1.8c-0.9,0-1.5,0.6-1.9,1.7C497.3,434.2,497.1,436.3,497.1,439.4z"/>
	<path class="st2" d="M531,439.4c0,4.7-0.8,8.2-2.4,10.4c-1.6,2.2-4,3.3-7.2,3.3c-3.2,0-5.6-1.1-7.2-3.4c-1.6-2.3-2.4-5.7-2.4-10.2
		c0-4.7,0.8-8.2,2.4-10.4c1.6-2.2,4-3.3,7.2-3.3c3.2,0,5.6,1.2,7.2,3.5C530.2,431.4,531,434.8,531,439.4z M518.9,439.4
		c0,3,0.2,5.1,0.6,6.2c0.4,1.1,1,1.7,1.9,1.7c0.9,0,1.5-0.6,1.9-1.7c0.4-1.2,0.6-3.2,0.6-6.2c0-3-0.2-5-0.6-6.2s-1-1.8-1.9-1.8
		c-0.9,0-1.5,0.6-1.9,1.7C519.1,434.2,518.9,436.3,518.9,439.4z"/>
	<path class="st2" d="M424.3,488.9h-7.2v-20.7h-6.5v-5.9h20.2v5.9h-6.5V488.9z"/>
	<path class="st2" d="M459.6,475.5c0,4.5-1.1,7.9-3.3,10.2c-2.2,2.3-5.4,3.5-9.7,3.5c-4.2,0-7.4-1.2-9.6-3.5s-3.3-5.8-3.3-10.2
		c0-4.4,1.1-7.8,3.3-10.2c2.2-2.3,5.4-3.5,9.7-3.5c4.2,0,7.4,1.2,9.6,3.5S459.6,471,459.6,475.5z M441.2,475.5
		c0,5.1,1.8,7.7,5.4,7.7c1.8,0,3.2-0.6,4.1-1.9s1.3-3.2,1.3-5.8c0-2.7-0.4-4.6-1.3-5.9c-0.9-1.3-2.2-1.9-4-1.9
		C443,467.7,441.2,470.3,441.2,475.5z"/>
	<path class="st2" d="M476.1,488.9h-7.2v-20.7h-6.5v-5.9h20.2v5.9h-6.5V488.9z"/>
	<path class="st2" d="M502.7,488.9l-1.3-5h-8.7l-1.3,5h-7.9l8.7-26.7h9.6l8.8,26.7H502.7z M499.9,478l-1.1-4.4c-0.3-1-0.6-2.2-1-3.8
		s-0.6-2.6-0.8-3.3c-0.1,0.6-0.3,1.6-0.6,3.1c-0.3,1.4-1,4.2-2.1,8.4H499.9z"/>
	<path class="st2" d="M513.5,488.9v-26.6h7.2v20.8h10.3v5.8H513.5z"/>
	<path class="st2" d="M424.3,506c-1.5,0-2.6,0.6-3.4,1.8s-1.2,2.8-1.2,4.9c0,4.3,1.7,6.5,5,6.5c1,0,2-0.1,2.9-0.4
		c0.9-0.3,1.9-0.6,2.8-1v5.2c-1.9,0.8-4,1.2-6.4,1.2c-3.4,0-6-1-7.8-3s-2.7-4.8-2.7-8.6c0-2.3,0.4-4.4,1.3-6.2s2.1-3.1,3.8-4.1
		s3.6-1.4,5.8-1.4c2.4,0,4.8,0.5,7,1.6l-1.9,4.8c-0.8-0.4-1.7-0.7-2.5-1S425.3,506,424.3,506z"/>
	<path class="st2" d="M455.9,512.6c0,3.8-0.9,6.7-2.8,8.7s-4.6,3-8.2,3c-3.5,0-6.3-1-8.1-3c-1.9-2-2.8-4.9-2.8-8.7
		c0-3.8,0.9-6.6,2.8-8.6c1.9-2,4.6-3,8.2-3c3.6,0,6.3,1,8.2,2.9S455.9,508.8,455.9,512.6z M440.4,512.6c0,4.4,1.5,6.5,4.6,6.5
		c1.5,0,2.7-0.5,3.4-1.6c0.7-1.1,1.1-2.7,1.1-5c0-2.3-0.4-3.9-1.1-5c-0.8-1.1-1.9-1.6-3.4-1.6C441.9,506,440.4,508.2,440.4,512.6z"
		/>
	<path class="st2" d="M469.8,523.9l-4.6-16.3h-0.1c0.2,2.8,0.3,4.9,0.3,6.5v9.8H460v-22.6h8.1l4.7,16h0.1l4.6-16h8.1v22.6h-5.6V514
		c0-0.5,0-1.1,0-1.7c0-0.6,0.1-2.2,0.2-4.6h-0.1l-4.6,16.2H469.8z"/>
	<path class="st2" d="M500.4,523.9l-4.6-16.3h-0.1c0.2,2.8,0.3,4.9,0.3,6.5v9.8h-5.4v-22.6h8.1l4.7,16h0.1l4.6-16h8.1v22.6h-5.6V514
		c0-0.5,0-1.1,0-1.7c0-0.6,0.1-2.2,0.2-4.6h-0.1l-4.6,16.2H500.4z"/>
	<path class="st2" d="M521.1,523.9v-22.6h6.1v22.6H521.1z"/>
	<path class="st2" d="M546.9,517.1c0,1.4-0.4,2.6-1.1,3.7c-0.7,1.1-1.7,1.9-3.1,2.5c-1.3,0.6-2.9,0.9-4.7,0.9
		c-1.5,0-2.8-0.1-3.8-0.3c-1-0.2-2.1-0.6-3.2-1.1v-5.4c1.2,0.6,2.4,1.1,3.6,1.4c1.3,0.3,2.4,0.5,3.5,0.5c0.9,0,1.6-0.2,2-0.5
		c0.4-0.3,0.6-0.7,0.6-1.2c0-0.3-0.1-0.6-0.3-0.8s-0.4-0.5-0.8-0.7c-0.4-0.2-1.4-0.7-3-1.5c-1.5-0.7-2.6-1.3-3.3-1.9
		c-0.7-0.6-1.3-1.3-1.6-2.2c-0.4-0.8-0.5-1.8-0.5-2.9c0-2.1,0.8-3.7,2.3-4.9c1.5-1.2,3.6-1.7,6.2-1.7c2.3,0,4.7,0.5,7.1,1.6
		l-1.9,4.7c-2.1-1-3.9-1.5-5.5-1.5c-0.8,0-1.4,0.1-1.7,0.4c-0.4,0.3-0.5,0.6-0.5,1c0,0.4,0.2,0.8,0.7,1.2s1.7,1,3.7,1.9
		c1.9,0.9,3.3,1.8,4.1,2.8C546.5,514.3,546.9,515.5,546.9,517.1z"/>
	<path class="st2" d="M565.1,517.1c0,1.4-0.4,2.6-1.1,3.7c-0.7,1.1-1.7,1.9-3.1,2.5c-1.3,0.6-2.9,0.9-4.7,0.9
		c-1.5,0-2.8-0.1-3.8-0.3c-1-0.2-2.1-0.6-3.2-1.1v-5.4c1.2,0.6,2.4,1.1,3.6,1.4c1.3,0.3,2.4,0.5,3.5,0.5c0.9,0,1.6-0.2,2-0.5
		c0.4-0.3,0.6-0.7,0.6-1.2c0-0.3-0.1-0.6-0.3-0.8s-0.4-0.5-0.8-0.7c-0.4-0.2-1.4-0.7-3-1.5c-1.5-0.7-2.6-1.3-3.3-1.9
		c-0.7-0.6-1.3-1.3-1.6-2.2c-0.4-0.8-0.5-1.8-0.5-2.9c0-2.1,0.8-3.7,2.3-4.9c1.5-1.2,3.6-1.7,6.2-1.7c2.3,0,4.7,0.5,7.1,1.6
		l-1.9,4.7c-2.1-1-3.9-1.5-5.5-1.5c-0.8,0-1.4,0.1-1.7,0.4c-0.4,0.3-0.5,0.6-0.5,1c0,0.4,0.2,0.8,0.7,1.2s1.7,1,3.7,1.9
		c1.9,0.9,3.3,1.8,4.1,2.8C564.8,514.3,565.1,515.5,565.1,517.1z"/>
	<path class="st2" d="M568.6,523.9v-22.6h6.1v22.6H568.6z"/>
	<path class="st2" d="M600.8,512.6c0,3.8-0.9,6.7-2.8,8.7c-1.9,2-4.6,3-8.2,3c-3.5,0-6.3-1-8.1-3s-2.8-4.9-2.8-8.7
		c0-3.8,0.9-6.6,2.8-8.6s4.6-3,8.2-3c3.6,0,6.3,1,8.2,2.9S600.8,508.8,600.8,512.6z M585.2,512.6c0,4.4,1.5,6.5,4.6,6.5
		c1.5,0,2.7-0.5,3.4-1.6c0.7-1.1,1.1-2.7,1.1-5c0-2.3-0.4-3.9-1.1-5c-0.8-1.1-1.9-1.6-3.4-1.6C586.8,506,585.2,508.2,585.2,512.6z"
		/>
	<path class="st2" d="M626.3,523.9h-8l-8.2-15.9h-0.1c0.2,2.5,0.3,4.4,0.3,5.7v10.2h-5.4v-22.6h8L621,517h0.1
		c-0.1-2.3-0.2-4.1-0.2-5.5v-10.2h5.4V523.9z"/>
</g>
<path class="st4" d="M446.6,163.1c0,0,1.2,48.6,28.6,48.6c27.4,0,38.5-34.8,38.5-34.8"/>
<g>
	<path class="st2" d="M579.3,463.2c4.4,0,8.3-1.8,11.1-4.7c2.7-2.8,4.3-6.5,4.3-10.7c0-7.8-5.7-14.2-13.2-15.3
		c-0.7-0.1-1.5-0.2-2.3-0.2c-8.5,0-15.4,6.9-15.4,15.4S570.8,463.2,579.3,463.2z M578.5,448.9c-2.5-0.8-4.1-2-4.1-4.2
		c0-2,1.4-3.6,3.9-4.1v-2.2h2.3v2c1.5,0.1,2.6,0.4,3.3,0.8l-0.7,2.6c-0.6-0.3-1.7-0.8-3.3-0.8c-1.5,0-2,0.6-2,1.3
		c0,0.8,0.8,1.2,2.8,2c2.7,1,3.8,2.2,3.8,4.3c0,2-1.4,3.8-4.1,4.3v2.3h-2.3V455c-1.5-0.1-3-0.5-3.9-1l0.7-2.7c1,0.5,2.3,1,3.8,1
		c1.3,0,2.2-0.5,2.2-1.4C580.9,450,580.2,449.4,578.5,448.9z"/>
	<path class="st2" d="M543,472.8c1.1,1.1,2.7,1.8,4.3,1.8h63.8c1.6,0,3.2-0.6,4.3-1.8c1.1-1.1,1.8-2.7,1.8-4.3l0-41.4
		c0-3.3-2.7-6.1-6.1-6.1h-63.8c-3.3,0-6.1,2.7-6.1,6.1l0,41.4C541.2,470.1,541.9,471.6,543,472.8z M558.6,428.6h41.1
		c2,4.3,5.5,7.6,9.8,9.4l0,19.7c-4.4,1.7-7.9,5.1-9.9,9.3h-41.1c-2-4.2-5.5-7.6-9.9-9.3l0-19.7C553.2,436.2,556.7,432.8,558.6,428.6
		z"/>
	<path class="st2" d="M547.3,483.3h63.8c1.6,0,3.2-0.6,4.3-1.8c1.1-1.1,1.8-2.7,1.8-4.3c0,0,0-5,0-4.9c-0.8,4.1-3.8,5.6-6.1,5.6
		h-63.8c-5.2,0-6.1-5.3-6.1-5.3c0,1.6-0.6,6.9,1.8,8.8C544.2,482.6,545.7,483.3,547.3,483.3z"/>
	<path class="st2" d="M617.1,481.3c-0.8,4.1-3.8,5.6-6.1,5.6h-63.8c-5.2,0-6.1-5.3-6.1-5.3c0,1.6-0.6,6.9,1.8,8.8
		c1.2,1,2.7,1.8,4.3,1.8h63.8c1.6,0,3.2-0.6,4.3-1.8c1.1-1.1,1.8-2.7,1.8-4.3C617.1,486.2,617.1,481.2,617.1,481.3z"/>
</g>
<g>
	<g>
		<path class="st5" d="M331.9,761.1h-64c0-35.3,28.7-64,64-64l0,0V761.1z"/>
	</g>
</g>
<g>
	<g>
		<path class="st6" d="M686.7,767.1h-64c0-35.3,28.7-64,64-64l0,0V767.1z"/>
	</g>
</g>
<g>
	<g>
		<path class="st0" d="M692.6,772.6v-64c35.3,0,64,28.7,64,64s-28.7,64-64,64c-35.3,0-64-28.7-64-64l0,0H692.6z"/>
	</g>
</g>
<g>
	<g>
		<g>
			<g>
				<polyline class="st7" points="331.9,767.1 337.9,767.1 337.9,761.1 				"/>
				<line class="st8" x1="337.9" y1="750.7" x2="337.9" y2="714.3"/>
				<path class="st7" d="M337.9,709.1v-6c2,0,4,0.1,6,0.3"/>
				<path class="st9" d="M355.2,705.5c26.9,7.6,46.6,32.3,46.6,61.6c0,35.3-28.7,64-64,64c-31.3,0-57.4-22.5-62.9-52.3"/>
				<path class="st7" d="M274.1,773.1c-0.2-2-0.3-4-0.3-6h6"/>
				<line class="st8" x1="290.3" y1="767.1" x2="326.7" y2="767.1"/>
			</g>
		</g>
	</g>
</g>
<g>
	<path class="st2" d="M560.2,909.7l18-40.6h-22.7v-11.7h37.8v8.3l-18.5,44H560.2z"/>
	<path class="st2" d="M619.5,875.4c3,0,5.7,0.7,8.2,2.1s4.3,3.4,5.7,5.9c1.3,2.6,2,5.5,2,8.9c0,5.9-1.8,10.3-5.3,13.5
		c-3.5,3.1-8.9,4.7-16,4.7c-6.1,0-11.1-0.9-15-2.8V896c2.1,1,4.4,1.7,7,2.4c2.6,0.6,4.9,0.9,6.8,0.9c2.6,0,4.6-0.6,6.1-1.7
		c1.4-1.1,2.1-2.8,2.1-4.9c0-2-0.7-3.6-2.2-4.7c-1.4-1.1-3.6-1.7-6.5-1.7c-2.2,0-4.6,0.4-7.2,1.3l-5.2-2.6l2-27.7h29.9v11.8H614
		l-0.6,6.9c1.9-0.4,3.2-0.6,4-0.6C618.1,875.4,618.8,875.4,619.5,875.4z"/>
	<path class="st2" d="M655.7,887.7c0,3.2-0.7,5.6-2.1,7.3c-1.4,1.7-3.4,2.6-6.1,2.6c-2.5,0-4.4-0.9-5.9-2.7s-2.2-4.2-2.2-7.2
		c0-3.2,0.7-5.6,2.1-7.3c1.4-1.7,3.4-2.5,5.9-2.5c2.5,0,4.5,0.9,6,2.6C654.9,882.3,655.7,884.7,655.7,887.7z M645.9,887.8
		c0,1.6,0.1,2.8,0.4,3.6c0.3,0.7,0.7,1.1,1.2,1.1c0.5,0,0.9-0.4,1.2-1.1c0.3-0.7,0.4-1.9,0.4-3.6c0-1.6-0.1-2.8-0.4-3.6
		c-0.3-0.7-0.7-1.1-1.2-1.1c-0.6,0-1,0.4-1.2,1.1C646.1,885,645.9,886.1,645.9,887.8z M671.3,878.3l-17.4,31.4h-6.4l17.4-31.4H671.3
		z M679.6,900.2c0,3.1-0.7,5.6-2.1,7.3c-1.4,1.7-3.4,2.6-6,2.6c-2.5,0-4.4-0.9-5.9-2.7s-2.2-4.2-2.2-7.2c0-3.2,0.7-5.6,2.1-7.3
		c1.4-1.7,3.4-2.5,5.9-2.5c2.5,0,4.5,0.9,6,2.6C678.8,894.8,679.6,897.2,679.6,900.2z M669.8,900.3c0,1.6,0.1,2.8,0.4,3.6
		c0.3,0.7,0.7,1.1,1.2,1.1c0.6,0,1-0.4,1.3-1.3s0.4-2,0.4-3.4c0-1.4-0.1-2.6-0.4-3.4s-0.7-1.3-1.3-1.3c-0.6,0-1,0.4-1.2,1.1
		C670,897.5,669.8,898.6,669.8,900.3z"/>
</g>
<g>
	<path class="st2" d="M238.8,902.7h-36.2v-8.9l12.2-12.3c3.5-3.6,5.8-6.1,6.8-7.5s1.8-2.5,2.2-3.4c0.4-1,0.6-2,0.6-3
		c0-1.3-0.4-2.3-1.3-3.1c-0.8-0.8-2-1.1-3.6-1.1c-1.6,0-3.2,0.5-4.8,1.3c-1.6,0.9-3.4,2.2-5.4,4l-7.4-8.7c2.6-2.3,4.7-3.9,6.5-4.9
		c1.8-1,3.7-1.7,5.7-2.3c2.1-0.5,4.4-0.8,7-0.8c3.2,0,6.1,0.6,8.7,1.7c2.5,1.1,4.5,2.8,5.9,4.9c1.4,2.1,2.1,4.5,2.1,7.1
		c0,2-0.2,3.8-0.7,5.4c-0.5,1.7-1.2,3.3-2.3,4.9c-1,1.6-2.4,3.3-4.1,5.1c-1.7,1.8-5.3,5.1-10.8,10.1v0.3h18.9V902.7z"/>
	<path class="st2" d="M264.2,870c2.9,0,5.5,0.7,7.8,2c2.3,1.3,4.1,3.2,5.4,5.7c1.3,2.4,1.9,5.2,1.9,8.4c0,5.6-1.7,9.9-5,12.8
		c-3.4,3-8.4,4.5-15.3,4.5c-5.8,0-10.6-0.9-14.3-2.7v-11.1c2,0.9,4.2,1.7,6.7,2.3c2.5,0.6,4.6,0.9,6.4,0.9c2.5,0,4.4-0.5,5.8-1.6
		c1.3-1.1,2-2.6,2-4.7c0-1.9-0.7-3.4-2-4.5c-1.4-1.1-3.4-1.6-6.2-1.6c-2.1,0-4.4,0.4-6.9,1.2l-5-2.5l1.9-26.4h28.5V864h-17l-0.6,6.6
		c1.8-0.3,3-0.5,3.8-0.6S263.6,870,264.2,870z"/>
	<path class="st2" d="M299.5,880.7c0,3.2-0.7,5.6-2.1,7.3c-1.4,1.7-3.4,2.6-6.1,2.6c-2.5,0-4.4-0.9-5.9-2.7s-2.2-4.2-2.2-7.2
		c0-3.2,0.7-5.6,2.1-7.3c1.4-1.7,3.4-2.5,5.9-2.5c2.5,0,4.5,0.9,6,2.6C298.8,875.3,299.5,877.7,299.5,880.7z M289.8,880.8
		c0,1.6,0.1,2.8,0.4,3.6c0.3,0.7,0.7,1.1,1.2,1.1c0.5,0,0.9-0.4,1.2-1.1c0.3-0.7,0.4-1.9,0.4-3.6c0-1.6-0.1-2.8-0.4-3.6
		c-0.3-0.7-0.7-1.1-1.2-1.1c-0.6,0-1,0.4-1.2,1.1C289.9,878,289.8,879.2,289.8,880.8z M315.2,871.3l-17.4,31.4h-6.4l17.4-31.4H315.2
		z M323.4,893.2c0,3.1-0.7,5.6-2.1,7.3c-1.4,1.7-3.4,2.6-6,2.6c-2.5,0-4.4-0.9-5.9-2.7s-2.2-4.2-2.2-7.2c0-3.2,0.7-5.6,2.1-7.3
		c1.4-1.7,3.4-2.5,5.9-2.5c2.5,0,4.5,0.9,6,2.6C322.6,887.8,323.4,890.2,323.4,893.2z M313.7,893.3c0,1.6,0.1,2.8,0.4,3.6
		c0.3,0.7,0.7,1.1,1.2,1.1c0.6,0,1-0.4,1.3-1.3s0.4-2,0.4-3.4c0-1.4-0.1-2.6-0.4-3.4s-0.7-1.3-1.3-1.3c-0.6,0-1,0.4-1.2,1.1
		C313.8,890.5,313.7,891.7,313.7,893.3z"/>
</g>
<polyline class="st10" points="337.9,666.6 337.9,599.1 692.6,599.1 692.6,666.6 "/>
<g>
	<polygon class="st2" points="478.9,342.6 502,382.5 525.1,342.6 	"/>
	<line class="st10" x1="502" y1="298.8" x2="502" y2="339.5"/>
</g>
</svg>
