<?xml version="1.0" encoding="utf-8"?>
<!-- Generator: Adobe Illustrator 19.1.0, SVG Export Plug-In . SVG Version: 6.00 Build 0)  -->
<!DOCTYPE svg PUBLIC "-//W3C//DTD SVG 1.1//EN" "http://www.w3.org/Graphics/SVG/1.1/DTD/svg11.dtd">
<svg version="1.1" id="Layer_1" xmlns="http://www.w3.org/2000/svg" xmlns:xlink="http://www.w3.org/1999/xlink" x="0px" y="0px"
	 viewBox="370 -348 1740.7 1390" style="enable-background:new 370 -348 1740.7 1390;" xml:space="preserve">
<style type="text/css">
	.st0{fill:#FFFFFF;}
	.st1{fill:#183B51;stroke:#183B51;stroke-miterlimit:10;}
	.st2{fill:none;stroke:#183B51;stroke-width:6;stroke-linecap:round;stroke-linejoin:round;stroke-miterlimit:10;}
	.st3{fill:#FFFFFF;stroke:#183B51;stroke-width:6;stroke-linecap:round;stroke-linejoin:round;stroke-miterlimit:10;}
	.st4{fill:#FAA61B;}
	.st5{fill:#F6C215;}
	.st6{fill:#989898;}
	.st7{display:none;fill:#989898;}
	.st8{fill:#7EB0D1;}
	.st9{opacity:0.36;}
	.st10{clip-path:url(#SVGID_2_);}
	.st11{fill:#495259;}
	.st12{fill:#1071A6;}
	.st13{fill:none;stroke:#FFFFFF;stroke-width:6;stroke-linecap:round;stroke-linejoin:round;stroke-miterlimit:10;}
	.st14{enable-background:new    ;}
	.st15{fill:#764E3D;}
	.st16{fill:#553628;}
	.st17{fill:#4B2E20;}
	.st18{fill:none;stroke:#77797B;stroke-width:10;stroke-linecap:round;stroke-linejoin:round;stroke-miterlimit:10;}
	.st19{fill:#A39F9F;}
	.st20{fill:#C1282D;}
	.st21{fill:#4F605F;}
	.st22{fill:#364545;}
	.st23{fill:#3B4A4A;}
	.st24{fill:#438CCB;}
	.st25{fill:#7EB0D1;stroke:#FFFFFF;stroke-width:6;stroke-miterlimit:10;}
	.st26{fill:none;stroke:#D2D3D4;stroke-width:2;stroke-linecap:round;stroke-linejoin:round;stroke-miterlimit:10;}
	.st27{opacity:0.2;}
	.st28{fill:#A7855C;}
	.st29{fill:#8F734F;}
	.st30{fill:#826847;}
	.st31{fill:none;stroke:#FFFFFF;stroke-width:8;stroke-linecap:round;stroke-linejoin:round;stroke-miterlimit:10;}
	.st32{fill:none;stroke:#FFFFFF;stroke-width:3;stroke-linecap:round;stroke-linejoin:round;stroke-miterlimit:10;}
	.st33{fill:none;stroke:#FFFFFF;stroke-width:4;stroke-linecap:round;stroke-linejoin:round;stroke-miterlimit:10;}
	.st34{fill:none;}
	.st35{fill:#D4D6D7;}
	.st36{clip-path:url(#SVGID_4_);fill:#183B51;}
	.st37{clip-path:url(#SVGID_6_);fill:#183B51;}
	.st38{fill:#8C704C;}
	.st39{fill:#866B49;}
	.st40{clip-path:url(#SVGID_8_);fill:#183B51;}
	.st41{clip-path:url(#SVGID_10_);fill:#183B51;}
	.st42{fill:#937651;}
	.st43{fill:#7F6545;}
	.st44{clip-path:url(#SVGID_12_);fill:#183B51;}
	.st45{clip-path:url(#SVGID_14_);fill:#183B51;}
	.st46{fill:#927550;}
	.st47{fill:#806645;}
	.st48{clip-path:url(#SVGID_16_);fill:#183B51;}
	.st49{clip-path:url(#SVGID_18_);fill:#183B51;}
	.st50{fill:#8E724E;}
	.st51{fill:#836948;}
	.st52{clip-path:url(#SVGID_20_);fill:#183B51;}
	.st53{clip-path:url(#SVGID_22_);fill:#183B51;}
	.st54{clip-path:url(#SVGID_24_);fill:#183B51;}
	.st55{clip-path:url(#SVGID_26_);fill:#183B51;}
	.st56{fill:#91744F;}
	.st57{fill:#816746;}
	.st58{clip-path:url(#SVGID_28_);fill:#183B51;}
	.st59{clip-path:url(#SVGID_30_);fill:#183B51;}
	.st60{clip-path:url(#SVGID_32_);fill:#183B51;}
	.st61{clip-path:url(#SVGID_34_);fill:#183B51;}
</style>
<path class="st0" d="M2103.8,191.7c0-36.6-29.6-66.2-66.2-66.2c-6,0-11.8,0.8-17.3,2.3c-12.1-13.5-29.7-22-49.2-22
	c-14.2,0-27.4,4.5-38.2,12.2c-10.8-7.6-24-12.2-38.2-12.2c-25.2,0-47.1,14.1-58.3,34.8c-35.9,8.8-62.5,41.2-62.5,79.8
	c0,45.4,36.8,82.2,82.2,82.2c18.6,0,35.8-6.2,49.5-16.6c11.1,6.4,23.9,10.1,37.6,10.1s26.6-3.7,37.7-10.1
	c11.1,6.4,23.9,10.1,37.7,10.1c39.6,0,72-30.5,75.2-69.3C2100.1,216.6,2103.8,204.6,2103.8,191.7z"/>
<path class="st0" d="M819.3,297.7c0-14.8-12-26.8-26.8-26.8c-2.4,0-4.8,0.3-7,0.9c-4.9-5.5-12-8.9-19.9-8.9
	c-5.8,0-11.1,1.8-15.5,4.9c-4.4-3.1-9.7-4.9-15.5-4.9c-10.2,0-19.1,5.7-23.6,14.1c-14.5,3.6-25.3,16.7-25.3,32.3
	c0,18.4,14.9,33.2,33.2,33.2c7.5,0,14.5-2.5,20-6.7c4.5,2.6,9.7,4.1,15.2,4.1s10.7-1.5,15.2-4.1c4.5,2.6,9.7,4.1,15.2,4.1
	c16,0,29.1-12.3,30.4-28C817.8,307.8,819.3,302.9,819.3,297.7z"/>
<path class="st0" d="M542.4,157.9c0-14.8-12-26.8-26.8-26.8c-2.4,0-4.8,0.3-7,0.9c-4.9-5.5-12-8.9-19.9-8.9
	c-5.8,0-11.1,1.8-15.5,4.9c-4.4-3.1-9.7-4.9-15.5-4.9c-10.2,0-19.1,5.7-23.6,14.1c-14.5,3.6-25.3,16.7-25.3,32.3
	c0,18.4,14.9,33.2,33.2,33.2c7.5,0,14.5-2.5,20-6.7c4.5,2.6,9.7,4.1,15.2,4.1s10.7-1.5,15.2-4.1c4.5,2.6,9.7,4.1,15.2,4.1
	c16,0,29.1-12.3,30.4-28C540.9,168,542.4,163.1,542.4,157.9z"/>
<path class="st0" d="M1821.3-173.3c0-14.8-12-26.8-26.8-26.8c-2.4,0-4.8,0.3-7,0.9c-4.9-5.5-12-8.9-19.9-8.9
	c-5.8,0-11.1,1.8-15.5,4.9c-4.4-3.1-9.7-4.9-15.5-4.9c-10.2,0-19.1,5.7-23.6,14.1c-14.5,3.6-25.3,16.7-25.3,32.3
	c0,18.4,14.9,33.2,33.2,33.2c7.5,0,14.5-2.5,20-6.7c4.5,2.6,9.7,4.1,15.2,4.1s10.7-1.5,15.2-4.1c4.5,2.6,9.7,4.1,15.2,4.1
	c16,0,29.1-12.3,30.4-28C1819.8-163.2,1821.3-168.1,1821.3-173.3z"/>
<path class="st0" d="M1058.2-243.1c0-33.5-27.1-60.6-60.6-60.6c-5.5,0-10.8,0.7-15.9,2.1c-11.1-12.3-27.2-20.1-45.1-20.1
	c-13,0-25.1,4.1-35,11.1c-9.9-7-22-11.1-35-11.1c-23.1,0-43.2,12.9-53.4,31.9c-32.9,8.1-57.2,37.7-57.2,73.1
	c0,41.6,33.7,75.3,75.3,75.3c17,0,32.8-5.7,45.4-15.2c10.1,5.9,21.9,9.2,34.5,9.2s24.3-3.4,34.5-9.2c10.2,5.9,21.9,9.2,34.5,9.2
	c36.3,0,66-27.9,68.9-63.5C1054.8-220.2,1058.2-231.2,1058.2-243.1z"/>
<path class="st0" d="M646.5-153.6c0-24.4-19.8-44.3-44.3-44.3c-4,0-7.9,0.5-11.6,1.5c-8.1-9-19.8-14.7-32.9-14.7
	c-9.5,0-18.3,3-25.5,8.1c-7.2-5.1-16-8.1-25.5-8.1c-16.8,0-31.5,9.4-39,23.3c-24,5.9-41.8,27.5-41.8,53.3
	c0,30.3,24.6,54.9,54.9,54.9c12.4,0,23.9-4.1,33.1-11.1c7.4,4.3,16,6.7,25.2,6.7s17.8-2.5,25.2-6.7c7.4,4.3,16,6.7,25.2,6.7
	c26.5,0,48.2-20.4,50.3-46.3C644-136.9,646.5-145,646.5-153.6z"/>
<g>
	<g>
		<g>
			<g>
				<path class="st1" d="M1401.9-118.3l-115.2,28.5c-7.9,1.9-15.9-1.4-19.1-7.9l-33.9-68.3c-4.3-8.6,1.4-19.1,11.8-21.6L1405-227
					c10.4-2.6,20.3,4,20.5,13.6l-10.4,79.2C1415.3-126.9,1409.8-120.3,1401.9-118.3z"/>
				<polyline class="st2" points="1424.6,-125.9 1263.8,-86.2 1213,-191.8 1175.3,-182.9 				"/>
				<path class="st2" d="M1267.4-86.6c-7.9,3.6-11.6,12.6-8.8,20.1c3,8.3,13,12.7,21.8,8.9"/>
				<line class="st2" x1="1280.9" y1="-57.6" x2="1401.3" y2="-87.3"/>
				<circle class="st3" cx="1280.4" cy="-57.5" r="15.2"/>
				<circle class="st3" cx="1400.9" cy="-87.3" r="15.2"/>
			</g>
			<g>
				<g>
					<path class="st4" d="M1196.5-138.4c77.3-19.1,87.1,20.6,9.8,39.7c-78.4,19.4-144.6,26.3-147.3,15.3
						C1056.3-94.3,1118-119,1196.5-138.4z"/>
					<path class="st5" d="M1180.7-126.4c47.5-11.7,53.6,12.7,6,24.5c-48.6,12-89.2,16.2-90.9,9.5
						C1094.1-99.1,1132-114.4,1180.7-126.4z"/>
				</g>
				<g>
					<g>
						
							<rect x="1191.2" y="-142" transform="matrix(-0.9708 0.2398 -0.2398 -0.9708 2362.8892 -530.567)" class="st6" width="45.1" height="40.9"/>
						<g>
							<path class="st7" d="M1253.2-152.7c-2.2-9-21.1-11.4-42.3-6.2c-11,2.7-20.5,7.1-26.7,11.8c18.2-4.8,29.7,1.1,30.7,5.3
								L1253.2-152.7z"/>
							<path class="st7" d="M1263.4-111.5c2.2,9-13.3,19.9-34.6,25.2c-11,2.7-21.4,3.3-29.2,2c18.4-4.2,25.7-14.8,24.7-19
								L1263.4-111.5z"/>
							<path class="st8" d="M1218.4-122.6c1.9,7.7,0.5,15.4-3.4,21.6c14.2,2.4,33.2,1.3,53.4-3.7c38.8-9.6,67.1-30.2,63.2-46
								c-3.9-15.8-38.5-20.8-77.4-11.2c-20.2,5-37.5,12.9-48.9,21.6C1211.6-136.5,1216.5-130.3,1218.4-122.6z"/>
							
								<rect x="1220.9" y="-156" transform="matrix(-0.2398 -0.9708 0.9708 -0.2398 1636.1802 1032.4001)" class="st7" width="2.8" height="63.2"/>
						</g>
					</g>
					<g class="st9">
						<g>
							<defs>
								
									<rect id="SVGID_1_" x="1181.6" y="-133.2" transform="matrix(-0.9708 0.2398 -0.2398 -0.9708 2463.3274 -527.0795)" width="164.3" height="39"/>
							</defs>
							<clipPath id="SVGID_2_">
								<use xlink:href="#SVGID_1_"  style="overflow:visible;"/>
							</clipPath>
							<g class="st10">
								
									<rect x="1191.2" y="-142" transform="matrix(-0.9708 0.2398 -0.2398 -0.9708 2362.8892 -530.567)" class="st11" width="45.1" height="40.9"/>
								<g>
									<path class="st7" d="M1253.2-152.7c-2.2-9-21.1-11.4-42.3-6.2c-11,2.7-20.5,7.1-26.7,11.8c18.2-4.8,29.7,1.1,30.7,5.3
										L1253.2-152.7z"/>
									<path class="st7" d="M1263.4-111.5c2.2,9-13.3,19.9-34.6,25.2c-11,2.7-21.4,3.3-29.2,2c18.4-4.2,25.7-14.8,24.7-19
										L1263.4-111.5z"/>
									<path class="st12" d="M1218.4-122.6c1.9,7.7,0.5,15.4-3.4,21.6c14.2,2.4,33.2,1.3,53.4-3.7c38.8-9.6,67.1-30.2,63.2-46
										c-3.9-15.8-38.5-20.8-77.4-11.2c-20.2,5-37.5,12.9-48.9,21.6C1211.6-136.5,1216.5-130.3,1218.4-122.6z"/>
									
										<rect x="1220.9" y="-156" transform="matrix(-0.2398 -0.9708 0.9708 -0.2398 1636.1802 1032.4001)" class="st7" width="2.8" height="63.2"/>
								</g>
								<path class="st13" d="M1219.3-137.8c0,0,63.9-30.8,99.5-16.7"/>
							</g>
						</g>
					</g>
				</g>
			</g>
		</g>
		<path class="st13" d="M1220.3-140.3c0,0,4.9-5.1,23.6-9.8"/>
		<path class="st13" d="M1259.2-153.8c0,0,5.3-2.4,16.9-4.2"/>
		<path class="st13" d="M1292.1-158.4c0,0,18.7,0,28,5.6"/>
	</g>
	<path class="st13" d="M1149.5-129.6"/>
	<polygon class="st5" points="1108.3,-156.5 1116.9,-152.9 1109.2,-147.6 1105.6,-139 1100.3,-146.7 1091.7,-150.3 1099.4,-155.6 
		1103,-164.2 	"/>
	<polygon class="st5" points="1167.1,-48.3 1172.5,-40.6 1163.1,-40.3 1155.4,-34.9 1155.1,-44.3 1149.7,-52 1159.1,-52.3 
		1166.7,-57.7 	"/>
	<polygon class="st5" points="1384.2,-89.8 1389.6,-82.1 1380.2,-81.7 1372.5,-76.4 1372.2,-85.7 1366.8,-93.4 1376.2,-93.8 
		1383.9,-99.1 	"/>
	<polygon class="st5" points="1049.9,-36.8 1055.3,-29.2 1045.9,-28.8 1038.3,-23.5 1037.9,-32.8 1032.6,-40.5 1041.9,-40.8 
		1049.6,-46.2 	"/>
	<polygon class="st5" points="1100.4,-54.1 1103,-50.4 1098.5,-50.2 1094.7,-47.6 1094.5,-52.2 1091.9,-55.9 1096.5,-56.1 
		1100.2,-58.7 	"/>
	<polygon class="st5" points="1236.5,-96.7 1239.1,-92.9 1234.6,-92.8 1230.8,-90.2 1230.7,-94.7 1228.1,-98.4 1232.6,-98.6 
		1236.3,-101.2 	"/>
	<polygon class="st5" points="1228.9,-58.7 1231.5,-55 1227,-54.8 1223.3,-52.2 1223.1,-56.8 1220.5,-60.5 1225,-60.7 1228.8,-63.3 
			"/>
	<polygon class="st5" points="1313.5,-49.3 1318.9,-41.6 1309.5,-41.3 1301.8,-35.9 1301.5,-45.3 1296.1,-53 1305.5,-53.3 
		1313.2,-58.7 	"/>
	<polygon class="st5" points="1340.2,-131 1345.6,-123.4 1336.2,-123 1328.5,-117.7 1328.2,-127 1322.8,-134.7 1332.2,-135 
		1339.9,-140.4 	"/>
	<polygon class="st5" points="986.1,-58.1 994.1,-46.7 980.2,-46.1 968.8,-38.2 968.2,-52.1 960.3,-63.5 974.2,-64 985.6,-72 	"/>
	<polygon class="st5" points="1030.3,-106.8 1033.6,-102.1 1027.9,-101.9 1023.3,-98.7 1023,-104.3 1019.8,-109 1025.5,-109.2 
		1030.1,-112.4 	"/>
</g>
<g>
	<g>
		<g class="st14">
			<g>
				<polygon class="st15" points="1714.9,779.6 1941,780.9 1943.3,917.3 1717.2,916 				"/>
			</g>
			<g>
				<polygon class="st16" points="1714.9,779.6 1814.7,745.9 2040.8,747.2 1941,780.9 				"/>
			</g>
			<g>
				<polygon class="st17" points="1941,780.9 2040.8,747.2 2043.1,883.6 1943.3,917.3 				"/>
			</g>
		</g>
	</g>
</g>
<line class="st18" x1="1645.9" y1="907" x2="1645.9" y2="648"/>
<circle class="st19" cx="1645.9" cy="648" r="11"/>
<polygon class="st20" points="1641.9,657.9 1491.4,692.2 1641.9,726.5 "/>
<g>
	<path class="st4" d="M1622.9,711.6l-2-7.5h-13l-2,7.5H1594l13-40.1h14.4l13.2,40.1H1622.9z M1618.6,695.2l-1.7-6.6
		c-0.4-1.5-0.9-3.3-1.5-5.7s-1-4-1.1-5c-0.2,0.9-0.5,2.5-1,4.6s-1.6,6.3-3.2,12.6h8.5V695.2z"/>
</g>
<g>
	<g>
		<g class="st14">
			<g>
				<polygon class="st21" points="800,776.6 796.8,913 575.5,914.3 578.7,777.9 				"/>
			</g>
			<g>
				<polygon class="st22" points="674.5,742.9 800,776.6 578.7,777.9 453.2,744.2 				"/>
			</g>
			<g>
				<polygon class="st23" points="453.2,744.2 578.7,777.9 575.5,914.3 450,880.6 				"/>
			</g>
		</g>
	</g>
</g>
<line class="st18" x1="861.9" y1="904" x2="861.9" y2="645"/>
<circle class="st19" cx="861.9" cy="645" r="11"/>
<polygon class="st24" points="864.9,654.9 1015.3,689.2 864.9,723.5 "/>
<g>
	<path class="st4" d="M908,684.3c0,4.5-1.3,7.9-4,10.3c-2.6,2.4-6.4,3.7-11.2,3.7h-3v13.3H879v-40h13.8c5,0,8.8,1.1,11.4,3.3
		C906.7,677.1,908,680.3,908,684.3z M889.8,689.5h2c1.6,0,2.9-0.5,3.9-1.4s1.4-2.2,1.4-3.8c0-2.7-1.5-4-4.5-4h-2.8L889.8,689.5
		L889.8,689.5z"/>
</g>
<g>
	<path class="st1" d="M524.8,964.1c0,4.7-1.4,8.3-4.1,10.8c-2.8,2.5-6.7,3.8-11.7,3.8h-3.2v13.9h-11.3v-41.8H509
		c5.3,0,9.2,1.2,11.9,3.5C523.5,956.5,524.8,959.8,524.8,964.1z M505.8,969.5h2.1c1.7,0,3-0.5,4-1.4c1-1,1.5-2.3,1.5-3.9
		c0-2.8-1.6-4.2-4.7-4.2h-2.9L505.8,969.5L505.8,969.5z"/>
	<path class="st1" d="M567,950.8V976c0,5.5-1.5,9.7-4.6,12.7c-3.1,3-7.6,4.5-13.4,4.5c-5.7,0-10.1-1.5-13.1-4.4
		c-3.1-2.9-4.6-7.1-4.6-12.6v-25.4h11.4v24.5c0,3,0.6,5.1,1.7,6.4c1.1,1.3,2.7,2,4.9,2c2.3,0,4-0.7,5-2c1-1.3,1.6-3.5,1.6-6.5v-24.5
		H567V950.8z"/>
	<path class="st1" d="M575.8,950.8h14.6c5.7,0,9.9,0.8,12.7,2.5c2.8,1.7,4.1,4.3,4.1,7.9c0,2.3-0.6,4.3-1.8,6
		c-1.2,1.7-2.8,2.7-4.7,3.2v0.3c2.6,0.7,4.5,1.8,5.6,3.4c1.2,1.6,1.7,3.7,1.7,6.2c0,3.8-1.4,6.8-4.3,9c-2.9,2.2-6.7,3.3-11.7,3.3
		h-16.3L575.8,950.8L575.8,950.8z M587.1,966.8h3.4c1.6,0,2.9-0.3,3.8-1c0.9-0.7,1.3-1.7,1.3-3c0-2.3-1.8-3.5-5.3-3.5h-3.2V966.8z
		 M587.1,975.1v8.8h4c3.5,0,5.3-1.5,5.3-4.5c0-1.4-0.5-2.5-1.4-3.2c-0.9-0.7-2.3-1.1-4.1-1.1L587.1,975.1L587.1,975.1z"/>
	<path class="st1" d="M615.3,992.6v-41.8h11.3v32.7h16.1v9.1H615.3z"/>
	<path class="st1" d="M649.4,992.6v-41.8h11.4v41.8H649.4z"/>
	<path class="st1" d="M697.1,979.9c0,2.6-0.7,4.9-2,6.9c-1.3,2-3.2,3.6-5.7,4.7s-5.4,1.7-8.7,1.7c-2.8,0-5.1-0.2-7-0.6
		c-1.9-0.4-3.9-1.1-5.9-2v-10.1c2.2,1.1,4.4,2,6.7,2.6c2.3,0.6,4.5,0.9,6.4,0.9c1.7,0,2.9-0.3,3.7-0.9c0.8-0.6,1.2-1.3,1.2-2.2
		c0-0.6-0.2-1.1-0.5-1.5c-0.3-0.4-0.8-0.9-1.5-1.3c-0.7-0.4-2.5-1.3-5.6-2.7c-2.7-1.2-4.8-2.4-6.1-3.6c-1.4-1.2-2.4-2.5-3-4
		c-0.7-1.5-1-3.3-1-5.3c0-3.8,1.4-6.9,4.2-9c2.8-2.2,6.7-3.2,11.6-3.2c4.3,0,8.7,1,13.2,3l-3.5,8.7c-3.9-1.8-7.3-2.7-10.1-2.7
		c-1.5,0-2.5,0.3-3.2,0.8c-0.7,0.5-1,1.2-1,1.9c0,0.8,0.4,1.6,1.3,2.2c0.8,0.6,3.2,1.8,6.9,3.5c3.6,1.6,6.1,3.4,7.5,5.2
		S697.1,977.1,697.1,979.9z"/>
	<path class="st1" d="M739.4,992.6H728v-17h-13.1v17h-11.4v-41.8h11.4v15.5H728v-15.5h11.4V992.6z"/>
	<path class="st1" d="M773.2,992.6h-24.8v-41.8h24.8v9.1h-13.5v6.6h12.5v9.1h-12.5v7.9h13.5V992.6z"/>
	<path class="st1" d="M791.8,977.4v15.2h-11.3v-41.8h13.7c11.4,0,17,4.1,17,12.4c0,4.8-2.4,8.6-7.1,11.2l12.2,18.2h-12.8l-8.9-15.2
		L791.8,977.4L791.8,977.4z M791.8,968.9h2.1c3.9,0,5.9-1.7,5.9-5.2c0-2.9-1.9-4.3-5.8-4.3h-2.2V968.9z"/>
	<path class="st1" d="M847.5,979.9c0,2.6-0.7,4.9-2,6.9s-3.2,3.6-5.7,4.7s-5.4,1.7-8.7,1.7c-2.8,0-5.1-0.2-7-0.6s-3.9-1.1-5.9-2
		v-10.1c2.2,1.1,4.4,2,6.7,2.6c2.3,0.6,4.5,0.9,6.4,0.9c1.7,0,2.9-0.3,3.7-0.9c0.8-0.6,1.2-1.3,1.2-2.2c0-0.6-0.2-1.1-0.5-1.5
		s-0.8-0.9-1.5-1.3c-0.7-0.4-2.5-1.3-5.6-2.7c-2.7-1.2-4.8-2.4-6.1-3.6c-1.4-1.2-2.4-2.5-3-4c-0.7-1.5-1-3.3-1-5.3
		c0-3.8,1.4-6.9,4.2-9c2.8-2.2,6.7-3.2,11.6-3.2c4.3,0,8.7,1,13.2,3L844,962c-3.9-1.8-7.3-2.7-10.1-2.7c-1.5,0-2.5,0.3-3.2,0.8
		s-1,1.2-1,1.9c0,0.8,0.4,1.6,1.3,2.2c0.8,0.6,3.2,1.8,6.9,3.5c3.6,1.6,6.1,3.4,7.5,5.2C846.8,974.7,847.5,977.1,847.5,979.9z"/>
</g>
<g>
	<rect x="605.5" y="803" class="st25" width="38.5" height="49.8"/>
	<line class="st26" x1="624.9" y1="804" x2="624.9" y2="854"/>
	<line class="st26" x1="605.9" y1="829" x2="644.9" y2="829"/>
</g>
<g>
	<rect x="733.5" y="803" class="st25" width="38.5" height="49.8"/>
	<line class="st26" x1="752.9" y1="804" x2="752.9" y2="854"/>
	<line class="st26" x1="733.9" y1="829" x2="772.9" y2="829"/>
</g>
<g>
	<path class="st1" d="M1632,992.6l-2.1-7.8h-13.6l-2.1,7.8h-12.4l13.6-42h15.1l13.8,42H1632z M1627.6,975.5l-1.8-6.9
		c-0.4-1.5-0.9-3.5-1.5-5.9s-1-4.2-1.2-5.2c-0.2,1-0.5,2.6-1,4.8s-1.6,6.6-3.4,13.2L1627.6,975.5L1627.6,975.5z"/>
	<path class="st1" d="M1684.4,970.8c0,7-1.9,12.4-5.8,16.1s-9.2,5.7-16.2,5.7h-13.5v-41.8h14.5c6.7,0,11.9,1.7,15.5,5.1
		C1682.6,959.3,1684.4,964.3,1684.4,970.8z M1672.7,971.2c0-3.8-0.8-6.7-2.3-8.5s-3.8-2.8-6.9-2.8h-3.3v23.4h2.5c3.4,0,5.9-1,7.5-3
		C1671.9,978.3,1672.7,975.3,1672.7,971.2z"/>
	<path class="st1" d="M1715.4,950.8h12.6l-13.7,41.8H1701l-13.6-41.8h12.7l5.7,21.2c1.2,4.7,1.8,8,1.9,9.8c0.1-1.3,0.4-3,0.8-5
		s0.8-3.6,1.1-4.7L1715.4,950.8z"/>
	<path class="st1" d="M1757.3,992.6h-24.8v-41.8h24.8v9.1h-13.5v6.6h12.5v9.1h-12.5v7.9h13.5V992.6z"/>
	<path class="st1" d="M1776,977.4v15.2h-11.3v-41.8h13.7c11.4,0,17,4.1,17,12.4c0,4.8-2.4,8.6-7.1,11.2l12.2,18.2h-12.8l-8.9-15.2
		L1776,977.4L1776,977.4z M1776,968.9h2.1c3.9,0,5.9-1.7,5.9-5.2c0-2.9-1.9-4.3-5.8-4.3h-2.2V968.9z"/>
	<path class="st1" d="M1822.7,992.6h-11.3V960h-10.2v-9.2h31.7v9.2h-10.2V992.6z"/>
	<path class="st1" d="M1838.9,992.6v-41.8h11.4v41.8H1838.9z"/>
	<path class="st1" d="M1886.6,979.9c0,2.6-0.7,4.9-2,6.9s-3.2,3.6-5.7,4.7s-5.4,1.7-8.7,1.7c-2.8,0-5.1-0.2-7-0.6s-3.9-1.1-5.9-2
		v-10.1c2.2,1.1,4.4,2,6.7,2.6c2.3,0.6,4.5,0.9,6.4,0.9c1.7,0,2.9-0.3,3.7-0.9c0.8-0.6,1.2-1.3,1.2-2.2c0-0.6-0.2-1.1-0.5-1.5
		s-0.8-0.9-1.5-1.3c-0.7-0.4-2.5-1.3-5.6-2.7c-2.7-1.2-4.8-2.4-6.1-3.6c-1.4-1.2-2.4-2.5-3-4c-0.7-1.5-1-3.3-1-5.3
		c0-3.8,1.4-6.9,4.2-9c2.8-2.2,6.7-3.2,11.6-3.2c4.3,0,8.7,1,13.2,3l-3.5,8.7c-3.9-1.8-7.3-2.7-10.1-2.7c-1.5,0-2.5,0.3-3.2,0.8
		s-1,1.2-1,1.9c0,0.8,0.4,1.6,1.3,2.2c0.8,0.6,3.2,1.8,6.9,3.5c3.6,1.6,6.1,3.4,7.5,5.2S1886.6,977.1,1886.6,979.9z"/>
	<path class="st1" d="M1917.9,992.6h-24.8v-41.8h24.8v9.1h-13.5v6.6h12.5v9.1h-12.5v7.9h13.5V992.6z"/>
	<path class="st1" d="M1936.5,977.4v15.2h-11.3v-41.8h13.7c11.4,0,17,4.1,17,12.4c0,4.8-2.4,8.6-7.1,11.2l12.2,18.2h-12.8l-8.9-15.2
		L1936.5,977.4L1936.5,977.4z M1936.5,968.9h2.1c3.9,0,5.9-1.7,5.9-5.2c0-2.9-1.9-4.3-5.8-4.3h-2.2V968.9z"/>
	<path class="st1" d="M1992.2,979.9c0,2.6-0.7,4.9-2,6.9s-3.2,3.6-5.7,4.7s-5.4,1.7-8.7,1.7c-2.8,0-5.1-0.2-7-0.6s-3.9-1.1-5.9-2
		v-10.1c2.2,1.1,4.4,2,6.7,2.6c2.3,0.6,4.5,0.9,6.4,0.9c1.7,0,2.9-0.3,3.7-0.9c0.8-0.6,1.2-1.3,1.2-2.2c0-0.6-0.2-1.1-0.5-1.5
		s-0.8-0.9-1.5-1.3c-0.7-0.4-2.5-1.3-5.6-2.7c-2.7-1.2-4.8-2.4-6.1-3.6c-1.4-1.2-2.4-2.5-3-4c-0.7-1.5-1-3.3-1-5.3
		c0-3.8,1.4-6.9,4.2-9c2.8-2.2,6.7-3.2,11.6-3.2c4.3,0,8.7,1,13.2,3l-3.5,8.7c-3.9-1.8-7.3-2.7-10.1-2.7c-1.5,0-2.5,0.3-3.2,0.8
		s-1,1.2-1,1.9c0,0.8,0.4,1.6,1.3,2.2c0.8,0.6,3.2,1.8,6.9,3.5c3.6,1.6,6.1,3.4,7.5,5.2S1992.2,977.1,1992.2,979.9z"/>
</g>
<g>
	<rect x="1746.5" y="806" class="st25" width="38.5" height="49.8"/>
	<line class="st26" x1="1765.9" y1="807" x2="1765.9" y2="857"/>
	<line class="st26" x1="1746.9" y1="832" x2="1785.9" y2="832"/>
</g>
<g>
	<rect x="1874.5" y="806" class="st25" width="38.5" height="49.8"/>
	<line class="st26" x1="1893.9" y1="807" x2="1893.9" y2="857"/>
	<line class="st26" x1="1874.9" y1="832" x2="1913.9" y2="832"/>
</g>
<g>
	<g class="st27">
		<g>
			<path d="M1001.3,285.6c0,31.9-8.9,58.1-26.4,77.9c-17.5,19.8-42.4,31.7-74.2,34.1c-20.6,1.4-41.3,2.2-61.9,2.2
				c0-63.7,0-127.7,0-191.4c22.2,0,44.2-1,66.4-2.6c30.7-2.4,54.5,2.2,71.2,15.5C993,234.8,1001.3,255.9,1001.3,285.6z M947.6,295.1
				c0-17.5-3.4-30.1-10.5-37.9c-6.9-7.7-17.5-10.9-31.7-9.7c-5,0.4-10.1,0.8-15.1,1c0,35.7,0,71.6,0,107.3c3.8-0.2,7.7-0.4,11.5-0.8
				c15.7-1.2,27.2-6.9,34.5-16.9C944,328.3,947.6,313.8,947.6,295.1z"/>
			<path d="M1153.1,353.8c-3.2-11.3-6.3-22.4-9.5-33.7c-20.8,5-41.5,9.7-62.1,14.1c-3.2,12.7-6.5,25.2-9.7,37.9
				c-19,4-37.9,7.7-56.9,10.9c20.8-67.8,41.8-135.9,62.5-204.5c23-4.8,46-10.1,69-15.7c21.2,59.1,42.2,118,63.3,176.7
				C1190.9,344.5,1171.9,349.1,1153.1,353.8z M1133,280.1c-2.8-9.9-5.4-19.8-8.3-29.4c-2-6.5-4.2-15.1-7.1-25.4
				c-2.8-10.5-4.6-18-5.4-22.6c-0.8,4.6-2.4,12.3-4.6,23c-2.2,10.7-7.5,32.1-15.3,63.7C1105.7,286.4,1119.5,283.4,1133,280.1z"/>
			<path d="M1314.9,313.4c-17.3,4.2-34.5,8.5-51.8,12.7c0-49.8,0-99.4,0-149.3c-15.5,3.8-31.3,7.9-46.8,11.7c0-14.1,0-28.2,0-42.4
				c48.4-12.1,96.8-24.6,145.2-35.5c0,14.1,0,28.2,0,42.4c-15.5,3.4-31.1,7.3-46.6,10.9C1314.9,214,1314.9,263.8,1314.9,313.4z"/>
			<path d="M1506.3,275.7c-3.2-11.5-6.3-23-9.5-34.7c-20.8,3-41.5,6.5-62.1,10.3c-3.2,12.5-6.5,25.2-9.7,37.7
				c-19,3.6-37.9,7.7-56.9,11.9c20.8-68.8,41.8-137.2,62.5-205.3c23-4.4,46-8.3,69-11.5c21.2,61.1,42.2,122.8,63.3,185.4
				C1544,271.3,1525.3,273.3,1506.3,275.7z M1486.1,200.3c-2.8-10.1-5.4-20.2-8.3-30.3c-2-6.7-4.2-15.3-7.1-26
				c-2.8-10.7-4.6-18.4-5.4-23c-0.8,4.6-2.4,12.1-4.6,22.8c-2.2,10.7-7.5,31.7-15.3,63.1C1459.1,204.5,1472.6,202.3,1486.1,200.3z"
				/>
			<path d="M1623.7,199.5c-14.3,0.2-28.8,0.6-43.2,1.4c-2.2-41.1-4.4-82.3-6.7-123.4c19-1.2,37.7-2,56.7-2
				C1628.1,116.8,1625.9,158.1,1623.7,199.5z M1574.3,247.1c0-7.9,2.4-14.3,7.1-19c4.6-4.6,11.5-7.3,20.6-7.7
				c8.9-0.4,15.7,1.8,20.2,6.3c4.6,4.4,6.9,10.5,6.9,18.6c0,7.9-2.4,13.9-7.1,18.4c-4.8,4.4-11.5,6.9-20,7.1
				c-8.7,0.4-15.3-1.6-20.4-5.6C1576.7,261,1574.3,254.9,1574.3,247.1z"/>
		</g>
	</g>
	<g>
		<g>
			<path class="st0" d="M1008.5,265.4c0,31.9-8.9,58.1-26.4,77.9c-17.5,19.8-42.4,31.7-74.2,34.1c-20.6,1.4-41.3,2.2-61.9,2.2
				c0-63.7,0-127.7,0-191.4c22.2,0,44.2-1,66.4-2.6c30.7-2.4,54.5,2.2,71.2,15.5C1000.2,214.6,1008.5,235.8,1008.5,265.4z
				 M954.9,274.9c0-17.5-3.4-30.1-10.5-37.9c-6.9-7.7-17.5-10.9-31.7-9.7c-5,0.4-10.1,0.8-15.1,1c0,35.7,0,71.6,0,107.3
				c3.8-0.2,7.7-0.4,11.5-0.8c15.7-1.2,27.2-6.9,34.5-16.9C951.2,308.2,954.9,293.7,954.9,274.9z"/>
			<path class="st0" d="M1160.4,333.6c-3.2-11.3-6.3-22.4-9.5-33.7c-20.8,5-41.5,9.7-62.1,14.1c-3.2,12.7-6.5,25.2-9.7,37.9
				c-19,4-37.9,7.7-56.9,10.9c20.8-67.8,41.8-135.9,62.5-204.5c23-4.8,46-10.1,69-15.7c21.2,59.1,42.2,118,63.3,176.7
				C1198.1,324.3,1179.1,329,1160.4,333.6z M1140.2,260c-2.8-9.9-5.4-19.8-8.3-29.4c-2-6.5-4.2-15.1-7.1-25.4
				c-2.8-10.5-4.6-18-5.4-22.6c-0.8,4.6-2.4,12.3-4.6,23c-2.2,10.7-7.5,32.1-15.3,63.7C1113,266.2,1126.7,263.2,1140.2,260z"/>
			<path class="st0" d="M1322.2,293.3c-17.3,4.2-34.5,8.5-51.8,12.7c0-49.8,0-99.4,0-149.3c-15.5,3.8-31.3,7.9-46.8,11.7
				c0-14.1,0-28.2,0-42.4c48.4-12.1,96.8-24.6,145.2-35.5c0,14.1,0,28.2,0,42.4c-15.5,3.4-31.1,7.3-46.6,10.9
				C1322.2,193.8,1322.2,243.6,1322.2,293.3z"/>
			<path class="st0" d="M1513.6,255.5c-3.2-11.5-6.3-23-9.5-34.7c-20.8,3-41.5,6.5-62.1,10.3c-3.2,12.5-6.5,25.2-9.7,37.7
				c-19,3.6-37.9,7.7-56.9,11.9c20.8-68.8,41.8-137.2,62.5-205.3c23-4.4,46-8.3,69-11.5c21.2,61.1,42.2,122.8,63.3,185.4
				C1551.3,251.1,1532.5,253.1,1513.6,255.5z M1493.4,180.1c-2.8-10.1-5.4-20.2-8.3-30.3c-2-6.7-4.2-15.3-7.1-26
				c-2.8-10.7-4.6-18.4-5.4-23c-0.8,4.6-2.4,12.1-4.6,22.8s-7.5,31.7-15.3,63.1C1466.4,184.3,1479.9,182.1,1493.4,180.1z"/>
			<path class="st0" d="M1630.9,179.3c-14.3,0.2-28.8,0.6-43.2,1.4c-2.2-41.1-4.4-82.3-6.7-123.4c19-1.2,37.7-2,56.7-2
				C1635.4,96.6,1633.2,137.9,1630.9,179.3z M1581.5,226.9c0-7.9,2.4-14.3,7.1-19s11.5-7.3,20.6-7.7c8.9-0.4,15.7,1.8,20.2,6.3
				c4.6,4.4,6.9,10.5,6.9,18.6c0,7.9-2.4,13.9-7.1,18.4c-4.8,4.4-11.5,6.9-20,7.1c-8.7,0.4-15.3-1.6-20.4-5.6
				C1584,240.8,1581.5,234.8,1581.5,226.9z"/>
		</g>
	</g>
</g>
<g>
	<g>
		<g>
			<g>
				<g class="st14">
					<g>
						<polygon class="st28" points="852.1,490 922.4,506.3 912.9,549.7 842.7,533.3 						"/>
					</g>
					<g>
						<polygon class="st29" points="852.1,490 866.3,475.7 936.6,492.1 922.4,506.3 						"/>
					</g>
					<g>
						<polygon class="st30" points="922.4,506.3 936.6,492.1 927.1,535.4 912.9,549.7 						"/>
					</g>
				</g>
			</g>
		</g>
		<line class="st31" x1="888.6" y1="493.3" x2="903.3" y2="485.6"/>
		<line class="st32" x1="892.7" y1="490.2" x2="971.8" y2="448.3"/>
		<line class="st33" x1="948.5" y1="429.7" x2="892.7" y2="490.2"/>
		<line class="st33" x1="903.5" y1="433.4" x2="892.7" y2="490.2"/>
		<line class="st33" x1="867.8" y1="422.6" x2="892.7" y2="489.5"/>
		<line class="st33" x1="834" y1="416.2" x2="893" y2="488.7"/>
		<g>
			<circle class="st0" cx="892.7" cy="489.5" r="3.5"/>
			
				<ellipse transform="matrix(-0.1792 -0.9838 0.9838 -0.1792 570.1401 1461.2096)" class="st0" cx="894.6" cy="492.8" rx="5.2" ry="1.8"/>
			
				<ellipse transform="matrix(0.4733 -0.8809 0.8809 0.4733 35.4361 1044.459)" class="st0" cx="891.1" cy="492.6" rx="5.2" ry="1.8"/>
		</g>
		<path class="st34" d="M889.7,487.8"/>
		<g>
			<path class="st35" d="M852.2,411.9c7,1.6,12.3,6.5,14.8,13.2l1.4,0.3c5.2-5,12.1-6.9,19.1-5.3s12.3,6.5,14.8,13.2l1.2,0.3
				c5.2-5,12.2-7,19.1-5.4c7,1.6,12.9,5.9,15.4,12.4l0.4,1c5.1-4.7,12.1-6.8,19.1-5.2c7,1.6,12.3,6.5,14.8,13.3l0.6,0.1
				c8.7-39-15.4-77-54-86s-77.1,14.3-86.5,53.2l0.7,0.2C838.2,412.2,845.2,410.2,852.2,411.9z"/>
			<g>
				<g>
					<defs>
						<path id="SVGID_3_" d="M868.4,425.2c0,0,5.2-50.2,52-61.2c46.7-11-75.8-20.5-75.8-20.5L811,426.9l48.6,14.6L868.4,425.2z"/>
					</defs>
					<clipPath id="SVGID_4_">
						<use xlink:href="#SVGID_3_"  style="overflow:visible;"/>
					</clipPath>
					<path class="st36" d="M852.2,411.9c7,1.6,12.3,6.5,14.8,13.2l1.4,0.3c5.2-5,12.1-6.9,19.1-5.3s12.3,6.5,14.8,13.2l1.2,0.3
						c5.2-5,12.1-6.9,19.1-5.3s12.3,6.5,14.8,13.2l1,0.2c5.2-5,12.1-6.9,19.1-5.3s12.3,6.5,14.8,13.2l0.6,0.1c8.7-39-15.4-77-54-86
						s-77.1,14.3-86.5,53.2l0.7,0.2C838.2,412.2,845.2,410.2,852.2,411.9z"/>
				</g>
			</g>
			<g>
				<g>
					<defs>
						<path id="SVGID_5_" d="M904,433.5l16.4-69.6c-1-0.7,36.7,28.5,18.6,77.7c-18.3,49.7-46.3,40.2-46.3,40.2L904,433.5z"/>
					</defs>
					<clipPath id="SVGID_6_">
						<use xlink:href="#SVGID_5_"  style="overflow:visible;"/>
					</clipPath>
					<path class="st37" d="M853.4,412.2c7,1.6,12.3,6.5,14.8,13.2l1.4,0.3c5.2-5,12.1-6.9,19.1-5.3s12.3,6.5,14.8,13.2l1.2,0.3
						c5.2-5,12.1-6.9,19.1-5.3s12.3,6.5,14.8,13.2l1,0.2c5.2-5,12.1-6.9,19.1-5.3s12.3,6.5,14.8,13.2l0.6,0.1c8.7-39-15.4-77-54-86
						s-77.1,14.3-86.5,53.2l0.7,0.2C839.5,412.5,846.5,410.5,853.4,412.2z"/>
				</g>
			</g>
		</g>
	</g>
	<g>
		<path class="st0" d="M839,511.1l-0.8,3.5l-2.6-0.6l2.3-9.7l3.2,0.8c2.6,0.6,3.7,1.9,3.3,3.8c-0.3,1.1-1,1.9-2.3,2.2l1.8,4.9
			l-3-0.7l-1.2-4L839,511.1z M839.5,509.1l0.5,0.1c0.9,0.2,1.5-0.1,1.7-0.9c0.2-0.7-0.2-1.1-1.1-1.3l-0.5-0.1L839.5,509.1z"/>
		<path class="st0" d="M850.6,517.6l-5.8-1.4l2.3-9.7l5.8,1.4l-0.5,2.1l-3.1-0.7l-0.4,1.5l2.9,0.7l-0.5,2.1l-2.9-0.7l-0.4,1.8
			l3.1,0.7L850.6,517.6z"/>
		<path class="st0" d="M858.2,519.4v-1.9l-3.2-0.7l-0.9,1.7l-2.9-0.7l5.5-9l3.5,0.8l0.9,10.5L858.2,519.4z M858.2,515.1v-1.7
			c0-0.4,0-0.9,0-1.5s0-1,0-1.3c-0.1,0.2-0.3,0.6-0.5,1.1s-0.7,1.5-1.5,2.9L858.2,515.1z"/>
		<path class="st0" d="M871.6,517.2c-0.4,1.6-1.1,2.8-2.2,3.4c-1.1,0.7-2.5,0.8-4.1,0.4l-3.1-0.7l2.3-9.7l3.4,0.8
			c1.6,0.4,2.7,1.1,3.3,2.1C871.8,514.4,872,515.7,871.6,517.2z M868.9,516.6c0.2-0.9,0.2-1.6-0.1-2.1c-0.2-0.5-0.7-0.9-1.5-1
			l-0.8-0.2l-1.3,5.4l0.6,0.1c0.8,0.2,1.4,0.1,1.9-0.3C868.3,518.2,868.6,517.6,868.9,516.6z"/>
		<path class="st0" d="M877.9,524l-5.8-1.4l2.3-9.7l5.8,1.4l-0.5,2.1l-3.1-0.7l-0.4,1.5l2.9,0.7l-0.5,2.1l-2.9-0.7l-0.4,1.8l3.1,0.7
			L877.9,524z"/>
		<path class="st0" d="M883.1,521.5l-0.8,3.5l-2.6-0.6l2.3-9.7l3.2,0.8c2.6,0.6,3.7,1.9,3.3,3.8c-0.3,1.1-1,1.9-2.3,2.2l1.8,4.9
			l-3-0.7l-1.2-4L883.1,521.5z M883.6,519.5l0.5,0.1c0.9,0.2,1.5-0.1,1.7-0.9c0.2-0.7-0.2-1.1-1.1-1.3l-0.5-0.1L883.6,519.5z"/>
		<path class="st0" d="M888.7,523.8l0.5-2.1l3.8,0.9l-0.5,2.1L888.7,523.8z"/>
		<path class="st0" d="M895.5,517.9l3.4,0.8c1.3,0.3,2.3,0.7,2.8,1.3c0.5,0.5,0.7,1.2,0.5,2.1c-0.1,0.5-0.4,1-0.7,1.3
			c-0.4,0.3-0.8,0.5-1.3,0.5v0.1c0.6,0.3,0.9,0.7,1.1,1.1c0.2,0.4,0.2,1,0.1,1.5c-0.2,0.9-0.7,1.5-1.5,1.9s-1.7,0.4-2.9,0.1
			l-3.8-0.9L895.5,517.9z M896.8,524.2l-0.5,2l0.9,0.2c0.8,0.2,1.3-0.1,1.5-0.7c0.1-0.3,0-0.6-0.2-0.8s-0.5-0.4-0.9-0.5L896.8,524.2
			z M897.2,522.2l0.8,0.2c0.4,0.1,0.7,0.1,0.9,0s0.4-0.3,0.5-0.6c0.1-0.5-0.2-0.9-1-1.1l-0.7-0.2L897.2,522.2z"/>
		<path class="st0" d="M908.3,531.2v-1.9l-3.2-0.7l-0.9,1.7l-2.9-0.7l5.5-9l3.5,0.8l0.9,10.5L908.3,531.2z M908.3,527v-1.7
			c0-0.4,0-0.9,0-1.5s0-1,0-1.3c-0.1,0.2-0.3,0.6-0.5,1.1s-0.7,1.5-1.5,2.9L908.3,527z"/>
		<path class="st0" d="M919.3,530.7c-0.1,0.6-0.4,1.1-0.8,1.5c-0.4,0.4-0.9,0.7-1.6,0.8c-0.6,0.1-1.3,0.1-2.1-0.1
			c-0.6-0.2-1.2-0.3-1.6-0.5c-0.4-0.2-0.8-0.5-1.3-0.8l0.6-2.3c0.4,0.4,0.9,0.7,1.4,1s1,0.5,1.4,0.6s0.7,0.1,0.9,0s0.3-0.2,0.4-0.5
			c0-0.1,0-0.3,0-0.4c-0.1-0.1-0.1-0.2-0.3-0.4c-0.1-0.1-0.5-0.5-1.1-0.9s-1-0.8-1.2-1.2c-0.3-0.3-0.4-0.7-0.5-1.1
			c-0.1-0.4,0-0.8,0.1-1.3c0.2-0.9,0.7-1.5,1.5-1.9c0.8-0.3,1.7-0.4,2.9-0.1c1,0.2,2,0.7,2.9,1.4l-1.3,1.8c-0.8-0.6-1.5-1-2.2-1.2
			c-0.3-0.1-0.6-0.1-0.8,0s-0.3,0.2-0.3,0.4s0,0.4,0.2,0.6c0.2,0.2,0.6,0.6,1.4,1.2c0.8,0.6,1.2,1.1,1.5,1.6
			C919.4,529.4,919.5,530,919.3,530.7z"/>
		<path class="st0" d="M925.9,535.3l-5.8-1.4l2.3-9.7l5.8,1.4l-0.5,2.1l-3.1-0.7l-0.4,1.5l2.9,0.7l-0.5,2.1l-2.9-0.7l-0.4,1.8
			l3.1,0.7L925.9,535.3z"/>
		<path class="st0" d="M937.1,532.6c-0.4,1.6-1.1,2.8-2.2,3.4c-1.1,0.7-2.5,0.8-4.1,0.4l-3.1-0.7l2.3-9.7l3.4,0.8
			c1.6,0.4,2.7,1.1,3.3,2.1C937.3,529.9,937.4,531.1,937.1,532.6z M934.3,532.1c0.2-0.9,0.2-1.6-0.1-2.1c-0.2-0.5-0.7-0.9-1.5-1
			l-0.8-0.2l-1.3,5.4l0.6,0.1c0.8,0.2,1.4,0.1,1.9-0.3C933.7,533.7,934.1,533,934.3,532.1z"/>
	</g>
</g>
<g>
	<g>
		<g>
			<g>
				<g class="st14">
					<g>
						<polygon class="st28" points="677.7,639.2 678.4,683.7 606.5,683.7 605.8,639.2 						"/>
					</g>
					<g>
						<polygon class="st38" points="677.7,639.2 691.9,624.9 692.6,669.5 678.4,683.7 						"/>
					</g>
					<g>
						<polygon class="st39" points="605.8,639.2 620,624.9 691.9,624.9 677.7,639.2 						"/>
					</g>
				</g>
			</g>
		</g>
		<line class="st31" x1="643.8" y1="635.6" x2="656.4" y2="624.8"/>
		<line class="st32" x1="647.1" y1="631.7" x2="714.6" y2="572.9"/>
		<line class="st33" x1="687.7" y1="560.1" x2="647.1" y2="631.7"/>
		<line class="st33" x1="644.7" y1="573.9" x2="647.1" y2="631.7"/>
		<line class="st33" x1="607.4" y1="571.6" x2="646.9" y2="631"/>
		<line class="st33" x1="573.1" y1="572.9" x2="647.1" y2="630.2"/>
		<g>
			<circle class="st0" cx="646.9" cy="631" r="3.5"/>
			
				<ellipse transform="matrix(-0.3981 -0.9173 0.9173 -0.3981 326.6649 1481.9128)" class="st0" cx="649.5" cy="633.8" rx="5.2" ry="1.8"/>
			
				<ellipse transform="matrix(0.2607 -0.9654 0.9654 0.2607 -134.7977 1092.7678)" class="st0" cx="646.1" cy="634.4" rx="5.2" ry="1.8"/>
		</g>
		<path class="st34" d="M643.6,630"/>
		<g>
			<path class="st35" d="M589.8,564.5c7.2,0,13.5,3.5,17.4,9.5h1.4c3.9-6,10.3-9.5,17.4-9.5c7.2,0,13.5,3.5,17.4,9.5h1.2
				c3.9-6,10.3-9.5,17.4-9.5c7.2,0,13.9,2.9,17.8,8.6l0.6,0.9c3.9-5.7,10.3-9.5,17.4-9.5c7.2,0,13.5,3.5,17.4,9.5h0.7
				c-0.4-40-32.5-71.5-72.1-71.5S572.1,534,571.7,574h0.7C576.3,568,582.6,564.5,589.8,564.5z"/>
			<g>
				<g>
					<defs>
						<path id="SVGID_7_" d="M608.7,573.9c0,0-6.3-50.1,36.7-71.5s-78.5-2.7-78.5-2.7l-13.7,88.9l50.7,3.2L608.7,573.9z"/>
					</defs>
					<clipPath id="SVGID_8_">
						<use xlink:href="#SVGID_7_"  style="overflow:visible;"/>
					</clipPath>
					<path class="st40" d="M589.8,564.5c7.2,0,13.5,3.5,17.4,9.5h1.4c3.9-6,10.3-9.5,17.4-9.5c7.2,0,13.5,3.5,17.4,9.5h1.2
						c3.9-6,10.3-9.5,17.4-9.5c7.2,0,13.5,3.5,17.4,9.5h1c3.9-6,10.3-9.5,17.4-9.5c7.2,0,13.5,3.5,17.4,9.5h0.7
						c-0.4-40-32.5-71.5-72.1-71.5S572.1,534,571.7,574h0.7C576.3,568,582.6,564.5,589.8,564.5z"/>
				</g>
			</g>
			<g>
				<g>
					<defs>
						<path id="SVGID_9_" d="M644.9,573.9l0.3-71.5c-1.1-0.5,42.1,19.4,35.7,71.5c-6.5,52.6-36,49.6-36,49.6V573.9z"/>
					</defs>
					<clipPath id="SVGID_10_">
						<use xlink:href="#SVGID_9_"  style="overflow:visible;"/>
					</clipPath>
					<path class="st41" d="M591.1,564.5c7.2,0,13.5,3.5,17.4,9.5h1.4c3.9-6,10.3-9.5,17.4-9.5c7.2,0,13.5,3.5,17.4,9.5h1.2
						c3.9-6,10.3-9.5,17.4-9.5c7.2,0,13.5,3.5,17.4,9.5h1c3.9-6,10.3-9.5,17.4-9.5c7.2,0,13.5,3.5,17.4,9.5h0.7
						c-0.4-40-32.5-71.5-72.1-71.5S573.4,534,573,574h0.7C577.6,568,584,564.5,591.1,564.5z"/>
				</g>
			</g>
		</g>
	</g>
	<g>
		<path class="st0" d="M590.3,664.3c0,0.6-0.2,1.2-0.5,1.7s-0.8,0.9-1.4,1.1c-0.6,0.3-1.3,0.4-2.1,0.4c-0.7,0-1.2,0-1.7-0.1
			s-0.9-0.3-1.4-0.5v-2.4c0.5,0.3,1.1,0.5,1.6,0.6c0.6,0.1,1.1,0.2,1.5,0.2c0.4,0,0.7-0.1,0.9-0.2c0.2-0.1,0.3-0.3,0.3-0.5
			c0-0.1,0-0.3-0.1-0.4c-0.1-0.1-0.2-0.2-0.4-0.3c-0.2-0.1-0.6-0.3-1.3-0.6s-1.1-0.6-1.5-0.9c-0.3-0.3-0.6-0.6-0.7-1
			c-0.2-0.4-0.2-0.8-0.2-1.3c0-0.9,0.3-1.6,1-2.2c0.7-0.6,1.6-0.8,2.8-0.8c1,0,2.1,0.2,3.2,0.7l-0.8,2.1c-0.9-0.4-1.7-0.6-2.4-0.6
			c-0.4,0-0.6,0.1-0.8,0.2c-0.2,0.1-0.2,0.3-0.2,0.5s0.1,0.4,0.3,0.5c0.2,0.2,0.8,0.4,1.7,0.8c0.9,0.4,1.5,0.8,1.8,1.2
			C590.2,663.1,590.3,663.6,590.3,664.3z"/>
		<path class="st0" d="M601.2,662.3c0,1.7-0.4,3-1.2,3.8s-2,1.3-3.6,1.3c-1.6,0-2.8-0.4-3.6-1.3c-0.8-0.9-1.3-2.2-1.3-3.8
			c0-1.7,0.4-2.9,1.2-3.8c0.8-0.9,2-1.3,3.6-1.3s2.8,0.4,3.6,1.3C600.7,659.4,601.2,660.6,601.2,662.3z M594.4,662.3
			c0,1.9,0.7,2.9,2,2.9c0.7,0,1.2-0.2,1.5-0.7c0.3-0.5,0.5-1.2,0.5-2.2s-0.2-1.7-0.5-2.2c-0.3-0.5-0.8-0.7-1.5-0.7
			C595,659.4,594.4,660.4,594.4,662.3z"/>
		<path class="st0" d="M607.5,659.4c-0.6,0-1.1,0.3-1.5,0.8s-0.5,1.3-0.5,2.2c0,1.9,0.7,2.9,2.2,2.9c0.4,0,0.9-0.1,1.3-0.2
			s0.8-0.3,1.3-0.4v2.3c-0.8,0.4-1.8,0.6-2.8,0.6c-1.5,0-2.7-0.4-3.5-1.3c-0.8-0.9-1.2-2.1-1.2-3.8c0-1,0.2-1.9,0.6-2.7
			c0.4-0.8,1-1.4,1.7-1.8c0.7-0.4,1.6-0.6,2.6-0.6c1.1,0,2.1,0.2,3.1,0.7l-0.8,2.1c-0.4-0.2-0.7-0.3-1.1-0.4
			S607.9,659.4,607.5,659.4z"/>
		<path class="st0" d="M612.1,667.3v-10h2.7v10H612.1z"/>
		<path class="st0" d="M623.1,667.3l-0.5-1.9h-3.2l-0.5,1.9h-3l3.3-10h3.6l3.3,10H623.1z M622.1,663.3l-0.4-1.6
			c-0.1-0.4-0.2-0.8-0.4-1.4c-0.1-0.6-0.2-1-0.3-1.2c0,0.2-0.1,0.6-0.2,1.1c-0.1,0.5-0.4,1.6-0.8,3.2L622.1,663.3L622.1,663.3z"/>
		<path class="st0" d="M627.2,667.3v-10h2.7v7.8h3.8v2.2H627.2z"/>
		<path class="st0" d="M634.5,664.7v-2.1h3.9v2.1H634.5z"/>
		<path class="st0" d="M642.5,663.7v3.6h-2.7v-10h3.3c2.7,0,4.1,1,4.1,3c0,1.2-0.6,2.1-1.7,2.7l2.9,4.4h-3.1l-2.1-3.6h-0.7V663.7z
			 M642.5,661.7h0.5c0.9,0,1.4-0.4,1.4-1.3c0-0.7-0.5-1-1.4-1h-0.5V661.7z"/>
		<path class="st0" d="M655.2,667.3h-5.9v-10h5.9v2.2H652v1.6h3v2.2h-3v1.9h3.2V667.3z"/>
		<path class="st0" d="M656.9,667.3v-10h2.7v7.8h3.8v2.2H656.9z"/>
		<path class="st0" d="M671.2,667.3l-0.5-1.9h-3.2l-0.5,1.9h-3l3.3-10h3.6l3.3,10H671.2z M670.2,663.3l-0.4-1.6
			c-0.1-0.4-0.2-0.8-0.4-1.4c-0.1-0.6-0.2-1-0.3-1.2c0,0.2-0.1,0.6-0.2,1.1s-0.4,1.6-0.8,3.2L670.2,663.3L670.2,663.3z"/>
		<path class="st0" d="M679.6,667.3h-2.7v-7.8h-2.4v-2.2h7.6v2.2h-2.4v7.8H679.6z"/>
		<path class="st0" d="M689.4,667.3h-5.9v-10h5.9v2.2h-3.2v1.6h3v2.2h-3v1.9h3.2V667.3z"/>
		<path class="st0" d="M699.7,662.1c0,1.7-0.5,3-1.4,3.9c-0.9,0.9-2.2,1.4-3.9,1.4h-3.2v-10h3.5c1.6,0,2.8,0.4,3.7,1.2
			C699.2,659.4,699.7,660.6,699.7,662.1z M696.9,662.2c0-0.9-0.2-1.6-0.5-2c-0.4-0.4-0.9-0.7-1.7-0.7h-0.8v5.6h0.6
			c0.8,0,1.4-0.2,1.8-0.7C696.7,663.9,696.9,663.2,696.9,662.2z"/>
	</g>
</g>
<g>
	<g>
		<g>
			<g>
				<g class="st14">
					<g>
						<polygon class="st28" points="1429,584.8 1438.2,628.6 1367.8,642.4 1358.6,598.7 						"/>
					</g>
					<g>
						<polygon class="st42" points="1429,584.8 1443.1,570.6 1452.3,614.3 1438.2,628.6 						"/>
					</g>
					<g>
						<polygon class="st43" points="1358.6,598.7 1372.7,584.4 1443.1,570.6 1429,584.8 						"/>
					</g>
				</g>
			</g>
		</g>
		<line class="st31" x1="1396.5" y1="589.2" x2="1406.9" y2="576.1"/>
		<line class="st32" x1="1399" y1="584.7" x2="1454.1" y2="514"/>
		<line class="st33" x1="1425.1" y1="506.7" x2="1399" y2="584.7"/>
		<line class="st33" x1="1385.6" y1="528.5" x2="1399" y2="584.7"/>
		<line class="st33" x1="1348.6" y1="533.3" x2="1398.7" y2="584"/>
		<line class="st33" x1="1315.1" y1="541.2" x2="1398.7" y2="583.2"/>
		<g>
			<circle class="st0" cx="1398.7" cy="584" r="3.5"/>
			
				<ellipse transform="matrix(-0.5668 -0.8238 0.8238 -0.5668 1713.4971 2073.47)" class="st0" cx="1401.9" cy="586.3" rx="5.2" ry="1.8"/>
			
				<ellipse transform="matrix(7.050233e-02 -0.9975 0.9975 7.050233e-02 713.8513 1941.2726)" class="st0" cx="1398.6" cy="587.6" rx="5.2" ry="1.8"/>
		</g>
		<path class="st34" d="M1395.3,583.7"/>
		<g>
			<path class="st35" d="M1329.9,529.4c7-1.4,14.1,1.8,18.9,6l1.4-0.3c2.9-5.7,8.2-11.3,15.3-12.7c7-1.4,14.1,1.8,18.9,6l1.2-0.2
				c2.9-5.7,8.3-11.1,15.3-12.5s14.2,0.2,19.2,5.1l0.7,0.8c2.7-6.4,8.2-11.4,15.2-12.8c7-1.4,14.1,1.7,18.9,5.8l0.6-0.1
				c-7.9-38.2-45.6-63.9-84.5-56.3c-38.9,7.6-64.2,45.6-57.1,84l0.7-0.1C1317.5,536.4,1322.8,530.8,1329.9,529.4z"/>
			<g>
				<g>
					<defs>
						<path id="SVGID_11_" d="M1350.2,535.4c0,0-15.8-47.9,22.3-77.2c38.1-29.2-77.6,12.4-77.6,12.4l3.6,89.9l50.4-6.6L1350.2,535.4
							z"/>
					</defs>
					<clipPath id="SVGID_12_">
						<use xlink:href="#SVGID_11_"  style="overflow:visible;"/>
					</clipPath>
					<path class="st44" d="M1329.9,529.4c7-1.4,14.1,1.8,18.9,6l1.4-0.3c2.9-5.7,8.2-11.3,15.3-12.7c7-1.4,14.1,1.8,18.9,6l1.2-0.2
						c2.9-5.7,8.2-11.3,15.3-12.7c7-1.4,14.1,1.8,18.9,6l1-0.2c2.9-5.7,8.2-11.3,15.3-12.7c7-1.4,14.1,1.8,18.9,6l0.6-0.1
						c-7.9-38.2-45.6-63.9-84.5-56.3c-38.9,7.6-64.2,45.6-57.1,84l0.7-0.1C1317.5,536.4,1322.8,530.8,1329.9,529.4z"/>
				</g>
			</g>
			<g>
				<g>
					<defs>
						<path id="SVGID_13_" d="M1385.9,528.4l-13.4-70.2c-1.2-0.3,45.1,10.9,48.8,63.3c3.7,52.8-25.8,55.6-25.8,55.6L1385.9,528.4z"
							/>
					</defs>
					<clipPath id="SVGID_14_">
						<use xlink:href="#SVGID_13_"  style="overflow:visible;"/>
					</clipPath>
					<path class="st45" d="M1331.1,529.1c7-1.4,14.1,1.8,18.9,6l1.4-0.3c2.9-5.7,8.2-11.3,15.3-12.7c7-1.4,14.1,1.8,18.9,6l1.2-0.2
						c2.9-5.7,8.2-11.3,15.3-12.7c7-1.4,14.1,1.8,18.9,6l1-0.2c2.9-5.7,8.2-11.3,15.3-12.7c7-1.4,14.1,1.8,18.9,6l0.6-0.1
						c-7.9-38.2-45.6-63.9-84.5-56.3c-38.9,7.6-64.2,45.6-57.1,84l0.7-0.1C1318.8,536.1,1324.1,530.5,1331.1,529.1z"/>
				</g>
			</g>
		</g>
	</g>
	<g>
		<path class="st0" d="M1355.9,627.1l-2-9.8l2.7-0.5l2,9.8L1355.9,627.1z"/>
		<path class="st0" d="M1365,625.3l-3.4-6.6h-0.1c0.3,1.2,0.6,2.1,0.7,2.8l0.9,4.3l-2.3,0.5l-2-9.8l3.5-0.7l3.5,6.5h0.1l0.6-7.4
			l3.5-0.7l2,9.8l-2.4,0.5l-0.9-4.3c0-0.2-0.1-0.5-0.1-0.7c0-0.3-0.2-0.9-0.3-2h-0.1l-0.5,7.4L1365,625.3z"/>
		<path class="st0" d="M1379.7,615.3c0.2,1.1,0.1,2-0.5,2.7c-0.5,0.7-1.4,1.2-2.6,1.5l-0.7,0.2l0.7,3.2l-2.6,0.5l-2-9.8l3.4-0.7
			c1.2-0.3,2.2-0.2,3,0.2C1379.1,613.6,1379.5,614.3,1379.7,615.3z M1375.5,617.5l0.5-0.1c0.4-0.1,0.7-0.3,0.9-0.5
			c0.2-0.3,0.2-0.6,0.2-1c-0.1-0.7-0.6-0.9-1.3-0.8l-0.7,0.1L1375.5,617.5z"/>
		<path class="st0" d="M1384.6,617.6l0.7,3.6l-2.6,0.5l-2-9.8l3.2-0.7c2.7-0.5,4.2,0.2,4.6,2.1c0.2,1.1-0.1,2.1-1.1,3l3.7,3.7
			l-3,0.6l-2.8-3.1L1384.6,617.6z M1384.2,615.6l0.5-0.1c0.9-0.2,1.3-0.7,1.1-1.5c-0.1-0.7-0.7-0.9-1.6-0.7l-0.5,0.1L1384.2,615.6z"
			/>
		<path class="st0" d="M1397.8,618.6l-5.8,1.2l-2-9.8l5.8-1.2l0.4,2.1l-3.2,0.6l0.3,1.5l2.9-0.6l0.4,2.1l-2.9,0.6l0.4,1.8l3.2-0.6
			L1397.8,618.6z"/>
		<path class="st0" d="M1405.3,614c0.1,0.6,0.1,1.2-0.1,1.7s-0.6,1-1.1,1.4s-1.2,0.6-2,0.8c-0.7,0.1-1.2,0.2-1.7,0.2s-1-0.1-1.5-0.2
			l-0.5-2.4c0.6,0.2,1.1,0.3,1.7,0.3c0.6,0,1.1,0,1.5-0.1c0.4-0.1,0.7-0.2,0.8-0.4c0.2-0.2,0.2-0.4,0.2-0.6c0-0.1-0.1-0.2-0.2-0.3
			s-0.2-0.2-0.4-0.2c-0.2-0.1-0.7-0.2-1.4-0.4s-1.2-0.3-1.6-0.6c-0.4-0.2-0.7-0.5-0.9-0.8s-0.4-0.7-0.5-1.2c-0.2-0.9,0-1.7,0.6-2.3
			s1.4-1.1,2.6-1.3c1-0.2,2.1-0.2,3.2,0.1l-0.4,2.2c-1-0.2-1.8-0.3-2.5-0.1c-0.3,0.1-0.6,0.2-0.7,0.3s-0.2,0.3-0.1,0.5
			c0,0.2,0.2,0.3,0.4,0.5c0.2,0.1,0.8,0.3,1.8,0.5c0.9,0.2,1.6,0.5,2,0.9C1404.9,612.8,1405.1,613.3,1405.3,614z"/>
		<path class="st0" d="M1413.2,612.3c0.1,0.6,0.1,1.2-0.1,1.7c-0.2,0.5-0.6,1-1.1,1.4s-1.2,0.6-2,0.8c-0.7,0.1-1.2,0.2-1.7,0.2
			s-1-0.1-1.5-0.2l-0.5-2.4c0.6,0.2,1.1,0.3,1.7,0.3c0.6,0,1.1,0,1.5-0.1c0.4-0.1,0.7-0.2,0.8-0.4c0.2-0.2,0.2-0.4,0.2-0.6
			c0-0.1-0.1-0.2-0.2-0.3c-0.1-0.1-0.2-0.2-0.4-0.2c-0.2-0.1-0.7-0.2-1.4-0.4s-1.2-0.3-1.6-0.6c-0.4-0.2-0.7-0.5-0.9-0.8
			s-0.4-0.7-0.5-1.2c-0.2-0.9,0-1.7,0.6-2.3s1.4-1.1,2.6-1.3c1-0.2,2.1-0.2,3.2,0.1l-0.4,2.2c-1-0.2-1.8-0.3-2.5-0.1
			c-0.3,0.1-0.6,0.2-0.7,0.3c-0.1,0.2-0.2,0.3-0.1,0.5c0,0.2,0.2,0.3,0.4,0.5c0.2,0.1,0.8,0.3,1.8,0.5c0.9,0.2,1.6,0.5,2,0.9
			C1412.8,611.2,1413,611.7,1413.2,612.3z"/>
		<path class="st0" d="M1415.3,615l-2-9.8l2.7-0.5l2,9.8L1415.3,615z"/>
		<path class="st0" d="M1428.2,607.3c0.3,1.6,0.2,3-0.4,4c-0.6,1-1.7,1.7-3.3,2c-1.5,0.3-2.8,0.1-3.8-0.6c-1-0.7-1.7-1.9-2-3.5
			c-0.3-1.6-0.2-3,0.5-4c0.6-1,1.7-1.7,3.3-2s2.8-0.1,3.8,0.6S1427.9,605.6,1428.2,607.3z M1421.5,608.6c0.4,1.9,1.2,2.7,2.6,2.4
			c0.7-0.1,1.1-0.5,1.3-1c0.2-0.5,0.2-1.3,0-2.2c-0.2-1-0.5-1.7-0.9-2.1c-0.4-0.4-1-0.5-1.6-0.4
			C1421.6,605.6,1421.1,606.7,1421.5,608.6z"/>
		<path class="st0" d="M1440.3,609.9l-3.5,0.7l-5-6.2h-0.1c0.3,1.1,0.5,1.9,0.6,2.5l0.9,4.4l-2.3,0.5l-2-9.8l3.5-0.7l5,6.1l0,0
			c-0.3-1-0.5-1.8-0.6-2.4l-0.9-4.4l2.4-0.5L1440.3,609.9z"/>
		<path class="st0" d="M1448.2,605.2c0.1,0.6,0.1,1.2-0.1,1.7c-0.2,0.5-0.6,1-1.1,1.4s-1.2,0.6-2,0.8c-0.7,0.1-1.2,0.2-1.7,0.2
			s-1-0.1-1.5-0.2l-0.5-2.4c0.6,0.2,1.1,0.3,1.7,0.3c0.6,0,1.1,0,1.5-0.1c0.4-0.1,0.7-0.2,0.8-0.4c0.2-0.2,0.2-0.4,0.2-0.6
			c0-0.1-0.1-0.2-0.2-0.3c-0.1-0.1-0.2-0.2-0.4-0.2c-0.2-0.1-0.7-0.2-1.4-0.4s-1.2-0.3-1.6-0.6c-0.4-0.2-0.7-0.5-0.9-0.8
			s-0.4-0.7-0.5-1.2c-0.2-0.9,0-1.7,0.6-2.3s1.4-1.1,2.6-1.3c1-0.2,2.1-0.2,3.2,0.1l-0.4,2.2c-1-0.2-1.8-0.3-2.5-0.1
			c-0.3,0.1-0.6,0.2-0.7,0.3c-0.1,0.2-0.2,0.3-0.1,0.5c0,0.2,0.2,0.3,0.4,0.5s0.8,0.3,1.8,0.5c0.9,0.2,1.6,0.5,2,0.9
			C1447.8,604,1448.1,604.5,1448.2,605.2z"/>
	</g>
</g>
<g>
	<g>
		<g>
			<g>
				<g class="st14">
					<g>
						<polygon class="st28" points="1516.8,411.5 1585.9,432.4 1573.6,475 1504.5,454.1 						"/>
					</g>
					<g>
						<polygon class="st46" points="1516.8,411.5 1530.9,397.3 1600,418.1 1585.9,432.4 						"/>
					</g>
					<g>
						<polygon class="st47" points="1585.9,432.4 1600,418.1 1587.8,460.8 1573.6,475 						"/>
					</g>
				</g>
			</g>
		</g>
		<line class="st31" x1="1552.5" y1="416.7" x2="1567.7" y2="410"/>
		<line class="st32" x1="1556.8" y1="413.9" x2="1638.5" y2="377.3"/>
		<line class="st33" x1="1616.4" y1="357.2" x2="1556.8" y2="413.9"/>
		<line class="st33" x1="1571.3" y1="357.9" x2="1556.8" y2="413.9"/>
		<line class="st33" x1="1536.3" y1="344.8" x2="1556.8" y2="413.2"/>
		<line class="st33" x1="1503" y1="336.2" x2="1557.2" y2="412.5"/>
		<g>
			<circle class="st0" cx="1556.8" cy="413.2" r="3.5"/>
			
				<ellipse transform="matrix(-0.1148 -0.9934 0.9934 -0.1148 1323.6025 2012.6331)" class="st0" cx="1558.5" cy="416.6" rx="5.2" ry="1.8"/>
			
				<ellipse transform="matrix(0.5296 -0.8482 0.8482 0.5296 378.4588 1514.7373)" class="st0" cx="1555" cy="416.1" rx="5.2" ry="1.8"/>
		</g>
		<path class="st34" d="M1554,411.3"/>
		<g>
			<path class="st35" d="M1521.6,332.6c6.8,2.1,11.6,8.2,13.9,14.1l1.4,0.4c5.2-3.6,12.6-6.1,19.4-4s11.6,8.2,13.9,14.1l1.2,0.4
				c5.2-3.6,12.5-5.9,19.4-3.9c6.8,2.1,12.5,6.9,14.5,13.5l0.3,1c5.4-4.4,12.6-6.2,19.5-4.2c6.8,2.1,11.6,8.1,13.9,14l0.6,0.2
				c11-37.4-10.4-77.8-48.3-89.3s-78.1,10.2-89.8,47.5l0.6,0.2C1507.4,333,1514.7,330.5,1521.6,332.6z"/>
			<g>
				<g>
					<defs>
						<path id="SVGID_15_" d="M1536.8,347.5c0,0,8.5-49.8,55.8-57.7c47.3-8-74.3-25.4-74.3-25.4l-38.9,81.1l47.6,17.8L1536.8,347.5z
							"/>
					</defs>
					<clipPath id="SVGID_16_">
						<use xlink:href="#SVGID_15_"  style="overflow:visible;"/>
					</clipPath>
					<path class="st48" d="M1521.6,332.6c6.8,2.1,11.6,8.2,13.9,14.1l1.4,0.4c5.2-3.6,12.6-6.1,19.4-4s11.6,8.2,13.9,14.1l1.2,0.4
						c5.2-3.6,12.6-6.1,19.4-4s11.6,8.2,13.9,14.1l1,0.3c5.2-3.6,12.6-6.1,19.4-4s11.6,8.2,13.9,14.1l0.6,0.2
						c11-37.4-10.4-77.8-48.3-89.3s-78.1,10.2-89.8,47.5l0.6,0.2C1507.4,333,1514.7,330.5,1521.6,332.6z"/>
				</g>
			</g>
			<g>
				<g>
					<defs>
						<path id="SVGID_17_" d="M1571.1,357.9l21.2-68.2c-0.9-0.8,34.6,30.8,13.3,78.7c-21.5,48.4-49,37-49,37L1571.1,357.9z"/>
					</defs>
					<clipPath id="SVGID_18_">
						<use xlink:href="#SVGID_17_"  style="overflow:visible;"/>
					</clipPath>
					<path class="st49" d="M1522.8,333c6.8,2.1,11.6,8.2,13.9,14.1l1.4,0.4c5.2-3.6,12.6-6.1,19.4-4s11.6,8.2,13.9,14.1l1.2,0.4
						c5.2-3.6,12.6-6.1,19.4-4s11.6,8.2,13.9,14.1l1,0.3c5.2-3.6,12.6-6.1,19.4-4s11.6,8.2,13.9,14.1l0.6,0.2
						c11-37.4-10.4-77.8-48.3-89.3s-78.1,10.2-89.8,47.5l0.6,0.2C1508.6,333.4,1516,330.9,1522.8,333z"/>
				</g>
			</g>
		</g>
	</g>
	<g>
		<path class="st0" d="M1497,427.4c-0.2,0.6-0.5,1.1-1,1.4c-0.5,0.3-1.1,0.5-1.8,0.5l0,0c1.6,0.6,2.2,1.6,1.8,2.9
			c-0.2,0.9-0.8,1.5-1.6,1.8c-0.8,0.3-1.9,0.3-3.2,0c-0.5-0.1-1-0.3-1.4-0.5s-0.9-0.5-1.3-0.8l0.6-2.2c0.4,0.3,0.8,0.6,1.2,0.8
			c0.4,0.2,0.8,0.4,1.2,0.5c0.6,0.2,1,0.2,1.3,0.1s0.5-0.3,0.6-0.7c0.1-0.3,0.1-0.5,0-0.7s-0.3-0.3-0.6-0.5
			c-0.3-0.2-0.7-0.3-1.2-0.4l-0.6-0.2l0.5-2l0.6,0.2c1.3,0.4,2.1,0.2,2.3-0.5c0.1-0.3,0-0.5-0.1-0.6c-0.2-0.2-0.4-0.3-0.7-0.4
			c-0.6-0.2-1.3-0.1-2.1,0.1l-0.6-2c0.6-0.2,1.2-0.3,1.8-0.3c0.6,0,1.2,0.1,1.9,0.3c1,0.3,1.7,0.7,2.2,1.2S1497.2,426.7,1497,427.4z
			"/>
		<path class="st0" d="M1500.4,432.6l-0.9,3.5l-2.6-0.7l2.6-9.7l3.2,0.8c2.6,0.7,3.7,2,3.2,3.9c-0.3,1.1-1.1,1.8-2.3,2.2l1.7,5
			l-3-0.8l-1.1-4.1L1500.4,432.6z M1500.9,430.7l0.5,0.1c0.9,0.2,1.5,0,1.7-0.8c0.2-0.7-0.2-1.1-1.1-1.4l-0.5-0.1L1500.9,430.7z"/>
		<path class="st0" d="M1515.6,435c-0.4,1.6-1.2,2.7-2.3,3.4c-1.1,0.6-2.5,0.7-4.1,0.3l-3.1-0.8l2.6-9.7l3.3,0.9
			c1.6,0.4,2.6,1.1,3.3,2.1C1515.8,432.3,1516,433.5,1515.6,435z M1512.8,434.4c0.2-0.9,0.2-1.6,0-2.1s-0.7-0.9-1.4-1.1l-0.8-0.2
			l-1.4,5.4l0.6,0.2c0.8,0.2,1.4,0.1,1.9-0.2C1512.2,436,1512.6,435.3,1512.8,434.4z"/>
		<path class="st0" d="M1528.2,436.7c-0.3,1.1-0.8,1.8-1.6,2.2c-0.8,0.4-1.8,0.5-2.9,0.2l-0.7-0.2l-0.8,3.2l-2.6-0.7l2.6-9.7
			l3.3,0.9c1.2,0.3,2.1,0.8,2.5,1.5C1528.4,434.9,1528.5,435.7,1528.2,436.7z M1523.5,436.8l0.5,0.1c0.4,0.1,0.7,0.1,1-0.1
			c0.3-0.2,0.5-0.4,0.6-0.8c0.2-0.7-0.1-1.1-0.8-1.3l-0.7-0.2L1523.5,436.8z"/>
		<path class="st0" d="M1534,445.3v-1.9l-3.1-0.8l-1,1.7l-2.9-0.8l5.7-8.9l3.5,0.9l0.6,10.5L1534,445.3z M1534,441v-1.7
			c0-0.4,0-0.9,0-1.5s0-1,0-1.3c-0.1,0.2-0.3,0.6-0.5,1c-0.3,0.5-0.8,1.4-1.6,2.8L1534,441z"/>
		<path class="st0" d="M1541.4,443.5l-0.9,3.5l-2.6-0.7l2.6-9.7l3.2,0.8c2.6,0.7,3.7,2,3.2,3.9c-0.3,1.1-1.1,1.8-2.3,2.2l1.7,5
			l-3-0.8l-1.1-4.1L1541.4,443.5z M1541.9,441.5l0.5,0.1c0.9,0.2,1.5,0,1.7-0.8c0.2-0.7-0.2-1.1-1.1-1.4l-0.5-0.1L1541.9,441.5z"/>
		<path class="st0" d="M1551.3,449.8l-2.6-0.7l2-7.5l-2.4-0.6l0.6-2.1l7.3,1.9l-0.6,2.1l-2.4-0.6L1551.3,449.8z"/>
		<path class="st0" d="M1560.1,445.6l2.6-3.1l2.8,0.7l-4.7,5l-1,3.8l-2.6-0.7l1-3.7l-1.6-6.8l2.8,0.8L1560.1,445.6z"/>
		<path class="st0" d="M1573.9,447.6c-0.6-0.2-1.2,0-1.7,0.4s-0.8,1.1-1.1,2c-0.5,1.9,0,3,1.4,3.4c0.4,0.1,0.9,0.2,1.3,0.1
			c0.4,0,0.9,0,1.3-0.1l-0.6,2.2c-0.9,0.1-1.9,0.1-2.9-0.2c-1.5-0.4-2.5-1.1-3-2.2c-0.6-1.1-0.6-2.4-0.2-4c0.3-1,0.7-1.8,1.3-2.5
			c0.6-0.7,1.3-1.1,2.1-1.3c0.8-0.2,1.7-0.2,2.7,0c1,0.3,2,0.8,2.8,1.5l-1.3,1.8c-0.3-0.3-0.6-0.5-1-0.7S1574.3,447.7,1573.9,447.6z
			"/>
		<path class="st0" d="M1576.3,456.4l2.6-9.7l2.6,0.7l-2,7.6l3.7,1l-0.6,2.1L1576.3,456.4z"/>
		<path class="st0" d="M1584.2,458.5l2.6-9.7l2.6,0.7l-2.6,9.7L1584.2,458.5z"/>
		<path class="st0" d="M1595.2,453.2c-0.6-0.2-1.2,0-1.7,0.4s-0.8,1.1-1.1,2c-0.5,1.9,0,3,1.4,3.3c0.4,0.1,0.9,0.2,1.3,0.1
			s0.9,0,1.3-0.1l-0.6,2.2c-0.9,0.1-1.9,0.1-2.9-0.2c-1.5-0.4-2.5-1.1-3-2.2c-0.6-1.1-0.6-2.4-0.2-4c0.3-1,0.7-1.8,1.3-2.5
			c0.6-0.7,1.3-1.1,2.1-1.3c0.8-0.2,1.7-0.2,2.7,0c1,0.3,2,0.8,2.8,1.5l-1.3,1.8c-0.3-0.3-0.6-0.5-1-0.7
			C1596,453.5,1595.6,453.3,1595.2,453.2z"/>
		<path class="st0" d="M1605.9,464.3l-2.9-0.8l-0.9-4.2l-0.9,0.3l-0.9,3.2l-2.6-0.7l2.6-9.7l2.6,0.7l-1.1,4.2c0.2-0.2,0.6-0.6,1.1-1
			l2.8-2.4l2.9,0.8l-4.2,3.5L1605.9,464.3z"/>
		<path class="st0" d="M1614.1,463.3c-0.2,0.6-0.5,1.1-0.9,1.5s-1,0.6-1.6,0.7c-0.6,0.1-1.3,0.1-2.1-0.1c-0.6-0.2-1.2-0.4-1.6-0.6
			c-0.4-0.2-0.8-0.5-1.2-0.8l0.6-2.3c0.4,0.4,0.9,0.7,1.4,1s1,0.5,1.4,0.6s0.7,0.1,0.9,0c0.2-0.1,0.4-0.2,0.4-0.4c0-0.1,0-0.3,0-0.4
			c0-0.1-0.1-0.2-0.3-0.4c-0.1-0.1-0.5-0.5-1.1-1s-1-0.9-1.2-1.2c-0.2-0.4-0.4-0.7-0.5-1.1c-0.1-0.4,0-0.8,0.1-1.3
			c0.2-0.9,0.7-1.5,1.5-1.8s1.7-0.3,2.9,0c1,0.3,2,0.8,2.9,1.5l-1.3,1.8c-0.8-0.7-1.5-1.1-2.2-1.2c-0.3-0.1-0.6-0.1-0.8,0
			c-0.2,0.1-0.3,0.2-0.3,0.4s0,0.4,0.2,0.6c0.2,0.2,0.6,0.6,1.4,1.2c0.7,0.6,1.2,1.1,1.4,1.7C1614.2,462,1614.3,462.6,1614.1,463.3z
			"/>
	</g>
</g>
<g>
	<g>
		<g>
			<g>
				<g class="st14">
					<g>
						<polygon class="st28" points="1707.8,286.3 1778.5,300.5 1770.4,344.1 1699.7,330 						"/>
					</g>
					<g>
						<polygon class="st50" points="1707.8,286.3 1721.9,272.1 1792.6,286.2 1778.5,300.5 						"/>
					</g>
					<g>
						<polygon class="st51" points="1778.5,300.5 1792.6,286.2 1784.5,329.9 1770.4,344.1 						"/>
					</g>
				</g>
			</g>
		</g>
		<line class="st31" x1="1744.5" y1="288.7" x2="1759" y2="280.6"/>
		<line class="st32" x1="1748.5" y1="285.5" x2="1826.3" y2="241.2"/>
		<line class="st33" x1="1802.4" y1="223.3" x2="1748.5" y2="285.5"/>
		<line class="st33" x1="1757.5" y1="228.4" x2="1748.5" y2="285.5"/>
		<line class="st33" x1="1721.5" y1="218.7" x2="1748.5" y2="284.8"/>
		<line class="st33" x1="1687.5" y1="213.4" x2="1748.8" y2="284"/>
		<g>
			<circle class="st0" cx="1748.5" cy="284.8" r="3.5"/>
			
				<ellipse transform="matrix(-0.2099 -0.9777 0.9777 -0.2099 1836.2322 2059.991)" class="st0" cx="1750.5" cy="288.1" rx="5.2" ry="1.8"/>
			
				<ellipse transform="matrix(0.4455 -0.8953 0.8953 0.4455 710.809 1723.7734)" class="st0" cx="1747" cy="288.1" rx="5.2" ry="1.8"/>
		</g>
		<path class="st34" d="M1745.5,283.2"/>
		<g>
			<path class="st35" d="M1705.6,208.4c7,1.4,12.5,6.1,15.2,12.7l1.4,0.3c5-5.1,11.9-7.3,18.9-5.9s12.5,6.1,15.2,12.7l1.2,0.2
				c5-5.1,11.9-7.3,18.9-5.9s13.1,5.5,15.8,11.9l0.4,1c5-4.9,11.9-7.3,18.9-5.8c7,1.4,12.5,6.1,15.2,12.8l0.6,0.1
				c7.5-39.3-17.8-76.5-56.7-84.3c-38.8-7.8-76.6,16.7-84.8,55.9l0.7,0.1C1691.7,209.2,1698.6,207,1705.6,208.4z"/>
			<g>
				<g>
					<defs>
						<path id="SVGID_19_" d="M1722.2,221.3c0,0,3.7-50.4,50-62.8s-76.4-18.1-76.4-18.1l-30.9,84.5L1714,238L1722.2,221.3z"/>
					</defs>
					<clipPath id="SVGID_20_">
						<use xlink:href="#SVGID_19_"  style="overflow:visible;"/>
					</clipPath>
					<path class="st52" d="M1705.6,208.4c7,1.4,12.5,6.1,15.2,12.7l1.4,0.3c5-5.1,11.9-7.3,18.9-5.9s12.5,6.1,15.2,12.7l1.2,0.2
						c5-5.1,11.9-7.3,18.9-5.9s12.5,6.1,15.2,12.7l1,0.2c5-5.1,11.9-7.3,18.9-5.9s12.5,6.1,15.2,12.7l0.6,0.1
						c7.5-39.3-17.8-76.5-56.7-84.3c-38.8-7.8-76.6,16.7-84.8,55.9l0.7,0.1C1691.7,209.2,1698.6,207,1705.6,208.4z"/>
				</g>
			</g>
			<g>
				<g>
					<defs>
						<path id="SVGID_21_" d="M1757.8,228.5l14.4-70c-1-0.7,37.5,27.3,20.9,77.1c-16.7,50.3-45.1,41.6-45.1,41.6L1757.8,228.5z"/>
					</defs>
					<clipPath id="SVGID_22_">
						<use xlink:href="#SVGID_21_"  style="overflow:visible;"/>
					</clipPath>
					<path class="st53" d="M1706.9,208.7c7,1.4,12.5,6.1,15.2,12.7l1.4,0.3c5-5.1,11.9-7.3,18.9-5.9s12.5,6.1,15.2,12.7l1.2,0.2
						c5-5.1,11.9-7.3,18.9-5.9s12.5,6.1,15.2,12.7l1,0.2c5-5.1,11.9-7.3,18.9-5.9s12.5,6.1,15.2,12.7l0.6,0.1
						c7.5-39.3-17.8-76.5-56.7-84.3s-76.6,16.7-84.8,55.9l0.7,0.1C1692.9,209.4,1699.8,207.3,1706.9,208.7z"/>
				</g>
			</g>
		</g>
	</g>
	<g>
		<path class="st0" d="M1697.6,303.4l-0.2-1.9l-3.2-0.6l-0.8,1.8l-2.9-0.5l4.9-9.3l3.5,0.6l1.5,10.5L1697.6,303.4z M1697.3,299.2
			l-0.1-1.7c0-0.4-0.1-0.9-0.1-1.5s-0.1-1-0.1-1.3c-0.1,0.2-0.2,0.6-0.4,1.1c-0.2,0.5-0.7,1.5-1.3,3L1697.3,299.2z"/>
		<path class="st0" d="M1704.9,301l-0.6,3.6l-2.7-0.5l1.7-9.8l3.2,0.6c2.7,0.5,3.8,1.7,3.5,3.6c-0.2,1.1-0.9,1.9-2.1,2.4l2.1,4.8
			l-3-0.5l-1.5-3.9L1704.9,301z M1705.3,299l0.5,0.1c0.9,0.2,1.5-0.2,1.6-1c0.1-0.7-0.3-1.1-1.2-1.3l-0.5-0.1L1705.3,299z"/>
		<path class="st0" d="M1715.3,306.5l-2.7-0.5l1.3-7.7l-2.4-0.4l0.4-2.2l7.5,1.3l-0.4,2.2l-2.4-0.4L1715.3,306.5z"/>
		<path class="st0" d="M1719.1,307.2l1.7-9.8l2.7,0.5l-1.7,9.8L1719.1,307.2z"/>
		<path class="st0" d="M1729.6,301c-0.6-0.1-1.2,0.1-1.6,0.5c-0.4,0.5-0.7,1.1-0.9,2.1c-0.3,1.9,0.2,3,1.7,3.2
			c0.4,0.1,0.9,0.1,1.3,0c0.4,0,0.9-0.1,1.3-0.2l-0.4,2.2c-0.9,0.2-1.8,0.2-2.9,0.1c-1.5-0.3-2.6-0.9-3.2-1.9s-0.8-2.3-0.5-3.9
			c0.2-1,0.5-1.9,1-2.6s1.2-1.2,2-1.5s1.7-0.4,2.7-0.2c1.1,0.2,2,0.6,2.9,1.2l-1.2,2c-0.3-0.2-0.7-0.4-1-0.6S1730.1,301,1729.6,301z
			"/>
		<path class="st0" d="M1732.9,309.6l1.7-9.8l2.7,0.5l-1.3,7.7l3.8,0.7l-0.4,2.1L1732.9,309.6z"/>
		<path class="st0" d="M1746.7,312l-5.8-1l1.7-9.8l5.8,1l-0.4,2.1l-3.2-0.6l-0.3,1.5l3,0.5l-0.4,2.1l-3-0.5l-0.3,1.9l3.2,0.6
			L1746.7,312z"/>
		<path class="st0" d="M1755.2,303.1l-5.4,9.5l-2.3-0.4l5.4-9.5L1755.2,303.1z"/>
		<path class="st0" d="M1762.9,307.8c-0.2,1.1-0.7,1.9-1.4,2.4c-0.8,0.5-1.7,0.6-2.9,0.4l-0.7-0.1l-0.6,3.3l-2.7-0.5l1.7-9.8
			l3.4,0.6c1.2,0.2,2.1,0.6,2.7,1.3C1762.9,306,1763,306.8,1762.9,307.8z M1758.2,308.4l0.5,0.1c0.4,0.1,0.7,0,1-0.2
			s0.4-0.5,0.5-0.9c0.1-0.7-0.2-1.1-0.9-1.2l-0.7-0.1L1758.2,308.4z"/>
		<path class="st0" d="M1773.3,311.5c-0.3,1.7-0.9,2.8-1.9,3.6c-1,0.7-2.2,0.9-3.8,0.7c-1.5-0.3-2.7-0.9-3.3-1.9s-0.9-2.3-0.6-4
			c0.3-1.6,0.9-2.8,1.9-3.5s2.2-0.9,3.8-0.7c1.6,0.3,2.7,0.9,3.3,1.9C1773.4,308.5,1773.6,309.8,1773.3,311.5z M1766.6,310.3
			c-0.3,1.9,0.2,3,1.5,3.2c0.7,0.1,1.2,0,1.6-0.4s0.7-1.1,0.9-2.1c0.2-1,0.1-1.7-0.1-2.3c-0.2-0.5-0.7-0.8-1.4-1
			C1767.7,307.6,1766.9,308.4,1766.6,310.3z"/>
		<path class="st0" d="M1781.2,314.9c-0.1,0.6-0.4,1.1-0.7,1.5c-0.4,0.4-0.9,0.7-1.5,0.9c-0.6,0.2-1.3,0.2-2.1,0
			c-0.7-0.1-1.2-0.3-1.6-0.4c-0.4-0.2-0.9-0.4-1.3-0.7l0.4-2.4c0.5,0.3,1,0.6,1.5,0.9c0.5,0.2,1,0.4,1.5,0.5
			c0.4,0.1,0.7,0.1,0.9-0.1c0.2-0.1,0.3-0.3,0.4-0.5c0-0.1,0-0.3,0-0.4c-0.1-0.1-0.2-0.2-0.3-0.4c-0.1-0.1-0.5-0.4-1.2-0.9
			c-0.6-0.4-1-0.8-1.3-1.1c-0.3-0.3-0.5-0.7-0.5-1.1c-0.1-0.4-0.1-0.8,0-1.3c0.2-0.9,0.6-1.6,1.4-1.9c0.7-0.4,1.7-0.5,2.9-0.3
			c1,0.2,2,0.6,3,1.2l-1.2,1.9c-0.8-0.6-1.6-0.9-2.3-1c-0.3-0.1-0.6,0-0.8,0.1c-0.2,0.1-0.3,0.2-0.3,0.4c0,0.2,0,0.4,0.2,0.6
			s0.7,0.6,1.5,1.1s1.3,1,1.6,1.5C1781.3,313.6,1781.3,314.2,1781.2,314.9z"/>
		<path class="st0" d="M1786.6,318.9l-2.7-0.5l1.3-7.7l-2.4-0.4l0.4-2.2l7.5,1.3l-0.4,2.2l-2.4-0.4L1786.6,318.9z"/>
		<path class="st0" d="M1695.8,313.3c-0.2,1.1-0.7,1.9-1.4,2.4c-0.8,0.5-1.7,0.6-2.9,0.4l-0.7-0.1l-0.6,3.3l-2.7-0.5l1.7-9.8
			l3.4,0.6c1.2,0.2,2.1,0.6,2.7,1.3C1695.8,311.4,1696,312.3,1695.8,313.3z M1691.1,313.8l0.5,0.1c0.4,0.1,0.7,0,1-0.2
			s0.4-0.5,0.5-0.9c0.1-0.7-0.2-1.1-0.9-1.2l-0.7-0.1L1691.1,313.8z"/>
		<path class="st0" d="M1702.1,321.3l-5.8-1l1.7-9.8l5.8,1l-0.4,2.1l-3.2-0.6l-0.3,1.5l3,0.5l-0.4,2.1l-2.9-0.5l-0.3,1.9l3.2,0.6
			L1702.1,321.3z"/>
		<path class="st0" d="M1707.1,318.4l-0.6,3.6l-2.7-0.5l1.7-9.8l3.2,0.6c2.7,0.5,3.8,1.7,3.5,3.6c-0.2,1.1-0.9,1.9-2.1,2.4l2.1,4.8
			l-3-0.5l-1.5-3.9L1707.1,318.4z M1707.4,316.4l0.5,0.1c0.9,0.2,1.5-0.2,1.6-1c0.1-0.7-0.3-1.1-1.2-1.3l-0.5-0.1L1707.4,316.4z"/>
		<path class="st0" d="M1715.8,323.6l-2.6-0.5l1.7-9.8l5.8,1l-0.4,2.1l-3.2-0.6l-0.3,1.9l2.9,0.5l-0.4,2.1l-2.9-0.5L1715.8,323.6z"
			/>
		<path class="st0" d="M1730.7,321.1c-0.3,1.7-0.9,2.8-1.9,3.6c-1,0.7-2.2,0.9-3.8,0.7c-1.5-0.3-2.7-0.9-3.3-1.9
			c-0.7-1-0.9-2.3-0.6-4c0.3-1.6,0.9-2.8,1.9-3.5s2.2-0.9,3.8-0.7c1.6,0.3,2.7,0.9,3.3,1.9C1730.8,318.1,1730.9,319.5,1730.7,321.1z
			 M1723.9,320c-0.3,1.9,0.2,3,1.5,3.2c0.7,0.1,1.2,0,1.6-0.4s0.7-1.1,0.9-2.1c0.2-1,0.1-1.7-0.1-2.3c-0.2-0.5-0.7-0.8-1.4-1
			C1725,317.2,1724.2,318,1723.9,320z"/>
		<path class="st0" d="M1734.9,323.3l-0.6,3.6l-2.7-0.5l1.7-9.8l3.2,0.6c2.7,0.5,3.8,1.7,3.5,3.6c-0.2,1.1-0.9,1.9-2.1,2.4l2.1,4.8
			l-3-0.5l-1.5-3.9L1734.9,323.3z M1735.2,321.3l0.5,0.1c0.9,0.2,1.5-0.2,1.6-1c0.1-0.7-0.3-1.1-1.2-1.3l-0.5-0.1L1735.2,321.3z"/>
		<path class="st0" d="M1745.2,328.8l-0.8-7.4h-0.1c-0.1,1.2-0.2,2.2-0.3,2.8l-0.7,4.3l-2.4-0.4l1.7-9.8l3.5,0.6l0.8,7.3h0.1
			l3.2-6.6l3.5,0.6l-1.7,9.8l-2.4-0.4l0.8-4.3c0-0.2,0.1-0.5,0.1-0.7c0.1-0.3,0.2-0.9,0.4-2h-0.1l-3.2,6.7L1745.2,328.8z"/>
		<path class="st0" d="M1760.3,331.4l-0.2-1.9l-3.2-0.6l-0.8,1.8l-2.9-0.5l4.9-9.3l3.5,0.6l1.5,10.5L1760.3,331.4z M1760,327.2
			l-0.1-1.7c0-0.4-0.1-0.9-0.1-1.5s-0.1-1-0.1-1.3c-0.1,0.2-0.2,0.6-0.4,1.1c-0.2,0.5-0.7,1.5-1.3,3L1760,327.2z"/>
		<path class="st0" d="M1773.6,333.7l-3.5-0.6l-2.4-7.6h-0.1c-0.1,1.1-0.2,1.9-0.3,2.5l-0.8,4.4l-2.4-0.4l1.7-9.8l3.5,0.6l2.4,7.5
			l0,0c0.1-1,0.2-1.8,0.3-2.4l0.8-4.5l2.4,0.4L1773.6,333.7z"/>
		<path class="st0" d="M1781.5,327c-0.6-0.1-1.2,0.1-1.6,0.5c-0.4,0.5-0.7,1.1-0.9,2.1c-0.3,1.9,0.2,3,1.7,3.2
			c0.4,0.1,0.9,0.1,1.3,0s0.9-0.1,1.3-0.2l-0.4,2.2c-0.9,0.2-1.8,0.2-2.9,0.1c-1.5-0.3-2.6-0.9-3.2-1.9s-0.8-2.3-0.5-3.9
			c0.2-1,0.5-1.9,1-2.6s1.2-1.2,2-1.5s1.7-0.3,2.7-0.2c1.1,0.2,2,0.6,2.9,1.2l-1.2,2c-0.3-0.2-0.7-0.4-1-0.6
			C1782.3,327.2,1781.9,327.1,1781.5,327z"/>
		<path class="st0" d="M1790.6,336.6l-5.8-1l1.7-9.8l5.8,1l-0.4,2.1l-3.2-0.6l-0.3,1.5l2.9,0.5l-0.4,2.1l-2.9-0.5l-0.3,1.9l3.2,0.6
			L1790.6,336.6z"/>
	</g>
</g>
<g>
	<g>
		<g>
			<g>
				<g class="st14">
					<g>
						<polygon class="st28" points="1887.7,595.4 1897,639.1 1826.6,653 1817.3,609.4 						"/>
					</g>
					<g>
						<polygon class="st42" points="1887.7,595.4 1901.8,581.1 1911.1,624.8 1897,639.1 						"/>
					</g>
					<g>
						<polygon class="st43" points="1817.3,609.4 1831.5,595.1 1901.8,581.1 1887.7,595.4 						"/>
					</g>
				</g>
			</g>
		</g>
		<line class="st31" x1="1855.3" y1="599.8" x2="1865.5" y2="586.7"/>
		<line class="st32" x1="1857.8" y1="595.3" x2="1912.6" y2="524.6"/>
		<line class="st33" x1="1883.7" y1="517.2" x2="1857.8" y2="595.3"/>
		<line class="st33" x1="1844.2" y1="539.1" x2="1857.8" y2="595.3"/>
		<line class="st33" x1="1807.2" y1="544" x2="1857.5" y2="594.7"/>
		<line class="st33" x1="1773.8" y1="552" x2="1857.5" y2="593.8"/>
		<g>
			<circle class="st0" cx="1857.5" cy="594.7" r="3.5"/>
			
				<ellipse transform="matrix(-0.5685 -0.8227 0.8227 -0.5685 2427.2834 2467.093)" class="st0" cx="1860.6" cy="597" rx="5.2" ry="1.8"/>
			
				<ellipse transform="matrix(6.840806e-02 -0.9977 0.9977 6.840806e-02 1133.4781 2410.3167)" class="st0" cx="1857.4" cy="598.2" rx="5.2" ry="1.8"/>
		</g>
		<path class="st34" d="M1854,594.3"/>
		<g>
			<path class="st35" d="M1788.5,540.6c7-1.4,13.9,0.8,18.9,5.9l1.4-0.3c2.7-6.6,8.2-11.3,15.2-12.7s13.9,0.8,18.9,5.9l1.2-0.2
				c2.7-6.6,8.2-11.4,15.2-12.7c7-1.4,14.2,0.1,19.2,5l0.7,0.7c2.7-6.4,8.2-11.2,15.2-12.6c7-1.4,13.9,0.9,18.9,6l0.6-0.1
				c-8.1-39.2-45.8-63.8-84.6-56.1c-38.9,7.7-64.3,44.8-56.9,84.1l0.7-0.1C1776,546.6,1781.5,542,1788.5,540.6z"/>
			<g>
				<g>
					<defs>
						<path id="SVGID_23_" d="M1808.9,546.1c0,0-15.9-47.9,22.1-77.2s-77.5,12.6-77.5,12.6l3.8,89.9l50.3-6.7L1808.9,546.1z"/>
					</defs>
					<clipPath id="SVGID_24_">
						<use xlink:href="#SVGID_23_"  style="overflow:visible;"/>
					</clipPath>
					<path class="st54" d="M1788.5,540.6c7-1.4,13.9,0.8,18.9,5.9l1.4-0.3c2.7-6.6,8.2-11.3,15.2-12.7s13.9,0.8,18.9,5.9l1.2-0.2
						c2.7-6.6,8.2-11.3,15.2-12.7s13.9,0.8,18.9,5.9l1-0.2c2.7-6.6,8.2-11.3,15.2-12.7s13.9,0.8,18.9,5.9l0.6-0.1
						c-8.1-39.2-45.8-63.8-84.6-56.1c-38.9,7.7-64.3,44.8-56.9,84.1l0.7-0.1C1776,546.6,1781.5,542,1788.5,540.6z"/>
				</g>
			</g>
			<g>
				<g>
					<defs>
						<path id="SVGID_25_" d="M1844.6,539l-13.7-70.1c-1.2-0.3,45.1,10.8,48.9,63.2c3.8,52.8-25.6,55.7-25.6,55.7L1844.6,539z"/>
					</defs>
					<clipPath id="SVGID_26_">
						<use xlink:href="#SVGID_25_"  style="overflow:visible;"/>
					</clipPath>
					<path class="st55" d="M1789.8,540.3c7-1.4,13.9,0.8,18.9,5.9l1.4-0.3c2.7-6.6,8.2-11.3,15.2-12.7s13.9,0.8,18.9,5.9l1.2-0.2
						c2.7-6.6,8.2-11.3,15.2-12.7s13.9,0.8,18.9,5.9l1-0.2c2.7-6.6,8.2-11.3,15.2-12.7s13.9,0.8,18.9,5.9l0.6-0.1
						c-8.1-39.2-45.8-63.8-84.6-56.1s-64.3,44.8-56.9,84.1l0.7-0.1C1777.3,546.4,1782.8,541.7,1789.8,540.3z"/>
				</g>
			</g>
		</g>
	</g>
	<g>
		<path class="st0" d="M1828,633.8l-2.7,0.5l-0.7-4l-3.1,0.5l0.7,4l-2.7,0.5l-1.7-9.8l2.7-0.5l0.6,3.6l3.1-0.5l-0.6-3.6l2.7-0.5
			L1828,633.8z"/>
		<path class="st0" d="M1836,632.4l-5.8,1l-1.7-9.8l5.8-1l0.4,2.1l-3.2,0.6l0.3,1.5l2.9-0.5l0.4,2.1l-2.9,0.5l0.3,1.9l3.2-0.6
			L1836,632.4z"/>
		<path class="st0" d="M1843.7,631l-0.8-1.8l-3.2,0.6l-0.2,1.9l-2.9,0.5l1.5-10.4l3.5-0.6l5,9.3L1843.7,631z M1842,627.2l-0.7-1.5
			c-0.2-0.3-0.4-0.8-0.6-1.3s-0.4-0.9-0.5-1.2c0,0.2,0,0.6,0,1.2s-0.1,1.6-0.2,3.2L1842,627.2z"/>
		<path class="st0" d="M1852,629.6l-2.7,0.5l-1.3-7.7l-2.4,0.4l-0.4-2.2l7.5-1.3l0.4,2.2l-2.4,0.4L1852,629.6z"/>
		<path class="st0" d="M1863.7,627.5l-3.3-6.7h-0.1c0.3,1.2,0.5,2.1,0.6,2.8l0.8,4.3l-2.4,0.4l-1.7-9.8l3.5-0.6l3.3,6.6h0.1l0.8-7.3
			l3.5-0.6l1.7,9.8l-2.4,0.4l-0.8-4.3c0-0.2-0.1-0.5-0.1-0.7c0-0.3-0.1-1-0.3-2h-0.1l-0.7,7.4L1863.7,627.5z"/>
		<path class="st0" d="M1878.8,624.9l-0.8-1.8l-3.2,0.6l-0.2,1.9l-2.9,0.5l1.5-10.4l3.5-0.6l5,9.3L1878.8,624.9z M1877.1,621
			l-0.7-1.5c-0.2-0.3-0.4-0.8-0.6-1.3s-0.4-0.9-0.5-1.2c0,0.2,0,0.6,0,1.2c0,0.5-0.1,1.6-0.2,3.2L1877.1,621z"/>
		<path class="st0" d="M1888.7,616.2c0.2,1.1,0,2-0.5,2.7s-1.4,1.2-2.6,1.4l-0.7,0.1l0.6,3.3l-2.7,0.5l-1.7-9.8l3.4-0.6
			c1.2-0.2,2.2-0.1,2.9,0.3C1888.1,614.5,1888.6,615.2,1888.7,616.2z M1884.5,618.3l0.5-0.1c0.4-0.1,0.7-0.2,0.9-0.5
			c0.2-0.3,0.3-0.6,0.2-1c-0.1-0.7-0.5-0.9-1.3-0.8l-0.7,0.1L1884.5,618.3z"/>
		<path class="st0" d="M1897.4,618.5c0.1,0.6,0,1.2-0.2,1.7s-0.6,1-1.1,1.3c-0.5,0.4-1.2,0.6-2,0.8c-0.7,0.1-1.2,0.2-1.7,0.2
			s-1-0.1-1.5-0.2l-0.4-2.4c0.6,0.2,1.1,0.3,1.7,0.3s1.1,0,1.5,0c0.4-0.1,0.7-0.2,0.8-0.4c0.2-0.2,0.2-0.4,0.2-0.6
			c0-0.1-0.1-0.2-0.2-0.3s-0.2-0.2-0.4-0.2s-0.7-0.2-1.4-0.4c-0.7-0.2-1.2-0.4-1.6-0.6c-0.4-0.2-0.7-0.5-0.9-0.8
			c-0.2-0.3-0.4-0.7-0.5-1.2c-0.2-0.9,0-1.7,0.6-2.3s1.4-1,2.6-1.2c1-0.2,2.1-0.1,3.2,0.2l-0.5,2.2c-1-0.3-1.8-0.3-2.5-0.2
			c-0.3,0.1-0.6,0.2-0.7,0.3s-0.2,0.3-0.2,0.5s0.2,0.3,0.4,0.5c0.2,0.1,0.8,0.3,1.8,0.5c0.9,0.2,1.6,0.5,2,0.9
			C1897,617.3,1897.3,617.9,1897.4,618.5z"/>
	</g>
</g>
<g>
	<g>
		<g>
			<g>
				<g class="st14">
					<g>
						<polygon class="st28" points="817.2,131.2 823.4,175.4 752.2,184.5 746,140.3 						"/>
					</g>
					<g>
						<polygon class="st56" points="817.2,131.2 831.3,117 837.6,161.1 823.4,175.4 						"/>
					</g>
					<g>
						<polygon class="st57" points="746,140.3 760.1,126 831.3,117 817.2,131.2 						"/>
					</g>
				</g>
			</g>
		</g>
		<line class="st31" x1="784" y1="132.9" x2="795.2" y2="120.5"/>
		<line class="st32" x1="786.8" y1="128.6" x2="846.5" y2="61.8"/>
		<line class="st33" x1="818.1" y1="52.4" x2="786.8" y2="128.6"/>
		<line class="st33" x1="777.2" y1="71.5" x2="786.8" y2="128.6"/>
		<line class="st33" x1="739.9" y1="73.9" x2="786.6" y2="127.9"/>
		<line class="st33" x1="706" y1="79.6" x2="786.6" y2="127.1"/>
		<g>
			<circle class="st0" cx="786.6" cy="127.9" r="3.5"/>
			
				<ellipse transform="matrix(-0.5104 -0.8599 0.8599 -0.5104 1080.3682 875.7487)" class="st0" cx="789.5" cy="130.3" rx="5.2" ry="1.8"/>
			
				<ellipse transform="matrix(0.1371 -0.9906 0.9906 0.1371 548.2242 892.1894)" class="st0" cx="786.2" cy="131.4" rx="5.2" ry="1.8"/>
		</g>
		<path class="st34" d="M783.2,127.3"/>
		<g>
			<path class="st35" d="M721.5,69c7.1-0.9,13.8,1.8,18.5,7.2l1.4-0.2c3.1-6.4,9-10.7,16.1-11.6c7.1-0.9,13.8,1.8,18.5,7.2l1.2-0.2
				c3.1-6.4,9-10.7,16.1-11.6s14.2,1.1,18.8,6.3l0.7,0.8c3.2-6.2,9-10.7,16.1-11.6c7.1-0.9,13.8,1.7,18.5,7.2l0.7-0.1
				c-5.4-39.6-41.3-66.8-80.6-61.8s-67.2,40.3-62.6,80l0.7-0.1C708.6,74.2,714.5,69.9,721.5,69z"/>
			<g>
				<g>
					<defs>
						<path id="SVGID_27_" d="M741.5,76.1c0,0-12.6-48.9,27.4-75.5s-78.2,7.2-78.2,7.2l-2.4,89.9l50.7-3.2L741.5,76.1z"/>
					</defs>
					<clipPath id="SVGID_28_">
						<use xlink:href="#SVGID_27_"  style="overflow:visible;"/>
					</clipPath>
					<path class="st58" d="M721.5,69c7.1-0.9,13.8,1.8,18.5,7.2l1.4-0.2c3.1-6.4,9-10.7,16.1-11.6c7.1-0.9,13.8,1.8,18.5,7.2
						l1.2-0.2c3.1-6.4,9-10.7,16.1-11.6s13.8,1.8,18.5,7.2l1-0.1c3.1-6.4,9-10.7,16.1-11.6c7.1-0.9,13.8,1.8,18.5,7.2l0.7-0.1
						c-5.4-39.6-41.3-66.8-80.6-61.8s-67.2,40.3-62.6,80l0.7-0.1C708.6,74.2,714.5,69.9,721.5,69z"/>
				</g>
			</g>
			<g>
				<g>
					<defs>
						<path id="SVGID_29_" d="M777.3,71.5l-8.6-70.9c-1.2-0.4,44.2,13.9,44.4,66.4c0.2,53-29.5,53.8-29.5,53.8L777.3,71.5z"/>
					</defs>
					<clipPath id="SVGID_30_">
						<use xlink:href="#SVGID_29_"  style="overflow:visible;"/>
					</clipPath>
					<path class="st59" d="M722.8,68.9c7.1-0.9,13.8,1.8,18.5,7.2l1.4-0.2c3.1-6.4,9-10.7,16.1-11.6c7.1-0.9,13.8,1.8,18.5,7.2
						l1.2-0.2c3.1-6.4,9-10.7,16.1-11.6s13.8,1.8,18.5,7.2l1-0.1c3.1-6.4,9-10.7,16.1-11.6c7.1-0.9,13.8,1.8,18.5,7.2l0.7-0.1
						C844,22.7,808.1-4.5,768.8,0.5c-39.3,5-67.2,40.3-62.6,80l0.7-0.1C709.9,74,715.7,69.8,722.8,68.9z"/>
				</g>
			</g>
		</g>
	</g>
	<g>
		<path class="st0" d="M742.2,159.5c-0.6,0.1-1.1,0.4-1.4,1c-0.3,0.6-0.4,1.3-0.3,2.2c0.2,1.9,1.1,2.8,2.5,2.6
			c0.4-0.1,0.9-0.2,1.3-0.3c0.4-0.2,0.8-0.4,1.2-0.6l0.3,2.3c-0.8,0.5-1.7,0.8-2.7,0.9c-1.5,0.2-2.7-0.1-3.6-0.9s-1.5-2-1.7-3.6
			c-0.1-1-0.1-2,0.2-2.8c0.3-0.8,0.8-1.5,1.4-2c0.7-0.5,1.5-0.8,2.5-1c1.1-0.1,2.1,0,3.2,0.3l-0.5,2.2c-0.4-0.1-0.8-0.2-1.2-0.3
			S742.6,159.5,742.2,159.5z"/>
		<path class="st0" d="M756.4,160.6c0.2,1.7,0,3-0.7,4s-1.8,1.6-3.4,1.8c-1.6,0.2-2.8-0.1-3.7-0.8c-0.9-0.8-1.5-2-1.7-3.7
			c-0.2-1.6,0-3,0.8-3.9c0.7-1,1.9-1.6,3.4-1.8c1.6-0.2,2.8,0.1,3.8,0.8C755.6,157.7,756.2,158.9,756.4,160.6z M749.6,161.5
			c0.2,1.9,1,2.8,2.4,2.6c0.7-0.1,1.2-0.4,1.4-0.9c0.2-0.5,0.3-1.3,0.2-2.2c-0.1-1-0.4-1.7-0.8-2.1c-0.4-0.4-0.9-0.6-1.6-0.5
			C749.9,158.5,749.3,159.6,749.6,161.5z"/>
		<path class="st0" d="M768.3,164.1l-3.5,0.5l-4.5-6.5h-0.1c0.2,1.1,0.4,1.9,0.5,2.5l0.6,4.5l-2.4,0.3l-1.3-9.9l3.5-0.4l4.5,6.4l0,0
			c-0.2-1-0.3-1.8-0.4-2.4l-0.6-4.5l2.4-0.3L768.3,164.1z"/>
		<path class="st0" d="M774.7,153.2l3-0.4l-2,10.3l-3.2,0.4L768,154l3-0.4l2,4.9c0.4,1.1,0.7,1.8,0.8,2.3c0-0.3,0-0.7,0-1.2
			s0.1-0.9,0.1-1.2L774.7,153.2z"/>
		<path class="st0" d="M785.9,161.9l-5.9,0.8l-1.2-10l5.9-0.8l0.3,2.1l-3.2,0.4l0.2,1.6l3-0.4l0.3,2.1l-3,0.4l0.2,1.9l3.2-0.4
			L785.9,161.9z"/>
		<path class="st0" d="M789.9,157.7l0.5,3.6l-2.7,0.3l-1.3-9.9l3.2-0.4c2.7-0.3,4.2,0.5,4.4,2.4c0.1,1.1-0.3,2.1-1.3,2.9l3.4,3.9
			l-3,0.4l-2.6-3.3L789.9,157.7z M789.6,155.7l0.5-0.1c0.9-0.1,1.4-0.6,1.2-1.4c-0.1-0.7-0.6-1-1.5-0.8l-0.5,0.1L789.6,155.7z"/>
		<path class="st0" d="M803.2,156.6c0.1,0.6,0,1.2-0.3,1.7c-0.2,0.5-0.7,0.9-1.2,1.3c-0.6,0.3-1.2,0.6-2,0.7
			c-0.7,0.1-1.2,0.1-1.7,0.1s-0.9-0.1-1.5-0.3l-0.3-2.4c0.5,0.2,1.1,0.3,1.7,0.4s1.1,0.1,1.5,0s0.7-0.2,0.8-0.3
			c0.2-0.2,0.2-0.4,0.2-0.6c0-0.1-0.1-0.2-0.2-0.3c-0.1-0.1-0.2-0.2-0.4-0.3c-0.2-0.1-0.6-0.2-1.4-0.5c-0.7-0.2-1.2-0.4-1.6-0.7
			c-0.4-0.3-0.6-0.5-0.8-0.9c-0.2-0.3-0.3-0.8-0.4-1.2c-0.1-0.9,0.1-1.7,0.7-2.3c0.6-0.6,1.5-1,2.6-1.1c1-0.1,2.1,0,3.2,0.3
			l-0.6,2.2c-1-0.3-1.8-0.4-2.5-0.3c-0.3,0-0.6,0.1-0.7,0.3c-0.1,0.1-0.2,0.3-0.2,0.5s0.1,0.4,0.4,0.5c0.2,0.1,0.8,0.3,1.7,0.6
			c0.9,0.3,1.5,0.6,1.9,1C802.8,155.4,803.1,155.9,803.2,156.6z"/>
		<path class="st0" d="M805.1,159.4l-1.3-9.9l2.7-0.3l1.3,9.9L805.1,159.4z"/>
		<path class="st0" d="M818.5,152.6c0.2,1.7,0,3-0.7,4c-0.7,1-1.8,1.6-3.4,1.8c-1.6,0.2-2.8-0.1-3.7-0.8c-0.9-0.8-1.5-2-1.7-3.7
			c-0.2-1.6,0-3,0.8-3.9c0.7-1,1.9-1.6,3.4-1.8c1.6-0.2,2.8,0.1,3.8,0.8S818.3,150.9,818.5,152.6z M811.7,153.5
			c0.2,1.9,1,2.8,2.4,2.6c0.7-0.1,1.2-0.4,1.4-0.9c0.3-0.5,0.3-1.3,0.2-2.2c-0.1-1-0.4-1.7-0.8-2.1s-0.9-0.6-1.6-0.5
			C812,150.5,811.5,151.6,811.7,153.5z"/>
		<path class="st0" d="M830.4,156.1l-3.5,0.5l-4.5-6.5h-0.1c0.2,1.1,0.4,1.9,0.5,2.5l0.6,4.5l-2.4,0.3l-1.3-9.9l3.5-0.4l4.5,6.4l0,0
			c-0.2-1-0.3-1.8-0.4-2.4l-0.6-4.5l2.4-0.3L830.4,156.1z"/>
		<path class="st0" d="M838.7,152c0.1,0.6,0,1.2-0.3,1.7c-0.2,0.5-0.7,0.9-1.2,1.3c-0.6,0.3-1.2,0.6-2,0.7c-0.7,0.1-1.2,0.1-1.7,0.1
			s-0.9-0.1-1.5-0.3l-0.3-2.4c0.5,0.2,1.1,0.3,1.7,0.4s1.1,0.1,1.5,0s0.7-0.2,0.8-0.3c0.2-0.2,0.2-0.4,0.2-0.6
			c0-0.1-0.1-0.2-0.2-0.3c-0.1-0.1-0.2-0.2-0.4-0.3c-0.2-0.1-0.6-0.2-1.4-0.5c-0.7-0.2-1.2-0.4-1.6-0.7c-0.4-0.3-0.6-0.5-0.8-0.9
			c-0.2-0.3-0.3-0.8-0.4-1.2c-0.1-0.9,0.1-1.7,0.7-2.3c0.6-0.6,1.5-1,2.6-1.1c1-0.1,2.1,0,3.2,0.3l-0.6,2.2c-1-0.3-1.8-0.4-2.5-0.3
			c-0.3,0-0.6,0.1-0.7,0.3c-0.1,0.1-0.2,0.3-0.2,0.5s0.1,0.4,0.4,0.5c0.2,0.1,0.8,0.3,1.7,0.6c0.9,0.3,1.5,0.6,1.9,1
			C838.3,150.8,838.6,151.4,838.7,152z"/>
	</g>
</g>
<g>
	<g>
		<g>
			<g>
				<g class="st14">
					<g>
						<polygon class="st28" points="1482.4,35 1552.7,51.4 1543.2,94.8 1472.9,78.3 						"/>
					</g>
					<g>
						<polygon class="st29" points="1482.4,35 1496.6,20.7 1566.9,37.1 1552.7,51.4 						"/>
					</g>
					<g>
						<polygon class="st30" points="1552.7,51.4 1566.9,37.1 1557.3,80.5 1543.2,94.8 						"/>
					</g>
				</g>
			</g>
		</g>
		<line class="st31" x1="1518.9" y1="38.3" x2="1533.6" y2="30.6"/>
		<line class="st32" x1="1523" y1="35.3" x2="1602.2" y2="-6.6"/>
		<line class="st33" x1="1578.9" y1="-25.2" x2="1523" y2="35.3"/>
		<line class="st33" x1="1533.9" y1="-21.5" x2="1523" y2="35.3"/>
		<line class="st33" x1="1498.1" y1="-32.4" x2="1523" y2="34.5"/>
		<line class="st33" x1="1464.4" y1="-38.9" x2="1523.3" y2="33.8"/>
		<g>
			<circle class="st0" cx="1523" cy="34.5" r="3.5"/>
			
				<ellipse transform="matrix(-0.1782 -0.984 0.984 -0.1782 1759.4072 1545.067)" class="st0" cx="1524.9" cy="37.8" rx="5.2" ry="1.8"/>
			
				<ellipse transform="matrix(0.4742 -0.8804 0.8804 0.4742 766.694 1359.2361)" class="st0" cx="1521.3" cy="37.7" rx="5.2" ry="1.8"/>
		</g>
		<path class="st34" d="M1520,32.8"/>
		<g>
			<path class="st35" d="M1482.7-43.7c7,1.6,12.1,7.4,14.8,13.2l1.4,0.3c5-4,12.2-6.9,19.1-5.3c7,1.6,12.1,7.4,14.8,13.2l1.2,0.3
				c5-4,12.1-6.7,19.1-5.1s12.9,6.1,15.4,12.6l0.4,1c5.1-4.7,12.2-7.1,19.1-5.4c7,1.6,12.1,7.3,14.8,13.1l0.6,0.2
				c8.5-38.1-15.4-77-53.9-86s-77.3,15.2-86.6,53.1l0.7,0.2C1468.5-42.4,1475.7-45.3,1482.7-43.7z"/>
			<g>
				<g>
					<defs>
						<path id="SVGID_31_" d="M1498.8-29.8c0,0,5.3-50.2,52-61.2c46.7-11-75.8-20.6-75.8-20.6l-33.6,83.4l48.6,14.7L1498.8-29.8z"/>
					</defs>
					<clipPath id="SVGID_32_">
						<use xlink:href="#SVGID_31_"  style="overflow:visible;"/>
					</clipPath>
					<path class="st60" d="M1482.7-43.7c7,1.6,12.1,7.4,14.8,13.2l1.4,0.3c5-4,12.2-6.9,19.1-5.3c7,1.6,12.1,7.4,14.8,13.2l1.2,0.3
						c5-4,12.1-6.9,19.1-5.3s12.1,7.4,14.8,13.2l1,0.2c5-4,12.1-6.9,19.1-5.3s12.1,7.4,14.8,13.2l0.6,0.2c8.5-38.1-15.4-77-53.9-86
						s-77.3,15.2-86.6,53.1l0.7,0.2C1468.5-42.4,1475.7-45.3,1482.7-43.7z"/>
				</g>
			</g>
			<g>
				<g>
					<defs>
						<path id="SVGID_33_" d="M1533.7-21.6l16.8-69.5c-1-0.7,36.5,28.5,18.3,77.7c-18.3,49.7-46.5,40.1-46.5,40.1L1533.7-21.6z"/>
					</defs>
					<clipPath id="SVGID_34_">
						<use xlink:href="#SVGID_33_"  style="overflow:visible;"/>
					</clipPath>
					<path class="st61" d="M1483.9-43.4c7,1.6,12.1,7.4,14.8,13.2l1.4,0.3c5-4,12.2-6.9,19.1-5.3c7,1.6,12.1,7.4,14.8,13.2l1.2,0.3
						c5-4,12.1-6.9,19.1-5.3s12.1,7.4,14.8,13.2l1,0.2c5-4,12.1-6.9,19.1-5.3s12.1,7.4,14.8,13.2l0.6,0.2c8.5-38.1-15.4-77-53.9-86
						s-77.3,15.2-86.6,53.1l0.7,0.2C1469.8-42.1,1477-45,1483.9-43.4z"/>
				</g>
			</g>
		</g>
	</g>
	<g>
		<path class="st0" d="M1457.9,57.7l2.3-9.7l2.6,0.6l-1.8,7.6l3.7,0.9l-0.5,2.1L1457.9,57.7z"/>
		<path class="st0" d="M1476.1,56.8c-0.4,1.6-1.1,2.8-2.1,3.5s-2.3,0.8-3.8,0.5c-1.5-0.4-2.6-1.1-3.2-2.1s-0.7-2.4-0.3-4
			c0.4-1.6,1.1-2.8,2.1-3.4c1-0.7,2.3-0.8,3.8-0.5c1.5,0.4,2.6,1.1,3.2,2.1C1476.4,53.8,1476.5,55.2,1476.1,56.8z M1469.4,55.2
			c-0.4,1.9,0,3,1.3,3.3c0.7,0.2,1.2,0,1.6-0.3c0.4-0.4,0.8-1.1,1-2c0.2-1,0.2-1.7,0-2.3c-0.2-0.5-0.7-0.9-1.3-1
			C1470.7,52.6,1469.9,53.4,1469.4,55.2z"/>
		<path class="st0" d="M1482.9,55.4c-0.6-0.1-1.2,0-1.6,0.4c-0.5,0.4-0.8,1.1-1,2c-0.4,1.9,0.1,3,1.5,3.3c0.4,0.1,0.9,0.1,1.3,0.1
			s0.9-0.1,1.3-0.1l-0.5,2.2c-0.9,0.2-1.9,0.1-2.9-0.1c-1.5-0.3-2.5-1-3.1-2.1c-0.6-1-0.7-2.4-0.3-4c0.2-1,0.6-1.8,1.2-2.5
			s1.2-1.1,2-1.4c0.8-0.2,1.7-0.3,2.7,0c1.1,0.2,2,0.7,2.9,1.4l-1.3,1.9c-0.3-0.3-0.6-0.5-1-0.7S1483.3,55.5,1482.9,55.4z"/>
		<path class="st0" d="M1491.5,65.6l-0.1-1.9l-3.2-0.7l-0.9,1.7l-2.9-0.7l5.5-9l3.5,0.8l0.9,10.5L1491.5,65.6z M1491.4,61.4v-1.7
			c0-0.4,0-0.9,0-1.5s0-1,0-1.3c-0.1,0.2-0.3,0.6-0.5,1.1s-0.7,1.5-1.5,2.9L1491.4,61.4z"/>
		<path class="st0" d="M1499.8,67.5l-2.6-0.6l1.8-7.6l-2.4-0.6l0.5-2.2l7.4,1.7l-0.5,2.1l-2.4-0.6L1499.8,67.5z"/>
		<path class="st0" d="M1503.5,68.4l2.3-9.7l2.6,0.6l-2.3,9.7L1503.5,68.4z"/>
		<path class="st0" d="M1518.5,66.7c-0.4,1.6-1.1,2.8-2.1,3.5s-2.3,0.8-3.8,0.5c-1.5-0.4-2.6-1.1-3.2-2.1s-0.7-2.4-0.3-4
			c0.4-1.6,1.1-2.8,2.1-3.4s2.3-0.8,3.8-0.5c1.5,0.4,2.6,1.1,3.2,2.1C1518.8,63.8,1518.9,65.1,1518.5,66.7z M1511.8,65.2
			c-0.4,1.9,0,3,1.3,3.3c0.7,0.2,1.2,0,1.6-0.3c0.4-0.4,0.8-1.1,1-2c0.2-1,0.2-1.7,0-2.3c-0.2-0.5-0.7-0.9-1.3-1
			C1513.1,62.5,1512.3,63.3,1511.8,65.2z"/>
		<path class="st0" d="M1528.4,74.2l-3.4-0.8l-2-7.7h-0.1c-0.2,1.1-0.3,1.9-0.5,2.5l-1,4.4l-2.3-0.5l2.3-9.7l3.4,0.8l2,7.6l0,0
			c0.2-1,0.3-1.8,0.5-2.4l1-4.4l2.3,0.5L1528.4,74.2z"/>
		<path class="st0" d="M1530.3,71.9l0.5-2.1l3.8,0.9l-0.5,2.1L1530.3,71.9z"/>
		<path class="st0" d="M1537.1,66l3.4,0.8c1.3,0.3,2.3,0.7,2.8,1.3c0.5,0.5,0.7,1.2,0.5,2.1c-0.1,0.5-0.4,1-0.7,1.3
			s-0.8,0.5-1.3,0.5v0.1c0.6,0.3,0.9,0.7,1.1,1.1s0.2,1,0.1,1.5c-0.2,0.9-0.7,1.5-1.5,1.9s-1.7,0.4-2.9,0.1l-3.8-0.9L1537.1,66z
			 M1538.4,72.2l-0.5,2l0.9,0.2c0.8,0.2,1.3-0.1,1.5-0.8c0.1-0.3,0-0.6-0.2-0.8c-0.2-0.2-0.5-0.4-0.9-0.5L1538.4,72.2z M1538.9,70.3
			l0.8,0.2c0.4,0.1,0.7,0.1,0.9,0c0.2-0.1,0.4-0.3,0.5-0.6c0.1-0.5-0.2-0.9-1-1.1l-0.7-0.2L1538.9,70.3z"/>
		<path class="st0" d="M1550,79.2l-0.1-1.9l-3.2-0.7l-0.9,1.7l-2.9-0.7l5.5-9l3.5,0.8l0.9,10.5L1550,79.2z M1549.9,75v-1.7
			c0-0.4,0-0.9,0-1.5s0-1,0-1.3c-0.1,0.2-0.3,0.6-0.5,1.1s-0.7,1.5-1.5,2.9L1549.9,75z"/>
		<path class="st0" d="M1561,78.7c-0.1,0.6-0.4,1.1-0.8,1.5s-0.9,0.7-1.6,0.8c-0.6,0.1-1.3,0.1-2.1-0.1c-0.6-0.2-1.2-0.3-1.6-0.5
			s-0.8-0.5-1.3-0.8l0.5-2.3c0.4,0.4,0.9,0.7,1.4,1s1,0.5,1.4,0.6s0.7,0.1,0.9,0c0.2-0.1,0.3-0.2,0.4-0.5c0-0.1,0-0.3,0-0.4
			c-0.1-0.1-0.1-0.2-0.3-0.4s-0.5-0.4-1.1-0.9c-0.6-0.4-1-0.8-1.2-1.2c-0.3-0.3-0.4-0.7-0.5-1.1s-0.1-0.8,0.1-1.3
			c0.2-0.9,0.7-1.5,1.5-1.9s1.7-0.4,2.9-0.1c1,0.2,2,0.7,2.9,1.4l-1.3,1.8c-0.8-0.6-1.5-1-2.2-1.2c-0.3-0.1-0.6-0.1-0.8,0
			c-0.2,0.1-0.3,0.2-0.3,0.4c0,0.2,0,0.4,0.2,0.6s0.6,0.6,1.4,1.2s1.2,1.1,1.5,1.6C1561.1,77.5,1561.1,78,1561,78.7z"/>
		<path class="st0" d="M1567.6,83.4l-5.8-1.4l2.3-9.7l5.8,1.4l-0.5,2.1l-3.1-0.7l-0.4,1.5l2.9,0.7l-0.5,2.1l-2.9-0.7l-0.4,1.8
			l3.1,0.7L1567.6,83.4z"/>
		<path class="st0" d="M1578.7,80.6c-0.4,1.6-1.1,2.8-2.2,3.4c-1.1,0.7-2.5,0.8-4.1,0.4l-3.1-0.7l2.3-9.7l3.4,0.8
			c1.6,0.4,2.7,1,3.3,2C1578.9,77.9,1579.1,79.1,1578.7,80.6z M1576,80.1c0.2-0.9,0.2-1.6-0.1-2.1c-0.3-0.5-0.7-0.9-1.5-1l-0.8-0.2
			l-1.3,5.5l0.6,0.1c0.8,0.2,1.4,0.1,1.9-0.3C1575.4,81.7,1575.7,81,1576,80.1z"/>
	</g>
</g>
</svg>
