<?xml version="1.0" encoding="utf-8"?>
<!-- Generator: Adobe Illustrator 19.1.0, SVG Export Plug-In . SVG Version: 6.00 Build 0)  -->
<!DOCTYPE svg PUBLIC "-//W3C//DTD SVG 1.1//EN" "http://www.w3.org/Graphics/SVG/1.1/DTD/svg11.dtd">
<svg version="1.1" id="Layer_1" xmlns="http://www.w3.org/2000/svg" xmlns:xlink="http://www.w3.org/1999/xlink" x="0px" y="0px"
	 viewBox="0 0 1000 1000" style="enable-background:new 0 0 1000 1000;" xml:space="preserve">
<style type="text/css">
	.st0{opacity:0.2;}
	.st1{fill:#FFFFFF;}
</style>
<g class="st0">
	<path d="M483.2,758.9c-53.7-2.4-105.5-14.5-155.3-36.1V600.8c28.4,14.5,59.4,26.6,92.7,36.2c33.4,9.7,62.7,14.5,87.9,14.5
		c20.8,0,36.1-2.5,45.8-7.5c9.7-5,14.5-13.4,14.5-25.2c0-8.1-3.5-15-10.5-20.6c-7-5.6-18.6-12-35-19.1c-16.3-7.1-38.3-15.7-66-25.8
		c-31.2-11.5-56.3-24.5-75.4-38.8c-19.1-14.3-33.1-30.4-41.8-48.2c-8.7-17.8-13.1-39.9-13.1-66.4c0-40.5,13-72.1,39-94.9
		c26-22.8,65-36.9,117-42.3v-50.4h76.2v49.7c48.8,2.7,98,14.7,147.5,36.1l-43.8,104.9c-51.3-23.1-97.5-34.6-138.7-34.6
		c-19.6,0-33.4,2.4-41.4,7.2c-8,4.8-12,11.8-12,21.2c0,8.1,2.9,14.8,8.6,20c5.8,5.3,15.8,11.2,30,17.7c14.2,6.5,34,14,59.2,22.6
		c51.3,18.2,88,38.8,110.4,62c22.3,23.2,33.5,53,33.5,89.6c0,41.2-13.1,74.7-39.2,100.4s-64.2,41.7-114.2,47.8v71h-76.2V758.9z"/>
</g>
<g>
	<path class="st1" d="M463.2,738.9c-53.7-2.4-105.5-14.5-155.3-36.1V580.8c28.4,14.5,59.4,26.6,92.7,36.2
		c33.4,9.7,62.7,14.5,87.9,14.5c20.8,0,36.1-2.5,45.8-7.5c9.7-5,14.5-13.4,14.5-25.2c0-8.1-3.5-15-10.5-20.6c-7-5.6-18.6-12-35-19.1
		c-16.3-7.1-38.3-15.7-66-25.8c-31.2-11.5-56.3-24.5-75.4-38.8c-19.1-14.3-33.1-30.4-41.8-48.2c-8.7-17.8-13.1-39.9-13.1-66.4
		c0-40.5,13-72.1,39-94.9c26-22.8,65-36.9,117-42.3v-50.4h76.2v49.7c48.8,2.7,98,14.7,147.5,36.1l-43.8,104.9
		c-51.3-23.1-97.5-34.6-138.7-34.6c-19.6,0-33.4,2.4-41.4,7.2c-8,4.8-12,11.8-12,21.2c0,8.1,2.9,14.8,8.6,20
		c5.8,5.3,15.8,11.2,30,17.7c14.2,6.5,34,14,59.2,22.6c51.3,18.2,88,38.8,110.4,62c22.3,23.2,33.5,53,33.5,89.6
		c0,41.2-13.1,74.7-39.2,100.4s-64.2,41.7-114.2,47.8v71h-76.2V738.9z"/>
</g>
</svg>
