<?xml version="1.0" encoding="utf-8"?>
<!-- Generator: Adobe Illustrator 19.1.0, SVG Export Plug-In . SVG Version: 6.00 Build 0)  -->
<!DOCTYPE svg PUBLIC "-//W3C//DTD SVG 1.1//EN" "http://www.w3.org/Graphics/SVG/1.1/DTD/svg11.dtd">
<svg version="1.1" id="Layer_1" xmlns="http://www.w3.org/2000/svg" xmlns:xlink="http://www.w3.org/1999/xlink" x="0px" y="0px"
	 viewBox="0 0 1000 1000" style="enable-background:new 0 0 1000 1000;" xml:space="preserve">
<style type="text/css">
	.st0{opacity:0.2;}
	.st1{fill:#384147;}
	.st2{opacity:0.2;enable-background:new    ;}
	.st3{fill:#495259;}
</style>
<g>
	<g class="st0">
		<path d="M337.8,711.5c-69.6,0-125.9-56.4-125.9-125.9s56.4-125.9,125.9-125.9S463.7,516,463.7,585.6
			C463.7,655.1,407.3,711.5,337.8,711.5 M556.2,623.4c18.3,0,36.7-8.8,36.7-27.2v-21.4c0-18.4-18.4-40.5-36.7-40.5h-1.4
			c-18.3,0-36.1-5-39.6-15.4c-3.4-10.5-5.8-44.5,7.2-57.5l1-0.1c13-13,13-33.8,0-46.7l-15.2-14.9c-12.9-12.9-34.2-12.8-47.2,0.1
			l-1,1.1c-13,13-34.1,19.6-43.7,14.6c-9.6-4.9-39.7-28.6-39.7-47V367c0-18.3-9.8-36.3-28.2-36.3H327c-18.3,0-39.5,17.9-39.5,36.3
			v1.5c0,18.3-5.5,36.1-15.9,39.5s-44.7,5.8-57.7-7.2l-0.2-1c-13-12.9-33.8-12.9-46.8,0l-15,15.2c-13,13-12.9,34.2,0.1,47.2l1.1,1
			c13,13,19.6,27.9,14.7,37.6c-4.9,9.6-28.6,33.6-47,33.6h-1.5c-18.3,0-35.3,22.1-35.3,40.5v21.4c0,18.3,16.9,27.2,35.3,27.2h1.5
			c18.3,0,36.1,11.6,39.5,22.1c3.4,10.4,5.8,47.8-7.2,60.8l-1,1.8c-13,13-13,34.6,0,47.5l15.2,15.4c13,13,34.2,13.1,47.2,0.1l1-1
			c13-13,28.4-19.5,38.1-14.6c9.6,4.9,34,28.7,34,47v1.4c0,18.4,21.1,35.8,39.5,35.8h21.4c18.3,0,28.2-17.4,28.2-35.8v-1.4
			c0-18.3,11.1-36.2,21.6-39.5c10.4-3.4,47.6-5.8,60.6,7.1l1.7,1c13,13,34.5,13,47.5,0l15.3-15.2c13-13,13.1-34.2,0.1-47.2l-1-1.1
			c-13-12.9-19.5-34.5-14.6-44.2c4.9-9.6,28.7-40.2,47.1-40.2h1.2V623.4z"/>
		<path d="M749.8,436.7c-56.9,0-103-46.1-103-103s46.1-103,103-103s103,46.1,103,103C852.9,390.6,806.7,436.7,749.8,436.7
			 M924.7,369.8c15.4,0,24.6-15,24.6-33.4V331c0-18.3-9.2-33.4-24.6-33.4c-15.3,0-28.5-7-31.3-15.5c-2.8-8.6-3.8-38,7.1-48.9
			c10.9-10.9,9.5-30.3-3.4-43.3l-3.6-3.8c-13-13-32.4-14.7-43.2-3.9c-10.9,10.8-26.1,16.4-34,12.4s-30.3-24-30.3-39.3
			c0-15.4-15-28.2-33.3-28.2h-5.4c-18.3,0-33.4,12.8-33.4,28.2c0,15.3-7,30.3-15.5,33c-8.6,2.8-38,4.7-48.9-6.2
			c-10.8-10.8-30.3-9.1-43.3,3.9l-3.8,3.8c-13,13-14.7,32.5-3.9,43.3c10.9,10.9,16.4,26.2,12.4,34.1c-4.1,7.9-24.6,30.4-39.9,30.4
			c-15.3,0-28.7,15-28.7,33.4v5.4c0,18.3,13.4,33.4,28.7,33.4s30.6,7,33.4,15.5c2.8,8.5,4.8,38-6.1,48.9c-10.8,10.8-9,30.3,4,43.3
			l3.9,3.8c13,13,32.5,14.7,43.3,3.9c10.8-10.9,26.2-16.4,34.1-12.4c7.9,4,30.4,21,30.4,36.4c0,15.4,15,25.2,33.4,25.2h5.4
			c18.3,0,33.4-9.8,33.4-25.2s7-28.8,15.5-31.6c8.5-2.8,38.1-3.9,48.9,6.9c10.8,10.8,30.3,9.5,43.3-3.5l3.9-3.7
			c13-12.9,14.7-32.4,3.9-43.2c-10.9-10.8-18.1-26.1-14.1-34C891.3,392.2,909.3,369.8,924.7,369.8"/>
		<path d="M749.8,825.9c-44.3,0-80.1-35.9-80.1-80.1s35.9-80.1,80.1-80.1c44.2,0,80.1,35.9,80.1,80.1S794.1,825.9,749.8,825.9
			 M888.4,773.8c11.9,0,21.7-12.6,21.7-28s-9.8-28-21.7-28s-23.5-5.4-25.6-12.1c-2.2-6.6-3.5-29.6,4.9-38s6.4-24.2-4.5-35.1
			c-10.9-10.9-26.7-12.9-35.1-4.5c-8.4,8.5-20.4,12.8-26.5,9.6S778,619.2,778,607.3s-12.6-21.7-28-21.7s-28.1,9.8-28.1,21.7
			c0,12-5.4,23.5-12.1,25.7c-6.7,2.2-29.6,3.6-38-4.9c-8.5-8.4-24.3-6.4-35.1,4.5c-10.9,10.9-12.9,26.7-4.5,35.2s12.8,20.4,9.6,26.5
			c-3.1,6.1-18.4,23.6-30.4,23.6c-11.9,0-21.7,12.6-21.7,28s9.8,28,21.7,28c12,0,23.5,5.4,25.7,12.1c2.1,6.7,3.5,29.6-4.9,38
			c-8.4,8.5-6.4,24.3,4.5,35.2s26.7,12.9,35.2,4.5c8.4-8.4,20.3-12.8,26.5-9.6c6.1,3.1,23.6,18.5,23.6,30.4s12.7,21.7,28.1,21.7
			c15.4,0,28-9.8,28-21.7s5.4-23.5,12.1-25.7c6.7-2.1,29.6-3.5,38,4.9s24.3,6.4,35.1-4.5c10.9-10.9,12.9-26.7,4.5-35.2
			c-8.4-8.4-12.8-20.4-9.6-26.5C861.1,791.3,876.5,773.8,888.4,773.8"/>
	</g>
	<g>
		<path class="st1" d="M314.5,688.2c-69.6,0-125.9-56.4-125.9-125.9S245,436.4,314.5,436.4s125.9,56.3,125.9,125.9
			C440.4,631.8,384.1,688.2,314.5,688.2 M533,600.2c18.3,0,36.7-8.8,36.7-27.2v-21.4c0-18.4-18.4-40.5-36.7-40.5h-1.4
			c-18.3,0-36.1-5-39.6-15.4c-3.4-10.5-5.8-44.5,7.2-57.5l1-0.1c13-13,13-33.8,0-46.7l-15.2-15c-12.9-12.9-34.2-12.8-47.2,0.1
			l-1,1.1c-13,13-34.1,19.6-43.7,14.6c-9.6-4.9-39.7-28.6-39.7-47v-1.5c0-18.3-9.8-36.3-28.2-36.3h-21.4
			c-18.3,0-39.5,17.9-39.5,36.3v1.5c0,18.3-5.5,36.1-15.9,39.5s-44.7,5.8-57.7-7.2l-0.2-1c-13-12.9-33.8-12.9-46.8,0l-15,15.2
			c-13,13-12.9,34.2,0.1,47.2l1.1,1c13,13,19.6,27.9,14.7,37.6c-4.9,9.6-28.6,33.6-47,33.6H96c-18.3,0-35.3,22.1-35.3,40.5V573
			c0,18.3,16.9,27.2,35.3,27.2h1.5c18.3,0,36.1,11.6,39.5,22.1c3.4,10.4,5.8,47.8-7.2,60.8l-1,1.8c-13,13-13,34.6,0,47.5l15.2,15.4
			c13,13,34.2,13.1,47.2,0.1l1-1c13-13,28.4-19.5,38.1-14.6c9.6,4.9,34,28.7,34,47v1.4c0,18.4,21.1,35.8,39.5,35.8h21.4
			c18.3,0,28.2-17.4,28.2-35.8v-1.4c0-18.3,11.1-36.2,21.6-39.5c10.4-3.4,47.6-5.8,60.6,7.1l1.7,1c13,13,34.5,13,47.5,0l15.3-15.2
			c13-13,13.1-34.2,0.1-47.2l-1-1.1c-13-12.9-19.5-34.5-14.6-44.2c4.9-9.6,28.7-40.2,47.1-40.2h1.3V600.2z"/>
		<path class="st1" d="M726.6,413.5c-56.9,0-103-46.1-103-103s46.1-103,103-103s103,46.1,103,103S783.5,413.5,726.6,413.5
			 M901.4,346.5c15.4,0,24.6-15,24.6-33.4v-5.4c0-18.3-9.2-33.4-24.6-33.4c-15.3,0-28.5-7-31.3-15.5c-2.8-8.6-3.8-38,7.1-48.9
			c10.9-10.9,9.5-30.3-3.4-43.3l-3.6-3.8c-13-13-32.4-14.7-43.2-3.9c-10.9,10.8-26.1,16.4-34,12.4s-30.3-24-30.3-39.3
			c0-15.4-15-28.2-33.3-28.2H724c-18.3,0-33.4,12.8-33.4,28.2c0,15.3-7,30.3-15.5,33c-8.6,2.8-38,4.7-48.9-6.2
			c-10.8-10.8-30.3-9.1-43.3,3.9l-3.8,3.8c-13,13-14.7,32.5-3.9,43.3c10.9,10.9,16.4,26.2,12.4,34.1c-4.1,7.9-24.6,30.4-39.9,30.4
			c-15.3,0-28.7,15-28.7,33.4v5.4c0,18.3,13.4,33.4,28.7,33.4s30.6,7,33.4,15.5c2.8,8.5,4.8,38-6.1,48.9c-10.8,10.8-9,30.3,4,43.3
			l3.9,3.8c13,13,32.5,14.7,43.3,3.9c10.8-10.9,26.2-16.4,34.1-12.4c7.9,4,30.4,21,30.4,36.4c0,15.3,15,25.2,33.4,25.2h5.4
			c18.3,0,33.4-9.8,33.4-25.2c0-15.3,7-28.8,15.5-31.6c8.5-2.8,38.1-3.9,48.9,6.9c10.8,10.8,30.3,9.5,43.3-3.5l3.9-3.7
			c13-12.9,14.7-32.4,3.9-43.2c-10.9-10.8-18.1-26.1-14.1-34C868,369,886.1,346.5,901.4,346.5"/>
		<path class="st1" d="M726.6,802.7c-44.3,0-80.1-35.9-80.1-80.1s35.9-80.1,80.1-80.1c44.2,0,80.1,35.9,80.1,80.1
			S770.8,802.7,726.6,802.7 M865.1,750.6c11.9,0,21.7-12.6,21.7-28s-9.8-28-21.7-28s-23.5-5.4-25.6-12.1c-2.2-6.6-3.5-29.6,4.9-38
			s6.4-24.2-4.5-35.1c-10.9-10.9-26.7-12.9-35.1-4.5c-8.4,8.5-20.4,12.8-26.5,9.6s-23.6-18.5-23.6-30.4s-12.6-21.7-28-21.7
			s-28.1,9.8-28.1,21.7c0,12-5.4,23.5-12.1,25.7c-6.7,2.2-29.6,3.6-38-4.9c-8.5-8.4-24.3-6.4-35.1,4.5
			c-10.9,10.9-12.9,26.7-4.5,35.2s12.8,20.4,9.6,26.5c-3.1,6.1-18.4,23.6-30.4,23.6c-11.9,0-21.7,12.6-21.7,28s9.8,28,21.7,28
			c12,0,23.5,5.4,25.7,12.1c2.1,6.7,3.5,29.6-4.9,38c-8.4,8.5-6.4,24.3,4.5,35.2s26.7,12.9,35.2,4.5c8.4-8.4,20.3-12.8,26.5-9.6
			c6.1,3.1,23.6,18.5,23.6,30.4s12.7,21.7,28.1,21.7c15.4,0,28-9.8,28-21.7s5.4-23.5,12.1-25.7c6.7-2.1,29.6-3.5,38,4.9
			s24.3,6.4,35.1-4.5c10.9-10.9,12.9-26.7,4.5-35.2c-8.4-8.4-12.8-20.4-9.6-26.5C837.9,768.1,853.2,750.6,865.1,750.6"/>
	</g>
</g>
<g>
	<path class="st2" d="M786.7,577.6c-39.4,0-71.4-32-71.4-71.4s32-71.4,71.4-71.4c39.5,0,71.4,32,71.4,71.4
		C858.2,545.6,826.2,577.6,786.7,577.6 M907.9,531.2c10.7,0,17.1-10.4,17.1-23.1v-3.7c0-12.7-6.4-23.1-17.1-23.1
		c-10.6,0-19.8-4.8-21.7-10.8c-1.9-5.9-2.6-26.4,4.9-33.9s6.6-21-2.4-30.1l-2.5-2.6c-9-9-22.4-10.2-30-2.7
		c-7.5,7.5-18.1,11.4-23.6,8.6s-21-16.6-21-27.2c0-10.7-10.4-19.5-23.1-19.5h-3.7c-12.7,0-23.1,8.9-23.1,19.5s-4.8,21-10.8,22.9
		c-5.9,1.9-26.4,3.2-33.9-4.3s-21-6.3-30.1,2.7l-2.6,2.6c-9,9-10.2,22.5-2.7,30.1c7.5,7.5,11.4,18.2,8.6,23.6
		c-2.8,5.5-17.1,21.1-27.7,21.1c-10.6,0-19.9,10.4-19.9,23.1v3.7c0,12.7,9.3,23.1,19.9,23.1c10.6,0,21.2,4.8,23.1,10.8
		c1.9,5.9,3.3,26.4-4.2,33.9s-6.2,21,2.8,30l2.7,2.6c9,9,22.5,10.2,30.1,2.7c7.5-7.5,18.2-11.4,23.6-8.6
		c5.5,2.8,21.1,14.6,21.1,25.2c0,10.6,10.4,17.5,23.1,17.5h3.7c12.7,0,23.1-6.8,23.1-17.5c0-10.6,4.8-20,10.8-21.9
		c5.9-1.9,26.4-2.7,33.9,4.8s21,6.6,30-2.5l2.7-2.5c9-9,10.2-22.4,2.7-30c-7.5-7.5-12.5-18.1-9.7-23.6
		C884.8,546.7,897.3,531.2,907.9,531.2"/>
	<g>
		<path class="st2" d="M434,380.1c-48.2,0-87.3-39.1-87.3-87.3s39.1-87.3,87.3-87.3s87.3,39.1,87.3,87.3S482.2,380.1,434,380.1
			 M585.5,319.1c12.7,0,25.5-6.1,25.5-18.8v-14.8c0-12.8-12.8-28.1-25.5-28.1h-1c-12.7,0-25.1-3.5-27.4-10.7c-2.3-7.3-4-30.9,5-39.9
			l0.7-0.1c9-9,9-23.4,0-32.4l-10.5-10.4c-9-9-23.7-8.9-32.7,0.1l-0.7,0.8c-9,9-23.6,13.6-30.3,10.1c-6.7-3.4-27.5-19.8-27.5-32.6
			v-1c0-12.7-6.8-25.2-19.5-25.2h-14.9c-12.7,0-27.4,12.4-27.4,25.2v1c0,12.7-3.8,25.1-11.1,27.4c-7.2,2.4-31,4-40-5L348,164
			c-9-9-23.5-9-32.5,0l-10.4,10.5c-9,9-8.9,23.7,0.1,32.7l0.7,0.7c9,9,13.6,19.4,10.2,26.1c-3.4,6.7-19.9,23.3-32.6,23.3h-1
			c-12.7,0-24.5,15.3-24.5,28.1v14.8c0,12.7,11.7,18.8,24.5,18.8h1c12.7,0,25.1,8.1,27.4,15.3c2.4,7.2,4.1,33.2-5,42.1l-0.7,1.3
			c-9,9-9,24,0,33l10.5,10.7c9,9,23.7,9.1,32.7,0.1l0.7-0.7c9-9,19.7-13.6,26.4-10.1c6.7,3.4,23.6,19.9,23.6,32.6v1
			c0,12.7,14.7,24.8,27.4,24.8h14.9c12.7,0,19.5-12.1,19.5-24.8v-1c0-12.7,7.7-25.1,14.9-27.4c7.2-2.4,33-4,42,5l1.2,0.7
			c9,9,24,9,32.9,0l10.6-10.5c9-9,9.1-23.7,0.1-32.7l-0.7-0.7c-9-9-13.6-23.9-10.1-30.6c3.4-6.7,19.9-27.9,32.6-27.9L585.5,319.1
			L585.5,319.1z"/>
		<path class="st3" d="M424,370.1c-48.2,0-87.3-39.1-87.3-87.3s39.1-87.3,87.3-87.3s87.3,39.1,87.3,87.3S472.2,370.1,424,370.1
			 M575.5,309.1c12.7,0,25.5-6.1,25.5-18.8v-14.8c0-12.8-12.8-28.1-25.5-28.1h-1c-12.7,0-25.1-3.5-27.4-10.7c-2.3-7.3-4-30.9,5-39.9
			l0.7-0.1c9-9,9-23.4,0-32.4l-10.5-10.4c-9-9-23.7-8.9-32.7,0.1l-0.7,0.8c-9,9-23.6,13.6-30.3,10.1c-6.7-3.4-27.5-19.8-27.5-32.6
			v-1c0-12.7-6.8-25.2-19.5-25.2h-14.9c-12.7,0-27.4,12.4-27.4,25.2v1c0,12.7-3.8,25.1-11.1,27.4c-7.2,2.4-31,4-40-5L338,154
			c-9-9-23.5-9-32.5,0l-10.4,10.5c-9,9-8.9,23.7,0.1,32.7l0.7,0.7c9,9,13.6,19.4,10.2,26.1s-19.9,23.3-32.6,23.3h-1
			c-12.7,0-24.5,15.3-24.5,28.1v14.8c0,12.7,11.7,18.8,24.5,18.8h1c12.7,0,25.1,8.1,27.4,15.3c2.4,7.2,4.1,33.2-5,42.1l-0.7,1.3
			c-9,9-9,24,0,33l10.5,10.7c9,9,23.7,9.1,32.7,0.1l0.7-0.7c9-9,19.7-13.6,26.4-10.1c6.7,3.4,23.6,19.9,23.6,32.6v1
			c0,12.7,14.7,24.8,27.4,24.8h14.9c12.7,0,19.5-12.1,19.5-24.8v-1c0-12.7,7.7-25.1,14.9-27.4c7.2-2.4,33-4,42,5l1.2,0.7
			c9,9,24,9,32.9,0l10.6-10.5c9-9,9.1-23.7,0.1-32.7l-0.7-0.7c-9-9-13.6-23.9-10.1-30.6c3.4-6.7,19.9-27.9,32.6-27.9L575.5,309.1
			L575.5,309.1z"/>
	</g>
	<path class="st3" d="M776.7,567.6c-39.4,0-71.4-32-71.4-71.4s32-71.4,71.4-71.4c39.5,0,71.4,32,71.4,71.4
		C848.2,535.6,816.2,567.6,776.7,567.6 M897.9,521.2c10.7,0,17.1-10.4,17.1-23.1v-3.7c0-12.7-6.4-23.1-17.1-23.1
		c-10.6,0-19.8-4.8-21.7-10.8c-1.9-5.9-2.6-26.4,4.9-33.9s6.6-21-2.4-30.1l-2.5-2.6c-9-9-22.4-10.2-30-2.7
		c-7.5,7.5-18.1,11.4-23.6,8.6s-21-16.6-21-27.2c0-10.7-10.4-19.5-23.1-19.5h-3.7c-12.7,0-23.1,8.9-23.1,19.5s-4.8,21-10.8,22.9
		c-5.9,1.9-26.4,3.2-33.9-4.3s-21-6.3-30.1,2.7l-2.6,2.6c-9,9-10.2,22.5-2.7,30.1c7.5,7.5,11.4,18.2,8.6,23.6
		c-2.8,5.5-17.1,21.1-27.7,21.1c-10.6,0-19.9,10.4-19.9,23.1v3.7c0,12.7,9.3,23.1,19.9,23.1c10.6,0,21.2,4.8,23.1,10.8
		c1.9,5.9,3.3,26.4-4.2,33.9s-6.2,21,2.8,30l2.7,2.6c9,9,22.5,10.2,30.1,2.7c7.5-7.5,18.2-11.4,23.6-8.6
		c5.5,2.8,21.1,14.6,21.1,25.2c0,10.6,10.4,17.5,23.1,17.5h3.7c12.7,0,23.1-6.8,23.1-17.5c0-10.6,4.8-20,10.8-21.9
		c5.9-1.9,26.4-2.7,33.9,4.8s21,6.6,30-2.5l2.7-2.5c9-9,10.2-22.4,2.7-30c-7.5-7.5-12.5-18.1-9.7-23.6
		C874.8,536.7,887.3,521.2,897.9,521.2"/>
	<g>
		<path class="st2" d="M529.7,835.5c-30.7,0-55.6-24.9-55.6-55.6c0-30.7,24.9-55.6,55.6-55.6s55.6,24.9,55.6,55.6
			S560.4,835.5,529.7,835.5 M625.8,799.4c8.3,0,15.1-8.7,15.1-19.4s-6.8-19.4-15.1-19.4s-16.3-3.8-17.8-8.4
			c-1.5-4.6-2.5-20.5,3.4-26.4c5.8-5.8,4.5-16.8-3.1-24.4c-7.6-7.6-18.5-8.9-24.4-3.1c-5.8,5.9-14.1,8.9-18.4,6.7
			c-4.3-2.2-16.4-12.8-16.4-21.1s-8.7-15-19.4-15s-19.5,6.8-19.5,15c0,8.3-3.8,16.3-8.4,17.8s-20.5,2.5-26.4-3.4
			c-5.9-5.8-16.8-4.4-24.4,3.1c-7.6,7.6-9,18.5-3.1,24.4c5.8,5.9,8.9,14.1,6.7,18.4c-2.2,4.3-12.8,16.4-21.1,16.4s-15,8.8-15,19.4
			c0,10.7,6.8,19.4,15,19.4c8.3,0,16.3,3.8,17.8,8.4c1.5,4.6,2.4,20.5-3.4,26.4s-4.5,16.8,3.1,24.4c7.6,7.6,18.5,8.9,24.4,3.1
			c5.8-5.8,14.1-8.9,18.4-6.7s16.4,12.8,16.4,21.1s8.8,15,19.5,15s19.4-6.8,19.4-15c0-8.3,3.8-16.3,8.4-17.8
			c4.6-1.5,20.5-2.5,26.4,3.4c5.8,5.8,16.8,4.5,24.4-3.1c7.6-7.6,9-18.5,3.1-24.4c-5.8-5.8-8.9-14.1-6.7-18.4
			S617.5,799.4,625.8,799.4"/>
		<path class="st3" d="M519.7,825.5c-30.7,0-55.6-24.9-55.6-55.6c0-30.7,24.9-55.6,55.6-55.6s55.6,24.9,55.6,55.6
			S550.4,825.5,519.7,825.5 M615.8,789.4c8.3,0,15.1-8.7,15.1-19.4s-6.8-19.4-15.1-19.4s-16.3-3.8-17.8-8.4
			c-1.5-4.6-2.5-20.5,3.4-26.4c5.8-5.8,4.5-16.8-3.1-24.4c-7.6-7.6-18.5-8.9-24.4-3.1c-5.8,5.9-14.1,8.9-18.4,6.7
			c-4.3-2.2-16.4-12.8-16.4-21.1s-8.7-15-19.4-15s-19.5,6.8-19.5,15c0,8.3-3.8,16.3-8.4,17.8s-20.5,2.5-26.4-3.4
			c-5.9-5.8-16.8-4.4-24.4,3.1c-7.6,7.6-9,18.5-3.1,24.4c5.8,5.9,8.9,14.1,6.7,18.4c-2.2,4.3-12.8,16.4-21.1,16.4s-15,8.8-15,19.4
			c0,10.7,6.8,19.4,15,19.4c8.3,0,16.3,3.8,17.8,8.4c1.5,4.6,2.4,20.5-3.4,26.4s-4.5,16.8,3.1,24.4c7.6,7.6,18.5,8.9,24.4,3.1
			c5.8-5.8,14.1-8.9,18.4-6.7s16.4,12.8,16.4,21.1s8.8,15,19.5,15s19.4-6.8,19.4-15c0-8.3,3.8-16.3,8.4-17.8
			c4.6-1.5,20.5-2.5,26.4,3.4c5.8,5.8,16.8,4.5,24.4-3.1c7.6-7.6,9-18.5,3.1-24.4c-5.8-5.8-8.9-14.1-6.7-18.4
			S607.5,789.4,615.8,789.4"/>
	</g>
</g>
</svg>
