<?xml version="1.0" encoding="utf-8"?>
<!-- Generator: Adobe Illustrator 19.1.0, SVG Export Plug-In . SVG Version: 6.00 Build 0)  -->
<!DOCTYPE svg PUBLIC "-//W3C//DTD SVG 1.1//EN" "http://www.w3.org/Graphics/SVG/1.1/DTD/svg11.dtd">
<svg version="1.1" id="Layer_1" xmlns="http://www.w3.org/2000/svg" xmlns:xlink="http://www.w3.org/1999/xlink" x="0px" y="0px"
	 viewBox="0 0 1000 1000" style="enable-background:new 0 0 1000 1000;" xml:space="preserve">
<style type="text/css">
	.st0{opacity:0.2;}
	.st1{fill:#495259;}
</style>
<g class="st0">
	<path d="M406,665.1c-48.2,0-87.3-39.1-87.3-87.3s39.1-87.3,87.3-87.3s87.3,39.1,87.3,87.3S454.2,665.1,406,665.1 M557.5,604.1
		c12.7,0,25.5-6.1,25.5-18.8v-14.8c0-12.8-12.8-28.1-25.5-28.1h-1c-12.7,0-25.1-3.5-27.4-10.7c-2.3-7.3-4-30.9,5-39.9l0.7-0.1
		c9-9,9-23.4,0-32.4l-10.5-10.4c-9-9-23.7-8.9-32.7,0.1l-0.7,0.8c-9,9-23.6,13.6-30.3,10.1c-6.7-3.4-27.5-19.8-27.5-32.6v-1
		c0-12.7-6.8-25.2-19.5-25.2h-14.9c-12.7,0-27.4,12.4-27.4,25.2v1c0,12.7-3.8,25.1-11.1,27.4c-7.2,2.4-31,4-40-5L320,449
		c-9-9-23.5-9-32.5,0l-10.4,10.5c-9,9-8.9,23.7,0.1,32.7l0.7,0.7c9,9,13.6,19.4,10.2,26.1c-3.4,6.7-19.9,23.3-32.6,23.3h-1
		c-12.7,0-24.5,15.3-24.5,28.1v14.8c0,12.7,11.7,18.8,24.5,18.8h1c12.7,0,25.1,8.1,27.4,15.3c2.4,7.2,4.1,33.2-5,42.1l-0.7,1.3
		c-9,9-9,24,0,33l10.5,10.7c9,9,23.7,9.1,32.7,0.1l0.7-0.7c9-9,19.7-13.6,26.4-10.1c6.7,3.4,23.6,19.9,23.6,32.6v1
		c0,12.7,14.7,24.8,27.4,24.8h14.9c12.7,0,19.5-12.1,19.5-24.8v-1c0-12.7,7.7-25.1,14.9-27.4c7.2-2.4,33-4,42,5l1.2,0.7
		c9,9,24,9,32.9,0l10.6-10.5c9-9,9.1-23.7,0.1-32.7l-0.7-0.7c-9-9-13.6-23.9-10.1-30.6c3.4-6.7,19.9-27.9,32.6-27.9L557.5,604.1
		L557.5,604.1z"/>
	<path d="M691.7,474.6c-39.4,0-71.4-32-71.4-71.4s32-71.4,71.4-71.4c39.5,0,71.4,32,71.4,71.4C763.2,442.6,731.2,474.6,691.7,474.6
		 M812.9,428.2c10.7,0,17.1-10.4,17.1-23.1v-3.7c0-12.7-6.4-23.1-17.1-23.1c-10.6,0-19.8-4.8-21.7-10.8c-1.9-5.9-2.6-26.4,4.9-33.9
		s6.6-21-2.4-30.1l-2.5-2.6c-9-9-22.4-10.2-30-2.7c-7.5,7.5-18.1,11.4-23.6,8.6s-21-16.6-21-27.2c0-10.7-10.4-19.5-23.1-19.5h-3.7
		c-12.7,0-23.1,8.9-23.1,19.5s-4.8,21-10.8,22.9c-5.9,1.9-26.4,3.2-33.9-4.3s-21-6.3-30.1,2.7l-2.6,2.6c-9,9-10.2,22.5-2.7,30.1
		c7.5,7.5,11.4,18.2,8.6,23.6c-2.8,5.5-17.1,21.1-27.7,21.1c-10.6,0-19.9,10.4-19.9,23.1v3.7c0,12.7,9.3,23.1,19.9,23.1
		c10.6,0,21.2,4.8,23.1,10.8c1.9,5.9,3.3,26.4-4.2,33.9s-6.2,21,2.8,30l2.7,2.6c9,9,22.5,10.2,30.1,2.7c7.5-7.5,18.2-11.4,23.6-8.6
		c5.5,2.8,21.1,14.6,21.1,25.2c0,10.6,10.4,17.5,23.1,17.5h3.7c12.7,0,23.1-6.8,23.1-17.5c0-10.6,4.8-20,10.8-21.9
		c5.9-1.9,26.4-2.7,33.9,4.8c7.5,7.5,21,6.6,30-2.5l2.7-2.5c9-9,10.2-22.4,2.7-30c-7.5-7.5-12.5-18.1-9.7-23.6
		C789.8,443.7,802.3,428.2,812.9,428.2"/>
	<path d="M691.7,744.5c-30.7,0-55.6-24.9-55.6-55.6c0-30.7,24.9-55.6,55.6-55.6c30.7,0,55.6,24.9,55.6,55.6S722.4,744.5,691.7,744.5
		 M787.8,708.4c8.3,0,15.1-8.7,15.1-19.4s-6.8-19.4-15.1-19.4s-16.3-3.8-17.8-8.4c-1.5-4.6-2.5-20.5,3.4-26.4
		c5.8-5.8,4.5-16.8-3.1-24.4c-7.6-7.6-18.5-8.9-24.4-3.1c-5.8,5.9-14.1,8.9-18.4,6.7c-4.3-2.2-16.4-12.8-16.4-21.1s-8.7-15-19.4-15
		s-19.5,6.8-19.5,15c0,8.3-3.8,16.3-8.4,17.8c-4.6,1.5-20.5,2.5-26.4-3.4c-5.9-5.8-16.8-4.4-24.4,3.1c-7.6,7.6-9,18.5-3.1,24.4
		c5.8,5.9,8.9,14.1,6.7,18.4c-2.2,4.3-12.8,16.4-21.1,16.4s-15,8.8-15,19.4c0,10.7,6.8,19.4,15,19.4c8.3,0,16.3,3.8,17.8,8.4
		c1.5,4.6,2.4,20.5-3.4,26.4c-5.8,5.9-4.5,16.8,3.1,24.4c7.6,7.6,18.5,8.9,24.4,3.1c5.8-5.8,14.1-8.9,18.4-6.7
		c4.3,2.2,16.4,12.8,16.4,21.1s8.8,15,19.5,15s19.4-6.8,19.4-15c0-8.3,3.8-16.3,8.4-17.8c4.6-1.5,20.5-2.5,26.4,3.4
		c5.8,5.8,16.8,4.5,24.4-3.1c7.6-7.6,9-18.5,3.1-24.4c-5.8-5.8-8.9-14.1-6.7-18.4S779.5,708.4,787.8,708.4"/>
</g>
<g>
	<path class="st1" d="M376,635.1c-48.2,0-87.3-39.1-87.3-87.3s39.1-87.3,87.3-87.3s87.3,39.1,87.3,87.3S424.2,635.1,376,635.1
		 M527.5,574.1c12.7,0,25.5-6.1,25.5-18.8v-14.8c0-12.8-12.8-28.1-25.5-28.1h-1c-12.7,0-25.1-3.5-27.4-10.7c-2.3-7.3-4-30.9,5-39.9
		l0.7-0.1c9-9,9-23.4,0-32.4l-10.5-10.4c-9-9-23.7-8.9-32.7,0.1l-0.7,0.8c-9,9-23.6,13.6-30.3,10.1c-6.7-3.4-27.5-19.8-27.5-32.6v-1
		c0-12.7-6.8-25.2-19.5-25.2h-14.9c-12.7,0-27.4,12.4-27.4,25.2v1c0,12.7-3.8,25.1-11.1,27.4c-7.2,2.4-31,4-40-5L290,419
		c-9-9-23.5-9-32.5,0l-10.4,10.5c-9,9-8.9,23.7,0.1,32.7l0.7,0.7c9,9,13.6,19.4,10.2,26.1s-19.9,23.3-32.6,23.3h-1
		c-12.7,0-24.5,15.3-24.5,28.1v14.8c0,12.7,11.7,18.8,24.5,18.8h1c12.7,0,25.1,8.1,27.4,15.3c2.4,7.2,4.1,33.2-5,42.1l-0.7,1.3
		c-9,9-9,24,0,33l10.5,10.7c9,9,23.7,9.1,32.7,0.1l0.7-0.7c9-9,19.7-13.6,26.4-10.1c6.7,3.4,23.6,19.9,23.6,32.6v1
		c0,12.7,14.7,24.8,27.4,24.8h14.9c12.7,0,19.5-12.1,19.5-24.8v-1c0-12.7,7.7-25.1,14.9-27.4c7.2-2.4,33-4,42,5l1.2,0.7
		c9,9,24,9,32.9,0l10.6-10.5c9-9,9.1-23.7,0.1-32.7l-0.7-0.7c-9-9-13.6-23.9-10.1-30.6c3.4-6.7,19.9-27.9,32.6-27.9L527.5,574.1
		L527.5,574.1z"/>
	<path class="st1" d="M661.7,444.6c-39.4,0-71.4-32-71.4-71.4s32-71.4,71.4-71.4c39.5,0,71.4,32,71.4,71.4
		C733.2,412.6,701.2,444.6,661.7,444.6 M782.9,398.2c10.7,0,17.1-10.4,17.1-23.1v-3.7c0-12.7-6.4-23.1-17.1-23.1
		c-10.6,0-19.8-4.8-21.7-10.8c-1.9-5.9-2.6-26.4,4.9-33.9s6.6-21-2.4-30.1l-2.5-2.6c-9-9-22.4-10.2-30-2.7
		c-7.5,7.5-18.1,11.4-23.6,8.6s-21-16.6-21-27.2c0-10.7-10.4-19.5-23.1-19.5h-3.7c-12.7,0-23.1,8.9-23.1,19.5
		c0,10.6-4.8,21-10.8,22.9c-5.9,1.9-26.4,3.2-33.9-4.3s-21-6.3-30.1,2.7l-2.6,2.6c-9,9-10.2,22.5-2.7,30.1
		c7.5,7.5,11.4,18.2,8.6,23.6c-2.8,5.5-17.1,21.1-27.7,21.1c-10.6,0-19.9,10.4-19.9,23.1v3.7c0,12.7,9.3,23.1,19.9,23.1
		c10.6,0,21.2,4.8,23.1,10.8c1.9,5.9,3.3,26.4-4.2,33.9s-6.2,21,2.8,30l2.7,2.6c9,9,22.5,10.2,30.1,2.7c7.5-7.5,18.2-11.4,23.6-8.6
		c5.5,2.8,21.1,14.6,21.1,25.2s10.4,17.5,23.1,17.5h3.7c12.7,0,23.1-6.8,23.1-17.5c0-10.6,4.8-20,10.8-21.9
		c5.9-1.9,26.4-2.7,33.9,4.8s21,6.6,30-2.5l2.7-2.5c9-9,10.2-22.4,2.7-30c-7.5-7.5-12.5-18.1-9.7-23.6
		C759.8,413.7,772.3,398.2,782.9,398.2"/>
	<path class="st1" d="M661.7,714.5c-30.7,0-55.6-24.9-55.6-55.6c0-30.7,24.9-55.6,55.6-55.6c30.7,0,55.6,24.9,55.6,55.6
		S692.4,714.5,661.7,714.5 M757.8,678.4c8.3,0,15.1-8.7,15.1-19.4s-6.8-19.4-15.1-19.4s-16.3-3.8-17.8-8.4
		c-1.5-4.6-2.5-20.5,3.4-26.4c5.8-5.8,4.5-16.8-3.1-24.4c-7.6-7.6-18.5-8.9-24.4-3.1c-5.8,5.9-14.1,8.9-18.4,6.7
		c-4.3-2.2-16.4-12.8-16.4-21.1s-8.7-15-19.4-15s-19.5,6.8-19.5,15c0,8.3-3.8,16.3-8.4,17.8c-4.6,1.5-20.5,2.5-26.4-3.4
		c-5.9-5.8-16.8-4.4-24.4,3.1c-7.6,7.6-9,18.5-3.1,24.4c5.8,5.9,8.9,14.1,6.7,18.4c-2.2,4.3-12.8,16.4-21.1,16.4s-15,8.8-15,19.4
		c0,10.7,6.8,19.4,15,19.4c8.3,0,16.3,3.8,17.8,8.4c1.5,4.6,2.4,20.5-3.4,26.4c-5.8,5.9-4.5,16.8,3.1,24.4
		c7.6,7.6,18.5,8.9,24.4,3.1c5.8-5.8,14.1-8.9,18.4-6.7c4.3,2.2,16.4,12.8,16.4,21.1s8.8,15,19.5,15s19.4-6.8,19.4-15
		c0-8.3,3.8-16.3,8.4-17.8c4.6-1.5,20.5-2.5,26.4,3.4c5.8,5.8,16.8,4.5,24.4-3.1c7.6-7.6,9-18.5,3.1-24.4
		c-5.8-5.8-8.9-14.1-6.7-18.4S749.5,678.4,757.8,678.4"/>
</g>
</svg>
