<?xml version="1.0" encoding="utf-8"?>
<!-- Generator: Adobe Illustrator 19.1.0, SVG Export Plug-In . SVG Version: 6.00 Build 0)  -->
<!DOCTYPE svg PUBLIC "-//W3C//DTD SVG 1.1//EN" "http://www.w3.org/Graphics/SVG/1.1/DTD/svg11.dtd">
<svg version="1.1" xmlns="http://www.w3.org/2000/svg" xmlns:xlink="http://www.w3.org/1999/xlink" x="0px" y="0px"
	 viewBox="0 0 2016.5 1000" style="enable-background:new 0 0 2016.5 1000;" xml:space="preserve">
<style type="text/css">
	.st0{fill:#FFFFFF;}
	.st1{opacity:0.2;}
	.st2{fill:#FBFBFB;}
	.st3{fill:#4A525A;}
	.st4{fill:#515151;}
</style>
<g id="Layer_1">
</g>
<g id="Layer_2">
	<g>
		<path class="st0" d="M1338.2,299.7c-4.2,0-7.4,1.7-9.8,5.1c-2.3,3.4-3.5,8.1-3.5,14.1c0,12.5,4.7,18.7,14.2,18.7
			c2.9,0,5.6-0.4,8.3-1.2s5.4-1.8,8.1-2.9v14.8c-5.4,2.4-11.5,3.6-18.4,3.6c-9.8,0-17.3-2.8-22.5-8.5c-5.2-5.7-7.8-13.9-7.8-24.6
			c0-6.7,1.3-12.6,3.8-17.7c2.5-5.1,6.2-9,10.9-11.7c4.7-2.7,10.3-4.1,16.7-4.1c7,0,13.7,1.5,20.1,4.6l-5.4,13.8
			c-2.4-1.1-4.8-2.1-7.2-2.8C1343.5,300.1,1340.9,299.7,1338.2,299.7z"/>
		<path class="st0" d="M1423.3,286.3v39c0,8.5-2.4,15-7.2,19.7c-4.8,4.7-11.7,7-20.8,7c-8.8,0-15.6-2.3-20.4-6.8
			c-4.7-4.5-7.1-11-7.1-19.5v-39.4h17.6v38c0,4.6,0.9,7.9,2.6,10c1.7,2.1,4.2,3.1,7.6,3.1c3.6,0,6.2-1,7.8-3.1
			c1.6-2.1,2.4-5.4,2.4-10.1v-37.9H1423.3z"/>
		<path class="st0" d="M1454.5,327.5v23.6h-17.5v-64.8h21.2c17.6,0,26.4,6.4,26.4,19.2c0,7.5-3.7,13.3-11,17.4l18.9,28.2h-19.9
			l-13.7-23.6H1454.5z M1454.5,314.3h3.3c6.1,0,9.2-2.7,9.2-8.1c0-4.5-3-6.7-9-6.7h-3.5V314.3z"/>
		<path class="st0" d="M1515.9,327.5v23.6h-17.5v-64.8h21.2c17.6,0,26.4,6.4,26.4,19.2c0,7.5-3.7,13.3-11,17.4l18.9,28.2h-19.9
			l-13.7-23.6H1515.9z M1515.9,314.3h3.3c6.1,0,9.2-2.7,9.2-8.1c0-4.5-3-6.7-9-6.7h-3.5V314.3z"/>
		<path class="st0" d="M1598.3,351.1h-38.5v-64.8h38.5v14.1h-21v10.2h19.4v14.1h-19.4v12.2h21V351.1z"/>
		<path class="st0" d="M1671.4,351.1h-23l-23.7-45.7h-0.4c0.6,7.2,0.8,12.7,0.8,16.4v29.2h-15.5v-64.8h22.9l23.6,45h0.3
			c-0.4-6.5-0.6-11.8-0.6-15.7v-29.3h15.6V351.1z"/>
		<path class="st0" d="M1714,351.1h-17.5v-50.5h-15.8v-14.3h49.1v14.3H1714V351.1z"/>
		<path class="st0" d="M1335.9,432.6h-17.2v-64.8h38.3v14.1h-21.1v12.4h19.4v14.1h-19.4V432.6z"/>
		<path class="st0" d="M1422.7,367.8v39c0,8.5-2.4,15-7.2,19.7c-4.8,4.7-11.7,7-20.8,7c-8.8,0-15.6-2.3-20.4-6.8
			c-4.7-4.5-7.1-11-7.1-19.5v-39.4h17.6v38c0,4.6,0.9,7.9,2.6,10c1.7,2.1,4.2,3.1,7.6,3.1c3.6,0,6.2-1,7.8-3.1
			c1.6-2.1,2.4-5.4,2.4-10.1v-37.9H1422.7z"/>
		<path class="st0" d="M1498.1,432.6h-23l-23.7-45.7h-0.4c0.6,7.2,0.8,12.7,0.8,16.4v29.2h-15.5v-64.8h22.9l23.6,45h0.3
			c-0.4-6.5-0.6-11.8-0.6-15.7v-29.3h15.6V432.6z"/>
		<path class="st0" d="M1567.1,398.8c0,10.8-3,19.2-8.9,25s-14.3,8.8-25.1,8.8h-21v-64.8h22.4c10.4,0,18.4,2.7,24.1,8
			C1564.2,381,1567.1,388.7,1567.1,398.8z M1548.9,399.4c0-5.9-1.2-10.3-3.5-13.2c-2.3-2.9-5.9-4.3-10.7-4.3h-5.1v36.3h3.9
			c5.3,0,9.2-1.5,11.7-4.6C1547.7,410.5,1548.9,405.8,1548.9,399.4z"/>
		<path class="st0" d="M1578.7,432.6v-64.8h17.6v64.8H1578.7z"/>
		<path class="st0" d="M1672,432.6h-23l-23.7-45.7h-0.4c0.6,7.2,0.8,12.7,0.8,16.4v29.2h-15.5v-64.8h22.9l23.6,45h0.3
			c-0.4-6.5-0.6-11.8-0.6-15.7v-29.3h15.6V432.6z"/>
		<path class="st0" d="M1712,394.6h28v34.9c-7.6,2.6-15.9,3.9-25,3.9c-10,0-17.7-2.9-23.2-8.7c-5.5-5.8-8.2-14.1-8.2-24.8
			c0-10.5,3-18.6,9-24.4c6-5.8,14.3-8.7,25.1-8.7c4.1,0,7.9,0.4,11.5,1.2c3.6,0.8,6.8,1.7,9.5,2.9l-5.5,13.7
			c-4.7-2.3-9.8-3.5-15.4-3.5c-5.1,0-9.1,1.7-11.9,5s-4.2,8.1-4.2,14.3c0,6.1,1.3,10.7,3.8,13.9c2.5,3.2,6.2,4.8,10.9,4.8
			c2.6,0,5-0.3,7.2-0.8v-10.2H1712V394.6z"/>
	</g>
	<g>
		<path class="st0" d="M274.6,798.7c-12.5-0.6-24.5-3.4-36.1-8.4v-28.4c6.6,3.4,13.8,6.2,21.5,8.4c7.7,2.3,14.6,3.4,20.4,3.4
			c4.8,0,8.4-0.6,10.6-1.8c2.2-1.2,3.4-3.1,3.4-5.9c0-1.9-0.8-3.5-2.4-4.8c-1.6-1.3-4.3-2.8-8.1-4.4c-3.8-1.7-8.9-3.6-15.3-6
			c-7.2-2.7-13.1-5.7-17.5-9c-4.4-3.3-7.7-7.1-9.7-11.2c-2-4.1-3-9.3-3-15.4c0-9.4,3-16.8,9.1-22c6-5.3,15.1-8.6,27.2-9.8v-11.7
			h17.7v11.5c11.3,0.6,22.8,3.4,34.3,8.4l-10.2,24.4c-11.9-5.4-22.6-8-32.2-8c-4.6,0-7.8,0.6-9.6,1.7c-1.9,1.1-2.8,2.7-2.8,4.9
			c0,1.9,0.7,3.4,2,4.7c1.3,1.2,3.7,2.6,7,4.1c3.3,1.5,7.9,3.3,13.8,5.3c11.9,4.2,20.5,9,25.6,14.4c5.2,5.4,7.8,12.3,7.8,20.8
			c0,9.6-3,17.3-9.1,23.3s-14.9,9.7-26.5,11.1v16.5h-17.7V798.7z"/>
		<path class="st0" d="M430,804.5h-90.7v-22.2l30.5-30.9c8.7-9.1,14.4-15.3,17.1-18.7c2.7-3.3,4.5-6.2,5.6-8.6
			c1.1-2.4,1.6-4.9,1.6-7.5c0-3.2-1.1-5.8-3.2-7.7c-2.1-1.9-5.1-2.8-8.9-2.8c-3.9,0-7.9,1.1-11.9,3.4c-4,2.3-8.6,5.6-13.6,10
			l-18.5-21.7c6.4-5.8,11.9-9.9,16.2-12.3c4.4-2.5,9.2-4.4,14.3-5.7c5.2-1.3,11-2,17.4-2c8.1,0,15.3,1.4,21.7,4.3
			c6.4,2.8,11.3,6.9,14.8,12.2c3.5,5.3,5.3,11.2,5.3,17.7c0,4.9-0.6,9.4-1.8,13.6c-1.2,4.2-3.1,8.2-5.7,12.3c-2.6,4-6,8.2-10.2,12.7
			c-4.2,4.4-13.3,12.9-27.1,25.3v0.9H430V804.5z"/>
		<path class="st0" d="M504.6,804.5l-25.6-90h-0.8c1.2,15.3,1.8,27.2,1.8,35.7v54.3h-29.9V679.5h45l26.1,88.7h0.7l25.6-88.7h45
			v124.9h-31v-54.8c0-2.8,0-6,0.1-9.5c0.1-3.5,0.5-12,1.2-25.6h-0.8l-25.2,89.8H504.6z"/>
		<path class="st0" d="M673.8,804.5l-25.6-90h-0.8c1.2,15.3,1.8,27.2,1.8,35.7v54.3h-29.9V679.5h45l26.1,88.7h0.7l25.6-88.7h45
			v124.9h-31v-54.8c0-2.8,0-6,0.1-9.5c0.1-3.5,0.5-12,1.2-25.6h-0.8l-25.2,89.8H673.8z"/>
		<path class="st0" d="M260.7,845.3c0,1.7-0.4,3.2-1.3,4.5c-0.9,1.3-2.1,2.3-3.7,3c-1.6,0.7-3.5,1.1-5.7,1.1c-1.8,0-3.3-0.1-4.6-0.4
			c-1.2-0.3-2.5-0.7-3.8-1.3v-6.5c1.4,0.7,2.9,1.3,4.4,1.7c1.5,0.4,2.9,0.6,4.2,0.6c1.1,0,1.9-0.2,2.4-0.6c0.5-0.4,0.8-0.9,0.8-1.5
			c0-0.4-0.1-0.7-0.3-1c-0.2-0.3-0.5-0.6-1-0.8c-0.5-0.3-1.7-0.9-3.6-1.7c-1.8-0.8-3.1-1.6-4-2.3c-0.9-0.8-1.5-1.6-2-2.6
			c-0.4-1-0.6-2.1-0.6-3.5c0-2.5,0.9-4.5,2.7-5.9c1.8-1.4,4.3-2.1,7.5-2.1c2.8,0,5.7,0.7,8.6,2l-2.2,5.7c-2.5-1.2-4.7-1.7-6.6-1.7
			c-1,0-1.6,0.2-2.1,0.5c-0.4,0.3-0.7,0.8-0.7,1.2c0,0.5,0.3,1,0.8,1.4c0.6,0.4,2,1.2,4.5,2.3c2.3,1.1,4,2.2,4.9,3.4
			C260.3,841.9,260.7,843.4,260.7,845.3z"/>
		<path class="st0" d="M281.1,853.5h-16.1v-27.2h16.1v5.9h-8.8v4.3h8.1v5.9h-8.1v5.1h8.8V853.5z"/>
		<path class="st0" d="M302,853.5h-16.1v-27.2H302v5.9h-8.8v4.3h8.1v5.9h-8.1v5.1h8.8V853.5z"/>
		<path class="st0" d="M329.8,839.3c0,4.5-1.2,8-3.7,10.5c-2.5,2.5-6,3.7-10.5,3.7h-8.8v-27.2h9.4c4.4,0,7.7,1.1,10.1,3.3
			S329.8,835.1,329.8,839.3z M322.2,839.6c0-2.5-0.5-4.3-1.5-5.5c-1-1.2-2.5-1.8-4.5-1.8h-2.1v15.2h1.6c2.2,0,3.9-0.6,4.9-1.9
			C321.7,844.3,322.2,842.3,322.2,839.6z"/>
		<path class="st0" d="M351.9,843.6v9.9h-7.3v-27.2h8.9c7.4,0,11.1,2.7,11.1,8c0,3.1-1.5,5.6-4.6,7.3l7.9,11.8h-8.3l-5.8-9.9H351.9z
			 M351.9,838.1h1.4c2.6,0,3.8-1.1,3.8-3.4c0-1.9-1.3-2.8-3.8-2.8h-1.5V838.1z"/>
		<path class="st0" d="M395.8,839.9c0,4.6-1.1,8-3.4,10.4c-2.2,2.4-5.5,3.6-9.9,3.6c-4.3,0-7.5-1.2-9.8-3.6s-3.4-5.9-3.4-10.4
			c0-4.5,1.1-8,3.4-10.4c2.3-2.4,5.5-3.6,9.9-3.6c4.3,0,7.6,1.2,9.8,3.6C394.6,831.8,395.8,835.3,395.8,839.9z M377.1,839.9
			c0,5.3,1.8,7.9,5.5,7.9c1.9,0,3.2-0.6,4.1-1.9c0.9-1.3,1.3-3.3,1.3-6c0-2.7-0.5-4.7-1.4-6c-0.9-1.3-2.3-1.9-4.1-1.9
			C378.9,831.9,377.1,834.6,377.1,839.9z"/>
		<path class="st0" d="M423.8,826.3v16.4c0,3.6-1,6.3-3,8.3c-2,2-4.9,2.9-8.7,2.9c-3.7,0-6.6-0.9-8.5-2.8c-2-1.9-3-4.6-3-8.2v-16.5
			h7.4v16c0,1.9,0.4,3.3,1.1,4.2c0.7,0.9,1.8,1.3,3.2,1.3c1.5,0,2.6-0.4,3.3-1.3c0.7-0.9,1-2.3,1-4.2v-15.9H423.8z"/>
		<path class="st0" d="M455.4,853.5h-9.6l-9.9-19.1h-0.2c0.2,3,0.4,5.3,0.4,6.9v12.3h-6.5v-27.2h9.6l9.9,18.9h0.1
			c-0.2-2.7-0.3-4.9-0.3-6.6v-12.3h6.5V853.5z"/>
		<path class="st0" d="M484.3,839.3c0,4.5-1.2,8-3.7,10.5c-2.5,2.5-6,3.7-10.5,3.7h-8.8v-27.2h9.4c4.4,0,7.7,1.1,10.1,3.3
			C483.1,831.9,484.3,835.1,484.3,839.3z M476.7,839.6c0-2.5-0.5-4.3-1.5-5.5c-1-1.2-2.5-1.8-4.5-1.8h-2.1v15.2h1.6
			c2.2,0,3.9-0.6,4.9-1.9C476.2,844.3,476.7,842.3,476.7,839.6z"/>
		<path class="st0" d="M499.1,853.5v-27.2h7.4v27.2H499.1z"/>
		<path class="st0" d="M538.2,853.5h-9.6l-9.9-19.1h-0.2c0.2,3,0.4,5.3,0.4,6.9v12.3h-6.5v-27.2h9.6l9.9,18.9h0.1
			c-0.2-2.7-0.3-4.9-0.3-6.6v-12.3h6.5V853.5z"/>
		<path class="st0" d="M570.6,853.5l-1.3-5.1h-8.8l-1.4,5.1H551l8.9-27.3h9.8l9,27.3H570.6z M567.8,842.4l-1.2-4.5
			c-0.3-1-0.6-2.3-1-3.8c-0.4-1.6-0.6-2.7-0.8-3.4c-0.1,0.6-0.3,1.7-0.7,3.1c-0.3,1.4-1.1,4.3-2.2,8.6H567.8z"/>
		<path class="st0" d="M601.3,835c0,3-0.9,5.4-2.7,7c-1.8,1.7-4.3,2.5-7.6,2.5h-2.1v9h-7.3v-27.2h9.4c3.4,0,6,0.8,7.7,2.2
			C600.5,830.1,601.3,832.2,601.3,835z M588.9,838.5h1.3c1.1,0,2-0.3,2.6-0.9c0.7-0.6,1-1.5,1-2.6c0-1.8-1-2.8-3-2.8h-1.9V838.5z"/>
		<path class="st0" d="M613,843.6v9.9h-7.3v-27.2h8.9c7.4,0,11.1,2.7,11.1,8c0,3.1-1.5,5.6-4.6,7.3l7.9,11.8h-8.3l-5.8-9.9H613z
			 M613,838.1h1.4c2.6,0,3.8-1.1,3.8-3.4c0-1.9-1.3-2.8-3.8-2.8H613V838.1z"/>
		<path class="st0" d="M631.4,853.5v-27.2h7.4v27.2H631.4z"/>
		<path class="st0" d="M644.7,853.5v-27.2h7.3v21.2h10.5v5.9H644.7z"/>
		<path class="st0" d="M694.6,853.5h-19.7v-4.8l6.6-6.7c1.9-2,3.1-3.3,3.7-4.1c0.6-0.7,1-1.3,1.2-1.9c0.2-0.5,0.3-1.1,0.3-1.6
			c0-0.7-0.2-1.3-0.7-1.7c-0.5-0.4-1.1-0.6-1.9-0.6c-0.9,0-1.7,0.2-2.6,0.7s-1.9,1.2-3,2.2l-4-4.7c1.4-1.3,2.6-2.1,3.5-2.7
			c1-0.5,2-1,3.1-1.2c1.1-0.3,2.4-0.4,3.8-0.4c1.8,0,3.3,0.3,4.7,0.9c1.4,0.6,2.5,1.5,3.2,2.6c0.8,1.1,1.1,2.4,1.1,3.9
			c0,1.1-0.1,2.1-0.4,3c-0.3,0.9-0.7,1.8-1.2,2.7c-0.6,0.9-1.3,1.8-2.2,2.8c-0.9,1-2.9,2.8-5.9,5.5v0.2h10.3V853.5z"/>
		<path class="st0" d="M717.1,840c0,4.8-0.8,8.3-2.4,10.6c-1.6,2.2-4.1,3.4-7.4,3.4c-3.2,0-5.7-1.2-7.3-3.5
			c-1.6-2.3-2.5-5.8-2.5-10.4c0-4.8,0.8-8.4,2.4-10.6c1.6-2.3,4.1-3.4,7.4-3.4c3.2,0,5.7,1.2,7.3,3.5
			C716.2,831.8,717.1,835.3,717.1,840z M704.7,840c0,3.1,0.2,5.2,0.6,6.3c0.4,1.2,1,1.7,1.9,1.7c0.9,0,1.6-0.6,1.9-1.8
			c0.4-1.2,0.6-3.3,0.6-6.3c0-3-0.2-5.1-0.6-6.3c-0.4-1.2-1-1.8-1.9-1.8c-0.9,0-1.5,0.6-1.9,1.7C704.9,834.7,704.7,836.9,704.7,840z
			"/>
		<path class="st0" d="M735.9,853.5h-7.5v-14.4c0-1.7,0-3.3,0.1-4.8c-0.5,0.6-1,1.1-1.7,1.7l-3.1,2.5l-3.8-4.7l9.3-7.6h6.6V853.5z"
			/>
		<path class="st0" d="M753,835.7c1.6,0,3,0.4,4.2,1.1c1.3,0.7,2.2,1.8,2.9,3.1c0.7,1.3,1.1,2.9,1.1,4.6c0,3-0.9,5.4-2.7,7
			c-1.8,1.6-4.6,2.4-8.3,2.4c-3.2,0-5.8-0.5-7.8-1.5v-6c1.1,0.5,2.3,0.9,3.7,1.2c1.4,0.3,2.5,0.5,3.5,0.5c1.4,0,2.4-0.3,3.1-0.9
			c0.7-0.6,1.1-1.4,1.1-2.6c0-1-0.4-1.9-1.1-2.4c-0.7-0.6-1.9-0.9-3.4-0.9c-1.2,0-2.4,0.2-3.7,0.7l-2.7-1.3l1-14.4h15.5v6.1h-9.3
			l-0.3,3.6c1-0.2,1.7-0.3,2.1-0.3C752.3,835.7,752.7,835.7,753,835.7z"/>
	</g>
	<g>
		<path class="st0" d="M1297.5,482.3l0.4-2h22.9l-0.4,2H1297.5z"/>
		<path class="st0" d="M1329.6,488.2l3.9-18.6h2.2l-3.5,16.6h7.2l-0.4,2H1329.6z"/>
		<path class="st0" d="M1347.1,488.5c-1.6,0-2.8-0.5-3.7-1.4s-1.3-2.2-1.3-3.8c0-1.6,0.3-3.1,0.9-4.6c0.6-1.5,1.5-2.6,2.5-3.4
			s2.2-1.2,3.4-1.2c1.3,0,2.3,0.3,2.9,0.8c0.7,0.6,1,1.3,1,2.4c0,1.5-0.7,2.7-2.1,3.6c-1.4,0.9-3.4,1.3-6,1.3h-0.4l-0.1,1
			c0,1.1,0.3,2,0.8,2.6s1.3,0.9,2.4,0.9c0.5,0,1.1-0.1,1.6-0.2c0.6-0.2,1.3-0.4,2.1-0.8v1.9c-0.8,0.4-1.5,0.6-2.1,0.8
			S1347.8,488.5,1347.1,488.5z M1348.8,475.9c-0.9,0-1.7,0.4-2.5,1.2c-0.8,0.8-1.4,1.9-1.8,3.3h0.2c1.9,0,3.4-0.3,4.4-0.8
			s1.5-1.2,1.5-2.2c0-0.4-0.2-0.8-0.5-1.1C1350,476,1349.5,475.9,1348.8,475.9z"/>
		<path class="st0" d="M1361.7,474.1c0.8,0,1.5,0.2,2.1,0.6s1.1,1,1.4,1.8h0.1l0.9-2.2h1.6l-3,13.9h-1.7l0.3-2.7h-0.1
			c-1.5,1.9-3.1,2.9-4.8,2.9c-1.2,0-2.1-0.4-2.8-1.3c-0.7-0.8-1-2-1-3.4c0-1.8,0.3-3.4,0.9-4.9c0.6-1.5,1.4-2.7,2.5-3.5
			C1359.3,474.5,1360.5,474.1,1361.7,474.1z M1359.3,486.7c0.8,0,1.6-0.4,2.5-1.2s1.5-1.8,2-3.1s0.8-2.5,0.8-3.8
			c0-0.9-0.2-1.6-0.7-2.1c-0.5-0.5-1.1-0.8-1.9-0.8c-0.9,0-1.7,0.4-2.5,1.1c-0.8,0.7-1.4,1.7-1.8,3s-0.6,2.6-0.6,3.9
			c0,1,0.2,1.7,0.6,2.2C1358.1,486.5,1358.6,486.7,1359.3,486.7z"/>
		<path class="st0" d="M1376.4,474.1c1.6,0,2.8,0.8,3.6,2.4h0.1c0.1-1.3,0.3-2.5,0.6-3.5l1-4.5h2.1l-4.2,19.8h-1.8l0.3-2.7h-0.1
			c-0.9,1.1-1.7,1.8-2.4,2.2c-0.7,0.4-1.5,0.7-2.3,0.7c-1.2,0-2.1-0.4-2.8-1.2s-1-2-1-3.5c0-1.8,0.3-3.5,0.9-5s1.4-2.7,2.5-3.5
			C1374,474.5,1375.1,474.1,1376.4,474.1z M1374,486.7c0.8,0,1.6-0.4,2.5-1.2c0.8-0.8,1.5-1.8,2-3c0.5-1.2,0.7-2.5,0.7-3.8
			c0-0.9-0.2-1.7-0.7-2.1s-1.1-0.7-2-0.7c-0.9,0-1.6,0.3-2.4,1c-0.7,0.7-1.3,1.7-1.8,2.9s-0.7,2.6-0.7,4
			C1371.7,485.8,1372.5,486.7,1374,486.7z"/>
		<path class="st0" d="M1391.2,488.2l3.9-18.6h2.1l-3.9,18.6H1391.2z"/>
		<path class="st0" d="M1406.4,488.2l1.9-8.8c0.2-0.9,0.3-1.5,0.3-1.8c0-0.5-0.2-1-0.5-1.3c-0.3-0.3-0.8-0.5-1.4-0.5
			c-0.8,0-1.5,0.3-2.2,0.8c-0.7,0.5-1.3,1.2-1.9,2.2c-0.5,0.9-1,2.1-1.2,3.4l-1.3,6h-2.1l3-13.9h1.8l-0.3,2.6h0.1
			c0.8-1,1.6-1.8,2.4-2.2c0.8-0.4,1.5-0.6,2.4-0.6c1.1,0,1.9,0.3,2.5,0.9c0.6,0.6,0.9,1.4,0.9,2.5c0,0.7-0.1,1.4-0.3,2.3l-1.8,8.5
			H1406.4z"/>
		<path class="st0" d="M1415,488.2l-1.6-13.9h2.1l0.8,7.8c0.2,2.2,0.3,3.7,0.3,4.6h0.1c1.1-2.3,1.8-3.9,2.3-4.7l4.1-7.7h2.3
			l-7.5,13.9H1415z"/>
		<path class="st0" d="M1430.4,488.5c-1.6,0-2.8-0.5-3.7-1.4s-1.3-2.2-1.3-3.8c0-1.6,0.3-3.1,0.9-4.6c0.6-1.5,1.5-2.6,2.5-3.4
			s2.2-1.2,3.4-1.2c1.3,0,2.3,0.3,2.9,0.8s1,1.3,1,2.4c0,1.5-0.7,2.7-2.1,3.6s-3.4,1.3-6,1.3h-0.4l-0.1,1c0,1.1,0.3,2,0.8,2.6
			c0.5,0.6,1.3,0.9,2.4,0.9c0.5,0,1.1-0.1,1.6-0.2c0.6-0.2,1.3-0.4,2.1-0.8v1.9c-0.8,0.4-1.5,0.6-2.1,0.8S1431.2,488.5,1430.4,488.5
			z M1432.2,475.9c-0.9,0-1.7,0.4-2.5,1.2c-0.8,0.8-1.4,1.9-1.8,3.3h0.2c1.9,0,3.4-0.3,4.4-0.8c1-0.5,1.5-1.2,1.5-2.2
			c0-0.4-0.2-0.8-0.5-1.1C1433.3,476,1432.9,475.9,1432.2,475.9z"/>
		<path class="st0" d="M1446.3,484.3c0,1.3-0.5,2.4-1.4,3.1c-0.9,0.7-2.3,1.1-4,1.1c-1.4,0-2.7-0.3-3.9-0.9v-2
			c0.6,0.4,1.2,0.6,1.9,0.8s1.3,0.3,1.9,0.3c1.1,0,1.9-0.2,2.4-0.6s0.8-1,0.8-1.6c0-0.5-0.1-0.9-0.4-1.2s-0.9-0.8-1.9-1.4
			c-1.1-0.6-1.9-1.2-2.3-1.8s-0.7-1.3-0.7-2.1c0-1.2,0.4-2.1,1.3-2.8s2-1.1,3.4-1.1c1.4,0,2.8,0.3,4.2,0.9l-0.7,1.7l-0.7-0.3
			c-0.9-0.4-1.8-0.5-2.8-0.5c-0.8,0-1.4,0.2-1.9,0.6s-0.7,0.8-0.7,1.4c0,0.5,0.2,0.9,0.5,1.2c0.3,0.3,0.9,0.8,1.9,1.3
			c0.9,0.5,1.6,0.9,1.9,1.3c0.4,0.4,0.7,0.8,0.9,1.2S1446.3,483.8,1446.3,484.3z"/>
		<path class="st0" d="M1453.2,486.7c0.5,0,1.1-0.1,1.8-0.3v1.6c-0.3,0.1-0.6,0.2-1.1,0.3s-0.8,0.1-1,0.1c-1.1,0-1.9-0.3-2.4-0.8
			c-0.6-0.5-0.8-1.3-0.8-2.3c0-0.6,0.1-1.2,0.2-1.9l1.6-7.6h-2.2l0.2-0.9l2.3-1l1.6-2.9h1.2l-0.7,3.2h3.5l-0.3,1.6h-3.5l-1.6,7.7
			c-0.2,0.7-0.2,1.3-0.2,1.7c0,0.5,0.1,0.8,0.4,1.1S1452.7,486.7,1453.2,486.7z"/>
		<path class="st0" d="M1464.7,474.1c1.6,0,2.9,0.5,3.8,1.4s1.4,2.3,1.4,3.9c0,1.6-0.3,3.1-0.9,4.5s-1.4,2.5-2.5,3.3
			s-2.2,1.2-3.5,1.2c-1.6,0-2.9-0.5-3.8-1.4s-1.4-2.3-1.4-3.9c0-1.6,0.3-3.1,0.9-4.5s1.5-2.5,2.5-3.3S1463.5,474.1,1464.7,474.1z
			 M1467.7,479.2c0-1-0.3-1.8-0.8-2.4c-0.5-0.6-1.2-0.9-2.2-0.9c-0.9,0-1.8,0.3-2.5,0.9c-0.7,0.6-1.3,1.5-1.7,2.6
			c-0.4,1.1-0.6,2.4-0.6,3.7c0,1.1,0.3,2,0.8,2.6c0.5,0.6,1.3,0.9,2.3,0.9c0.9,0,1.7-0.3,2.4-0.9s1.3-1.5,1.6-2.6
			C1467.5,482,1467.7,480.7,1467.7,479.2z"/>
		<path class="st0" d="M1480.7,474.1c0.6,0,1.1,0.1,1.5,0.2l-0.5,1.9c-0.4-0.1-0.9-0.2-1.3-0.2c-0.8,0-1.5,0.3-2.2,0.8
			c-0.7,0.5-1.3,1.2-1.8,2.1c-0.5,0.9-0.9,1.9-1.1,3l-1.4,6.4h-2.1l3-13.9h1.8l-0.3,2.6h0.1c0.6-0.8,1.1-1.4,1.5-1.7
			s0.8-0.6,1.3-0.8C1479.7,474.2,1480.2,474.1,1480.7,474.1z"/>
		<path class="st0" d="M1482,487.3c0-0.7,0.2-1.2,0.5-1.6c0.3-0.4,0.8-0.6,1.4-0.6c0.4,0,0.7,0.1,0.9,0.3c0.2,0.2,0.3,0.6,0.3,1
			c0,0.6-0.2,1.1-0.5,1.5s-0.8,0.6-1.4,0.6c-0.4,0-0.7-0.1-0.9-0.3S1482,487.7,1482,487.3z M1484,476.1c0-0.7,0.2-1.2,0.5-1.6
			s0.8-0.6,1.4-0.6c0.8,0,1.2,0.4,1.2,1.3c0,0.6-0.2,1.1-0.5,1.5c-0.4,0.4-0.8,0.6-1.4,0.6c-0.4,0-0.7-0.1-0.9-0.3
			S1484,476.5,1484,476.1z"/>
		<path class="st0" d="M1501,488.2h-2.2l3.5-16.6h-5.2l0.4-1.9h12.5l-0.4,1.9h-5.2L1501,488.2z"/>
		<path class="st0" d="M1515.9,474.1c1.6,0,2.9,0.5,3.8,1.4s1.4,2.3,1.4,3.9c0,1.6-0.3,3.1-0.9,4.5s-1.4,2.5-2.5,3.3
			s-2.2,1.2-3.5,1.2c-1.6,0-2.9-0.5-3.8-1.4s-1.4-2.3-1.4-3.9c0-1.6,0.3-3.1,0.9-4.5s1.5-2.5,2.5-3.3S1514.6,474.1,1515.9,474.1z
			 M1518.9,479.2c0-1-0.3-1.8-0.8-2.4c-0.5-0.6-1.2-0.9-2.2-0.9c-0.9,0-1.8,0.3-2.5,0.9c-0.7,0.6-1.3,1.5-1.7,2.6
			c-0.4,1.1-0.6,2.4-0.6,3.7c0,1.1,0.3,2,0.8,2.6c0.5,0.6,1.3,0.9,2.3,0.9c0.9,0,1.7-0.3,2.4-0.9s1.3-1.5,1.6-2.6
			C1518.7,482,1518.9,480.7,1518.9,479.2z"/>
		<path class="st0" d="M1531.9,474.1c0.6,0,1.1,0.1,1.5,0.2l-0.5,1.9c-0.4-0.1-0.9-0.2-1.3-0.2c-0.8,0-1.5,0.3-2.2,0.8
			c-0.7,0.5-1.3,1.2-1.8,2.1c-0.5,0.9-0.9,1.9-1.1,3l-1.4,6.4h-2.1l3-13.9h1.8l-0.3,2.6h0.1c0.6-0.8,1.1-1.4,1.5-1.7
			s0.8-0.6,1.3-0.8C1530.9,474.2,1531.3,474.1,1531.9,474.1z"/>
		<path class="st0" d="M1540.8,474.1c0.8,0,1.5,0.2,2.1,0.6c0.6,0.4,1.1,1,1.4,1.8h0.2l0.9-2.2h1.6l-4.3,20.2h-2.1l1.3-6.1
			c0.1-0.4,0.3-1.3,0.7-2.8h-0.1c-0.8,1-1.6,1.8-2.3,2.2s-1.5,0.7-2.4,0.7c-1.2,0-2.1-0.4-2.8-1.2c-0.7-0.8-1-2-1-3.5
			c0-1.8,0.3-3.5,0.9-5c0.6-1.5,1.4-2.7,2.5-3.5C1538.3,474.5,1539.5,474.1,1540.8,474.1z M1538.3,486.7c0.8,0,1.6-0.4,2.4-1.2
			s1.5-1.8,2-3c0.5-1.2,0.8-2.5,0.8-3.8c0-0.9-0.2-1.6-0.7-2.1c-0.5-0.5-1.1-0.8-1.9-0.8c-0.9,0-1.7,0.4-2.4,1.1s-1.3,1.7-1.8,3
			s-0.7,2.6-0.7,4C1536,485.8,1536.8,486.7,1538.3,486.7z"/>
		<path class="st0" d="M1553.4,474.3l-1.9,8.8c-0.2,0.8-0.2,1.3-0.2,1.8c0,1.2,0.6,1.8,1.9,1.8c0.7,0,1.5-0.3,2.2-0.8
			s1.4-1.2,1.9-2.2s1-2.1,1.3-3.4l1.3-6h2.1l-2.9,13.9h-1.8l0.3-2.6h-0.2c-0.8,1.1-1.6,1.8-2.4,2.2s-1.5,0.6-2.3,0.6
			c-1.1,0-1.9-0.3-2.6-0.9s-0.9-1.4-0.9-2.5c0-0.5,0.1-1.3,0.3-2.2l1.9-8.6H1553.4z"/>
		<path class="st0" d="M1568.9,488.5c-1.6,0-2.8-0.5-3.7-1.4s-1.3-2.2-1.3-3.8c0-1.6,0.3-3.1,0.9-4.6c0.6-1.5,1.5-2.6,2.5-3.4
			s2.2-1.2,3.4-1.2c1.3,0,2.3,0.3,2.9,0.8s1,1.3,1,2.4c0,1.5-0.7,2.7-2.1,3.6s-3.4,1.3-6,1.3h-0.4l-0.1,1c0,1.1,0.3,2,0.8,2.6
			c0.5,0.6,1.3,0.9,2.4,0.9c0.5,0,1.1-0.1,1.6-0.2c0.6-0.2,1.3-0.4,2.1-0.8v1.9c-0.8,0.4-1.5,0.6-2.1,0.8S1569.6,488.5,1568.9,488.5
			z M1570.6,475.9c-0.9,0-1.7,0.4-2.5,1.2c-0.8,0.8-1.4,1.9-1.8,3.3h0.2c1.9,0,3.4-0.3,4.4-0.8c1-0.5,1.5-1.2,1.5-2.2
			c0-0.4-0.2-0.8-0.5-1.1C1571.8,476,1571.3,475.9,1570.6,475.9z"/>
		<path class="st0" d="M1583.3,488.2l3.9-18.6h2.1l-3.9,18.6H1583.3z"/>
		<path class="st0" d="M1598.6,488.2l1.9-8.8c0.2-0.9,0.3-1.5,0.3-1.8c0-0.5-0.2-1-0.5-1.3c-0.3-0.3-0.8-0.5-1.4-0.5
			c-0.8,0-1.5,0.3-2.2,0.8c-0.7,0.5-1.3,1.2-1.9,2.2c-0.5,0.9-1,2.1-1.2,3.4l-1.3,6h-2.1l3-13.9h1.8l-0.3,2.6h0.1
			c0.8-1,1.6-1.8,2.4-2.2c0.8-0.4,1.5-0.6,2.4-0.6c1.1,0,1.9,0.3,2.5,0.9c0.6,0.6,0.9,1.4,0.9,2.5c0,0.7-0.1,1.4-0.3,2.3l-1.8,8.5
			H1598.6z"/>
		<path class="st0" d="M1607.1,488.2l-1.6-13.9h2.1l0.8,7.8c0.2,2.2,0.3,3.7,0.3,4.6h0.1c1.1-2.3,1.8-3.9,2.3-4.7l4.1-7.7h2.3
			l-7.5,13.9H1607.1z"/>
		<path class="st0" d="M1622.6,488.5c-1.6,0-2.8-0.5-3.7-1.4s-1.3-2.2-1.3-3.8c0-1.6,0.3-3.1,0.9-4.6c0.6-1.5,1.5-2.6,2.5-3.4
			s2.2-1.2,3.4-1.2c1.3,0,2.3,0.3,2.9,0.8s1,1.3,1,2.4c0,1.5-0.7,2.7-2.1,3.6s-3.4,1.3-6,1.3h-0.4l-0.1,1c0,1.1,0.3,2,0.8,2.6
			c0.5,0.6,1.3,0.9,2.4,0.9c0.5,0,1.1-0.1,1.6-0.2c0.6-0.2,1.3-0.4,2.1-0.8v1.9c-0.8,0.4-1.5,0.6-2.1,0.8S1623.3,488.5,1622.6,488.5
			z M1624.3,475.9c-0.9,0-1.7,0.4-2.5,1.2c-0.8,0.8-1.4,1.9-1.8,3.3h0.2c1.9,0,3.4-0.3,4.4-0.8c1-0.5,1.5-1.2,1.5-2.2
			c0-0.4-0.2-0.8-0.5-1.1C1625.5,476,1625,475.9,1624.3,475.9z"/>
		<path class="st0" d="M1638.5,484.3c0,1.3-0.5,2.4-1.4,3.1c-0.9,0.7-2.3,1.1-4,1.1c-1.4,0-2.7-0.3-3.9-0.9v-2
			c0.6,0.4,1.2,0.6,1.9,0.8s1.3,0.3,1.9,0.3c1.1,0,1.9-0.2,2.4-0.6s0.8-1,0.8-1.6c0-0.5-0.1-0.9-0.4-1.2s-0.9-0.8-1.9-1.4
			c-1.1-0.6-1.9-1.2-2.3-1.8s-0.7-1.3-0.7-2.1c0-1.2,0.4-2.1,1.3-2.8s2-1.1,3.4-1.1c1.4,0,2.8,0.3,4.2,0.9l-0.7,1.7l-0.7-0.3
			c-0.9-0.4-1.8-0.5-2.8-0.5c-0.8,0-1.4,0.2-1.9,0.6s-0.7,0.8-0.7,1.4c0,0.5,0.2,0.9,0.5,1.2c0.3,0.3,0.9,0.8,1.9,1.3
			c0.9,0.5,1.6,0.9,1.9,1.3c0.4,0.4,0.7,0.8,0.9,1.2S1638.5,483.8,1638.5,484.3z"/>
		<path class="st0" d="M1645.3,486.7c0.5,0,1.1-0.1,1.8-0.3v1.6c-0.3,0.1-0.6,0.2-1.1,0.3s-0.8,0.1-1,0.1c-1.1,0-1.9-0.3-2.4-0.8
			c-0.6-0.5-0.8-1.3-0.8-2.3c0-0.6,0.1-1.2,0.2-1.9l1.6-7.6h-2.2l0.2-0.9l2.3-1l1.6-2.9h1.2l-0.7,3.2h3.5l-0.3,1.6h-3.5l-1.6,7.7
			c-0.2,0.7-0.2,1.3-0.2,1.7c0,0.5,0.1,0.8,0.4,1.1S1644.9,486.7,1645.3,486.7z"/>
		<path class="st0" d="M1657.5,488.2l1.9-8.8c0.2-0.8,0.2-1.4,0.2-1.7c0-0.6-0.1-1.1-0.4-1.4s-0.7-0.5-1.3-0.5
			c-0.7,0-1.4,0.3-2.1,0.8c-0.7,0.5-1.3,1.2-1.8,2.2c-0.5,0.9-0.9,2.1-1.2,3.4l-1.3,6h-2.1l3-13.9h1.8l-0.3,2.6h0.1
			c0.7-1,1.5-1.7,2.2-2.2c0.7-0.4,1.5-0.7,2.3-0.7c1,0,1.7,0.3,2.2,0.8s0.8,1.3,0.9,2.3h0.1c0.7-1.1,1.5-1.8,2.3-2.4
			s1.7-0.8,2.5-0.8c1.1,0,1.9,0.3,2.5,0.9c0.6,0.6,0.9,1.4,0.9,2.5c0,0.6-0.1,1.3-0.3,2.3l-1.8,8.5h-2.2l1.9-8.8
			c0.2-0.9,0.3-1.5,0.3-1.9c0-0.5-0.1-0.9-0.4-1.3c-0.3-0.3-0.8-0.5-1.4-0.5c-0.7,0-1.4,0.2-2,0.7s-1.3,1.2-1.8,2.1
			c-0.5,0.9-0.9,2-1.1,3.2l-1.4,6.3H1657.5z"/>
		<path class="st0" d="M1677.6,488.5c-1.6,0-2.8-0.5-3.7-1.4s-1.3-2.2-1.3-3.8c0-1.6,0.3-3.1,0.9-4.6c0.6-1.5,1.5-2.6,2.5-3.4
			s2.2-1.2,3.4-1.2c1.3,0,2.3,0.3,2.9,0.8s1,1.3,1,2.4c0,1.5-0.7,2.7-2.1,3.6s-3.4,1.3-6,1.3h-0.4l-0.1,1c0,1.1,0.3,2,0.8,2.6
			c0.5,0.6,1.3,0.9,2.4,0.9c0.5,0,1.1-0.1,1.6-0.2c0.6-0.2,1.3-0.4,2.1-0.8v1.9c-0.8,0.4-1.5,0.6-2.1,0.8S1678.4,488.5,1677.6,488.5
			z M1679.4,475.9c-0.9,0-1.7,0.4-2.5,1.2c-0.8,0.8-1.4,1.9-1.8,3.3h0.2c1.9,0,3.4-0.3,4.4-0.8c1-0.5,1.5-1.2,1.5-2.2
			c0-0.4-0.2-0.8-0.5-1.1C1680.5,476,1680.1,475.9,1679.4,475.9z"/>
		<path class="st0" d="M1693.5,488.2l1.9-8.8c0.2-0.9,0.3-1.5,0.3-1.8c0-0.5-0.2-1-0.5-1.3c-0.3-0.3-0.8-0.5-1.4-0.5
			c-0.8,0-1.5,0.3-2.2,0.8c-0.7,0.5-1.3,1.2-1.9,2.2c-0.5,0.9-1,2.1-1.2,3.4l-1.3,6h-2.1l3-13.9h1.8l-0.3,2.6h0.1
			c0.8-1,1.6-1.8,2.4-2.2c0.8-0.4,1.5-0.6,2.4-0.6c1.1,0,1.9,0.3,2.5,0.9c0.6,0.6,0.9,1.4,0.9,2.5c0,0.7-0.1,1.4-0.3,2.3l-1.8,8.5
			H1693.5z"/>
		<path class="st0" d="M1704.2,486.7c0.5,0,1.1-0.1,1.8-0.3v1.6c-0.3,0.1-0.6,0.2-1.1,0.3s-0.8,0.1-1,0.1c-1.1,0-1.9-0.3-2.4-0.8
			c-0.6-0.5-0.8-1.3-0.8-2.3c0-0.6,0.1-1.2,0.2-1.9l1.6-7.6h-2.2l0.2-0.9l2.3-1l1.6-2.9h1.2l-0.7,3.2h3.5l-0.3,1.6h-3.5l-1.6,7.7
			c-0.2,0.7-0.2,1.3-0.2,1.7c0,0.5,0.1,0.8,0.4,1.1S1703.8,486.7,1704.2,486.7z"/>
		<path class="st0" d="M1717,484.3c0,1.3-0.5,2.4-1.4,3.1c-0.9,0.7-2.3,1.1-4,1.1c-1.4,0-2.7-0.3-3.9-0.9v-2
			c0.6,0.4,1.2,0.6,1.9,0.8s1.3,0.3,1.9,0.3c1.1,0,1.9-0.2,2.4-0.6s0.8-1,0.8-1.6c0-0.5-0.1-0.9-0.4-1.2s-0.9-0.8-1.9-1.4
			c-1.1-0.6-1.9-1.2-2.3-1.8s-0.7-1.3-0.7-2.1c0-1.2,0.4-2.1,1.3-2.8s2-1.1,3.4-1.1c1.4,0,2.8,0.3,4.2,0.9l-0.7,1.7l-0.7-0.3
			c-0.9-0.4-1.8-0.5-2.8-0.5c-0.8,0-1.4,0.2-1.9,0.6s-0.7,0.8-0.7,1.4c0,0.5,0.2,0.9,0.5,1.2c0.3,0.3,0.9,0.8,1.9,1.3
			c0.9,0.5,1.6,0.9,1.9,1.3c0.4,0.4,0.7,0.8,0.9,1.2S1717,483.8,1717,484.3z"/>
		<path class="st0" d="M1726.6,488.2l3.9-18.6h2.2l-3.5,16.6h7.2l-0.4,2H1726.6z"/>
		<path class="st0" d="M1738.9,488.2l3.9-18.6h2.2l-3.5,16.6h7.2l-0.4,2H1738.9z"/>
		<path class="st0" d="M1762.1,471.3c-1.5,0-2.8,0.4-4,1.2c-1.2,0.8-2.1,2-2.8,3.6c-0.7,1.6-1,3.3-1,5.2c0,1.6,0.4,2.8,1.2,3.8
			c0.8,0.9,2,1.4,3.4,1.4c1.2,0,2.5-0.2,4.1-0.7v1.9c-0.7,0.3-1.4,0.5-2.1,0.6s-1.5,0.2-2.4,0.2c-2,0-3.7-0.6-4.8-1.9
			s-1.8-3-1.8-5.2c0-2.2,0.4-4.3,1.3-6.2c0.9-1.9,2.1-3.3,3.6-4.3s3.2-1.5,5.1-1.5c1.7,0,3.1,0.3,4.4,1l-0.9,1.8
			C1764.5,471.6,1763.3,471.3,1762.1,471.3z"/>
		<path class="st0" d="M1251.7,525.3l0.4-2h22.9l-0.4,2H1251.7z"/>
		<path class="st0" d="M1292.5,512.7c3.7,0,5.5,1.4,5.5,4.3c0,1.2-0.4,2.2-1.1,3s-1.8,1.4-3.1,1.6v0.1c1,0.3,1.7,0.7,2.2,1.4
			c0.5,0.7,0.8,1.5,0.8,2.4c0,1.8-0.6,3.2-1.9,4.2c-1.3,1-3,1.5-5.2,1.5h-5.9l3.9-18.6H1292.5z M1286.3,529.4h3.4
			c1.5,0,2.7-0.3,3.5-1c0.8-0.7,1.2-1.6,1.2-2.9c0-1-0.3-1.7-0.9-2.3c-0.6-0.5-1.5-0.8-2.7-0.8h-3L1286.3,529.4z M1288.2,520.6h3.1
			c1.3,0,2.4-0.3,3.2-0.9s1.2-1.5,1.2-2.5c0-0.9-0.3-1.5-0.8-2c-0.6-0.4-1.4-0.7-2.7-0.7h-2.7L1288.2,520.6z"/>
		<path class="st0" d="M1301.1,531.2h-2.1l3-13.9h2.1L1301.1,531.2z M1302.6,513.8c0-0.5,0.1-0.9,0.4-1.2c0.3-0.3,0.6-0.5,1.1-0.5
			c0.7,0,1.1,0.4,1.1,1.1c0,0.5-0.1,0.9-0.4,1.2c-0.3,0.3-0.6,0.5-1,0.5c-0.3,0-0.6-0.1-0.8-0.3
			C1302.7,514.4,1302.6,514.1,1302.6,513.8z"/>
		<path class="st0" d="M1307.7,531.2h-2.1l4.2-19.8h2.1L1307.7,531.2z"/>
		<path class="st0" d="M1314.3,531.2h-2.1l4.2-19.8h2.1L1314.3,531.2z"/>
		<path class="st0" d="M1334.6,512.7c3.7,0,5.5,1.4,5.5,4.3c0,1.2-0.4,2.2-1.1,3s-1.8,1.4-3.1,1.6v0.1c1,0.3,1.7,0.7,2.2,1.4
			c0.5,0.7,0.8,1.5,0.8,2.4c0,1.8-0.6,3.2-1.9,4.2c-1.3,1-3,1.5-5.2,1.5h-5.9l3.9-18.6H1334.6z M1328.5,529.4h3.4
			c1.5,0,2.7-0.3,3.5-1c0.8-0.7,1.2-1.6,1.2-2.9c0-1-0.3-1.7-0.9-2.3c-0.6-0.5-1.5-0.8-2.7-0.8h-3L1328.5,529.4z M1330.3,520.6h3.1
			c1.3,0,2.4-0.3,3.2-0.9s1.2-1.5,1.2-2.5c0-0.9-0.3-1.5-0.8-2c-0.6-0.4-1.4-0.7-2.7-0.7h-2.7L1330.3,520.6z"/>
		<path class="st0" d="M1346.1,517.3l-1.9,8.8c-0.2,0.8-0.2,1.3-0.2,1.8c0,1.2,0.6,1.8,1.9,1.8c0.7,0,1.5-0.3,2.2-0.8
			c0.7-0.5,1.4-1.2,1.9-2.2c0.6-0.9,1-2.1,1.3-3.4l1.3-6h2.1l-2.9,13.9h-1.8l0.3-2.6h-0.2c-0.8,1.1-1.6,1.8-2.4,2.2
			c-0.8,0.4-1.5,0.6-2.3,0.6c-1.1,0-1.9-0.3-2.6-0.9c-0.6-0.6-0.9-1.4-0.9-2.5c0-0.5,0.1-1.3,0.3-2.2l1.9-8.6H1346.1z"/>
		<path class="st0" d="M1363.5,517.1c1.6,0,2.8,0.8,3.6,2.4h0.1c0.1-1.3,0.3-2.5,0.6-3.5l1-4.5h2.1l-4.2,19.8h-1.8l0.3-2.7h-0.1
			c-0.9,1.1-1.7,1.8-2.4,2.2c-0.7,0.4-1.5,0.7-2.3,0.7c-1.2,0-2.1-0.4-2.8-1.2s-1-2-1-3.5c0-1.8,0.3-3.5,0.9-5s1.4-2.7,2.5-3.5
			C1361,517.5,1362.2,517.1,1363.5,517.1z M1361.1,529.7c0.8,0,1.6-0.4,2.5-1.2c0.8-0.8,1.5-1.8,2-3c0.5-1.2,0.7-2.5,0.7-3.8
			c0-0.9-0.2-1.7-0.7-2.1s-1.1-0.7-2-0.7c-0.9,0-1.6,0.3-2.4,1c-0.7,0.7-1.3,1.7-1.8,2.9c-0.4,1.3-0.7,2.6-0.7,4
			C1358.8,528.8,1359.6,529.7,1361.1,529.7z"/>
		<path class="st0" d="M1373.3,531.2h-2.1l3-13.9h2.1L1373.3,531.2z M1374.7,513.8c0-0.5,0.1-0.9,0.4-1.2c0.3-0.3,0.6-0.5,1.1-0.5
			c0.7,0,1.1,0.4,1.1,1.1c0,0.5-0.1,0.9-0.4,1.2c-0.3,0.3-0.6,0.5-1,0.5c-0.3,0-0.6-0.1-0.8-0.3
			C1374.8,514.4,1374.7,514.1,1374.7,513.8z"/>
		<path class="st0" d="M1386.2,531.2l1.9-8.8c0.2-0.9,0.3-1.5,0.3-1.8c0-0.5-0.2-1-0.5-1.3s-0.8-0.5-1.4-0.5c-0.8,0-1.5,0.3-2.2,0.8
			c-0.7,0.5-1.3,1.2-1.9,2.2c-0.5,0.9-1,2.1-1.2,3.4l-1.3,6h-2.1l3-13.9h1.8l-0.3,2.6h0.1c0.8-1,1.6-1.8,2.4-2.2
			c0.8-0.4,1.5-0.6,2.4-0.6c1.1,0,1.9,0.3,2.5,0.9c0.6,0.6,0.9,1.4,0.9,2.5c0,0.7-0.1,1.4-0.3,2.3l-1.8,8.5H1386.2z"/>
		<path class="st0" d="M1405.9,517.3l-0.3,1.4l-2.7,0.3c0.3,0.5,0.5,1.2,0.5,2c0,1.6-0.5,2.9-1.5,3.9c-1,1-2.3,1.4-4,1.4
			c-0.5,0-0.8,0-1.1-0.1c-1.2,0.4-1.8,1-1.8,1.7c0,0.3,0.1,0.6,0.4,0.7c0.3,0.1,0.7,0.2,1.2,0.3l1.5,0.2c1.5,0.2,2.6,0.6,3.3,1.1
			c0.7,0.6,1,1.4,1,2.5c0,1.6-0.6,2.8-1.9,3.6s-3,1.3-5.2,1.3c-1.6,0-2.9-0.3-3.9-0.9c-0.9-0.6-1.4-1.5-1.4-2.6
			c0-0.9,0.3-1.7,0.9-2.3s1.6-1.2,3-1.7c-0.7-0.3-1-0.9-1-1.5c0-0.6,0.2-1.1,0.6-1.5c0.4-0.4,1-0.8,1.8-1.2c-0.5-0.3-1-0.7-1.3-1.2
			c-0.3-0.5-0.5-1.1-0.5-1.8c0-1.6,0.5-3,1.5-4c1-1,2.3-1.6,3.9-1.6c0.7,0,1.3,0.1,2,0.3H1405.9z M1392.4,533.7
			c0,0.7,0.3,1.2,0.8,1.5s1.4,0.6,2.5,0.6c1.5,0,2.7-0.3,3.6-0.8c0.9-0.5,1.3-1.3,1.3-2.3c0-0.5-0.2-0.9-0.7-1.2s-1.2-0.5-2.3-0.6
			l-2-0.2c-1,0.2-1.8,0.6-2.3,1.1S1392.4,533,1392.4,533.7z M1396,522.6c0,0.7,0.2,1.3,0.6,1.6c0.4,0.4,0.9,0.6,1.6,0.6
			c0.7,0,1.3-0.2,1.8-0.5s0.9-0.8,1.1-1.5c0.3-0.6,0.4-1.3,0.4-2c0-0.7-0.2-1.2-0.6-1.6s-0.9-0.5-1.6-0.5c-0.7,0-1.2,0.2-1.7,0.5
			c-0.5,0.3-0.9,0.8-1.2,1.4C1396.1,521.2,1396,521.9,1396,522.6z"/>
		<path class="st0" d="M1411.3,531.5c-1.6,0-2.8-0.5-3.7-1.4s-1.3-2.2-1.3-3.8c0-1.6,0.3-3.1,0.9-4.6c0.6-1.5,1.5-2.6,2.5-3.4
			s2.2-1.2,3.4-1.2c1.3,0,2.3,0.3,2.9,0.8c0.7,0.6,1,1.3,1,2.4c0,1.5-0.7,2.7-2.1,3.6c-1.4,0.9-3.4,1.3-6,1.3h-0.4l-0.1,1
			c0,1.1,0.3,2,0.8,2.6c0.5,0.6,1.3,0.9,2.4,0.9c0.5,0,1.1-0.1,1.6-0.2c0.6-0.2,1.3-0.4,2.1-0.8v1.9c-0.8,0.4-1.5,0.6-2.1,0.8
			C1412.7,531.4,1412,531.5,1411.3,531.5z M1413,518.9c-0.9,0-1.7,0.4-2.5,1.2c-0.8,0.8-1.4,1.9-1.8,3.3h0.2c1.9,0,3.4-0.3,4.4-0.8
			c1-0.5,1.5-1.2,1.5-2.2c0-0.4-0.2-0.8-0.5-1.1C1414.2,519,1413.7,518.9,1413,518.9z"/>
		<path class="st0" d="M1427.4,517.1c0.6,0,1.1,0.1,1.5,0.2l-0.5,1.9c-0.4-0.1-0.9-0.2-1.3-0.2c-0.8,0-1.5,0.3-2.2,0.8
			c-0.7,0.5-1.3,1.2-1.8,2.1c-0.5,0.9-0.9,1.9-1.1,3l-1.4,6.4h-2.1l3-13.9h1.8l-0.3,2.6h0.1c0.6-0.8,1.1-1.4,1.5-1.7
			c0.4-0.4,0.8-0.6,1.3-0.8C1426.4,517.2,1426.8,517.1,1427.4,517.1z"/>
		<path class="st0" d="M1435.9,527.8c0-2.9,0.5-5.5,1.5-8s2.6-4.8,4.9-7.1h2c-2.1,2.3-3.7,4.7-4.7,7.2c-1.1,2.5-1.6,5.2-1.6,7.8
			c0,2.9,0.5,5.4,1.4,7.6h-1.7C1436.5,533.1,1435.9,530.6,1435.9,527.8z"/>
		<path class="st0" d="M1445.1,531.2h-2.1l4.2-19.8h2.1L1445.1,531.2z"/>
		<path class="st0" d="M1455.1,531.5c-1.6,0-2.8-0.5-3.7-1.4s-1.3-2.2-1.3-3.8c0-1.6,0.3-3.1,0.9-4.6c0.6-1.5,1.5-2.6,2.5-3.4
			s2.2-1.2,3.4-1.2c1.3,0,2.3,0.3,2.9,0.8c0.7,0.6,1,1.3,1,2.4c0,1.5-0.7,2.7-2.1,3.6c-1.4,0.9-3.4,1.3-6,1.3h-0.4l-0.1,1
			c0,1.1,0.3,2,0.8,2.6c0.5,0.6,1.3,0.9,2.4,0.9c0.5,0,1.1-0.1,1.6-0.2c0.6-0.2,1.3-0.4,2.1-0.8v1.9c-0.8,0.4-1.5,0.6-2.1,0.8
			C1456.5,531.4,1455.9,531.5,1455.1,531.5z M1456.9,518.9c-0.9,0-1.7,0.4-2.5,1.2c-0.8,0.8-1.4,1.9-1.8,3.3h0.2
			c1.9,0,3.4-0.3,4.4-0.8c1-0.5,1.5-1.2,1.5-2.2c0-0.4-0.2-0.8-0.5-1.1C1458,519,1457.6,518.9,1456.9,518.9z"/>
		<path class="st0" d="M1469.8,517.1c0.8,0,1.5,0.2,2.1,0.6c0.6,0.4,1.1,1,1.4,1.8h0.1l0.9-2.2h1.6l-3,13.9h-1.7l0.3-2.7h-0.1
			c-1.5,1.9-3.1,2.9-4.8,2.9c-1.2,0-2.1-0.4-2.8-1.3s-1-2-1-3.4c0-1.8,0.3-3.4,0.9-4.9s1.4-2.7,2.5-3.5S1468.6,517.1,1469.8,517.1z
			 M1467.4,529.7c0.8,0,1.6-0.4,2.5-1.2c0.8-0.8,1.5-1.8,2-3.1c0.5-1.3,0.8-2.5,0.8-3.8c0-0.9-0.2-1.6-0.7-2.1s-1.1-0.8-1.9-0.8
			c-0.9,0-1.7,0.4-2.5,1.1c-0.8,0.7-1.4,1.7-1.8,3s-0.6,2.6-0.6,3.9c0,1,0.2,1.7,0.6,2.2C1466.1,529.5,1466.7,529.7,1467.4,529.7z"
			/>
		<path class="st0" d="M1484.5,517.1c1.6,0,2.8,0.8,3.6,2.4h0.1c0.1-1.3,0.3-2.5,0.6-3.5l1-4.5h2.1l-4.2,19.8h-1.8l0.3-2.7h-0.1
			c-0.9,1.1-1.7,1.8-2.4,2.2s-1.5,0.7-2.3,0.7c-1.2,0-2.1-0.4-2.8-1.2s-1-2-1-3.5c0-1.8,0.3-3.5,0.9-5s1.4-2.7,2.5-3.5
			C1482.1,517.5,1483.2,517.1,1484.5,517.1z M1482.1,529.7c0.8,0,1.6-0.4,2.5-1.2c0.8-0.8,1.5-1.8,2-3c0.5-1.2,0.7-2.5,0.7-3.8
			c0-0.9-0.2-1.7-0.7-2.1s-1.1-0.7-2-0.7c-0.9,0-1.6,0.3-2.4,1c-0.7,0.7-1.3,1.7-1.8,2.9c-0.4,1.3-0.7,2.6-0.7,4
			C1479.8,528.8,1480.6,529.7,1482.1,529.7z"/>
		<path class="st0" d="M1501,531.2h-2.1l3-13.9h2.1L1501,531.2z M1502.5,513.8c0-0.5,0.1-0.9,0.4-1.2c0.3-0.3,0.6-0.5,1.1-0.5
			c0.7,0,1.1,0.4,1.1,1.1c0,0.5-0.1,0.9-0.4,1.2c-0.3,0.3-0.6,0.5-1,0.5c-0.3,0-0.6-0.1-0.8-0.3
			C1502.6,514.4,1502.5,514.1,1502.5,513.8z"/>
		<path class="st0" d="M1514,531.2l1.9-8.8c0.2-0.9,0.3-1.5,0.3-1.8c0-0.5-0.2-1-0.5-1.3c-0.3-0.3-0.8-0.5-1.4-0.5
			c-0.8,0-1.5,0.3-2.2,0.8c-0.7,0.5-1.3,1.2-1.9,2.2c-0.5,0.9-1,2.1-1.2,3.4l-1.3,6h-2.1l3-13.9h1.8l-0.3,2.6h0.1
			c0.8-1,1.6-1.8,2.4-2.2c0.8-0.4,1.5-0.6,2.4-0.6c1.1,0,1.9,0.3,2.5,0.9c0.6,0.6,0.9,1.4,0.9,2.5c0,0.7-0.1,1.4-0.3,2.3l-1.8,8.5
			H1514z"/>
		<path class="st0" d="M1531.4,523.5l-1.6,7.7h-2.2l3.9-18.6h4.1c3.8,0,5.7,1.5,5.7,4.6c0,2.9-1.6,4.8-4.7,5.7l3,8.2h-2.4l-2.7-7.7
			H1531.4z M1533.3,514.6c-0.9,4.2-1.4,6.5-1.5,7.1h2.1c1.6,0,2.9-0.4,3.8-1.1s1.3-1.8,1.3-3.1c0-1-0.3-1.8-0.9-2.2
			c-0.6-0.5-1.5-0.7-2.8-0.7H1533.3z"/>
		<path class="st0" d="M1547.6,531.5c-1.6,0-2.8-0.5-3.7-1.4s-1.3-2.2-1.3-3.8c0-1.6,0.3-3.1,0.9-4.6c0.6-1.5,1.5-2.6,2.5-3.4
			s2.2-1.2,3.4-1.2c1.3,0,2.3,0.3,2.9,0.8c0.7,0.6,1,1.3,1,2.4c0,1.5-0.7,2.7-2.1,3.6c-1.4,0.9-3.4,1.3-6,1.3h-0.4l-0.1,1
			c0,1.1,0.3,2,0.8,2.6c0.5,0.6,1.3,0.9,2.4,0.9c0.5,0,1.1-0.1,1.6-0.2c0.6-0.2,1.3-0.4,2.1-0.8v1.9c-0.8,0.4-1.5,0.6-2.1,0.8
			C1549,531.4,1548.3,531.5,1547.6,531.5z M1549.3,518.9c-0.9,0-1.7,0.4-2.5,1.2c-0.8,0.8-1.4,1.9-1.8,3.3h0.2
			c1.9,0,3.4-0.3,4.4-0.8c1-0.5,1.5-1.2,1.5-2.2c0-0.4-0.2-0.8-0.5-1.1C1550.5,519,1550,518.9,1549.3,518.9z"/>
		<path class="st0" d="M1562.3,517.1c0.8,0,1.5,0.2,2.1,0.6c0.6,0.4,1.1,1,1.4,1.8h0.1l0.9-2.2h1.6l-3,13.9h-1.7l0.3-2.7h-0.1
			c-1.5,1.9-3.1,2.9-4.8,2.9c-1.2,0-2.1-0.4-2.8-1.3s-1-2-1-3.4c0-1.8,0.3-3.4,0.9-4.9s1.4-2.7,2.5-3.5S1561,517.1,1562.3,517.1z
			 M1559.8,529.7c0.8,0,1.6-0.4,2.5-1.2c0.8-0.8,1.5-1.8,2-3.1c0.5-1.3,0.8-2.5,0.8-3.8c0-0.9-0.2-1.6-0.7-2.1s-1.1-0.8-1.9-0.8
			c-0.9,0-1.7,0.4-2.5,1.1c-0.8,0.7-1.4,1.7-1.8,3s-0.6,2.6-0.6,3.9c0,1,0.2,1.7,0.6,2.2C1558.6,529.5,1559.1,529.7,1559.8,529.7z"
			/>
		<path class="st0" d="M1571.7,531.2h-2.1l4.2-19.8h2.1L1571.7,531.2z"/>
		<path class="st0" d="M1591.9,520.1c0,2.2-0.4,4.2-1.3,5.9s-2.2,3-3.8,3.9s-3.6,1.4-5.8,1.4h-4.5l3.9-18.6h4.3
			c2.3,0,4.1,0.6,5.3,1.9C1591.3,515.8,1591.9,517.7,1591.9,520.1z M1581.1,529.4c1.7,0,3.2-0.4,4.5-1.2c1.3-0.8,2.3-1.9,3-3.3
			c0.7-1.4,1-3,1-4.8s-0.4-3.2-1.3-4.1c-0.9-0.9-2.1-1.4-3.8-1.4h-2.3l-3.2,14.8H1581.1z"/>
		<path class="st0" d="M1596.4,528.2l0.1,0.3c-1,2-2.1,4-3.4,6.1h-1.6c1.1-2.4,1.9-4.5,2.6-6.4H1596.4z"/>
		<path class="st0" d="M1617.3,525.9c0,1.8-0.6,3.2-1.8,4.2c-1.2,1-2.9,1.5-5,1.5c-0.9,0-1.7-0.1-2.4-0.2c-0.7-0.1-1.3-0.3-1.9-0.6
			v-2.2c1.4,0.7,2.8,1.1,4.3,1.1c1.4,0,2.5-0.3,3.3-1c0.8-0.6,1.2-1.5,1.2-2.6c0-0.7-0.2-1.2-0.7-1.7c-0.4-0.5-1.3-1.1-2.5-1.8
			c-1.3-0.7-2.2-1.4-2.7-2.2c-0.5-0.7-0.7-1.6-0.7-2.6c0-1.6,0.6-2.9,1.7-3.9c1.1-1,2.6-1.5,4.4-1.5c0.8,0,1.6,0.1,2.3,0.2
			c0.7,0.2,1.5,0.4,2.3,0.8l-0.8,1.9c-0.6-0.3-1.2-0.6-1.9-0.8c-0.7-0.2-1.3-0.3-1.9-0.3c-1.1,0-2,0.3-2.7,0.9c-0.7,0.6-1,1.4-1,2.4
			c0,0.5,0.1,0.8,0.2,1.2c0.1,0.3,0.4,0.6,0.7,0.9s0.9,0.7,1.8,1.2c1.2,0.7,2.1,1.3,2.5,1.8c0.4,0.4,0.8,0.9,1,1.4
			C1617.2,524.6,1617.3,525.2,1617.3,525.9z"/>
		<path class="st0" d="M1632.6,531.2h-2.1l1.8-8.7h-8.4l-1.8,8.7h-2.2l3.9-18.6h2.2l-1.7,7.9h8.4l1.7-7.9h2.1L1632.6,531.2z"/>
		<path class="st0" d="M1637.5,531.2l3.9-18.6h2.1l-3.9,18.6H1637.5z"/>
		<path class="st0" d="M1646.8,531.2h-2.2l3.9-18.6h9.3l-0.4,1.9h-7.2l-1.4,6.8h6.7l-0.4,1.9h-6.7L1646.8,531.2z"/>
		<path class="st0" d="M1662,531.2h-2.2l3.5-16.6h-5.2l0.4-1.9h12.5l-0.4,1.9h-5.2L1662,531.2z"/>
		<path class="st0" d="M1672.4,528.2l0.1,0.3c-1,2-2.1,4-3.4,6.1h-1.6c1.1-2.4,1.9-4.5,2.6-6.4H1672.4z"/>
		<path class="st0" d="M1690.3,531.2l-2.1-16.5h-0.1c-0.1,0.6-0.2,1.4-0.4,2.5c-0.2,1.1-0.3,1.9-0.5,2.5l-2.4,11.4h-2.1l3.9-18.6
			h3.1l1.9,15.3h0.1l8.4-15.3h3.4l-3.8,18.6h-2.2c1.1-5,1.9-8.8,2.5-11.5c0.6-2.7,1-4.3,1.2-5h-0.1l-9.1,16.5H1690.3z"/>
		<path class="st0" d="M1709.8,531.5c-1.6,0-2.8-0.5-3.7-1.4s-1.3-2.2-1.3-3.8c0-1.6,0.3-3.1,0.9-4.6c0.6-1.5,1.5-2.6,2.5-3.4
			s2.2-1.2,3.4-1.2c1.3,0,2.3,0.3,2.9,0.8c0.7,0.6,1,1.3,1,2.4c0,1.5-0.7,2.7-2.1,3.6c-1.4,0.9-3.4,1.3-6,1.3h-0.4l-0.1,1
			c0,1.1,0.3,2,0.8,2.6c0.5,0.6,1.3,0.9,2.4,0.9c0.5,0,1.1-0.1,1.6-0.2c0.6-0.2,1.3-0.4,2.1-0.8v1.9c-0.8,0.4-1.5,0.6-2.1,0.8
			C1711.2,531.4,1710.5,531.5,1709.8,531.5z M1711.5,518.9c-0.9,0-1.7,0.4-2.5,1.2c-0.8,0.8-1.4,1.9-1.8,3.3h0.2
			c1.9,0,3.4-0.3,4.4-0.8c1-0.5,1.5-1.2,1.5-2.2c0-0.4-0.2-0.8-0.5-1.1C1712.7,519,1712.2,518.9,1711.5,518.9z"/>
		<path class="st0" d="M1724.4,517.1c0.8,0,1.5,0.2,2.1,0.6c0.6,0.4,1.1,1,1.4,1.8h0.1l0.9-2.2h1.6l-3,13.9h-1.7l0.3-2.7h-0.1
			c-1.5,1.9-3.1,2.9-4.8,2.9c-1.2,0-2.1-0.4-2.8-1.3s-1-2-1-3.4c0-1.8,0.3-3.4,0.9-4.9s1.4-2.7,2.5-3.5S1723.2,517.1,1724.4,517.1z
			 M1722,529.7c0.8,0,1.6-0.4,2.5-1.2c0.8-0.8,1.5-1.8,2-3.1c0.5-1.3,0.8-2.5,0.8-3.8c0-0.9-0.2-1.6-0.7-2.1s-1.1-0.8-1.9-0.8
			c-0.9,0-1.7,0.4-2.5,1.1c-0.8,0.7-1.4,1.7-1.8,3s-0.6,2.6-0.6,3.9c0,1,0.2,1.7,0.6,2.2C1720.8,529.5,1721.3,529.7,1722,529.7z"/>
		<path class="st0" d="M1740.4,527.3c0,1.3-0.5,2.4-1.4,3.1c-0.9,0.7-2.3,1.1-4,1.1c-1.4,0-2.7-0.3-3.9-0.9v-2
			c0.6,0.4,1.2,0.6,1.9,0.8s1.3,0.3,1.9,0.3c1.1,0,1.9-0.2,2.4-0.6s0.8-1,0.8-1.6c0-0.5-0.1-0.9-0.4-1.2s-0.9-0.8-1.9-1.4
			c-1.1-0.6-1.9-1.2-2.3-1.8s-0.7-1.3-0.7-2.1c0-1.2,0.4-2.1,1.3-2.8c0.9-0.7,2-1.1,3.4-1.1c1.4,0,2.8,0.3,4.2,0.9l-0.7,1.7
			l-0.7-0.3c-0.9-0.4-1.8-0.5-2.8-0.5c-0.8,0-1.4,0.2-1.9,0.6c-0.4,0.4-0.7,0.8-0.7,1.4c0,0.5,0.2,0.9,0.5,1.2
			c0.3,0.3,0.9,0.8,1.9,1.3c0.9,0.5,1.6,0.9,1.9,1.3c0.4,0.4,0.7,0.8,0.9,1.2C1740.3,526.3,1740.4,526.8,1740.4,527.3z"/>
		<path class="st0" d="M1747.9,517.3l-1.9,8.8c-0.2,0.8-0.2,1.3-0.2,1.8c0,1.2,0.6,1.8,1.9,1.8c0.7,0,1.5-0.3,2.2-0.8
			s1.4-1.2,1.9-2.2s1-2.1,1.3-3.4l1.3-6h2.1l-2.9,13.9h-1.8l0.3-2.6h-0.2c-0.8,1.1-1.6,1.8-2.4,2.2s-1.5,0.6-2.3,0.6
			c-1.1,0-1.9-0.3-2.6-0.9c-0.6-0.6-0.9-1.4-0.9-2.5c0-0.5,0.1-1.3,0.3-2.2l1.9-8.6H1747.9z"/>
		<path class="st0" d="M1766.7,517.1c0.6,0,1.1,0.1,1.5,0.2l-0.5,1.9c-0.4-0.1-0.9-0.2-1.3-0.2c-0.8,0-1.5,0.3-2.2,0.8
			c-0.7,0.5-1.3,1.2-1.8,2.1c-0.5,0.9-0.9,1.9-1.1,3l-1.4,6.4h-2.1l3-13.9h1.8l-0.3,2.6h0.1c0.6-0.8,1.1-1.4,1.5-1.7
			c0.4-0.4,0.8-0.6,1.3-0.8C1765.7,517.2,1766.2,517.1,1766.7,517.1z"/>
		<path class="st0" d="M1775.6,517.1c0.8,0,1.5,0.2,2.1,0.6c0.6,0.4,1.1,1,1.4,1.8h0.1l0.9-2.2h1.6l-3,13.9h-1.7l0.3-2.7h-0.1
			c-1.5,1.9-3.1,2.9-4.8,2.9c-1.2,0-2.1-0.4-2.8-1.3s-1-2-1-3.4c0-1.8,0.3-3.4,0.9-4.9s1.4-2.7,2.5-3.5S1774.3,517.1,1775.6,517.1z
			 M1773.2,529.7c0.8,0,1.6-0.4,2.5-1.2c0.8-0.8,1.5-1.8,2-3.1c0.5-1.3,0.8-2.5,0.8-3.8c0-0.9-0.2-1.6-0.7-2.1s-1.1-0.8-1.9-0.8
			c-0.9,0-1.7,0.4-2.5,1.1c-0.8,0.7-1.4,1.7-1.8,3s-0.6,2.6-0.6,3.9c0,1,0.2,1.7,0.6,2.2C1771.9,529.5,1772.4,529.7,1773.2,529.7z"
			/>
		<path class="st0" d="M1789.1,531.5c-0.8,0-1.5-0.2-2.2-0.6c-0.6-0.4-1.1-1-1.4-1.8h-0.1l-0.9,2.2h-1.6l4.2-19.8h2.1
			c-0.4,2-0.8,3.6-1,4.7c-0.2,1.1-0.6,2.4-1,3.8h0.1c0.8-1,1.6-1.7,2.3-2.2c0.8-0.5,1.6-0.7,2.4-0.7c1.2,0,2.1,0.4,2.8,1.3
			s1,2,1,3.5c0,1.8-0.3,3.4-0.9,4.9c-0.6,1.5-1.4,2.7-2.4,3.5C1791.5,531.1,1790.4,531.5,1789.1,531.5z M1791.4,518.9
			c-0.8,0-1.6,0.4-2.5,1.2c-0.8,0.8-1.5,1.8-2,3c-0.5,1.2-0.7,2.5-0.7,3.7c0,0.9,0.2,1.6,0.7,2.1c0.5,0.5,1.1,0.7,2,0.7
			c0.8,0,1.6-0.3,2.3-1c0.7-0.7,1.3-1.7,1.7-2.9c0.4-1.3,0.7-2.6,0.7-4C1793.7,519.8,1792.9,518.9,1791.4,518.9z"/>
		<path class="st0" d="M1800,531.2h-2.1l4.2-19.8h2.1L1800,531.2z"/>
		<path class="st0" d="M1810.1,520.3c0,2.9-0.5,5.5-1.5,8c-1,2.4-2.6,4.8-4.9,7.1h-2c4.2-4.7,6.3-9.7,6.3-15.1
			c0-2.9-0.5-5.4-1.4-7.6h1.7C1809.5,515,1810.1,517.5,1810.1,520.3z"/>
		<path class="st0" d="M1217.6,566h-4.9v-1.8h4.9v-5h1.8v5h5v1.8h-5v4.9h-1.8V566z"/>
		<path class="st0" d="M1243.7,574.2h-11.4l0.4-1.9l5.9-5.3c0.9-0.8,1.6-1.5,2.2-2.1c0.6-0.6,1.2-1.2,1.6-1.7
			c0.4-0.5,0.7-1.1,0.9-1.6c0.2-0.5,0.3-1.1,0.3-1.7c0-0.8-0.3-1.5-0.8-2s-1.2-0.7-2.1-0.7c-0.7,0-1.3,0.1-1.9,0.4
			c-0.6,0.2-1.3,0.6-2.1,1.2l-1-1.5c1.6-1.3,3.4-2,5.2-2c1.5,0,2.7,0.4,3.5,1.1c0.9,0.7,1.3,1.8,1.3,3.1c0,0.9-0.2,1.8-0.5,2.6
			c-0.3,0.8-0.9,1.6-1.7,2.5s-2,2.1-3.7,3.6l-4.5,3.9v0.1h8.6L1243.7,574.2z"/>
		<path class="st0" d="M1256.5,574.2h-2.2l3.9-18.6h9.3l-0.4,1.9h-7.2l-1.4,6.8h6.7l-0.4,1.9h-6.7L1256.5,574.2z"/>
		<path class="st0" d="M1273.6,560.1c0.8,0,1.5,0.2,2.1,0.6c0.6,0.4,1.1,1,1.4,1.8h0.1l0.9-2.2h1.6l-3,13.9h-1.7l0.3-2.7h-0.1
			c-1.5,1.9-3.1,2.9-4.8,2.9c-1.2,0-2.1-0.4-2.8-1.3c-0.7-0.8-1-2-1-3.4c0-1.8,0.3-3.4,0.9-4.9c0.6-1.5,1.4-2.7,2.5-3.5
			C1271.2,560.5,1272.4,560.1,1273.6,560.1z M1271.2,572.7c0.8,0,1.6-0.4,2.5-1.2c0.8-0.8,1.5-1.8,2-3.1c0.5-1.3,0.8-2.5,0.8-3.8
			c0-0.9-0.2-1.6-0.7-2.1c-0.5-0.5-1.1-0.8-1.9-0.8c-0.9,0-1.7,0.4-2.5,1.1c-0.8,0.7-1.4,1.7-1.8,3s-0.6,2.6-0.6,3.9
			c0,1,0.2,1.7,0.6,2.2C1269.9,572.5,1270.5,572.7,1271.2,572.7z"/>
		<path class="st0" d="M1289,574.2l1.9-8.8c0.2-0.8,0.2-1.4,0.2-1.7c0-0.6-0.1-1.1-0.4-1.4c-0.3-0.3-0.7-0.5-1.3-0.5
			c-0.7,0-1.4,0.3-2.1,0.8s-1.3,1.2-1.8,2.2c-0.5,0.9-0.9,2.1-1.2,3.4l-1.3,6h-2.1l3-13.9h1.8l-0.3,2.6h0.1c0.7-1,1.5-1.7,2.2-2.2
			c0.7-0.4,1.5-0.7,2.3-0.7c1,0,1.7,0.3,2.2,0.8c0.5,0.5,0.8,1.3,0.9,2.3h0.1c0.7-1.1,1.5-1.8,2.3-2.4c0.8-0.5,1.7-0.8,2.5-0.8
			c1.1,0,1.9,0.3,2.5,0.9c0.6,0.6,0.9,1.4,0.9,2.5c0,0.6-0.1,1.3-0.3,2.3l-1.8,8.5h-2.2l1.9-8.8c0.2-0.9,0.3-1.5,0.3-1.9
			c0-0.5-0.1-0.9-0.4-1.3c-0.3-0.3-0.8-0.5-1.4-0.5c-0.7,0-1.4,0.2-2,0.7c-0.7,0.5-1.3,1.2-1.8,2.1c-0.5,0.9-0.9,2-1.1,3.2l-1.4,6.3
			H1289z"/>
		<path class="st0" d="M1305.8,574.2h-2.1l3-13.9h2.1L1305.8,574.2z M1307.2,556.8c0-0.5,0.1-0.9,0.4-1.2c0.3-0.3,0.6-0.5,1.1-0.5
			c0.7,0,1.1,0.4,1.1,1.1c0,0.5-0.1,0.9-0.4,1.2c-0.3,0.3-0.6,0.5-1,0.5c-0.3,0-0.6-0.1-0.8-0.3
			C1307.3,557.4,1307.2,557.1,1307.2,556.8z"/>
		<path class="st0" d="M1312.3,574.2h-2.1l4.2-19.8h2.1L1312.3,574.2z"/>
		<path class="st0" d="M1317.3,560.3h2.1l0.9,6.9c0.1,0.6,0.2,1.4,0.2,2.6c0.1,1.1,0.1,2.1,0.1,2.7h0.1c0.3-0.7,0.7-1.6,1.1-2.5
			c0.4-1,0.8-1.6,1-2l4.1-7.7h2.3l-8.8,16.3c-0.8,1.5-1.6,2.5-2.3,3c-0.8,0.6-1.7,0.9-2.8,0.9c-0.6,0-1.2-0.1-1.8-0.3v-1.7
			c0.5,0.2,1.1,0.2,1.7,0.2c0.7,0,1.3-0.2,1.8-0.6c0.5-0.4,1-1.1,1.4-1.9l1-1.7L1317.3,560.3z"/>
		<path class="st0" d="M1352.8,562.7c0,2.3-0.4,4.3-1.1,6.1c-0.7,1.8-1.8,3.2-3.2,4.2c-1.4,1-3,1.5-4.8,1.5c-2.2,0-3.9-0.6-5.1-1.9
			c-1.2-1.3-1.8-3-1.8-5.3c0-2.2,0.4-4.3,1.2-6.1s1.9-3.3,3.3-4.3c1.4-1,3-1.5,4.8-1.5c2.1,0,3.7,0.7,4.9,2
			C1352.2,558.6,1352.8,560.4,1352.8,562.7z M1345.9,557.3c-1.3,0-2.5,0.4-3.6,1.3c-1,0.9-1.9,2-2.4,3.6c-0.6,1.5-0.9,3.2-0.9,5.1
			c0,1.7,0.4,3,1.2,3.9c0.8,0.9,2,1.4,3.4,1.4c1.3,0,2.4-0.4,3.5-1.2c1-0.8,1.8-2,2.4-3.5c0.6-1.5,0.9-3.2,0.9-5.1
			c0-1.7-0.4-3-1.2-3.9C1348.5,557.8,1347.3,557.3,1345.9,557.3z"/>
		<path class="st0" d="M1360.5,580.5c-0.6,0-1.1-0.1-1.6-0.3v-1.8c0.5,0.2,1,0.3,1.5,0.3c0.6,0,1-0.2,1.4-0.7
			c0.4-0.5,0.7-1.3,0.9-2.3l2.9-13.7h-6.1l-2.9,13.9c-0.3,1.6-0.8,2.8-1.5,3.5s-1.6,1.1-2.7,1.1c-0.6,0-1.1-0.1-1.6-0.3v-1.8
			c0.5,0.2,1,0.3,1.4,0.3c0.6,0,1.1-0.2,1.4-0.7c0.4-0.5,0.7-1.3,0.9-2.3l2.9-13.7h-2.5l0.2-0.9l2.6-0.8l0.3-1.3
			c0.4-1.7,0.9-2.9,1.6-3.6c0.7-0.7,1.7-1,3.1-1c0.3,0,0.8,0,1.2,0.1c0.5,0.1,0.9,0.2,1.1,0.3l-0.5,1.6c-0.6-0.2-1.2-0.4-1.7-0.4
			c-0.7,0-1.3,0.2-1.7,0.6c-0.4,0.4-0.7,1.2-1,2.3l-0.3,1.4h6.1l0.3-1.4c0.4-1.7,0.9-2.9,1.6-3.6s1.7-1.1,3.1-1.1
			c0.3,0,0.8,0,1.2,0.1c0.5,0.1,0.9,0.2,1.2,0.3l-0.6,1.6c-0.6-0.2-1.2-0.4-1.7-0.4c-0.8,0-1.3,0.2-1.7,0.6
			c-0.4,0.4-0.7,1.2-0.9,2.2l-0.3,1.4h3l-0.3,1.6h-3l-2.9,13.9c-0.4,1.7-0.9,2.8-1.6,3.5C1362.5,580.1,1361.6,580.5,1360.5,580.5z
			 M1372.9,574.2h-2.1l3-13.9h2.1L1372.9,574.2z M1374.3,556.8c0-0.5,0.1-0.8,0.4-1.1c0.3-0.3,0.6-0.5,1.1-0.5
			c0.7,0,1.1,0.4,1.1,1.1c0,0.5-0.1,0.9-0.4,1.2c-0.3,0.3-0.6,0.5-1,0.5c-0.3,0-0.6-0.1-0.8-0.3
			C1374.4,557.4,1374.3,557.1,1374.3,556.8z"/>
		<path class="st0" d="M1383,574.5c-1.6,0-2.9-0.5-3.8-1.4c-0.9-0.9-1.4-2.2-1.4-3.8c0-1.7,0.3-3.3,0.9-4.7c0.6-1.4,1.5-2.5,2.6-3.3
			c1.1-0.8,2.3-1.2,3.7-1.2c1.2,0,2.3,0.2,3.4,0.6l-0.6,1.8c-1-0.4-1.9-0.6-2.8-0.6c-0.9,0-1.8,0.3-2.6,1c-0.8,0.6-1.4,1.5-1.8,2.7
			c-0.4,1.2-0.7,2.4-0.7,3.8c0,1.1,0.3,1.9,0.8,2.5s1.3,0.9,2.3,0.9c0.6,0,1.2-0.1,1.7-0.3c0.5-0.2,1.1-0.4,1.6-0.6v1.8
			C1385.5,574.2,1384.3,574.5,1383,574.5z"/>
		<path class="st0" d="M1394.6,574.5c-1.6,0-2.8-0.5-3.7-1.4s-1.3-2.2-1.3-3.8c0-1.6,0.3-3.1,0.9-4.6c0.6-1.5,1.5-2.6,2.5-3.4
			s2.2-1.2,3.4-1.2c1.3,0,2.3,0.3,2.9,0.8c0.7,0.6,1,1.3,1,2.4c0,1.5-0.7,2.7-2.1,3.6c-1.4,0.9-3.4,1.3-6,1.3h-0.4l-0.1,1
			c0,1.1,0.3,2,0.8,2.6c0.5,0.6,1.3,0.9,2.4,0.9c0.5,0,1.1-0.1,1.6-0.2c0.6-0.2,1.3-0.4,2.1-0.8v1.9c-0.8,0.4-1.5,0.6-2.1,0.8
			C1396,574.4,1395.3,574.5,1394.6,574.5z M1396.3,561.9c-0.9,0-1.7,0.4-2.5,1.2c-0.8,0.8-1.4,1.9-1.8,3.3h0.2
			c1.9,0,3.4-0.3,4.4-0.8c1-0.5,1.5-1.2,1.5-2.2c0-0.4-0.2-0.8-0.5-1.1C1397.5,562,1397,561.9,1396.3,561.9z"/>
		<path class="st0" d="M1410.5,570.3c0,1.3-0.5,2.4-1.4,3.1c-0.9,0.7-2.3,1.1-4,1.1c-1.4,0-2.7-0.3-3.9-0.9v-2
			c0.6,0.4,1.2,0.6,1.9,0.8s1.3,0.3,1.9,0.3c1.1,0,1.9-0.2,2.4-0.6s0.8-1,0.8-1.6c0-0.5-0.1-0.9-0.4-1.2s-0.9-0.8-1.9-1.4
			c-1.1-0.6-1.9-1.2-2.3-1.8s-0.7-1.3-0.7-2.1c0-1.2,0.4-2.1,1.3-2.8c0.9-0.7,2-1.1,3.4-1.1c1.4,0,2.8,0.3,4.2,0.9l-0.7,1.7
			l-0.7-0.3c-0.9-0.4-1.8-0.5-2.8-0.5c-0.8,0-1.4,0.2-1.9,0.6c-0.4,0.4-0.7,0.8-0.7,1.4c0,0.5,0.2,0.9,0.5,1.2
			c0.3,0.3,0.9,0.8,1.9,1.3c0.9,0.5,1.6,0.9,1.9,1.3c0.4,0.4,0.7,0.8,0.9,1.2C1410.4,569.3,1410.5,569.8,1410.5,570.3z"/>
		<path class="st0" d="M1427.1,560.1c0.8,0,1.5,0.2,2.1,0.6c0.6,0.4,1.1,1,1.4,1.8h0.1l0.9-2.2h1.6l-3,13.9h-1.7l0.3-2.7h-0.1
			c-1.5,1.9-3.1,2.9-4.8,2.9c-1.2,0-2.1-0.4-2.8-1.3s-1-2-1-3.4c0-1.8,0.3-3.4,0.9-4.9s1.4-2.7,2.5-3.5S1425.9,560.1,1427.1,560.1z
			 M1424.7,572.7c0.8,0,1.6-0.4,2.5-1.2c0.8-0.8,1.5-1.8,2-3.1c0.5-1.3,0.8-2.5,0.8-3.8c0-0.9-0.2-1.6-0.7-2.1s-1.1-0.8-1.9-0.8
			c-0.9,0-1.7,0.4-2.5,1.1c-0.8,0.7-1.4,1.7-1.8,3s-0.6,2.6-0.6,3.9c0,1,0.2,1.7,0.6,2.2C1423.4,572.5,1424,572.7,1424.7,572.7z"/>
		<path class="st0" d="M1443,574.2l1.9-8.8c0.2-0.9,0.3-1.5,0.3-1.8c0-0.5-0.2-1-0.5-1.3c-0.3-0.3-0.8-0.5-1.4-0.5
			c-0.8,0-1.5,0.3-2.2,0.8c-0.7,0.5-1.3,1.2-1.9,2.2c-0.5,0.9-1,2.1-1.2,3.4l-1.3,6h-2.1l3-13.9h1.8l-0.3,2.6h0.1
			c0.8-1,1.6-1.8,2.4-2.2c0.8-0.4,1.5-0.6,2.4-0.6c1.1,0,1.9,0.3,2.5,0.9c0.6,0.6,0.9,1.4,0.9,2.5c0,0.7-0.1,1.4-0.3,2.3l-1.8,8.5
			H1443z"/>
		<path class="st0" d="M1456.8,560.1c1.6,0,2.8,0.8,3.6,2.4h0.1c0.1-1.3,0.3-2.5,0.6-3.5l1-4.5h2.1l-4.2,19.8h-1.8l0.3-2.7h-0.1
			c-0.9,1.1-1.7,1.8-2.4,2.2s-1.5,0.7-2.3,0.7c-1.2,0-2.1-0.4-2.8-1.2s-1-2-1-3.5c0-1.8,0.3-3.5,0.9-5s1.4-2.7,2.5-3.5
			C1454.4,560.5,1455.5,560.1,1456.8,560.1z M1454.4,572.7c0.8,0,1.6-0.4,2.5-1.2c0.8-0.8,1.5-1.8,2-3c0.5-1.2,0.7-2.5,0.7-3.8
			c0-0.9-0.2-1.7-0.7-2.1s-1.1-0.7-2-0.7c-0.9,0-1.6,0.3-2.4,1c-0.7,0.7-1.3,1.7-1.8,2.9c-0.4,1.3-0.7,2.6-0.7,4
			C1452.1,571.8,1452.9,572.7,1454.4,572.7z"/>
		<path class="st0" d="M1479.8,570.3c0,1.3-0.5,2.4-1.4,3.1c-0.9,0.7-2.3,1.1-4,1.1c-1.4,0-2.7-0.3-3.9-0.9v-2
			c0.6,0.4,1.2,0.6,1.9,0.8s1.3,0.3,1.9,0.3c1.1,0,1.9-0.2,2.4-0.6s0.8-1,0.8-1.6c0-0.5-0.1-0.9-0.4-1.2s-0.9-0.8-1.9-1.4
			c-1.1-0.6-1.9-1.2-2.3-1.8s-0.7-1.3-0.7-2.1c0-1.2,0.4-2.1,1.3-2.8c0.9-0.7,2-1.1,3.4-1.1c1.4,0,2.8,0.3,4.2,0.9l-0.7,1.7
			l-0.7-0.3c-0.9-0.4-1.8-0.5-2.8-0.5c-0.8,0-1.4,0.2-1.9,0.6c-0.4,0.4-0.7,0.8-0.7,1.4c0,0.5,0.2,0.9,0.5,1.2
			c0.3,0.3,0.9,0.8,1.9,1.3c0.9,0.5,1.6,0.9,1.9,1.3c0.4,0.4,0.7,0.8,0.9,1.2C1479.7,569.3,1479.8,569.8,1479.8,570.3z"/>
		<path class="st0" d="M1487.9,574.5c-1.6,0-2.8-0.5-3.7-1.4s-1.3-2.2-1.3-3.8c0-1.6,0.3-3.1,0.9-4.6c0.6-1.5,1.5-2.6,2.5-3.4
			s2.2-1.2,3.4-1.2c1.3,0,2.3,0.3,2.9,0.8c0.7,0.6,1,1.3,1,2.4c0,1.5-0.7,2.7-2.1,3.6c-1.4,0.9-3.4,1.3-6,1.3h-0.4l-0.1,1
			c0,1.1,0.3,2,0.8,2.6c0.5,0.6,1.3,0.9,2.4,0.9c0.5,0,1.1-0.1,1.6-0.2c0.6-0.2,1.3-0.4,2.1-0.8v1.9c-0.8,0.4-1.5,0.6-2.1,0.8
			C1489.3,574.4,1488.6,574.5,1487.9,574.5z M1489.6,561.9c-0.9,0-1.7,0.4-2.5,1.2c-0.8,0.8-1.4,1.9-1.8,3.3h0.2
			c1.9,0,3.4-0.3,4.4-0.8c1-0.5,1.5-1.2,1.5-2.2c0-0.4-0.2-0.8-0.5-1.1C1490.8,562,1490.3,561.9,1489.6,561.9z"/>
		<path class="st0" d="M1497.3,574.2l-1.6-13.9h2.1l0.8,7.8c0.2,2.2,0.3,3.7,0.3,4.6h0.1c1.1-2.3,1.8-3.9,2.3-4.7l4.1-7.7h2.3
			l-7.5,13.9H1497.3z"/>
		<path class="st0" d="M1512.7,574.5c-1.6,0-2.8-0.5-3.7-1.4s-1.3-2.2-1.3-3.8c0-1.6,0.3-3.1,0.9-4.6c0.6-1.5,1.5-2.6,2.5-3.4
			s2.2-1.2,3.4-1.2c1.3,0,2.3,0.3,2.9,0.8c0.7,0.6,1,1.3,1,2.4c0,1.5-0.7,2.7-2.1,3.6c-1.4,0.9-3.4,1.3-6,1.3h-0.4l-0.1,1
			c0,1.1,0.3,2,0.8,2.6c0.5,0.6,1.3,0.9,2.4,0.9c0.5,0,1.1-0.1,1.6-0.2c0.6-0.2,1.3-0.4,2.1-0.8v1.9c-0.8,0.4-1.5,0.6-2.1,0.8
			C1514.1,574.4,1513.4,574.5,1512.7,574.5z M1514.5,561.9c-0.9,0-1.7,0.4-2.5,1.2c-0.8,0.8-1.4,1.9-1.8,3.3h0.2
			c1.9,0,3.4-0.3,4.4-0.8c1-0.5,1.5-1.2,1.5-2.2c0-0.4-0.2-0.8-0.5-1.1C1515.6,562,1515.1,561.9,1514.5,561.9z"/>
		<path class="st0" d="M1528.8,560.1c0.6,0,1.1,0.1,1.5,0.2l-0.5,1.9c-0.4-0.1-0.9-0.2-1.3-0.2c-0.8,0-1.5,0.3-2.2,0.8
			c-0.7,0.5-1.3,1.2-1.8,2.1c-0.5,0.9-0.9,1.9-1.1,3l-1.4,6.4h-2.1l3-13.9h1.8l-0.3,2.6h0.1c0.6-0.8,1.1-1.4,1.5-1.7
			c0.4-0.4,0.8-0.6,1.3-0.8C1527.8,560.2,1528.3,560.1,1528.8,560.1z"/>
		<path class="st0" d="M1537.7,560.1c0.8,0,1.5,0.2,2.1,0.6c0.6,0.4,1.1,1,1.4,1.8h0.1l0.9-2.2h1.6l-3,13.9h-1.7l0.3-2.7h-0.1
			c-1.5,1.9-3.1,2.9-4.8,2.9c-1.2,0-2.1-0.4-2.8-1.3s-1-2-1-3.4c0-1.8,0.3-3.4,0.9-4.9s1.4-2.7,2.5-3.5S1536.4,560.1,1537.7,560.1z
			 M1535.3,572.7c0.8,0,1.6-0.4,2.5-1.2c0.8-0.8,1.5-1.8,2-3.1c0.5-1.3,0.8-2.5,0.8-3.8c0-0.9-0.2-1.6-0.7-2.1s-1.1-0.8-1.9-0.8
			c-0.9,0-1.7,0.4-2.5,1.1c-0.8,0.7-1.4,1.7-1.8,3s-0.6,2.6-0.6,3.9c0,1,0.2,1.7,0.6,2.2C1534,572.5,1534.5,572.7,1535.3,572.7z"/>
		<path class="st0" d="M1547.1,574.2h-2.1l4.2-19.8h2.1L1547.1,574.2z"/>
		<path class="st0" d="M1560.5,574.2h-2.1l3-13.9h2.1L1560.5,574.2z M1561.9,556.8c0-0.5,0.1-0.9,0.4-1.2c0.3-0.3,0.6-0.5,1.1-0.5
			c0.7,0,1.1,0.4,1.1,1.1c0,0.5-0.1,0.9-0.4,1.2c-0.3,0.3-0.6,0.5-1,0.5c-0.3,0-0.6-0.1-0.8-0.3
			C1562,557.4,1561.9,557.1,1561.9,556.8z"/>
		<path class="st0" d="M1573.5,574.2l1.9-8.8c0.2-0.9,0.3-1.5,0.3-1.8c0-0.5-0.2-1-0.5-1.3c-0.3-0.3-0.8-0.5-1.4-0.5
			c-0.8,0-1.5,0.3-2.2,0.8c-0.7,0.5-1.3,1.2-1.9,2.2c-0.5,0.9-1,2.1-1.2,3.4l-1.3,6h-2.1l3-13.9h1.8l-0.3,2.6h0.1
			c0.8-1,1.6-1.8,2.4-2.2c0.8-0.4,1.5-0.6,2.4-0.6c1.1,0,1.9,0.3,2.5,0.9c0.6,0.6,0.9,1.4,0.9,2.5c0,0.7-0.1,1.4-0.3,2.3l-1.8,8.5
			H1573.5z"/>
		<path class="st0" d="M1577.9,580.5c-0.6,0-1.1-0.1-1.6-0.3v-1.8c0.5,0.2,1,0.3,1.4,0.3c0.6,0,1.1-0.3,1.5-0.8s0.6-1.3,0.8-2.2
			l2.9-13.7h-2.5l0.2-0.9l2.6-0.8l0.3-1.3c0.4-1.7,0.9-2.9,1.6-3.6c0.7-0.7,1.7-1,3.1-1c0.3,0,0.8,0,1.2,0.1
			c0.5,0.1,0.9,0.2,1.1,0.3l-0.5,1.6c-0.6-0.2-1.2-0.4-1.7-0.4c-0.7,0-1.3,0.2-1.7,0.6c-0.4,0.4-0.7,1.2-1,2.3l-0.3,1.4h3l-0.3,1.6
			h-3l-2.9,13.9c-0.3,1.6-0.8,2.8-1.5,3.5S1579,580.5,1577.9,580.5z M1590.2,574.2h-2.1l4.2-19.8h2.1L1590.2,574.2z"/>
		<path class="st0" d="M1599.7,560.3l-1.9,8.8c-0.2,0.8-0.2,1.3-0.2,1.8c0,1.2,0.6,1.8,1.9,1.8c0.7,0,1.5-0.3,2.2-0.8
			s1.4-1.2,1.9-2.2s1-2.1,1.3-3.4l1.3-6h2.1l-2.9,13.9h-1.8l0.3-2.6h-0.2c-0.8,1.1-1.6,1.8-2.4,2.2s-1.5,0.6-2.3,0.6
			c-1.1,0-1.9-0.3-2.6-0.9c-0.6-0.6-0.9-1.4-0.9-2.5c0-0.5,0.1-1.3,0.3-2.2l1.9-8.6H1599.7z"/>
		<path class="st0" d="M1615.3,574.5c-1.6,0-2.8-0.5-3.7-1.4s-1.3-2.2-1.3-3.8c0-1.6,0.3-3.1,0.9-4.6c0.6-1.5,1.5-2.6,2.5-3.4
			s2.2-1.2,3.4-1.2c1.3,0,2.3,0.3,2.9,0.8c0.7,0.6,1,1.3,1,2.4c0,1.5-0.7,2.7-2.1,3.6c-1.4,0.9-3.4,1.3-6,1.3h-0.4l-0.1,1
			c0,1.1,0.3,2,0.8,2.6c0.5,0.6,1.3,0.9,2.4,0.9c0.5,0,1.1-0.1,1.6-0.2c0.6-0.2,1.3-0.4,2.1-0.8v1.9c-0.8,0.4-1.5,0.6-2.1,0.8
			C1616.7,574.4,1616,574.5,1615.3,574.5z M1617,561.9c-0.9,0-1.7,0.4-2.5,1.2c-0.8,0.8-1.4,1.9-1.8,3.3h0.2c1.9,0,3.4-0.3,4.4-0.8
			c1-0.5,1.5-1.2,1.5-2.2c0-0.4-0.2-0.8-0.5-1.1C1618.2,562,1617.7,561.9,1617,561.9z"/>
		<path class="st0" d="M1631.1,574.2l1.9-8.8c0.2-0.9,0.3-1.5,0.3-1.8c0-0.5-0.2-1-0.5-1.3c-0.3-0.3-0.8-0.5-1.4-0.5
			c-0.8,0-1.5,0.3-2.2,0.8c-0.7,0.5-1.3,1.2-1.9,2.2c-0.5,0.9-1,2.1-1.2,3.4l-1.3,6h-2.1l3-13.9h1.8l-0.3,2.6h0.1
			c0.8-1,1.6-1.8,2.4-2.2c0.8-0.4,1.5-0.6,2.4-0.6c1.1,0,1.9,0.3,2.5,0.9c0.6,0.6,0.9,1.4,0.9,2.5c0,0.7-0.1,1.4-0.3,2.3l-1.8,8.5
			H1631.1z"/>
		<path class="st0" d="M1641.9,572.7c0.5,0,1.1-0.1,1.8-0.3v1.6c-0.3,0.1-0.6,0.2-1.1,0.3s-0.8,0.1-1,0.1c-1.1,0-1.9-0.3-2.4-0.8
			c-0.6-0.5-0.8-1.3-0.8-2.3c0-0.6,0.1-1.2,0.2-1.9l1.6-7.6h-2.2l0.2-0.9l2.3-1l1.6-2.9h1.2l-0.7,3.2h3.5l-0.3,1.6h-3.5l-1.6,7.7
			c-0.2,0.7-0.2,1.3-0.2,1.7c0,0.5,0.1,0.8,0.4,1.1S1641.4,572.7,1641.9,572.7z"/>
		<path class="st0" d="M1648.1,574.2h-2.1l3-13.9h2.1L1648.1,574.2z M1649.6,556.8c0-0.5,0.1-0.9,0.4-1.2c0.3-0.3,0.6-0.5,1.1-0.5
			c0.7,0,1.1,0.4,1.1,1.1c0,0.5-0.1,0.9-0.4,1.2c-0.3,0.3-0.6,0.5-1,0.5c-0.3,0-0.6-0.1-0.8-0.3
			C1649.7,557.4,1649.6,557.1,1649.6,556.8z"/>
		<path class="st0" d="M1660,560.1c0.8,0,1.5,0.2,2.1,0.6c0.6,0.4,1.1,1,1.4,1.8h0.1l0.9-2.2h1.6l-3,13.9h-1.7l0.3-2.7h-0.1
			c-1.5,1.9-3.1,2.9-4.8,2.9c-1.2,0-2.1-0.4-2.8-1.3s-1-2-1-3.4c0-1.8,0.3-3.4,0.9-4.9s1.4-2.7,2.5-3.5S1658.7,560.1,1660,560.1z
			 M1657.6,572.7c0.8,0,1.6-0.4,2.5-1.2c0.8-0.8,1.5-1.8,2-3.1c0.5-1.3,0.8-2.5,0.8-3.8c0-0.9-0.2-1.6-0.7-2.1s-1.1-0.8-1.9-0.8
			c-0.9,0-1.7,0.4-2.5,1.1c-0.8,0.7-1.4,1.7-1.8,3s-0.6,2.6-0.6,3.9c0,1,0.2,1.7,0.6,2.2C1656.3,572.5,1656.8,572.7,1657.6,572.7z"
			/>
		<path class="st0" d="M1669.4,574.2h-2.1l4.2-19.8h2.1L1669.4,574.2z"/>
		<path class="st0" d="M1690.2,568.3h-6.3l-3.1,5.9h-2.4l10.1-18.6h2.2l2.3,18.6h-2.2L1690.2,568.3z M1690,566.3l-0.4-3.8
			c-0.2-1.5-0.3-3-0.4-4.4c-0.3,0.7-0.7,1.5-1,2.2c-0.4,0.7-1.4,2.7-3.2,6H1690z"/>
		<path class="st0" d="M1703.6,574.2l1.9-8.8c0.2-0.9,0.3-1.5,0.3-1.8c0-0.5-0.2-1-0.5-1.3c-0.3-0.3-0.8-0.5-1.4-0.5
			c-0.8,0-1.5,0.3-2.2,0.8c-0.7,0.5-1.3,1.2-1.9,2.2c-0.5,0.9-1,2.1-1.2,3.4l-1.3,6h-2.1l3-13.9h1.8l-0.3,2.6h0.1
			c0.8-1,1.6-1.8,2.4-2.2c0.8-0.4,1.5-0.6,2.4-0.6c1.1,0,1.9,0.3,2.5,0.9c0.6,0.6,0.9,1.4,0.9,2.5c0,0.7-0.1,1.4-0.3,2.3l-1.8,8.5
			H1703.6z"/>
		<path class="st0" d="M1723.3,560.3l-0.3,1.4l-2.7,0.3c0.3,0.5,0.5,1.2,0.5,2c0,1.6-0.5,2.9-1.5,3.9c-1,1-2.3,1.4-4,1.4
			c-0.5,0-0.8,0-1.1-0.1c-1.2,0.4-1.8,1-1.8,1.7c0,0.3,0.1,0.6,0.4,0.7c0.3,0.1,0.7,0.2,1.2,0.3l1.5,0.2c1.5,0.2,2.6,0.6,3.3,1.1
			c0.7,0.6,1,1.4,1,2.5c0,1.6-0.6,2.8-1.9,3.6s-3,1.3-5.2,1.3c-1.6,0-2.9-0.3-3.9-0.9c-0.9-0.6-1.4-1.5-1.4-2.6
			c0-0.9,0.3-1.7,0.9-2.3s1.6-1.2,3-1.7c-0.7-0.3-1-0.9-1-1.5c0-0.6,0.2-1.1,0.6-1.5c0.4-0.4,1-0.8,1.8-1.2c-0.5-0.3-1-0.7-1.3-1.2
			c-0.3-0.5-0.5-1.1-0.5-1.8c0-1.6,0.5-3,1.5-4c1-1,2.3-1.6,3.9-1.6c0.7,0,1.3,0.1,2,0.3H1723.3z M1709.8,576.7
			c0,0.7,0.3,1.2,0.8,1.5s1.4,0.6,2.5,0.6c1.5,0,2.7-0.3,3.6-0.8c0.9-0.5,1.3-1.3,1.3-2.3c0-0.5-0.2-0.9-0.7-1.2s-1.2-0.5-2.3-0.6
			l-2-0.2c-1,0.2-1.8,0.6-2.3,1.1S1709.8,576,1709.8,576.7z M1713.3,565.6c0,0.7,0.2,1.3,0.6,1.6c0.4,0.4,0.9,0.6,1.6,0.6
			c0.7,0,1.3-0.2,1.8-0.5s0.9-0.8,1.1-1.5c0.3-0.6,0.4-1.3,0.4-2c0-0.7-0.2-1.2-0.6-1.6s-0.9-0.5-1.6-0.5c-0.7,0-1.2,0.2-1.7,0.5
			c-0.5,0.3-0.9,0.8-1.2,1.4C1713.5,564.2,1713.3,564.9,1713.3,565.6z"/>
		<path class="st0" d="M1728.6,574.5c-1.6,0-2.8-0.5-3.7-1.4s-1.3-2.2-1.3-3.8c0-1.6,0.3-3.1,0.9-4.6c0.6-1.5,1.5-2.6,2.5-3.4
			s2.2-1.2,3.4-1.2c1.3,0,2.3,0.3,2.9,0.8c0.7,0.6,1,1.3,1,2.4c0,1.5-0.7,2.7-2.1,3.6c-1.4,0.9-3.4,1.3-6,1.3h-0.4l-0.1,1
			c0,1.1,0.3,2,0.8,2.6c0.5,0.6,1.3,0.9,2.4,0.9c0.5,0,1.1-0.1,1.6-0.2c0.6-0.2,1.3-0.4,2.1-0.8v1.9c-0.8,0.4-1.5,0.6-2.1,0.8
			C1730,574.4,1729.4,574.5,1728.6,574.5z M1730.4,561.9c-0.9,0-1.7,0.4-2.5,1.2c-0.8,0.8-1.4,1.9-1.8,3.3h0.2
			c1.9,0,3.4-0.3,4.4-0.8c1-0.5,1.5-1.2,1.5-2.2c0-0.4-0.2-0.8-0.5-1.1C1731.5,562,1731,561.9,1730.4,561.9z"/>
		<path class="st0" d="M1738.1,574.2h-2.1l4.2-19.8h2.1L1738.1,574.2z"/>
		<path class="st0" d="M1749.6,574.2l3.9-18.6h2.1l-3.9,18.6H1749.6z"/>
		<path class="st0" d="M1764.9,574.2l1.9-8.8c0.2-0.9,0.3-1.5,0.3-1.8c0-0.5-0.2-1-0.5-1.3c-0.3-0.3-0.8-0.5-1.4-0.5
			c-0.8,0-1.5,0.3-2.2,0.8c-0.7,0.5-1.3,1.2-1.9,2.2c-0.5,0.9-1,2.1-1.2,3.4l-1.3,6h-2.1l3-13.9h1.8l-0.3,2.6h0.1
			c0.8-1,1.6-1.8,2.4-2.2c0.8-0.4,1.5-0.6,2.4-0.6c1.1,0,1.9,0.3,2.5,0.9c0.6,0.6,0.9,1.4,0.9,2.5c0,0.7-0.1,1.4-0.3,2.3l-1.8,8.5
			H1764.9z"/>
		<path class="st0" d="M1773.5,574.2l-1.6-13.9h2.1l0.8,7.8c0.2,2.2,0.3,3.7,0.3,4.6h0.1c1.1-2.3,1.8-3.9,2.3-4.7l4.1-7.7h2.3
			l-7.5,13.9H1773.5z"/>
		<path class="st0" d="M1788.9,574.5c-1.6,0-2.8-0.5-3.7-1.4s-1.3-2.2-1.3-3.8c0-1.6,0.3-3.1,0.9-4.6c0.6-1.5,1.5-2.6,2.5-3.4
			s2.2-1.2,3.4-1.2c1.3,0,2.3,0.3,2.9,0.8c0.7,0.6,1,1.3,1,2.4c0,1.5-0.7,2.7-2.1,3.6c-1.4,0.9-3.4,1.3-6,1.3h-0.4l-0.1,1
			c0,1.1,0.3,2,0.8,2.6c0.5,0.6,1.3,0.9,2.4,0.9c0.5,0,1.1-0.1,1.6-0.2c0.6-0.2,1.3-0.4,2.1-0.8v1.9c-0.8,0.4-1.5,0.6-2.1,0.8
			C1790.3,574.4,1789.7,574.5,1788.9,574.5z M1790.7,561.9c-0.9,0-1.7,0.4-2.5,1.2c-0.8,0.8-1.4,1.9-1.8,3.3h0.2
			c1.9,0,3.4-0.3,4.4-0.8c1-0.5,1.5-1.2,1.5-2.2c0-0.4-0.2-0.8-0.5-1.1C1791.8,562,1791.3,561.9,1790.7,561.9z"/>
		<path class="st0" d="M1804.8,570.3c0,1.3-0.5,2.4-1.4,3.1c-0.9,0.7-2.3,1.1-4,1.1c-1.4,0-2.7-0.3-3.9-0.9v-2
			c0.6,0.4,1.2,0.6,1.9,0.8s1.3,0.3,1.9,0.3c1.1,0,1.9-0.2,2.4-0.6s0.8-1,0.8-1.6c0-0.5-0.1-0.9-0.4-1.2s-0.9-0.8-1.9-1.4
			c-1.1-0.6-1.9-1.2-2.3-1.8s-0.7-1.3-0.7-2.1c0-1.2,0.4-2.1,1.3-2.8c0.9-0.7,2-1.1,3.4-1.1c1.4,0,2.8,0.3,4.2,0.9l-0.7,1.7
			l-0.7-0.3c-0.9-0.4-1.8-0.5-2.8-0.5c-0.8,0-1.4,0.2-1.9,0.6c-0.4,0.4-0.7,0.8-0.7,1.4c0,0.5,0.2,0.9,0.5,1.2
			c0.3,0.3,0.9,0.8,1.9,1.3c0.9,0.5,1.6,0.9,1.9,1.3c0.4,0.4,0.7,0.8,0.9,1.2C1804.7,569.3,1804.8,569.8,1804.8,570.3z"/>
		<path class="st0" d="M1811.6,572.7c0.5,0,1.1-0.1,1.8-0.3v1.6c-0.3,0.1-0.6,0.2-1.1,0.3s-0.8,0.1-1,0.1c-1.1,0-1.9-0.3-2.4-0.8
			c-0.6-0.5-0.8-1.3-0.8-2.3c0-0.6,0.1-1.2,0.2-1.9l1.6-7.6h-2.2l0.2-0.9l2.3-1l1.6-2.9h1.2l-0.7,3.2h3.5l-0.3,1.6h-3.5l-1.6,7.7
			c-0.2,0.7-0.2,1.3-0.2,1.7c0,0.5,0.1,0.8,0.4,1.1S1811.2,572.7,1811.6,572.7z"/>
		<path class="st0" d="M1823.2,560.1c1.6,0,2.9,0.5,3.8,1.4c0.9,1,1.4,2.3,1.4,3.9c0,1.6-0.3,3.1-0.9,4.5s-1.4,2.5-2.5,3.3
			s-2.2,1.2-3.5,1.2c-1.6,0-2.9-0.5-3.8-1.4s-1.4-2.3-1.4-3.9c0-1.6,0.3-3.1,0.9-4.5c0.6-1.4,1.5-2.5,2.5-3.3
			C1820.8,560.5,1821.9,560.1,1823.2,560.1z M1826.2,565.2c0-1-0.3-1.8-0.8-2.4c-0.5-0.6-1.2-0.9-2.2-0.9c-0.9,0-1.8,0.3-2.5,0.9
			c-0.7,0.6-1.3,1.5-1.7,2.6c-0.4,1.1-0.6,2.4-0.6,3.7c0,1.1,0.3,2,0.8,2.6c0.5,0.6,1.3,0.9,2.3,0.9c0.9,0,1.7-0.3,2.4-0.9
			s1.3-1.5,1.6-2.6C1826,568,1826.2,566.7,1826.2,565.2z"/>
		<path class="st0" d="M1839.2,560.1c0.6,0,1.1,0.1,1.5,0.2l-0.5,1.9c-0.4-0.1-0.9-0.2-1.3-0.2c-0.8,0-1.5,0.3-2.2,0.8
			c-0.7,0.5-1.3,1.2-1.8,2.1c-0.5,0.9-0.9,1.9-1.1,3l-1.4,6.4h-2.1l3-13.9h1.8l-0.3,2.6h0.1c0.6-0.8,1.1-1.4,1.5-1.7
			c0.4-0.4,0.8-0.6,1.3-0.8C1838.2,560.2,1838.7,560.1,1839.2,560.1z"/>
		<path class="st0" d="M1849.3,570.3c0,1.3-0.5,2.4-1.4,3.1c-0.9,0.7-2.3,1.1-4,1.1c-1.4,0-2.7-0.3-3.9-0.9v-2
			c0.6,0.4,1.2,0.6,1.9,0.8s1.3,0.3,1.9,0.3c1.1,0,1.9-0.2,2.4-0.6s0.8-1,0.8-1.6c0-0.5-0.1-0.9-0.4-1.2s-0.9-0.8-1.9-1.4
			c-1.1-0.6-1.9-1.2-2.3-1.8s-0.7-1.3-0.7-2.1c0-1.2,0.4-2.1,1.3-2.8c0.9-0.7,2-1.1,3.4-1.1c1.4,0,2.8,0.3,4.2,0.9l-0.7,1.7
			l-0.7-0.3c-0.9-0.4-1.8-0.5-2.8-0.5c-0.8,0-1.4,0.2-1.9,0.6c-0.4,0.4-0.7,0.8-0.7,1.4c0,0.5,0.2,0.9,0.5,1.2
			c0.3,0.3,0.9,0.8,1.9,1.3c0.9,0.5,1.6,0.9,1.9,1.3c0.4,0.4,0.7,0.8,0.9,1.2C1849.2,569.3,1849.3,569.8,1849.3,570.3z"/>
	</g>
	<g class="st1">
		<g>
			<path d="M512.1,210.4c-4.8-0.7-9.7-1.2-14.7-1.2c-55.3,0-100.2,44.8-100.2,100.2c0,55.3,44.8,100.2,100.2,100.2
				c28.3,0,53.9-11.8,72.1-30.7c17.3-18,28.1-42.5,28.1-69.5C597.5,259,560.4,217.5,512.1,210.4z M504.1,354.9v15.2h-14.6V356
				c-10-0.4-19.7-3.1-25.3-6.4l4.5-17.4c6.3,3.4,15.1,6.5,24.7,6.5c8.5,0,14.3-3.3,14.3-9.2c0-5.7-4.8-9.2-15.8-13
				c-16-5.4-26.9-12.8-26.9-27.3c0-13.1,9.3-23.4,25.2-26.5v-14.2h14.6v13.1c10,0.4,16.7,2.5,21.6,4.9l-4.3,16.9
				c-3.9-1.6-10.7-5.1-21.5-5.1c-9.7,0-12.8,4.2-12.8,8.4c0,4.9,5.2,8,17.9,12.8c17.7,6.3,24.9,14.5,24.9,27.9
				C530.6,340.6,521.2,352,504.1,354.9z"/>
			<path d="M703.7,483.1c10.5,0,20.5-4.1,27.8-11.5c7.4-7.4,11.5-17.4,11.5-27.8l0.1-268.8c0-21.7-17.6-39.3-39.3-39.3H289.5
				c-21.7,0-39.3,17.6-39.3,39.3l0.1,268.8c0,10.5,4.1,20.5,11.5,27.8c7.4,7.4,17.4,11.5,27.8,11.5H703.7z M693.9,373.5
				c-28.4,11.1-51.2,32.9-64,60.4H363.4c-12.8-27.5-35.6-49.3-64-60.4l0-127.9c28.4-11.2,51.2-33.2,63.9-60.8H630
				c12.7,27.6,35.5,49.5,63.9,60.8L693.9,373.5z"/>
			<path d="M783.9,295.3l-25.3-9.2l-0.1,157.7c0,14.6-5.7,28.4-16,38.8c-10.3,10.3-24.1,16-38.6,16h-4.1l-6.2,17
				c-30.5,0.8-59.4,13.5-80.7,35.1l-143.8-52.1H324.5L665.5,622c9.8,3.6,20.6,3.1,30.1-1.3c9.4-4.4,16.7-12.4,20.3-22.3l91.5-252.8
				C814.8,325.2,804.2,302.7,783.9,295.3z"/>
		</g>
	</g>
	<g>
		<g>
			<path class="st0" d="M482.1,180.4c-4.8-0.7-9.7-1.2-14.7-1.2c-55.3,0-100.2,44.8-100.2,100.2c0,55.3,44.8,100.2,100.2,100.2
				c28.3,0,53.9-11.8,72.1-30.7c17.3-18,28.1-42.5,28.1-69.5C567.5,229,530.4,187.5,482.1,180.4z M474.1,324.9v15.2h-14.6V326
				c-10-0.4-19.7-3.1-25.3-6.4l4.5-17.4c6.3,3.4,15.1,6.5,24.7,6.5c8.5,0,14.3-3.3,14.3-9.2c0-5.7-4.8-9.2-15.8-13
				c-16-5.4-26.9-12.8-26.9-27.3c0-13.1,9.3-23.4,25.2-26.5v-14.2h14.6v13.1c10,0.4,16.7,2.5,21.6,4.9l-4.3,16.9
				c-3.9-1.6-10.7-5.1-21.5-5.1c-9.7,0-12.8,4.2-12.8,8.4c0,4.9,5.2,8,17.9,12.8c17.7,6.3,24.9,14.5,24.9,27.9
				C500.6,310.6,491.2,322,474.1,324.9z"/>
			<path class="st0" d="M673.7,453.1c10.5,0,20.5-4.1,27.8-11.5c7.4-7.4,11.5-17.4,11.5-27.8l0.1-268.8c0-21.7-17.6-39.3-39.3-39.3
				H259.5c-21.7,0-39.3,17.6-39.3,39.3l0.1,268.8c0,10.5,4.1,20.5,11.5,27.8c7.4,7.4,17.4,11.5,27.8,11.5H673.7z M663.9,343.5
				c-28.4,11.1-51.2,32.9-64,60.4H333.4c-12.8-27.5-35.6-49.3-64-60.4l0-127.9c28.4-11.2,51.2-33.2,63.9-60.8H600
				c12.7,27.6,35.5,49.5,63.9,60.8L663.9,343.5z"/>
			<path class="st0" d="M753.9,265.3l-25.3-9.2l-0.1,157.7c0,14.6-5.7,28.4-16,38.8c-10.3,10.3-24.1,16-38.6,16h-4.1l-6.2,17
				c-30.5,0.8-59.4,13.5-80.7,35.1l-143.8-52.1H294.5L635.5,592c9.8,3.6,20.6,3.1,30.1-1.3c9.4-4.4,16.7-12.4,20.3-22.3l91.5-252.8
				C784.8,295.2,774.2,272.7,753.9,265.3z"/>
		</g>
	</g>
	<g class="st1">
		<path d="M1436.6,187.1c8.9,26.9,33.6,26.9,42.4,0c2.9-1.5,5.9-6.1,6.4-9.8c0.5-3.9,0.2-9.2-3.8-9.2c-0.9-12.6-7.8-23.3-23.5-23.3
			c-15.4,0-23.2,9.2-24.2,23.3c-3.9,0-4.3,5.2-3.8,9.2C1430.6,181,1433.6,185.5,1436.6,187.1z"/>
		<path d="M1488.6,208.9l-10-2.1l-20.9,41.6l-20.9-41.6l-10,2.1c-13.7,2.9-23.5,14.5-23.5,27.9v28.5h108.8v-28.5
			C1512.2,223.4,1502.4,211.8,1488.6,208.9z"/>
		<path d="M1612.5,177.2c0.5,3.7,3.5,8.3,6.4,9.8c8.9,26.9,33.6,26.9,42.4,0c2.9-1.5,5.9-6.1,6.4-9.8c0.5-3.9,0.2-9.2-3.8-9.2
			c-0.9-12.6-7.8-23.3-23.5-23.3c-15.4,0-23.2,9.2-24.2,23.3C1612.3,168.1,1612,173.3,1612.5,177.2z"/>
		<path d="M1671,208.9l-10-2.1l-20.9,41.6l-20.9-41.6l-10,2.1c-13.7,2.9-23.5,14.5-23.5,27.9v28.5h108.8v-28.5
			C1694.5,223.4,1684.8,211.8,1671,208.9z"/>
		<path d="M1526.1,124.9c9.6,29.2,36.5,29.2,46.1,0c3.1-1.7,6.4-6.6,7-10.7c0.5-4.3,0.2-10-4.1-10c-0.9-13.7-8.5-25.3-25.5-25.3
			c-16.7,0-25.2,10-26.3,25.3c-4.3,0-4.6,5.7-4.1,10C1519.6,118.3,1522.9,123.2,1526.1,124.9z"/>
		<path d="M1608.2,179c0-14.6-10.6-27.2-25.6-30.4l-10.9-2.3l-22.7,45.2l-22.7-45.2l-10.9,2.3c-14.9,3.1-25.5,15.7-25.5,30.4v31
			h118.2V179z"/>
	</g>
	<g>
		<path class="st2" d="M1416.6,167.1c8.9,26.9,33.6,26.9,42.4,0c2.9-1.5,5.9-6.1,6.4-9.8c0.5-3.9,0.2-9.2-3.8-9.2
			c-0.9-12.6-7.8-23.3-23.5-23.3c-15.4,0-23.2,9.2-24.2,23.3c-3.9,0-4.3,5.2-3.8,9.2C1410.6,161,1413.6,165.5,1416.6,167.1z"/>
		<path class="st2" d="M1468.6,188.9l-10-2.1l-20.9,41.6l-20.9-41.6l-10,2.1c-13.7,2.9-23.5,14.5-23.5,27.9v28.5h108.8v-28.5
			C1492.2,203.4,1482.4,191.8,1468.6,188.9z"/>
		<path class="st2" d="M1592.5,157.2c0.5,3.7,3.5,8.3,6.4,9.8c8.9,26.9,33.6,26.9,42.4,0c2.9-1.5,5.9-6.1,6.4-9.8
			c0.5-3.9,0.2-9.2-3.8-9.2c-0.9-12.6-7.8-23.3-23.5-23.3c-15.4,0-23.2,9.2-24.2,23.3C1592.3,148.1,1592,153.3,1592.5,157.2z"/>
		<path class="st2" d="M1651,188.9l-10-2.1l-20.9,41.6l-20.9-41.6l-10,2.1c-13.7,2.9-23.5,14.5-23.5,27.9v28.5h108.8v-28.5
			C1674.5,203.4,1664.8,191.8,1651,188.9z"/>
		<path class="st2" d="M1506.1,104.9c9.6,29.2,36.5,29.2,46.1,0c3.1-1.7,6.4-6.6,7-10.7c0.5-4.3,0.2-10-4.1-10
			c-0.9-13.7-8.5-25.3-25.5-25.3c-16.7,0-25.2,10-26.3,25.3c-4.3,0-4.6,5.7-4.1,10C1499.6,98.3,1502.9,103.2,1506.1,104.9z"/>
		<path class="st2" d="M1588.2,159c0-14.6-10.6-27.2-25.6-30.4l-10.9-2.3l-22.7,45.2l-22.7-45.2l-10.9,2.3
			c-14.9,3.1-25.5,15.7-25.5,30.4v31h118.2V159z"/>
	</g>
	<g>
		<g>
			<path class="st3" d="M1554.2,772.3c-1.4,2.3-3.4,3.9-6.2,3.9c-6.2,0.1-7.1-7.4-7.1-12.1c0-4.7,0.9-12.2,7.1-12.2
				c2.7,0,4.6,1.5,5.8,3.9l-2,1.2c-0.8-1.5-2-2.8-3.8-2.8c-4.3,0-4.6,6.8-4.6,10c0,3.1,0.3,9.9,4.6,9.9c1.8,0,3.3-1.5,4.2-3
				L1554.2,772.3z"/>
			<path class="st3" d="M1565.6,768.6l-1.8,7.8l-2.4-0.7l6-23.6h2.8l6.1,23.6l-2.4,0.7l-1.8-7.8H1565.6z M1568.9,755.4L1568.9,755.4
				l-2.7,11.1h5.3L1568.9,755.4z"/>
			<path class="st3" d="M1584,752.1h3l7.1,20l0.1-0.1l-0.1-5.3v-14.7h2.4v23.7h-3l-7-20l-0.1,0.1l0.1,5.4v14.5h-2.4L1584,752.1
				L1584,752.1z"/>
			<path class="st3" d="M1616.7,751.7l2.2,0.9l-6.2,13.9v9.4h-2.4v-9.3l-6.1-14l2.2-0.9l5.1,12L1616.7,751.7z"/>
			<path class="st3" d="M1639.6,764c0,3,0.1,12.2-6.6,12.2c-6.8,0-6.6-9.1-6.6-12.2c0-3.9,0.2-12.2,6.6-12.2
				C1639.6,751.8,1639.6,760.9,1639.6,764z M1628.9,764c0,6.4,0.8,10,4.1,10c4.2,0,4.1-5.8,4.1-10c0-4.5,0.1-9.9-4.1-9.9
				S1628.9,760.5,1628.9,764z"/>
			<path class="st3" d="M1648.1,752.1h3l7.1,20l0.1-0.1l-0.1-5.3v-14.7h2.4v23.7h-3l-7.1-20l-0.1,0.1l0.1,5.4v14.5h-2.4V752.1
				L1648.1,752.1z"/>
			<path class="st3" d="M1575.5,800.8c-1.4,2.3-3.4,3.9-6.2,3.9c-6.2,0-7.1-7.5-7.1-12.2c0-4.7,0.9-12.2,7.1-12.2
				c2.7,0,4.6,1.5,5.8,3.9l-2,1.2c-0.8-1.5-2-2.8-3.8-2.8c-4.3,0-4.6,6.8-4.6,10c0,3.1,0.3,9.9,4.6,9.9c1.8,0,3.3-1.5,4.2-3
				L1575.5,800.8z"/>
			<path class="st3" d="M1585.3,780.6h6.4c2.4,0,5.3,2,5.3,6.3c0,2.9-1.2,5.7-4.1,6.7l4.9,10.2l-2.1,1l-5.3-11h-2.7v10.6h-2.4V780.6
				z M1587.7,791.7h3.5c2.1,0,3.3-1.5,3.3-4.7c0-3.1-1.5-4.2-3.9-4.2h-2.9V791.7z"/>
			<path class="st3" d="M1606.5,780.6h11.6v2.1h-9.2v7.8h7.6v2.1h-7.6v9.5h9.2v2.1h-11.6V780.6z"/>
			<path class="st3" d="M1627.9,780.6h11.6v2.1h-9.2v7.8h7.6v2.1h-7.6v9.5h9.2v2.1h-11.6V780.6z"/>
			<path class="st3" d="M1651.8,790.4h0.7l6.6-10.3l1.9,1.2l-6.5,10l7.8,12.2l-2,1.2l-7.7-12.3h-0.8v11.8h-2.4v-23.7h2.4
				L1651.8,790.4L1651.8,790.4z"/>
		</g>
		<g>
			<path class="st3" d="M1717.8,773.6l-0.5,0.1l-1-3.6c-1.1-0.3-2.2-0.4-3.1-0.4c-2.3,0-4,0.8-5.3,2.4c-1.3,1.6-2,3.6-2,6.1
				c0,2.7,0.7,4.9,2.2,6.5s3.5,2.4,6.1,2.4c1.5,0,3-0.3,4.6-0.8l0.2,0.6c-1.8,1.2-3.9,1.9-6.2,1.9c-3,0-5.4-0.9-7.2-2.7
				c-1.8-1.8-2.7-4.2-2.7-7.2c0-3.1,1-5.6,3-7.5c2-1.8,4.7-2.8,7.9-2.8c1.5,0,3.1,0.2,4.8,0.6l0.1,0.1L1717.8,773.6z"/>
			<path class="st3" d="M1734,768.5l6.1,16.9c0.2,0.7,0.4,1.1,0.7,1.3c0.2,0.2,0.5,0.4,0.8,0.5l1.3,0.4v0.6c-1.2,0-2.3-0.1-3.4-0.1
				c-1.1,0-2.3,0-3.7,0.1l-0.1-0.6l1.3-0.4c0.2-0.1,0.3-0.1,0.4-0.2c0.1-0.1,0.1-0.2,0.1-0.4c0-0.2-0.1-0.4-0.1-0.7
				c-0.1-0.3-0.2-0.7-0.4-1.2l-1.3-3.7h-6.6l-1.4,3.7c-0.2,0.5-0.4,0.9-0.5,1.2c-0.1,0.3-0.2,0.5-0.2,0.7c0,0.2,0.1,0.3,0.1,0.4
				c0.1,0.1,0.2,0.1,0.4,0.2l1.3,0.4v0.6c-1.3,0-2.4-0.1-3.2-0.1s-1.8,0-2.8,0.1l-0.1-0.6l1.4-0.4c0.4-0.1,0.6-0.3,0.8-0.5
				s0.4-0.6,0.5-1.1l7.1-16.9L1734,768.5z M1729.6,779.7h5.7l-2.7-7.6L1729.6,779.7z"/>
			<path class="st3" d="M1752.5,783.9c0,0.5,0,1.1,0,1.5c0,0.4,0,0.8,0,1.2c0,0.2,0.1,0.4,0.4,0.4l1.9,0.6v0.6
				c-1.4,0-2.6-0.1-3.7-0.1s-2.3,0-3.4,0.1l-0.1-0.6l1.7-0.5c0.2-0.1,0.4-0.2,0.4-0.4c0-0.4,0-0.8,0-1.2s0-0.9,0-1.5v-11.2
				c0-0.5,0-0.9,0-1.2s0-0.7,0-1c0-0.2-0.1-0.4-0.4-0.5l-1.7-0.5v-0.6c1.2,0.1,2.4,0.1,3.5,0.1c0.8,0,1.5,0,2.2-0.1
				c0.7-0.1,1.4-0.1,2-0.1c2.2,0,3.9,0.4,5,1.3c1.1,0.8,1.7,2.1,1.7,3.8c0,2-0.7,3.5-2,4.6c-1.3,1.1-3.1,1.7-5.5,1.7
				c-0.7,0-1.3-0.1-2.1-0.1v3.9H1752.5z M1752.5,778.8c0.7,0.1,1.3,0.2,1.9,0.2c1.5,0,2.6-0.4,3.4-1.1s1.1-1.9,1.1-3.5
				c0-1.5-0.4-2.6-1.1-3.4c-0.7-0.7-1.9-1.1-3.4-1.1c-0.6,0-1.2,0.1-1.8,0.1V778.8L1752.5,778.8z"/>
			<path class="st3" d="M1772.1,783.9c0,0.5,0,1.1,0,1.5c0,0.5,0,0.9,0,1.2c0,0.2,0.2,0.4,0.5,0.5l1.5,0.5v0.6
				c-1.2,0-2.3-0.1-3.4-0.1c-1.1,0-2.3,0-3.4,0.1l-0.1-0.6l1.7-0.5c0.2-0.1,0.4-0.2,0.4-0.4c0-0.4,0-0.8,0-1.2s0-0.9,0-1.5v-11.2
				c0-0.5,0-0.9,0-1.2s0-0.7,0-1c0-0.2-0.1-0.4-0.4-0.5l-1.7-0.5v-0.6c1.2,0.1,2.3,0.1,3.4,0.1c1.1,0,2.3,0,3.4-0.1l0.1,0.6
				l-1.7,0.5c-0.2,0.1-0.4,0.2-0.4,0.4c0,0.3,0,0.7,0,1.1c0,0.4,0,0.8,0,1.2L1772.1,783.9L1772.1,783.9z"/>
			<path class="st3" d="M1788,788.2c-1.1,0-2.4,0-3.7,0.1l-0.1-0.6l2-0.6c0.2-0.1,0.4-0.2,0.4-0.4c0-0.7,0-1.6,0-2.7v-13.9h-4.9
				l-1.2,3.7l-0.5,0.1l-0.4-4.9l0.1-0.1c2.3,0.1,4.5,0.1,6.5,0.1h3.7c2.1,0,4.3,0,6.5-0.1l0.1,0.1l-0.9,4.9l-0.5,0.1l-0.9-3.8h-4.9
				V784c0,1.1,0,2,0,2.7c0,0.2,0.1,0.4,0.4,0.4l2.1,0.6v0.6C1790.3,788.2,1789.1,788.2,1788,788.2z"/>
			<path class="st3" d="M1809.2,768.5l6.1,16.9c0.2,0.7,0.4,1.1,0.7,1.3c0.2,0.2,0.5,0.4,0.8,0.5l1.3,0.4v0.6
				c-1.2,0-2.3-0.1-3.4-0.1c-1.1,0-2.3,0-3.7,0.1l-0.1-0.6l1.3-0.4c0.2-0.1,0.3-0.1,0.4-0.2c0.1-0.1,0.1-0.2,0.1-0.4
				c0-0.2-0.1-0.4-0.1-0.7c-0.1-0.3-0.2-0.7-0.4-1.2l-1.3-3.7h-6.6l-1.4,3.7c-0.2,0.5-0.4,0.9-0.5,1.2c-0.1,0.3-0.2,0.5-0.2,0.7
				c0,0.2,0.1,0.3,0.1,0.4c0.1,0.1,0.2,0.1,0.4,0.2l1.3,0.4v0.6c-1.3,0-2.4-0.1-3.2-0.1c-0.8,0-1.8,0-2.8,0.1l-0.1-0.6l1.4-0.4
				c0.4-0.1,0.6-0.3,0.8-0.5s0.4-0.6,0.5-1.1l7.1-16.9L1809.2,768.5z M1804.8,779.7h5.7l-2.7-7.6L1804.8,779.7z"/>
			<path class="st3" d="M1827.7,772.6v11.2c0,1,0,2,0,3h6.8l1.8-3.7l0.6-0.1l-0.3,4.9l-0.1,0.1c-2.4,0-4.6-0.1-6.6-0.1h-3.5
				c-1.1,0-2.3,0-3.4,0.1l-0.1-0.6l1.7-0.5c0.2-0.1,0.4-0.2,0.4-0.4c0-0.4,0-0.8,0-1.2s0-0.9,0-1.5v-11.1c0-0.5,0-0.9,0-1.2
				s0-0.7,0-1c0-0.2-0.1-0.4-0.4-0.5l-1.7-0.5v-0.6c1.2,0.1,2.3,0.1,3.4,0.1c1.1,0,2.3,0,3.4-0.1l0.1,0.6l-1.7,0.5
				c-0.2,0.1-0.4,0.2-0.4,0.4c0,0.3,0,0.8,0,1.4C1827.7,772.4,1827.7,772.7,1827.7,772.6z"/>
		</g>
		<path class="st3" d="M1686.9,730c-3.4,0.3-13.9,12.7-13.9,21.4c0,8.7,13.6,17.3,13.6,37.6c0,20.3-11.7,25.7-11.7,35.3
			c0-1.5,16.2-19.3,16.2-36.7c0-23.7-15.8-29.1-15.8-40.2C1675.4,738.8,1686.9,730,1686.9,730z"/>
	</g>
	<g>
		<path class="st4" d="M1310.8,763.4c0,0.4,0.1,0.9,0.1,1.3c0,11.9,0,23.9,0,35.9c0,0.4-0.1,0.9-0.1,1.3c-29,0-58,0-87,0
			c0-12.8,0-25.6,0-38.6C1252.8,763.4,1281.8,763.4,1310.8,763.4z M1309.1,765.4c-27.9,0-55.6,0-83.3,0c0,11.6,0,23.1,0,34.7
			c27.9,0,55.6,0,83.3,0C1309.1,788.5,1309.1,777,1309.1,765.4z"/>
		<path class="st4" d="M1490.4,787c-2,3.7-7.6,5.1-11.2,2.9c-0.9-0.5-1.3-1.3-1.3-2.3c0-0.9,0.1-1.7,0.1-2.6c0.6,0,1.2,0,1.7,0
			c1.1,2.7,2.1,3.3,4.7,3.1c1-0.1,1.8-0.4,2-1.5c0.2-1.1-0.5-1.6-1.5-2c-1.2-0.4-2.5-0.9-3.7-1.4c-2.4-1-3.4-2.6-3.2-4.8
			c0.2-2.3,1.7-3.9,4.2-4.3c1.6-0.2,3.3-0.2,4.9,0c2,0.2,2.5,0.9,2.5,2.9c0,0.7-0.1,1.3-0.2,2.1c-0.6,0-1.2,0-1.7,0
			c-1.1-2.5-1.7-2.9-4-2.7c-0.9,0.1-1.7,0.4-1.9,1.4s0.4,1.6,1.3,1.9c1,0.4,2,0.8,3,1.1c1.8,0.6,3.2,1.6,4.1,3.4
			C1490.4,785.2,1490.4,786.1,1490.4,787z"/>
		<path class="st4" d="M1389.4,774.2c2.2,0,4.1,0,6.3,0c2.2,3.2,4.5,6.6,6.9,10c0-2.7,0-5.1,0-7.6c-0.8-0.2-1.4-0.4-2-0.6
			c0-0.5,0-1.1,0-1.7c2.2,0,4.4,0,6.7,0c0,0.5,0.1,1.1,0.1,1.7c-0.6,0.2-1.2,0.4-2.2,0.7c0,4.5,0,9,0,13.4c-2,1.1-2.9,1-3.9-0.6
			c-2-3-4-5.9-6-8.9c-0.3-0.5-0.6-0.9-1.2-1.7c0,3.3,0,6.3,0,9.3c0.7,0.2,1.3,0.3,2,0.5c0,0.5,0,1.1,0,1.7c-2.2,0-4.4,0-6.7,0
			c0-0.6-0.1-1.1-0.1-1.7c0.6-0.1,1.2-0.3,2-0.5c0.2-3.8,0.3-7.6,0.1-11.6c-0.8-0.2-1.4-0.4-2.1-0.6
			C1389.4,775.4,1389.4,774.9,1389.4,774.2z"/>
		<path class="st4" d="M1458.1,776.5c-0.6-0.2-1.2-0.3-1.8-0.5c0-0.5,0-1.1,0-1.8c3.6,0,7.1-0.3,10.6,0.4c1.8,0.4,2.9,1.6,3.2,3.4
			c0.3,1.9-0.1,3.6-1.7,4.9c-0.4,0.3-0.9,0.5-1.4,0.9c1.3,1.9,2.5,3.9,4.9,4.8c0,0.6,0,1.1,0,1.7c-2.4,0.4-4.5,0-6-2
			c-0.8-1-1.5-2.2-2.2-3.2c-0.4-0.6-0.7-1.2-1.5-0.9c0,1.3,0,2.7,0,4c0.6,0.2,1.2,0.3,1.8,0.4c0,0.5,0.1,1.1,0.1,1.7
			c-2.6,0-5.2,0-7.8,0c0-0.5-0.1-1.1-0.1-1.6c0.6-0.2,1.2-0.3,1.9-0.5C1458.1,784.3,1458.1,780.4,1458.1,776.5z M1462.2,777
			c0,1.5,0,3,0,4.5c1.5,0,2.9,0.2,3.8-1.1c0.5-0.8,0.6-1.8,0-2.6C1465,776.6,1463.5,776.9,1462.2,777z"/>
		<path class="st4" d="M1413.1,790.4c0-0.7,0-1.2,0-1.8c0.6-0.1,1.1-0.3,1.6-0.4c0.5-1.3,0.6-9.5,0.2-11.8c-0.5-0.1-1.1-0.3-1.8-0.5
			c0-0.5,0-1,0-1.8c2.1,0,4.1-0.1,6.1,0c1.8,0.1,3.7,0.2,5.4,0.6c1.1,0.2,2.2,0.8,2.9,1.6c2.4,2.6,2.3,5.7,1.5,8.8
			c-0.7,2.8-2.7,4.3-5.5,4.9c-0.8,0.2-1.7,0.3-2.5,0.3C1418.4,790.4,1415.8,790.4,1413.1,790.4z M1419,776.9c0,3.7,0,7.1,0,10.6
			c2,0.5,3.9,0.5,5.3-1c1.4-1.5,1.6-5.4,0.5-7.5C1423.6,776.6,1421.3,777.1,1419,776.9z"/>
		<path class="st4" d="M1342.5,782.4c0-6.9,6.5-10.9,12.7-7.7c0.5,0.2,1,0.5,1.4,1c2.6,2.7,2.7,6,1.9,9.4c-0.7,3-2.7,5-5.8,5.5
			C1346.4,791.7,1342.4,788.4,1342.5,782.4z M1354.9,782.3c-0.1-0.9-0.2-1.7-0.3-2.5c-0.5-2.2-1.7-3.2-3.7-3.3
			c-2-0.1-3.6,1.1-4.2,3.1c-0.5,1.9-0.5,3.8,0.1,5.7c0.6,1.9,1.8,2.8,3.8,2.8c1.9,0,3.2-1,3.8-2.8
			C1354.7,784.2,1354.8,783.2,1354.9,782.3z"/>
		<path class="st4" d="M1441.8,776.8c0,1.4,0,2.6,0,4c0.8,0,1.5,0,2.3,0c0.3-0.5,0.6-1,0.9-1.5c0.5,0,1,0,1.6,0c0,1.9,0,3.7,0,5.7
			c-0.5,0-1,0-1.5,0.1c-0.2-0.5-0.5-1-0.8-1.5c-0.8-0.1-1.5-0.1-2.4-0.2c0,1.6,0,3,0,4.8c1.9-0.1,3.7-0.2,5.4-0.2
			c0.4-0.9,0.7-1.4,1.1-2.1c0.5,0,1.1,0,1.9,0c-0.1,1.4-0.3,2.7-0.4,4.2c-0.7,0.2-1.3,0.5-1.8,0.5c-3.9,0-7.9,0-11.9,0
			c0-0.6-0.1-1.1-0.1-1.7c0.6-0.2,1.2-0.3,2-0.5c0-3.8,0-7.6,0-11.6c-0.6-0.2-1.2-0.4-1.9-0.6c0-0.5,0-1,0-1.8
			c4.3,0,8.6-0.1,13.1,0.1c0,1.6,0,2.9,0,4.4c-0.8,0-1.3,0-2,0c-0.2-0.5-0.5-1.1-0.8-1.8C1444.8,776.8,1443.4,776.8,1441.8,776.8z"
			/>
		<path class="st4" d="M1365.2,775.9c0-0.6,0-1.1,0-1.7c2.7,0,5.4,0,8.1,0c0,0.6,0,1.2,0,1.7c-0.6,0.1-1.2,0.3-1.9,0.4
			c-0.1,0.4-0.3,0.9-0.3,1.3c0,2.2-0.1,4.3,0,6.5c0.2,3.3,1.7,4.4,4.9,3.8c1.6-0.3,2.5-1.1,2.7-2.7c0.1-1.2,0.1-2.4,0.1-3.6
			c0-1.7,0-3.4,0-5.1c-0.9-0.3-1.5-0.5-2.2-0.8c0-0.5,0-1.1,0-1.7c2.3,0,4.4,0,6.7,0c0,0.5,0.1,1.1,0.2,1.7c-0.6,0.2-1.2,0.4-2,0.6
			c-0.1,0.6-0.2,1.3-0.2,2c-0.1,2.2,0,4.4-0.1,6.7c-0.1,3-1.6,4.8-4.5,5.3c-1.8,0.3-3.9,0.1-5.7-0.2c-2-0.4-3.3-1.8-3.4-4
			c-0.2-2.6-0.2-5.1-0.2-7.6c0-0.7-0.1-1.5-0.1-2.2C1366.4,776.3,1365.8,776.1,1365.2,775.9z"/>
		<path class="st4" d="M1336.3,774.4c-0.1,1.6-0.1,2.9-0.2,4.3c-0.8,0-1.4,0-2,0c-0.2-0.5-0.4-1-0.8-1.6c-1.4,0-2.9,0-4.4,0
			c0,1.4,0,2.8,0,4.5c1-0.1,1.9-0.1,2.7-0.2c0.3-0.6,0.5-1.1,0.8-1.6c0.4,0,0.9,0,1.5-0.1c0,2,0,3.9,0,6c-0.4,0-0.9,0-1.4,0.1
			c-0.2-0.5-0.4-1-0.8-1.7c-0.9-0.1-1.8-0.1-2.9-0.2c0,1.5,0,2.8,0,4.3c0.8,0.2,1.5,0.4,2.3,0.6c0,0.5,0,1.1,0,1.7
			c-2.7,0-5.4,0-8.2,0c0-0.6,0-1.2,0-1.8c0.6-0.1,1.1-0.2,1.9-0.4c0.2-3.9,0.1-7.7,0-11.6c-0.8-0.2-1.4-0.4-2-0.6
			c0-0.5,0-1.1,0.1-1.8C1327.4,774.2,1331.7,773.9,1336.3,774.4z"/>
		<path class="st4" d="M1291.4,790.4c0-0.7,0-1.2,0-1.7c0.6-0.1,1.1-0.3,1.8-0.4c0-1.5,0-3.1,0-4.8c-1.8,0-3.6,0-5.6,0
			c0,1.5,0,3.1,0,4.7c0.7,0.2,1.2,0.3,1.9,0.4c0,0.5,0.1,1.1,0.1,1.7c-2.7,0-5.3,0-8,0c0-0.6,0-1.1,0-1.7c0.5-0.2,1.1-0.3,1.9-0.5
			c0-3.9,0-7.7,0-11.7c-0.7-0.2-1.3-0.4-1.8-0.5c0-0.6,0-1.1,0-1.7c2.6,0,5.2,0,7.8,0c0,0.6,0,1.2,0,1.7c-0.6,0.2-1.2,0.3-1.9,0.6
			c0,1.3,0,2.6,0,4c1.9,0,3.8,0,5.7,0c0-1.3,0-2.6,0-4c-0.6-0.2-1.2-0.4-1.9-0.6c0-0.5,0-1.1,0-1.7c2.6,0,5.1,0,7.8,0
			c0,0.6,0,1.1,0.1,1.7c-0.6,0.2-1.2,0.4-1.9,0.6c0,3.9,0,7.7,0,11.6c0.6,0.2,1.2,0.3,1.9,0.5c0,0.6,0,1.1,0,1.7
			C1296.6,790.4,1294,790.4,1291.4,790.4z"/>
		<path class="st4" d="M1258.9,783.5c0-8,6.7-11.9,12.7-8.7c0.7,0.4,1.4,1,1.9,1.6c2.3,2.8,2.2,8.6-0.1,11.5
			c-2.1,2.8-6.6,3.8-10.2,2.2C1259.9,788.6,1258.9,785.7,1258.9,783.5z M1271.3,782.3c-0.1-0.9-0.2-1.7-0.4-2.6
			c-0.5-2.1-1.6-3.1-3.6-3.2c-2-0.1-3.5,1-4.1,2.9c-0.6,1.9-0.5,3.9,0,5.9c0.6,2,1.9,2.9,3.9,2.8c1.8-0.1,3.1-1.1,3.7-3
			C1271.1,784.1,1271.2,783.2,1271.3,782.3z"/>
		<path class="st4" d="M1242.6,788.1c0.7,0.2,1.2,0.3,1.9,0.5c0,0.5,0.1,1,0.1,1.7c-2.7,0-5.2,0-7.9,0c0-0.5,0-1.1,0-1.7
			c0.6-0.1,1.1-0.3,1.8-0.4c0-3.9,0-7.7,0-11.7c-0.6-0.2-1.2-0.3-1.8-0.5c0-0.5,0-1.1,0-1.7c2.6,0,5.1,0,7.8,0
			c0,0.5,0.1,1.1,0.1,1.7c-0.7,0.2-1.3,0.4-2,0.6C1242.6,780.4,1242.6,784.2,1242.6,788.1z"/>
		<path class="st4" d="M1246.5,781.7c2.2,2.6,3.5,5.7,6.9,7c0,0.1,0.1,0.3,0.1,0.6c0,0.3,0,0.6,0,0.8c-2.8,0.9-4.9,0.3-6.7-1.8
			c-0.8-0.9-1.4-1.9-2.1-2.9c-0.6-1-1.3-2-1.9-3.1c1.6-1.9,3.2-3.7,4.9-5.6c-0.5-0.3-0.7-0.5-1-0.6c-0.2-0.1-0.4-0.1-0.6-0.2
			c0-0.6,0-1.2,0-1.8c2.3,0,4.6,0,7,0c0,0.6,0.1,1.1,0.1,1.7C1250.2,776.9,1248.8,779.7,1246.5,781.7z"/>
	</g>
	<g>
		<path class="st3" d="M1730.7,679.7c-0.5,0.6-0.9,1.2-1.3,1.8c-1.2,1.8-2.4,3.6-3.6,5.4c-2,2.9-4,5.7-6,8.5
			c-0.8,1.1-1.5,2.2-2.3,3.4c-0.9,1.4-2.5,1.2-3.2,0.3c-0.5-0.6-0.6-0.9-0.2-1.7c0.7-1.2,1.5-2.4,2.3-3.6c1.4-2.1,2.7-4.2,4.1-6.3
			c2.4-3.6,4.8-7.2,7.2-10.9c0.3-0.5,0.7-1,1.1-1.3c0.9-0.6,1.9-0.6,2.9-0.5c0.8,0.1,1.4,0.5,1.9,1.2c0.2,0.4,0.5,0.7,0.6,1
			c0.4,0.7,0.9,1.1,1.7,1.1c0.3,0,0.6,0.1,1,0.2c0.7,0.2,0.8,0.2,1.1-0.6c0.5-1,1-2.1,1.6-3c0.6-0.9,1.3-1.5,2.3-2
			c0.8-0.4,1.7-0.2,2.5,0.1c0.6,0.2,1.1,0.1,1.6-0.3c1.5-1,2.9-2,4.5-2.7c1.1-0.6,2.4-1,3.8-1.1c0.8,0,1.6-0.1,2.4,0
			c1.4,0.2,2.2,0.9,2.7,2.5c-7.6,3.6-13.7,8.9-17.8,16.2c1.8,2.7,3.5,5.2,5.3,7.7c0.4,0.6,0.8,1.1,1.1,1.7c0.5,1,0.3,2.3-0.6,2.7
			c-1.2,0.6-2.2,0.4-3-0.6c-1-1.3-1.8-2.6-2.8-3.9c-0.6-0.8-1.2-1.6-1.9-2.5c-0.3,0.5-0.5,0.8-0.7,1.2c-0.7,1.2-1.4,2.4-2.4,3.4
			c-1.5,1.5-3.3,2.1-5.2,2.2c-1.7,0.1-3.4-0.4-4.8-1.4c-1.6-1.1-2.2-2.8-2-4.7c0.2-1.6,0.8-3,2-4.1c0.9-0.8,2-1.2,3.1-1.4
			c1-0.2,1.1-0.3,1.3-1.4c0.1-1.1,0.3-2.3,0.6-3.3C1732.1,681.6,1731.8,680.7,1730.7,679.7z M1757.3,670.6c-0.4-0.2-0.6-0.4-0.7-0.4
			c-1.1-0.1-2.1-0.2-3.2,0.2c-1.7,0.5-3.2,1.3-4.8,2.2c-2.6,1.6-4.6,3.8-5.9,6.5c-0.3,0.6-0.6,1.2-0.9,1.7c-0.2,0.2-0.6,0.3-0.8,0.3
			c-0.4,0-0.5-0.4-0.4-0.8c0.1-0.4,0.1-0.9,0.3-1.3c0.4-0.8,1-1.5,1.4-2.4c0.3-0.7,0.6-1.2,1.1-1.7c0.2-0.2,0.2-0.4,0.3-0.6
			c-0.3-0.1-0.6-0.3-0.8-0.2c-0.6,0.2-1.3,0.4-1.6,1.1c-0.5,0.9-1,1.8-1.5,2.8c-0.5,1.1-1.1,2.3-1.5,3.4c-0.5,1.4-0.8,2.9-1.2,4.3
			c-0.2,0.7-0.5,1-1,1c-0.5-0.1-0.8-0.5-0.7-1.3c0-0.1,0-0.2,0-0.3c0.4-1.4,0.9-2.9,1.3-4.3c0.1-0.4,0.2-0.7-0.1-0.9
			c-0.2-0.2-0.6-0.4-0.9-0.3c-0.7,0.2-1.2,0.6-1.6,1.2c-1.1,1.9-1.3,4-1.5,6.1c0,0.5,0.2,0.7,0.6,0.9c2.1,1,2.9,4.2,1.8,6.1
			c-1.3,2.3-4.6,3.1-6.5,1.2c-0.5-0.5-0.7-1.3-0.9-2.1c-0.1-0.4,0.3-0.9,0.5-1.3c0.1-0.3,0.3-0.5,0.6-0.7c0.8-0.6,2-0.9,2.9-0.2
			c0.4,0.3,0.6,1.3,0.3,1.5c-0.3,0.3-0.7,0.2-1.1,0c0,0-0.1,0-0.1,0c-0.6-0.2-1-0.1-1.3,0.4c-0.2,0.5-0.1,0.9,0.3,1.2
			c0.6,0.5,1.3,0.7,2.1,0.4c1.1-0.4,1.9-1.2,1.9-2.3c0.1-1.7-0.7-2.7-1.7-3.1c-1.8-0.6-3.9,0.2-5.1,1.9c-1.2,1.8-1.2,3.6-0.1,5.2
			c1.1,1.4,3.8,2.1,5.8,1.6c2.7-0.7,4.1-2.6,5.2-4.9c0.6-1.2,0.9-2.5,1.4-3.8c0.8-1.8,1.8-3.4,2.8-5.1c1-1.6,2.2-3,3.4-4.4
			c1.3-1.5,2.8-2.9,4.3-4.1c1.6-1.3,3.3-2.4,5-3.5C1755.6,671.5,1756.3,671.1,1757.3,670.6z"/>
		<path class="st3" d="M1635.3,687.2c0-3.5,0-6.9,0-10.4c0-1.4,0.6-1.9,1.9-1.9c6.4,0,12.8-0.1,19.2,0c2.7,0,5.3,0.5,7.6,2.1
			c1.3,0.9,2,2.1,2,3.7c0,1.3,0.1,2.7,0,4c-0.1,2.1-1,3.7-3,4.7c-2.1,1.1-4.3,1.5-6.6,1.6c-5,0-9.9,0-14.9,0c-0.2,0-0.4,0-0.6,0
			c-1,0-1.1,0.1-1.1,1.1c0,1.8,0,3.7,0,5.5c0,1.8-0.9,2.1-2.1,2.2c-0.3,0-0.6,0-0.9,0c-1.1,0-1.8-0.6-1.8-1.8
			C1635.3,694.3,1635.3,690.8,1635.3,687.2L1635.3,687.2z M1648.9,678.7L1648.9,678.7c-2.7,0-5.3,0-8,0c-0.9,0-0.9,0.1-0.9,1
			c0,2.1,0,4.2,0,6.3c0,0.8,0.2,1.1,1,1.1c1.2,0,2.5-0.1,3.7-0.1c3.8,0,7.7,0,11.5,0c0.9,0,1.8-0.1,2.7-0.3c1.2-0.2,2.3-1.3,2.3-2.2
			c0-1.3,0-2.5,0-3.8c0-0.6-0.3-1-0.9-1.2c-1.5-0.6-3-0.8-4.5-0.8C1653.6,678.7,1651.3,678.7,1648.9,678.7z"/>
		<path class="st3" d="M1700.9,692c-2.5,0-5.1,0-7.6,0c-1.3,0-2.6,0.1-3.8,0.1c-0.8,0-1,0.3-0.6,1c0.8,1.7,2.3,2.5,4,2.5
			c4.2,0.2,8.4,0.2,12.6,0.2c0.3,0,0.7-0.1,1-0.1c0.9,0.1,1.7,1.2,1.7,2.2c-0.1,0.9-0.9,1.6-1.9,1.6c-3.7,0-7.4,0.1-11.2,0
			c-1.9,0-3.8,0-5.7-0.6s-3.6-1.4-4.5-3.2c-0.3-0.6-0.6-1.2-0.6-1.9c-0.1-2.7-0.1-5.4,0-8.1c0-1.6,0.9-2.9,2.2-3.8
			c1.6-1.1,3.5-1.8,5.5-1.8c4-0.1,8.1-0.2,12.1-0.1c2,0,4,0.8,5.6,2.1c1,0.8,1.5,1.9,1.5,3.2c0,1.6,0,3.2,0,4.9
			c0,0.3-0.1,0.6-0.2,0.9c-0.1,0.6-0.6,0.9-1.2,0.9c-1,0-2.1,0-3.1,0C1704.7,692,1702.8,692,1700.9,692z M1697.8,688.2
			c2.4,0,4.9,0,7.3,0c1.7,0,1.7,0.2,1.7-1.7c0-1.1-0.4-1.5-1.4-1.9c-1.6-0.7-3.2-0.7-4.9-0.8c-2.9-0.1-5.7,0.1-8.6,0.2
			c-0.4,0-0.7,0.1-1.1,0.2c-1.8,0.5-2.3,1-2.2,2.9c0,0.1,0,0.2,0,0.2c-0.1,0.5,0.3,0.7,0.7,0.8c0.2,0,0.5,0,0.8,0
			C1692.6,688.2,1695.2,688.2,1697.8,688.2z"/>
		<path class="st3" d="M1828.1,691.9c-3.1,0-6.3,0-9.4,0c-0.2,0-0.4,0-0.7,0c-0.6,0.1-1,0.6-0.7,1.2c0.4,1,1,1.8,2.1,2.2
			c1.1,0.4,2.4,0.7,3.6,0.7c3.7,0,7.4,0,11.2,0c0.3,0,0.7,0,1,0.1c0.5,0.1,1.1,0.3,1.2,0.9c0.1,0.8,0.5,1.6-0.4,2.2
			c-0.3,0.2-0.6,0.4-1,0.4c-4.3,0-8.6,0.1-12.8,0c-1.6,0-3.3-0.3-4.9-0.7c-1.9-0.5-3.4-1.8-4.1-3.7c-0.3-0.7-0.3-1.5-0.3-2.3
			c0-2,0.1-4,0-6c-0.1-3,1.8-4.9,4.1-5.7c1.7-0.6,3.4-1,5.3-0.9c3.5,0.1,7.1,0,10.6,0.1c2.1,0.1,4.1,0.8,5.6,2.4
			c0.7,0.7,1.1,1.6,1.1,2.7c0,1.4,0,2.8,0,4.2c0,0.3,0,0.6-0.1,0.9c-0.3,1.2-0.5,1.4-1.8,1.4
			C1834.5,691.9,1831.3,691.9,1828.1,691.9L1828.1,691.9z M1835,687.9c0.1-0.5,0.2-0.8,0.3-1.2c0.2-1-0.5-1.9-1.7-2.2
			c-2.7-0.7-5.4-0.5-8.1-0.7c-0.8,0-1.7,0.1-2.5,0.2c-1.1,0.1-2.1,0.1-3.2,0.2c-1.9,0.2-2.5,0.9-2.5,2.7c0,1,0.4,1.3,1.4,1.1
			c0.6-0.1,1.1-0.2,1.7-0.2c4.4,0,8.8,0,13.1,0C1834.1,687.9,1834.5,687.9,1835,687.9z"/>
		<path class="st3" d="M1804.7,699.7c-0.4-0.1-0.6-0.3-0.8-0.3c-3.5,0-7.1,0.2-10.6,0c-2-0.1-4.1-0.2-6.1-0.8
			c-1.3-0.4-2.4-1-3.4-1.9c-0.7-0.7-1.1-1.6-1.1-2.5c0-2.9,0-5.7,0-8.6c0-1.6,1-2.7,2.2-3.6c1.3-1,2.9-1.2,4.5-1.5
			c0.9-0.2,1.8-0.2,2.7-0.2c2.7,0,5.3-0.1,8,0c2.3,0.1,4.5,0.5,6.5,1.7c0.9,0.5,1.7,1.1,2.2,2.1c0.4,0.7,0.6,1.4,0.6,2.2
			c0,4.1-0.1,8.2,0,12.4c0,2.2-1.1,3.6-2.8,4.6c-1.9,1.1-4.1,1.6-6.3,1.7c-1.2,0.1-2.3,0.1-3.5,0.2c-1,0-1.6-0.4-2-1.3
			c-0.6-1.1,0.1-2.4,1.4-2.5c0.8,0,1.5,0,2.3,0c2,0.1,3.9-0.6,5.7-1.2C1804.4,700,1804.5,699.9,1804.7,699.7z M1798.3,695.9
			L1798.3,695.9c1.7,0,3.4,0,5.2,0c1.3,0,1.5-0.2,1.5-1.4c0-2.6,0-5.1,0-7.7c0-1.2-0.4-1.8-1.5-2.2c-1.6-0.6-3.3-0.9-5-0.9
			c-3,0.1-6,0-8.9,0c-1.8,0-2.9,1.2-2.9,2.9c0,2,0,4,0,6c0,1.3,0.6,2.1,1.8,2.5c1.6,0.6,3.2,0.7,4.8,0.8
			C1794.9,696,1796.6,695.9,1798.3,695.9z"/>
		<path class="st3" d="M1778.3,691.7c0,2.1,0,4.2,0,6.3c0,1.1-0.4,1.5-1.5,1.6c-0.4,0-0.7,0-1.1,0c-1.4,0-2-0.6-2-2
			c0-3.1,0-6.3,0-9.4c0-0.7,0-1.4,0-2.1c0-0.8-0.1-1.3-1.2-1.7c-0.8-0.3-1.7-0.4-2.6-0.4c-3.2,0-6.3-0.1-9.5,0c-1,0-2.1,0-3.1,0.5
			c-0.8,0.4-1.1,0.9-1.1,1.8c0,3.5,0,7.1,0,10.6c0,0.4,0,0.8,0,1.1c-0.2,1.1-0.3,1.7-1.8,1.7c-2.3,0-2.4-0.1-2.4-2.4
			c0-3.7,0-7.4,0-11.2c0-1.2,0.3-2.2,1-3.2c0.5-0.8,1.2-1.1,2-1.5c1-0.5,2.1-0.8,3.2-0.9c2.5-0.1,5.1-0.2,7.6-0.2c0.8,0,1.6,0,2.4,0
			c2-0.2,3.9,0,5.8,0.5s3.7,1.3,4.2,3.5c0.1,0.4,0.1,0.8,0.1,1.2C1778.3,687.5,1778.3,689.6,1778.3,691.7L1778.3,691.7z"/>
		<path class="st3" d="M1673.5,692.3c0,1.9,0,3.8,0,5.6c0,1-0.6,1.7-1.6,1.7c-2.1,0.1-2.9,0.1-2.9-2.7c0-3.4,0-6.8,0-10.1
			c-0.1-3.6,1.9-5.2,4.8-6.1c2.1-0.6,4.2-0.7,6.3-0.7c1.1,0,1.7,0.6,1.8,1.6c0.1,1.3-0.3,2-1.5,2.2c-0.4,0.1-0.8,0-1.2,0
			c-1.2,0.1-2.3,0-3.5,0.2c-1.7,0.3-2.3,1.1-2.2,2.6C1673.6,688.7,1673.5,690.5,1673.5,692.3L1673.5,692.3z"/>
		<path class="st3" d="M1843.5,687.2c0-3.5,0-7.1,0-10.6c0-1.2,0.4-1.7,1.5-1.7c0.6,0,1.3,0.1,1.9,0.2c0.6,0.1,1,0.6,1,1.3
			c0,1.4,0,2.7,0,4.1c0,4.9,0,9.8,0,14.8c0,1,0.1,2,0.1,3c0,0.8-0.5,1.3-1.3,1.3c-0.7,0.1-1.3,0.3-2.1,0c-0.8-0.3-1.2-0.6-1.2-1.5
			c0-0.6,0-1.1,0-1.7C1843.5,693.3,1843.5,690.2,1843.5,687.2L1843.5,687.2z"/>
	</g>
	<g>
		<g>
			<path class="st3" d="M1221.8,699.9c46.6,0,93.3,0,139.9,0c0,0.7,0,1.4,0,2.2c-46.6,0-93.3,0-139.9,0
				C1221.8,701.4,1221.8,700.7,1221.8,699.9z"/>
			<path class="st3" d="M1301.9,724.3C1301.8,724.3,1301.8,724.3,1301.9,724.3c-2.6-0.6-3.3-2.8-3.4-4.8c0-2.3,0-4.6,0-6.8
				c0-0.3,0-0.6,0-0.9c0-1.6-0.4-2-1.9-2.3c-0.1,0-0.2,0-0.3-0.1c-0.1-0.1-0.2-0.2-0.3-0.2c0.1-0.1,0.2-0.2,0.3-0.2
				c1.2-0.2,2.3-0.4,3.5-0.6c0.2,0,0.4-0.1,0.5-0.1c0,3.1,0,6.2,0,9.3c0,0.7,0,1.3,0.1,2c0.4,2.1,1.9,3.3,4,3.1
				c1.7-0.2,3.1-1,4.3-2.1c0.1-0.1,0.2-0.4,0.2-0.6c0-2.7,0-5.5,0-8.2c0-1.5-0.4-2-1.9-2.2c-0.3,0-0.6-0.1-1-0.1
				c-0.2,0-0.3-0.2-0.4-0.3c0,0,0.1-0.1,0.1-0.1c1.7-0.2,3.3-0.4,5-0.6c0,0.2,0,0.4,0,0.6c0,3.7,0,7.5,0,11.2c0,2.1,0.2,2.3,2.3,2.4
				c0.3,0,0.8-0.1,0.7,0.4c-1.4,0.5-2.8,0.9-4.2,1.4c-0.2,0-0.4,0-0.6,0c0-1,0-1.9,0-3c-1.6,1.3-3.2,2.4-5.1,3
				C1303.2,724.3,1302.5,724.3,1301.9,724.3z"/>
			<path class="st3" d="M1248.7,724.3c0,0-0.1-0.1-0.1-0.1c-3.4-0.9-5.2-2.9-5.7-6.4c-0.6-4,2.2-8.4,6.1-9.5
				c3.1-0.9,6.4,1.2,6.8,4.4c0,0.1,0,0.2,0,0.4c0,0.9-0.1,1.1-1,1.1c-1.7,0.1-3.4,0.3-5,0.4c-1.7,0.1-3.4,0.2-5,0.3
				c-0.3,2.8,1.1,6.7,4.7,7.5c1.5,0.3,3,0.1,4.3-0.9c0.4-0.3,0.9-0.7,1.3-1c0.1,0.2,0.3,0.3,0.4,0.5c-1.3,1.5-2.8,2.5-4.7,3.1
				c-0.1,0-0.2,0.1-0.3,0.1C1249.9,724.3,1249.3,724.3,1248.7,724.3z M1245,713.6c2.7,0,5.3,0,7.9,0c0.5,0,0.7-0.3,0.7-0.8
				c-0.1-1.5-0.9-2.5-2.2-3.2C1248.5,708.3,1245.3,710.3,1245,713.6z"/>
			<path class="st3" d="M1339.4,724.3c0,0-0.1-0.1-0.1-0.1c-3.4-0.9-5.2-2.9-5.7-6.4c-0.6-4,2.2-8.4,6.1-9.5
				c3.1-0.9,6.4,1.2,6.8,4.4c0,0.1,0,0.2,0,0.4c0,0.9-0.1,1.1-1,1.1c-1.7,0.1-3.4,0.3-5,0.4c-1.7,0.1-3.4,0.2-5,0.3
				c-0.3,2.8,1.1,6.7,4.7,7.5c1.5,0.3,3,0.1,4.3-0.9c0.4-0.3,0.9-0.7,1.3-1c0.1,0.2,0.3,0.3,0.4,0.5c-1.3,1.5-2.8,2.5-4.7,3.1
				c-0.1,0-0.2,0.1-0.3,0.1C1340.6,724.3,1340,724.3,1339.4,724.3z M1335.7,713.6c2.6,0,5.3,0,7.9,0c0.5,0,0.8-0.3,0.7-0.8
				c-0.1-1.4-0.8-2.4-2-3.1C1339.3,708.2,1335.9,710.3,1335.7,713.6z"/>
			<path class="st3" d="M1354.9,724.3c-0.6-0.2-1.2-0.4-1.7-0.6c-0.7-0.3-1.2-0.7-1.2-1.5c0-0.9-0.2-1.8-0.3-2.6
				c-0.1-0.4,0-0.6,0.5-0.6c0.2,0.4,0.3,0.9,0.5,1.3c0.5,1,1.1,1.9,2.1,2.6c0.8,0.6,1.8,0.8,2.8,0.6c1.1-0.2,1.8-0.8,2.1-1.8
				c0.4-1.3,0.2-2.5-0.8-3.4c-0.7-0.6-1.5-0.9-2.3-1.4c-0.8-0.4-1.7-0.7-2.4-1.2c-2.7-1.8-2.1-5,0.1-6.5c1.9-1.3,4-1.2,6.1-0.5
				c0.1,0,0.3,0.3,0.4,0.4c0.2,1,0.4,2.1,0.6,3.1c0,0.2-0.2,0.4-0.3,0.6c-0.1,0-0.1,0-0.2,0c-0.1-0.3-0.2-0.5-0.4-0.8
				c-0.5-1.1-1.1-2-2.2-2.5c-1-0.5-2.4-0.4-3.2,0.3c-0.8,0.7-1.2,1.9-0.7,2.9c0.3,0.6,0.7,1.1,1.2,1.5c0.7,0.5,1.5,0.8,2.3,1.2
				c0.9,0.5,1.8,0.9,2.5,1.5c2.1,1.7,2,4.9-0.2,6.5c-0.7,0.5-1.7,0.8-2.6,1.2c-0.1,0-0.2,0.1-0.3,0.1
				C1356.4,724.3,1355.6,724.3,1354.9,724.3z"/>
			<path class="st3" d="M1229.6,724.3c-1.7-4.4-3.3-8.7-5-13.1c-0.5-1.3-1.4-2.1-2.9-2.1c0-0.2,0-0.4,0-0.6c2.2,0,4.3,0,6.5,0
				c0.1,0.4,0,0.5-0.3,0.6c-1.6,0.4-1.8,0.7-1.2,2.2c1.2,3.1,2.3,6.2,3.5,9.3c0.1,0.2,0.2,0.4,0.3,0.7c0.8-1.8,1.6-3.4,2.3-5.1
				c0.7-1.6,1.3-3.2,1.9-4.8c0.6-1.5,0.3-2-1.3-2.3c-0.4-0.1-0.6-0.2-0.4-0.6c2.2,0,4.3,0,6.5,0c0.1,0.3,0.1,0.5-0.3,0.6
				c-1.2,0.1-2.1,0.8-2.6,1.9c-1.8,3.6-3.5,7.2-5.2,10.8c-0.4,0.8-0.7,1.7-1,2.5C1230.1,724.3,1229.9,724.3,1229.6,724.3z"/>
			<path class="st3" d="M1287.7,724.3c-1.8-0.6-2.3-2.1-2.3-3.8c0-3.4,0-6.7,0-10.1c0-0.2,0-0.4,0-0.7c-0.8,0-1.5,0-2.2,0
				c-0.2,0-0.3-0.1-0.5-0.2c0.1-0.2,0.2-0.3,0.3-0.5c0.4-0.5,1.1-0.6,1.7-0.5c0.2,0,0.5,0,0.8,0c-0.4-1.8,0.4-3.1,1.2-4.5
				c0-0.1,0.3-0.1,0.5-0.1c0,1.6,0,3.1,0,4.6c1.5,0,3,0,4.4,0c0.4,0.8,0.1,1.2-0.7,1.2c-1.2,0-2.4,0-3.7,0c0,0.4,0,0.7,0,0.9
				c0,3,0,6,0,8.9c0,0.6,0.1,1.2,0.3,1.8c0.3,1.1,1,1.6,2.2,1.5c0.8-0.1,1.6-0.4,2.4-0.6c0,0,0.1,0.2,0.2,0.4c-1,0.5-2,1.1-3,1.6
				C1288.8,724.3,1288.2,724.3,1287.7,724.3z"/>
			<path class="st3" d="M1305.2,682.4c0-11.4,0-22.9,0-34.4c0.2,0,0.4,0,0.7,0c4,0,8,0,12,0c0.5,0,0.7,0.2,0.8,0.6
				c4.9,13.1,9.7,26.2,14.6,39.2c0.1,0.2,0.1,0.4,0.3,0.7c0.1-0.3,0.2-0.4,0.3-0.6c2.3-6.5,4.7-13,7-19.5c2.4-6.6,4.8-13.2,7.1-19.8
				c0.1-0.3,0.2-0.5,0.6-0.5c4.3,0,8.5,0,12.8,0c0.1,0,0.2,0,0.3,0c0,16.1,0,32.1,0,48.2c-2.7,0-5.3,0-8.1,0c0-14.1,0-28.2,0-42.3
				c0,0-0.1,0-0.1,0c-0.1,0.1-0.1,0.2-0.2,0.3c-2.7,7.4-5.3,14.7-8.1,22.1c-2.4,6.5-5,13-7.4,19.5c-0.2,0.4-0.4,0.6-0.8,0.6
				c-2.2,0-4.5,0-6.7,0c-0.5,0-0.7-0.2-0.8-0.6c-5.4-13.8-10.8-27.6-16.2-41.3c-0.1-0.2-0.1-0.3-0.2-0.5c-0.1,0-0.1,0-0.2,0
				c0,14.1,0,28.2,0,42.3c-0.2,0-0.4,0-0.6,0c-3.2,0-6.4,0-9.7,0c-0.4,0-0.6-0.1-0.7-0.5c-1.6-3.9-3.3-7.9-4.9-11.8
				c-0.2-0.5-0.4-0.7-1-0.7c-7.4,0-14.8,0-22.2,0c-0.5,0-0.8,0.1-1,0.7c-1.6,3.9-3.3,7.9-4.9,11.8c-0.2,0.4-0.3,0.5-0.7,0.5
				c-15,0-30,0-44.9,0c-0.2,0-0.4,0-0.6,0c0-16.1,0-32.2,0-48.3c0.2,0,0.4,0,0.6,0c7.5,0,14.9,0,22.4,0c3.7,0,7.3,0.5,10.8,2.1
				c4.1,1.8,6.6,4.8,6.9,9.3c0.2,2.8-0.7,5.4-2.8,7.5c-2,2.1-4.5,3.1-7.2,3.8c-0.3,0.1-0.5,0.1-0.8,0.2c0,0,0,0.1-0.1,0.2
				c0.4,0.1,0.8,0.2,1.2,0.2c2.7,0.5,5.2,1.4,7.4,3c2.6,1.9,4,4.4,4.5,7.5c0,0.1,0,0.2,0,0.2c0,0.2,0.1,0.4,0.1,0.7
				c0.5-1.2,1-2.3,1.5-3.4c4.5-10.2,9-20.4,13.5-30.7c0.2-0.4,0.4-0.6,0.9-0.6c2.8,0,5.6,0,8.4,0c0.5,0,0.7,0.2,0.9,0.6
				c4.9,11.1,9.8,22.3,14.7,33.4C1305,682.1,1305.1,682.3,1305.2,682.4C1305.2,682.4,1305.2,682.4,1305.2,682.4z M1230,690.9
				c0.1,0,0.2,0,0.3,0c5.2,0,10.4,0,15.6,0c1.9,0,3.8-0.3,5.5-1.1c3.2-1.4,4.7-3.9,4.7-7.3c0-3-1.4-5.2-4.1-6.5
				c-2.2-1.1-4.5-1.5-6.8-1.5c-5-0.1-10,0-15,0c0,0-0.1,0-0.1,0.1C1230,680,1230,685.4,1230,690.9z M1230,668.5c0.5,0,1,0,1.5,0
				c4.5,0,9,0,13.5-0.1c1.8,0,3.5-0.5,5.2-1.3c2.7-1.4,4-3.6,3.9-6.6c-0.1-3-1.8-4.9-4.6-5.9c-1.7-0.6-3.4-0.9-5.1-0.9
				c-4.7,0-9.3,0-14,0c-0.1,0-0.2,0-0.3,0C1230,658.7,1230,663.6,1230,668.5z M1285.2,654.5c-3.2,7.6-6.4,15.2-9.7,22.9
				c6.5,0,12.9,0,19.3,0C1291.6,669.7,1288.4,662.1,1285.2,654.5z"/>
			<path class="st3" d="M1268,724c-2.5,0-4.9,0-7.4,0c0,0-0.1-0.1-0.1-0.1c0.1-0.1,0.3-0.4,0.4-0.4c1.9-0.2,2.4-0.9,2.4-2.9
				c0-2.6,0-5.3,0-7.9c0-0.2,0-0.5,0-0.7c-0.1-1.1-0.4-1.4-1.4-1.6c-0.2,0-0.4-0.1-0.5-0.1c-0.1,0-0.3-0.2-0.3-0.3
				c0-0.1,0.2-0.3,0.3-0.4c0.7-0.2,1.4-0.4,2.1-0.6c0.6-0.2,1.1-0.5,1.7-0.7c0,1,0,1.9,0,3c0.7-0.5,1.3-0.9,1.9-1.3
				c1-0.7,2-1.3,3.2-1.6c3-0.6,5.5,1.4,5.6,4.4c0,2.5,0,5,0,7.5c0,0.5,0,1,0.1,1.5c0.2,1.2,0.5,1.5,1.8,1.7c0.3,0,0.7,0,0.5,0.6
				c-2.3,0-4.7,0-7.1,0c-0.1-0.4,0-0.5,0.4-0.5c2-0.1,2.5-0.7,2.5-2.9c0-2.1,0-4.3,0-6.4c0-0.3,0-0.7,0-1c-0.4-2.7-2.5-4-5.4-3.1
				c-1.2,0.3-2.2,0.9-3.1,1.8c-0.2,0.2-0.3,0.4-0.3,0.7c0,2.8,0,5.6,0,8.5c0,0.2,0,0.4,0,0.6c0.1,1.1,0.5,1.6,1.6,1.8
				c0.3,0.1,0.6,0,0.9,0.1c0.2,0,0.3,0.2,0.4,0.4C1268.1,723.9,1268,723.9,1268,724z"/>
			<path class="st3" d="M1325.6,724c-2.5,0-5.1,0-7.6,0c-0.1-0.4,0-0.5,0.3-0.5c1.7-0.1,2.2-0.6,2.2-2.6c0-2.7,0-5.4,0-8.2
				c0-0.1,0-0.2,0-0.3c-0.1-1.6-0.4-2-2-2.2c-0.2,0-0.4-0.2-0.5-0.2c0.2-0.1,0.3-0.3,0.5-0.4c1.2-0.4,2.3-0.8,3.5-1.3
				c0.1,0,0.2-0.1,0.3-0.1c0,1.5,0,2.9,0,4.3c0.6-0.8,1.1-1.7,1.8-2.5c0.7-0.8,1.4-1.4,2.5-1.7c0.7-0.2,1.4,0,1.9,0.5
				c0.6,0.7,0.6,1.5-0.2,2c-0.4,0.3-0.8,0.4-1.2,0c-0.9-0.9-1.8-0.9-2.7,0.1c-1.3,1.4-2.2,3-2.2,5c0.1,1.8,0,3.5,0,5.3
				c0,1.6,0.5,2.1,2.1,2.3c0.3,0,0.6,0,0.8,0.1c0.2,0,0.3,0.2,0.5,0.4C1325.7,723.9,1325.6,723.9,1325.6,724z"/>
		</g>
	</g>
	<g>
		<g>
			<path class="st3" d="M1500.2,672.4h-1.7c-0.3,1.1-1,2-2.3,2c-0.6,0-1.2-0.2-1.6-0.7c-0.5-0.6-0.7-1.2-0.7-3.5s0.1-2.9,0.7-3.5
				c0.4-0.4,1-0.7,1.6-0.7c1.2,0,2.1,0.8,2.3,2h1.7c-0.4-2.3-2-3.5-4-3.5c-1.1,0-2.2,0.4-3,1.2c-1.1,1.1-1.1,2.4-1.1,4.5
				c0,2.2,0,3.4,1.1,4.5c0.8,0.8,1.7,1.2,3,1.2C1498.3,675.8,1499.8,674.6,1500.2,672.4L1500.2,672.4z M1510.1,675.7l-4.1-11.3h-1.3
				l-4.1,11.3h1.7l0.8-2.3h4.3l0.8,2.3H1510.1L1510.1,675.7z M1507,672h-3.5l1.7-5L1507,672L1507,672z M1518.9,667.8
				c0-2-1.4-3.4-3.6-3.4h-4.3v11.3h1.7v-4.4h2.6C1517.6,671.3,1518.9,669.9,1518.9,667.8L1518.9,667.8z M1517.2,667.8
				c0,1.2-0.8,1.8-2,1.8h-2.5V666h2.5C1516.4,666,1517.2,666.7,1517.2,667.8L1517.2,667.8z M1522.2,675.7v-11.3h-1.7v11.3H1522.2
				L1522.2,675.7z M1531.4,666v-1.5h-7.9v1.5h3.1v9.8h1.7V666H1531.4L1531.4,666z M1540.1,675.7l-4.1-11.3h-1.3l-4.1,11.3h1.8
				l0.8-2.3h4.4l0.8,2.3H1540.1L1540.1,675.7z M1537.1,672h-3.5l1.7-5L1537.1,672L1537.1,672z M1548.2,675.7v-1.5h-5.4v-9.8h-1.7
				v11.3H1548.2L1548.2,675.7z M1561.7,671.9v-7.5h-1.7v7.4c0,1.5-0.9,2.5-2.4,2.5c-1.4,0-2.4-0.9-2.4-2.5v-7.4h-1.6v7.5
				c0,2.4,1.7,3.9,4,3.9C1559.9,675.8,1561.7,674.2,1561.7,671.9L1561.7,671.9z M1572.4,675.7v-11.3h-1.7v7.9l-5.1-7.9h-1.6v11.3
				h1.7v-7.9l5.2,7.9H1572.4L1572.4,675.7z M1576.5,675.7v-11.3h-1.7v11.3H1576.5L1576.5,675.7z M1586.5,670.1c0-2.2,0-3.4-1-4.5
				c-0.8-0.8-1.7-1.2-3-1.2c-1.2,0-2.2,0.4-3,1.2c-1.1,1.1-1.1,2.4-1.1,4.5c0,2.2,0,3.4,1.1,4.5c0.8,0.8,1.7,1.2,3,1.2
				c1.2,0,2.2-0.4,3-1.2C1586.5,673.5,1586.5,672.3,1586.5,670.1L1586.5,670.1z M1584.8,670.1c0,2.3-0.1,2.9-0.6,3.5
				c-0.4,0.4-1,0.7-1.6,0.7s-1.2-0.3-1.6-0.7c-0.5-0.6-0.6-1.2-0.6-3.5s0.1-2.9,0.6-3.5c0.4-0.4,1-0.7,1.6-0.7s1.2,0.3,1.6,0.7
				C1584.7,667.2,1584.8,667.8,1584.8,670.1L1584.8,670.1z M1596.9,675.7v-11.3h-1.7v7.9l-5.1-7.9h-1.5v11.3h1.7v-7.9l5.2,7.9
				H1596.9L1596.9,675.7z M1494.3,693.1v-11.3h-1.7v11.3H1494.3L1494.3,693.1z M1505.1,693.1v-11.3h-1.7v7.9l-5.2-7.9h-1.5v11.3h1.7
				v-7.9l5.2,7.9H1505.1L1505.1,693.1z M1514.8,681.8h-1.8l-2.6,8.2l-2.6-8.2h-1.7l3.7,11.3h1.3L1514.8,681.8L1514.8,681.8z
				 M1523,693.1v-1.5h-5.4v-3.4h4.7v-1.5h-4.7v-3.3h5.4v-1.5h-7.2v11.3H1523L1523,693.1z M1531.8,689.8c0-0.9-0.3-1.7-0.9-2.3
				c-0.5-0.4-1-0.7-2.1-0.8l-1.2-0.2c-0.5-0.1-1-0.3-1.2-0.5c-0.3-0.3-0.4-0.6-0.4-1c0-1,0.7-1.7,2.1-1.7c0.9,0,1.7,0.2,2.5,0.8
				l1.1-1c-0.9-0.9-2.1-1.2-3.5-1.2c-2.4,0-3.8,1.3-3.8,3.3c0,0.9,0.3,1.6,0.8,2.2c0.5,0.4,1.2,0.8,2.2,0.9l1.3,0.2
				c0.6,0.1,0.9,0.2,1.2,0.5c0.3,0.3,0.4,0.7,0.4,1.1c0,1.1-0.8,1.7-2.4,1.7c-1.1,0-2.1-0.2-2.9-1l-1.2,0.9c1,1.1,2.3,1.4,4,1.4
				C1530.1,693.2,1531.8,692,1531.8,689.8L1531.8,689.8z M1540.4,683.3v-1.5h-7.9v1.5h3.1v9.8h1.7v-9.8H1540.4L1540.4,683.3z
				 M1551.7,693.1v-11.3h-1.7l-3.2,7l-3.3-7h-1.7v11.3h1.7v-7.5l2.7,5.4h1.2l2.6-5.4v7.5H1551.7L1551.7,693.1z M1561.3,693.1v-1.5
				h-5.4v-3.4h4.7v-1.5h-4.7v-3.3h5.4v-1.5h-7.2v11.3H1561.3L1561.3,693.1z M1571.5,693.1v-11.3h-1.7v7.9l-5.2-7.9h-1.5v11.3h1.7
				v-7.9l5.2,7.9H1571.5L1571.5,693.1z M1580.8,683.3v-1.5h-7.9v1.5h3.1v9.8h1.7v-9.8H1580.8L1580.8,683.3z M1589.2,689.8
				c0-0.9-0.3-1.7-0.9-2.3c-0.5-0.4-1-0.7-2.1-0.8l-1.2-0.2c-0.5-0.1-1-0.3-1.2-0.5c-0.3-0.3-0.4-0.6-0.4-1c0-1,0.7-1.7,2.1-1.7
				c0.9,0,1.7,0.2,2.5,0.8l1.1-1c-0.9-0.9-2.1-1.2-3.5-1.2c-2.4,0-3.8,1.3-3.8,3.3c0,0.9,0.3,1.6,0.8,2.2c0.5,0.4,1.2,0.8,2.2,0.9
				l1.3,0.2c0.6,0.1,0.9,0.2,1.2,0.5c0.3,0.3,0.4,0.7,0.4,1.1c0,1.1-0.8,1.7-2.4,1.7c-1.1,0-2.1-0.2-2.9-1l-1.1,1.1
				c1,1.1,2.3,1.4,4,1.4C1587.5,693.2,1589.2,692,1589.2,689.8L1589.2,689.8z M1499.7,710.4v-1.5h-5.4v-9.8h-1.7v11.3H1499.7
				L1499.7,710.4z M1502.8,710.4v-11.3h-1.7v11.3H1502.8L1502.8,710.4z M1515.1,710.4v-11.3h-1.7l-3.2,7l-3.3-7h-1.7v11.3h1.7v-7.5
				l2.7,5.4h1.2l2.6-5.4v7.5H1515.1L1515.1,710.4z M1519.1,710.4v-11.3h-1.7v11.3H1519.1L1519.1,710.4z M1528.3,700.7v-1.5h-7.9v1.5
				h3.1v9.8h1.7v-9.8H1528.3L1528.3,700.7z M1537,710.4v-1.5h-5.4v-3.4h4.7V704h-4.7v-3.3h5.4v-1.5h-7.2v11.3H1537L1537,710.4z
				 M1546.7,704.7c0-1.6,0.1-3.3-1.1-4.5c-0.7-0.7-1.7-1-2.9-1h-3.9v11.3h3.9c1.1,0,2.2-0.3,2.9-1
				C1546.8,708.1,1546.7,706.3,1546.7,704.7L1546.7,704.7z M1545,704.7c0,1.5,0,2.8-0.6,3.4c-0.5,0.5-1.1,0.7-2,0.7h-2.1v-8.2h2.1
				c0.8,0,1.4,0.2,2,0.7C1545,702.1,1545,703.1,1545,704.7L1545,704.7z"/>
			<path class="st3" d="M1474.1,658.3h-42.1c-3.2,0-5.7,2.6-5.7,5.7v46.8c0,3.2,2.6,5.6,5.7,5.7h42.1c3.2,0,5.6-2.6,5.7-5.7V664
				C1479.8,660.9,1477.3,658.3,1474.1,658.3z M1441.3,670.1L1441.3,670.1L1441.3,670.1c-1,0-2,0.3-2.5,0.9c-0.6,0.6-0.9,1.5-0.9,2.7
				l0,0c0,14.1,0,13.5,0,27.6l0,0c0,1.1,0.3,2.1,0.9,2.7s1.4,0.9,2.5,0.9l0,0l0,0v4.9l0,0l0,0l0,0c-2.5,0-4.6-0.8-6.2-2.4
				c-1.6-1.4-2.6-3.6-2.6-6.1l0,0c0-14.2,0-13.8,0-27.8l0,0c0-2.5,0.9-4.6,2.5-6.1c1.5-1.4,3.7-2.4,6.2-2.4l0,0l0,0l0,0v4.9H1441.3z
				 M1462,666.2v35.2l0,0c0,2.5-0.9,4.6-2.6,6.1c-1.5,1.4-3.7,2.4-6.2,2.4l0,0l0,0c-2.5,0-4.6-0.8-6.2-2.4c-1.5-1.4-2.5-3.6-2.5-6.1
				l0,0v-35.2v-1h1h3.3h1v1v35.1l0,0c0,1.1,0.3,2.1,0.9,2.7s1.4,0.9,2.5,0.9l0,0l0,0c1,0,2-0.3,2.5-0.9c0.6-0.6,0.9-1.5,0.9-2.7l0,0
				v-35.1v-1h1h3.3h1v1H1462z M1472.4,666.2v42.4v1h-1h-3.3h-1v-1v-42.4v-1h1h3.3h1V666.2z"/>
		</g>
	</g>
	<g>
		<path class="st3" d="M1506.4,860.8c-0.7-3.3,0.4-6.6,1.7-9.8c1.6-3.9,4.5-6.7,7.9-9.1c3.7-2.6,7.7-4,12.2-3.7c0.6,0,1.2,0.1,1.9,0
			c4.5-0.6,8.3,1.2,11.9,3.4c4,2.3,6.7,5.9,8.6,10.1c0.6,1.2,0.7,2.7,1,4c0.2,1,0.6,2,0.7,3c0.3,3.9-0.5,7.8-1.9,11.4
			c-1.5,3.8-4,6.9-7.1,9.2c-2.9,2.2-6.2,4.2-10.1,4.1c-1.5,1.1-3.3,0.9-4.9,0.7c-2.5-0.3-5.2-0.6-7.5-1.6c-2.7-1.2-5.6-2.4-7.7-4.6
			C1508.6,873.2,1505.6,867.8,1506.4,860.8z M1508.8,854.1c-0.3,1.8-0.7,3.6-0.9,5.3c-0.2,1.5,0,3,0,4.4c0,1.2,0.8,2.1,0.8,3.4
			c0,0.9,1,1.8,1.4,2.7c1.4,3.6,4.8,7.4,7.9,9.3c3.3,2,6.8,3.2,10.7,2.8c1.8-0.2,3.9,0.4,5.5-0.2c4.8-1.7,9.6-3.6,12.3-8.5
			c1.9-3.5,4-6.9,3.6-11.1c-0.1-1.2-0.1-2.5,0-3.7c0.1-2.2-0.7-4.1-1.4-6.1c-1.2-3.3-3.7-5.5-6-7.9c-2.8-3-6.6-4.1-10.3-4.7
			c-5.1-0.8-10.1,0-14.6,2.9c-2.2,1.4-4,3.1-5.6,5.4C1510.8,850.1,1510,852.2,1508.8,854.1z"/>
		<path class="st3" d="M1562,839.1c8.1,0,16.1,0,24.1,0c0.1,0.1,0.2,0.3,0.3,0.4c-0.6,0.2-1.1,0.3-1.7,0.5c0.2,0.2,0.3,0.4,0.5,0.6
			c-7.2,0-14.5,0-21.8,0c0,6.4,0,12.6,0,19.2c2,0,4.1,0,6.1,0c4.7,0,9.4,0,14.1,0c1,0,2-0.1,2.6,1c-0.4,1.3-1.5,1.2-2.5,1.2
			c-6.7,0-13.3,0-20.1,0c0,6.4,0,12.7,0,19.2c7.2,0,14.5,0,21.6,0c0.5,0.5,0.8,0.8,1.2,1.2c-0.4,0.3-0.7,0.6-1.2,1
			c-7.6,0-15.4,0-23.2,0C1562,868.7,1562,854,1562,839.1z"/>
		<path class="st3" d="M1475.8,881.1c8.2,0,16.3,0,24.1,0c0.5,0.5,0.8,0.8,1.3,1.3c-0.4,0.1-0.9,0.3-1.4,0.4
			c0.1,0.2,0.3,0.3,0.4,0.5c-9,0-17.9,0-27.2,0c0.1-0.7,0-1.6,0.4-2.1c1-1.1,1.4-2.4,2.1-3.6c2.3-4.1,4.8-8.1,7-12.3
			c2.5-4.7,5.1-9.2,7.8-13.8c2-3.4,3.8-7,5.8-10.9c-4.2-0.5-8.2-0.1-12.2-0.2c-4.1-0.1-8.1,0-12.3,0c-0.1-0.4-0.2-0.7-0.3-1
			c2.7-0.6,23.9-0.6,27.7-0.1c-1.8,3.2-3.5,6.3-5.2,9.4c-0.5,0.8-1.1,1.5-1.5,2.3c-1.6,2.9-2.8,6.1-4.7,8.8
			c-1.9,2.6-3.1,5.7-4.8,8.4c-1.6,2.6-3.2,5.3-4.6,8.1C1477.5,877.8,1476.7,879.4,1475.8,881.1z"/>
		<path class="st3" d="M1485.1,902.8c-0.2-0.4-0.4-0.9-0.5-1.3c-0.2,0.1-0.4,0.2-0.5,0.3c0-2.6,0-5.3,0-8.8c-1.6,3.8-2.9,6.7-4.3,10
			c-2.5-3.1-2.7-7.1-5.3-10.6c0,3.8,0,6.9,0,10.1c-1-1.9-0.7-3.9-0.7-5.8c-0.1-1.9,0-3.9,0-6c2.8,0.5,2.7,3,3.6,4.5
			c0.9,1.5,1.2,3.4,1.9,5.4c2.4-2.9,2.8-6.5,4.5-9.7c0.4,0,1,0,1.7,0c0,3.9,0,7.8,0,11.7C1485.3,902.7,1485.2,902.7,1485.1,902.8z"
			/>
		<path class="st3" d="M1537.6,898.4c-2,0-3.9,0-5.9,0c-0.1-0.6-0.2-0.9-0.2-1.4c2.5,0,4.9,0,7.5,0c0,2.8-1.6,4.5-4.2,5.6
			c-4.3,0.2-4.3,0.2-7.6-3.2c0-1.7,0-3.4,0-5.2c1-0.9,2.1-1.9,3.4-3.2c1.5,0,3.3,0,5,0c0.9,0.8,1.8,1.6,2.7,2.5
			c-0.1,0.1-0.1,0.3-0.2,0.4c-0.5-0.2-1.2-0.4-1.6-0.7c-3.4-2.5-6-1.9-7.9,2c-1.2,2.5-0.1,5.3,2.6,6.2c0.6,0.2,1.3,0.4,2,0.7
			C1536.5,900.4,1536.5,900.4,1537.6,898.4z"/>
		<path class="st3" d="M1507.8,894.9c0.1,4.9,0.1,4.9-4.6,7.7c-1.7,0-3.3,0-4.9,0c0-3.9,0-7.7,0-11.7c2.3,0,4.7-0.5,7.1,0.6
			C1506.1,892.6,1507,893.8,1507.8,894.9z M1506.8,896.7c-0.5-1.8-0.7-3.9-2.7-4.3c-1.7-0.3-3.5-2.2-5.2,0.5c0,1.2,0,2.7,0,4.1
			c0,1.4-0.2,2.9,0.2,4.3c2.3-0.1,4.5,0.4,6.3-1.1C1506,898.9,1506.4,897.7,1506.8,896.7z"/>
		<path class="st3" d="M1490.1,896.5c0,1.9,0,3.2,0,4.7c1.4,0,2.7,0,4.1,0c0.1,0.4,0.2,0.8,0.4,1.4c-2,0.2-3.9,0.1-5.9,0.1
			c0-3.9,0-7.7,0-11.8c2.1-0.1,4.3-0.2,6.5,0.6c-1.7,0-3.3,0-5.1,0c0,1.6,0,2.9,0,4.5c1.4,0,2.8,0,4.3,0c0,0.7,0.6,1.4-0.5,1.3
			C1492.7,897.1,1491.6,896.8,1490.1,896.5z"/>
		<path class="st3" d="M1585.9,894c-0.6,1.2-1.2,2.4-1.9,3.6c-1.8,0-3.3,0-5.1,0c0,1.8,0,3.4,0,5.4c-0.6-0.6-1-0.9-1.4-1.3
			c0-3.2,0-6.5,0-9.8c0.3-0.3,0.7-0.7,1-1c1.5,0,2.9,0,4.5,0C1583.8,891.7,1584.6,892.6,1585.9,894z M1579,891.7c0,1.9,0,3.4,0,5
			c1.4,0,2.7,0,4.1,0c0.3-0.3,0.7-0.7,1-1c0-0.7,0-1.4,0-2c-0.7-0.8-1.3-1.5-1.7-2C1581.1,891.7,1580.1,891.7,1579,891.7z"/>
		<path class="st3" d="M1517,898.5c-0.8,1.6-1.4,2.9-2.3,4.7c-0.2-2.9,0.9-4.8,2-6.7c1-1.8,0.9-4.3,3.2-6c1,2.1,1.9,4,2.8,5.9
			c0.8,2,1.6,4,2.6,6.5c-2.4-1.1-2-3.5-3.5-4.4C1520,898.5,1518.3,898.5,1517,898.5z M1519.4,891.9c-0.4,1.3-0.7,2.1-1,2.8
			c-0.3,0.8-0.7,1.6-1.1,2.7c1.6,0,3.1,0,4.5,0C1521,895.7,1520.3,894.1,1519.4,891.9z"/>
		<path class="st3" d="M1548.4,893.3c-3.2-2.1-3.6-2.2-5.8-0.6c0,3.2,0,6.5,0,9.7c-0.2,0.1-0.3,0.2-0.4,0.2c-0.1,0-0.3-0.2-0.3-0.2
			c0-3.8,0-7.6,0-11.4c1.6,0,3.1,0,4.7,0c0.8,0.4,1.6,1,2.6,1.5c0,1.4,0,2.7,0,4.1c-0.9,0.6-1.9,1.3-2.8,1.9c1,1.4,1.9,2.7,3.2,4.5
			c-1-0.4-1.6-0.5-1.9-0.9c-1.1-1.4-2.2-2.8-3.3-4.3c1.2-0.5,2.6-1.1,4-1.7C1548.4,895.1,1548.4,894.3,1548.4,893.3z"/>
		<path class="st3" d="M1561.9,900.5c-0.8,0.7-1.7,1.5-2.3,2.1c-3.4,0.8-5.5-1-7.3-3.2c-1.3-1.6-1.1-2.4,1.1-7c0.4,0,0.7,0,1.1,0
			c-1.2,1.9-1.9,4-1.3,6.7c1.3,1,2.9,2.1,4.2,3.1C1559.2,901.5,1560.5,901,1561.9,900.5z"/>
		<path class="st3" d="M1573.3,901.6c-0.6,0.2-1.3,0.3-1.9,0.5c-1.2,0.9-2.7,0.3-4.1-0.9c-0.7-2.5-1.8-5-0.4-7.8
			c-0.2-0.2-0.4-0.6-1-1.4c0.6-0.2,1.2-0.4,1.9-0.6c-0.4-0.3-0.1-0.2-0.1-0.1c0,2.9,0,5.9,0,9c0.9,0.5,1.9,1.1,2.8,1.7
			c0.8-0.3,1.5-0.6,2.3-0.9C1573.1,901.3,1573.2,901.4,1573.3,901.6z"/>
		<path class="st3" d="M1554.5,892.4c0.3-0.5,0.6-1,1-1.4c1.5,0,2.9,0,4.5,0c2.6,0.9,3.6,3.2,4,5.6c0.2,1.5-0.3,3.2-2.1,3.9
			c0.2-0.9,0.6-1.7,0.7-2.6c0.1-1,0-2,0-3.2c-1-1-2.1-2.1-3.3-3.2C1557.7,891.7,1556.1,892,1554.5,892.4z"/>
		<path class="st3" d="M1573.1,902.3c0.3-4.4,0.6-7.9,0.9-11.3c0.7,3.1,0.4,6.2,0.1,8.9C1573.8,900.4,1573.6,901,1573.1,902.3z"/>
		<path class="st3" d="M1511.4,891c0,3.9,0,7.7,0,11.6c-0.8-1.9-0.5-3.9-0.6-5.8c-0.1-1.9,0-3.9,0-5.8
			C1511,891,1511.2,891,1511.4,891z"/>
	</g>
</g>
</svg>
