<?xml version="1.0" encoding="utf-8"?>
<!-- Generator: Adobe Illustrator 19.1.0, SVG Export Plug-In . SVG Version: 6.00 Build 0)  -->
<!DOCTYPE svg PUBLIC "-//W3C//DTD SVG 1.1//EN" "http://www.w3.org/Graphics/SVG/1.1/DTD/svg11.dtd">
<svg version="1.1" id="Layer_1" xmlns="http://www.w3.org/2000/svg" xmlns:xlink="http://www.w3.org/1999/xlink" x="0px" y="0px"
	 viewBox="508 0 2016.5 1000" style="enable-background:new 508 0 2016.5 1000;" xml:space="preserve">
<style type="text/css">
	.st0{fill:#FFFFFF;}
	.st1{opacity:0.2;}
	.st2{fill:#FBFBFB;}
	.st3{fill:#4A525A;}
	.st4{fill:#515151;}
</style>
<g id="Layer_1_1_">
</g>
<g id="Layer_2">
	<g>
		<path class="st0" d="M1846.2,299.7c-4.2,0-7.4,1.7-9.8,5.1c-2.3,3.4-3.5,8.1-3.5,14.1c0,12.5,4.7,18.7,14.2,18.7
			c2.9,0,5.6-0.4,8.3-1.2s5.4-1.8,8.1-2.9v14.8c-5.4,2.4-11.5,3.6-18.4,3.6c-9.8,0-17.3-2.8-22.5-8.5s-7.8-13.9-7.8-24.6
			c0-6.7,1.3-12.6,3.8-17.7s6.2-9,10.9-11.7c4.7-2.7,10.3-4.1,16.7-4.1c7,0,13.7,1.5,20.1,4.6l-5.4,13.8c-2.4-1.1-4.8-2.1-7.2-2.8
			C1851.5,300.1,1848.9,299.7,1846.2,299.7z"/>
		<path class="st0" d="M1931.3,286.3v39c0,8.5-2.4,15-7.2,19.7c-4.8,4.7-11.7,7-20.8,7c-8.8,0-15.6-2.3-20.4-6.8
			c-4.7-4.5-7.1-11-7.1-19.5v-39.4h17.6v38c0,4.6,0.9,7.9,2.6,10s4.2,3.1,7.6,3.1c3.6,0,6.2-1,7.8-3.1c1.6-2.1,2.4-5.4,2.4-10.1
			v-37.9L1931.3,286.3L1931.3,286.3z"/>
		<path class="st0" d="M1962.5,327.5v23.6H1945v-64.8h21.2c17.6,0,26.4,6.4,26.4,19.2c0,7.5-3.7,13.3-11,17.4l18.9,28.2h-19.9
			l-13.7-23.6H1962.5z M1962.5,314.3h3.3c6.1,0,9.2-2.7,9.2-8.1c0-4.5-3-6.7-9-6.7h-3.5V314.3z"/>
		<path class="st0" d="M2023.9,327.5v23.6h-17.5v-64.8h21.2c17.6,0,26.4,6.4,26.4,19.2c0,7.5-3.7,13.3-11,17.4l18.9,28.2H2042
			l-13.7-23.6H2023.9z M2023.9,314.3h3.3c6.1,0,9.2-2.7,9.2-8.1c0-4.5-3-6.7-9-6.7h-3.5V314.3z"/>
		<path class="st0" d="M2106.3,351.1h-38.5v-64.8h38.5v14.1h-21v10.2h19.4v14.1h-19.4v12.2h21V351.1z"/>
		<path class="st0" d="M2179.4,351.1h-23l-23.7-45.7h-0.4c0.6,7.2,0.8,12.7,0.8,16.4V351h-15.5v-64.8h22.9l23.6,45h0.3
			c-0.4-6.5-0.6-11.8-0.6-15.7v-29.3h15.6L2179.4,351.1L2179.4,351.1z"/>
		<path class="st0" d="M2222,351.1h-17.5v-50.5h-15.8v-14.3h49.1v14.3H2222V351.1z"/>
		<path class="st0" d="M1843.9,432.6h-17.2v-64.8h38.3v14.1h-21.1v12.4h19.4v14.1h-19.4L1843.9,432.6L1843.9,432.6z"/>
		<path class="st0" d="M1930.7,367.8v39c0,8.5-2.4,15-7.2,19.7c-4.8,4.7-11.7,7-20.8,7c-8.8,0-15.6-2.3-20.4-6.8
			c-4.7-4.5-7.1-11-7.1-19.5v-39.4h17.6v38c0,4.6,0.9,7.9,2.6,10s4.2,3.1,7.6,3.1c3.6,0,6.2-1,7.8-3.1c1.6-2.1,2.4-5.4,2.4-10.1
			v-37.9L1930.7,367.8L1930.7,367.8z"/>
		<path class="st0" d="M2006.1,432.6h-23l-23.7-45.7h-0.4c0.6,7.2,0.8,12.7,0.8,16.4v29.2h-15.5v-64.8h22.9l23.6,45h0.3
			c-0.4-6.5-0.6-11.8-0.6-15.7v-29.3h15.6L2006.1,432.6L2006.1,432.6z"/>
		<path class="st0" d="M2075.1,398.8c0,10.8-3,19.2-8.9,25s-14.3,8.8-25.1,8.8h-21v-64.8h22.4c10.4,0,18.4,2.7,24.1,8
			C2072.2,381,2075.1,388.7,2075.1,398.8z M2056.9,399.4c0-5.9-1.2-10.3-3.5-13.2c-2.3-2.9-5.9-4.3-10.7-4.3h-5.1v36.3h3.9
			c5.3,0,9.2-1.5,11.7-4.6C2055.7,410.5,2056.9,405.8,2056.9,399.4z"/>
		<path class="st0" d="M2086.7,432.6v-64.8h17.6v64.8L2086.7,432.6L2086.7,432.6z"/>
		<path class="st0" d="M2180,432.6h-23l-23.7-45.7h-0.4c0.6,7.2,0.8,12.7,0.8,16.4v29.2h-15.5v-64.8h22.9l23.6,45h0.3
			c-0.4-6.5-0.6-11.8-0.6-15.7v-29.3h15.6V432.6L2180,432.6z"/>
		<path class="st0" d="M2220,394.6h28v34.9c-7.6,2.6-15.9,3.9-25,3.9c-10,0-17.7-2.9-23.2-8.7c-5.5-5.8-8.2-14.1-8.2-24.8
			c0-10.5,3-18.6,9-24.4s14.3-8.7,25.1-8.7c4.1,0,7.9,0.4,11.5,1.2c3.6,0.8,6.8,1.7,9.5,2.9l-5.5,13.7c-4.7-2.3-9.8-3.5-15.4-3.5
			c-5.1,0-9.1,1.7-11.9,5c-2.8,3.3-4.2,8.1-4.2,14.3c0,6.1,1.3,10.7,3.8,13.9c2.5,3.2,6.2,4.8,10.9,4.8c2.6,0,5-0.3,7.2-0.8v-10.2
			H2220V394.6z"/>
	</g>
	<g>
		<g>
			<path class="st0" d="M867.1,798.7c-12.5-0.6-24.5-3.4-36.1-8.4v-28.4c6.6,3.4,13.8,6.2,21.5,8.4c7.7,2.3,14.6,3.4,20.4,3.4
				c4.8,0,8.4-0.6,10.6-1.8s3.4-3.1,3.4-5.9c0-1.9-0.8-3.5-2.4-4.8c-1.6-1.3-4.3-2.8-8.1-4.4c-3.8-1.7-8.9-3.6-15.3-6
				c-7.2-2.7-13.1-5.7-17.5-9c-4.4-3.3-7.7-7.1-9.7-11.2c-2-4.1-3-9.3-3-15.4c0-9.4,3-16.8,9.1-22c6-5.3,15.1-8.6,27.2-9.8v-11.7
				h17.7v11.5c11.3,0.6,22.8,3.4,34.3,8.4L909,716c-11.9-5.4-22.6-8-32.2-8c-4.6,0-7.8,0.6-9.6,1.7c-1.9,1.1-2.8,2.7-2.8,4.9
				c0,1.9,0.7,3.4,2,4.7c1.3,1.2,3.7,2.6,7,4.1s7.9,3.3,13.8,5.3c11.9,4.2,20.5,9,25.6,14.4c5.2,5.4,7.8,12.3,7.8,20.8
				c0,9.6-3,17.3-9.1,23.3c-6.1,6-14.9,9.7-26.5,11.1v16.5h-17.7v-16.1H867.1z"/>
			<path class="st0" d="M1022.5,804.5h-90.7v-22.2l30.5-30.9c8.7-9.1,14.4-15.3,17.1-18.7c2.7-3.3,4.5-6.2,5.6-8.6
				c1.1-2.4,1.6-4.9,1.6-7.5c0-3.2-1.1-5.8-3.2-7.7c-2.1-1.9-5.1-2.8-8.9-2.8c-3.9,0-7.9,1.1-11.9,3.4c-4,2.3-8.6,5.6-13.6,10
				l-18.5-21.7c6.4-5.8,11.9-9.9,16.2-12.3c4.4-2.5,9.2-4.4,14.3-5.7c5.2-1.3,11-2,17.4-2c8.1,0,15.3,1.4,21.7,4.3
				c6.4,2.8,11.3,6.9,14.8,12.2s5.3,11.2,5.3,17.7c0,4.9-0.6,9.4-1.8,13.6c-1.2,4.2-3.1,8.2-5.7,12.3c-2.6,4-6,8.2-10.2,12.7
				c-4.2,4.4-13.3,12.9-27.1,25.3v0.9h47.1V804.5z"/>
			<path class="st0" d="M1097.1,804.5l-25.6-90h-0.8c1.2,15.3,1.8,27.2,1.8,35.7v54.3h-29.9v-125h45l26.1,88.7h0.7l25.6-88.7h45
				v124.9h-31v-54.8c0-2.8,0-6,0.1-9.5s0.5-12,1.2-25.6h-0.8l-25.2,89.8h-32.2V804.5z"/>
		</g>
		<g>
			<path class="st0" d="M767.3,845.3c0,1.7-0.4,3.2-1.3,4.5c-0.9,1.3-2.1,2.3-3.7,3c-1.6,0.7-3.5,1.1-5.7,1.1
				c-1.8,0-3.3-0.1-4.6-0.4c-1.2-0.3-2.5-0.7-3.8-1.3v-6.5c1.4,0.7,2.9,1.3,4.4,1.7s2.9,0.6,4.2,0.6c1.1,0,1.9-0.2,2.4-0.6
				c0.5-0.4,0.8-0.9,0.8-1.5c0-0.4-0.1-0.7-0.3-1s-0.5-0.6-1-0.8c-0.5-0.3-1.7-0.9-3.6-1.7c-1.8-0.8-3.1-1.6-4-2.3
				c-0.9-0.8-1.5-1.6-2-2.6c-0.4-1-0.6-2.1-0.6-3.5c0-2.5,0.9-4.5,2.7-5.9s4.3-2.1,7.5-2.1c2.8,0,5.7,0.7,8.6,2l-2.2,5.7
				c-2.5-1.2-4.7-1.7-6.6-1.7c-1,0-1.6,0.2-2.1,0.5c-0.4,0.3-0.7,0.8-0.7,1.2c0,0.5,0.3,1,0.8,1.4c0.6,0.4,2,1.2,4.5,2.3
				c2.3,1.1,4,2.2,4.9,3.4C766.9,841.9,767.3,843.4,767.3,845.3z"/>
			<path class="st0" d="M787.7,853.5h-16.1v-27.2h16.1v5.9h-8.8v4.3h8.1v5.9h-8.1v5.1h8.8V853.5z"/>
			<path class="st0" d="M808.6,853.5h-16.1v-27.2h16.1v5.9h-8.8v4.3h8.1v5.9h-8.1v5.1h8.8V853.5z"/>
			<path class="st0" d="M836.4,839.3c0,4.5-1.2,8-3.7,10.5s-6,3.7-10.5,3.7h-8.8v-27.2h9.4c4.4,0,7.7,1.1,10.1,3.3
				C835.3,831.8,836.4,835.1,836.4,839.3z M828.8,839.6c0-2.5-0.5-4.3-1.5-5.5s-2.5-1.8-4.5-1.8h-2.1v15.2h1.6
				c2.2,0,3.9-0.6,4.9-1.9C828.3,844.3,828.8,842.3,828.8,839.6z"/>
			<path class="st0" d="M858.5,843.6v9.9h-7.3v-27.2h8.9c7.4,0,11.1,2.7,11.1,8c0,3.1-1.5,5.6-4.6,7.3l7.9,11.8h-8.3l-5.8-9.9h-1.9
				V843.6z M858.5,838.1h1.4c2.6,0,3.8-1.1,3.8-3.4c0-1.9-1.3-2.8-3.8-2.8h-1.5L858.5,838.1L858.5,838.1z"/>
			<path class="st0" d="M902.4,839.9c0,4.6-1.1,8-3.4,10.4c-2.2,2.4-5.5,3.6-9.9,3.6c-4.3,0-7.5-1.2-9.8-3.6s-3.4-5.9-3.4-10.4
				s1.1-8,3.4-10.4s5.5-3.6,9.9-3.6c4.3,0,7.6,1.2,9.8,3.6C901.2,831.8,902.4,835.3,902.4,839.9z M883.7,839.9
				c0,5.3,1.8,7.9,5.5,7.9c1.9,0,3.2-0.6,4.1-1.9c0.9-1.3,1.3-3.3,1.3-6s-0.5-4.7-1.4-6c-0.9-1.3-2.3-1.9-4.1-1.9
				C885.5,831.9,883.7,834.6,883.7,839.9z"/>
			<path class="st0" d="M930.4,826.3v16.4c0,3.6-1,6.3-3,8.3s-4.9,2.9-8.7,2.9c-3.7,0-6.6-0.9-8.5-2.8c-2-1.9-3-4.6-3-8.2v-16.5h7.4
				v16c0,1.9,0.4,3.3,1.1,4.2s1.8,1.3,3.2,1.3c1.5,0,2.6-0.4,3.3-1.3c0.7-0.9,1-2.3,1-4.2v-15.9h7.2V826.3z"/>
			<path class="st0" d="M962,853.5h-9.6l-9.9-19.1h-0.2c0.2,3,0.4,5.3,0.4,6.9v12.3h-6.5v-27.2h9.6l9.9,18.9h0.1
				c-0.2-2.7-0.3-4.9-0.3-6.6v-12.3h6.5V853.5z"/>
			<path class="st0" d="M990.9,839.3c0,4.5-1.2,8-3.7,10.5s-6,3.7-10.5,3.7h-8.8v-27.2h9.4c4.4,0,7.7,1.1,10.1,3.3
				C989.7,831.9,990.9,835.1,990.9,839.3z M983.3,839.6c0-2.5-0.5-4.3-1.5-5.5s-2.5-1.8-4.5-1.8h-2.1v15.2h1.6
				c2.2,0,3.9-0.6,4.9-1.9C982.8,844.3,983.3,842.3,983.3,839.6z"/>
			<path class="st0" d="M1005.7,853.5v-27.2h7.4v27.2H1005.7z"/>
			<path class="st0" d="M1044.8,853.5h-9.6l-9.9-19.1h-0.2c0.2,3,0.4,5.3,0.4,6.9v12.3h-6.5v-27.2h9.6l9.9,18.9h0.1
				c-0.2-2.7-0.3-4.9-0.3-6.6v-12.3h6.5V853.5z"/>
			<path class="st0" d="M1077.2,853.5l-1.3-5.1h-8.8l-1.4,5.1h-8.1l8.9-27.3h9.8l9,27.3H1077.2z M1074.4,842.4l-1.2-4.5
				c-0.3-1-0.6-2.3-1-3.8c-0.4-1.6-0.6-2.7-0.8-3.4c-0.1,0.6-0.3,1.7-0.7,3.1c-0.3,1.4-1.1,4.3-2.2,8.6L1074.4,842.4L1074.4,842.4z"
				/>
			<path class="st0" d="M1107.9,835c0,3-0.9,5.4-2.7,7c-1.8,1.7-4.3,2.5-7.6,2.5h-2.1v9h-7.3v-27.2h9.4c3.4,0,6,0.8,7.7,2.2
				C1107.1,830.1,1107.9,832.2,1107.9,835z M1095.5,838.5h1.3c1.1,0,2-0.3,2.6-0.9c0.7-0.6,1-1.5,1-2.6c0-1.8-1-2.8-3-2.8h-1.9
				L1095.5,838.5L1095.5,838.5z"/>
			<path class="st0" d="M1119.6,843.6v9.9h-7.3v-27.2h8.9c7.4,0,11.1,2.7,11.1,8c0,3.1-1.5,5.6-4.6,7.3l7.9,11.8h-8.3l-5.8-9.9h-1.9
				V843.6z M1119.6,838.1h1.4c2.6,0,3.8-1.1,3.8-3.4c0-1.9-1.3-2.8-3.8-2.8h-1.4V838.1z"/>
			<path class="st0" d="M1138,853.5v-27.2h7.4v27.2H1138z"/>
			<path class="st0" d="M1151.3,853.5v-27.2h7.3v21.2h10.5v5.9L1151.3,853.5L1151.3,853.5z"/>
			<path class="st0" d="M1201.2,853.5h-19.7v-4.8l6.6-6.7c1.9-2,3.1-3.3,3.7-4.1c0.6-0.7,1-1.3,1.2-1.9c0.2-0.5,0.3-1.1,0.3-1.6
				c0-0.7-0.2-1.3-0.7-1.7s-1.1-0.6-1.9-0.6c-0.9,0-1.7,0.2-2.6,0.7c-0.9,0.5-1.9,1.2-3,2.2l-4-4.7c1.4-1.3,2.6-2.1,3.5-2.7
				c1-0.5,2-1,3.1-1.2c1.1-0.3,2.4-0.4,3.8-0.4c1.8,0,3.3,0.3,4.7,0.9c1.4,0.6,2.5,1.5,3.2,2.6c0.8,1.1,1.1,2.4,1.1,3.9
				c0,1.1-0.1,2.1-0.4,3s-0.7,1.8-1.2,2.7c-0.6,0.9-1.3,1.8-2.2,2.8s-2.9,2.8-5.9,5.5v0.2h10.3v5.9H1201.2z"/>
			<path class="st0" d="M1223.7,840c0,4.8-0.8,8.3-2.4,10.6c-1.6,2.2-4.1,3.4-7.4,3.4c-3.2,0-5.7-1.2-7.3-3.5s-2.5-5.8-2.5-10.4
				c0-4.8,0.8-8.4,2.4-10.6c1.6-2.3,4.1-3.4,7.4-3.4c3.2,0,5.7,1.2,7.3,3.5C1222.8,831.8,1223.7,835.3,1223.7,840z M1211.3,840
				c0,3.1,0.2,5.2,0.6,6.3c0.4,1.2,1,1.7,1.9,1.7s1.6-0.6,1.9-1.8c0.4-1.2,0.6-3.3,0.6-6.3s-0.2-5.1-0.6-6.3s-1-1.8-1.9-1.8
				s-1.5,0.6-1.9,1.7C1211.5,834.7,1211.3,836.9,1211.3,840z"/>
			<path class="st0" d="M1242.5,853.5h-7.5v-14.4c0-1.7,0-3.3,0.1-4.8c-0.5,0.6-1,1.1-1.7,1.7l-3.1,2.5l-3.8-4.7l9.3-7.6h6.6v27.3
				H1242.5z"/>
			<path class="st0" d="M1259.6,835.7c1.6,0,3,0.4,4.2,1.1c1.3,0.7,2.2,1.8,2.9,3.1c0.7,1.3,1.1,2.9,1.1,4.6c0,3-0.9,5.4-2.7,7
				c-1.8,1.6-4.6,2.4-8.3,2.4c-3.2,0-5.8-0.5-7.8-1.5v-6c1.1,0.5,2.3,0.9,3.7,1.2s2.5,0.5,3.5,0.5c1.4,0,2.4-0.3,3.1-0.9
				c0.7-0.6,1.1-1.4,1.1-2.6c0-1-0.4-1.9-1.1-2.4c-0.7-0.6-1.9-0.9-3.4-0.9c-1.2,0-2.4,0.2-3.7,0.7l-2.7-1.3l1-14.4h15.5v6.1h-9.3
				l-0.3,3.6c1-0.2,1.7-0.3,2.1-0.3C1258.9,835.7,1259.3,835.7,1259.6,835.7z"/>
		</g>
	</g>
	<g>
		<g>
			<path d="M1728.8,482.3l0.4-2h22.9l-0.4,2H1728.8z"/>
			<path d="M1760.8,488.2l3.9-18.6h2.2l-3.5,16.6h7.2l-0.4,2H1760.8z"/>
			<path d="M1778.3,488.5c-1.6,0-2.8-0.5-3.7-1.4s-1.3-2.2-1.3-3.8c0-1.6,0.3-3.1,0.9-4.6s1.5-2.6,2.5-3.4s2.2-1.2,3.4-1.2
				c1.3,0,2.3,0.3,2.9,0.8c0.7,0.6,1,1.3,1,2.4c0,1.5-0.7,2.7-2.1,3.6s-3.4,1.3-6,1.3h-0.4l-0.1,1c0,1.1,0.3,2,0.8,2.6
				s1.3,0.9,2.4,0.9c0.5,0,1.1-0.1,1.6-0.2c0.6-0.2,1.3-0.4,2.1-0.8v1.9c-0.8,0.4-1.5,0.6-2.1,0.8S1779.1,488.5,1778.3,488.5z
				 M1780.1,475.9c-0.9,0-1.7,0.4-2.5,1.2c-0.8,0.8-1.4,1.9-1.8,3.3h0.2c1.9,0,3.4-0.3,4.4-0.8s1.5-1.2,1.5-2.2
				c0-0.4-0.2-0.8-0.5-1.1C1781.2,476,1780.8,475.9,1780.1,475.9z"/>
			<path d="M1792.9,474.1c0.8,0,1.5,0.2,2.1,0.6s1.1,1,1.4,1.8h0.1l0.9-2.2h1.6l-3,13.9h-1.7l0.3-2.7h-0.1c-1.5,1.9-3.1,2.9-4.8,2.9
				c-1.2,0-2.1-0.4-2.8-1.3c-0.7-0.8-1-2-1-3.4c0-1.8,0.3-3.4,0.9-4.9s1.4-2.7,2.5-3.5C1790.6,474.5,1791.8,474.1,1792.9,474.1z
				 M1790.6,486.7c0.8,0,1.6-0.4,2.5-1.2s1.5-1.8,2-3.1s0.8-2.5,0.8-3.8c0-0.9-0.2-1.6-0.7-2.1s-1.1-0.8-1.9-0.8
				c-0.9,0-1.7,0.4-2.5,1.1s-1.4,1.7-1.8,3s-0.6,2.6-0.6,3.9c0,1,0.2,1.7,0.6,2.2C1789.3,486.5,1789.8,486.7,1790.6,486.7z"/>
			<path d="M1807.7,474.1c1.6,0,2.8,0.8,3.6,2.4h0.1c0.1-1.3,0.3-2.5,0.6-3.5l1-4.5h2.1l-4.2,19.8h-1.8l0.3-2.7h-0.1
				c-0.9,1.1-1.7,1.8-2.4,2.2c-0.7,0.4-1.5,0.7-2.3,0.7c-1.2,0-2.1-0.4-2.8-1.2s-1-2-1-3.5c0-1.8,0.3-3.5,0.9-5s1.4-2.7,2.5-3.5
				C1805.2,474.5,1806.3,474.1,1807.7,474.1z M1805.2,486.7c0.8,0,1.6-0.4,2.5-1.2c0.8-0.8,1.5-1.8,2-3s0.7-2.5,0.7-3.8
				c0-0.9-0.2-1.7-0.7-2.1s-1.1-0.7-2-0.7s-1.6,0.3-2.4,1c-0.7,0.7-1.3,1.7-1.8,2.9s-0.7,2.6-0.7,4
				C1802.9,485.8,1803.8,486.7,1805.2,486.7z"/>
			<path d="M1822.4,488.2l3.9-18.6h2.1l-3.9,18.6H1822.4z"/>
			<path d="M1837.7,488.2l1.9-8.8c0.2-0.9,0.3-1.5,0.3-1.8c0-0.5-0.2-1-0.5-1.3s-0.8-0.5-1.4-0.5c-0.8,0-1.5,0.3-2.2,0.8
				s-1.3,1.2-1.9,2.2c-0.5,0.9-1,2.1-1.2,3.4l-1.3,6h-2.1l3-13.9h1.8l-0.3,2.6h0.1c0.8-1,1.6-1.8,2.4-2.2c0.8-0.4,1.5-0.6,2.4-0.6
				c1.1,0,1.9,0.3,2.5,0.9s0.9,1.4,0.9,2.5c0,0.7-0.1,1.4-0.3,2.3l-1.8,8.5h-2.3V488.2z"/>
			<path d="M1846.2,488.2l-1.6-13.9h2.1l0.8,7.8c0.2,2.2,0.3,3.7,0.3,4.6h0.1c1.1-2.3,1.8-3.9,2.3-4.7l4.1-7.7h2.3l-7.5,13.9
				L1846.2,488.2L1846.2,488.2z"/>
			<path d="M1861.7,488.5c-1.6,0-2.8-0.5-3.7-1.4s-1.3-2.2-1.3-3.8c0-1.6,0.3-3.1,0.9-4.6s1.5-2.6,2.5-3.4s2.2-1.2,3.4-1.2
				c1.3,0,2.3,0.3,2.9,0.8s1,1.3,1,2.4c0,1.5-0.7,2.7-2.1,3.6s-3.4,1.3-6,1.3h-0.4l-0.1,1c0,1.1,0.3,2,0.8,2.6s1.3,0.9,2.4,0.9
				c0.5,0,1.1-0.1,1.6-0.2c0.6-0.2,1.3-0.4,2.1-0.8v1.9c-0.8,0.4-1.5,0.6-2.1,0.8S1862.4,488.5,1861.7,488.5z M1863.4,475.9
				c-0.9,0-1.7,0.4-2.5,1.2c-0.8,0.8-1.4,1.9-1.8,3.3h0.2c1.9,0,3.4-0.3,4.4-0.8s1.5-1.2,1.5-2.2c0-0.4-0.2-0.8-0.5-1.1
				C1864.6,476,1864.2,475.9,1863.4,475.9z"/>
			<path d="M1877.6,484.3c0,1.3-0.5,2.4-1.4,3.1s-2.3,1.1-4,1.1c-1.4,0-2.7-0.3-3.9-0.9v-2c0.6,0.4,1.2,0.6,1.9,0.8s1.3,0.3,1.9,0.3
				c1.1,0,1.9-0.2,2.4-0.6s0.8-1,0.8-1.6c0-0.5-0.1-0.9-0.4-1.2s-0.9-0.8-1.9-1.4c-1.1-0.6-1.9-1.2-2.3-1.8s-0.7-1.3-0.7-2.1
				c0-1.2,0.4-2.1,1.3-2.8s2-1.1,3.4-1.1s2.8,0.3,4.2,0.9l-0.7,1.7l-0.7-0.3c-0.9-0.4-1.8-0.5-2.8-0.5c-0.8,0-1.4,0.2-1.9,0.6
				s-0.7,0.8-0.7,1.4c0,0.5,0.2,0.9,0.5,1.2c0.3,0.3,0.9,0.8,1.9,1.3c0.9,0.5,1.6,0.9,1.9,1.3c0.4,0.4,0.7,0.8,0.9,1.2
				S1877.6,483.8,1877.6,484.3z"/>
			<path d="M1884.4,486.7c0.5,0,1.1-0.1,1.8-0.3v1.6c-0.3,0.1-0.6,0.2-1.1,0.3s-0.8,0.1-1,0.1c-1.1,0-1.9-0.3-2.4-0.8
				c-0.6-0.5-0.8-1.3-0.8-2.3c0-0.6,0.1-1.2,0.2-1.9l1.6-7.6h-2.2l0.2-0.9l2.3-1l1.6-2.9h1.2l-0.7,3.2h3.5l-0.3,1.6h-3.5l-1.6,7.7
				c-0.2,0.7-0.2,1.3-0.2,1.7c0,0.5,0.1,0.8,0.4,1.1S1883.9,486.7,1884.4,486.7z"/>
			<path d="M1895.9,474.1c1.6,0,2.9,0.5,3.8,1.4s1.4,2.3,1.4,3.9s-0.3,3.1-0.9,4.5s-1.4,2.5-2.5,3.3s-2.2,1.2-3.5,1.2
				c-1.6,0-2.9-0.5-3.8-1.4s-1.4-2.3-1.4-3.9s0.3-3.1,0.9-4.5s1.5-2.5,2.5-3.3S1894.8,474.1,1895.9,474.1z M1898.9,479.2
				c0-1-0.3-1.8-0.8-2.4s-1.2-0.9-2.2-0.9c-0.9,0-1.8,0.3-2.5,0.9s-1.3,1.5-1.7,2.6c-0.4,1.1-0.6,2.4-0.6,3.7c0,1.1,0.3,2,0.8,2.6
				s1.3,0.9,2.3,0.9c0.9,0,1.7-0.3,2.4-0.9s1.3-1.5,1.6-2.6C1898.8,482,1898.9,480.7,1898.9,479.2z"/>
			<path d="M1911.9,474.1c0.6,0,1.1,0.1,1.5,0.2l-0.5,1.9c-0.4-0.1-0.9-0.2-1.3-0.2c-0.8,0-1.5,0.3-2.2,0.8s-1.3,1.2-1.8,2.1
				s-0.9,1.9-1.1,3l-1.4,6.4h-2.1l3-13.9h1.8l-0.3,2.6h0.1c0.6-0.8,1.1-1.4,1.5-1.7s0.8-0.6,1.3-0.8
				C1910.9,474.2,1911.4,474.1,1911.9,474.1z"/>
			<path d="M1913.2,487.3c0-0.7,0.2-1.2,0.5-1.6s0.8-0.6,1.4-0.6c0.4,0,0.7,0.1,0.9,0.3c0.2,0.2,0.3,0.6,0.3,1
				c0,0.6-0.2,1.1-0.5,1.5s-0.8,0.6-1.4,0.6c-0.4,0-0.7-0.1-0.9-0.3S1913.2,487.7,1913.2,487.3z M1915.2,476.1
				c0-0.7,0.2-1.2,0.5-1.6s0.8-0.6,1.4-0.6c0.8,0,1.2,0.4,1.2,1.3c0,0.6-0.2,1.1-0.5,1.5c-0.4,0.4-0.8,0.6-1.4,0.6
				c-0.4,0-0.7-0.1-0.9-0.3S1915.2,476.5,1915.2,476.1z"/>
			<path d="M1932.2,488.2h-2.2l3.5-16.6h-5.2l0.4-1.9h12.5l-0.4,1.9h-5.2L1932.2,488.2z"/>
			<path d="M1947.2,474.1c1.6,0,2.9,0.5,3.8,1.4s1.4,2.3,1.4,3.9s-0.3,3.1-0.9,4.5s-1.4,2.5-2.5,3.3s-2.2,1.2-3.5,1.2
				c-1.6,0-2.9-0.5-3.8-1.4s-1.4-2.3-1.4-3.9s0.3-3.1,0.9-4.5s1.5-2.5,2.5-3.3S1945.8,474.1,1947.2,474.1z M1950.2,479.2
				c0-1-0.3-1.8-0.8-2.4s-1.2-0.9-2.2-0.9c-0.9,0-1.8,0.3-2.5,0.9s-1.3,1.5-1.7,2.6c-0.4,1.1-0.6,2.4-0.6,3.7c0,1.1,0.3,2,0.8,2.6
				s1.3,0.9,2.3,0.9c0.9,0,1.7-0.3,2.4-0.9s1.3-1.5,1.6-2.6C1949.9,482,1950.2,480.7,1950.2,479.2z"/>
			<path d="M1963.2,474.1c0.6,0,1.1,0.1,1.5,0.2l-0.5,1.9c-0.4-0.1-0.9-0.2-1.3-0.2c-0.8,0-1.5,0.3-2.2,0.8s-1.3,1.2-1.8,2.1
				s-0.9,1.9-1.1,3l-1.4,6.4h-2.1l3-13.9h1.8l-0.3,2.6h0.1c0.6-0.8,1.1-1.4,1.5-1.7s0.8-0.6,1.3-0.8
				C1962.2,474.2,1962.6,474.1,1963.2,474.1z"/>
			<path d="M1972.1,474.1c0.8,0,1.5,0.2,2.1,0.6s1.1,1,1.4,1.8h0.2l0.9-2.2h1.6l-4.3,20.2h-2.1l1.3-6.1c0.1-0.4,0.3-1.3,0.7-2.8
				h-0.1c-0.8,1-1.6,1.8-2.3,2.2s-1.5,0.7-2.4,0.7c-1.2,0-2.1-0.4-2.8-1.2c-0.7-0.8-1-2-1-3.5c0-1.8,0.3-3.5,0.9-5s1.4-2.7,2.5-3.5
				C1969.6,474.5,1970.8,474.1,1972.1,474.1z M1969.6,486.7c0.8,0,1.6-0.4,2.4-1.2s1.5-1.8,2-3s0.8-2.5,0.8-3.8
				c0-0.9-0.2-1.6-0.7-2.1s-1.1-0.8-1.9-0.8c-0.9,0-1.7,0.4-2.4,1.1s-1.3,1.7-1.8,3s-0.7,2.6-0.7,4
				C1967.2,485.8,1968.1,486.7,1969.6,486.7z"/>
			<path d="M1984.7,474.3l-1.9,8.8c-0.2,0.8-0.2,1.3-0.2,1.8c0,1.2,0.6,1.8,1.9,1.8c0.7,0,1.5-0.3,2.2-0.8s1.4-1.2,1.9-2.2
				s1-2.1,1.3-3.4l1.3-6h2.1l-2.9,13.9h-1.8l0.3-2.6h-0.2c-0.8,1.1-1.6,1.8-2.4,2.2s-1.5,0.6-2.3,0.6c-1.1,0-1.9-0.3-2.6-0.9
				s-0.9-1.4-0.9-2.5c0-0.5,0.1-1.3,0.3-2.2l1.9-8.6h2V474.3z"/>
			<path d="M2000.2,488.5c-1.6,0-2.8-0.5-3.7-1.4s-1.3-2.2-1.3-3.8c0-1.6,0.3-3.1,0.9-4.6s1.5-2.6,2.5-3.4s2.2-1.2,3.4-1.2
				c1.3,0,2.3,0.3,2.9,0.8s1,1.3,1,2.4c0,1.5-0.7,2.7-2.1,3.6s-3.4,1.3-6,1.3h-0.4l-0.1,1c0,1.1,0.3,2,0.8,2.6s1.3,0.9,2.4,0.9
				c0.5,0,1.1-0.1,1.6-0.2c0.6-0.2,1.3-0.4,2.1-0.8v1.9c-0.8,0.4-1.5,0.6-2.1,0.8S2000.8,488.5,2000.2,488.5z M2001.8,475.9
				c-0.9,0-1.7,0.4-2.5,1.2c-0.8,0.8-1.4,1.9-1.8,3.3h0.2c1.9,0,3.4-0.3,4.4-0.8s1.5-1.2,1.5-2.2c0-0.4-0.2-0.8-0.5-1.1
				C2003.1,476,2002.6,475.9,2001.8,475.9z"/>
			<path d="M2014.6,488.2l3.9-18.6h2.1l-3.9,18.6H2014.6z"/>
			<path d="M2029.8,488.2l1.9-8.8c0.2-0.9,0.3-1.5,0.3-1.8c0-0.5-0.2-1-0.5-1.3s-0.8-0.5-1.4-0.5c-0.8,0-1.5,0.3-2.2,0.8
				s-1.3,1.2-1.9,2.2c-0.5,0.9-1,2.1-1.2,3.4l-1.3,6h-2.1l3-13.9h1.8l-0.3,2.6h0.1c0.8-1,1.6-1.8,2.4-2.2c0.8-0.4,1.5-0.6,2.4-0.6
				c1.1,0,1.9,0.3,2.5,0.9s0.9,1.4,0.9,2.5c0,0.7-0.1,1.4-0.3,2.3l-1.8,8.5h-2.3V488.2z"/>
			<path d="M2038.3,488.2l-1.6-13.9h2.1l0.8,7.8c0.2,2.2,0.3,3.7,0.3,4.6h0.1c1.1-2.3,1.8-3.9,2.3-4.7l4.1-7.7h2.3l-7.5,13.9
				L2038.3,488.2L2038.3,488.2z"/>
			<path d="M2053.9,488.5c-1.6,0-2.8-0.5-3.7-1.4s-1.3-2.2-1.3-3.8c0-1.6,0.3-3.1,0.9-4.6c0.6-1.5,1.5-2.6,2.5-3.4s2.2-1.2,3.4-1.2
				c1.3,0,2.3,0.3,2.9,0.8c0.6,0.5,1,1.3,1,2.4c0,1.5-0.7,2.7-2.1,3.6c-1.4,0.9-3.4,1.3-6,1.3h-0.4l-0.1,1c0,1.1,0.3,2,0.8,2.6
				s1.3,0.9,2.4,0.9c0.5,0,1.1-0.1,1.6-0.2c0.6-0.2,1.3-0.4,2.1-0.8v1.9c-0.8,0.4-1.5,0.6-2.1,0.8
				C2055.2,488.6,2054.6,488.5,2053.9,488.5z M2055.6,475.9c-0.9,0-1.7,0.4-2.5,1.2c-0.8,0.8-1.4,1.9-1.8,3.3h0.2
				c1.9,0,3.4-0.3,4.4-0.8s1.5-1.2,1.5-2.2c0-0.4-0.2-0.8-0.5-1.1C2056.8,476,2056.2,475.9,2055.6,475.9z"/>
			<path d="M2069.8,484.3c0,1.3-0.5,2.4-1.4,3.1c-0.9,0.7-2.3,1.1-4,1.1c-1.4,0-2.7-0.3-3.9-0.9v-2c0.6,0.4,1.2,0.6,1.9,0.8
				c0.7,0.2,1.3,0.3,1.9,0.3c1.1,0,1.9-0.2,2.4-0.6s0.8-1,0.8-1.6c0-0.5-0.1-0.9-0.4-1.2s-0.9-0.8-1.9-1.4c-1.1-0.6-1.9-1.2-2.3-1.8
				c-0.4-0.6-0.7-1.3-0.7-2.1c0-1.2,0.4-2.1,1.3-2.8c0.9-0.7,2-1.1,3.4-1.1c1.4,0,2.8,0.3,4.2,0.9l-0.7,1.7l-0.7-0.3
				c-0.9-0.4-1.8-0.5-2.8-0.5c-0.8,0-1.4,0.2-1.9,0.6s-0.7,0.8-0.7,1.4c0,0.5,0.2,0.9,0.5,1.2c0.3,0.3,0.9,0.8,1.9,1.3
				c0.9,0.5,1.6,0.9,1.9,1.3c0.4,0.4,0.7,0.8,0.9,1.2C2069.7,483.3,2069.8,483.8,2069.8,484.3z"/>
			<path d="M2076.6,486.7c0.5,0,1.1-0.1,1.8-0.3v1.6c-0.3,0.1-0.6,0.2-1.1,0.3s-0.8,0.1-1,0.1c-1.1,0-1.9-0.3-2.4-0.8
				c-0.6-0.5-0.8-1.3-0.8-2.3c0-0.6,0.1-1.2,0.2-1.9l1.6-7.6h-2.2l0.2-0.9l2.3-1l1.6-2.9h1.2l-0.7,3.2h3.5l-0.3,1.6h-3.5l-1.6,7.7
				c-0.2,0.7-0.2,1.3-0.2,1.7c0,0.5,0.1,0.8,0.4,1.1S2076.2,486.7,2076.6,486.7z"/>
			<path d="M2088.8,488.2l1.9-8.8c0.2-0.8,0.2-1.4,0.2-1.7c0-0.6-0.1-1.1-0.4-1.4s-0.7-0.5-1.3-0.5c-0.7,0-1.4,0.3-2.1,0.8
				s-1.3,1.2-1.8,2.2c-0.5,0.9-0.9,2.1-1.2,3.4l-1.3,6h-2.1l3-13.9h1.8l-0.3,2.6h0.1c0.7-1,1.5-1.7,2.2-2.2c0.7-0.4,1.5-0.7,2.3-0.7
				c1,0,1.7,0.3,2.2,0.8s0.8,1.3,0.9,2.3h0.1c0.7-1.1,1.5-1.8,2.3-2.4s1.7-0.8,2.5-0.8c1.1,0,1.9,0.3,2.5,0.9
				c0.6,0.6,0.9,1.4,0.9,2.5c0,0.6-0.1,1.3-0.3,2.3l-1.8,8.5h-2.2l1.9-8.8c0.2-0.9,0.3-1.5,0.3-1.9c0-0.5-0.1-0.9-0.4-1.3
				c-0.3-0.3-0.8-0.5-1.4-0.5c-0.7,0-1.4,0.2-2,0.7c-0.6,0.5-1.3,1.2-1.8,2.1s-0.9,2-1.1,3.2l-1.4,6.3h-2.2V488.2z"/>
			<path d="M2108.9,488.5c-1.6,0-2.8-0.5-3.7-1.4s-1.3-2.2-1.3-3.8c0-1.6,0.3-3.1,0.9-4.6c0.6-1.5,1.5-2.6,2.5-3.4s2.2-1.2,3.4-1.2
				c1.3,0,2.3,0.3,2.9,0.8c0.6,0.5,1,1.3,1,2.4c0,1.5-0.7,2.7-2.1,3.6c-1.4,0.9-3.4,1.3-6,1.3h-0.4l-0.1,1c0,1.1,0.3,2,0.8,2.6
				s1.3,0.9,2.4,0.9c0.5,0,1.1-0.1,1.6-0.2c0.6-0.2,1.3-0.4,2.1-0.8v1.9c-0.8,0.4-1.5,0.6-2.1,0.8
				C2110.2,488.6,2109.7,488.5,2108.9,488.5z M2110.7,475.9c-0.9,0-1.7,0.4-2.5,1.2c-0.8,0.8-1.4,1.9-1.8,3.3h0.2
				c1.9,0,3.4-0.3,4.4-0.8s1.5-1.2,1.5-2.2c0-0.4-0.2-0.8-0.5-1.1C2111.8,476,2111.4,475.9,2110.7,475.9z"/>
			<path d="M2124.8,488.2l1.9-8.8c0.2-0.9,0.3-1.5,0.3-1.8c0-0.5-0.2-1-0.5-1.3s-0.8-0.5-1.4-0.5c-0.8,0-1.5,0.3-2.2,0.8
				s-1.3,1.2-1.9,2.2c-0.5,0.9-1,2.1-1.2,3.4l-1.3,6h-2.1l3-13.9h1.8l-0.3,2.6h0.1c0.8-1,1.6-1.8,2.4-2.2c0.8-0.4,1.5-0.6,2.4-0.6
				c1.1,0,1.9,0.3,2.5,0.9c0.6,0.6,0.9,1.4,0.9,2.5c0,0.7-0.1,1.4-0.3,2.3l-1.8,8.5h-2.3V488.2z"/>
			<path d="M2135.4,486.7c0.5,0,1.1-0.1,1.8-0.3v1.6c-0.3,0.1-0.6,0.2-1.1,0.3s-0.8,0.1-1,0.1c-1.1,0-1.9-0.3-2.4-0.8
				c-0.6-0.5-0.8-1.3-0.8-2.3c0-0.6,0.1-1.2,0.2-1.9l1.6-7.6h-2.2l0.2-0.9l2.3-1l1.6-2.9h1.2l-0.7,3.2h3.5l-0.3,1.6h-3.5l-1.6,7.7
				c-0.2,0.7-0.2,1.3-0.2,1.7c0,0.5,0.1,0.8,0.4,1.1S2135.1,486.7,2135.4,486.7z"/>
			<path d="M2148.2,484.3c0,1.3-0.5,2.4-1.4,3.1c-0.9,0.7-2.3,1.1-4,1.1c-1.4,0-2.7-0.3-3.9-0.9v-2c0.6,0.4,1.2,0.6,1.9,0.8
				c0.7,0.2,1.3,0.3,1.9,0.3c1.1,0,1.9-0.2,2.4-0.6s0.8-1,0.8-1.6c0-0.5-0.1-0.9-0.4-1.2s-0.9-0.8-1.9-1.4c-1.1-0.6-1.9-1.2-2.3-1.8
				c-0.4-0.6-0.7-1.3-0.7-2.1c0-1.2,0.4-2.1,1.3-2.8c0.9-0.7,2-1.1,3.4-1.1c1.4,0,2.8,0.3,4.2,0.9l-0.7,1.7l-0.7-0.3
				c-0.9-0.4-1.8-0.5-2.8-0.5c-0.8,0-1.4,0.2-1.9,0.6s-0.7,0.8-0.7,1.4c0,0.5,0.2,0.9,0.5,1.2c0.3,0.3,0.9,0.8,1.9,1.3
				c0.9,0.5,1.6,0.9,1.9,1.3c0.4,0.4,0.7,0.8,0.9,1.2C2148.2,483.3,2148.2,483.8,2148.2,484.3z"/>
			<path d="M2157.9,488.2l3.9-18.6h2.2l-3.5,16.6h7.2l-0.4,2H2157.9z"/>
			<path d="M2170.2,488.2l3.9-18.6h2.2l-3.5,16.6h7.2l-0.4,2H2170.2z"/>
			<path d="M2193.4,471.3c-1.5,0-2.8,0.4-4,1.2c-1.2,0.8-2.1,2-2.8,3.6s-1,3.3-1,5.2c0,1.6,0.4,2.8,1.2,3.8c0.8,0.9,2,1.4,3.4,1.4
				c1.2,0,2.5-0.2,4.1-0.7v1.9c-0.7,0.3-1.4,0.5-2.1,0.6s-1.5,0.2-2.4,0.2c-2,0-3.7-0.6-4.8-1.9s-1.8-3-1.8-5.2s0.4-4.3,1.3-6.2
				c0.9-1.9,2.1-3.3,3.6-4.3s3.2-1.5,5.1-1.5c1.7,0,3.1,0.3,4.4,1l-0.9,1.8C2195.8,471.6,2194.6,471.3,2193.4,471.3z"/>
			<path d="M2221.1,470c3.7,0,5.5,1.4,5.5,4.3c0,1.2-0.4,2.2-1.1,3s-1.8,1.4-3.1,1.6v0.1c1,0.3,1.7,0.7,2.2,1.4s0.8,1.5,0.8,2.4
				c0,1.8-0.6,3.2-1.9,4.2s-3,1.5-5.2,1.5h-5.9l3.9-18.6L2221.1,470L2221.1,470z M2214.9,486.7h3.4c1.5,0,2.7-0.3,3.5-1
				s1.2-1.6,1.2-2.9c0-1-0.3-1.7-0.9-2.3c-0.6-0.5-1.5-0.8-2.7-0.8h-3L2214.9,486.7z M2216.8,477.9h3.1c1.3,0,2.4-0.3,3.2-0.9
				c0.8-0.6,1.2-1.5,1.2-2.5c0-0.9-0.3-1.5-0.8-2c-0.6-0.4-1.4-0.7-2.7-0.7h-2.7L2216.8,477.9z"/>
			<path d="M2229.8,488.5h-2.1l3-13.9h2.1L2229.8,488.5z M2231.2,471.1c0-0.5,0.1-0.9,0.4-1.2s0.6-0.5,1.1-0.5
				c0.7,0,1.1,0.4,1.1,1.1c0,0.5-0.1,0.9-0.4,1.2s-0.6,0.5-1,0.5c-0.3,0-0.6-0.1-0.8-0.3C2231.3,471.7,2231.2,471.4,2231.2,471.1z"
				/>
			<path d="M2236.3,488.5h-2.1l4.2-19.8h2.1L2236.3,488.5z"/>
			<path d="M2242.9,488.5h-2.1l4.2-19.8h2.1L2242.9,488.5z"/>
			<path d="M2263.2,470c3.7,0,5.5,1.4,5.5,4.3c0,1.2-0.4,2.2-1.1,3s-1.8,1.4-3.1,1.6v0.1c1,0.3,1.7,0.7,2.2,1.4s0.8,1.5,0.8,2.4
				c0,1.8-0.6,3.2-1.9,4.2s-3,1.5-5.2,1.5h-5.9l3.9-18.6L2263.2,470L2263.2,470z M2257.1,486.7h3.4c1.5,0,2.7-0.3,3.5-1
				s1.2-1.6,1.2-2.9c0-1-0.3-1.7-0.9-2.3c-0.6-0.5-1.5-0.8-2.7-0.8h-3L2257.1,486.7z M2258.9,477.9h3.1c1.3,0,2.4-0.3,3.2-0.9
				c0.8-0.6,1.2-1.5,1.2-2.5c0-0.9-0.3-1.5-0.8-2c-0.6-0.4-1.4-0.7-2.7-0.7h-2.7L2258.9,477.9z"/>
			<path d="M2274.8,474.6l-1.9,8.8c-0.2,0.8-0.2,1.3-0.2,1.8c0,1.2,0.6,1.8,1.9,1.8c0.7,0,1.5-0.3,2.2-0.8s1.4-1.2,1.9-2.2
				c0.6-0.9,1-2.1,1.3-3.4l1.3-6h2.1l-2.9,13.9h-1.8l0.3-2.6h-0.2c-0.8,1.1-1.6,1.8-2.4,2.2s-1.5,0.6-2.3,0.6
				c-1.1,0-1.9-0.3-2.6-0.9c-0.6-0.6-0.9-1.4-0.9-2.5c0-0.5,0.1-1.3,0.3-2.2l1.9-8.6h2V474.6z"/>
			<path d="M2292.1,474.4c1.6,0,2.8,0.8,3.6,2.4h0.1c0.1-1.3,0.3-2.5,0.6-3.5l1-4.5h2.1l-4.2,19.8h-1.8l0.3-2.7h-0.1
				c-0.9,1.1-1.7,1.8-2.4,2.2c-0.7,0.4-1.5,0.7-2.3,0.7c-1.2,0-2.1-0.4-2.8-1.2c-0.7-0.8-1-2-1-3.5c0-1.8,0.3-3.5,0.9-5
				c0.6-1.5,1.4-2.7,2.5-3.5C2289.6,474.8,2290.8,474.4,2292.1,474.4z M2289.8,487c0.8,0,1.6-0.4,2.5-1.2c0.8-0.8,1.5-1.8,2-3
				s0.7-2.5,0.7-3.8c0-0.9-0.2-1.7-0.7-2.1s-1.1-0.7-2-0.7c-0.9,0-1.6,0.3-2.4,1c-0.7,0.7-1.3,1.7-1.8,2.9c-0.4,1.3-0.7,2.6-0.7,4
				C2287.4,486.1,2288.2,487,2289.8,487z"/>
			<path d="M2301.9,488.5h-2.1l3-13.9h2.1L2301.9,488.5z M2303.3,471.1c0-0.5,0.1-0.9,0.4-1.2s0.6-0.5,1.1-0.5
				c0.7,0,1.1,0.4,1.1,1.1c0,0.5-0.1,0.9-0.4,1.2s-0.6,0.5-1,0.5c-0.3,0-0.6-0.1-0.8-0.3C2303.4,471.7,2303.3,471.4,2303.3,471.1z"
				/>
			<path d="M2314.8,488.5l1.9-8.8c0.2-0.9,0.3-1.5,0.3-1.8c0-0.5-0.2-1-0.5-1.3s-0.8-0.5-1.4-0.5c-0.8,0-1.5,0.3-2.2,0.8
				s-1.3,1.2-1.9,2.2c-0.5,0.9-1,2.1-1.2,3.4l-1.3,6h-2.1l3-13.9h1.8l-0.3,2.6h0.1c0.8-1,1.6-1.8,2.4-2.2s1.5-0.6,2.4-0.6
				c1.1,0,1.9,0.3,2.5,0.9c0.6,0.6,0.9,1.4,0.9,2.5c0,0.7-0.1,1.4-0.3,2.3l-1.8,8.5h-2.3V488.5z"/>
			<path d="M2334.6,474.6l-0.3,1.4l-2.7,0.3c0.3,0.5,0.5,1.2,0.5,2c0,1.6-0.5,2.9-1.5,3.9s-2.3,1.4-4,1.4c-0.5,0-0.8,0-1.1-0.1
				c-1.2,0.4-1.8,1-1.8,1.7c0,0.3,0.1,0.6,0.4,0.7c0.3,0.1,0.7,0.2,1.2,0.3l1.5,0.2c1.5,0.2,2.6,0.6,3.3,1.1c0.7,0.6,1,1.4,1,2.5
				c0,1.6-0.6,2.8-1.9,3.6s-3,1.3-5.2,1.3c-1.6,0-2.9-0.3-3.9-0.9c-0.9-0.6-1.4-1.5-1.4-2.6c0-0.9,0.3-1.7,0.9-2.3
				c0.6-0.6,1.6-1.2,3-1.7c-0.7-0.3-1-0.9-1-1.5s0.2-1.1,0.6-1.5c0.4-0.4,1-0.8,1.8-1.2c-0.5-0.3-1-0.7-1.3-1.2s-0.5-1.1-0.5-1.8
				c0-1.6,0.5-3,1.5-4s2.3-1.6,3.9-1.6c0.7,0,1.3,0.1,2,0.3h5V474.6z M2321.1,491c0,0.7,0.3,1.2,0.8,1.5s1.4,0.6,2.5,0.6
				c1.5,0,2.7-0.3,3.6-0.8c0.9-0.5,1.3-1.3,1.3-2.3c0-0.5-0.2-0.9-0.7-1.2s-1.2-0.5-2.3-0.6l-2-0.2c-1,0.2-1.8,0.6-2.3,1.1
				S2321.1,490.3,2321.1,491z M2324.6,479.9c0,0.7,0.2,1.3,0.6,1.6c0.4,0.4,0.9,0.6,1.6,0.6s1.3-0.2,1.8-0.5s0.9-0.8,1.1-1.5
				c0.3-0.6,0.4-1.3,0.4-2s-0.2-1.2-0.6-1.6c-0.4-0.4-0.9-0.5-1.6-0.5s-1.2,0.2-1.7,0.5s-0.9,0.8-1.2,1.4S2324.6,479.2,2324.6,479.9
				z"/>
			<path d="M2339.9,488.8c-1.6,0-2.8-0.5-3.7-1.4s-1.3-2.2-1.3-3.8s0.3-3.1,0.9-4.6c0.6-1.5,1.5-2.6,2.5-3.4s2.2-1.2,3.4-1.2
				c1.3,0,2.3,0.3,2.9,0.8c0.7,0.6,1,1.3,1,2.4c0,1.5-0.7,2.7-2.1,3.6c-1.4,0.9-3.4,1.3-6,1.3h-0.4l-0.1,1c0,1.1,0.3,2,0.8,2.6
				s1.3,0.9,2.4,0.9c0.5,0,1.1-0.1,1.6-0.2c0.6-0.2,1.3-0.4,2.1-0.8v1.9c-0.8,0.4-1.5,0.6-2.1,0.8
				C2341.3,488.7,2340.6,488.8,2339.9,488.8z M2341.6,476.2c-0.9,0-1.7,0.4-2.5,1.2s-1.4,1.9-1.8,3.3h0.2c1.9,0,3.4-0.3,4.4-0.8
				s1.5-1.2,1.5-2.2c0-0.4-0.2-0.8-0.5-1.1C2342.8,476.3,2342.3,476.2,2341.6,476.2z"/>
			<path d="M2356.1,474.4c0.6,0,1.1,0.1,1.5,0.2l-0.5,1.9c-0.4-0.1-0.9-0.2-1.3-0.2c-0.8,0-1.5,0.3-2.2,0.8s-1.3,1.2-1.8,2.1
				c-0.5,0.9-0.9,1.9-1.1,3l-1.4,6.4h-2.1l3-13.9h1.8l-0.3,2.6h0.1c0.6-0.8,1.1-1.4,1.5-1.7c0.4-0.4,0.8-0.6,1.3-0.8
				C2355.1,474.5,2355.4,474.4,2356.1,474.4z"/>
		</g>
		<g>
			<path d="M1856.1,517.8c0-2.9,0.5-5.5,1.5-8s2.6-4.8,4.9-7.1h2c-2.1,2.3-3.7,4.7-4.7,7.2c-1.1,2.5-1.6,5.2-1.6,7.8
				c0,2.9,0.5,5.4,1.4,7.6h-1.7C1856.7,523.1,1856.1,520.6,1856.1,517.8z"/>
			<path d="M1865.2,521.2h-2.1l4.2-19.8h2.1L1865.2,521.2z"/>
			<path d="M1875.2,521.5c-1.6,0-2.8-0.5-3.7-1.4s-1.3-2.2-1.3-3.8s0.3-3.1,0.9-4.6s1.5-2.6,2.5-3.4s2.2-1.2,3.4-1.2
				c1.3,0,2.3,0.3,2.9,0.8c0.7,0.6,1,1.3,1,2.4c0,1.5-0.7,2.7-2.1,3.6c-1.4,0.9-3.4,1.3-6,1.3h-0.4l-0.1,1c0,1.1,0.3,2,0.8,2.6
				s1.3,0.9,2.4,0.9c0.5,0,1.1-0.1,1.6-0.2c0.6-0.2,1.3-0.4,2.1-0.8v1.9c-0.8,0.4-1.5,0.6-2.1,0.8
				C1876.7,521.4,1876.1,521.5,1875.2,521.5z M1877.1,508.9c-0.9,0-1.7,0.4-2.5,1.2s-1.4,1.9-1.8,3.3h0.2c1.9,0,3.4-0.3,4.4-0.8
				s1.5-1.2,1.5-2.2c0-0.4-0.2-0.8-0.5-1.1C1878.2,509,1877.8,508.9,1877.1,508.9z"/>
			<path d="M1890,507.1c0.8,0,1.5,0.2,2.1,0.6c0.6,0.4,1.1,1,1.4,1.8h0.1l0.9-2.2h1.6l-3,13.9h-1.7l0.3-2.7h-0.1
				c-1.5,1.9-3.1,2.9-4.8,2.9c-1.2,0-2.1-0.4-2.8-1.3s-1-2-1-3.4c0-1.8,0.3-3.4,0.9-4.9s1.4-2.7,2.5-3.5S1888.8,507.1,1890,507.1z
				 M1887.6,519.7c0.8,0,1.6-0.4,2.5-1.2c0.8-0.8,1.5-1.8,2-3.1s0.8-2.5,0.8-3.8c0-0.9-0.2-1.6-0.7-2.1s-1.1-0.8-1.9-0.8
				c-0.9,0-1.7,0.4-2.5,1.1c-0.8,0.7-1.4,1.7-1.8,3s-0.6,2.6-0.6,3.9c0,1,0.2,1.7,0.6,2.2C1886.2,519.5,1886.8,519.7,1887.6,519.7z"
				/>
			<path d="M1904.7,507.1c1.6,0,2.8,0.8,3.6,2.4h0.1c0.1-1.3,0.3-2.5,0.6-3.5l1-4.5h2.1l-4.2,19.8h-1.8l0.3-2.7h-0.1
				c-0.9,1.1-1.7,1.8-2.4,2.2s-1.5,0.7-2.3,0.7c-1.2,0-2.1-0.4-2.8-1.2s-1-2-1-3.5c0-1.8,0.3-3.5,0.9-5s1.4-2.7,2.5-3.5
				C1902.2,507.5,1903.3,507.1,1904.7,507.1z M1902.2,519.7c0.8,0,1.6-0.4,2.5-1.2c0.8-0.8,1.5-1.8,2-3s0.7-2.5,0.7-3.8
				c0-0.9-0.2-1.7-0.7-2.1s-1.1-0.7-2-0.7s-1.6,0.3-2.4,1c-0.7,0.7-1.3,1.7-1.8,2.9c-0.4,1.3-0.7,2.6-0.7,4
				C1900,518.8,1900.8,519.7,1902.2,519.7z"/>
			<path d="M1921.2,521.2h-2.1l3-13.9h2.1L1921.2,521.2z M1922.7,503.8c0-0.5,0.1-0.9,0.4-1.2s0.6-0.5,1.1-0.5
				c0.7,0,1.1,0.4,1.1,1.1c0,0.5-0.1,0.9-0.4,1.2s-0.6,0.5-1,0.5c-0.3,0-0.6-0.1-0.8-0.3C1922.8,504.4,1922.7,504.1,1922.7,503.8z"
				/>
			<path d="M1934.2,521.2l1.9-8.8c0.2-0.9,0.3-1.5,0.3-1.8c0-0.5-0.2-1-0.5-1.3s-0.8-0.5-1.4-0.5c-0.8,0-1.5,0.3-2.2,0.8
				s-1.3,1.2-1.9,2.2c-0.5,0.9-1,2.1-1.2,3.4l-1.3,6h-2.1l3-13.9h1.8l-0.3,2.6h0.1c0.8-1,1.6-1.8,2.4-2.2s1.5-0.6,2.4-0.6
				c1.1,0,1.9,0.3,2.5,0.9c0.6,0.6,0.9,1.4,0.9,2.5c0,0.7-0.1,1.4-0.3,2.3l-1.8,8.5h-2.3V521.2z"/>
			<path d="M1951.6,513.5l-1.6,7.7h-2.2l3.9-18.6h4.1c3.8,0,5.7,1.5,5.7,4.6c0,2.9-1.6,4.8-4.7,5.7l3,8.2h-2.4l-2.7-7.7
				L1951.6,513.5L1951.6,513.5z M1953.5,504.6c-0.9,4.2-1.4,6.5-1.5,7.1h2.1c1.6,0,2.9-0.4,3.8-1.1s1.3-1.8,1.3-3.1
				c0-1-0.3-1.8-0.9-2.2c-0.6-0.5-1.5-0.7-2.8-0.7H1953.5z"/>
			<path d="M1967.8,521.5c-1.6,0-2.8-0.5-3.7-1.4s-1.3-2.2-1.3-3.8s0.3-3.1,0.9-4.6s1.5-2.6,2.5-3.4s2.2-1.2,3.4-1.2
				c1.3,0,2.3,0.3,2.9,0.8c0.7,0.6,1,1.3,1,2.4c0,1.5-0.7,2.7-2.1,3.6c-1.4,0.9-3.4,1.3-6,1.3h-0.4l-0.1,1c0,1.1,0.3,2,0.8,2.6
				s1.3,0.9,2.4,0.9c0.5,0,1.1-0.1,1.6-0.2c0.6-0.2,1.3-0.4,2.1-0.8v1.9c-0.8,0.4-1.5,0.6-2.1,0.8
				C1969.2,521.4,1968.5,521.5,1967.8,521.5z M1969.5,508.9c-0.9,0-1.7,0.4-2.5,1.2s-1.4,1.9-1.8,3.3h0.2c1.9,0,3.4-0.3,4.4-0.8
				s1.5-1.2,1.5-2.2c0-0.4-0.2-0.8-0.5-1.1C1970.7,509,1970.2,508.9,1969.5,508.9z"/>
			<path d="M1982.5,507.1c0.8,0,1.5,0.2,2.1,0.6c0.6,0.4,1.1,1,1.4,1.8h0.1l0.9-2.2h1.6l-3,13.9h-1.7l0.3-2.7h-0.1
				c-1.5,1.9-3.1,2.9-4.8,2.9c-1.2,0-2.1-0.4-2.8-1.3s-1-2-1-3.4c0-1.8,0.3-3.4,0.9-4.9s1.4-2.7,2.5-3.5S1981.2,507.1,1982.5,507.1z
				 M1980,519.7c0.8,0,1.6-0.4,2.5-1.2c0.8-0.8,1.5-1.8,2-3.1s0.8-2.5,0.8-3.8c0-0.9-0.2-1.6-0.7-2.1s-1.1-0.8-1.9-0.8
				c-0.9,0-1.7,0.4-2.5,1.1c-0.8,0.7-1.4,1.7-1.8,3s-0.6,2.6-0.6,3.9c0,1,0.2,1.7,0.6,2.2C1978.8,519.5,1979.2,519.7,1980,519.7z"/>
			<path d="M1991.8,521.2h-2.1l4.2-19.8h2.1L1991.8,521.2z"/>
			<path d="M2012.1,510.1c0,2.2-0.4,4.2-1.3,5.9s-2.2,3-3.8,3.9s-3.6,1.4-5.8,1.4h-4.5l3.9-18.6h4.3c2.3,0,4.1,0.6,5.3,1.9
				C2011.5,505.8,2012.1,507.7,2012.1,510.1z M2001.2,519.4c1.7,0,3.2-0.4,4.5-1.2s2.3-1.9,3-3.3c0.7-1.4,1-3,1-4.8
				s-0.4-3.2-1.3-4.1c-0.9-0.9-2.1-1.4-3.8-1.4h-2.3l-3.2,14.8H2001.2z"/>
			<path d="M2016.6,518.2l0.1,0.3c-1,2-2.1,4-3.4,6.1h-1.6c1.1-2.4,1.9-4.5,2.6-6.4L2016.6,518.2L2016.6,518.2z"/>
			<path d="M2037.5,515.9c0,1.8-0.6,3.2-1.8,4.2c-1.2,1-2.9,1.5-5,1.5c-0.9,0-1.7-0.1-2.4-0.2c-0.7-0.1-1.3-0.3-1.9-0.6v-2.2
				c1.4,0.7,2.8,1.1,4.3,1.1c1.4,0,2.5-0.3,3.3-1c0.8-0.6,1.2-1.5,1.2-2.6c0-0.7-0.2-1.2-0.7-1.7c-0.4-0.5-1.3-1.1-2.5-1.8
				c-1.3-0.7-2.2-1.4-2.7-2.2c-0.5-0.7-0.7-1.6-0.7-2.6c0-1.6,0.6-2.9,1.7-3.9s2.6-1.5,4.4-1.5c0.8,0,1.6,0.1,2.3,0.2
				c0.7,0.2,1.5,0.4,2.3,0.8l-0.8,1.9c-0.6-0.3-1.2-0.6-1.9-0.8c-0.7-0.2-1.3-0.3-1.9-0.3c-1.1,0-2,0.3-2.7,0.9
				c-0.7,0.6-1,1.4-1,2.4c0,0.5,0.1,0.8,0.2,1.2c0.1,0.3,0.4,0.6,0.7,0.9s0.9,0.7,1.8,1.2c1.2,0.7,2.1,1.3,2.5,1.8
				c0.4,0.4,0.8,0.9,1,1.4C2037.3,514.6,2037.5,515.2,2037.5,515.9z"/>
			<path d="M2052.8,521.2h-2.1l1.8-8.7h-8.4l-1.8,8.7h-2.2l3.9-18.6h2.2l-1.7,7.9h8.4l1.7-7.9h2.1L2052.8,521.2z"/>
			<path d="M2057.6,521.2l3.9-18.6h2.1l-3.9,18.6H2057.6z"/>
			<path d="M2066.9,521.2h-2.2l3.9-18.6h9.3l-0.4,1.9h-7.2l-1.4,6.8h6.7l-0.4,1.9h-6.7L2066.9,521.2z"/>
			<path d="M2082.1,521.2h-2.2l3.5-16.6h-5.2l0.4-1.9h12.5l-0.4,1.9h-5.2L2082.1,521.2z"/>
			<path d="M2092.6,518.2l0.1,0.3c-1,2-2.1,4-3.4,6.1h-1.6c1.1-2.4,1.9-4.5,2.6-6.4L2092.6,518.2L2092.6,518.2z"/>
			<path d="M2110.4,521.2l-2.1-16.5h-0.1c-0.1,0.6-0.2,1.4-0.4,2.5s-0.3,1.9-0.5,2.5l-2.4,11.4h-2.1l3.9-18.6h3.1l1.9,15.3h0.1
				l8.4-15.3h3.4l-3.8,18.6h-2.2c1.1-5,1.9-8.8,2.5-11.5c0.6-2.7,1-4.3,1.2-5h-0.1l-9.1,16.5L2110.4,521.2L2110.4,521.2z"/>
			<path d="M2129.9,521.5c-1.6,0-2.8-0.5-3.7-1.4s-1.3-2.2-1.3-3.8s0.3-3.1,0.9-4.6c0.6-1.5,1.5-2.6,2.5-3.4s2.2-1.2,3.4-1.2
				c1.3,0,2.3,0.3,2.9,0.8c0.7,0.6,1,1.3,1,2.4c0,1.5-0.7,2.7-2.1,3.6c-1.4,0.9-3.4,1.3-6,1.3h-0.4l-0.1,1c0,1.1,0.3,2,0.8,2.6
				s1.3,0.9,2.4,0.9c0.5,0,1.1-0.1,1.6-0.2c0.6-0.2,1.3-0.4,2.1-0.8v1.9c-0.8,0.4-1.5,0.6-2.1,0.8
				C2131.3,521.4,2130.6,521.5,2129.9,521.5z M2131.6,508.9c-0.9,0-1.7,0.4-2.5,1.2s-1.4,1.9-1.8,3.3h0.2c1.9,0,3.4-0.3,4.4-0.8
				s1.5-1.2,1.5-2.2c0-0.4-0.2-0.8-0.5-1.1C2132.8,509,2132.3,508.9,2131.6,508.9z"/>
			<path d="M2144.6,507.1c0.8,0,1.5,0.2,2.1,0.6c0.6,0.4,1.1,1,1.4,1.8h0.1l0.9-2.2h1.6l-3,13.9h-1.7l0.3-2.7h-0.1
				c-1.5,1.9-3.1,2.9-4.8,2.9c-1.2,0-2.1-0.4-2.8-1.3c-0.7-0.9-1-2-1-3.4c0-1.8,0.3-3.4,0.9-4.9c0.6-1.5,1.4-2.7,2.5-3.5
				C2142.1,507.5,2143.3,507.1,2144.6,507.1z M2142.1,519.7c0.8,0,1.6-0.4,2.5-1.2c0.8-0.8,1.5-1.8,2-3.1s0.8-2.5,0.8-3.8
				c0-0.9-0.2-1.6-0.7-2.1s-1.1-0.8-1.9-0.8c-0.9,0-1.7,0.4-2.5,1.1c-0.8,0.7-1.4,1.7-1.8,3c-0.4,1.3-0.6,2.6-0.6,3.9
				c0,1,0.2,1.7,0.6,2.2C2140.9,519.5,2141.4,519.7,2142.1,519.7z"/>
			<path d="M2160.6,517.3c0,1.3-0.5,2.4-1.4,3.1c-0.9,0.7-2.3,1.1-4,1.1c-1.4,0-2.7-0.3-3.9-0.9v-2c0.6,0.4,1.2,0.6,1.9,0.8
				c0.7,0.2,1.3,0.3,1.9,0.3c1.1,0,1.9-0.2,2.4-0.6s0.8-1,0.8-1.6c0-0.5-0.1-0.9-0.4-1.2s-0.9-0.8-1.9-1.4c-1.1-0.6-1.9-1.2-2.3-1.8
				c-0.4-0.6-0.7-1.3-0.7-2.1c0-1.2,0.4-2.1,1.3-2.8c0.9-0.7,2-1.1,3.4-1.1c1.4,0,2.8,0.3,4.2,0.9l-0.7,1.7l-0.7-0.3
				c-0.9-0.4-1.8-0.5-2.8-0.5c-0.8,0-1.4,0.2-1.9,0.6c-0.4,0.4-0.7,0.8-0.7,1.4c0,0.5,0.2,0.9,0.5,1.2s0.9,0.8,1.9,1.3
				c0.9,0.5,1.6,0.9,1.9,1.3c0.4,0.4,0.7,0.8,0.9,1.2C2160.4,516.3,2160.6,516.8,2160.6,517.3z"/>
			<path d="M2168.1,507.3l-1.9,8.8c-0.2,0.8-0.2,1.3-0.2,1.8c0,1.2,0.6,1.8,1.9,1.8c0.7,0,1.5-0.3,2.2-0.8s1.4-1.2,1.9-2.2
				s1-2.1,1.3-3.4l1.3-6h2.1l-2.9,13.9h-1.8l0.3-2.6h-0.2c-0.8,1.1-1.6,1.8-2.4,2.2s-1.5,0.6-2.3,0.6c-1.1,0-1.9-0.3-2.6-0.9
				c-0.6-0.6-0.9-1.4-0.9-2.5c0-0.5,0.1-1.3,0.3-2.2l1.9-8.6h2V507.3z"/>
			<path d="M2186.8,507.1c0.6,0,1.1,0.1,1.5,0.2l-0.5,1.9c-0.4-0.1-0.9-0.2-1.3-0.2c-0.8,0-1.5,0.3-2.2,0.8s-1.3,1.2-1.8,2.1
				c-0.5,0.9-0.9,1.9-1.1,3l-1.4,6.4h-2.1l3-13.9h1.8l-0.3,2.6h0.1c0.6-0.8,1.1-1.4,1.5-1.7c0.4-0.4,0.8-0.6,1.3-0.8
				C2185.8,507.2,2186.3,507.1,2186.8,507.1z"/>
			<path d="M2195.8,507.1c0.8,0,1.5,0.2,2.1,0.6c0.6,0.4,1.1,1,1.4,1.8h0.1l0.9-2.2h1.6l-3,13.9h-1.7l0.3-2.7h-0.1
				c-1.5,1.9-3.1,2.9-4.8,2.9c-1.2,0-2.1-0.4-2.8-1.3c-0.7-0.9-1-2-1-3.4c0-1.8,0.3-3.4,0.9-4.9c0.6-1.5,1.4-2.7,2.5-3.5
				C2193.2,507.5,2194.4,507.1,2195.8,507.1z M2193.3,519.7c0.8,0,1.6-0.4,2.5-1.2c0.8-0.8,1.5-1.8,2-3.1s0.8-2.5,0.8-3.8
				c0-0.9-0.2-1.6-0.7-2.1s-1.1-0.8-1.9-0.8c-0.9,0-1.7,0.4-2.5,1.1c-0.8,0.7-1.4,1.7-1.8,3c-0.4,1.3-0.6,2.6-0.6,3.9
				c0,1,0.2,1.7,0.6,2.2C2192.1,519.5,2192.6,519.7,2193.3,519.7z"/>
			<path d="M2209.2,521.5c-0.8,0-1.5-0.2-2.2-0.6c-0.6-0.4-1.1-1-1.4-1.8h-0.1l-0.9,2.2h-1.6l4.2-19.8h2.1c-0.4,2-0.8,3.6-1,4.7
				c-0.2,1.1-0.6,2.4-1,3.8h0.1c0.8-1,1.6-1.7,2.3-2.2c0.8-0.5,1.6-0.7,2.4-0.7c1.2,0,2.1,0.4,2.8,1.3c0.7,0.9,1,2,1,3.5
				c0,1.8-0.3,3.4-0.9,4.9c-0.6,1.5-1.4,2.7-2.4,3.5C2211.6,521.1,2210.6,521.5,2209.2,521.5z M2211.6,508.9c-0.8,0-1.6,0.4-2.5,1.2
				c-0.8,0.8-1.5,1.8-2,3s-0.7,2.5-0.7,3.7c0,0.9,0.2,1.6,0.7,2.1s1.1,0.7,2,0.7c0.8,0,1.6-0.3,2.3-1c0.7-0.7,1.3-1.7,1.7-2.9
				c0.4-1.3,0.7-2.6,0.7-4C2213.8,509.8,2213.1,508.9,2211.6,508.9z"/>
			<path d="M2220.1,521.2h-2.1l4.2-19.8h2.1L2220.1,521.2z"/>
			<path d="M2230.2,510.3c0,2.9-0.5,5.5-1.5,8c-1,2.4-2.6,4.8-4.9,7.1h-2c4.2-4.7,6.3-9.7,6.3-15.1c0-2.9-0.5-5.4-1.4-7.6h1.7
				C2229.6,505,2230.2,507.5,2230.2,510.3z"/>
		</g>
		<g>
			<path d="M1729.1,566h-4.9v-1.8h4.9v-5h1.8v5h5v1.8h-5v4.9h-1.8V566z"/>
			<path d="M1755.2,574.2h-11.4l0.4-1.9l5.9-5.3c0.9-0.8,1.6-1.5,2.2-2.1s1.2-1.2,1.6-1.7s0.7-1.1,0.9-1.6c0.2-0.5,0.3-1.1,0.3-1.7
				c0-0.8-0.3-1.5-0.8-2s-1.2-0.7-2.1-0.7c-0.7,0-1.3,0.1-1.9,0.4c-0.6,0.2-1.3,0.6-2.1,1.2l-1-1.5c1.6-1.3,3.4-2,5.2-2
				c1.5,0,2.7,0.4,3.5,1.1c0.9,0.7,1.3,1.8,1.3,3.1c0,0.9-0.2,1.8-0.5,2.6s-0.9,1.6-1.7,2.5s-2,2.1-3.7,3.6l-4.5,3.9v0.1h8.6
				L1755.2,574.2z"/>
			<path d="M1768,574.2h-2.2l3.9-18.6h9.3l-0.4,1.9h-7.2l-1.4,6.8h6.7l-0.4,1.9h-6.7L1768,574.2z"/>
			<path d="M1785.1,560.1c0.8,0,1.5,0.2,2.1,0.6c0.6,0.4,1.1,1,1.4,1.8h0.1l0.9-2.2h1.6l-3,13.9h-1.7l0.3-2.7h-0.1
				c-1.5,1.9-3.1,2.9-4.8,2.9c-1.2,0-2.1-0.4-2.8-1.3c-0.7-0.8-1-2-1-3.4c0-1.8,0.3-3.4,0.9-4.9s1.4-2.7,2.5-3.5
				C1782.7,560.5,1783.9,560.1,1785.1,560.1z M1782.7,572.7c0.8,0,1.6-0.4,2.5-1.2c0.8-0.8,1.5-1.8,2-3.1s0.8-2.5,0.8-3.8
				c0-0.9-0.2-1.6-0.7-2.1s-1.1-0.8-1.9-0.8c-0.9,0-1.7,0.4-2.5,1.1c-0.8,0.7-1.4,1.7-1.8,3s-0.6,2.6-0.6,3.9c0,1,0.2,1.7,0.6,2.2
				C1781.4,572.5,1782,572.7,1782.7,572.7z"/>
			<path d="M1800.5,574.2l1.9-8.8c0.2-0.8,0.2-1.4,0.2-1.7c0-0.6-0.1-1.1-0.4-1.4c-0.3-0.3-0.7-0.5-1.3-0.5c-0.7,0-1.4,0.3-2.1,0.8
				s-1.3,1.2-1.8,2.2c-0.5,0.9-0.9,2.1-1.2,3.4l-1.3,6h-2.1l3-13.9h1.8l-0.3,2.6h0.1c0.7-1,1.5-1.7,2.2-2.2c0.7-0.4,1.5-0.7,2.3-0.7
				c1,0,1.7,0.3,2.2,0.8s0.8,1.3,0.9,2.3h0.1c0.7-1.1,1.5-1.8,2.3-2.4c0.8-0.5,1.7-0.8,2.5-0.8c1.1,0,1.9,0.3,2.5,0.9
				c0.6,0.6,0.9,1.4,0.9,2.5c0,0.6-0.1,1.3-0.3,2.3l-1.8,8.5h-2.2l1.9-8.8c0.2-0.9,0.3-1.5,0.3-1.9c0-0.5-0.1-0.9-0.4-1.3
				c-0.3-0.3-0.8-0.5-1.4-0.5c-0.7,0-1.4,0.2-2,0.7c-0.7,0.5-1.3,1.2-1.8,2.1c-0.5,0.9-0.9,2-1.1,3.2l-1.4,6.3h-2.2V574.2z"/>
			<path d="M1817.3,574.2h-2.1l3-13.9h2.1L1817.3,574.2z M1818.7,556.8c0-0.5,0.1-0.9,0.4-1.2s0.6-0.5,1.1-0.5
				c0.7,0,1.1,0.4,1.1,1.1c0,0.5-0.1,0.9-0.4,1.2s-0.6,0.5-1,0.5c-0.3,0-0.6-0.1-0.8-0.3C1818.8,557.4,1818.7,557.1,1818.7,556.8z"
				/>
			<path d="M1823.8,574.2h-2.1l4.2-19.8h2.1L1823.8,574.2z"/>
			<path d="M1828.8,560.3h2.1l0.9,6.9c0.1,0.6,0.2,1.4,0.2,2.6c0.1,1.1,0.1,2.1,0.1,2.7h0.1c0.3-0.7,0.7-1.6,1.1-2.5
				c0.4-1,0.8-1.6,1-2l4.1-7.7h2.3l-8.8,16.3c-0.8,1.5-1.6,2.5-2.3,3c-0.8,0.6-1.7,0.9-2.8,0.9c-0.6,0-1.2-0.1-1.8-0.3v-1.7
				c0.5,0.2,1.1,0.2,1.7,0.2c0.7,0,1.3-0.2,1.8-0.6c0.5-0.4,1-1.1,1.4-1.9l1-1.7L1828.8,560.3z"/>
			<path d="M1864.3,562.7c0,2.3-0.4,4.3-1.1,6.1s-1.8,3.2-3.2,4.2c-1.4,1-3,1.5-4.8,1.5c-2.2,0-3.9-0.6-5.1-1.9
				c-1.2-1.3-1.8-3-1.8-5.3c0-2.2,0.4-4.3,1.2-6.1s1.9-3.3,3.3-4.3s3-1.5,4.8-1.5c2.1,0,3.7,0.7,4.9,2
				C1863.7,558.6,1864.3,560.4,1864.3,562.7z M1857.4,557.3c-1.3,0-2.5,0.4-3.6,1.3c-1,0.9-1.9,2-2.4,3.6c-0.6,1.5-0.9,3.2-0.9,5.1
				c0,1.7,0.4,3,1.2,3.9c0.8,0.9,2,1.4,3.4,1.4c1.3,0,2.4-0.4,3.5-1.2c1-0.8,1.8-2,2.4-3.5s0.9-3.2,0.9-5.1c0-1.7-0.4-3-1.2-3.9
				C1860,557.8,1858.8,557.3,1857.4,557.3z"/>
			<path d="M1872,580.5c-0.6,0-1.1-0.1-1.6-0.3v-1.8c0.5,0.2,1,0.3,1.5,0.3c0.6,0,1-0.2,1.4-0.7s0.7-1.3,0.9-2.3l2.9-13.7h-6.1
				l-2.9,13.9c-0.3,1.6-0.8,2.8-1.5,3.5s-1.6,1.1-2.7,1.1c-0.6,0-1.1-0.1-1.6-0.3v-1.8c0.5,0.2,1,0.3,1.4,0.3c0.6,0,1.1-0.2,1.4-0.7
				c0.4-0.5,0.7-1.3,0.9-2.3l2.9-13.7h-2.5l0.2-0.9l2.6-0.8l0.3-1.3c0.4-1.7,0.9-2.9,1.6-3.6c0.7-0.7,1.7-1,3.1-1
				c0.3,0,0.8,0,1.2,0.1c0.5,0.1,0.9,0.2,1.1,0.3l-0.5,1.6c-0.6-0.2-1.2-0.4-1.7-0.4c-0.7,0-1.3,0.2-1.7,0.6c-0.4,0.4-0.7,1.2-1,2.3
				l-0.3,1.4h6.1l0.3-1.4c0.4-1.7,0.9-2.9,1.6-3.6s1.7-1.1,3.1-1.1c0.3,0,0.8,0,1.2,0.1c0.5,0.1,0.9,0.2,1.2,0.3l-0.6,1.6
				c-0.6-0.2-1.2-0.4-1.7-0.4c-0.8,0-1.3,0.2-1.7,0.6c-0.4,0.4-0.7,1.2-0.9,2.2l-0.3,1.4h3l-0.3,1.6h-3l-2.9,13.9
				c-0.4,1.7-0.9,2.8-1.6,3.5C1874,580.1,1873.1,580.5,1872,580.5z M1884.4,574.2h-2.1l3-13.9h2.1L1884.4,574.2z M1885.8,556.8
				c0-0.5,0.1-0.8,0.4-1.1s0.6-0.5,1.1-0.5c0.7,0,1.1,0.4,1.1,1.1c0,0.5-0.1,0.9-0.4,1.2s-0.6,0.5-1,0.5c-0.3,0-0.6-0.1-0.8-0.3
				C1885.9,557.4,1885.8,557.1,1885.8,556.8z"/>
			<path d="M1894.5,574.5c-1.6,0-2.9-0.5-3.8-1.4s-1.4-2.2-1.4-3.8c0-1.7,0.3-3.3,0.9-4.7s1.5-2.5,2.6-3.3s2.3-1.2,3.7-1.2
				c1.2,0,2.3,0.2,3.4,0.6l-0.6,1.8c-1-0.4-1.9-0.6-2.8-0.6s-1.8,0.3-2.6,1c-0.8,0.6-1.4,1.5-1.8,2.7s-0.7,2.4-0.7,3.8
				c0,1.1,0.3,1.9,0.8,2.5s1.3,0.9,2.3,0.9c0.6,0,1.2-0.1,1.7-0.3s1.1-0.4,1.6-0.6v1.8C1897,574.2,1895.8,574.5,1894.5,574.5z"/>
			<path d="M1906.1,574.5c-1.6,0-2.8-0.5-3.7-1.4s-1.3-2.2-1.3-3.8s0.3-3.1,0.9-4.6s1.5-2.6,2.5-3.4s2.2-1.2,3.4-1.2
				c1.3,0,2.3,0.3,2.9,0.8c0.7,0.6,1,1.3,1,2.4c0,1.5-0.7,2.7-2.1,3.6c-1.4,0.9-3.4,1.3-6,1.3h-0.4l-0.1,1c0,1.1,0.3,2,0.8,2.6
				s1.3,0.9,2.4,0.9c0.5,0,1.1-0.1,1.6-0.2c0.6-0.2,1.3-0.4,2.1-0.8v1.9c-0.8,0.4-1.5,0.6-2.1,0.8
				C1907.5,574.4,1906.8,574.5,1906.1,574.5z M1907.8,561.9c-0.9,0-1.7,0.4-2.5,1.2s-1.4,1.9-1.8,3.3h0.2c1.9,0,3.4-0.3,4.4-0.8
				s1.5-1.2,1.5-2.2c0-0.4-0.2-0.8-0.5-1.1C1909,562,1908.5,561.9,1907.8,561.9z"/>
			<path d="M1922,570.3c0,1.3-0.5,2.4-1.4,3.1c-0.9,0.7-2.3,1.1-4,1.1c-1.4,0-2.7-0.3-3.9-0.9v-2c0.6,0.4,1.2,0.6,1.9,0.8
				s1.3,0.3,1.9,0.3c1.1,0,1.9-0.2,2.4-0.6s0.8-1,0.8-1.6c0-0.5-0.1-0.9-0.4-1.2s-0.9-0.8-1.9-1.4c-1.1-0.6-1.9-1.2-2.3-1.8
				s-0.7-1.3-0.7-2.1c0-1.2,0.4-2.1,1.3-2.8s2-1.1,3.4-1.1s2.8,0.3,4.2,0.9l-0.7,1.7l-0.7-0.3c-0.9-0.4-1.8-0.5-2.8-0.5
				c-0.8,0-1.4,0.2-1.9,0.6c-0.4,0.4-0.7,0.8-0.7,1.4c0,0.5,0.2,0.9,0.5,1.2s0.9,0.8,1.9,1.3c0.9,0.5,1.6,0.9,1.9,1.3
				c0.4,0.4,0.7,0.8,0.9,1.2C1921.9,569.3,1922,569.8,1922,570.3z"/>
			<path d="M1938.6,560.1c0.8,0,1.5,0.2,2.1,0.6c0.6,0.4,1.1,1,1.4,1.8h0.1l0.9-2.2h1.6l-3,13.9h-1.7l0.3-2.7h-0.1
				c-1.5,1.9-3.1,2.9-4.8,2.9c-1.2,0-2.1-0.4-2.8-1.3s-1-2-1-3.4c0-1.8,0.3-3.4,0.9-4.9s1.4-2.7,2.5-3.5S1937.4,560.1,1938.6,560.1z
				 M1936.2,572.7c0.8,0,1.6-0.4,2.5-1.2c0.8-0.8,1.5-1.8,2-3.1s0.8-2.5,0.8-3.8c0-0.9-0.2-1.6-0.7-2.1s-1.1-0.8-1.9-0.8
				c-0.9,0-1.7,0.4-2.5,1.1c-0.8,0.7-1.4,1.7-1.8,3s-0.6,2.6-0.6,3.9c0,1,0.2,1.7,0.6,2.2C1934.9,572.5,1935.5,572.7,1936.2,572.7z"
				/>
			<path d="M1954.5,574.2l1.9-8.8c0.2-0.9,0.3-1.5,0.3-1.8c0-0.5-0.2-1-0.5-1.3s-0.8-0.5-1.4-0.5c-0.8,0-1.5,0.3-2.2,0.8
				s-1.3,1.2-1.9,2.2c-0.5,0.9-1,2.1-1.2,3.4l-1.3,6h-2.1l3-13.9h1.8l-0.3,2.6h0.1c0.8-1,1.6-1.8,2.4-2.2s1.5-0.6,2.4-0.6
				c1.1,0,1.9,0.3,2.5,0.9c0.6,0.6,0.9,1.4,0.9,2.5c0,0.7-0.1,1.4-0.3,2.3l-1.8,8.5h-2.3V574.2z"/>
			<path d="M1968.3,560.1c1.6,0,2.8,0.8,3.6,2.4h0.1c0.1-1.3,0.3-2.5,0.6-3.5l1-4.5h2.1l-4.2,19.8h-1.8l0.3-2.7h-0.1
				c-0.9,1.1-1.7,1.8-2.4,2.2s-1.5,0.7-2.3,0.7c-1.2,0-2.1-0.4-2.8-1.2s-1-2-1-3.5c0-1.8,0.3-3.5,0.9-5s1.4-2.7,2.5-3.5
				C1965.9,560.5,1967,560.1,1968.3,560.1z M1965.9,572.7c0.8,0,1.6-0.4,2.5-1.2c0.8-0.8,1.5-1.8,2-3s0.7-2.5,0.7-3.8
				c0-0.9-0.2-1.7-0.7-2.1s-1.1-0.7-2-0.7s-1.6,0.3-2.4,1c-0.7,0.7-1.3,1.7-1.8,2.9c-0.4,1.3-0.7,2.6-0.7,4
				C1963.6,571.8,1964.4,572.7,1965.9,572.7z"/>
			<path d="M1991.3,570.3c0,1.3-0.5,2.4-1.4,3.1c-0.9,0.7-2.3,1.1-4,1.1c-1.4,0-2.7-0.3-3.9-0.9v-2c0.6,0.4,1.2,0.6,1.9,0.8
				s1.3,0.3,1.9,0.3c1.1,0,1.9-0.2,2.4-0.6s0.8-1,0.8-1.6c0-0.5-0.1-0.9-0.4-1.2s-0.9-0.8-1.9-1.4c-1.1-0.6-1.9-1.2-2.3-1.8
				s-0.7-1.3-0.7-2.1c0-1.2,0.4-2.1,1.3-2.8s2-1.1,3.4-1.1s2.8,0.3,4.2,0.9l-0.7,1.7l-0.7-0.3c-0.9-0.4-1.8-0.5-2.8-0.5
				c-0.8,0-1.4,0.2-1.9,0.6c-0.4,0.4-0.7,0.8-0.7,1.4c0,0.5,0.2,0.9,0.5,1.2s0.9,0.8,1.9,1.3c0.9,0.5,1.6,0.9,1.9,1.3
				c0.4,0.4,0.7,0.8,0.9,1.2C1991.2,569.3,1991.3,569.8,1991.3,570.3z"/>
			<path d="M1999.4,574.5c-1.6,0-2.8-0.5-3.7-1.4s-1.3-2.2-1.3-3.8s0.3-3.1,0.9-4.6s1.5-2.6,2.5-3.4s2.2-1.2,3.4-1.2
				c1.3,0,2.3,0.3,2.9,0.8c0.7,0.6,1,1.3,1,2.4c0,1.5-0.7,2.7-2.1,3.6c-1.4,0.9-3.4,1.3-6,1.3h-0.4l-0.1,1c0,1.1,0.3,2,0.8,2.6
				s1.3,0.9,2.4,0.9c0.5,0,1.1-0.1,1.6-0.2c0.6-0.2,1.3-0.4,2.1-0.8v1.9c-0.8,0.4-1.5,0.6-2.1,0.8
				C2000.8,574.4,2000.1,574.5,1999.4,574.5z M2001.1,561.9c-0.9,0-1.7,0.4-2.5,1.2s-1.4,1.9-1.8,3.3h0.2c1.9,0,3.4-0.3,4.4-0.8
				s1.5-1.2,1.5-2.2c0-0.4-0.2-0.8-0.5-1.1C2002.3,562,2001.8,561.9,2001.1,561.9z"/>
			<path d="M2008.8,574.2l-1.6-13.9h2.1l0.8,7.8c0.2,2.2,0.3,3.7,0.3,4.6h0.1c1.1-2.3,1.8-3.9,2.3-4.7l4.1-7.7h2.3l-7.5,13.9
				L2008.8,574.2L2008.8,574.2z"/>
			<path d="M2024.2,574.5c-1.6,0-2.8-0.5-3.7-1.4s-1.3-2.2-1.3-3.8s0.3-3.1,0.9-4.6s1.5-2.6,2.5-3.4s2.2-1.2,3.4-1.2
				c1.3,0,2.3,0.3,2.9,0.8c0.7,0.6,1,1.3,1,2.4c0,1.5-0.7,2.7-2.1,3.6c-1.4,0.9-3.4,1.3-6,1.3h-0.4l-0.1,1c0,1.1,0.3,2,0.8,2.6
				s1.3,0.9,2.4,0.9c0.5,0,1.1-0.1,1.6-0.2c0.6-0.2,1.3-0.4,2.1-0.8v1.9c-0.8,0.4-1.5,0.6-2.1,0.8
				C2025.6,574.4,2024.9,574.5,2024.2,574.5z M2026,561.9c-0.9,0-1.7,0.4-2.5,1.2s-1.4,1.9-1.8,3.3h0.2c1.9,0,3.4-0.3,4.4-0.8
				s1.5-1.2,1.5-2.2c0-0.4-0.2-0.8-0.5-1.1C2027.1,562,2026.6,561.9,2026,561.9z"/>
			<path d="M2040.3,560.1c0.6,0,1.1,0.1,1.5,0.2l-0.5,1.9c-0.4-0.1-0.9-0.2-1.3-0.2c-0.8,0-1.5,0.3-2.2,0.8s-1.3,1.2-1.8,2.1
				c-0.5,0.9-0.9,1.9-1.1,3l-1.4,6.4h-2.1l3-13.9h1.8l-0.3,2.6h0.1c0.6-0.8,1.1-1.4,1.5-1.7c0.4-0.4,0.8-0.6,1.3-0.8
				C2039.3,560.2,2039.8,560.1,2040.3,560.1z"/>
			<path d="M2049.2,560.1c0.8,0,1.5,0.2,2.1,0.6c0.6,0.4,1.1,1,1.4,1.8h0.1l0.9-2.2h1.6l-3,13.9h-1.7l0.3-2.7h-0.1
				c-1.5,1.9-3.1,2.9-4.8,2.9c-1.2,0-2.1-0.4-2.8-1.3s-1-2-1-3.4c0-1.8,0.3-3.4,0.9-4.9s1.4-2.7,2.5-3.5S2047.9,560.1,2049.2,560.1z
				 M2046.8,572.7c0.8,0,1.6-0.4,2.5-1.2c0.8-0.8,1.5-1.8,2-3.1s0.8-2.5,0.8-3.8c0-0.9-0.2-1.6-0.7-2.1s-1.1-0.8-1.9-0.8
				c-0.9,0-1.7,0.4-2.5,1.1c-0.8,0.7-1.4,1.7-1.8,3s-0.6,2.6-0.6,3.9c0,1,0.2,1.7,0.6,2.2C2045.5,572.5,2046,572.7,2046.8,572.7z"/>
			<path d="M2058.6,574.2h-2.1l4.2-19.8h2.1L2058.6,574.2z"/>
			<path d="M2072,574.2h-2.1l3-13.9h2.1L2072,574.2z M2073.4,556.8c0-0.5,0.1-0.9,0.4-1.2s0.6-0.5,1.1-0.5c0.7,0,1.1,0.4,1.1,1.1
				c0,0.5-0.1,0.9-0.4,1.2s-0.6,0.5-1,0.5c-0.3,0-0.6-0.1-0.8-0.3C2073.5,557.4,2073.4,557.1,2073.4,556.8z"/>
			<path d="M2085,574.2l1.9-8.8c0.2-0.9,0.3-1.5,0.3-1.8c0-0.5-0.2-1-0.5-1.3s-0.8-0.5-1.4-0.5c-0.8,0-1.5,0.3-2.2,0.8
				s-1.3,1.2-1.9,2.2c-0.5,0.9-1,2.1-1.2,3.4l-1.3,6h-2.1l3-13.9h1.8l-0.3,2.6h0.1c0.8-1,1.6-1.8,2.4-2.2s1.5-0.6,2.4-0.6
				c1.1,0,1.9,0.3,2.5,0.9c0.6,0.6,0.9,1.4,0.9,2.5c0,0.7-0.1,1.4-0.3,2.3l-1.8,8.5h-2.3V574.2z"/>
			<path d="M2089.4,580.5c-0.6,0-1.1-0.1-1.6-0.3v-1.8c0.5,0.2,1,0.3,1.4,0.3c0.6,0,1.1-0.3,1.5-0.8c0.4-0.5,0.6-1.3,0.8-2.2
				l2.9-13.7h-2.5l0.2-0.9l2.6-0.8l0.3-1.3c0.4-1.7,0.9-2.9,1.6-3.6c0.7-0.7,1.7-1,3.1-1c0.3,0,0.8,0,1.2,0.1
				c0.5,0.1,0.9,0.2,1.1,0.3l-0.5,1.6c-0.6-0.2-1.2-0.4-1.7-0.4c-0.7,0-1.3,0.2-1.7,0.6c-0.4,0.4-0.7,1.2-1,2.3l-0.3,1.4h3l-0.3,1.6
				h-3l-2.9,13.9c-0.3,1.6-0.8,2.8-1.5,3.5S2090.5,580.5,2089.4,580.5z M2101.7,574.2h-2.1l4.2-19.8h2.1L2101.7,574.2z"/>
			<path d="M2111.2,560.3l-1.9,8.8c-0.2,0.8-0.2,1.3-0.2,1.8c0,1.2,0.6,1.8,1.9,1.8c0.7,0,1.5-0.3,2.2-0.8s1.4-1.2,1.9-2.2
				s1-2.1,1.3-3.4l1.3-6h2.1l-2.9,13.9h-1.8l0.3-2.6h-0.2c-0.8,1.1-1.6,1.8-2.4,2.2s-1.5,0.6-2.3,0.6c-1.1,0-1.9-0.3-2.6-0.9
				c-0.6-0.6-0.9-1.4-0.9-2.5c0-0.5,0.1-1.3,0.3-2.2l1.9-8.6h2V560.3z"/>
			<path d="M2126.8,574.5c-1.6,0-2.8-0.5-3.7-1.4s-1.3-2.2-1.3-3.8s0.3-3.1,0.9-4.6c0.6-1.5,1.5-2.6,2.5-3.4s2.2-1.2,3.4-1.2
				c1.3,0,2.3,0.3,2.9,0.8c0.7,0.6,1,1.3,1,2.4c0,1.5-0.7,2.7-2.1,3.6c-1.4,0.9-3.4,1.3-6,1.3h-0.4l-0.1,1c0,1.1,0.3,2,0.8,2.6
				s1.3,0.9,2.4,0.9c0.5,0,1.1-0.1,1.6-0.2c0.6-0.2,1.3-0.4,2.1-0.8v1.9c-0.8,0.4-1.5,0.6-2.1,0.8
				C2128.2,574.4,2127.5,574.5,2126.8,574.5z M2128.5,561.9c-0.9,0-1.7,0.4-2.5,1.2s-1.4,1.9-1.8,3.3h0.2c1.9,0,3.4-0.3,4.4-0.8
				s1.5-1.2,1.5-2.2c0-0.4-0.2-0.8-0.5-1.1C2129.7,562,2129.2,561.9,2128.5,561.9z"/>
			<path d="M2142.6,574.2l1.9-8.8c0.2-0.9,0.3-1.5,0.3-1.8c0-0.5-0.2-1-0.5-1.3s-0.8-0.5-1.4-0.5c-0.8,0-1.5,0.3-2.2,0.8
				s-1.3,1.2-1.9,2.2c-0.5,0.9-1,2.1-1.2,3.4l-1.3,6h-2.1l3-13.9h1.8l-0.3,2.6h0.1c0.8-1,1.6-1.8,2.4-2.2s1.5-0.6,2.4-0.6
				c1.1,0,1.9,0.3,2.5,0.9c0.6,0.6,0.9,1.4,0.9,2.5c0,0.7-0.1,1.4-0.3,2.3l-1.8,8.5h-2.3V574.2z"/>
			<path d="M2153.4,572.7c0.5,0,1.1-0.1,1.8-0.3v1.6c-0.3,0.1-0.6,0.2-1.1,0.3s-0.8,0.1-1,0.1c-1.1,0-1.9-0.3-2.4-0.8
				c-0.6-0.5-0.8-1.3-0.8-2.3c0-0.6,0.1-1.2,0.2-1.9l1.6-7.6h-2.2l0.2-0.9l2.3-1l1.6-2.9h1.2l-0.7,3.2h3.5l-0.3,1.6h-3.5l-1.6,7.7
				c-0.2,0.7-0.2,1.3-0.2,1.7c0,0.5,0.1,0.8,0.4,1.1S2152.9,572.7,2153.4,572.7z"/>
			<path d="M2159.6,574.2h-2.1l3-13.9h2.1L2159.6,574.2z M2161.1,556.8c0-0.5,0.1-0.9,0.4-1.2s0.6-0.5,1.1-0.5
				c0.7,0,1.1,0.4,1.1,1.1c0,0.5-0.1,0.9-0.4,1.2s-0.6,0.5-1,0.5c-0.3,0-0.6-0.1-0.8-0.3C2161.2,557.4,2161.1,557.1,2161.1,556.8z"
				/>
			<path d="M2171.5,560.1c0.8,0,1.5,0.2,2.1,0.6c0.6,0.4,1.1,1,1.4,1.8h0.1l0.9-2.2h1.6l-3,13.9h-1.7l0.3-2.7h-0.1
				c-1.5,1.9-3.1,2.9-4.8,2.9c-1.2,0-2.1-0.4-2.8-1.3c-0.7-0.9-1-2-1-3.4c0-1.8,0.3-3.4,0.9-4.9c0.6-1.5,1.4-2.7,2.5-3.5
				C2169,560.5,2170.2,560.1,2171.5,560.1z M2169.1,572.7c0.8,0,1.6-0.4,2.5-1.2c0.8-0.8,1.5-1.8,2-3.1s0.8-2.5,0.8-3.8
				c0-0.9-0.2-1.6-0.7-2.1s-1.1-0.8-1.9-0.8c-0.9,0-1.7,0.4-2.5,1.1c-0.8,0.7-1.4,1.7-1.8,3c-0.4,1.3-0.6,2.6-0.6,3.9
				c0,1,0.2,1.7,0.6,2.2C2167.8,572.5,2168.3,572.7,2169.1,572.7z"/>
			<path d="M2180.9,574.2h-2.1l4.2-19.8h2.1L2180.9,574.2z"/>
			<path d="M2201.7,568.3h-6.3l-3.1,5.9h-2.4l10.1-18.6h2.2l2.3,18.6h-2.2L2201.7,568.3z M2201.5,566.3l-0.4-3.8
				c-0.2-1.5-0.3-3-0.4-4.4c-0.3,0.7-0.7,1.5-1,2.2c-0.4,0.7-1.4,2.7-3.2,6H2201.5z"/>
			<path d="M2215.1,574.2l1.9-8.8c0.2-0.9,0.3-1.5,0.3-1.8c0-0.5-0.2-1-0.5-1.3s-0.8-0.5-1.4-0.5c-0.8,0-1.5,0.3-2.2,0.8
				s-1.3,1.2-1.9,2.2c-0.5,0.9-1,2.1-1.2,3.4l-1.3,6h-2.1l3-13.9h1.8l-0.3,2.6h0.1c0.8-1,1.6-1.8,2.4-2.2s1.5-0.6,2.4-0.6
				c1.1,0,1.9,0.3,2.5,0.9c0.6,0.6,0.9,1.4,0.9,2.5c0,0.7-0.1,1.4-0.3,2.3l-1.8,8.5h-2.3V574.2z"/>
			<path d="M2234.8,560.3l-0.3,1.4l-2.7,0.3c0.3,0.5,0.5,1.2,0.5,2c0,1.6-0.5,2.9-1.5,3.9s-2.3,1.4-4,1.4c-0.5,0-0.8,0-1.1-0.1
				c-1.2,0.4-1.8,1-1.8,1.7c0,0.3,0.1,0.6,0.4,0.7c0.3,0.1,0.7,0.2,1.2,0.3l1.5,0.2c1.5,0.2,2.6,0.6,3.3,1.1c0.7,0.6,1,1.4,1,2.5
				c0,1.6-0.6,2.8-1.9,3.6s-3,1.3-5.2,1.3c-1.6,0-2.9-0.3-3.9-0.9c-0.9-0.6-1.4-1.5-1.4-2.6c0-0.9,0.3-1.7,0.9-2.3
				c0.6-0.6,1.6-1.2,3-1.7c-0.7-0.3-1-0.9-1-1.5s0.2-1.1,0.6-1.5c0.4-0.4,1-0.8,1.8-1.2c-0.5-0.3-1-0.7-1.3-1.2s-0.5-1.1-0.5-1.8
				c0-1.6,0.5-3,1.5-4s2.3-1.6,3.9-1.6c0.7,0,1.3,0.1,2,0.3h5V560.3z M2221.3,576.7c0,0.7,0.3,1.2,0.8,1.5s1.4,0.6,2.5,0.6
				c1.5,0,2.7-0.3,3.6-0.8c0.9-0.5,1.3-1.3,1.3-2.3c0-0.5-0.2-0.9-0.7-1.2s-1.2-0.5-2.3-0.6l-2-0.2c-1,0.2-1.8,0.6-2.3,1.1
				S2221.3,576,2221.3,576.7z M2224.8,565.6c0,0.7,0.2,1.3,0.6,1.6c0.4,0.4,0.9,0.6,1.6,0.6s1.3-0.2,1.8-0.5s0.9-0.8,1.1-1.5
				c0.3-0.6,0.4-1.3,0.4-2s-0.2-1.2-0.6-1.6c-0.4-0.4-0.9-0.5-1.6-0.5s-1.2,0.2-1.7,0.5s-0.9,0.8-1.2,1.4
				C2225,564.2,2224.8,564.9,2224.8,565.6z"/>
			<path d="M2240.1,574.5c-1.6,0-2.8-0.5-3.7-1.4s-1.3-2.2-1.3-3.8s0.3-3.1,0.9-4.6c0.6-1.5,1.5-2.6,2.5-3.4s2.2-1.2,3.4-1.2
				c1.3,0,2.3,0.3,2.9,0.8c0.7,0.6,1,1.3,1,2.4c0,1.5-0.7,2.7-2.1,3.6c-1.4,0.9-3.4,1.3-6,1.3h-0.4l-0.1,1c0,1.1,0.3,2,0.8,2.6
				s1.3,0.9,2.4,0.9c0.5,0,1.1-0.1,1.6-0.2c0.6-0.2,1.3-0.4,2.1-0.8v1.9c-0.8,0.4-1.5,0.6-2.1,0.8
				C2241.5,574.4,2240.9,574.5,2240.1,574.5z M2241.9,561.9c-0.9,0-1.7,0.4-2.5,1.2s-1.4,1.9-1.8,3.3h0.2c1.9,0,3.4-0.3,4.4-0.8
				s1.5-1.2,1.5-2.2c0-0.4-0.2-0.8-0.5-1.1C2243,562,2242.5,561.9,2241.9,561.9z"/>
			<path d="M2249.6,574.2h-2.1l4.2-19.8h2.1L2249.6,574.2z"/>
			<path d="M2261.1,574.2l3.9-18.6h2.1l-3.9,18.6H2261.1z"/>
			<path d="M2276.4,574.2l1.9-8.8c0.2-0.9,0.3-1.5,0.3-1.8c0-0.5-0.2-1-0.5-1.3s-0.8-0.5-1.4-0.5c-0.8,0-1.5,0.3-2.2,0.8
				s-1.3,1.2-1.9,2.2c-0.5,0.9-1,2.1-1.2,3.4l-1.3,6h-2.1l3-13.9h1.8l-0.3,2.6h0.1c0.8-1,1.6-1.8,2.4-2.2s1.5-0.6,2.4-0.6
				c1.1,0,1.9,0.3,2.5,0.9c0.6,0.6,0.9,1.4,0.9,2.5c0,0.7-0.1,1.4-0.3,2.3l-1.8,8.5h-2.3V574.2z"/>
			<path d="M2285,574.2l-1.6-13.9h2.1l0.8,7.8c0.2,2.2,0.3,3.7,0.3,4.6h0.1c1.1-2.3,1.8-3.9,2.3-4.7l4.1-7.7h2.3l-7.5,13.9
				L2285,574.2L2285,574.2z"/>
			<path d="M2300.4,574.5c-1.6,0-2.8-0.5-3.7-1.4s-1.3-2.2-1.3-3.8s0.3-3.1,0.9-4.6c0.6-1.5,1.5-2.6,2.5-3.4s2.2-1.2,3.4-1.2
				c1.3,0,2.3,0.3,2.9,0.8c0.7,0.6,1,1.3,1,2.4c0,1.5-0.7,2.7-2.1,3.6c-1.4,0.9-3.4,1.3-6,1.3h-0.4l-0.1,1c0,1.1,0.3,2,0.8,2.6
				s1.3,0.9,2.4,0.9c0.5,0,1.1-0.1,1.6-0.2c0.6-0.2,1.3-0.4,2.1-0.8v1.9c-0.8,0.4-1.5,0.6-2.1,0.8
				C2301.8,574.4,2301.2,574.5,2300.4,574.5z M2302.2,561.9c-0.9,0-1.7,0.4-2.5,1.2s-1.4,1.9-1.8,3.3h0.2c1.9,0,3.4-0.3,4.4-0.8
				s1.5-1.2,1.5-2.2c0-0.4-0.2-0.8-0.5-1.1C2303.3,562,2302.8,561.9,2302.2,561.9z"/>
			<path d="M2316.3,570.3c0,1.3-0.5,2.4-1.4,3.1c-0.9,0.7-2.3,1.1-4,1.1c-1.4,0-2.7-0.3-3.9-0.9v-2c0.6,0.4,1.2,0.6,1.9,0.8
				c0.7,0.2,1.3,0.3,1.9,0.3c1.1,0,1.9-0.2,2.4-0.6s0.8-1,0.8-1.6c0-0.5-0.1-0.9-0.4-1.2s-0.9-0.8-1.9-1.4c-1.1-0.6-1.9-1.2-2.3-1.8
				c-0.4-0.6-0.7-1.3-0.7-2.1c0-1.2,0.4-2.1,1.3-2.8c0.9-0.7,2-1.1,3.4-1.1c1.4,0,2.8,0.3,4.2,0.9l-0.7,1.7l-0.7-0.3
				c-0.9-0.4-1.8-0.5-2.8-0.5c-0.8,0-1.4,0.2-1.9,0.6c-0.4,0.4-0.7,0.8-0.7,1.4c0,0.5,0.2,0.9,0.5,1.2s0.9,0.8,1.9,1.3
				c0.9,0.5,1.6,0.9,1.9,1.3c0.4,0.4,0.7,0.8,0.9,1.2C2316.2,569.3,2316.3,569.8,2316.3,570.3z"/>
			<path d="M2323.1,572.7c0.5,0,1.1-0.1,1.8-0.3v1.6c-0.3,0.1-0.6,0.2-1.1,0.3s-0.8,0.1-1,0.1c-1.1,0-1.9-0.3-2.4-0.8
				c-0.6-0.5-0.8-1.3-0.8-2.3c0-0.6,0.1-1.2,0.2-1.9l1.6-7.6h-2.2l0.2-0.9l2.3-1l1.6-2.9h1.2l-0.7,3.2h3.5l-0.3,1.6h-3.5l-1.6,7.7
				c-0.2,0.7-0.2,1.3-0.2,1.7c0,0.5,0.1,0.8,0.4,1.1S2322.7,572.7,2323.1,572.7z"/>
			<path d="M2334.7,560.1c1.6,0,2.9,0.5,3.8,1.4c0.9,1,1.4,2.3,1.4,3.9c0,1.6-0.3,3.1-0.9,4.5c-0.6,1.4-1.4,2.5-2.5,3.3
				c-1.1,0.8-2.2,1.2-3.5,1.2c-1.6,0-2.9-0.5-3.8-1.4c-0.9-0.9-1.4-2.3-1.4-3.9c0-1.6,0.3-3.1,0.9-4.5c0.6-1.4,1.5-2.5,2.5-3.3
				C2332.3,560.5,2333.4,560.1,2334.7,560.1z M2337.7,565.2c0-1-0.3-1.8-0.8-2.4c-0.5-0.6-1.2-0.9-2.2-0.9c-0.9,0-1.8,0.3-2.5,0.9
				c-0.7,0.6-1.3,1.5-1.7,2.6c-0.4,1.1-0.6,2.4-0.6,3.7c0,1.1,0.3,2,0.8,2.6s1.3,0.9,2.3,0.9c0.9,0,1.7-0.3,2.4-0.9
				c0.7-0.6,1.3-1.5,1.6-2.6C2337.5,568,2337.7,566.7,2337.7,565.2z"/>
			<path d="M2350.7,560.1c0.6,0,1.1,0.1,1.5,0.2l-0.5,1.9c-0.4-0.1-0.9-0.2-1.3-0.2c-0.8,0-1.5,0.3-2.2,0.8s-1.3,1.2-1.8,2.1
				c-0.5,0.9-0.9,1.9-1.1,3l-1.4,6.4h-2.1l3-13.9h1.8l-0.3,2.6h0.1c0.6-0.8,1.1-1.4,1.5-1.7c0.4-0.4,0.8-0.6,1.3-0.8
				C2349.7,560.2,2350.2,560.1,2350.7,560.1z"/>
			<path d="M2360.8,570.3c0,1.3-0.5,2.4-1.4,3.1c-0.9,0.7-2.3,1.1-4,1.1c-1.4,0-2.7-0.3-3.9-0.9v-2c0.6,0.4,1.2,0.6,1.9,0.8
				c0.7,0.2,1.3,0.3,1.9,0.3c1.1,0,1.9-0.2,2.4-0.6s0.8-1,0.8-1.6c0-0.5-0.1-0.9-0.4-1.2s-0.9-0.8-1.9-1.4c-1.1-0.6-1.9-1.2-2.3-1.8
				c-0.4-0.6-0.7-1.3-0.7-2.1c0-1.2,0.4-2.1,1.3-2.8c0.9-0.7,2-1.1,3.4-1.1c1.4,0,2.8,0.3,4.2,0.9l-0.7,1.7l-0.7-0.3
				c-0.9-0.4-1.8-0.5-2.8-0.5c-0.8,0-1.4,0.2-1.9,0.6c-0.4,0.4-0.7,0.8-0.7,1.4c0,0.5,0.2,0.9,0.5,1.2s0.9,0.8,1.9,1.3
				c0.9,0.5,1.6,0.9,1.9,1.3c0.4,0.4,0.7,0.8,0.9,1.2C2360.7,569.3,2360.8,569.8,2360.8,570.3z"/>
		</g>
	</g>
	<g class="st1">
		<g>
			<path d="M1020.1,210.4c-4.8-0.7-9.7-1.2-14.7-1.2c-55.3,0-100.2,44.8-100.2,100.2c0,55.3,44.8,100.2,100.2,100.2
				c28.3,0,53.9-11.8,72.1-30.7c17.3-18,28.1-42.5,28.1-69.5C1105.5,259,1068.4,217.5,1020.1,210.4z M1012.1,354.9v15.2h-14.6V356
				c-10-0.4-19.7-3.1-25.3-6.4l4.5-17.4c6.3,3.4,15.1,6.5,24.7,6.5c8.5,0,14.3-3.3,14.3-9.2c0-5.7-4.8-9.2-15.8-13
				c-16-5.4-26.9-12.8-26.9-27.3c0-13.1,9.3-23.4,25.2-26.5v-14.2h14.6v13.1c10,0.4,16.7,2.5,21.6,4.9l-4.3,16.9
				c-3.9-1.6-10.7-5.1-21.5-5.1c-9.7,0-12.8,4.2-12.8,8.4c0,4.9,5.2,8,17.9,12.8c17.7,6.3,24.9,14.5,24.9,27.9
				C1038.6,340.6,1029.2,352,1012.1,354.9z"/>
			<path d="M1211.7,483.1c10.5,0,20.5-4.1,27.8-11.5c7.4-7.4,11.5-17.4,11.5-27.8l0.1-268.8c0-21.7-17.6-39.3-39.3-39.3H797.5
				c-21.7,0-39.3,17.6-39.3,39.3l0.1,268.8c0,10.5,4.1,20.5,11.5,27.8c7.4,7.4,17.4,11.5,27.8,11.5H1211.7z M1201.9,373.5
				c-28.4,11.1-51.2,32.9-64,60.4H871.4c-12.8-27.5-35.6-49.3-64-60.4V245.6c28.4-11.2,51.2-33.2,63.9-60.8H1138
				c12.7,27.6,35.5,49.5,63.9,60.8V373.5z"/>
			<path d="M1291.9,295.3l-25.3-9.2l-0.1,157.7c0,14.6-5.7,28.4-16,38.8c-10.3,10.3-24.1,16-38.6,16h-4.1l-6.2,17
				c-30.5,0.8-59.4,13.5-80.7,35.1l-143.8-52.1H832.5l341,123.4c9.8,3.6,20.6,3.1,30.1-1.3c9.4-4.4,16.7-12.4,20.3-22.3l91.5-252.8
				C1322.8,325.2,1312.2,302.7,1291.9,295.3z"/>
		</g>
	</g>
	<g>
		<g>
			<path class="st0" d="M990.1,180.4c-4.8-0.7-9.7-1.2-14.7-1.2c-55.3,0-100.2,44.8-100.2,100.2c0,55.3,44.8,100.2,100.2,100.2
				c28.3,0,53.9-11.8,72.1-30.7c17.3-18,28.1-42.5,28.1-69.5C1075.5,229,1038.4,187.5,990.1,180.4z M982.1,324.9v15.2h-14.6V326
				c-10-0.4-19.7-3.1-25.3-6.4l4.5-17.4c6.3,3.4,15.1,6.5,24.7,6.5c8.5,0,14.3-3.3,14.3-9.2c0-5.7-4.8-9.2-15.8-13
				c-16-5.4-26.9-12.8-26.9-27.3c0-13.1,9.3-23.4,25.2-26.5v-14.2h14.6v13.1c10,0.4,16.7,2.5,21.6,4.9l-4.3,16.9
				c-3.9-1.6-10.7-5.1-21.5-5.1c-9.7,0-12.8,4.2-12.8,8.4c0,4.9,5.2,8,17.9,12.8c17.7,6.3,24.9,14.5,24.9,27.9
				C1008.6,310.6,999.2,322,982.1,324.9z"/>
			<path class="st0" d="M1181.7,453.1c10.5,0,20.5-4.1,27.8-11.5c7.4-7.4,11.5-17.4,11.5-27.8l0.1-268.8c0-21.7-17.6-39.3-39.3-39.3
				H767.5c-21.7,0-39.3,17.6-39.3,39.3l0.1,268.8c0,10.5,4.1,20.5,11.5,27.8c7.4,7.4,17.4,11.5,27.8,11.5H1181.7z M1171.9,343.5
				c-28.4,11.1-51.2,32.9-64,60.4H841.4c-12.8-27.5-35.6-49.3-64-60.4V215.6c28.4-11.2,51.2-33.2,63.9-60.8H1108
				c12.7,27.6,35.5,49.5,63.9,60.8V343.5z"/>
			<path class="st0" d="M1261.9,265.3l-25.3-9.2l-0.1,157.7c0,14.6-5.7,28.4-16,38.8c-10.3,10.3-24.1,16-38.6,16h-4.1l-6.2,17
				c-30.5,0.8-59.4,13.5-80.7,35.1l-143.8-52.1H802.5l341,123.4c9.8,3.6,20.6,3.1,30.1-1.3c9.4-4.4,16.7-12.4,20.3-22.3l91.5-252.8
				C1292.8,295.2,1282.2,272.7,1261.9,265.3z"/>
		</g>
	</g>
	<g class="st1">
		<path d="M1944.6,187.1c8.9,26.9,33.6,26.9,42.4,0c2.9-1.5,5.9-6.1,6.4-9.8c0.5-3.9,0.2-9.2-3.8-9.2c-0.9-12.6-7.8-23.3-23.5-23.3
			c-15.4,0-23.2,9.2-24.2,23.3c-3.9,0-4.3,5.2-3.8,9.2C1938.6,181,1941.6,185.5,1944.6,187.1z"/>
		<path d="M1996.6,208.9l-10-2.1l-20.9,41.6l-20.9-41.6l-10,2.1c-13.7,2.9-23.5,14.5-23.5,27.9v28.5h108.8v-28.5
			C2020.2,223.4,2010.4,211.8,1996.6,208.9z"/>
		<path d="M2120.5,177.2c0.5,3.7,3.5,8.3,6.4,9.8c8.9,26.9,33.6,26.9,42.4,0c2.9-1.5,5.9-6.1,6.4-9.8c0.5-3.9,0.2-9.2-3.8-9.2
			c-0.9-12.6-7.8-23.3-23.5-23.3c-15.4,0-23.2,9.2-24.2,23.3C2120.3,168.1,2120,173.3,2120.5,177.2z"/>
		<path d="M2179,208.9l-10-2.1l-20.9,41.6l-20.9-41.6l-10,2.1c-13.7,2.9-23.5,14.5-23.5,27.9v28.5h108.8v-28.5
			C2202.5,223.4,2192.8,211.8,2179,208.9z"/>
		<path d="M2034.1,124.9c9.6,29.2,36.5,29.2,46.1,0c3.1-1.7,6.4-6.6,7-10.7c0.5-4.3,0.2-10-4.1-10c-0.9-13.7-8.5-25.3-25.5-25.3
			c-16.7,0-25.2,10-26.3,25.3c-4.3,0-4.6,5.7-4.1,10C2027.6,118.3,2030.9,123.2,2034.1,124.9z"/>
		<path d="M2116.2,179c0-14.6-10.6-27.2-25.6-30.4l-10.9-2.3l-22.7,45.2l-22.7-45.2l-10.9,2.3c-14.9,3.1-25.5,15.7-25.5,30.4v31
			h118.2L2116.2,179L2116.2,179z"/>
	</g>
	<g>
		<path class="st2" d="M1924.6,167.1c8.9,26.9,33.6,26.9,42.4,0c2.9-1.5,5.9-6.1,6.4-9.8c0.5-3.9,0.2-9.2-3.8-9.2
			c-0.9-12.6-7.8-23.3-23.5-23.3c-15.4,0-23.2,9.2-24.2,23.3c-3.9,0-4.3,5.2-3.8,9.2C1918.6,161,1921.6,165.5,1924.6,167.1z"/>
		<path class="st2" d="M1976.6,188.9l-10-2.1l-20.9,41.6l-20.9-41.6l-10,2.1c-13.7,2.9-23.5,14.5-23.5,27.9v28.5h108.8v-28.5
			C2000.2,203.4,1990.4,191.8,1976.6,188.9z"/>
		<path class="st2" d="M2100.5,157.2c0.5,3.7,3.5,8.3,6.4,9.8c8.9,26.9,33.6,26.9,42.4,0c2.9-1.5,5.9-6.1,6.4-9.8
			c0.5-3.9,0.2-9.2-3.8-9.2c-0.9-12.6-7.8-23.3-23.5-23.3c-15.4,0-23.2,9.2-24.2,23.3C2100.3,148.1,2100,153.3,2100.5,157.2z"/>
		<path class="st2" d="M2159,188.9l-10-2.1l-20.9,41.6l-20.9-41.6l-10,2.1c-13.7,2.9-23.5,14.5-23.5,27.9v28.5h108.8v-28.5
			C2182.5,203.4,2172.8,191.8,2159,188.9z"/>
		<path class="st2" d="M2014.1,104.9c9.6,29.2,36.5,29.2,46.1,0c3.1-1.7,6.4-6.6,7-10.7c0.5-4.3,0.2-10-4.1-10
			c-0.9-13.7-8.5-25.3-25.5-25.3c-16.7,0-25.2,10-26.3,25.3c-4.3,0-4.6,5.7-4.1,10C2007.6,98.3,2010.9,103.2,2014.1,104.9z"/>
		<path class="st2" d="M2096.2,159c0-14.6-10.6-27.2-25.6-30.4l-10.9-2.3l-22.7,45.2l-22.7-45.2l-10.9,2.3
			c-14.9,3.1-25.5,15.7-25.5,30.4v31h118.2L2096.2,159L2096.2,159z"/>
	</g>
	<g>
		<g>
			<path class="st3" d="M2062.2,772.3c-1.4,2.3-3.4,3.9-6.2,3.9c-6.2,0.1-7.1-7.4-7.1-12.1c0-4.7,0.9-12.2,7.1-12.2
				c2.7,0,4.6,1.5,5.8,3.9l-2,1.2c-0.8-1.5-2-2.8-3.8-2.8c-4.3,0-4.6,6.8-4.6,10c0,3.1,0.3,9.9,4.6,9.9c1.8,0,3.3-1.5,4.2-3
				L2062.2,772.3z"/>
			<path class="st3" d="M2073.6,768.6l-1.8,7.8l-2.4-0.7l6-23.6h2.8l6.1,23.6l-2.4,0.7l-1.8-7.8H2073.6z M2076.9,755.4L2076.9,755.4
				l-2.7,11.1h5.3L2076.9,755.4z"/>
			<path class="st3" d="M2092,752.1h3l7.1,20l0.1-0.1l-0.1-5.3V752h2.4v23.7h-3l-7-20l-0.1,0.1l0.1,5.4v14.5h-2.4L2092,752.1
				L2092,752.1z"/>
			<path class="st3" d="M2124.7,751.7l2.2,0.9l-6.2,13.9v9.4h-2.4v-9.3l-6.1-14l2.2-0.9l5.1,12L2124.7,751.7z"/>
			<path class="st3" d="M2147.6,764c0,3,0.1,12.2-6.6,12.2c-6.8,0-6.6-9.1-6.6-12.2c0-3.9,0.2-12.2,6.6-12.2
				C2147.6,751.8,2147.6,760.9,2147.6,764z M2136.9,764c0,6.4,0.8,10,4.1,10c4.2,0,4.1-5.8,4.1-10c0-4.5,0.1-9.9-4.1-9.9
				S2136.9,760.5,2136.9,764z"/>
			<path class="st3" d="M2156.1,752.1h3l7.1,20l0.1-0.1l-0.1-5.3V752h2.4v23.7h-3l-7.1-20l-0.1,0.1l0.1,5.4v14.5h-2.4V752.1
				L2156.1,752.1z"/>
			<path class="st3" d="M2083.5,800.8c-1.4,2.3-3.4,3.9-6.2,3.9c-6.2,0-7.1-7.5-7.1-12.2s0.9-12.2,7.1-12.2c2.7,0,4.6,1.5,5.8,3.9
				l-2,1.2c-0.8-1.5-2-2.8-3.8-2.8c-4.3,0-4.6,6.8-4.6,10c0,3.1,0.3,9.9,4.6,9.9c1.8,0,3.3-1.5,4.2-3L2083.5,800.8z"/>
			<path class="st3" d="M2093.3,780.6h6.4c2.4,0,5.3,2,5.3,6.3c0,2.9-1.2,5.7-4.1,6.7l4.9,10.2l-2.1,1l-5.3-11h-2.7v10.6h-2.4
				L2093.3,780.6L2093.3,780.6z M2095.7,791.7h3.5c2.1,0,3.3-1.5,3.3-4.7c0-3.1-1.5-4.2-3.9-4.2h-2.9V791.7z"/>
			<path class="st3" d="M2114.5,780.6h11.6v2.1h-9.2v7.8h7.6v2.1h-7.6v9.5h9.2v2.1h-11.6V780.6z"/>
			<path class="st3" d="M2135.9,780.6h11.6v2.1h-9.2v7.8h7.6v2.1h-7.6v9.5h9.2v2.1h-11.6V780.6z"/>
			<path class="st3" d="M2159.8,790.4h0.7l6.6-10.3l1.9,1.2l-6.5,10l7.8,12.2l-2,1.2l-7.7-12.3h-0.8v11.8h-2.4v-23.7h2.4V790.4
				L2159.8,790.4z"/>
		</g>
		<g>
			<path class="st3" d="M2225.8,773.6l-0.5,0.1l-1-3.6c-1.1-0.3-2.2-0.4-3.1-0.4c-2.3,0-4,0.8-5.3,2.4c-1.3,1.6-2,3.6-2,6.1
				c0,2.7,0.7,4.9,2.2,6.5s3.5,2.4,6.1,2.4c1.5,0,3-0.3,4.6-0.8l0.2,0.6c-1.8,1.2-3.9,1.9-6.2,1.9c-3,0-5.4-0.9-7.2-2.7
				c-1.8-1.8-2.7-4.2-2.7-7.2c0-3.1,1-5.6,3-7.5c2-1.8,4.7-2.8,7.9-2.8c1.5,0,3.1,0.2,4.8,0.6l0.1,0.1L2225.8,773.6z"/>
			<path class="st3" d="M2242,768.5l6.1,16.9c0.2,0.7,0.4,1.1,0.7,1.3c0.2,0.2,0.5,0.4,0.8,0.5l1.3,0.4v0.6c-1.2,0-2.3-0.1-3.4-0.1
				s-2.3,0-3.7,0.1l-0.1-0.6l1.3-0.4c0.2-0.1,0.3-0.1,0.4-0.2c0.1-0.1,0.1-0.2,0.1-0.4s-0.1-0.4-0.1-0.7c-0.1-0.3-0.2-0.7-0.4-1.2
				l-1.3-3.7h-6.6l-1.4,3.7c-0.2,0.5-0.4,0.9-0.5,1.2c-0.1,0.3-0.2,0.5-0.2,0.7s0.1,0.3,0.1,0.4c0.1,0.1,0.2,0.1,0.4,0.2l1.3,0.4
				v0.6c-1.3,0-2.4-0.1-3.2-0.1c-0.8,0-1.8,0-2.8,0.1l-0.1-0.6l1.4-0.4c0.4-0.1,0.6-0.3,0.8-0.5c0.2-0.2,0.4-0.6,0.5-1.1l7.1-16.9
				L2242,768.5z M2237.6,779.7h5.7l-2.7-7.6L2237.6,779.7z"/>
			<path class="st3" d="M2260.5,783.9c0,0.5,0,1.1,0,1.5s0,0.8,0,1.2c0,0.2,0.1,0.4,0.4,0.4l1.9,0.6v0.6c-1.4,0-2.6-0.1-3.7-0.1
				s-2.3,0-3.4,0.1l-0.1-0.6l1.7-0.5c0.2-0.1,0.4-0.2,0.4-0.4c0-0.4,0-0.8,0-1.2s0-0.9,0-1.5v-11.2c0-0.5,0-0.9,0-1.2s0-0.7,0-1
				c0-0.2-0.1-0.4-0.4-0.5l-1.7-0.5V769c1.2,0.1,2.4,0.1,3.5,0.1c0.8,0,1.5,0,2.2-0.1s1.4-0.1,2-0.1c2.2,0,3.9,0.4,5,1.3
				c1.1,0.8,1.7,2.1,1.7,3.8c0,2-0.7,3.5-2,4.6s-3.1,1.7-5.5,1.7c-0.7,0-1.3-0.1-2.1-0.1v3.9h0.1V783.9z M2260.5,778.8
				c0.7,0.1,1.3,0.2,1.9,0.2c1.5,0,2.6-0.4,3.4-1.1s1.1-1.9,1.1-3.5c0-1.5-0.4-2.6-1.1-3.4c-0.7-0.7-1.9-1.1-3.4-1.1
				c-0.6,0-1.2,0.1-1.8,0.1v8.8H2260.5z"/>
			<path class="st3" d="M2280.1,783.9c0,0.5,0,1.1,0,1.5c0,0.5,0,0.9,0,1.2c0,0.2,0.2,0.4,0.5,0.5l1.5,0.5v0.6
				c-1.2,0-2.3-0.1-3.4-0.1s-2.3,0-3.4,0.1l-0.1-0.6l1.7-0.5c0.2-0.1,0.4-0.2,0.4-0.4c0-0.4,0-0.8,0-1.2s0-0.9,0-1.5v-11.2
				c0-0.5,0-0.9,0-1.2s0-0.7,0-1c0-0.2-0.1-0.4-0.4-0.5l-1.7-0.5V769c1.2,0.1,2.3,0.1,3.4,0.1c1.1,0,2.3,0,3.4-0.1l0.1,0.6l-1.7,0.5
				c-0.2,0.1-0.4,0.2-0.4,0.4c0,0.3,0,0.7,0,1.1c0,0.4,0,0.8,0,1.2L2280.1,783.9L2280.1,783.9z"/>
			<path class="st3" d="M2296,788.2c-1.1,0-2.4,0-3.7,0.1l-0.1-0.6l2-0.6c0.2-0.1,0.4-0.2,0.4-0.4c0-0.7,0-1.6,0-2.7v-13.9h-4.9
				l-1.2,3.7l-0.5,0.1l-0.4-4.9l0.1-0.1c2.3,0.1,4.5,0.1,6.5,0.1h3.7c2.1,0,4.3,0,6.5-0.1l0.1,0.1l-0.9,4.9l-0.5,0.1l-0.9-3.8h-4.9
				V784c0,1.1,0,2,0,2.7c0,0.2,0.1,0.4,0.4,0.4l2.1,0.6v0.6C2298.3,788.2,2297.1,788.2,2296,788.2z"/>
			<path class="st3" d="M2317.2,768.5l6.1,16.9c0.2,0.7,0.4,1.1,0.7,1.3c0.2,0.2,0.5,0.4,0.8,0.5l1.3,0.4v0.6
				c-1.2,0-2.3-0.1-3.4-0.1s-2.3,0-3.7,0.1l-0.1-0.6l1.3-0.4c0.2-0.1,0.3-0.1,0.4-0.2c0.1-0.1,0.1-0.2,0.1-0.4s-0.1-0.4-0.1-0.7
				c-0.1-0.3-0.2-0.7-0.4-1.2l-1.3-3.7h-6.6l-1.4,3.7c-0.2,0.5-0.4,0.9-0.5,1.2c-0.1,0.3-0.2,0.5-0.2,0.7s0.1,0.3,0.1,0.4
				c0.1,0.1,0.2,0.1,0.4,0.2l1.3,0.4v0.6c-1.3,0-2.4-0.1-3.2-0.1c-0.8,0-1.8,0-2.8,0.1l-0.1-0.6l1.4-0.4c0.4-0.1,0.6-0.3,0.8-0.5
				c0.2-0.2,0.4-0.6,0.5-1.1l7.1-16.9L2317.2,768.5z M2312.8,779.7h5.7l-2.7-7.6L2312.8,779.7z"/>
			<path class="st3" d="M2335.7,772.6v11.2c0,1,0,2,0,3h6.8l1.8-3.7l0.6-0.1l-0.3,4.9l-0.1,0.1c-2.4,0-4.6-0.1-6.6-0.1h-3.5
				c-1.1,0-2.3,0-3.4,0.1l-0.1-0.6l1.7-0.5c0.2-0.1,0.4-0.2,0.4-0.4c0-0.4,0-0.8,0-1.2s0-0.9,0-1.5v-11.1c0-0.5,0-0.9,0-1.2
				s0-0.7,0-1c0-0.2-0.1-0.4-0.4-0.5l-1.7-0.5v-0.6c1.2,0.1,2.3,0.1,3.4,0.1s2.3,0,3.4-0.1l0.1,0.6l-1.7,0.5
				c-0.2,0.1-0.4,0.2-0.4,0.4c0,0.3,0,0.8,0,1.4C2335.7,772.4,2335.7,772.7,2335.7,772.6z"/>
		</g>
		<path class="st3" d="M2194.9,730c-3.4,0.3-13.9,12.7-13.9,21.4s13.6,17.3,13.6,37.6s-11.7,25.7-11.7,35.3
			c0-1.5,16.2-19.3,16.2-36.7c0-23.7-15.8-29.1-15.8-40.2C2183.4,738.8,2194.9,730,2194.9,730z"/>
	</g>
	<g>
		<path class="st4" d="M1818.8,763.4c0,0.4,0.1,0.9,0.1,1.3c0,11.9,0,23.9,0,35.9c0,0.4-0.1,0.9-0.1,1.3c-29,0-58,0-87,0
			c0-12.8,0-25.6,0-38.6C1760.8,763.4,1789.8,763.4,1818.8,763.4z M1817.1,765.4c-27.9,0-55.6,0-83.3,0c0,11.6,0,23.1,0,34.7
			c27.9,0,55.6,0,83.3,0C1817.1,788.5,1817.1,777,1817.1,765.4z"/>
		<path class="st4" d="M1998.4,787c-2,3.7-7.6,5.1-11.2,2.9c-0.9-0.5-1.3-1.3-1.3-2.3c0-0.9,0.1-1.7,0.1-2.6c0.6,0,1.2,0,1.7,0
			c1.1,2.7,2.1,3.3,4.7,3.1c1-0.1,1.8-0.4,2-1.5s-0.5-1.6-1.5-2c-1.2-0.4-2.5-0.9-3.7-1.4c-2.4-1-3.4-2.6-3.2-4.8
			c0.2-2.3,1.7-3.9,4.2-4.3c1.6-0.2,3.3-0.2,4.9,0c2,0.2,2.5,0.9,2.5,2.9c0,0.7-0.1,1.3-0.2,2.1c-0.6,0-1.2,0-1.7,0
			c-1.1-2.5-1.7-2.9-4-2.7c-0.9,0.1-1.7,0.4-1.9,1.4s0.4,1.6,1.3,1.9c1,0.4,2,0.8,3,1.1c1.8,0.6,3.2,1.6,4.1,3.4
			C1998.4,785.2,1998.4,786.1,1998.4,787z"/>
		<path class="st4" d="M1897.4,774.2c2.2,0,4.1,0,6.3,0c2.2,3.2,4.5,6.6,6.9,10c0-2.7,0-5.1,0-7.6c-0.8-0.2-1.4-0.4-2-0.6
			c0-0.5,0-1.1,0-1.7c2.2,0,4.4,0,6.7,0c0,0.5,0.1,1.1,0.1,1.7c-0.6,0.2-1.2,0.4-2.2,0.7c0,4.5,0,9,0,13.4c-2,1.1-2.9,1-3.9-0.6
			c-2-3-4-5.9-6-8.9c-0.3-0.5-0.6-0.9-1.2-1.7c0,3.3,0,6.3,0,9.3c0.7,0.2,1.3,0.3,2,0.5c0,0.5,0,1.1,0,1.7c-2.2,0-4.4,0-6.7,0
			c0-0.6-0.1-1.1-0.1-1.7c0.6-0.1,1.2-0.3,2-0.5c0.2-3.8,0.3-7.6,0.1-11.6c-0.8-0.2-1.4-0.4-2.1-0.6
			C1897.4,775.4,1897.4,774.9,1897.4,774.2z"/>
		<path class="st4" d="M1966.1,776.5c-0.6-0.2-1.2-0.3-1.8-0.5c0-0.5,0-1.1,0-1.8c3.6,0,7.1-0.3,10.6,0.4c1.8,0.4,2.9,1.6,3.2,3.4
			c0.3,1.9-0.1,3.6-1.7,4.9c-0.4,0.3-0.9,0.5-1.4,0.9c1.3,1.9,2.5,3.9,4.9,4.8c0,0.6,0,1.1,0,1.7c-2.4,0.4-4.5,0-6-2
			c-0.8-1-1.5-2.2-2.2-3.2c-0.4-0.6-0.7-1.2-1.5-0.9c0,1.3,0,2.7,0,4c0.6,0.2,1.2,0.3,1.8,0.4c0,0.5,0.1,1.1,0.1,1.7
			c-2.6,0-5.2,0-7.8,0c0-0.5-0.1-1.1-0.1-1.6c0.6-0.2,1.2-0.3,1.9-0.5C1966.1,784.3,1966.1,780.4,1966.1,776.5z M1970.2,777
			c0,1.5,0,3,0,4.5c1.5,0,2.9,0.2,3.8-1.1c0.5-0.8,0.6-1.8,0-2.6C1973,776.6,1971.5,776.9,1970.2,777z"/>
		<path class="st4" d="M1921.1,790.4c0-0.7,0-1.2,0-1.8c0.6-0.1,1.1-0.3,1.6-0.4c0.5-1.3,0.6-9.5,0.2-11.8c-0.5-0.1-1.1-0.3-1.8-0.5
			c0-0.5,0-1,0-1.8c2.1,0,4.1-0.1,6.1,0c1.8,0.1,3.7,0.2,5.4,0.6c1.1,0.2,2.2,0.8,2.9,1.6c2.4,2.6,2.3,5.7,1.5,8.8
			c-0.7,2.8-2.7,4.3-5.5,4.9c-0.8,0.2-1.7,0.3-2.5,0.3C1926.4,790.4,1923.8,790.4,1921.1,790.4z M1927,776.9c0,3.7,0,7.1,0,10.6
			c2,0.5,3.9,0.5,5.3-1s1.6-5.4,0.5-7.5C1931.6,776.6,1929.3,777.1,1927,776.9z"/>
		<path class="st4" d="M1850.5,782.4c0-6.9,6.5-10.9,12.7-7.7c0.5,0.2,1,0.5,1.4,1c2.6,2.7,2.7,6,1.9,9.4c-0.7,3-2.7,5-5.8,5.5
			C1854.4,791.7,1850.4,788.4,1850.5,782.4z M1862.9,782.3c-0.1-0.9-0.2-1.7-0.3-2.5c-0.5-2.2-1.7-3.2-3.7-3.3s-3.6,1.1-4.2,3.1
			c-0.5,1.9-0.5,3.8,0.1,5.7s1.8,2.8,3.8,2.8c1.9,0,3.2-1,3.8-2.8C1862.7,784.2,1862.8,783.2,1862.9,782.3z"/>
		<path class="st4" d="M1949.8,776.8c0,1.4,0,2.6,0,4c0.8,0,1.5,0,2.3,0c0.3-0.5,0.6-1,0.9-1.5c0.5,0,1,0,1.6,0c0,1.9,0,3.7,0,5.7
			c-0.5,0-1,0-1.5,0.1c-0.2-0.5-0.5-1-0.8-1.5c-0.8-0.1-1.5-0.1-2.4-0.2c0,1.6,0,3,0,4.8c1.9-0.1,3.7-0.2,5.4-0.2
			c0.4-0.9,0.7-1.4,1.1-2.1c0.5,0,1.1,0,1.9,0c-0.1,1.4-0.3,2.7-0.4,4.2c-0.7,0.2-1.3,0.5-1.8,0.5c-3.9,0-7.9,0-11.9,0
			c0-0.6-0.1-1.1-0.1-1.7c0.6-0.2,1.2-0.3,2-0.5c0-3.8,0-7.6,0-11.6c-0.6-0.2-1.2-0.4-1.9-0.6c0-0.5,0-1,0-1.8
			c4.3,0,8.6-0.1,13.1,0.1c0,1.6,0,2.9,0,4.4c-0.8,0-1.3,0-2,0c-0.2-0.5-0.5-1.1-0.8-1.8C1952.8,776.8,1951.4,776.8,1949.8,776.8z"
			/>
		<path class="st4" d="M1873.2,775.9c0-0.6,0-1.1,0-1.7c2.7,0,5.4,0,8.1,0c0,0.6,0,1.2,0,1.7c-0.6,0.1-1.2,0.3-1.9,0.4
			c-0.1,0.4-0.3,0.9-0.3,1.3c0,2.2-0.1,4.3,0,6.5c0.2,3.3,1.7,4.4,4.9,3.8c1.6-0.3,2.5-1.1,2.7-2.7c0.1-1.2,0.1-2.4,0.1-3.6
			c0-1.7,0-3.4,0-5.1c-0.9-0.3-1.5-0.5-2.2-0.8c0-0.5,0-1.1,0-1.7c2.3,0,4.4,0,6.7,0c0,0.5,0.1,1.1,0.2,1.7c-0.6,0.2-1.2,0.4-2,0.6
			c-0.1,0.6-0.2,1.3-0.2,2c-0.1,2.2,0,4.4-0.1,6.7c-0.1,3-1.6,4.8-4.5,5.3c-1.8,0.3-3.9,0.1-5.7-0.2c-2-0.4-3.3-1.8-3.4-4
			c-0.2-2.6-0.2-5.1-0.2-7.6c0-0.7-0.1-1.5-0.1-2.2C1874.4,776.3,1873.8,776.1,1873.2,775.9z"/>
		<path class="st4" d="M1844.3,774.4c-0.1,1.6-0.1,2.9-0.2,4.3c-0.8,0-1.4,0-2,0c-0.2-0.5-0.4-1-0.8-1.6c-1.4,0-2.9,0-4.4,0
			c0,1.4,0,2.8,0,4.5c1-0.1,1.9-0.1,2.7-0.2c0.3-0.6,0.5-1.1,0.8-1.6c0.4,0,0.9,0,1.5-0.1c0,2,0,3.9,0,6c-0.4,0-0.9,0-1.4,0.1
			c-0.2-0.5-0.4-1-0.8-1.7c-0.9-0.1-1.8-0.1-2.9-0.2c0,1.5,0,2.8,0,4.3c0.8,0.2,1.5,0.4,2.3,0.6c0,0.5,0,1.1,0,1.7
			c-2.7,0-5.4,0-8.2,0c0-0.6,0-1.2,0-1.8c0.6-0.1,1.1-0.2,1.9-0.4c0.2-3.9,0.1-7.7,0-11.6c-0.8-0.2-1.4-0.4-2-0.6
			c0-0.5,0-1.1,0.1-1.8C1835.4,774.2,1839.7,773.9,1844.3,774.4z"/>
		<path class="st4" d="M1799.4,790.4c0-0.7,0-1.2,0-1.7c0.6-0.1,1.1-0.3,1.8-0.4c0-1.5,0-3.1,0-4.8c-1.8,0-3.6,0-5.6,0
			c0,1.5,0,3.1,0,4.7c0.7,0.2,1.2,0.3,1.9,0.4c0,0.5,0.1,1.1,0.1,1.7c-2.7,0-5.3,0-8,0c0-0.6,0-1.1,0-1.7c0.5-0.2,1.1-0.3,1.9-0.5
			c0-3.9,0-7.7,0-11.7c-0.7-0.2-1.3-0.4-1.8-0.5c0-0.6,0-1.1,0-1.7c2.6,0,5.2,0,7.8,0c0,0.6,0,1.2,0,1.7c-0.6,0.2-1.2,0.3-1.9,0.6
			c0,1.3,0,2.6,0,4c1.9,0,3.8,0,5.7,0c0-1.3,0-2.6,0-4c-0.6-0.2-1.2-0.4-1.9-0.6c0-0.5,0-1.1,0-1.7c2.6,0,5.1,0,7.8,0
			c0,0.6,0,1.1,0.1,1.7c-0.6,0.2-1.2,0.4-1.9,0.6c0,3.9,0,7.7,0,11.6c0.6,0.2,1.2,0.3,1.9,0.5c0,0.6,0,1.1,0,1.7
			C1804.6,790.4,1802,790.4,1799.4,790.4z"/>
		<path class="st4" d="M1766.9,783.5c0-8,6.7-11.9,12.7-8.7c0.7,0.4,1.4,1,1.9,1.6c2.3,2.8,2.2,8.6-0.1,11.5
			c-2.1,2.8-6.6,3.8-10.2,2.2C1767.9,788.6,1766.9,785.7,1766.9,783.5z M1779.3,782.3c-0.1-0.9-0.2-1.7-0.4-2.6
			c-0.5-2.1-1.6-3.1-3.6-3.2c-2-0.1-3.5,1-4.1,2.9s-0.5,3.9,0,5.9c0.6,2,1.9,2.9,3.9,2.8c1.8-0.1,3.1-1.1,3.7-3
			C1779.1,784.1,1779.2,783.2,1779.3,782.3z"/>
		<path class="st4" d="M1750.6,788.1c0.7,0.2,1.2,0.3,1.9,0.5c0,0.5,0.1,1,0.1,1.7c-2.7,0-5.2,0-7.9,0c0-0.5,0-1.1,0-1.7
			c0.6-0.1,1.1-0.3,1.8-0.4c0-3.9,0-7.7,0-11.7c-0.6-0.2-1.2-0.3-1.8-0.5c0-0.5,0-1.1,0-1.7c2.6,0,5.1,0,7.8,0
			c0,0.5,0.1,1.1,0.1,1.7c-0.7,0.2-1.3,0.4-2,0.6C1750.6,780.4,1750.6,784.2,1750.6,788.1z"/>
		<path class="st4" d="M1754.5,781.7c2.2,2.6,3.5,5.7,6.9,7c0,0.1,0.1,0.3,0.1,0.6s0,0.6,0,0.8c-2.8,0.9-4.9,0.3-6.7-1.8
			c-0.8-0.9-1.4-1.9-2.1-2.9c-0.6-1-1.3-2-1.9-3.1c1.6-1.9,3.2-3.7,4.9-5.6c-0.5-0.3-0.7-0.5-1-0.6c-0.2-0.1-0.4-0.1-0.6-0.2
			c0-0.6,0-1.2,0-1.8c2.3,0,4.6,0,7,0c0,0.6,0.1,1.1,0.1,1.7C1758.2,776.9,1756.8,779.7,1754.5,781.7z"/>
	</g>
	<g>
		<path class="st3" d="M2238.7,679.7c-0.5,0.6-0.9,1.2-1.3,1.8c-1.2,1.8-2.4,3.6-3.6,5.4c-2,2.9-4,5.7-6,8.5
			c-0.8,1.1-1.5,2.2-2.3,3.4c-0.9,1.4-2.5,1.2-3.2,0.3c-0.5-0.6-0.6-0.9-0.2-1.7c0.7-1.2,1.5-2.4,2.3-3.6c1.4-2.1,2.7-4.2,4.1-6.3
			c2.4-3.6,4.8-7.2,7.2-10.9c0.3-0.5,0.7-1,1.1-1.3c0.9-0.6,1.9-0.6,2.9-0.5c0.8,0.1,1.4,0.5,1.9,1.2c0.2,0.4,0.5,0.7,0.6,1
			c0.4,0.7,0.9,1.1,1.7,1.1c0.3,0,0.6,0.1,1,0.2c0.7,0.2,0.8,0.2,1.1-0.6c0.5-1,1-2.1,1.6-3s1.3-1.5,2.3-2c0.8-0.4,1.7-0.2,2.5,0.1
			c0.6,0.2,1.1,0.1,1.6-0.3c1.5-1,2.9-2,4.5-2.7c1.1-0.6,2.4-1,3.8-1.1c0.8,0,1.6-0.1,2.4,0c1.4,0.2,2.2,0.9,2.7,2.5
			c-7.6,3.6-13.7,8.9-17.8,16.2c1.8,2.7,3.5,5.2,5.3,7.7c0.4,0.6,0.8,1.1,1.1,1.7c0.5,1,0.3,2.3-0.6,2.7c-1.2,0.6-2.2,0.4-3-0.6
			c-1-1.3-1.8-2.6-2.8-3.9c-0.6-0.8-1.2-1.6-1.9-2.5c-0.3,0.5-0.5,0.8-0.7,1.2c-0.7,1.2-1.4,2.4-2.4,3.4c-1.5,1.5-3.3,2.1-5.2,2.2
			c-1.7,0.1-3.4-0.4-4.8-1.4c-1.6-1.1-2.2-2.8-2-4.7c0.2-1.6,0.8-3,2-4.1c0.9-0.8,2-1.2,3.1-1.4c1-0.2,1.1-0.3,1.3-1.4
			c0.1-1.1,0.3-2.3,0.6-3.3C2240.1,681.6,2239.8,680.7,2238.7,679.7z M2265.3,670.6c-0.4-0.2-0.6-0.4-0.7-0.4
			c-1.1-0.1-2.1-0.2-3.2,0.2c-1.7,0.5-3.2,1.3-4.8,2.2c-2.6,1.6-4.6,3.8-5.9,6.5c-0.3,0.6-0.6,1.2-0.9,1.7c-0.2,0.2-0.6,0.3-0.8,0.3
			c-0.4,0-0.5-0.4-0.4-0.8c0.1-0.4,0.1-0.9,0.3-1.3c0.4-0.8,1-1.5,1.4-2.4c0.3-0.7,0.6-1.2,1.1-1.7c0.2-0.2,0.2-0.4,0.3-0.6
			c-0.3-0.1-0.6-0.3-0.8-0.2c-0.6,0.2-1.3,0.4-1.6,1.1c-0.5,0.9-1,1.8-1.5,2.8c-0.5,1.1-1.1,2.3-1.5,3.4c-0.5,1.4-0.8,2.9-1.2,4.3
			c-0.2,0.7-0.5,1-1,1c-0.5-0.1-0.8-0.5-0.7-1.3c0-0.1,0-0.2,0-0.3c0.4-1.4,0.9-2.9,1.3-4.3c0.1-0.4,0.2-0.7-0.1-0.9
			c-0.2-0.2-0.6-0.4-0.9-0.3c-0.7,0.2-1.2,0.6-1.6,1.2c-1.1,1.9-1.3,4-1.5,6.1c0,0.5,0.2,0.7,0.6,0.9c2.1,1,2.9,4.2,1.8,6.1
			c-1.3,2.3-4.6,3.1-6.5,1.2c-0.5-0.5-0.7-1.3-0.9-2.1c-0.1-0.4,0.3-0.9,0.5-1.3c0.1-0.3,0.3-0.5,0.6-0.7c0.8-0.6,2-0.9,2.9-0.2
			c0.4,0.3,0.6,1.3,0.3,1.5c-0.3,0.3-0.7,0.2-1.1,0h-0.1c-0.6-0.2-1-0.1-1.3,0.4c-0.2,0.5-0.1,0.9,0.3,1.2c0.6,0.5,1.3,0.7,2.1,0.4
			c1.1-0.4,1.9-1.2,1.9-2.3c0.1-1.7-0.7-2.7-1.7-3.1c-1.8-0.6-3.9,0.2-5.1,1.9c-1.2,1.8-1.2,3.6-0.1,5.2c1.1,1.4,3.8,2.1,5.8,1.6
			c2.7-0.7,4.1-2.6,5.2-4.9c0.6-1.2,0.9-2.5,1.4-3.8c0.8-1.8,1.8-3.4,2.8-5.1c1-1.6,2.2-3,3.4-4.4c1.3-1.5,2.8-2.9,4.3-4.1
			c1.6-1.3,3.3-2.4,5-3.5C2263.6,671.5,2264.3,671.1,2265.3,670.6z"/>
		<path class="st3" d="M2143.3,687.2c0-3.5,0-6.9,0-10.4c0-1.4,0.6-1.9,1.9-1.9c6.4,0,12.8-0.1,19.2,0c2.7,0,5.3,0.5,7.6,2.1
			c1.3,0.9,2,2.1,2,3.7c0,1.3,0.1,2.7,0,4c-0.1,2.1-1,3.7-3,4.7c-2.1,1.1-4.3,1.5-6.6,1.6c-5,0-9.9,0-14.9,0c-0.2,0-0.4,0-0.6,0
			c-1,0-1.1,0.1-1.1,1.1c0,1.8,0,3.7,0,5.5s-0.9,2.1-2.1,2.2c-0.3,0-0.6,0-0.9,0c-1.1,0-1.8-0.6-1.8-1.8
			C2143.3,694.3,2143.3,690.8,2143.3,687.2L2143.3,687.2z M2156.9,678.7L2156.9,678.7c-2.7,0-5.3,0-8,0c-0.9,0-0.9,0.1-0.9,1
			c0,2.1,0,4.2,0,6.3c0,0.8,0.2,1.1,1,1.1c1.2,0,2.5-0.1,3.7-0.1c3.8,0,7.7,0,11.5,0c0.9,0,1.8-0.1,2.7-0.3c1.2-0.2,2.3-1.3,2.3-2.2
			c0-1.3,0-2.5,0-3.8c0-0.6-0.3-1-0.9-1.2c-1.5-0.6-3-0.8-4.5-0.8C2161.6,678.7,2159.3,678.7,2156.9,678.7z"/>
		<path class="st3" d="M2208.9,692c-2.5,0-5.1,0-7.6,0c-1.3,0-2.6,0.1-3.8,0.1c-0.8,0-1,0.3-0.6,1c0.8,1.7,2.3,2.5,4,2.5
			c4.2,0.2,8.4,0.2,12.6,0.2c0.3,0,0.7-0.1,1-0.1c0.9,0.1,1.7,1.2,1.7,2.2c-0.1,0.9-0.9,1.6-1.9,1.6c-3.7,0-7.4,0.1-11.2,0
			c-1.9,0-3.8,0-5.7-0.6s-3.6-1.4-4.5-3.2c-0.3-0.6-0.6-1.2-0.6-1.9c-0.1-2.7-0.1-5.4,0-8.1c0-1.6,0.9-2.9,2.2-3.8
			c1.6-1.1,3.5-1.8,5.5-1.8c4-0.1,8.1-0.2,12.1-0.1c2,0,4,0.8,5.6,2.1c1,0.8,1.5,1.9,1.5,3.2c0,1.6,0,3.2,0,4.9
			c0,0.3-0.1,0.6-0.2,0.9c-0.1,0.6-0.6,0.9-1.2,0.9c-1,0-2.1,0-3.1,0C2212.7,692,2210.8,692,2208.9,692z M2205.8,688.2
			c2.4,0,4.9,0,7.3,0c1.7,0,1.7,0.2,1.7-1.7c0-1.1-0.4-1.5-1.4-1.9c-1.6-0.7-3.2-0.7-4.9-0.8c-2.9-0.1-5.7,0.1-8.6,0.2
			c-0.4,0-0.7,0.1-1.1,0.2c-1.8,0.5-2.3,1-2.2,2.9c0,0.1,0,0.2,0,0.2c-0.1,0.5,0.3,0.7,0.7,0.8c0.2,0,0.5,0,0.8,0
			C2200.6,688.2,2203.2,688.2,2205.8,688.2z"/>
		<path class="st3" d="M2336.1,691.9c-3.1,0-6.3,0-9.4,0c-0.2,0-0.4,0-0.7,0c-0.6,0.1-1,0.6-0.7,1.2c0.4,1,1,1.8,2.1,2.2
			c1.1,0.4,2.4,0.7,3.6,0.7c3.7,0,7.4,0,11.2,0c0.3,0,0.7,0,1,0.1c0.5,0.1,1.1,0.3,1.2,0.9c0.1,0.8,0.5,1.6-0.4,2.2
			c-0.3,0.2-0.6,0.4-1,0.4c-4.3,0-8.6,0.1-12.8,0c-1.6,0-3.3-0.3-4.9-0.7c-1.9-0.5-3.4-1.8-4.1-3.7c-0.3-0.7-0.3-1.5-0.3-2.3
			c0-2,0.1-4,0-6c-0.1-3,1.8-4.9,4.1-5.7c1.7-0.6,3.4-1,5.3-0.9c3.5,0.1,7.1,0,10.6,0.1c2.1,0.1,4.1,0.8,5.6,2.4
			c0.7,0.7,1.1,1.6,1.1,2.7c0,1.4,0,2.8,0,4.2c0,0.3,0,0.6-0.1,0.9c-0.3,1.2-0.5,1.4-1.8,1.4
			C2342.5,691.9,2339.3,691.9,2336.1,691.9L2336.1,691.9z M2343,687.9c0.1-0.5,0.2-0.8,0.3-1.2c0.2-1-0.5-1.9-1.7-2.2
			c-2.7-0.7-5.4-0.5-8.1-0.7c-0.8,0-1.7,0.1-2.5,0.2c-1.1,0.1-2.1,0.1-3.2,0.2c-1.9,0.2-2.5,0.9-2.5,2.7c0,1,0.4,1.3,1.4,1.1
			c0.6-0.1,1.1-0.2,1.7-0.2c4.4,0,8.8,0,13.1,0C2342.1,687.9,2342.5,687.9,2343,687.9z"/>
		<path class="st3" d="M2312.7,699.7c-0.4-0.1-0.6-0.3-0.8-0.3c-3.5,0-7.1,0.2-10.6,0c-2-0.1-4.1-0.2-6.1-0.8
			c-1.3-0.4-2.4-1-3.4-1.9c-0.7-0.7-1.1-1.6-1.1-2.5c0-2.9,0-5.7,0-8.6c0-1.6,1-2.7,2.2-3.6c1.3-1,2.9-1.2,4.5-1.5
			c0.9-0.2,1.8-0.2,2.7-0.2c2.7,0,5.3-0.1,8,0c2.3,0.1,4.5,0.5,6.5,1.7c0.9,0.5,1.7,1.1,2.2,2.1c0.4,0.7,0.6,1.4,0.6,2.2
			c0,4.1-0.1,8.2,0,12.4c0,2.2-1.1,3.6-2.8,4.6c-1.9,1.1-4.1,1.6-6.3,1.7c-1.2,0.1-2.3,0.1-3.5,0.2c-1,0-1.6-0.4-2-1.3
			c-0.6-1.1,0.1-2.4,1.4-2.5c0.8,0,1.5,0,2.3,0c2,0.1,3.9-0.6,5.7-1.2C2312.4,700,2312.5,699.9,2312.7,699.7z M2306.3,695.9
			L2306.3,695.9c1.7,0,3.4,0,5.2,0c1.3,0,1.5-0.2,1.5-1.4c0-2.6,0-5.1,0-7.7c0-1.2-0.4-1.8-1.5-2.2c-1.6-0.6-3.3-0.9-5-0.9
			c-3,0.1-6,0-8.9,0c-1.8,0-2.9,1.2-2.9,2.9c0,2,0,4,0,6c0,1.3,0.6,2.1,1.8,2.5c1.6,0.6,3.2,0.7,4.8,0.8
			C2302.9,696,2304.6,695.9,2306.3,695.9z"/>
		<path class="st3" d="M2286.3,691.7c0,2.1,0,4.2,0,6.3c0,1.1-0.4,1.5-1.5,1.6c-0.4,0-0.7,0-1.1,0c-1.4,0-2-0.6-2-2
			c0-3.1,0-6.3,0-9.4c0-0.7,0-1.4,0-2.1c0-0.8-0.1-1.3-1.2-1.7c-0.8-0.3-1.7-0.4-2.6-0.4c-3.2,0-6.3-0.1-9.5,0c-1,0-2.1,0-3.1,0.5
			c-0.8,0.4-1.1,0.9-1.1,1.8c0,3.5,0,7.1,0,10.6c0,0.4,0,0.8,0,1.1c-0.2,1.1-0.3,1.7-1.8,1.7c-2.3,0-2.4-0.1-2.4-2.4
			c0-3.7,0-7.4,0-11.2c0-1.2,0.3-2.2,1-3.2c0.5-0.8,1.2-1.1,2-1.5c1-0.5,2.1-0.8,3.2-0.9c2.5-0.1,5.1-0.2,7.6-0.2c0.8,0,1.6,0,2.4,0
			c2-0.2,3.9,0,5.8,0.5c1.9,0.5,3.7,1.3,4.2,3.5c0.1,0.4,0.1,0.8,0.1,1.2C2286.3,687.5,2286.3,689.6,2286.3,691.7L2286.3,691.7z"/>
		<path class="st3" d="M2181.5,692.3c0,1.9,0,3.8,0,5.6c0,1-0.6,1.7-1.6,1.7c-2.1,0.1-2.9,0.1-2.9-2.7c0-3.4,0-6.8,0-10.1
			c-0.1-3.6,1.9-5.2,4.8-6.1c2.1-0.6,4.2-0.7,6.3-0.7c1.1,0,1.7,0.6,1.8,1.6c0.1,1.3-0.3,2-1.5,2.2c-0.4,0.1-0.8,0-1.2,0
			c-1.2,0.1-2.3,0-3.5,0.2c-1.7,0.3-2.3,1.1-2.2,2.6C2181.6,688.7,2181.5,690.5,2181.5,692.3L2181.5,692.3z"/>
		<path class="st3" d="M2351.5,687.2c0-3.5,0-7.1,0-10.6c0-1.2,0.4-1.7,1.5-1.7c0.6,0,1.3,0.1,1.9,0.2c0.6,0.1,1,0.6,1,1.3
			c0,1.4,0,2.7,0,4.1c0,4.9,0,9.8,0,14.8c0,1,0.1,2,0.1,3c0,0.8-0.5,1.3-1.3,1.3c-0.7,0.1-1.3,0.3-2.1,0c-0.8-0.3-1.2-0.6-1.2-1.5
			c0-0.6,0-1.1,0-1.7C2351.5,693.3,2351.5,690.2,2351.5,687.2L2351.5,687.2z"/>
	</g>
	<g>
		<g>
			<path class="st3" d="M1729.8,699.9c46.6,0,93.3,0,139.9,0c0,0.7,0,1.4,0,2.2c-46.6,0-93.3,0-139.9,0
				C1729.8,701.4,1729.8,700.7,1729.8,699.9z"/>
			<path class="st3" d="M1809.9,724.3C1809.8,724.3,1809.8,724.3,1809.9,724.3c-2.6-0.6-3.3-2.8-3.4-4.8c0-2.3,0-4.6,0-6.8
				c0-0.3,0-0.6,0-0.9c0-1.6-0.4-2-1.9-2.3c-0.1,0-0.2,0-0.3-0.1c-0.1-0.1-0.2-0.2-0.3-0.2c0.1-0.1,0.2-0.2,0.3-0.2
				c1.2-0.2,2.3-0.4,3.5-0.6c0.2,0,0.4-0.1,0.5-0.1c0,3.1,0,6.2,0,9.3c0,0.7,0,1.3,0.1,2c0.4,2.1,1.9,3.3,4,3.1
				c1.7-0.2,3.1-1,4.3-2.1c0.1-0.1,0.2-0.4,0.2-0.6c0-2.7,0-5.5,0-8.2c0-1.5-0.4-2-1.9-2.2c-0.3,0-0.6-0.1-1-0.1
				c-0.2,0-0.3-0.2-0.4-0.3l0.1-0.1c1.7-0.2,3.3-0.4,5-0.6c0,0.2,0,0.4,0,0.6c0,3.7,0,7.5,0,11.2c0,2.1,0.2,2.3,2.3,2.4
				c0.3,0,0.8-0.1,0.7,0.4c-1.4,0.5-2.8,0.9-4.2,1.4c-0.2,0-0.4,0-0.6,0c0-1,0-1.9,0-3c-1.6,1.3-3.2,2.4-5.1,3
				C1811.2,724.3,1810.5,724.3,1809.9,724.3z"/>
			<path class="st3" d="M1756.7,724.3L1756.7,724.3c-3.5-1-5.3-3-5.8-6.5c-0.6-4,2.2-8.4,6.1-9.5c3.1-0.9,6.4,1.2,6.8,4.4
				c0,0.1,0,0.2,0,0.4c0,0.9-0.1,1.1-1,1.1c-1.7,0.1-3.4,0.3-5,0.4c-1.7,0.1-3.4,0.2-5,0.3c-0.3,2.8,1.1,6.7,4.7,7.5
				c1.5,0.3,3,0.1,4.3-0.9c0.4-0.3,0.9-0.7,1.3-1c0.1,0.2,0.3,0.3,0.4,0.5c-1.3,1.5-2.8,2.5-4.7,3.1c-0.1,0-0.2,0.1-0.3,0.1
				C1757.9,724.3,1757.3,724.3,1756.7,724.3z M1753,713.6c2.7,0,5.3,0,7.9,0c0.5,0,0.7-0.3,0.7-0.8c-0.1-1.5-0.9-2.5-2.2-3.2
				C1756.5,708.3,1753.3,710.3,1753,713.6z"/>
			<path class="st3" d="M1847.4,724.3L1847.4,724.3c-3.5-1-5.3-3-5.8-6.5c-0.6-4,2.2-8.4,6.1-9.5c3.1-0.9,6.4,1.2,6.8,4.4
				c0,0.1,0,0.2,0,0.4c0,0.9-0.1,1.1-1,1.1c-1.7,0.1-3.4,0.3-5,0.4c-1.7,0.1-3.4,0.2-5,0.3c-0.3,2.8,1.1,6.7,4.7,7.5
				c1.5,0.3,3,0.1,4.3-0.9c0.4-0.3,0.9-0.7,1.3-1c0.1,0.2,0.3,0.3,0.4,0.5c-1.3,1.5-2.8,2.5-4.7,3.1c-0.1,0-0.2,0.1-0.3,0.1
				C1848.6,724.3,1848,724.3,1847.4,724.3z M1843.7,713.6c2.6,0,5.3,0,7.9,0c0.5,0,0.8-0.3,0.7-0.8c-0.1-1.4-0.8-2.4-2-3.1
				C1847.3,708.2,1843.9,710.3,1843.7,713.6z"/>
			<path class="st3" d="M1862.9,724.3c-0.6-0.2-1.2-0.4-1.7-0.6c-0.7-0.3-1.2-0.7-1.2-1.5c0-0.9-0.2-1.8-0.3-2.6
				c-0.1-0.4,0-0.6,0.5-0.6c0.2,0.4,0.3,0.9,0.5,1.3c0.5,1,1.1,1.9,2.1,2.6c0.8,0.6,1.8,0.8,2.8,0.6c1.1-0.2,1.8-0.8,2.1-1.8
				c0.4-1.3,0.2-2.5-0.8-3.4c-0.7-0.6-1.5-0.9-2.3-1.4c-0.8-0.4-1.7-0.7-2.4-1.2c-2.7-1.8-2.1-5,0.1-6.5c1.9-1.3,4-1.2,6.1-0.5
				c0.1,0,0.3,0.3,0.4,0.4c0.2,1,0.4,2.1,0.6,3.1c0,0.2-0.2,0.4-0.3,0.6c-0.1,0-0.1,0-0.2,0c-0.1-0.3-0.2-0.5-0.4-0.8
				c-0.5-1.1-1.1-2-2.2-2.5c-1-0.5-2.4-0.4-3.2,0.3c-0.8,0.7-1.2,1.9-0.7,2.9c0.3,0.6,0.7,1.1,1.2,1.5c0.7,0.5,1.5,0.8,2.3,1.2
				c0.9,0.5,1.8,0.9,2.5,1.5c2.1,1.7,2,4.9-0.2,6.5c-0.7,0.5-1.7,0.8-2.6,1.2c-0.1,0-0.2,0.1-0.3,0.1
				C1864.4,724.3,1863.6,724.3,1862.9,724.3z"/>
			<path class="st3" d="M1737.6,724.3c-1.7-4.4-3.3-8.7-5-13.1c-0.5-1.3-1.4-2.1-2.9-2.1c0-0.2,0-0.4,0-0.6c2.2,0,4.3,0,6.5,0
				c0.1,0.4,0,0.5-0.3,0.6c-1.6,0.4-1.8,0.7-1.2,2.2c1.2,3.1,2.3,6.2,3.5,9.3c0.1,0.2,0.2,0.4,0.3,0.7c0.8-1.8,1.6-3.4,2.3-5.1
				c0.7-1.6,1.3-3.2,1.9-4.8c0.6-1.5,0.3-2-1.3-2.3c-0.4-0.1-0.6-0.2-0.4-0.6c2.2,0,4.3,0,6.5,0c0.1,0.3,0.1,0.5-0.3,0.6
				c-1.2,0.1-2.1,0.8-2.6,1.9c-1.8,3.6-3.5,7.2-5.2,10.8c-0.4,0.8-0.7,1.7-1,2.5C1738.1,724.3,1737.9,724.3,1737.6,724.3z"/>
			<path class="st3" d="M1795.7,724.3c-1.8-0.6-2.3-2.1-2.3-3.8c0-3.4,0-6.7,0-10.1c0-0.2,0-0.4,0-0.7c-0.8,0-1.5,0-2.2,0
				c-0.2,0-0.3-0.1-0.5-0.2c0.1-0.2,0.2-0.3,0.3-0.5c0.4-0.5,1.1-0.6,1.7-0.5c0.2,0,0.5,0,0.8,0c-0.4-1.8,0.4-3.1,1.2-4.5
				c0-0.1,0.3-0.1,0.5-0.1c0,1.6,0,3.1,0,4.6c1.5,0,3,0,4.4,0c0.4,0.8,0.1,1.2-0.7,1.2c-1.2,0-2.4,0-3.7,0c0,0.4,0,0.7,0,0.9
				c0,3,0,6,0,8.9c0,0.6,0.1,1.2,0.3,1.8c0.3,1.1,1,1.6,2.2,1.5c0.8-0.1,1.6-0.4,2.4-0.6c0,0,0.1,0.2,0.2,0.4c-1,0.5-2,1.1-3,1.6
				C1796.8,724.3,1796.2,724.3,1795.7,724.3z"/>
			<path class="st3" d="M1813.2,682.4c0-11.4,0-22.9,0-34.4c0.2,0,0.4,0,0.7,0c4,0,8,0,12,0c0.5,0,0.7,0.2,0.8,0.6
				c4.9,13.1,9.7,26.2,14.6,39.2c0.1,0.2,0.1,0.4,0.3,0.7c0.1-0.3,0.2-0.4,0.3-0.6c2.3-6.5,4.7-13,7-19.5c2.4-6.6,4.8-13.2,7.1-19.8
				c0.1-0.3,0.2-0.5,0.6-0.5c4.3,0,8.5,0,12.8,0c0.1,0,0.2,0,0.3,0c0,16.1,0,32.1,0,48.2c-2.7,0-5.3,0-8.1,0c0-14.1,0-28.2,0-42.3
				h-0.1c-0.1,0.1-0.1,0.2-0.2,0.3c-2.7,7.4-5.3,14.7-8.1,22.1c-2.4,6.5-5,13-7.4,19.5c-0.2,0.4-0.4,0.6-0.8,0.6c-2.2,0-4.5,0-6.7,0
				c-0.5,0-0.7-0.2-0.8-0.6c-5.4-13.8-10.8-27.6-16.2-41.3c-0.1-0.2-0.1-0.3-0.2-0.5c-0.1,0-0.1,0-0.2,0c0,14.1,0,28.2,0,42.3
				c-0.2,0-0.4,0-0.6,0c-3.2,0-6.4,0-9.7,0c-0.4,0-0.6-0.1-0.7-0.5c-1.6-3.9-3.3-7.9-4.9-11.8c-0.2-0.5-0.4-0.7-1-0.7
				c-7.4,0-14.8,0-22.2,0c-0.5,0-0.8,0.1-1,0.7c-1.6,3.9-3.3,7.9-4.9,11.8c-0.2,0.4-0.3,0.5-0.7,0.5c-15,0-30,0-44.9,0
				c-0.2,0-0.4,0-0.6,0c0-16.1,0-32.2,0-48.3c0.2,0,0.4,0,0.6,0c7.5,0,14.9,0,22.4,0c3.7,0,7.3,0.5,10.8,2.1
				c4.1,1.8,6.6,4.8,6.9,9.3c0.2,2.8-0.7,5.4-2.8,7.5c-2,2.1-4.5,3.1-7.2,3.8c-0.3,0.1-0.5,0.1-0.8,0.2c0,0,0,0.1-0.1,0.2
				c0.4,0.1,0.8,0.2,1.2,0.2c2.7,0.5,5.2,1.4,7.4,3c2.6,1.9,4,4.4,4.5,7.5c0,0.1,0,0.2,0,0.2c0,0.2,0.1,0.4,0.1,0.7
				c0.5-1.2,1-2.3,1.5-3.4c4.5-10.2,9-20.4,13.5-30.7c0.2-0.4,0.4-0.6,0.9-0.6c2.8,0,5.6,0,8.4,0c0.5,0,0.7,0.2,0.9,0.6
				c4.9,11.1,9.8,22.3,14.7,33.4C1813,682.1,1813.1,682.3,1813.2,682.4L1813.2,682.4z M1738,690.9c0.1,0,0.2,0,0.3,0
				c5.2,0,10.4,0,15.6,0c1.9,0,3.8-0.3,5.5-1.1c3.2-1.4,4.7-3.9,4.7-7.3c0-3-1.4-5.2-4.1-6.5c-2.2-1.1-4.5-1.5-6.8-1.5
				c-5-0.1-10,0-15,0c0,0-0.1,0-0.1,0.1C1738,680,1738,685.4,1738,690.9z M1738,668.5c0.5,0,1,0,1.5,0c4.5,0,9,0,13.5-0.1
				c1.8,0,3.5-0.5,5.2-1.3c2.7-1.4,4-3.6,3.9-6.6s-1.8-4.9-4.6-5.9c-1.7-0.6-3.4-0.9-5.1-0.9c-4.7,0-9.3,0-14,0c-0.1,0-0.2,0-0.3,0
				C1738,658.7,1738,663.6,1738,668.5z M1793.2,654.5c-3.2,7.6-6.4,15.2-9.7,22.9c6.5,0,12.9,0,19.3,0
				C1799.6,669.7,1796.4,662.1,1793.2,654.5z"/>
			<path class="st3" d="M1776,724c-2.5,0-4.9,0-7.4,0l-0.1-0.1c0.1-0.1,0.3-0.4,0.4-0.4c1.9-0.2,2.4-0.9,2.4-2.9c0-2.6,0-5.3,0-7.9
				c0-0.2,0-0.5,0-0.7c-0.1-1.1-0.4-1.4-1.4-1.6c-0.2,0-0.4-0.1-0.5-0.1s-0.3-0.2-0.3-0.3s0.2-0.3,0.3-0.4c0.7-0.2,1.4-0.4,2.1-0.6
				c0.6-0.2,1.1-0.5,1.7-0.7c0,1,0,1.9,0,3c0.7-0.5,1.3-0.9,1.9-1.3c1-0.7,2-1.3,3.2-1.6c3-0.6,5.5,1.4,5.6,4.4c0,2.5,0,5,0,7.5
				c0,0.5,0,1,0.1,1.5c0.2,1.2,0.5,1.5,1.8,1.7c0.3,0,0.7,0,0.5,0.6c-2.3,0-4.7,0-7.1,0c-0.1-0.4,0-0.5,0.4-0.5
				c2-0.1,2.5-0.7,2.5-2.9c0-2.1,0-4.3,0-6.4c0-0.3,0-0.7,0-1c-0.4-2.7-2.5-4-5.4-3.1c-1.2,0.3-2.2,0.9-3.1,1.8
				c-0.2,0.2-0.3,0.4-0.3,0.7c0,2.8,0,5.6,0,8.5c0,0.2,0,0.4,0,0.6c0.1,1.1,0.5,1.6,1.6,1.8c0.3,0.1,0.6,0,0.9,0.1
				c0.2,0,0.3,0.2,0.4,0.4C1776.1,723.9,1776,723.9,1776,724z"/>
			<path class="st3" d="M1833.6,724c-2.5,0-5.1,0-7.6,0c-0.1-0.4,0-0.5,0.3-0.5c1.7-0.1,2.2-0.6,2.2-2.6c0-2.7,0-5.4,0-8.2
				c0-0.1,0-0.2,0-0.3c-0.1-1.6-0.4-2-2-2.2c-0.2,0-0.4-0.2-0.5-0.2c0.2-0.1,0.3-0.3,0.5-0.4c1.2-0.4,2.3-0.8,3.5-1.3
				c0.1,0,0.2-0.1,0.3-0.1c0,1.5,0,2.9,0,4.3c0.6-0.8,1.1-1.7,1.8-2.5c0.7-0.8,1.4-1.4,2.5-1.7c0.7-0.2,1.4,0,1.9,0.5
				c0.6,0.7,0.6,1.5-0.2,2c-0.4,0.3-0.8,0.4-1.2,0c-0.9-0.9-1.8-0.9-2.7,0.1c-1.3,1.4-2.2,3-2.2,5c0.1,1.8,0,3.5,0,5.3
				c0,1.6,0.5,2.1,2.1,2.3c0.3,0,0.6,0,0.8,0.1C1833.3,723.6,1833.4,723.8,1833.6,724C1833.7,723.9,1833.6,723.9,1833.6,724z"/>
		</g>
	</g>
	<g>
		<g>
			<path class="st3" d="M2008.2,672.4h-1.7c-0.3,1.1-1,2-2.3,2c-0.6,0-1.2-0.2-1.6-0.7c-0.5-0.6-0.7-1.2-0.7-3.5s0.1-2.9,0.7-3.5
				c0.4-0.4,1-0.7,1.6-0.7c1.2,0,2.1,0.8,2.3,2h1.7c-0.4-2.3-2-3.5-4-3.5c-1.1,0-2.2,0.4-3,1.2c-1.1,1.1-1.1,2.4-1.1,4.5
				c0,2.2,0,3.4,1.1,4.5c0.8,0.8,1.7,1.2,3,1.2C2006.3,675.8,2007.8,674.6,2008.2,672.4L2008.2,672.4z M2018.1,675.7l-4.1-11.3h-1.3
				l-4.1,11.3h1.7l0.8-2.3h4.3l0.8,2.3H2018.1L2018.1,675.7z M2015,672h-3.5l1.7-5L2015,672L2015,672z M2026.9,667.8
				c0-2-1.4-3.4-3.6-3.4h-4.3v11.3h1.7v-4.4h2.6C2025.6,671.3,2026.9,669.9,2026.9,667.8L2026.9,667.8z M2025.2,667.8
				c0,1.2-0.8,1.8-2,1.8h-2.5V666h2.5C2024.4,666,2025.2,666.7,2025.2,667.8L2025.2,667.8z M2030.2,675.7v-11.3h-1.7v11.3H2030.2
				L2030.2,675.7z M2039.4,666v-1.5h-7.9v1.5h3.1v9.8h1.7V666H2039.4L2039.4,666z M2048.1,675.7l-4.1-11.3h-1.3l-4.1,11.3h1.8
				l0.8-2.3h4.4l0.8,2.3H2048.1L2048.1,675.7z M2045.1,672h-3.5l1.7-5L2045.1,672L2045.1,672z M2056.2,675.7v-1.5h-5.4v-9.8h-1.7
				v11.3H2056.2L2056.2,675.7z M2069.7,671.9v-7.5h-1.7v7.4c0,1.5-0.9,2.5-2.4,2.5c-1.4,0-2.4-0.9-2.4-2.5v-7.4h-1.6v7.5
				c0,2.4,1.7,3.9,4,3.9C2067.9,675.8,2069.7,674.2,2069.7,671.9L2069.7,671.9z M2080.4,675.7v-11.3h-1.7v7.9l-5.1-7.9h-1.6v11.3
				h1.7v-7.9l5.2,7.9H2080.4L2080.4,675.7z M2084.5,675.7v-11.3h-1.7v11.3H2084.5L2084.5,675.7z M2094.5,670.1c0-2.2,0-3.4-1-4.5
				c-0.8-0.8-1.7-1.2-3-1.2c-1.2,0-2.2,0.4-3,1.2c-1.1,1.1-1.1,2.4-1.1,4.5c0,2.2,0,3.4,1.1,4.5c0.8,0.8,1.7,1.2,3,1.2
				c1.2,0,2.2-0.4,3-1.2C2094.5,673.5,2094.5,672.3,2094.5,670.1L2094.5,670.1z M2092.8,670.1c0,2.3-0.1,2.9-0.6,3.5
				c-0.4,0.4-1,0.7-1.6,0.7s-1.2-0.3-1.6-0.7c-0.5-0.6-0.6-1.2-0.6-3.5s0.1-2.9,0.6-3.5c0.4-0.4,1-0.7,1.6-0.7s1.2,0.3,1.6,0.7
				C2092.7,667.2,2092.8,667.8,2092.8,670.1L2092.8,670.1z M2104.9,675.7v-11.3h-1.7v7.9l-5.1-7.9h-1.5v11.3h1.7v-7.9l5.2,7.9
				H2104.9L2104.9,675.7z M2002.3,693.1v-11.3h-1.7v11.3H2002.3L2002.3,693.1z M2013.1,693.1v-11.3h-1.7v7.9l-5.2-7.9h-1.5v11.3h1.7
				v-7.9l5.2,7.9H2013.1L2013.1,693.1z M2022.8,681.8h-1.8l-2.6,8.2l-2.6-8.2h-1.7l3.7,11.3h1.3L2022.8,681.8L2022.8,681.8z
				 M2031,693.1v-1.5h-5.4v-3.4h4.7v-1.5h-4.7v-3.3h5.4v-1.5h-7.2v11.3L2031,693.1L2031,693.1z M2039.8,689.8c0-0.9-0.3-1.7-0.9-2.3
				c-0.5-0.4-1-0.7-2.1-0.8l-1.2-0.2c-0.5-0.1-1-0.3-1.2-0.5c-0.3-0.3-0.4-0.6-0.4-1c0-1,0.7-1.7,2.1-1.7c0.9,0,1.7,0.2,2.5,0.8
				l1.1-1c-0.9-0.9-2.1-1.2-3.5-1.2c-2.4,0-3.8,1.3-3.8,3.3c0,0.9,0.3,1.6,0.8,2.2c0.5,0.4,1.2,0.8,2.2,0.9l1.3,0.2
				c0.6,0.1,0.9,0.2,1.2,0.5c0.3,0.3,0.4,0.7,0.4,1.1c0,1.1-0.8,1.7-2.4,1.7c-1.1,0-2.1-0.2-2.9-1l-1.2,0.9c1,1.1,2.3,1.4,4,1.4
				C2038.1,693.2,2039.8,692,2039.8,689.8L2039.8,689.8z M2048.4,683.3v-1.5h-7.9v1.5h3.1v9.8h1.7v-9.8H2048.4L2048.4,683.3z
				 M2059.7,693.1v-11.3h-1.7l-3.2,7l-3.3-7h-1.7v11.3h1.7v-7.5l2.7,5.4h1.2l2.6-5.4v7.5H2059.7L2059.7,693.1z M2069.3,693.1v-1.5
				h-5.4v-3.4h4.7v-1.5h-4.7v-3.3h5.4v-1.5h-7.2v11.3L2069.3,693.1L2069.3,693.1z M2079.5,693.1v-11.3h-1.7v7.9l-5.2-7.9h-1.5v11.3
				h1.7v-7.9l5.2,7.9H2079.5L2079.5,693.1z M2088.8,683.3v-1.5h-7.9v1.5h3.1v9.8h1.7v-9.8H2088.8L2088.8,683.3z M2097.2,689.8
				c0-0.9-0.3-1.7-0.9-2.3c-0.5-0.4-1-0.7-2.1-0.8l-1.2-0.2c-0.5-0.1-1-0.3-1.2-0.5c-0.3-0.3-0.4-0.6-0.4-1c0-1,0.7-1.7,2.1-1.7
				c0.9,0,1.7,0.2,2.5,0.8l1.1-1c-0.9-0.9-2.1-1.2-3.5-1.2c-2.4,0-3.8,1.3-3.8,3.3c0,0.9,0.3,1.6,0.8,2.2c0.5,0.4,1.2,0.8,2.2,0.9
				l1.3,0.2c0.6,0.1,0.9,0.2,1.2,0.5c0.3,0.3,0.4,0.7,0.4,1.1c0,1.1-0.8,1.7-2.4,1.7c-1.1,0-2.1-0.2-2.9-1l-1.1,1.1
				c1,1.1,2.3,1.4,4,1.4C2095.5,693.2,2097.2,692,2097.2,689.8L2097.2,689.8z M2007.7,710.4v-1.5h-5.4v-9.8h-1.7v11.3H2007.7
				L2007.7,710.4z M2010.8,710.4v-11.3h-1.7v11.3H2010.8L2010.8,710.4z M2023.1,710.4v-11.3h-1.7l-3.2,7l-3.3-7h-1.7v11.3h1.7v-7.5
				l2.7,5.4h1.2l2.6-5.4v7.5H2023.1L2023.1,710.4z M2027.1,710.4v-11.3h-1.7v11.3H2027.1L2027.1,710.4z M2036.3,700.7v-1.5h-7.9v1.5
				h3.1v9.8h1.7v-9.8H2036.3L2036.3,700.7z M2045,710.4v-1.5h-5.4v-3.4h4.7V704h-4.7v-3.3h5.4v-1.5h-7.2v11.3L2045,710.4L2045,710.4
				z M2054.7,704.7c0-1.6,0.1-3.3-1.1-4.5c-0.7-0.7-1.7-1-2.9-1h-3.9v11.3h3.9c1.1,0,2.2-0.3,2.9-1
				C2054.8,708.1,2054.7,706.3,2054.7,704.7L2054.7,704.7z M2053,704.7c0,1.5,0,2.8-0.6,3.4c-0.5,0.5-1.1,0.7-2,0.7h-2.1v-8.2h2.1
				c0.8,0,1.4,0.2,2,0.7C2053,702.1,2053,703.1,2053,704.7L2053,704.7z"/>
			<path class="st3" d="M1982.1,658.3H1940c-3.2,0-5.7,2.6-5.7,5.7v46.8c0,3.2,2.6,5.6,5.7,5.7h42.1c3.2,0,5.6-2.6,5.7-5.7V664
				C1987.8,660.9,1985.3,658.3,1982.1,658.3z M1949.3,670.1L1949.3,670.1L1949.3,670.1c-1,0-2,0.3-2.5,0.9c-0.6,0.6-0.9,1.5-0.9,2.7
				l0,0c0,14.1,0,13.5,0,27.6l0,0c0,1.1,0.3,2.1,0.9,2.7s1.4,0.9,2.5,0.9l0,0l0,0v4.9l0,0l0,0l0,0c-2.5,0-4.6-0.8-6.2-2.4
				c-1.6-1.4-2.6-3.6-2.6-6.1l0,0c0-14.2,0-13.8,0-27.8l0,0c0-2.5,0.9-4.6,2.5-6.1c1.5-1.4,3.7-2.4,6.2-2.4l0,0l0,0l0,0v4.9h0.1
				V670.1z M1970,666.2v35.2l0,0c0,2.5-0.9,4.6-2.6,6.1c-1.5,1.4-3.7,2.4-6.2,2.4l0,0l0,0c-2.5,0-4.6-0.8-6.2-2.4
				c-1.5-1.4-2.5-3.6-2.5-6.1l0,0v-35.2v-1h1h3.3h1v1v35.1l0,0c0,1.1,0.3,2.1,0.9,2.7s1.4,0.9,2.5,0.9l0,0l0,0c1,0,2-0.3,2.5-0.9
				c0.6-0.6,0.9-1.5,0.9-2.7l0,0v-35.1v-1h1h3.3h1L1970,666.2L1970,666.2z M1980.4,666.2v42.4v1h-1h-3.3h-1v-1v-42.4v-1h1h3.3h1
				V666.2z"/>
		</g>
	</g>
	<g>
		<path class="st3" d="M2014.4,860.8c-0.7-3.3,0.4-6.6,1.7-9.8c1.6-3.9,4.5-6.7,7.9-9.1c3.7-2.6,7.7-4,12.2-3.7c0.6,0,1.2,0.1,1.9,0
			c4.5-0.6,8.3,1.2,11.9,3.4c4,2.3,6.7,5.9,8.6,10.1c0.6,1.2,0.7,2.7,1,4c0.2,1,0.6,2,0.7,3c0.3,3.9-0.5,7.8-1.9,11.4
			c-1.5,3.8-4,6.9-7.1,9.2c-2.9,2.2-6.2,4.2-10.1,4.1c-1.5,1.1-3.3,0.9-4.9,0.7c-2.5-0.3-5.2-0.6-7.5-1.6c-2.7-1.2-5.6-2.4-7.7-4.6
			C2016.6,873.2,2013.6,867.8,2014.4,860.8z M2016.8,854.1c-0.3,1.8-0.7,3.6-0.9,5.3c-0.2,1.5,0,3,0,4.4c0,1.2,0.8,2.1,0.8,3.4
			c0,0.9,1,1.8,1.4,2.7c1.4,3.6,4.8,7.4,7.9,9.3c3.3,2,6.8,3.2,10.7,2.8c1.8-0.2,3.9,0.4,5.5-0.2c4.8-1.7,9.6-3.6,12.3-8.5
			c1.9-3.5,4-6.9,3.6-11.1c-0.1-1.2-0.1-2.5,0-3.7c0.1-2.2-0.7-4.1-1.4-6.1c-1.2-3.3-3.7-5.5-6-7.9c-2.8-3-6.6-4.1-10.3-4.7
			c-5.1-0.8-10.1,0-14.6,2.9c-2.2,1.4-4,3.1-5.6,5.4C2018.8,850.1,2018,852.2,2016.8,854.1z"/>
		<path class="st3" d="M2070,839.1c8.1,0,16.1,0,24.1,0c0.1,0.1,0.2,0.3,0.3,0.4c-0.6,0.2-1.1,0.3-1.7,0.5c0.2,0.2,0.3,0.4,0.5,0.6
			c-7.2,0-14.5,0-21.8,0c0,6.4,0,12.6,0,19.2c2,0,4.1,0,6.1,0c4.7,0,9.4,0,14.1,0c1,0,2-0.1,2.6,1c-0.4,1.3-1.5,1.2-2.5,1.2
			c-6.7,0-13.3,0-20.1,0c0,6.4,0,12.7,0,19.2c7.2,0,14.5,0,21.6,0c0.5,0.5,0.8,0.8,1.2,1.2c-0.4,0.3-0.7,0.6-1.2,1
			c-7.6,0-15.4,0-23.2,0C2070,868.7,2070,854,2070,839.1z"/>
		<path class="st3" d="M1983.8,881.1c8.2,0,16.3,0,24.1,0c0.5,0.5,0.8,0.8,1.3,1.3c-0.4,0.1-0.9,0.3-1.4,0.4
			c0.1,0.2,0.3,0.3,0.4,0.5c-9,0-17.9,0-27.2,0c0.1-0.7,0-1.6,0.4-2.1c1-1.1,1.4-2.4,2.1-3.6c2.3-4.1,4.8-8.1,7-12.3
			c2.5-4.7,5.1-9.2,7.8-13.8c2-3.4,3.8-7,5.8-10.9c-4.2-0.5-8.2-0.1-12.2-0.2c-4.1-0.1-8.1,0-12.3,0c-0.1-0.4-0.2-0.7-0.3-1
			c2.7-0.6,23.9-0.6,27.7-0.1c-1.8,3.2-3.5,6.3-5.2,9.4c-0.5,0.8-1.1,1.5-1.5,2.3c-1.6,2.9-2.8,6.1-4.7,8.8
			c-1.9,2.6-3.1,5.7-4.8,8.4c-1.6,2.6-3.2,5.3-4.6,8.1C1985.5,877.8,1984.7,879.4,1983.8,881.1z"/>
		<path class="st3" d="M1993.1,902.8c-0.2-0.4-0.4-0.9-0.5-1.3c-0.2,0.1-0.4,0.2-0.5,0.3c0-2.6,0-5.3,0-8.8c-1.6,3.8-2.9,6.7-4.3,10
			c-2.5-3.1-2.7-7.1-5.3-10.6c0,3.8,0,6.9,0,10.1c-1-1.9-0.7-3.9-0.7-5.8c-0.1-1.9,0-3.9,0-6c2.8,0.5,2.7,3,3.6,4.5s1.2,3.4,1.9,5.4
			c2.4-2.9,2.8-6.5,4.5-9.7c0.4,0,1,0,1.7,0c0,3.9,0,7.8,0,11.7C1993.3,902.7,1993.2,902.7,1993.1,902.8z"/>
		<path class="st3" d="M2045.6,898.4c-2,0-3.9,0-5.9,0c-0.1-0.6-0.2-0.9-0.2-1.4c2.5,0,4.9,0,7.5,0c0,2.8-1.6,4.5-4.2,5.6
			c-4.3,0.2-4.3,0.2-7.6-3.2c0-1.7,0-3.4,0-5.2c1-0.9,2.1-1.9,3.4-3.2c1.5,0,3.3,0,5,0c0.9,0.8,1.8,1.6,2.7,2.5
			c-0.1,0.1-0.1,0.3-0.2,0.4c-0.5-0.2-1.2-0.4-1.6-0.7c-3.4-2.5-6-1.9-7.9,2c-1.2,2.5-0.1,5.3,2.6,6.2c0.6,0.2,1.3,0.4,2,0.7
			C2044.5,900.4,2044.5,900.4,2045.6,898.4z"/>
		<path class="st3" d="M2015.8,894.9c0.1,4.9,0.1,4.9-4.6,7.7c-1.7,0-3.3,0-4.9,0c0-3.9,0-7.7,0-11.7c2.3,0,4.7-0.5,7.1,0.6
			C2014.1,892.6,2015,893.8,2015.8,894.9z M2014.8,896.7c-0.5-1.8-0.7-3.9-2.7-4.3c-1.7-0.3-3.5-2.2-5.2,0.5c0,1.2,0,2.7,0,4.1
			c0,1.4-0.2,2.9,0.2,4.3c2.3-0.1,4.5,0.4,6.3-1.1C2014,898.9,2014.4,897.7,2014.8,896.7z"/>
		<path class="st3" d="M1998.1,896.5c0,1.9,0,3.2,0,4.7c1.4,0,2.7,0,4.1,0c0.1,0.4,0.2,0.8,0.4,1.4c-2,0.2-3.9,0.1-5.9,0.1
			c0-3.9,0-7.7,0-11.8c2.1-0.1,4.3-0.2,6.5,0.6c-1.7,0-3.3,0-5.1,0c0,1.6,0,2.9,0,4.5c1.4,0,2.8,0,4.3,0c0,0.7,0.6,1.4-0.5,1.3
			C2000.7,897.1,1999.6,896.8,1998.1,896.5z"/>
		<path class="st3" d="M2093.9,894c-0.6,1.2-1.2,2.4-1.9,3.6c-1.8,0-3.3,0-5.1,0c0,1.8,0,3.4,0,5.4c-0.6-0.6-1-0.9-1.4-1.3
			c0-3.2,0-6.5,0-9.8c0.3-0.3,0.7-0.7,1-1c1.5,0,2.9,0,4.5,0C2091.8,891.7,2092.6,892.6,2093.9,894z M2087,891.7c0,1.9,0,3.4,0,5
			c1.4,0,2.7,0,4.1,0c0.3-0.3,0.7-0.7,1-1c0-0.7,0-1.4,0-2c-0.7-0.8-1.3-1.5-1.7-2C2089.1,891.7,2088.1,891.7,2087,891.7z"/>
		<path class="st3" d="M2025,898.5c-0.8,1.6-1.4,2.9-2.3,4.7c-0.2-2.9,0.9-4.8,2-6.7c1-1.8,0.9-4.3,3.2-6c1,2.1,1.9,4,2.8,5.9
			c0.8,2,1.6,4,2.6,6.5c-2.4-1.1-2-3.5-3.5-4.4C2028,898.5,2026.3,898.5,2025,898.5z M2027.4,891.9c-0.4,1.3-0.7,2.1-1,2.8
			c-0.3,0.8-0.7,1.6-1.1,2.7c1.6,0,3.1,0,4.5,0C2029,895.7,2028.3,894.1,2027.4,891.9z"/>
		<path class="st3" d="M2056.4,893.3c-3.2-2.1-3.6-2.2-5.8-0.6c0,3.2,0,6.5,0,9.7c-0.2,0.1-0.3,0.2-0.4,0.2s-0.3-0.2-0.3-0.2
			c0-3.8,0-7.6,0-11.4c1.6,0,3.1,0,4.7,0c0.8,0.4,1.6,1,2.6,1.5c0,1.4,0,2.7,0,4.1c-0.9,0.6-1.9,1.3-2.8,1.9c1,1.4,1.9,2.7,3.2,4.5
			c-1-0.4-1.6-0.5-1.9-0.9c-1.1-1.4-2.2-2.8-3.3-4.3c1.2-0.5,2.6-1.1,4-1.7C2056.4,895.1,2056.4,894.3,2056.4,893.3z"/>
		<path class="st3" d="M2069.9,900.5c-0.8,0.7-1.7,1.5-2.3,2.1c-3.4,0.8-5.5-1-7.3-3.2c-1.3-1.6-1.1-2.4,1.1-7c0.4,0,0.7,0,1.1,0
			c-1.2,1.9-1.9,4-1.3,6.7c1.3,1,2.9,2.1,4.2,3.1C2067.2,901.5,2068.5,901,2069.9,900.5z"/>
		<path class="st3" d="M2081.3,901.6c-0.6,0.2-1.3,0.3-1.9,0.5c-1.2,0.9-2.7,0.3-4.1-0.9c-0.7-2.5-1.8-5-0.4-7.8
			c-0.2-0.2-0.4-0.6-1-1.4c0.6-0.2,1.2-0.4,1.9-0.6c-0.4-0.3-0.1-0.2-0.1-0.1c0,2.9,0,5.9,0,9c0.9,0.5,1.9,1.1,2.8,1.7
			c0.8-0.3,1.5-0.6,2.3-0.9C2081.1,901.3,2081.2,901.4,2081.3,901.6z"/>
		<path class="st3" d="M2062.5,892.4c0.3-0.5,0.6-1,1-1.4c1.5,0,2.9,0,4.5,0c2.6,0.9,3.6,3.2,4,5.6c0.2,1.5-0.3,3.2-2.1,3.9
			c0.2-0.9,0.6-1.7,0.7-2.6c0.1-1,0-2,0-3.2c-1-1-2.1-2.1-3.3-3.2C2065.7,891.7,2064.1,892,2062.5,892.4z"/>
		<path class="st3" d="M2081.1,902.3c0.3-4.4,0.6-7.9,0.9-11.3c0.7,3.1,0.4,6.2,0.1,8.9C2081.8,900.4,2081.6,901,2081.1,902.3z"/>
		<path class="st3" d="M2019.4,891c0,3.9,0,7.7,0,11.6c-0.8-1.9-0.5-3.9-0.6-5.8c-0.1-1.9,0-3.9,0-5.8
			C2019,891,2019.2,891,2019.4,891z"/>
	</g>
</g>
</svg>
