<?xml version="1.0" encoding="utf-8"?>
<!-- Generator: Adobe Illustrator 19.1.0, SVG Export Plug-In . SVG Version: 6.00 Build 0)  -->
<!DOCTYPE svg PUBLIC "-//W3C//DTD SVG 1.1//EN" "http://www.w3.org/Graphics/SVG/1.1/DTD/svg11.dtd">
<svg version="1.1" id="Layer_1" xmlns="http://www.w3.org/2000/svg" xmlns:xlink="http://www.w3.org/1999/xlink" x="0px" y="0px"
	 viewBox="0 0 1000 1000" style="enable-background:new 0 0 1000 1000;" xml:space="preserve">
<style type="text/css">
	.st0{opacity:0.2;}
	.st1{fill:#FBFBFB;}
	.st2{fill:#FAFAFA;}
	.st3{fill:#183B51;}
	.st4{fill:none;stroke:#183B51;stroke-width:6;stroke-linecap:round;stroke-linejoin:round;stroke-miterlimit:10;}
	.st5{fill:#FFFFFF;stroke:#183B51;stroke-width:6;stroke-linecap:round;stroke-linejoin:round;stroke-miterlimit:10;}
	.st6{fill:#FAA61B;}
	.st7{fill:#F6C215;}
	.st8{fill:#979797;}
	.st9{display:none;fill:#979797;}
	.st10{fill:#7EB0D1;}
	.st11{opacity:0.36;}
	.st12{clip-path:url(#SVGID_2_);}
	.st13{fill:#495259;}
	.st14{fill:#1071A6;}
	.st15{fill:none;stroke:#FFFFFF;stroke-width:6;stroke-linecap:round;stroke-linejoin:round;stroke-miterlimit:10;}
	.st16{fill:#FFFFFF;}
</style>
<g>
	<g class="st0">
		<rect x="574.4" y="643" width="64.2" height="157"/>
		<rect x="662.6" y="597.2" width="64.2" height="202.8"/>
		<rect x="750.8" y="551.4" width="64.2" height="248.6"/>
		<path d="M768.9,519c-0.3,4.7-0.9,9.3-1.5,14h38.4c0.7-7.8,1.4-15.7,1.5-23.7h0.2v-2.6h-0.2C805.2,352.3,681.6,223.6,527.8,219
			v-0.1c-2,0-7.1-0.2-14.2,0v0.1C359.7,223.5,236.2,348.2,234,502.6h-0.2v2.6h0.2c2.2,154.4,125.7,283.2,279.6,287.7v0.1
			c2,0.1,12.3,0.1,14.2,0l0,0c9.5-0.3,19-1,28.2-2.2v-81c-5.6,6.6-11.4,13.1-17.6,19.4v-76.3H556v-28.2h88.2v-45.8h18.1
			c4-19.6,6.6-39.6,7.2-59.8h99.4V519z M470.9,261.8c-27.6,27-49.4,58.9-65.8,93.3h-81.7C359.3,308.2,411.1,274.2,470.9,261.8z
			 M299.4,393h90.3c-9.5,28.4-15.2,58-17.1,88.1h-99.5C276.4,449.6,285.6,419.9,299.4,393z M298.8,615
			c-14.6-29.4-23.8-61.9-26.2-95.9h99.5c1.3,32.2,7.1,64.5,17.5,95.9H298.8z M321.9,652.9h82.7c16.1,34.6,37.8,67.6,66.3,97.3
			C410.3,737.6,357.8,701.7,321.9,652.9z M503,729.2c-23.3-23.7-42.2-49.4-56.9-76.3H503V729.2z M503,615h-74.3
			c-12-31.2-18.6-63.5-20-95.9H503V615z M503,481.1h-93.6c2.5-29.9,9.5-59.6,21-88.1H503V481.1z M503,355.1h-54.4
			c14.4-25.5,32.4-49.9,54.4-72.3V355.1z M538.4,282.8c22.1,22.5,40.1,46.8,54.5,72.3h-54.5V282.8z M538.4,393h72.8
			c11.5,28.6,18.5,58.3,20.9,88.1h-93.7V393z M612.5,615h-74.1v-96h94.3C631.2,551.6,624.5,583.9,612.5,615z M635,355.1
			c-15.9-33.1-37.2-64.7-64.5-93.3c58.9,12.3,110.1,46.5,146,93.3L635,355.1L635,355.1z M650.4,393h90.1
			c14.1,27.1,23.5,56.8,27.2,88.1h-98.8C666.7,451.5,660.3,421.9,650.4,393z"/>
	</g>
	<g>
		<rect x="555.6" y="624.2" class="st1" width="64.2" height="157"/>
		<rect x="643.8" y="578.4" class="st1" width="64.2" height="202.8"/>
		<rect x="732" y="532.6" class="st1" width="64.2" height="248.6"/>
		<path class="st1" d="M750.1,500.2c-0.3,4.7-0.9,9.3-1.5,14H787c0.7-7.8,1.4-15.7,1.5-23.7h0.2v-2.6h-0.2
			C786.3,333.5,662.8,204.8,509,200.2V200c-2,0-7.1-0.2-14.2,0v0.1c-153.9,4.5-277.4,129.2-279.6,283.6H215v2.6h0.2
			c2.2,154.4,125.7,283.2,279.6,287.7v0.1c2,0.1,12.3,0.1,14.2,0V774c9.5-0.3,19-1,28.2-2.2v-81c-5.6,6.6-11.4,13.1-17.6,19.4V634
			h17.6v-28.2h88.2V560h18.1c4-19.6,6.6-39.6,7.2-59.8H750.1z M452.1,242.9c-27.6,27-49.4,58.9-65.8,93.3h-81.7
			C340.4,289.4,392.3,255.4,452.1,242.9z M280.6,374.1h90.3c-9.5,28.4-15.2,58-17.1,88.1h-99.5C257.5,430.8,266.7,401.1,280.6,374.1
			z M280,596.1c-14.6-29.4-23.8-61.9-26.2-95.9h99.5c1.3,32.2,7.1,64.5,17.5,95.9H280z M303.1,634h82.7
			c16.1,34.6,37.8,67.6,66.3,97.3C391.5,718.8,339,682.9,303.1,634z M484.2,710.3C460.8,686.7,442,661,427.3,634h56.9L484.2,710.3
			L484.2,710.3z M484.2,596.1h-74.3c-12-31.2-18.6-63.5-20-95.9h94.3V596.1z M484.2,462.3h-93.6c2.5-29.9,9.5-59.6,21-88.1h72.7
			L484.2,462.3L484.2,462.3z M484.2,336.2h-54.4c14.4-25.5,32.4-49.9,54.4-72.3V336.2z M519.5,264c22.1,22.5,40.1,46.8,54.5,72.3
			h-54.5V264z M519.5,374.1h72.8c11.5,28.6,18.5,58.3,20.9,88.1h-93.7V374.1z M593.7,596.1h-74.1v-95.9h94.3
			C612.4,532.7,605.7,565,593.7,596.1z M616.2,336.2c-15.9-33.1-37.2-64.7-64.5-93.3c58.9,12.3,110.1,46.5,146,93.3H616.2z
			 M631.6,374.1h90.1c14.1,27.1,23.5,56.8,27.2,88.1h-98.8C647.8,432.6,641.5,403,631.6,374.1z"/>
	</g>
</g>
<g>
	<polygon class="st2" points="190.2,588.7 168.1,594.5 152.6,611.3 146.8,589.2 130,573.7 152.1,567.9 167.6,551.1 173.4,573.2 	"/>
	<polygon class="st2" points="352.5,531.1 339.8,531.5 329.4,538.7 329,526 321.8,515.6 334.4,515.2 344.9,508 345.3,520.7 	"/>
	<polygon class="st2" points="276.7,501.2 266.3,498.6 256.2,502.1 258.7,491.7 255.2,481.5 265.7,484.1 275.8,480.6 273.3,491 	"/>
	<polygon class="st2" points="233.9,561.4 226.2,547.8 212.4,540.5 226,532.8 233.2,519 240.9,532.6 254.7,539.9 241.2,547.6 	"/>
	<g>
		<g>
			<g>
				<g>
					<path class="st3" d="M619.3,419.7l-74.1,21.1c-5.1,1.4-10.3-0.5-12.6-4.7l-23.5-43.5c-3-5.5,0.5-12.4,7.2-14.3l102.6-29.2
						c6.7-1.9,13.3,2.1,13.6,8.4l-4.9,51.6C627.9,413.8,624.4,418.2,619.3,419.7z"/>
					<polyline class="st4" points="633.9,414.2 530.5,443.6 495.1,376.3 470.9,382.9 					"/>
					<path class="st4" d="M532.8,443.3c-5,2.5-7.2,8.4-5.2,13.3c2.2,5.3,8.7,7.9,14.3,5.3"/>
					<line class="st4" x1="542.2" y1="461.8" x2="619.7" y2="439.8"/>
					<circle class="st5" cx="541.9" cy="461.9" r="9.9"/>
					<circle class="st5" cx="619.4" cy="439.9" r="9.9"/>
				</g>
				<g>
					<g>
						<path class="st6" d="M485.6,411.3c49.8-14.1,57,11.4,7.3,25.5c-50.5,14.3-93.2,20.3-95.2,13.3
							C395.6,443.1,435.1,425.7,485.6,411.3z"/>
						<path class="st7" d="M475.6,419.4c30.6-8.7,35,7.1,4.5,15.7c-31.3,8.9-57.5,12.5-58.8,8.2C420.1,439,444.3,428.3,475.6,419.4z
							"/>
					</g>
					<g>
						<g>
							
								<rect x="482.5" y="408.6" transform="matrix(0.9619 -0.2734 0.2734 0.9619 -96.397 152.0083)" class="st8" width="29.3" height="26.6"/>
							<g>
								<path class="st9" d="M522.1,400.7c-1.7-5.8-13.9-6.9-27.6-3.1c-7.1,2-13.1,5.1-17.1,8.3c11.7-3.6,19.3,0.1,20.1,2.7
									L522.1,400.7z"/>
								<path class="st9" d="M529.6,427.2c1.7,5.8-8.2,13.2-21.9,17.1c-7.1,2-13.8,2.6-18.9,1.9c11.8-3.1,16.4-10.2,15.6-12.9
									L529.6,427.2z"/>
								<path class="st10" d="M500.1,421c1.4,4.9,0.6,10-1.7,14.1c9.3,1.2,21.6,0.1,34.5-3.6c25-7.1,42.9-21.1,40-31.2
									c-2.9-10.2-25.5-12.6-50.5-5.5c-13,3.7-24,9.2-31.3,15.1C495.4,412.2,498.7,416.1,500.1,421z"/>
								
									<rect x="501.8" y="399.3" transform="matrix(0.2734 0.9619 -0.9619 0.2734 769.0904 -178.5022)" class="st9" width="1.8" height="41.1"/>
							</g>
						</g>
						<g class="st11">
							<defs>
								
									<rect id="SVGID_1_" x="476.4" y="413.1" transform="matrix(0.9619 -0.2734 0.2734 0.9619 -96.2323 161.0812)" class="st11" width="106.7" height="25.3"/>
							</defs>
							<clipPath id="SVGID_2_">
								<use xlink:href="#SVGID_1_"  style="overflow:visible;"/>
							</clipPath>
							<g class="st12">
								
									<rect x="482.5" y="408.6" transform="matrix(0.9619 -0.2734 0.2734 0.9619 -96.397 152.0083)" class="st13" width="29.3" height="26.6"/>
								<g>
									<path class="st9" d="M522.1,400.7c-1.7-5.8-13.9-6.9-27.6-3.1c-7.1,2-13.1,5.1-17.1,8.3c11.7-3.6,19.3,0.1,20.1,2.7
										L522.1,400.7z"/>
									<path class="st9" d="M529.6,427.2c1.7,5.8-8.2,13.2-21.9,17.1c-7.1,2-13.8,2.6-18.9,1.9c11.8-3.1,16.4-10.2,15.6-12.9
										L529.6,427.2z"/>
									<path class="st14" d="M500.1,421c1.4,4.9,0.6,10-1.7,14.1c9.3,1.2,21.6,0.1,34.5-3.6c25-7.1,42.9-21.1,40-31.2
										c-2.9-10.2-25.5-12.6-50.5-5.5c-13,3.7-24,9.2-31.3,15.1C495.4,412.2,498.7,416.1,500.1,421z"/>
									
										<rect x="501.8" y="399.3" transform="matrix(0.2734 0.9619 -0.9619 0.2734 769.0904 -178.5022)" class="st9" width="1.8" height="41.1"/>
								</g>
								<path class="st15" d="M500.4,411.1c0,0,40.8-21.4,64.2-13.1"/>
							</g>
						</g>
					</g>
				</g>
			</g>
			<path class="st15" d="M501,409.5c0,0,3.1-3.4,15.1-6.9"/>
			<path class="st15" d="M525.9,399.9c0,0,3.4-1.7,10.9-3.1"/>
			<path class="st15" d="M547.2,396.1c0,0,12.1-0.4,18.3,3"/>
		</g>
		<path class="st15" d="M455.3,418.1"/>
		<polygon class="st16" points="428,401.5 433.6,403.7 428.8,407.3 426.6,413 423,408.1 417.3,405.9 422.2,402.3 424.3,396.6 		"/>
		<polygon class="st16" points="468.6,470.4 472.2,475.3 466.1,475.7 461.3,479.4 460.8,473.3 457.2,468.4 463.2,468 468.1,464.3 		
			"/>
		<polygon class="st16" points="608.5,438.6 612.2,443.5 606.1,443.9 601.2,447.5 600.8,441.5 597.2,436.6 603.2,436.2 608.1,432.5 
					"/>
		<polygon class="st16" points="392.8,480.5 396.4,485.4 390.4,485.8 385.5,489.4 385.1,483.4 381.4,478.5 387.5,478.1 392.3,474.4 
					"/>
		<polygon class="st16" points="425.1,468.1 426.9,470.5 424,470.7 421.6,472.5 421.4,469.5 419.6,467.2 422.6,467 424.9,465.2 		
			"/>
		<polygon class="st16" points="512.5,437.5 514.3,439.8 511.3,440 509,441.8 508.7,438.9 507,436.5 509.9,436.3 512.3,434.5 		"/>
		<polygon class="st16" points="508.5,462.3 510.2,464.6 507.3,464.8 504.9,466.6 504.7,463.7 502.9,461.3 505.9,461.1 508.2,459.3 
					"/>
		<polygon class="st16" points="563.5,466.4 567.2,471.3 561.1,471.8 556.3,475.4 555.8,469.3 552.2,464.5 558.2,464 563.1,460.4 		
			"/>
		<polygon class="st16" points="579,412.8 582.7,417.7 576.6,418.1 571.8,421.8 571.3,415.7 567.7,410.8 573.7,410.4 578.6,406.8 		
			"/>
		<polygon class="st16" points="350.9,468.2 356.3,475.4 347.3,476 340.1,481.5 339.4,472.5 334,465.2 343,464.6 350.2,459.2 		"/>
		<polygon class="st16" points="378.5,435.6 380.7,438.5 377,438.8 374.1,441 373.8,437.3 371.6,434.4 375.3,434.1 378.2,431.9 		
			"/>
	</g>
</g>
</svg>
