<?xml version="1.0" encoding="utf-8"?>
<!-- Generator: Adobe Illustrator 19.1.0, SVG Export Plug-In . SVG Version: 6.00 Build 0)  -->
<!DOCTYPE svg PUBLIC "-//W3C//DTD SVG 1.1//EN" "http://www.w3.org/Graphics/SVG/1.1/DTD/svg11.dtd">
<svg version="1.1" id="Layer_1" xmlns="http://www.w3.org/2000/svg" xmlns:xlink="http://www.w3.org/1999/xlink" x="0px" y="0px"
	 viewBox="0 0 1000 1000" style="enable-background:new 0 0 1000 1000;" xml:space="preserve">
<style type="text/css">
	.st0{opacity:0.2;}
	.st1{fill:#FFFFFF;}
	.st2{fill:#FAFAFA;}
	.st3{fill:#183B51;}
	.st4{fill:none;stroke:#183B51;stroke-width:6;stroke-linecap:round;stroke-linejoin:round;stroke-miterlimit:10;}
	.st5{fill:#FFFFFF;stroke:#183B51;stroke-width:6;stroke-linecap:round;stroke-linejoin:round;stroke-miterlimit:10;}
	.st6{fill:#FAA61B;}
	.st7{fill:#F6C215;}
	.st8{fill:#979797;}
	.st9{display:none;fill:#979797;}
	.st10{fill:#7EB0D1;}
	.st11{opacity:0.36;}
	.st12{clip-path:url(#SVGID_2_);}
	.st13{fill:#495259;}
	.st14{fill:#1071A6;}
	.st15{fill:none;stroke:#FFFFFF;stroke-width:6;stroke-linecap:round;stroke-linejoin:round;stroke-miterlimit:10;}
</style>
<g class="st0">
	<path d="M525.1,666.7c40.3,0,76.5-16.8,102.4-43.6c24.7-25.6,39.9-60.4,39.9-98.7c0-71.5-52.7-130.5-121.4-140.7
		c-6.8-1.1-13.8-1.7-20.9-1.7c-78.6,0-142.4,63.7-142.4,142.4C382.8,602.9,446.5,666.7,525.1,666.7z M517.3,534.5
		c-22.7-7.6-38.2-18.2-38.2-38.8c0-18.7,13.1-33.3,35.8-37.7v-20.1h20.8v18.7c14.2,0.6,23.7,3.6,30.7,7l-6.2,23.9
		c-5.5-2.3-15.2-7.2-30.5-7.2c-13.8,0-18.2,5.9-18.2,11.9c0,7,7.4,11.5,25.4,18.2c25.2,8.9,35.4,20.6,35.4,39.6
		c0,18.9-13.4,35-37.7,39.2v21.6h-20.8v-20.1c-14.2-0.6-28-4.5-36-9.1l6.4-24.8c8.9,4.9,21.4,9.3,35.2,9.3
		c12.1,0,20.3-4.7,20.3-13.1C539.7,544.8,533,539.8,517.3,534.5z"/>
	<path d="M735.2,506c8.7,77.7-25.5,153.7-91.1,198.8c-28.6,19.6-66.9,30.5-108,30.5c-46.5,0-91.2-13.6-129.1-39.2l-16.3-11
		c0,0,12.3-19,23.2-35.9c3.4-5.2,3.6-11.8,0.7-17.3c-3-5.4-8.7-8.8-14.9-8.8c-40.4-0.1-110.3-0.2-148.2-0.2
		c-5.7,0-11.1,2.9-14.2,7.7c-3.1,4.8-3.6,10.9-1.2,16.1L297,782.1c2.5,5.7,7.9,9.5,14.1,9.9c6.2,0.5,12.1-2.5,15.5-7.7
		c11.2-17.3,23.8-36.8,23.8-36.8l16.9,11.5c46.3,31.6,100.6,48.3,156.9,48.3c56.2,0,110.4-16.9,157-48.8
		c82.7-56.8,128.5-155.1,119.6-254.4L735.2,506z"/>
	<path d="M814,402l-60.8-135.5c-2.5-5.7-7.9-9.5-14.1-9.9c-6.2-0.5-12.1,2.5-15.5,7.7c-11.2,17.3-23.8,36.8-23.8,36.8L683,289.5
		c-46.3-31.6-100.6-48.3-156.9-48.3c-56.2,0-110.4,16.9-157,48.8c-82.7,56.8-128.5,155.1-119.6,254.4l65.6-1.7
		c-8.7-77.7,25.4-153.7,91.1-198.8c28.6-19.6,66.9-30.5,108-30.5c46.5,0,91.2,13.6,129.1,39.2l16.3,11c0,0-12.3,19-23.2,35.9
		c-3.4,5.2-3.6,11.8-0.7,17.3c3,5.4,8.7,8.8,14.9,8.8c40.4,0.1,110.3,0.2,148.1,0.2c5.7,0,11.1-2.9,14.2-7.7
		C815.9,413.3,816.4,407.2,814,402z"/>
</g>
<g>
	<path class="st1" d="M505.9,648.1c40.3,0,76.5-16.8,102.4-43.6c24.7-25.6,39.9-60.4,39.9-98.7c0-71.5-52.7-130.5-121.4-140.7
		c-6.8-1-13.8-1.7-20.9-1.7c-78.6,0-142.4,63.7-142.4,142.4C363.6,584.3,427.3,648.1,505.9,648.1z M498.1,515.9
		c-22.7-7.6-38.2-18.2-38.2-38.8c0-18.7,13.1-33.3,35.8-37.7v-20.1h20.8V438c14.2,0.6,23.7,3.6,30.7,7l-6.2,23.9
		c-5.5-2.3-15.2-7.2-30.5-7.2c-13.8,0-18.2,5.9-18.2,11.9c0,7,7.4,11.5,25.4,18.2c25.2,8.9,35.4,20.6,35.4,39.6
		c0,18.9-13.4,35-37.7,39.2v21.6h-20.8V572c-14.2-0.6-28-4.5-36-9.1l6.4-24.8c8.9,4.9,21.4,9.3,35.2,9.3c12.1,0,20.3-4.7,20.3-13.1
		C520.5,526.3,513.8,521.2,498.1,515.9z"/>
	<path class="st1" d="M716,487.4c8.7,77.7-25.5,153.7-91.1,198.8c-28.6,19.6-66.9,30.5-108,30.5c-46.5,0-91.2-13.6-129.1-39.2
		l-16.3-11c0,0,12.3-19,23.2-35.9c3.4-5.2,3.6-11.8,0.7-17.3c-3-5.4-8.7-8.8-14.9-8.8c-40.4-0.1-110.3-0.2-148.2-0.2
		c-5.7,0-11.1,2.9-14.2,7.7c-3.1,4.8-3.6,10.9-1.2,16.1l60.8,135.5c2.5,5.7,7.9,9.5,14.1,9.9c6.2,0.5,12.1-2.5,15.5-7.7
		c11.2-17.3,23.8-36.8,23.8-36.8l16.9,11.5c46.3,31.6,100.6,48.3,156.9,48.3c56.2,0,110.4-16.9,157-48.8
		c82.7-56.8,128.5-155.1,119.6-254.4L716,487.4z"/>
	<path class="st1" d="M794.8,383.4L734,247.9c-2.5-5.7-7.9-9.5-14.1-9.9c-6.2-0.5-12.1,2.5-15.5,7.7c-11.2,17.3-23.8,36.8-23.8,36.8
		L663.7,271c-46.3-31.6-100.6-48.3-156.9-48.3c-56.2,0-110.4,16.9-157,48.8c-82.7,56.8-128.5,155.1-119.6,254.4l65.6-1.7
		c-8.7-77.7,25.4-153.7,91.1-198.8c28.6-19.6,66.9-30.5,108-30.5c46.5,0,91.2,13.6,129.1,39.2l16.3,11c0,0-12.3,19-23.2,35.9
		c-3.4,5.2-3.6,11.8-0.7,17.3c3,5.4,8.7,8.8,14.9,8.8c40.4,0.1,110.3,0.2,148.1,0.2c5.7,0,11.1-2.9,14.2-7.7
		C796.7,394.7,797.2,388.6,794.8,383.4z"/>
</g>
<g>
	<polygon class="st2" points="169.6,448.5 139.4,456.4 118.2,479.3 110.3,449.1 87.4,427.9 117.6,420 138.8,397.1 146.7,427.3 	"/>
	<polygon class="st2" points="391.1,369.8 373.9,370.4 359.6,380.2 359,362.9 349.3,348.6 366.5,348.1 380.8,338.3 381.3,355.6 	"/>
	<polygon class="st2" points="287.8,328.9 273.5,325.4 259.7,330.2 263.2,315.9 258.4,302.1 272.6,305.6 286.5,300.8 283,315 	"/>
	<polygon class="st2" points="229.3,411.1 218.7,392.6 199.9,382.7 218.4,372.2 228.3,353.3 238.9,371.8 257.7,381.8 239.2,392.3 	
		"/>
	<g>
		<g>
			<g>
				<g>
					<path class="st3" d="M755.5,217.6l-101.2,28.8c-6.9,2-14.1-0.7-17.2-6.4L605,180.6c-4.1-7.5,0.7-16.9,9.8-19.5l140.1-39.8
						c9.1-2.6,18.1,2.9,18.6,11.4l-6.7,70.5C767.2,209.6,762.5,215.7,755.5,217.6z"/>
					<polyline class="st4" points="775.4,210.2 634.2,250.4 585.9,158.4 552.8,167.5 					"/>
					<path class="st4" d="M637.4,249.9c-6.9,3.4-9.8,11.5-7.1,18.1c3,7.2,11.9,10.8,19.6,7.2"/>
					<line class="st4" x1="650.2" y1="275.2" x2="756" y2="245.1"/>
					<circle class="st5" cx="649.8" cy="275.3" r="13.5"/>
					<circle class="st5" cx="755.6" cy="245.2" r="13.5"/>
				</g>
				<g>
					<g>
						<path class="st6" d="M572.9,206.2c67.9-19.3,77.8,15.5,9.9,34.8c-68.9,19.6-127.3,27.8-130,18.1
							C450,249.6,504,225.8,572.9,206.2z"/>
						<path class="st7" d="M559.3,217.3c41.7-11.9,47.8,9.6,6.1,21.5c-42.7,12.1-78.5,17.1-80.2,11.2
							C483.4,244.1,516.6,229.5,559.3,217.3z"/>
					</g>
					<g>
						<g>
							
								<rect x="568.7" y="202.5" transform="matrix(0.9619 -0.2734 0.2734 0.9619 -37.8867 169.3713)" class="st8" width="40" height="36.3"/>
							<g>
								<path class="st9" d="M622.7,191.7c-2.3-7.9-19-9.5-37.7-4.2c-9.7,2.8-17.9,6.9-23.3,11.3c16-4.9,26.3,0.1,27.4,3.7
									L622.7,191.7z"/>
								<path class="st9" d="M633,228c2.3,7.9-11.2,18.1-29.8,23.4c-9.7,2.8-18.9,3.5-25.8,2.6c16.2-4.3,22.4-13.9,21.3-17.6
									L633,228z"/>
								<path class="st10" d="M592.8,219.5c1.9,6.7,0.9,13.6-2.3,19.3c12.6,1.7,29.5,0.1,47.2-4.9c34.1-9.7,58.6-28.8,54.6-42.7
									c-3.9-13.9-34.8-17.3-68.9-7.6c-17.7,5-32.8,12.6-42.7,20.7C586.4,207.5,590.9,212.8,592.8,219.5z"/>
								
									<rect x="595" y="189.8" transform="matrix(0.2734 0.9619 -0.9619 0.2734 642.8098 -415.2552)" class="st9" width="2.5" height="56.1"/>
							</g>
						</g>
						<g class="st11">
							<defs>
								
									<rect id="SVGID_1_" x="560.4" y="208.7" transform="matrix(0.9619 -0.2734 0.2734 0.9619 -37.6618 181.7594)" class="st11" width="145.7" height="34.6"/>
							</defs>
							<clipPath id="SVGID_2_">
								<use xlink:href="#SVGID_1_"  style="overflow:visible;"/>
							</clipPath>
							<g class="st12">
								
									<rect x="568.7" y="202.5" transform="matrix(0.9619 -0.2734 0.2734 0.9619 -37.8867 169.3713)" class="st13" width="40" height="36.3"/>
								<g>
									<path class="st9" d="M622.7,191.7c-2.3-7.9-19-9.5-37.7-4.2c-9.7,2.8-17.9,6.9-23.3,11.3c16-4.9,26.3,0.1,27.4,3.7
										L622.7,191.7z"/>
									<path class="st9" d="M633,228c2.3,7.9-11.2,18.1-29.8,23.4c-9.7,2.8-18.9,3.5-25.8,2.6c16.2-4.3,22.4-13.9,21.3-17.6
										L633,228z"/>
									<path class="st14" d="M592.8,219.5c1.9,6.7,0.9,13.6-2.3,19.3c12.6,1.7,29.5,0.1,47.2-4.9c34.1-9.7,58.6-28.8,54.6-42.7
										c-3.9-13.9-34.8-17.3-68.9-7.6c-17.7,5-32.8,12.6-42.7,20.7C586.4,207.5,590.9,212.8,592.8,219.5z"/>
									
										<rect x="595" y="189.8" transform="matrix(0.2734 0.9619 -0.9619 0.2734 642.8098 -415.2552)" class="st9" width="2.5" height="56.1"/>
								</g>
								<path class="st15" d="M593.1,206c0,0,55.6-29.2,87.7-17.9"/>
							</g>
						</g>
					</g>
				</g>
			</g>
			<path class="st15" d="M594,203.8c0,0,4.2-4.7,20.6-9.4"/>
			<path class="st15" d="M628,190.6c0,0,4.6-2.3,14.9-4.2"/>
			<path class="st15" d="M657,185.5c0,0,16.6-0.6,25,4.1"/>
		</g>
		<path class="st15" d="M531.5,215.5"/>
		<polygon class="st1" points="494.2,192.8 502,195.8 495.3,200.7 492.4,208.5 487.4,201.8 479.7,198.9 486.3,193.9 489.3,186.2 		
			"/>
		<polygon class="st1" points="549.7,286.9 554.6,293.6 546.4,294.2 539.7,299.1 539.1,290.9 534.1,284.2 542.4,283.6 549,278.6 		
			"/>
		<polygon class="st1" points="740.8,243.5 745.7,250.1 737.5,250.7 730.8,255.7 730.2,247.4 725.2,240.8 733.5,240.2 740.2,235.2 
					"/>
		<polygon class="st1" points="446.2,300.7 451.2,307.3 442.9,307.9 436.3,312.9 435.6,304.6 430.7,298 438.9,297.4 445.6,292.4 		
			"/>
		<polygon class="st1" points="490.4,283.8 492.8,287 488.8,287.3 485.5,289.7 485.2,285.7 482.8,282.5 486.8,282.2 490.1,279.8 		
			"/>
		<polygon class="st1" points="609.7,241.9 612.1,245.2 608.1,245.5 604.8,247.9 604.5,243.9 602.1,240.6 606.1,240.3 609.4,237.9 
					"/>
		<polygon class="st1" points="604.1,275.8 606.6,279 602.5,279.3 599.3,281.7 599,277.7 596.6,274.5 600.6,274.2 603.8,271.8 		"/>
		<polygon class="st1" points="679.4,281.5 684.3,288.2 676.1,288.8 669.4,293.7 668.8,285.5 663.8,278.8 672.1,278.2 678.7,273.2 
					"/>
		<polygon class="st1" points="700.5,208.3 705.5,214.9 697.2,215.5 690.6,220.5 690,212.2 685,205.6 693.3,205 699.9,200 		"/>
		<polygon class="st1" points="389,283.8 396.4,293.7 384.1,294.6 374.2,302 373.3,289.7 365.9,279.8 378.2,278.9 388.1,271.5 		"/>
		<polygon class="st1" points="426.7,239.3 429.7,243.3 424.7,243.7 420.6,246.7 420.3,241.7 417.3,237.7 422.3,237.3 426.3,234.3 
					"/>
	</g>
</g>
</svg>
