<?xml version="1.0" encoding="utf-8"?>
<!-- Generator: Adobe Illustrator 19.1.0, SVG Export Plug-In . SVG Version: 6.00 Build 0)  -->
<!DOCTYPE svg PUBLIC "-//W3C//DTD SVG 1.1//EN" "http://www.w3.org/Graphics/SVG/1.1/DTD/svg11.dtd">
<svg version="1.1" id="Layer_1" xmlns="http://www.w3.org/2000/svg" xmlns:xlink="http://www.w3.org/1999/xlink" x="0px" y="0px"
	 viewBox="0 0 1000 1000" style="enable-background:new 0 0 1000 1000;" xml:space="preserve">
<style type="text/css">
	.st0{opacity:0.2;}
	.st1{fill:#FFFFFF;}
	.st2{fill:#FAFAFA;}
	.st3{fill:#183B51;}
	.st4{fill:none;stroke:#183B51;stroke-width:6;stroke-linecap:round;stroke-linejoin:round;stroke-miterlimit:10;}
	.st5{fill:#FFFFFF;stroke:#183B51;stroke-width:6;stroke-linecap:round;stroke-linejoin:round;stroke-miterlimit:10;}
	.st6{fill:#FAA61B;}
	.st7{fill:#F6C215;}
	.st8{fill:#979797;}
	.st9{display:none;fill:#979797;}
	.st10{fill:#7EB0D1;}
	.st11{opacity:0.36;}
	.st12{clip-path:url(#SVGID_2_);}
	.st13{fill:#495259;}
	.st14{fill:#1071A6;}
	.st15{fill:none;stroke:#FFFFFF;stroke-width:6;stroke-linecap:round;stroke-linejoin:round;stroke-miterlimit:10;}
</style>
<g>
	<g id="XMLID_1_" class="st0">
		<g id="XMLID_7_">
			<path id="XMLID_8_" d="M536,384.1v-161c0-28.9-26.6-69.2-55.5-69.2H270c-28.9,0-44,40.3-44,69.2V802c0,28.9,15.1,70,44,70h210.5
				c28.9,0,55.5-41.1,55.5-70v-7.8c0-5-18.6-11.3-28.7-16.3c-22.5-11.2-43-30.9-59.3-30.9H251V225h259v164.7
				C536,386.9,536,385,536,384.1z M364.7,801h21c11.6,0,21,4.2,21,10s-9.5,10-21,10h-21c-11.6,0-21.1-4.2-21.1-10
				C343.7,805.2,353.1,801,364.7,801z"/>
		</g>
		<g id="XMLID_4_">
			<g id="XMLID_5_">
				<path id="XMLID_6_" d="M408,454.6l-12.9-27.8c-17.7-10.8-29.5-30.2-29.5-52.3c0-33.9,27.5-61.4,61.4-61.4s61.4,27.5,61.4,61.4
					c0,4.4-0.5,8.7-1.4,12.9l12.3,26.6c6.4-11.8,10.1-25.2,10.1-39.5c0-45.5-37-82.5-82.4-82.5c-45.5,0-82.4,37-82.4,82.5
					C344.5,413.4,371.7,446,408,454.6z"/>
			</g>
		</g>
		<g id="XMLID_2_">
			<path id="XMLID_3_" d="M396.8,393c-18-38.8,44-67.6,62-28.8c14.4,31,89.8,193.5,89.8,193.5s-32.2-69.4-46.6-100.5
				c-14.4-31,47.7-59.8,62-28.8c14.4,31,54.2,116.7,54.2,116.7S588,480.2,573,447.7c-15.1-32.5,62.3-48.6,77.3-16.2
				c15.1,32.5,45.2,97.4,45.2,97.4s-15.1-32.5-30.1-64.9c-15.1-32.5,56.4-45.9,71.5-13.5c15.1,32.5,60.6,131.9,59.5,171.9
				c-1.2,40,11.9,154.5-4.3,162S662.3,844.6,646,852.2c-16.2,7.5-23.5-50.5-126-101.5c-125.1-62.2-134.3-76.9-141.8-93.1
				c-7.5-16.2,2.4-41,18.6-48.6s127.6,58.6,112.5,26.1s-15.1-32.5-15.1-32.5S411.2,424,396.8,393z"/>
		</g>
	</g>
	<g id="XMLID_457_">
		<g id="XMLID_473_">
			<path id="XMLID_480_" class="st1" d="M511,358.7v-161c0-28.9-27-68.8-55.9-68.8H244.6c-28.9,0-44.6,39.9-44.6,68.8v578.8
				c0,28.9,15.7,70.4,44.6,70.4h210.5c28.9,0,55.9-41.5,55.9-70.4v-7.8c0-5-18.8-11.1-28.8-16.1c-22.6-11.2-43.3-30.7-59.5-30.7H226
				V200h259v164.3C511,361.5,511,359.6,511,358.7z M339.3,776h21c11.6,0,21,3.7,21,9.5s-9.5,9.5-21,9.5h-21
				c-11.6,0-21.1-3.7-21.1-9.5C318.3,779.7,327.7,776,339.3,776z"/>
		</g>
		<g id="XMLID_461_">
			<g id="XMLID_469_">
				<path id="XMLID_470_" class="st1" d="M382.6,429.2l-12.9-27.8c-17.7-10.8-29.5-30.2-29.5-52.3c0-33.9,27.5-61.4,61.4-61.4
					s61.4,27.5,61.4,61.4c0,4.4-0.5,8.7-1.4,12.9l12.3,26.6c6.4-11.8,10.1-25.2,10.1-39.5c0-45.5-37-82.5-82.4-82.5
					c-45.5,0-82.4,37-82.4,82.5C319.1,388,346.3,420.6,382.6,429.2z"/>
			</g>
		</g>
		<g id="XMLID_459_">
			<path id="XMLID_460_" class="st1" d="M371.4,367.6c-18-38.8,44-67.6,62-28.8c14.4,31,89.8,193.5,89.8,193.5
				s-32.2-69.4-46.6-100.5c-14.4-31,47.7-59.8,62-28.8c14.4,31,54.2,116.7,54.2,116.7s-30.2-64.9-45.2-97.4
				c-15.1-32.5,62.3-48.6,77.3-16.2c15.1,32.5,45.2,97.4,45.2,97.4S655,471,640,438.6c-15.1-32.5,56.4-45.9,71.5-13.5
				C726.6,457.6,772.1,557,771,597c-1.2,40,11.9,154.5-4.3,162s-129.8,60.2-146.1,67.8c-16.2,7.5-23.5-50.5-126-101.5
				c-125.1-62.2-134.3-76.9-141.8-93.1c-7.5-16.2,2.4-41,18.6-48.6s127.6,58.6,112.5,26.1s-15.1-32.5-15.1-32.5
				S385.8,398.7,371.4,367.6z"/>
		</g>
	</g>
</g>
<g>
	<polygon class="st2" points="172.6,552.5 139.5,561.2 116.4,586.3 107.7,553.2 82.6,530 115.7,521.4 138.9,496.3 147.5,529.4 	"/>
	<polygon class="st2" points="415.1,466.4 396.2,467 380.6,477.8 380,458.8 369.3,443.2 388.2,442.6 403.8,431.9 404.4,450.8 	"/>
	<polygon class="st2" points="302,421.7 286.4,417.8 271.2,423 275,407.4 269.8,392.3 285.4,396.1 300.6,390.9 296.8,406.5 	"/>
	<polygon class="st2" points="237.9,511.7 226.4,491.4 205.7,480.5 226,469 236.9,448.4 248.4,468.6 269.1,479.5 248.8,491 	"/>
	<g>
		<g>
			<g>
				<g>
					<path class="st3" d="M814.1,299.8l-110.8,31.5c-7.6,2.2-15.4-0.8-18.8-7l-35.2-65.1c-4.4-8.2,0.7-18.5,10.7-21.4l153.4-43.6
						c10-2.8,19.8,3.2,20.4,12.5l-7.4,77.2C826.8,291.1,821.6,297.7,814.1,299.8z"/>
					<polyline class="st4" points="835.8,291.7 681.2,335.7 628.3,234.9 592.1,244.9 					"/>
					<path class="st4" d="M684.7,335.2c-7.5,3.8-10.8,12.6-7.8,19.8c3.2,7.9,13.1,11.8,21.4,7.9"/>
					<line class="st4" x1="698.7" y1="362.8" x2="814.5" y2="329.9"/>
					<circle class="st5" cx="698.3" cy="362.9" r="14.7"/>
					<circle class="st5" cx="814.1" cy="330" r="14.7"/>
				</g>
				<g>
					<g>
						<path class="st6" d="M614.1,287.4c74.4-21.1,85.2,17,10.8,38.1c-75.4,21.4-139.4,30.4-142.3,19.9
							C479.6,334.8,538.7,308.8,614.1,287.4z"/>
						<path class="st7" d="M599.2,299.5c45.7-13,52.4,10.5,6.7,23.5c-46.8,13.3-86,18.7-87.8,12.3
							C516.2,328.8,552.4,312.8,599.2,299.5z"/>
					</g>
					<g>
						<g>
							
								<rect x="609.5" y="283.2" transform="matrix(0.9619 -0.2734 0.2734 0.9619 -58.8109 184.1935)" class="st8" width="43.8" height="39.7"/>
							<g>
								<path class="st9" d="M668.7,271.5c-2.5-8.7-20.8-10.4-41.2-4.6c-10.6,3-19.6,7.6-25.5,12.4c17.5-5.3,28.8,0.1,30,4.1
									L668.7,271.5z"/>
								<path class="st9" d="M680,311.2c2.5,8.7-12.3,19.8-32.7,25.6c-10.6,3-20.7,3.9-28.2,2.9c17.7-4.7,24.5-15.2,23.3-19.3
									L680,311.2z"/>
								<path class="st10" d="M635.9,301.9c2.1,7.4,1,14.9-2.5,21.1c13.8,1.8,32.3,0.2,51.6-5.3c37.3-10.6,64.1-31.5,59.8-46.7
									c-4.3-15.2-38.1-18.9-75.4-8.3c-19.4,5.5-35.9,13.8-46.7,22.6C628.9,288.7,633.8,294.5,635.9,301.9z"/>
								
									<rect x="638.3" y="269.4" transform="matrix(0.2734 0.9619 -0.9619 0.2734 753.4543 -397.2935)" class="st9" width="2.8" height="61.4"/>
							</g>
						</g>
						<g class="st11">
							<defs>
								
									<rect id="SVGID_1_" x="600.4" y="290" transform="matrix(0.9619 -0.2734 0.2734 0.9619 -58.5647 197.7557)" class="st11" width="159.5" height="37.9"/>
							</defs>
							<clipPath id="SVGID_2_">
								<use xlink:href="#SVGID_1_"  style="overflow:visible;"/>
							</clipPath>
							<g class="st12">
								
									<rect x="609.5" y="283.2" transform="matrix(0.9619 -0.2734 0.2734 0.9619 -58.8109 184.1935)" class="st13" width="43.8" height="39.7"/>
								<g>
									<path class="st9" d="M668.7,271.5c-2.5-8.7-20.8-10.4-41.2-4.6c-10.6,3-19.6,7.6-25.5,12.4c17.5-5.3,28.8,0.1,30,4.1
										L668.7,271.5z"/>
									<path class="st9" d="M680,311.2c2.5,8.7-12.3,19.8-32.7,25.6c-10.6,3-20.7,3.9-28.2,2.9c17.7-4.7,24.5-15.2,23.3-19.3
										L680,311.2z"/>
									<path class="st14" d="M635.9,301.9c2.1,7.4,1,14.9-2.5,21.1c13.8,1.8,32.3,0.2,51.6-5.3c37.3-10.6,64.1-31.5,59.8-46.7
										c-4.3-15.2-38.1-18.9-75.4-8.3c-19.4,5.5-35.9,13.8-46.7,22.6C628.9,288.7,633.8,294.5,635.9,301.9z"/>
									
										<rect x="638.3" y="269.4" transform="matrix(0.2734 0.9619 -0.9619 0.2734 753.4543 -397.2935)" class="st9" width="2.8" height="61.4"/>
								</g>
								<path class="st15" d="M636.3,287.1c0,0,60.9-32,96-19.6"/>
							</g>
						</g>
					</g>
				</g>
			</g>
			<path class="st15" d="M637.2,284.7c0,0,4.6-5.1,22.6-10.3"/>
			<path class="st15" d="M674.4,270.3c0,0,5-2.6,16.3-4.6"/>
			<path class="st15" d="M706.2,264.7c0,0,18.1-0.6,27.4,4.5"/>
		</g>
		<path class="st15" d="M568.8,297.5"/>
		<polygon class="st1" points="528,272.7 536.5,275.9 529.2,281.3 526,289.8 520.6,282.5 512.1,279.3 519.4,273.9 522.6,265.4 		"/>
		<polygon class="st1" points="588.7,375.7 594.1,383 585.1,383.6 577.8,389.1 577.1,380 571.7,372.7 580.7,372.1 588,366.6 		"/>
		<polygon class="st1" points="797.9,328.1 803.3,335.4 794.3,336.1 787,341.5 786.3,332.5 780.9,325.2 790,324.5 797.2,319.1 		"/>
		<polygon class="st1" points="475.4,390.8 480.8,398 471.8,398.7 464.5,404.1 463.9,395.1 458.4,387.8 467.5,387.2 474.7,381.7 		
			"/>
		<polygon class="st1" points="523.8,372.3 526.4,375.8 522,376.1 518.5,378.8 518.1,374.4 515.5,370.8 519.9,370.5 523.4,367.9 		
			"/>
		<polygon class="st1" points="654.4,326.4 657,330 652.6,330.3 649.1,333 648.7,328.5 646.1,325 650.5,324.7 654,322 		"/>
		<polygon class="st1" points="648.3,363.5 651,367 646.6,367.4 643,370 642.7,365.6 640,362.1 644.5,361.8 648,359.1 		"/>
		<polygon class="st1" points="730.7,369.8 736.1,377 727,377.7 719.8,383.1 719.1,374.1 713.7,366.8 722.7,366.2 730,360.7 		"/>
		<polygon class="st1" points="753.8,289.6 759.3,296.9 750.2,297.5 742.9,303 742.3,293.9 736.8,286.7 745.9,286 753.2,280.5 		"/>
		<polygon class="st1" points="412.8,372.3 420.9,383.1 407.4,384.1 396.6,392.2 395.6,378.7 387.5,367.9 401,366.9 411.8,358.9 		
			"/>
		<polygon class="st1" points="454,323.6 457.3,328 451.8,328.4 447.4,331.7 447,326.2 443.7,321.8 449.2,321.4 453.6,318.1 		"/>
	</g>
</g>
</svg>
