<?xml version="1.0" encoding="utf-8"?>
<!-- Generator: Adobe Illustrator 19.1.0, SVG Export Plug-In . SVG Version: 6.00 Build 0)  -->
<!DOCTYPE svg PUBLIC "-//W3C//DTD SVG 1.1//EN" "http://www.w3.org/Graphics/SVG/1.1/DTD/svg11.dtd">
<svg version="1.1" id="Layer_1" xmlns="http://www.w3.org/2000/svg" xmlns:xlink="http://www.w3.org/1999/xlink" x="0px" y="0px"
	 viewBox="0 0 1000 1000" style="enable-background:new 0 0 1000 1000;" xml:space="preserve">
<style type="text/css">
	.st0{opacity:0.2;}
	.st1{fill:#5D5E5E;}
	.st2{fill:#FFFFFF;}
	.st3{fill:#FAFAFA;}
	.st4{fill:#183B51;}
	.st5{fill:none;stroke:#183B51;stroke-width:6;stroke-linecap:round;stroke-linejoin:round;stroke-miterlimit:10;}
	.st6{fill:#FFFFFF;stroke:#183B51;stroke-width:6;stroke-linecap:round;stroke-linejoin:round;stroke-miterlimit:10;}
	.st7{fill:#FAA61B;}
	.st8{fill:#F6C215;}
	.st9{fill:#979797;}
	.st10{display:none;fill:#979797;}
	.st11{fill:#7EB0D1;}
	.st12{opacity:0.36;}
	.st13{clip-path:url(#SVGID_2_);}
	.st14{fill:#495259;}
	.st15{fill:#1071A6;}
	.st16{fill:none;stroke:#FFFFFF;stroke-width:6;stroke-linecap:round;stroke-linejoin:round;stroke-miterlimit:10;}
</style>
<g class="st0">
	<path class="st1" d="M770.9,632.7H264.7V290.2c0-12.3-10-22.3-22.3-22.3s-22.3,10-22.3,22.3V655c0,12.3,10,22.3,22.3,22.3H771
		c12.3,0,22.3-10,22.3-22.3C793.2,642.7,783.3,632.7,770.9,632.7z"/>
	<path class="st1" d="M341.3,594.1c14.2,0,25.7-11.5,25.7-25.7c0-0.3,0-0.5,0-0.8c0.7-0.1,1.4-0.3,2.1-0.7l86.1-45.8
		c0.8-0.4,1.4-0.9,1.9-1.6c4,2.6,8.9,4.2,14,4.2c11.9,0,21.9-8.1,24.8-19l77.2,25.8c0.7,0.2,1.4,0.3,2.1,0.3c0.3,0,0.6,0,0.9-0.1
		c2.9,11,12.9,19.2,24.8,19.2c11.9,0,22-8.1,24.8-19.2c0.3,0,0.6,0.1,0.9,0.1c1.8,0,3.7-0.8,5-2.3l89-102.1c0.3-0.4,0.6-0.8,0.8-1.2
		c2.9,1.1,6,1.8,9.3,1.8c14.2,0,25.7-11.5,25.7-25.7s-11.5-25.7-25.7-25.7S705,387.1,705,401.3c0,6.2,2.2,11.8,5.8,16.2
		c-0.1,0.1-0.1,0.1-0.2,0.2l-85.4,98.1c-3.5-10.1-13-17.3-24.3-17.3c-11.9,0-21.9,8.1-24.8,19l-77.2-25.8c-1-0.3-2-0.4-3-0.3
		c-2.9-11-12.9-19.2-24.9-19.2c-14.2,0-25.7,11.5-25.7,25.7c0,4.2,1,8.2,2.9,11.8l-85,45.3c-4.5-7.4-12.6-12.3-21.9-12.3
		c-14.2,0-25.7,11.5-25.7,25.7C315.6,582.6,327.1,594.1,341.3,594.1z"/>
</g>
<g>
	<path class="st2" d="M744.2,605.9H237.9V263.5c0-12.3-10-22.3-22.3-22.3s-22.3,10-22.3,22.3v364.8c0,12.3,10,22.3,22.3,22.3h528.6
		c12.3,0,22.3-10,22.3-22.3C766.5,615.9,756.5,605.9,744.2,605.9z"/>
	<path class="st2" d="M314.5,567.3c14.2,0,25.7-11.5,25.7-25.7c0-0.3,0-0.5,0-0.8c0.7-0.1,1.4-0.3,2.1-0.7l86.1-45.8
		c0.8-0.4,1.4-0.9,1.9-1.6c4,2.6,8.9,4.2,14,4.2c11.9,0,21.9-8.1,24.8-19l77.2,25.8c0.7,0.2,1.4,0.3,2.1,0.3c0.3,0,0.6,0,0.9-0.1
		c2.9,11,12.9,19.2,24.8,19.2c11.9,0,22-8.1,24.8-19.2c0.3,0,0.6,0.1,0.9,0.1c1.8,0,3.7-0.8,5-2.3l89-102.1c0.3-0.4,0.6-0.8,0.8-1.2
		c2.9,1.1,6,1.8,9.3,1.8c14.2,0,25.7-11.5,25.7-25.7s-11.5-25.7-25.7-25.7s-25.7,11.5-25.7,25.7c0,6.2,2.2,11.8,5.8,16.2
		c-0.1,0.1-0.1,0.1-0.2,0.2L598.5,489c-3.5-10.1-13-17.3-24.3-17.3c-11.9,0-21.9,8.1-24.8,19l-77.2-25.8c-1-0.3-2-0.4-3-0.3
		c-2.9-11-12.9-19.2-24.9-19.2c-14.2,0-25.7,11.5-25.7,25.7c0,4.2,1,8.2,2.9,11.8l-85.1,45.3c-4.5-7.4-12.6-12.3-21.9-12.3
		c-14.2,0-25.7,11.5-25.7,25.7C288.8,555.8,300.3,567.3,314.5,567.3z"/>
</g>
<g>
	<polygon class="st3" points="324.1,446.1 305,451.1 291.6,465.7 286.5,446.5 272,433.1 291.1,428.1 304.6,413.5 309.6,432.7 	"/>
	<polygon class="st3" points="464.6,396.3 453.7,396.6 444.6,402.8 444.3,391.9 438.1,382.8 449,382.5 458.1,376.3 458.4,387.2 	"/>
	<polygon class="st3" points="399.1,370.3 390,368.1 381.2,371.1 383.5,362.1 380.4,353.3 389.5,355.5 398.3,352.5 396.1,361.5 	"/>
	<polygon class="st3" points="362,422.5 355.3,410.7 343.3,404.4 355.1,397.7 361.4,385.8 368.1,397.5 380,403.8 368.3,410.5 	"/>
	<g>
		<g>
			<g>
				<g>
					<path class="st4" d="M695.7,299.8L631.5,318c-4.4,1.2-8.9-0.5-10.9-4.1l-20.4-37.7c-2.6-4.8,0.4-10.7,6.2-12.4l88.8-25.3
						c5.8-1.6,11.5,1.9,11.8,7.3l-4.3,44.7C703.1,294.7,700.1,298.5,695.7,299.8z"/>
					<polyline class="st5" points="708.3,295.1 618.7,320.5 588.1,262.2 567.1,267.9 					"/>
					<path class="st5" d="M620.8,320.2c-4.4,2.2-6.2,7.3-4.5,11.5c1.9,4.6,7.6,6.9,12.4,4.6"/>
					<line class="st5" x1="628.9" y1="336.3" x2="696" y2="317.2"/>
					<circle class="st6" cx="628.6" cy="336.3" r="8.5"/>
					<circle class="st6" cx="695.7" cy="317.2" r="8.5"/>
				</g>
				<g>
					<g>
						<path class="st7" d="M579.9,292.5c43.1-12.2,49.4,9.8,6.3,22.1c-43.7,12.4-80.7,17.6-82.5,11.5
							C502,320,536.2,304.9,579.9,292.5z"/>
						<path class="st8" d="M571.2,299.6c26.5-7.5,30.3,6.1,3.9,13.6c-27.1,7.7-49.8,10.9-50.9,7.1
							C523.2,316.5,544.1,307.3,571.2,299.6z"/>
					</g>
					<g>
						<g>
							
								<rect x="577.2" y="290.1" transform="matrix(0.9619 -0.2734 0.2734 0.9619 -59.996 172.7868)" class="st9" width="25.4" height="23"/>
							<g>
								<path class="st10" d="M611.5,283.3c-1.4-5-12.1-6-23.9-2.7c-6.1,1.7-11.4,4.4-14.8,7.2c10.1-3.1,16.7,0.1,17.4,2.4
									L611.5,283.3z"/>
								<path class="st10" d="M618,306.3c1.4,5-7.1,11.5-18.9,14.8c-6.1,1.7-12,2.2-16.4,1.7c10.3-2.7,14.2-8.8,13.5-11.2L618,306.3
									z"/>
								<path class="st11" d="M592.5,300.9c1.2,4.3,0.6,8.6-1.5,12.2c8,1,18.7,0.1,29.9-3.1c21.6-6.1,37.1-18.3,34.6-27.1
									c-2.5-8.8-22.1-10.9-43.7-4.8c-11.2,3.2-20.8,8-27.1,13.1C588.4,293.3,591.3,296.7,592.5,300.9z"/>
								
									<rect x="593.9" y="282.1" transform="matrix(0.2734 0.9619 -0.9619 0.2734 720.5719 -354.1412)" class="st10" width="1.6" height="35.6"/>
							</g>
						</g>
						<g class="st12">
							<defs>
								
									<rect id="SVGID_1_" x="572" y="294.1" transform="matrix(0.9619 -0.2734 0.2734 0.9619 -59.8534 180.6427)" class="st12" width="92.4" height="21.9"/>
							</defs>
							<clipPath id="SVGID_2_">
								<use xlink:href="#SVGID_1_"  style="overflow:visible;"/>
							</clipPath>
							<g class="st13">
								
									<rect x="577.2" y="290.1" transform="matrix(0.9619 -0.2734 0.2734 0.9619 -59.996 172.7868)" class="st14" width="25.4" height="23"/>
								<g>
									<path class="st10" d="M611.5,283.3c-1.4-5-12.1-6-23.9-2.7c-6.1,1.7-11.4,4.4-14.8,7.2c10.1-3.1,16.7,0.1,17.4,2.4
										L611.5,283.3z"/>
									<path class="st10" d="M618,306.3c1.4,5-7.1,11.5-18.9,14.8c-6.1,1.7-12,2.2-16.4,1.7c10.3-2.7,14.2-8.8,13.5-11.2
										L618,306.3z"/>
									<path class="st15" d="M592.5,300.9c1.2,4.3,0.6,8.6-1.5,12.2c8,1,18.7,0.1,29.9-3.1c21.6-6.1,37.1-18.3,34.6-27.1
										c-2.5-8.8-22.1-10.9-43.7-4.8c-11.2,3.2-20.8,8-27.1,13.1C588.4,293.3,591.3,296.7,592.5,300.9z"/>
									
										<rect x="593.9" y="282.1" transform="matrix(0.2734 0.9619 -0.9619 0.2734 720.5719 -354.1412)" class="st10" width="1.6" height="35.6"/>
								</g>
								<path class="st16" d="M592.7,292.4c0,0,35.3-18.5,55.6-11.3"/>
							</g>
						</g>
					</g>
				</g>
			</g>
			<path class="st16" d="M593.2,291c0,0,2.6-3,13.1-6"/>
			<path class="st16" d="M614.8,282.6c0,0,2.9-1.5,9.4-2.7"/>
			<path class="st16" d="M633.2,279.4c0,0,10.5-0.4,15.9,2.6"/>
		</g>
		<path class="st16" d="M553.7,298.4"/>
		<polygon class="st2" points="530,284 534.9,285.9 530.7,289 528.8,294 525.7,289.7 520.8,287.9 525,284.7 526.8,279.8 		"/>
		<polygon class="st2" points="565.1,343.7 568.3,347.9 563,348.3 558.8,351.4 558.5,346.2 555.3,342 560.5,341.6 564.8,338.4 		"/>
		<polygon class="st2" points="686.3,316.1 689.5,320.4 684.2,320.7 680,323.9 679.6,318.7 676.5,314.4 681.7,314.1 685.9,310.9 		
			"/>
		<polygon class="st2" points="499.5,352.4 502.7,356.6 497.4,357 493.2,360.2 492.8,354.9 489.7,350.7 494.9,350.3 499.1,347.2 		
			"/>
		<polygon class="st2" points="527.5,341.7 529.1,343.8 526.5,343.9 524.5,345.5 524.3,342.9 522.8,340.9 525.3,340.7 527.4,339.2 
					"/>
		<polygon class="st2" points="603.2,315.2 604.7,317.2 602.2,317.4 600.1,318.9 599.9,316.4 598.4,314.3 601,314.1 603,312.6 		"/>
		<polygon class="st2" points="599.7,336.6 601.2,338.7 598.7,338.9 596.6,340.4 596.4,337.9 594.9,335.8 597.5,335.6 599.5,334.1 
					"/>
		<polygon class="st2" points="647.4,340.3 650.5,344.5 645.3,344.9 641.1,348 640.7,342.8 637.5,338.6 642.8,338.2 647,335 		"/>
		<polygon class="st2" points="660.8,293.8 664,298 658.7,298.4 654.5,301.6 654.1,296.3 651,292.1 656.2,291.7 660.4,288.6 		"/>
		<polygon class="st2" points="463.3,341.7 467.9,348 460.1,348.6 453.9,353.3 453.3,345.5 448.6,339.2 456.4,338.6 462.7,333.9 		
			"/>
		<polygon class="st2" points="487.1,313.5 489,316.1 485.9,316.3 483.3,318.2 483.1,315 481.2,312.5 484.4,312.2 486.9,310.3 		"/>
	</g>
</g>
</svg>
