<?xml version="1.0" encoding="utf-8"?>
<!-- Generator: Adobe Illustrator 19.1.0, SVG Export Plug-In . SVG Version: 6.00 Build 0)  -->
<!DOCTYPE svg PUBLIC "-//W3C//DTD SVG 1.1//EN" "http://www.w3.org/Graphics/SVG/1.1/DTD/svg11.dtd">
<svg version="1.1" id="Layer_1" xmlns="http://www.w3.org/2000/svg" xmlns:xlink="http://www.w3.org/1999/xlink" x="0px" y="0px"
	 viewBox="-249 251 500 500" style="enable-background:new -249 251 500 500;" xml:space="preserve">
<style type="text/css">
	.st0{opacity:0.2;fill:#2D2D2D;enable-background:new    ;}
	.st1{fill:#FBDBCC;}
	.st2{fill:#F5C115;}
	.st3{fill:#4A494A;}
	.st4{clip-path:url(#SVGID_2_);fill:#303031;}
	.st5{fill:#C13033;}
	.st6{fill:#438BC9;}
	.st7{opacity:0.3;enable-background:new    ;}
	.st8{clip-path:url(#SVGID_4_);fill:#1D1C1A;}
	.st9{fill:#F8D0C3;}
	.st10{opacity:0.3;clip-path:url(#SVGID_6_);fill:#FFFFFF;enable-background:new    ;}
	.st11{fill:#F6D1C3;}
	.st12{fill:#303031;}
	.st13{fill:#737272;}
	.st14{opacity:0.2;}
	.st15{clip-path:url(#SVGID_10_);fill:#303031;}
	.st16{clip-path:url(#SVGID_12_);fill:#383838;}
	.st17{clip-path:url(#SVGID_14_);fill:#383838;}
	.st18{clip-path:url(#SVGID_16_);}
	.st19{fill:#383838;}
	.st20{fill:#805443;}
	.st21{clip-path:url(#SVGID_18_);fill:#1D1C1A;}
	.st22{opacity:0.16;fill:#E7F5F8;enable-background:new    ;}
	.st23{fill:#303234;}
	.st24{fill:#D0A652;}
	.st25{fill:#FBDCCC;}
	.st26{fill:url(#SVGID_19_);}
	.st27{opacity:0.52;fill:url(#SVGID_20_);enable-background:new    ;}
	.st28{fill:#F6D2B9;}
	.st29{opacity:0.31;fill:#E0AB98;enable-background:new    ;}
	.st30{opacity:0.29;fill:url(#SVGID_21_);enable-background:new    ;}
	.st31{fill:url(#SVGID_22_);}
	.st32{opacity:0.52;fill:url(#SVGID_23_);enable-background:new    ;}
	.st33{opacity:0.52;fill:url(#SVGID_24_);enable-background:new    ;}
	.st34{opacity:0.52;fill:url(#SVGID_25_);enable-background:new    ;}
	.st35{opacity:0.52;fill:url(#SVGID_26_);enable-background:new    ;}
	.st36{opacity:0.29;fill:url(#SVGID_27_);enable-background:new    ;}
	.st37{opacity:0.29;fill:url(#SVGID_28_);enable-background:new    ;}
	.st38{opacity:0.29;fill:url(#SVGID_29_);enable-background:new    ;}
	.st39{fill:#634E42;}
	.st40{fill:#5C4D48;}
	.st41{fill:#B5CD84;}
</style>
<ellipse class="st0" cx="1" cy="722.1" rx="100.3" ry="20.7"/>
<path class="st1" d="M-9.7,393.7c0,0,0.6,8.2,0,12.2c-0.5,4,3.9,14.4,11.3,13.3c7.4-1.2,6.4-13,6-16.9c-0.4-4,0-8.5,0-8.5
	L-9.7,393.7z"/>
<path class="st1" d="M-9.7,393.7c0,0,0.6,8.2,0,12.2c-0.5,4,3.9,14.4,11.3,13.3c7.4-1.2,6.4-13,6-16.9c-0.4-4,0-8.5,0-8.5
	L-9.7,393.7z"/>
<g>
	<path class="st1" d="M35.1,302.3L35.1,302.3c0-0.1-0.1-0.3-0.1-0.4c-4.5-25.9-29.2-43.2-55-38.6c-25.8,4.6-43.2,29.2-38.6,55
		c0,0.1,0.1,0.3,0.1,0.4l0,0c0,0,7.4,38.1,12.4,51.1C-41,383-11.1,401.5,5,399c2.8-0.4-1.7,0.2,3.7-0.7
		c16.6-2.6,33.1-34.1,33.5-45.2C42.6,339,35.1,302.3,35.1,302.3z"/>
	<path class="st1" d="M35.1,302.3L35.1,302.3c0-0.1-0.1-0.3-0.1-0.4c-4.5-25.9-29.2-43.2-55-38.6c-25.8,4.6-43.2,29.2-38.6,55
		c0,0.1,0.1,0.3,0.1,0.4l0,0c0,0,7.4,38.1,12.4,51.1C-41,383-11.1,401.5,5,399c2.8-0.4-1.7,0.2,3.7-0.7
		c16.6-2.6,33.1-34.1,33.5-45.2C42.6,339,35.1,302.3,35.1,302.3z"/>
</g>
<g>
	<path class="st2" d="M3.6,443.6c2.1,0,3.8,0.7,5.1,2.2c1.3,1.5,2,3.6,2.1,6.3c1.8-0.5,3.5-1.2,4.9-1.9c1.4-0.8,2.2-1.1,2.2-1.1
		c0.3,0,0.4,0.2,0.4,0.7c0,0.4-0.6,1.1-1.9,2.1c-1.3,0.9-3.2,1.9-5.7,2.8c-0.5,4-2.1,7-4.8,9.2c-2.7,2.2-5.4,3.3-8,3.3s-4.5-1-5.4-3
		s-1.3-5.1-1.3-9.4c0-4.3,0.3-8.4,0.9-12.2c0.6-3.8,1.4-6.9,2.4-9.1c1-2.2,2-3.9,3-5.1s2-1.8,3-1.8c0.4,0,0.9,0.5,1.2,1.6
		c0.4,1.1,0.6,2.4,0.6,4c0,3.4-0.6,7.5-1.9,12.1C1.3,443.8,2.3,443.6,3.6,443.6z M0.7,433.3c0-1.9-0.2-2.8-0.7-2.8
		c-0.4,0-0.9,1-1.4,2.9c-0.6,1.9-1.1,4.6-1.5,7.9c-0.5,3.3-0.7,6.6-0.7,9.9C-0.8,442.8,0.7,436.9,0.7,433.3z M6.6,455.7
		c-0.4,0-1.1,0.1-2.2,0.1c-1.1,0-2.4-0.4-3.8-1.2c-1.4-0.8-2.3-1.9-2.8-3.2c-0.4,1.1-1,2.2-1.5,3.2c0.1,3.4,0.4,5.8,0.8,7.3
		c0.4,1.5,1.2,2.2,2.1,2.2c1.6,0,3.1-0.7,4.6-2C5.4,460.7,6.3,458.6,6.6,455.7z M2.6,446c-0.6,0-1.1,0.2-1.5,0.6s-0.6,0.9-0.6,1.5
		c0,1.4,0.6,2.5,1.8,3.5c1.2,0.9,2.7,1.4,4.5,1.4c0-1.8-0.4-3.4-1.1-4.8C5,446.7,4,446,2.6,446z"/>
</g>
<path class="st3" d="M7.3,708.5c0,0,0.1,4.5,0,5.6c-0.1,1,0.2,2.9,0.2,2.9s1,1.8,2.2,2c2.4,0.6,1.6,5.1,5.7,8.7
	c2.8,2.5,7,4.5,13.6,4.1c10.7-0.6,12.2-3.4,12.2-3.4s0.1-0.5,0.2-1.4c0-0.2-0.2-0.3-0.2-0.5c0.3-3.2,0.3-9.3-5.7-10.8
	c-5.5-1.4-7-8.2-7.1-10C28.4,703.7,8,699.1,7.3,708.5z"/>
<g>
	<g>
		<defs>
			<path id="SVGID_1_" d="M7.2,708.5c0,0,0.1,4.5,0,5.6c-0.1,1,0.2,2.9,0.2,2.9s1,1.8,2.2,2c2.4,0.6,1.6,5.1,5.7,8.7
				c2.8,2.5,7,4.5,13.6,4.1c10.7-0.6,12.2-3.4,12.2-3.4s0.1-0.5,0.2-1.4c0-0.2-0.2-0.3-0.2-0.5c0.3-3.2,0.3-9.3-5.7-10.8
				c-5.5-1.4-7-8.2-7.1-10C28.3,703.7,8,699.1,7.2,708.5z"/>
		</defs>
		<clipPath id="SVGID_2_">
			<use xlink:href="#SVGID_1_"  style="overflow:visible;"/>
		</clipPath>
		<path class="st4" d="M7.5,717l-0.2-1.2c0.6,0.7,1.7,1.8,2.3,2c0.9,0.2,2.3,1.4,3.5,4.4c1.1,2.9,7.3,11.2,28.1,4.4l0,0l0.2,0.4
			l-0.2,1.4l1,1c-0.3,0.2-6.8,5.5-18.2,3.5c-11.6-2.1-13.5-8.8-13.6-10.5c-0.1-1.1-1.5-2.3-2.5-3C8.1,718.3,7.5,717,7.5,717z"/>
	</g>
</g>
<path class="st3" d="M-6.5,707.5c0,0-0.1,4.5,0,5.6c0.1,1-0.2,2.9-0.2,2.9s-1,1.8-2.2,2c-2.4,0.6-1.6,5.1-5.7,8.7
	c-2.8,2.5-7,4.5-13.6,4.1c-10.6-0.6-12.1-3.4-12.1-3.4s-0.1-0.5-0.2-1.4c0-0.2,0.2-0.3,0.2-0.5c-0.3-3.2-0.3-9.3,5.7-10.8
	c5.5-1.4,7-8.2,7.1-10C-27.6,702.7-7.3,698.1-6.5,707.5z"/>
<path class="st5" d="M29.2,414.7L5.5,404l-16.3,2.8c0,0-13.5,7.6-16.6,11.3c0,0,0,0,0,0.1c-5.1,4.2,3.5,27.9,3.6,41.6
	c1.2,19.5,3.4,54.5,3.4,54.5s0.9,6,22.6,6.2c21.8,0.2,20.5-3.4,20.5-3.4c3.5-3.5,3.5-56.6,3.7-71.1
	C26.7,430.6,29.2,414.7,29.2,414.7z"/>
<path class="st6" d="M-28.8,707.1c0,0,4.4-77.6,5-97c0.6-19.4,3.3-96.6,3.3-96.6l43.4,0.3c0,0,1.9,71.4,2.6,95.4
	c0.6,24,3.8,98.6,3.8,98.6s-2.6,2.4-7.5,3c-13.4,0.8-14.3-4.9-14.3-4.9l0.1-4l-0.8-91.1c0,0-0.4-0.6-0.7-1.4
	c-0.3-1.2,0.4-1.8,0.4-1.8s-0.7-1.8-0.2-3.1c0.5-1.2-2.5-64.1-2.5-64.1s-2.2,0-4.2,0.3c-1.8,0.2-2.4,56.4-3.5,65.7
	c0,0.2,0.2,0.8,0.2,1c-0.1,0.6-0.4,1.1-0.4,1.1s0.1,1.3,0,2.2s-0.6,1.6-0.6,1.6l-0.6,95.8c0,0-7,2.6-14.1,2
	C-26.1,709.4-28.8,707.1-28.8,707.1z"/>
<g class="st7">
	<g>
		<defs>
			<path id="SVGID_3_" d="M-28.8,707.1c0,0,4.4-77.6,5-97c0.6-19.4,3.3-96.6,3.3-96.6l43.4,0.3c0,0,1.9,71.4,2.6,95.4
				c0.6,24,3.8,98.6,3.8,98.6s-2.6,2.4-7.5,3c-13.4,0.8-14.3-4.9-14.3-4.9l0.1-4l-0.8-91.1c0,0-0.4-0.6-0.7-1.4
				c-0.3-1.2,0.4-1.8,0.4-1.8s-0.7-1.8-0.2-3.1c0.5-1.2-2.5-64.1-2.5-64.1s-2.2,0-4.2,0.3c-1.8,0.2-2.4,56.4-3.5,65.7
				c0,0.2,0.2,0.8,0.2,1c-0.1,0.6-0.4,1.1-0.4,1.1s0.1,1.3,0,2.2s-0.6,1.6-0.6,1.6l-0.6,95.8c0,0-7,2.6-14.1,2
				C-26.1,709.4-28.8,707.1-28.8,707.1z"/>
		</defs>
		<clipPath id="SVGID_4_">
			<use xlink:href="#SVGID_3_"  style="overflow:visible;"/>
		</clipPath>
		<rect x="1.5" y="495.2" class="st8" width="35.3" height="215.4"/>
	</g>
</g>
<g>
	<path class="st1" d="M38.2,333.9c0,0,3.6-8.3,10.7-4.7c7.1,3.6,2.2,10.6-0.2,13.6c-2.4,3-1.8,7.8-6.4,8.1c-4.7,0.3-6.9-3.8-6.9-3.8
		L38.2,333.9z"/>
	<path class="st9" d="M38.2,333.9c0,0,3.6-8.3,10.7-4.7c7.1,3.6,2.2,10.6-0.2,13.6c-2.4,3-1.8,7.8-6.4,8.1c-4.7,0.3-6.9-3.8-6.9-3.8
		L38.2,333.9z"/>
</g>
<g>
	<g>
		<defs>
			<path id="SVGID_5_" d="M-9.7,393.7c0,0,0.6,8.2,0,12.2c-0.5,4,3.9,14.4,11.3,13.3c7.4-1.2,6.4-13,6-16.9c-0.4-4,0-8.5,0-8.5
				L-9.7,393.7z"/>
		</defs>
		<clipPath id="SVGID_6_">
			<use xlink:href="#SVGID_5_"  style="overflow:visible;"/>
		</clipPath>
		<path class="st10" d="M-9.5,398.4H7.6C7.5,398.4-0.1,410.5-9.5,398.4z"/>
	</g>
</g>
<g>
	<path class="st2" d="M4.3,440.9c2.1,0,3.8,0.7,5.1,2.2s2,3.6,2.1,6.3c1.8-0.5,3.5-1.2,4.9-1.9c1.4-0.8,2.2-1.1,2.2-1.1
		c0.3,0,0.4,0.2,0.4,0.7c0,0.4-0.6,1.1-1.9,2.1c-1.3,0.9-3.2,1.9-5.7,2.8c-0.5,4-2.1,7-4.8,9.2c-2.7,2.2-5.4,3.3-8,3.3
		c-2.7,0-4.5-1-5.4-3s-1.3-5.1-1.3-9.4c0-4.3,0.3-8.4,0.9-12.2c0.6-3.8,1.4-6.9,2.4-9.1c1-2.2,2-3.9,3-5.1s2-1.8,3-1.8
		c0.4,0,0.9,0.5,1.2,1.6c0.4,1.1,0.6,2.4,0.6,4c0,3.4-0.6,7.5-1.9,12.1C2,441.1,3,440.9,4.3,440.9z M1.4,430.6
		c0-1.9-0.2-2.8-0.7-2.8c-0.4,0-0.9,1-1.4,2.9c-0.6,1.9-1.1,4.6-1.5,7.9c-0.5,3.3-0.7,6.6-0.7,9.9C-0.1,440.1,1.4,434.2,1.4,430.6z
		 M7.3,453c-0.4,0-1.1,0.1-2.2,0.1c-1.1,0-2.4-0.4-3.8-1.2c-1.4-0.8-2.3-1.9-2.8-3.2c-0.4,1.1-1,2.2-1.5,3.2
		c0.1,3.4,0.4,5.8,0.8,7.3c0.4,1.5,1.2,2.2,2.1,2.2c1.6,0,3.1-0.7,4.6-2C6.1,458.1,7,455.9,7.3,453z M3.3,443.3
		c-0.6,0-1.1,0.2-1.5,0.6c-0.4,0.4-0.6,0.9-0.6,1.5c0,1.4,0.6,2.5,1.8,3.5c1.2,0.9,2.7,1.4,4.5,1.4c0-1.8-0.4-3.4-1.1-4.8
		C5.7,444,4.7,443.3,3.3,443.3z"/>
</g>
<g>
	<path class="st1" d="M-50.3,349.4c0,0-6.2-6.6-11.6-0.8c-5.4,5.8,1.5,10.7,4.8,12.7s4.3,6.7,8.8,5.4c4.5-1.3,5.2-6,5.2-6
		L-50.3,349.4z"/>
	<path class="st9" d="M-50.3,349.4c0,0-6.2-6.6-11.6-0.8c-5.4,5.8,1.5,10.7,4.8,12.7s4.3,6.7,8.8,5.4c4.5-1.3,5.2-6,5.2-6
		L-50.3,349.4z"/>
</g>
<g class="st7">
	<g>
		<defs>
			<path id="SVGID_7_" d="M28.5,289.2L28.5,289.2c0-0.1-0.2-0.3-0.2-0.4c-8.9-24.7-36.2-37.5-60.8-28.6S-70,296.5-61,321.1
				c0,0.1,0.2,0.3,0.2,0.4l0,0c0,0,13.9,36.3,21,48.2c7.3,12.1,39.9,25.2,55.4,20c2.7-0.9-1.6,0.5,3.5-1.3
				c15.9-5.4,26.7-39.3,25.2-50.3C42.2,324.1,28.5,289.2,28.5,289.2z"/>
		</defs>
		<clipPath id="SVGID_8_">
			<use xlink:href="#SVGID_7_"  style="overflow:visible;"/>
		</clipPath>
	</g>
</g>
<path class="st11" d="M-7.4,360.2c0,0,9.5,2.6,14.4-3"/>
<path class="st12" d="M-20.6,511.6c0,0-0.8,1.4-0.3,4.4c0,0-0.2,4.9,22.2,5.4c23.5,0.6,22.3-6.1,22.3-6.1s1.1-1.3,0.4-2.7
	c0,0-9.7,4.1-23.8,3.6C-13.9,515.9-20.6,511.6-20.6,511.6z"/>
<g>
	<g>
		<path class="st13" d="M3.3,515.8l-4-0.1c-1.8,0-3.2,1.4-3.2,3.1c0,1.8,1.4,3.2,3.1,3.2l4,0.1c1.8,0,3.2-1.4,3.2-3.1
			C6.5,517.2,5.1,515.8,3.3,515.8z M3.2,520.7l-4-0.1c-1,0-1.7-0.8-1.7-1.8s0.8-1.7,1.8-1.7l4,0.1c1,0,1.7,0.8,1.7,1.8l0,0
			C4.9,519.9,4.1,520.7,3.2,520.7z"/>
	</g>
	<g class="st14">
		<path class="st13" d="M3.3,515.8l-4-0.1c-1.8,0-3.2,1.4-3.2,3.1c0,1.8,1.4,3.2,3.1,3.2l4,0.1c1.8,0,3.2-1.4,3.2-3.1
			C6.5,517.2,5.1,515.8,3.3,515.8z M3.2,520.7l-4-0.1c-1,0-1.7-0.8-1.7-1.8s0.8-1.7,1.8-1.7l4,0.1c1,0,1.7,0.8,1.7,1.8l0,0
			C4.9,519.9,4.1,520.7,3.2,520.7z"/>
	</g>
</g>
<g>
	<g>
		<defs>
			<path id="SVGID_9_" d="M-6.5,707.5c0,0-0.1,4.5,0,5.6c0.1,1-0.2,2.9-0.2,2.9s-1,1.8-2.2,2c-2.4,0.6-1.6,5.1-5.7,8.7
				c-2.8,2.5-7,4.5-13.6,4.1c-10.6-0.6-12.1-3.4-12.1-3.4s-0.1-0.5-0.2-1.4c0-0.2,0.2-0.3,0.2-0.5c-0.3-3.2-0.3-9.3,5.7-10.8
				c5.5-1.4,7-8.2,7.1-10C-27.5,702.7-7.2,698.1-6.5,707.5z"/>
		</defs>
		<clipPath id="SVGID_10_">
			<use xlink:href="#SVGID_9_"  style="overflow:visible;"/>
		</clipPath>
		<path class="st15" d="M-6.8,716l0.2-1.2c-0.6,0.7-1.7,1.8-2.3,2c-0.9,0.2-2.3,1.4-3.4,4.4c-1.1,2.9-7.2,11.2-28,4.4l0,0l-0.2,0.4
			l0.2,1.4l-1,1c0.3,0.2,6.8,5.5,18.1,3.5c11.6-2.1,13.5-8.8,13.6-10.5c0.1-1.1,1.5-2.3,2.5-3C-7.4,717.3-6.8,716-6.8,716z"/>
	</g>
</g>
<g>
	<g>
		<defs>
			<path id="SVGID_11_" d="M-20.7,511.6c0,0-0.8,1.4-0.3,4.4c0,0-0.2,4.9,22.2,5.4c23.5,0.6,22.3-6.1,22.3-6.1s1.1-1.3,0.4-2.7
				c0,0-9.7,4.1-23.8,3.6C-13.9,515.9-20.7,511.6-20.7,511.6z"/>
		</defs>
		<clipPath id="SVGID_12_">
			<use xlink:href="#SVGID_11_"  style="overflow:visible;"/>
		</clipPath>
		<path class="st16" d="M19.7,514.1c0,0,0.1,5.7,0.1,5.9c0,0.2,1.1,0,1.1,0l0.3-6.3L19.7,514.1z"/>
	</g>
	<g>
		<defs>
			<path id="SVGID_13_" d="M-20.7,511.6c0,0-0.8,1.4-0.3,4.4c0,0-0.2,4.9,22.2,5.4c23.5,0.6,22.3-6.1,22.3-6.1s1.1-1.3,0.4-2.7
				c0,0-9.7,4.1-23.8,3.6C-13.9,515.9-20.7,511.6-20.7,511.6z"/>
		</defs>
		<clipPath id="SVGID_14_">
			<use xlink:href="#SVGID_13_"  style="overflow:visible;"/>
		</clipPath>
		<path class="st17" d="M-13.4,514.4c0,0-0.8,5.9-0.8,6.1s-1.1-0.1-1.1-0.1l0.5-6.4L-13.4,514.4z"/>
	</g>
	<g>
		<defs>
			<path id="SVGID_15_" d="M-20.7,511.6c0,0-0.8,1.4-0.3,4.4c0,0-0.2,4.9,22.2,5.4c23.5,0.6,22.3-6.1,22.3-6.1s1.1-1.3,0.4-2.7
				c0,0-9.7,4.1-23.8,3.6C-13.9,515.9-20.7,511.6-20.7,511.6z"/>
		</defs>
		<clipPath id="SVGID_16_">
			<use xlink:href="#SVGID_15_"  style="overflow:visible;"/>
		</clipPath>
		<g class="st18">
			<path class="st19" d="M15.2,515.2c0,0,0.2,5.5,0.2,5.7s1.1,0,1.1,0l0.2-6L15.2,515.2z"/>
			<path class="st19" d="M-17.5,513.1c0,0-0.8,5.6-0.8,5.7c0,0.2-1.1-0.1-1.1-0.1l0.4-6.2L-17.5,513.1z"/>
		</g>
	</g>
</g>
<g id="_x35__12_">
	<path class="st20" d="M30.6,276.7c-8.8-13.1-16.5-14.3-16.5-14.3s0.7-1.4,1.7-1.7c1-0.4-3.3,0.9-3.3,0.9l0.1-2.4l-2,2.2
		c0,0-8-1.7-19.7-0.7c-4.2-0.2-9.9-0.2-11.9,0.1c0,0,1.2,0.6,3.4,1.1c-3.6,0.7-7.4,1.6-11.3,3c-3.3,0.4-10.5,1.6-13.8,3.4
		c0,0,3.7-0.6,6.2-0.4c-1.6,0.7-3.2,1.5-4.8,2.4c-4.7,2.6-8.4,5.5-11.3,8.7c-2.5,1.7-4.8,3.6-5.7,5.3c0,0,1-0.5,2.6-1.2
		c-1.9,3-3.3,6.1-4.1,9.3c-1.3,3-3.7,9.2-3.5,14.5c0,0,1.1-2.6,2.2-5.3c-0.3,8.6,1.8,17.3,3.5,24.9c4,17.6,5.8,25.7,5.8,25.7
		s1.6,5.2,3,6c0,0-3.9-28.5-4.1-34.1c-0.3-5.6,1-13.9,4.7-19.7c3.7-5.7,16.9-6,34.8-7.2c17.9-1.1,24.7-7,28.7-7.7
		s12.6,3.5,15.5,13.8c2.9,10.4,9,35.3,9.4,37.4c0.4,2.1,1-6.5-0.1-17C39,313.3,38.1,287.8,30.6,276.7z"/>
	<g class="st7">
		<g>
			<defs>
				<path id="SVGID_17_" d="M30.6,276.7c-8.8-13.1-16.5-14.3-16.5-14.3s0.7-1.4,1.7-1.7c1-0.4-3.3,0.9-3.3,0.9l0.1-2.4l-2,2.2
					c0,0-8-1.7-19.7-0.7c-4.2-0.2-9.9-0.2-11.9,0.1c0,0,1.2,0.6,3.4,1.1c-3.6,0.7-7.4,1.6-11.3,3c-3.3,0.4-10.5,1.6-13.8,3.4
					c0,0,3.7-0.6,6.2-0.4c-1.6,0.7-3.2,1.5-4.8,2.4c-4.7,2.6-8.4,5.5-11.3,8.7c-2.5,1.7-4.8,3.6-5.7,5.3c0,0,1-0.5,2.6-1.2
					c-1.9,3-3.3,6.1-4.1,9.3c-1.3,3-3.7,9.2-3.5,14.5c0,0,1.1-2.6,2.2-5.3c-0.3,8.6,1.8,17.3,3.5,24.9c4,17.6,5.8,25.7,5.8,25.7
					s1.6,5.2,3,6c0,0-3.9-28.5-4.1-34.1c-0.3-5.6,1-13.9,4.7-19.7c3.7-5.7,16.9-6,34.8-7.2c17.9-1.1,24.7-7,28.7-7.7
					s12.6,3.5,15.5,13.8c2.9,10.4,9,35.3,9.4,37.4c0.4,2.1,1-6.5-0.1-17C39,313.3,38.1,287.8,30.6,276.7z"/>
			</defs>
			<clipPath id="SVGID_18_">
				<use xlink:href="#SVGID_17_"  style="overflow:visible;"/>
			</clipPath>
			<path class="st21" d="M38.9,283.1c0,0-52.2-29.8-109,19.1l-5.6-32.2l111.6-19.5l0.3,1.7L38.9,283.1z"/>
		</g>
	</g>
</g>
<g>
	<path class="st2" d="M25.9,485.4l-0.2-13.5c-16.4,2.3-33.2,2.4-49.6,0.1c0.3,2.4,0.6,5.8,0.7,10.9c0,0.9,0,1.8,0.1,2.7
		C-6.9,487.5,9.7,487.4,25.9,485.4z"/>
</g>
<g>
	<path class="st2" d="M26.1,496.5l-0.1-9.4c-16.2,2.3-32.8,2.4-49,0.3c0.1,3.2,0.1,6.4,0.1,9.4C-6.7,498.8,9.8,498.7,26.1,496.5z"/>
</g>
<g>
	<path class="st2" d="M24.6,504.4l-0.1-5.9c-15.4,2.3-31.1,2.4-46.6,0.3c0,2.1,0,4.1,0,5.9C-6.6,506.7,9.2,506.6,24.6,504.4z"/>
</g>
<g>
	<path class="st22" d="M-51.5,341.9c0,0,2,16.1,3,16.1c2.7,0,20.6,0.8,36.7-6.5c0,0,1.2-8.7-1.7-13.2c-0.7-1-2.2-3.7-4.9-4.2
		C-27.2,332.6-45.1,336.2-51.5,341.9z"/>
	<path class="st22" d="M40.9,325.8c0,0,3.6,15.9,2.6,16.2c-2.5,0.9-19,7.8-36.5,6.3c0,0-4.1-7.7-2.9-13c0.3-1.2,0.8-4.2,3.1-5.6
		C15.1,325.2,33,322.6,40.9,325.8z"/>
	<path class="st23" d="M41.8,324.4c-0.8-1-9.6-1.9-21.8,0.3c-12.2,2.2-17.2,3.5-17.4,7c0,0-3.3-0.8-8.1-0.1l0,0c0,0,0,0-0.1,0
		c0,0,0,0-0.1,0l0,0c-4.7,1-7.6,2.9-7.6,2.9c-1.4-3.2-6.6-2.7-18.8-0.7c-12.3,2.1-20.3,5.9-20.7,7.1C-53.2,342.2-50,356-50,356
		s0.6,2.8,1.6,2.4c1.7-0.6-2.9-14.1-0.1-16.3c2.8-2.3,27.1-8.5,30.6-6.2c3.5,2.4,5.2,8.7,5.9,13.4c0.3,2.2-0.4,2.5,0.3,2.6
		c0.7,0.1,1.5-0.9,1.8-2.4c0.7-3-2-12.8,5-14c7-1.2,7.8,8.9,9.4,11.5c0.8,1.4,1.9,2,2.5,1.7c0.6-0.3-0.2-0.4-0.6-2.6
		c-0.9-4.6-1.4-11.2,1-14.6c2.5-3.4,27.3-5.7,30.7-4.6c3.4,1.2,3.7,15.4,5.5,15.4c1.1,0,0.7-2.8,0.7-2.8S42.6,325.4,41.8,324.4z"/>
</g>
<g>
	<path class="st22" d="M-47.7,363.2c0,0-3.6-15.9-2.6-16.2c2.5-0.9,19.1-7.8,36.7-6.4c0,0,4.1,7.7,2.9,13c-0.3,1.2-0.8,4.2-3.2,5.6
		C-21.8,363.7-39.8,366.4-47.7,363.2z"/>
	<path class="st22" d="M44.6,347c0,0-2-16.1-3-16.1c-2.7,0-20.5-0.8-36.5,6.4c0,0-1.2,8.7,1.7,13.2c0.7,1,2.2,3.7,4.9,4.2
		C20.5,356.3,38.3,352.7,44.6,347z"/>
	<path class="st23" d="M-9.3,347.8l-0.3-1.5c0-0.1,0-0.1,0-0.2c-0.6-1.8-1.1-3.4-1.6-4.2c-0.8-1.4-1.9-2-2.5-1.7s0.2,0.4,0.6,2.6
		c0.9,4.6,1.4,11.2-1.1,14.6c-2.5,3.4-27.4,5.8-30.9,4.6c-3.4-1.2-3.7-15.4-5.5-15.4c-1.1,0-0.7,2.8-0.7,2.8s1.7,14.1,2.5,15.2
		c0.8,1,9.6,1.8,21.9-0.3c10.2-1.8,15.4-3,17-5.4c0-0.3,0-0.6,0-0.9c0.1-0.7,0.3-1.4,0.5-2c-0.2-2.4,0-4.9,0.1-7.4
		C-9.2,348.3-9.3,348-9.3,347.8z"/>
	<path class="st23" d="M43.1,332.9c0,0-0.6-2.8-1.6-2.4c-1.7,0.6,2.9,14.1,0.1,16.3c-2.8,2.3-26.9,8.5-30.4,6.1s-5.2-8.7-5.9-13.4
		C5,337.3,5.7,337,5,336.9s-1.5,0.9-1.8,2.4c-0.3,1.4,0.1,4.5-0.1,7.4c0.1,0.3,0.3,0.6,0.3,0.9c0,0.2,0,0.4,0.1,0.6
		c0.1,0.2,0.1,0.5,0.2,0.7c0.1,1.2,0.2,1.5,0.5,2.4c0.3,0.7,0.7,1.4,1,2.1c0.1,0.1,0.2,0.2,0.3,0.3c0.3,0.3,0.5,0.6,0.7,1
		c0.3-0.2,0.5-0.3,0.5-0.3c1.4,3.2,6.5,2.8,18.8,0.7c12.2-2.1,20.2-5.8,20.6-7.1C46.3,346.8,43.1,332.9,43.1,332.9z"/>
</g>
<path class="st2" d="M7.8,400.5c0,0-0.1-0.1-0.4-0.2c0.2,0.2,0.4,0.4,0.4,0.7c0,1.2-3.9,2.3-8.7,2.3s-8.7-1-8.7-2.3
	c0-0.2,0.1-0.4,0.3-0.6c-0.1,0-0.2,0.1-0.3,0.1l-0.6,8c0,0,6.8,6.3,18.4,0L7.8,400.5z"/>
<g>
	<path class="st24" d="M-28.2,418c0,0,5.2,8.8,3,24.1s-1.3,40.8-1.3,41.4c-0.1,0.7-12,24.9-15.3,23.9c-2.3-0.8-2.2-22.6-0.5-43
		c0.7-8.4,0.5-15.9,1.4-20.9C-37.9,426.3-31.1,419.4-28.2,418z"/>
	<path class="st24" d="M46.9,511.4c1.6-1.3,3-27.6,0.4-42.5c0,0-10.2-51.4-18.7-52.2c0,0-4.3,4-1.8,27.2c1,10.7,4.2,30.3,5,34.9
		c0.8,4.6,1.8,7.2,1.8,7.2S47.4,489.3,46.9,511.4z"/>
</g>
<g>
	<path class="st2" d="M6.5,497c5.9,2.6,15.3,6.2,22.1,8.6c3.5,1.3,16.7,7.1,18.3,5.8c0.8-0.7,2.4-9.4-2.2-17.5
		c-3.5-6.3-11.1-7.9-11.1-7.9s-36.6-2.6-42.8-3.9c0,0-2.7,1.2-4.9,5.9C-15.3,490.5,6.5,497,6.5,497z"/>
	<g>
		<g>
			<path class="st25" d="M12.8,481c0.2-0.1,12.3-8.8,14.1-9.8c1.8-1,4-1.4,4.6-1c0.5,0.4,2,1.2,2.6,1.2c0.6,0.1,1.5,1,2,1.5
				c2,2.2,3.2,3.9,3.3,4.6c0.1,0.7-0.2,9.2-0.8,9.6c-0.5,0.4-1.1,0.2-2.5-0.2c-1.4-0.4-2.4-0.4-3.5-0.1c-0.3,0.1-5.5,0.4-8.5-0.2
				c-2.9-0.6-3.4,0-5-0.6s-2.2-1.4-3.6-1.4c-1.3,0-3.6-2.1-3.6-2.1"/>
			
				<radialGradient id="SVGID_19_" cx="19.7321" cy="520.0839" r="24.5999" gradientTransform="matrix(0.9997 -2.503904e-02 -2.503904e-02 -0.9997 19.5664 1001.8979)" gradientUnits="userSpaceOnUse">
				<stop  offset="0" style="stop-color:#FBDCCC;stop-opacity:0"/>
				<stop  offset="1" style="stop-color:#EEBAA4"/>
			</radialGradient>
			<path class="st26" d="M12.8,481c0.2-0.1,12.3-8.8,14.1-9.8c1.8-1,4-1.4,4.6-1c0.5,0.4,2,1.2,2.6,1.2c0.6,0.1,1.5,1,2,1.5
				c2,2.2,3.2,3.9,3.3,4.6c0.1,0.7-0.2,9.2-0.8,9.6c-0.5,0.4-1.1,0.2-2.5-0.2c-1.4-0.4-2.4-0.4-3.5-0.1c-0.3,0.1-5.5,0.4-8.5-0.2
				c-2.9-0.6-3.4,0-5-0.6s-2.2-1.4-3.6-1.4c-1.3,0-3.6-2.1-3.6-2.1"/>
		</g>
		
			<linearGradient id="SVGID_20_" gradientUnits="userSpaceOnUse" x1="10.6508" y1="523.8566" x2="25.6112" y2="518.7181" gradientTransform="matrix(0.9997 -2.503904e-02 -2.503904e-02 -0.9997 19.5664 1001.8979)">
			<stop  offset="0" style="stop-color:#FFFFFF;stop-opacity:0"/>
			<stop  offset="1" style="stop-color:#D08B71"/>
		</linearGradient>
		<path class="st27" d="M39.4,477.6c0-0.1-0.1-0.2-0.1-0.2c0,0.5,0,1.1-0.1,1.6c-0.2,0.9-0.6,1.5-1.4,1.9c-0.6,0.3-1.2,0.3-1.8,0.6
			c-0.6,0.2-1,0.3-1.5,0c-0.4-0.2-0.8-0.8-1.2-1c-0.4-0.1-0.8,0.2-1.3,0.5c-1.3,0.6-2.7,1.1-4.1,1.5c-1.5,0.5-3.5,1.5-5.1,1.1
			c0,0.1-0.1,0.2-0.2,0.3c-0.3-0.3-0.5-0.8-1-0.8c-0.4,0-0.9,0.5-1.1,0.8c-0.4,0.7-1.1,1.6-1.1,2.3c1.4,0.4,2,0,4.7,0.5
			c3,0.6,8.1,0.3,8.5,0.2c1.1-0.3,2.1-0.3,3.5,0.1s2,0.6,2.5,0.2C39.1,486.8,39.5,478.3,39.4,477.6z"/>
		<path class="st28" d="M33,486.6c0.7-0.2,1.3-0.5,1.8-1c0.7,2.4,3.1-0.9,3.4-1c-0.5,0.4-0.8,1-1.2,1.5c-0.4,0.6-0.3,1-1.1,0.8
			c-1-0.3-2.4-0.3-3.4-0.1c0-0.1,0.1-0.3,0.2-0.4"/>
		<path class="st29" d="M22.2,486.3c0,0,2.3-2.2,2.6-2.1c0.3,0.1,0.5,0.2,1.4,0c0.8-0.3-1-0.3,1.5-0.6c2.4-0.3,5.7,1.2,6.8,1.2
			c1.2,0,1.6-0.3,2.2-1.1s0.5-2.3,0.8-1.6c0.2,0.7,0.8,2.9,0.5,3.8c-0.4,0.9,1.3,1.9-0.9,1.3c-2.1-0.5-2-0.8-5.2-0.3
			c-2.9,0-1,0.3-5.8,0.1"/>
		
			<linearGradient id="SVGID_21_" gradientUnits="userSpaceOnUse" x1="64.5277" y1="339.6744" x2="31.3502" y2="358.2252" gradientTransform="matrix(0.9968 8.016572e-02 8.016572e-02 -0.9968 -50.3996 822.7083)">
			<stop  offset="0.2263" style="stop-color:#FFFFFF;stop-opacity:0"/>
			<stop  offset="1" style="stop-color:#FFFFFF"/>
		</linearGradient>
		<path class="st30" d="M35.8,473.6c-0.9-0.6-0.6-1-1.7-1.6c-1.1-0.5-1.6-0.6-2.2-0.8c-0.5-0.2-0.9-0.9-1.7-1.1
			c-1,0.1-2.3,0.4-3.5,1.1c-1.8,1.1-13.9,9.7-14.1,9.8l-0.5,1c0.8,1,1.3,1.3,1.3,1.3l0.3-0.9c0.2-0.2,10.1-7.9,13.5-8.3
			c2.9-0.3,4.5,0.3,8.1,1c0.7,0.1,2.7,1.2,2.4,0.9C37.7,475.7,36.7,474.2,35.8,473.6z"/>
	</g>
	<g>
		<path class="st2" d="M-26.3,484.9c0.7-0.1,6.5,0.8,11.2-0.1c4-0.8,26.2-3.6,28-4.6s7.4,2.6,7.3,6.3c0,0-2.7-0.1-10.2,4.6
			c-11.5,7.2-23.4,10.4-29,11.8c-9.5,2.5-19.5,5.6-22.7,4.5C-44.1,506.7-37.7,485.8-26.3,484.9z"/>
		<path class="st2" d="M12.9,480.2c-0.3,0.1-0.9,0.3-1.9,0.5c1.5,0.6,3.3,1.9,4.2,5.3c0.2,0.7,0.4,1.3,0.6,1.9
			c3.1-1.4,4.3-1.4,4.3-1.4C20.3,482.8,14.7,479.2,12.9,480.2z"/>
	</g>
	<g>
		<g>
			<path class="st25" d="M-9.7,482.4c0,0-7-5.5-11.8-10.5c-3-2.5-4.6-3.7-5.7-4.5c-2-1.7-6.5-4.8-8.6-5.7c-0.8-0.3-6.9,2.6-10,3.9
				c-3.2,2.3-6.8,5.1-7.6,5.3c0,0-3.4,1.8-3.7,2.1s-0.7,1.1,4,0.7c1.4-0.1,4.1-1.7,5.5-2.2c1.2-0.4,2.5-0.9,3.7-1.2
				c-1,1.3-3.5,5.6-3.5,5.6s-2.4,6.8-3.4,9.3c-0.3,0.8,0,1,0.3,0.9c0.5-0.2,2.9-0.9,3.5-2.5s-1,2.8-1,2.8s0.1,0.5,0.9,0.3
				c0.9-0.2,2.4-1,3.3-2.2l-1.2,2.4c0,0,1.3,1.2,3.4-1.3c0.9-1,1.1-1.2,2-2.6c0.4-0.6,3.7-3.6,3.7-3.6s2.4,1.9,2.9,2.4
				c2.2,1.7,3.2,2,5.2,3.1s4.8,0.5,7.6,0.6l10.2-1.6C-7.9,481.6-9.7,482.4-9.7,482.4z"/>
			
				<radialGradient id="SVGID_22_" cx="-38.4049" cy="524.9965" r="41.5155" gradientTransform="matrix(0.9997 -2.503904e-02 -2.503904e-02 -0.9997 19.5664 1001.8979)" gradientUnits="userSpaceOnUse">
				<stop  offset="0" style="stop-color:#FBDCCC;stop-opacity:0"/>
				<stop  offset="1" style="stop-color:#EEBAA4"/>
			</radialGradient>
			<path class="st31" d="M-9.7,482.4c0,0-7-5.5-11.8-10.5c-3-2.5-4.6-3.7-5.7-4.5c-2-1.7-6.5-4.8-8.6-5.7c-0.8-0.3-6.9,2.6-10,3.9
				c-3.2,2.3-6.8,5.1-7.6,5.3c0,0-3.4,1.8-3.7,2.1s-0.7,1.1,4,0.7c1.4-0.1,4.1-1.7,5.5-2.2c1.2-0.4,2.5-0.9,3.7-1.2
				c-1,1.3-3.5,5.6-3.5,5.6s-2.4,6.8-3.4,9.3c-0.3,0.8,0,1,0.3,0.9c0.5-0.2,2.9-0.9,3.5-2.5s-1,2.8-1,2.8s0.1,0.5,0.9,0.3
				c0.9-0.2,2.4-1,3.3-2.2l-1.2,2.4c0,0,1.3,1.2,3.4-1.3c0.9-1,1.1-1.2,2-2.6c0.4-0.6,3.7-3.6,3.7-3.6s2.4,1.9,2.9,2.4
				c2.2,1.7,3.2,2,5.2,3.1s4.8,0.5,7.6,0.6l10.2-1.6C-7.9,481.6-9.7,482.4-9.7,482.4z"/>
		</g>
		<path class="st28" d="M-46.5,473.4"/>
		<path class="st28" d="M-47,483.6c0,0,2.9-7.3,3-7.4c3-3.3,5.7-4.4,6.6-5.3c0,0-6,5.1-6.4,5.9c-0.4,0.8-3.2,7.4-3.2,7.4L-47,483.6z
			"/>
		<path class="st28" d="M-43.7,484.4c0,0,3.2-6.4,3.5-6.8c2.2-2.5,5.3-3.7,5.7-4c0,0-4.9,3.4-5.2,3.9s-4.1,7.6-4.1,7.6"/>
		<path class="st28" d="M-44.3,471.2c0.3-0.3,3.9-3.3,4.3-4.1c0,0-2.3,1.9-3,2.4s-1,1-1,1L-44.3,471.2z"/>
		
			<linearGradient id="SVGID_23_" gradientUnits="userSpaceOnUse" x1="-64.65" y1="538.0288" x2="-52.4905" y2="533.8525" gradientTransform="matrix(0.9997 -2.503904e-02 -2.503904e-02 -0.9997 19.5664 1001.8979)">
			<stop  offset="0" style="stop-color:#FFFFFF;stop-opacity:0"/>
			<stop  offset="1" style="stop-color:#D08B71"/>
		</linearGradient>
		<path class="st32" d="M-38.3,464.5c-1.1,0-1.7,2.5-2.8,2.8c0.1-0.2,0.1-0.4,0.1-0.6c-1.8,1.3-3.5,2.6-5.4,3.5
			c-1.7,0.8-3.5,1.5-5.4,2.1c-1.4,0.4-2.7,0.6-4.1,0.8c-0.3,0-0.7,0-1.1,0.1c-0.3,0.3-0.3,1,4.1,0.6c1.4-0.1,4.1-1.7,5.5-2.2
			c1.2-0.4,2.5-0.9,3.7-1.2c-0.1,0.1-0.2,0.2-0.3,0.4c0.4-0.2,0.8-0.4,1.2-0.6l2.8-2.8C-39.4,466.7-38.6,465.4-38.3,464.5z"/>
		
			<linearGradient id="SVGID_24_" gradientUnits="userSpaceOnUse" x1="-54.3907" y1="526.4695" x2="-49.3465" y2="524.737" gradientTransform="matrix(0.9997 -2.503904e-02 -2.503904e-02 -0.9997 19.5664 1001.8979)">
			<stop  offset="0" style="stop-color:#FFFFFF;stop-opacity:0"/>
			<stop  offset="1" style="stop-color:#D08B71"/>
		</linearGradient>
		<path class="st33" d="M-44,475.4c-2.3,2.6-3.5,6.4-4.9,9.7c-0.1,0.2-0.2,0.4-0.3,0.7c0.6-0.3,1.3-0.7,1.8-1.2
			c0.1-0.2,0.2-0.5,0.2-0.6c0.3-1,0.9-2,1.4-3c0.5-1.1,0.7-2.2,1.2-3.2c0.6-1.2,1.6-2,2.5-2.9c0.6-0.6,1.3-1.1,1.9-1.5l1.5-1.6
			c0.2-0.1,0.6-0.5,0.8-0.9C-40,471.6-42.4,473.6-44,475.4z"/>
		
			<linearGradient id="SVGID_25_" gradientUnits="userSpaceOnUse" x1="-50.4998" y1="524.8235" x2="-46.0552" y2="523.2969" gradientTransform="matrix(0.9997 -2.503904e-02 -2.503904e-02 -0.9997 19.5664 1001.8979)">
			<stop  offset="0" style="stop-color:#FFFFFF;stop-opacity:0"/>
			<stop  offset="1" style="stop-color:#D08B71"/>
		</linearGradient>
		<path class="st34" d="M-35.3,473.9c-1.3,0.5-2.6,1.5-3.9,2.2c-0.5,0.3-1.2,0.7-1.7,1.1c-0.3,0.4-0.5,1.1-0.7,1.6
			c-0.5,1.4-1,2.7-1.7,4c-0.3,0.6-0.7,1.1-1.1,1.7c-0.2,0.3-0.9,1.3-0.2,1.1c0.5-0.2,1.4-1.7,1.8-2.2c0.5-0.7,0.9-1.6,1.2-2.4
			c0.3-0.7,0.5-1.5,0.8-2.3c0.7-1.6,2.1-2.3,3.5-3"/>
		
			<linearGradient id="SVGID_26_" gradientUnits="userSpaceOnUse" x1="-54.0989" y1="525.6368" x2="-35.021" y2="519.0842" gradientTransform="matrix(0.9997 -2.503904e-02 -2.503904e-02 -0.9997 19.5664 1001.8979)">
			<stop  offset="0" style="stop-color:#FFFFFF;stop-opacity:0"/>
			<stop  offset="1" style="stop-color:#D08B71"/>
		</linearGradient>
		<path class="st35" d="M-19.2,485.1c-0.8-0.8-2.5,0.3-3-0.8c-0.5-1-2.9-1.6-3.7-2.3c-1.5-1.4-2.4-1.6-3.6-3.5
			c-0.7-1-0.5-3.8-1.7-3.7c-0.1,1.4-1,0.9-0.9,1.9c0.1,0.9-2.8,2.6-3,1.7c-0.3-0.9-0.6-1-0.6-0.7c0,0.2,0.1,0.7-0.2,1
			c-0.3,0.3-0.8,0.2-0.9,0.1c-0.4-0.2-0.3,0.1-0.6,0.9c-0.1,0.2-2.5,3.3-3.5,4.6c-1,1.3-2.2,2.2-3,2.5c-0.2,0.1-0.4,0.2-0.6,0.2
			c0.5,0.2,1.6,0.4,3.1-1.4c0.9-1,1.1-1.2,2-2.6c0.4-0.6,3.7-3.6,3.7-3.6s2.4,1.9,2.9,2.4c2.2,1.7,3.2,2,5.2,3.1s4.8,0.5,7.6,0.6
			l1.1-0.1C-19,485.3-19.1,485.2-19.2,485.1z"/>
		<path class="st29" d="M-35.7,461.8c0,0-0.1,0-0.2,0c0.2,0.1,0.3,0.3,0.4,0.6c0.1,0.4,0.2,0.8,0.3,1.2c0.3,0.5,0.9,0.9,1.3,1.3
			c0.4,0.5,0.8,1.1,1.1,1.8c0.5,1,0.8,2,1,3.1s0.3,2.2,0.5,3.3c0.2,1.1,0.1,1.4,0.6,2.3c0.8,1.2-5.9,3.5-4.9,4.5
			c1.1,1.1,7.4,4.7,9.1,5.5c1.4,0.3,2.9,0.3,4.6,0.2c1.1-0.4,2.1-0.8,2.7-0.7c0.7,0.1,1.4,0.3,2.2,0.1l6.9-1c1.8-2-0.1-1.4-0.1-1.4
			s-14.1-11.6-17.6-14.7C-30.1,465.9-34.2,462.4-35.7,461.8z"/>
		
			<linearGradient id="SVGID_27_" gradientUnits="userSpaceOnUse" x1="-4.9962" y1="339.2105" x2="-40.3726" y2="358.9906" gradientTransform="matrix(0.9968 8.016572e-02 8.016572e-02 -0.9968 -50.3996 822.7083)">
			<stop  offset="0.2263" style="stop-color:#FFFFFF;stop-opacity:0"/>
			<stop  offset="1" style="stop-color:#FFFFFF"/>
		</linearGradient>
		<path class="st36" d="M-45.7,465.7c-3.2,2.3-6.8,5.1-7.6,5.3c0,0-3.4,1.8-3.7,2.1c0,0,0,0-0.1,0.1c2.5,0.6,10.2-5.3,11.9-6.5
			c1.8-1.3,5.1-2.6,6.5-2.7c1.3-0.1,0.1,0.6-0.4,1.6s-1.7,2.5-2.4,3.3c-0.4,0.5-1.5,1.1-2.4,1.6c-1,1.3-3.5,5.6-3.5,5.6
			s-2.4,6.8-3.4,9.3c-0.3,0.8-0.1,1,0.2,0.9c0.1-0.1,0.2-0.3,0.3-0.7c0.2-0.7,0.4-1.2,2.5-6.5c2-5.3,5.2-8.1,7.8-9.7
			c2.7-1.6,4.5,1.1,5.6,2.1c1.1,0.9,1.5,0.6,1.7-0.1c0.2-0.7-1.1-5-1.4-6.2c-0.3-1.1-1.1-1.1-1.5-2.1c-0.3-1.1-0.2-1.3-0.2-1.3
			C-36.5,461.5-42.6,464.4-45.7,465.7z"/>
		
			<linearGradient id="SVGID_28_" gradientUnits="userSpaceOnUse" x1="-15.1226" y1="341.045" x2="-19.3393" y2="343.4027" gradientTransform="matrix(0.9968 8.016572e-02 8.016572e-02 -0.9968 -50.3996 822.7083)">
			<stop  offset="0.2263" style="stop-color:#FFFFFF;stop-opacity:0"/>
			<stop  offset="1" style="stop-color:#FFFFFF"/>
		</linearGradient>
		<path class="st37" d="M-34.6,473.9c0.5,0-4,3.1-4.4,3.6s-0.2,0.3-0.4,1.1c-0.3,0.8-5.4,8.3-5.4,8.5c0,0,4.7-8.9,5-9.3
			C-39.6,477.3-35.6,473.8-34.6,473.9z"/>
		
			<linearGradient id="SVGID_29_" gradientUnits="userSpaceOnUse" x1="-18.5598" y1="342.4883" x2="-22.8587" y2="344.892" gradientTransform="matrix(0.9968 8.016572e-02 8.016572e-02 -0.9968 -50.3996 822.7083)">
			<stop  offset="0.2263" style="stop-color:#FFFFFF;stop-opacity:0"/>
			<stop  offset="1" style="stop-color:#FFFFFF"/>
		</linearGradient>
		<path class="st38" d="M-37.7,471.3c0,0-4.8,4.6-5.3,5.2c-0.5,0.6-2,5.2-2.9,7.1s-1.5,2.8-1.6,3s-0.3,0-0.3,0s3-8.2,4-9.7
			C-42.8,475.3-37.7,471.3-37.7,471.3z"/>
	</g>
</g>
<path class="st39" d="M-3.4,379.7c0,0,6.5,2.3,11.8-2.1"/>
<path class="st40" d="M-22.7,324.5c0,0-0.7-3.5-2.2-3.7c-1.5-0.2-9.6,3.2-12.3,6.1c-1.8,1.9-2.5,4.6-2,8.2c0,0,0.4-4.3,3.8-6.5
	C-31.9,326.5-23.8,325-22.7,324.5z"/>
<path class="st40" d="M13.9,324.8c0,0-1.4-3.3-0.3-4.3s9.8-2.6,13.6-1.7c2.5,0.6,4.6,2.4,6.3,5.7c0,0-2.7-3.4-6.8-3.3
	C22.6,321.4,15,324.6,13.9,324.8z"/>
<path class="st41" d="M16.9,337.4c0,0.6,0,1.1,0.1,1.7c0.6,3.4,3.5,5.8,6.5,5.3s4.9-3.7,4.3-7.2c-0.1-0.6-0.3-1.1-0.5-1.6
	L16.9,337.4z"/>
<path class="st41" d="M-32.9,346.1c0,0.6,0,1.1,0.1,1.7c0.6,3.4,3.5,5.8,6.5,5.3s4.9-3.7,4.3-7.2c-0.1-0.6-0.3-1.1-0.5-1.6
	L-32.9,346.1z"/>
</svg>
