<?xml version="1.0" encoding="utf-8"?>
<!-- Generator: Adobe Illustrator 19.1.0, SVG Export Plug-In . SVG Version: 6.00 Build 0)  -->
<!DOCTYPE svg PUBLIC "-//W3C//DTD SVG 1.1//EN" "http://www.w3.org/Graphics/SVG/1.1/DTD/svg11.dtd">
<svg version="1.1" id="Layer_1" xmlns="http://www.w3.org/2000/svg" xmlns:xlink="http://www.w3.org/1999/xlink" x="0px" y="0px"
	 viewBox="0 0 1000 1000" style="enable-background:new 0 0 1000 1000;" xml:space="preserve">
<style type="text/css">
	.st0{opacity:0.15;enable-background:new    ;}
	.st1{clip-path:url(#SVGID_2_);}
	.st2{clip-path:url(#SVGID_4_);}
	.st3{clip-path:url(#SVGID_6_);fill:#3F3F3F;}
	.st4{clip-path:url(#SVGID_8_);fill:#3F3F3F;}
	.st5{clip-path:url(#SVGID_10_);fill:#E9E9E9;}
	.st6{clip-path:url(#SVGID_12_);fill:#E9E9E9;}
	.st7{clip-path:url(#SVGID_14_);fill:#FFFFFF;}
	.st8{clip-path:url(#SVGID_16_);fill:#B5B4B4;}
	.st9{clip-path:url(#SVGID_18_);fill:#C23133;}
	.st10{clip-path:url(#SVGID_20_);fill:#58595B;}
	.st11{fill:#FFFFFF;}
	.st12{fill:none;stroke:#FDFEFF;stroke-width:5;stroke-miterlimit:10;}
	.st13{clip-path:url(#SVGID_22_);fill:#D5D7D8;}
	.st14{clip-path:url(#SVGID_24_);fill:#FFFFFF;}
	.st15{clip-path:url(#SVGID_26_);fill:#FFFFFF;}
	.st16{clip-path:url(#SVGID_28_);fill:#FFFFFF;}
	.st17{clip-path:url(#SVGID_30_);fill:#8DC63F;}
	.st18{clip-path:url(#SVGID_32_);fill:#C23133;}
	.st19{clip-path:url(#SVGID_34_);fill:#C23133;}
	.st20{clip-path:url(#SVGID_36_);fill:#C23133;}
	.st21{clip-path:url(#SVGID_38_);fill:#C23133;}
	.st22{clip-path:url(#SVGID_40_);fill:#FFFFFF;}
	.st23{fill:none;stroke:#010101;stroke-width:4;stroke-linecap:round;stroke-linejoin:round;stroke-miterlimit:10;}
	.st24{clip-path:url(#SVGID_42_);fill:#C13133;}
	.st25{clip-path:url(#SVGID_44_);fill:#F5C119;}
	.st26{clip-path:url(#SVGID_46_);fill:#F5C119;}
	.st27{clip-path:url(#SVGID_48_);fill:#F5C119;}
	.st28{clip-path:url(#SVGID_50_);fill:#F5C119;}
	.st29{clip-path:url(#SVGID_52_);fill:#F5C119;}
	.st30{clip-path:url(#SVGID_54_);fill:#F5C119;}
	.st31{clip-path:url(#SVGID_56_);fill:#F5C119;}
	.st32{clip-path:url(#SVGID_58_);fill:#F5C119;}
	.st33{clip-path:url(#SVGID_60_);fill:#F5C119;}
	.st34{clip-path:url(#SVGID_62_);fill:#C23133;}
	.st35{clip-path:url(#SVGID_64_);fill:#C23133;}
	.st36{clip-path:url(#SVGID_66_);fill:#939598;}
	.st37{fill:none;stroke:#010101;stroke-width:2;stroke-linecap:round;stroke-linejoin:round;stroke-miterlimit:10;}
	.st38{fill:#1E448B;}
	.st39{fill:#F8F7F8;}
	.st40{fill:none;stroke:#FFFFFF;stroke-width:3;stroke-linecap:round;stroke-linejoin:round;stroke-miterlimit:10;}
</style>
<g class="st0">
	<g>
		<defs>
			<rect id="SVGID_1_" x="8" y="732.7" width="984" height="28"/>
		</defs>
		<clipPath id="SVGID_2_">
			<use xlink:href="#SVGID_1_"  style="overflow:visible;"/>
		</clipPath>
		<g class="st1">
			<defs>
				<path id="SVGID_3_" d="M500,733.2c271.4,0,491.3,6.1,491.3,13.7c0,7.6-219.9,13.7-491.3,13.7S8.7,754.5,8.7,746.8
					C8.7,739.2,228.7,733.2,500,733.2z"/>
			</defs>
			<clipPath id="SVGID_4_">
				<use xlink:href="#SVGID_3_"  style="overflow:visible;"/>
			</clipPath>
			<g class="st2">
				<defs>
					<rect id="SVGID_5_" x="8" y="732.7" width="984" height="28"/>
				</defs>
				<clipPath id="SVGID_6_">
					<use xlink:href="#SVGID_5_"  style="overflow:visible;"/>
				</clipPath>
				<rect x="3.7" y="728.2" class="st3" width="992.6" height="37.4"/>
			</g>
		</g>
	</g>
</g>
<g>
	<defs>
		<path id="SVGID_7_" d="M500,709.3H145.2V263.5c0-13.4,10.9-24.2,24.2-24.2H500h312.4c13.4,0,24.2,10.9,24.2,24.2v445.8H500z"/>
	</defs>
	<clipPath id="SVGID_8_">
		<use xlink:href="#SVGID_7_"  style="overflow:visible;"/>
	</clipPath>
	<rect x="140.2" y="234.4" class="st4" width="701.4" height="480"/>
</g>
<g>
	<defs>
		<path id="SVGID_9_" d="M927.7,709.3c0,20.1-16,36.5-35.7,36.5H90c-19.7,0-35.7-16.2-35.7-36.5H927.7z"/>
	</defs>
	<clipPath id="SVGID_10_">
		<use xlink:href="#SVGID_9_"  style="overflow:visible;"/>
	</clipPath>
	<rect x="49.3" y="704.3" class="st5" width="883.4" height="46.5"/>
</g>
<g>
	<defs>
		<path id="SVGID_11_" d="M501.6,245.7c3.2,0,5.7,2.5,5.7,5.7s-2.5,5.7-5.7,5.7c-3.2,0-5.7-2.5-5.7-5.7S498.4,245.7,501.6,245.7z"/>
	</defs>
	<clipPath id="SVGID_12_">
		<use xlink:href="#SVGID_11_"  style="overflow:visible;"/>
	</clipPath>
	<rect x="490.9" y="240.7" class="st6" width="21.4" height="21.4"/>
</g>
<g>
	<defs>
		<rect id="SVGID_13_" x="163.4" y="263.5" width="655.1" height="421.6"/>
	</defs>
	<clipPath id="SVGID_14_">
		<use xlink:href="#SVGID_13_"  style="overflow:visible;"/>
	</clipPath>
	<rect x="158.4" y="258.5" class="st7" width="665.1" height="431.6"/>
</g>
<g>
	<defs>
		<path id="SVGID_15_" d="M551.6,709.3c0,6.7-5.6,12.1-12.4,12.1h-96.6c-6.8,0-12.4-5.5-12.4-12.1H551.6z"/>
	</defs>
	<clipPath id="SVGID_16_">
		<use xlink:href="#SVGID_15_"  style="overflow:visible;"/>
	</clipPath>
	<rect x="425.2" y="704.3" class="st8" width="131.4" height="22.1"/>
</g>
<g>
	<defs>
		<rect id="SVGID_17_" x="163.4" y="263.5" width="655.1" height="56.6"/>
	</defs>
	<use xlink:href="#SVGID_17_"  style="overflow:visible;fill-rule:evenodd;clip-rule:evenodd;fill:#C23133;"/>
	<clipPath id="SVGID_18_">
		<use xlink:href="#SVGID_17_"  style="overflow:visible;"/>
	</clipPath>
	<rect x="158.4" y="258.5" class="st9" width="665.1" height="66.6"/>
</g>
<g>
	<defs>
		<rect id="SVGID_19_" x="163.4" y="320.1" width="655.1" height="21.4"/>
	</defs>
	<use xlink:href="#SVGID_19_"  style="overflow:visible;fill-rule:evenodd;clip-rule:evenodd;fill:#58595B;"/>
	<clipPath id="SVGID_20_">
		<use xlink:href="#SVGID_19_"  style="overflow:visible;"/>
	</clipPath>
	<rect x="158.4" y="315.1" class="st10" width="665.1" height="31.4"/>
</g>
<g>
	<path class="st11" d="M207.8,288.1c0,3.3-1,5.8-2.9,7.6c-1.9,1.8-4.7,2.7-8.2,2.7h-2.2v9.7h-7.9v-29.3h10.1c3.7,0,6.5,0.8,8.3,2.4
		C206.9,282.8,207.8,285.1,207.8,288.1z M194.5,291.9h1.4c1.2,0,2.1-0.3,2.8-1c0.7-0.7,1.1-1.6,1.1-2.8c0-2-1.1-3-3.3-3h-2V291.9z"
		/>
	<path class="st11" d="M226.8,308l-1.5-3h-0.2c-1.1,1.3-2.1,2.2-3.2,2.7c-1.1,0.5-2.5,0.7-4.2,0.7c-2.1,0-3.8-0.6-5-1.9
		c-1.2-1.3-1.8-3.1-1.8-5.4c0-2.4,0.8-4.2,2.5-5.4c1.7-1.2,4.1-1.8,7.3-2l3.8-0.1v-0.3c0-1.9-0.9-2.8-2.8-2.8
		c-1.7,0-3.8,0.6-6.3,1.7l-2.3-5.2c2.6-1.4,6-2,10-2c2.9,0,5.2,0.7,6.8,2.2c1.6,1.4,2.4,3.5,2.4,6V308H226.8z M221,302.9
		c0.9,0,1.8-0.3,2.4-0.9c0.7-0.6,1-1.4,1-2.3v-1.8l-1.8,0.1c-2.6,0.1-3.9,1-3.9,2.8C218.8,302.2,219.5,302.9,221,302.9z"/>
	<path class="st11" d="M251.9,308v-12.4c0-1.5-0.2-2.6-0.7-3.4c-0.4-0.8-1.1-1.2-2.1-1.2c-1.3,0-2.3,0.5-2.9,1.6
		c-0.6,1.1-0.9,2.9-0.9,5.4v9.9h-7.8v-22.7h5.9l1,2.8h0.5c0.7-1.1,1.6-1.9,2.8-2.4c1.2-0.5,2.5-0.8,4.1-0.8c2.5,0,4.5,0.7,5.9,2.2
		c1.4,1.5,2.1,3.5,2.1,6.1V308H251.9z"/>
	<path class="st11" d="M276.1,302.2c1.1,0,2.3-0.3,3.8-0.8v5.7c-1.1,0.5-2.1,0.8-3,1s-2.1,0.3-3.4,0.3c-2.6,0-4.5-0.6-5.7-1.9
		s-1.7-3.3-1.7-5.9v-9.3h-2.7V288l3.5-2.5l2-4.8h5.1v4.5h5.6v5.9H274v8.8C274,301.5,274.7,302.2,276.1,302.2z"/>
	<path class="st11" d="M301.4,301c0,2.4-0.8,4.3-2.5,5.5c-1.7,1.2-4,1.9-7.1,1.9c-1.7,0-3.1-0.1-4.4-0.3c-1.2-0.2-2.5-0.5-3.8-1
		v-6.3c1.2,0.5,2.5,1,4,1.3c1.4,0.3,2.7,0.5,3.9,0.5c1.7,0,2.5-0.4,2.5-1.2c0-0.4-0.2-0.8-0.7-1.1c-0.5-0.3-1.9-0.9-4.1-1.8
		c-2.1-0.9-3.5-1.8-4.4-2.9c-0.8-1.1-1.2-2.5-1.2-4.1c0-2.1,0.8-3.8,2.4-4.9c1.6-1.2,3.9-1.8,6.9-1.8c1.5,0,2.9,0.2,4.2,0.5
		s2.7,0.8,4.1,1.4l-2.1,5c-1-0.5-2.1-0.9-3.3-1.2s-2.1-0.5-2.8-0.5c-1.3,0-1.9,0.3-1.9,0.9c0,0.4,0.2,0.7,0.7,1
		c0.4,0.3,1.7,0.8,3.9,1.7c1.6,0.7,2.8,1.3,3.6,1.9c0.8,0.6,1.4,1.4,1.7,2.2S301.4,299.8,301.4,301z"/>
	<path class="st11" d="M331.1,292.8c0,4.9-1.3,8.6-4,11.3c-2.7,2.6-6.5,4-11.3,4h-9.5v-29.3h10.1c4.7,0,8.3,1.2,10.9,3.6
		C329.8,284.7,331.1,288.2,331.1,292.8z M322.9,293c0-2.7-0.5-4.7-1.6-6c-1.1-1.3-2.7-1.9-4.8-1.9h-2.3v16.4h1.8
		c2.4,0,4.2-0.7,5.3-2.1S322.9,295.9,322.9,293z"/>
	<path class="st11" d="M346.8,308.4c-3.8,0-6.7-1-8.8-3s-3.1-4.9-3.1-8.6c0-3.8,1-6.8,2.9-8.8c1.9-2,4.7-3.1,8.3-3.1
		c3.4,0,6.1,0.9,7.9,2.7c1.9,1.8,2.8,4.3,2.8,7.7v3.5h-14c0.1,1.3,0.5,2.3,1.4,3s2.1,1.1,3.6,1.1c1.4,0,2.6-0.1,3.8-0.4
		c1.2-0.3,2.4-0.7,3.8-1.3v5.6c-1.2,0.6-2.5,1.1-3.8,1.3C350.2,308.3,348.6,308.4,346.8,308.4z M346.3,290.3c-0.9,0-1.7,0.3-2.3,0.9
		c-0.6,0.6-1,1.5-1.1,2.7h6.7c0-1.1-0.3-2-0.9-2.6C348.1,290.6,347.3,290.3,346.3,290.3z"/>
	<path class="st11" d="M374.8,308.4c-1.1,0-2.2-0.2-3.1-0.6c-0.9-0.4-1.8-1.1-2.7-2.1h-0.4c0.2,1.6,0.4,2.6,0.4,3v9.1h-7.8v-32.5
		h6.4l1.1,2.9h0.4c1.5-2.2,3.5-3.3,6-3.3c2.5,0,4.5,1,5.9,3.1c1.4,2.1,2.1,4.9,2.1,8.6c0,3.7-0.7,6.5-2.2,8.6
		C379.4,307.4,377.4,308.4,374.8,308.4z M372.2,291.1c-1.1,0-2,0.4-2.4,1.2c-0.5,0.8-0.7,2-0.8,3.7v0.6c0,1.9,0.3,3.4,0.8,4.2
		c0.5,0.9,1.3,1.3,2.5,1.3c1,0,1.7-0.4,2.2-1.3c0.5-0.9,0.7-2.3,0.7-4.3c0-1.9-0.2-3.3-0.7-4.2C374,291.5,373.2,291.1,372.2,291.1z"
		/>
	<path class="st11" d="M409.2,296.6c0,3.7-1,6.6-3,8.7c-2,2.1-4.8,3.1-8.4,3.1c-3.4,0-6.2-1.1-8.2-3.2c-2-2.1-3.1-5-3.1-8.6
		c0-3.7,1-6.6,3-8.6c2-2,4.8-3.1,8.4-3.1c2.2,0,4.2,0.5,5.9,1.4c1.7,0.9,3,2.3,4,4.1C408.8,292.2,409.2,294.3,409.2,296.6z
		 M394.5,296.6c0,1.9,0.3,3.4,0.8,4.5c0.5,1,1.4,1.5,2.6,1.5c1.2,0,2.1-0.5,2.6-1.5c0.5-1,0.8-2.5,0.8-4.5c0-1.9-0.3-3.4-0.8-4.4
		c-0.5-1-1.4-1.5-2.6-1.5c-1.2,0-2.1,0.5-2.6,1.5C394.8,293.2,394.5,294.7,394.5,296.6z"/>
	<path class="st11" d="M424.8,302.2c1.1,0,2.3-0.3,3.8-0.8v5.7c-1.1,0.5-2.1,0.8-3,1s-2.1,0.3-3.4,0.3c-2.6,0-4.5-0.6-5.7-1.9
		s-1.7-3.3-1.7-5.9v-9.3H412V288l3.5-2.5l2-4.8h5.1v4.5h5.6v5.9h-5.6v8.8C422.7,301.5,423.4,302.2,424.8,302.2z"/>
	<path class="st11" d="M431.6,304.7c0-1.2,0.4-2.2,1.1-2.8c0.7-0.7,1.8-1,3.2-1c1.3,0,2.3,0.3,3,1c0.7,0.7,1.1,1.6,1.1,2.8
		c0,1.2-0.4,2.1-1.1,2.8c-0.7,0.7-1.7,1-3,1c-1.3,0-2.4-0.3-3.1-1C431.9,306.8,431.6,305.9,431.6,304.7z"/>
	<path class="st11" d="M454.7,308.4c-3.7,0-6.5-1-8.4-3c-1.9-2-2.9-4.9-2.9-8.6c0-3.8,1-6.7,3.1-8.7c2.1-2.1,5-3.1,8.8-3.1
		c2.6,0,5.1,0.6,7.4,1.7l-2.3,5.8c-0.9-0.4-1.8-0.7-2.6-1c-0.8-0.2-1.6-0.4-2.5-0.4c-1.3,0-2.2,0.5-2.9,1.5c-0.7,1-1,2.4-1,4.2
		c0,3.6,1.3,5.4,4,5.4c2.3,0,4.5-0.7,6.6-2v6.2C460,307.7,457.5,308.4,454.7,308.4z"/>
	<path class="st11" d="M488.2,296.6c0,3.7-1,6.6-3,8.7c-2,2.1-4.8,3.1-8.4,3.1c-3.4,0-6.2-1.1-8.2-3.2c-2-2.1-3.1-5-3.1-8.6
		c0-3.7,1-6.6,3-8.6c2-2,4.8-3.1,8.4-3.1c2.2,0,4.2,0.5,5.9,1.4c1.7,0.9,3,2.3,4,4.1C487.7,292.2,488.2,294.3,488.2,296.6z
		 M473.5,296.6c0,1.9,0.3,3.4,0.8,4.5c0.5,1,1.4,1.5,2.6,1.5c1.2,0,2.1-0.5,2.6-1.5c0.5-1,0.8-2.5,0.8-4.5c0-1.9-0.3-3.4-0.8-4.4
		c-0.5-1-1.4-1.5-2.6-1.5c-1.2,0-2.1,0.5-2.6,1.5C473.7,293.2,473.5,294.7,473.5,296.6z"/>
	<path class="st11" d="M520.5,308v-12.3c0-1.5-0.2-2.7-0.6-3.5c-0.4-0.8-1.1-1.2-2-1.2c-1.2,0-2.1,0.5-2.6,1.5
		c-0.6,1-0.8,2.6-0.8,4.8V308h-7.8v-12.3c0-1.5-0.2-2.7-0.6-3.5s-1-1.2-1.9-1.2c-1.2,0-2.1,0.5-2.7,1.6c-0.6,1.1-0.8,2.9-0.8,5.4
		v9.9h-7.8v-22.7h5.9l1,2.8h0.5c0.6-1,1.5-1.8,2.6-2.4c1.1-0.5,2.4-0.8,3.9-0.8c3.3,0,5.6,1,6.9,3h0.6c0.6-0.9,1.5-1.7,2.7-2.2
		c1.1-0.5,2.4-0.8,3.8-0.8c2.7,0,4.7,0.7,5.9,2.1c1.3,1.4,1.9,3.5,1.9,6.3V308H520.5z"/>
</g>
<line class="st12" x1="186" y1="330.9" x2="222" y2="330.9"/>
<line class="st12" x1="248.7" y1="330.9" x2="284.7" y2="330.9"/>
<line class="st12" x1="299.4" y1="330.9" x2="359.4" y2="330.9"/>
<g>
	<defs>
		<rect id="SVGID_21_" x="163.4" y="341.5" width="655.1" height="343.6"/>
	</defs>
	<clipPath id="SVGID_22_">
		<use xlink:href="#SVGID_21_"  style="overflow:visible;"/>
	</clipPath>
	<rect x="158.4" y="336.5" class="st13" width="665.1" height="353.6"/>
</g>
<g>
	<defs>
		<rect id="SVGID_23_" x="292" y="356" width="357.8" height="49.6"/>
	</defs>
	<clipPath id="SVGID_24_">
		<use xlink:href="#SVGID_23_"  style="overflow:visible;"/>
	</clipPath>
	<rect x="285.4" y="351" class="st14" width="371.1" height="59.6"/>
</g>
<g>
	<defs>
		<rect id="SVGID_25_" x="709.8" y="356" width="82.7" height="54.4"/>
	</defs>
	<clipPath id="SVGID_26_">
		<use xlink:href="#SVGID_25_"  style="overflow:visible;"/>
	</clipPath>
	<rect x="706.7" y="355.2" class="st15" width="88.8" height="56.1"/>
</g>
<g>
	<defs>
		<rect id="SVGID_27_" x="474.6" y="433.2" width="173.9" height="206.2"/>
	</defs>
	<clipPath id="SVGID_28_">
		<use xlink:href="#SVGID_27_"  style="overflow:visible;"/>
	</clipPath>
	<rect x="468.2" y="430.1" class="st16" width="186.7" height="212.5"/>
</g>
<g>
	<defs>
		<rect id="SVGID_29_" x="717.9" y="367.4" width="48" height="31.6"/>
	</defs>
	<use xlink:href="#SVGID_29_"  style="overflow:visible;fill-rule:evenodd;clip-rule:evenodd;fill:#8DC63F;"/>
	<clipPath id="SVGID_30_">
		<use xlink:href="#SVGID_29_"  style="overflow:visible;"/>
	</clipPath>
	<rect x="716.1" y="367" class="st17" width="51.6" height="32.6"/>
</g>
<g>
	<defs>
		<rect id="SVGID_31_" x="664.5" y="443.5" width="128" height="33.7"/>
	</defs>
	<use xlink:href="#SVGID_31_"  style="overflow:visible;fill-rule:evenodd;clip-rule:evenodd;fill:#C23133;"/>
	<clipPath id="SVGID_32_">
		<use xlink:href="#SVGID_31_"  style="overflow:visible;"/>
	</clipPath>
	<rect x="663.5" y="440.6" class="st18" width="129.9" height="39.7"/>
</g>
<g>
	<defs>
		<rect id="SVGID_33_" x="664.5" y="496.5" width="128" height="33.7"/>
	</defs>
	<use xlink:href="#SVGID_33_"  style="overflow:visible;fill-rule:evenodd;clip-rule:evenodd;fill:#C23133;"/>
	<clipPath id="SVGID_34_">
		<use xlink:href="#SVGID_33_"  style="overflow:visible;"/>
	</clipPath>
	<rect x="663.5" y="493.5" class="st19" width="129.9" height="39.7"/>
</g>
<g>
	<defs>
		<rect id="SVGID_35_" x="664.5" y="550.2" width="128" height="33.7"/>
	</defs>
	<use xlink:href="#SVGID_35_"  style="overflow:visible;fill-rule:evenodd;clip-rule:evenodd;fill:#C23133;"/>
	<clipPath id="SVGID_36_">
		<use xlink:href="#SVGID_35_"  style="overflow:visible;"/>
	</clipPath>
	<rect x="663.5" y="547.2" class="st20" width="129.9" height="39.7"/>
</g>
<g>
	<defs>
		<rect id="SVGID_37_" x="664.5" y="604.1" width="128" height="33.7"/>
	</defs>
	<use xlink:href="#SVGID_37_"  style="overflow:visible;fill-rule:evenodd;clip-rule:evenodd;fill:#C23133;"/>
	<clipPath id="SVGID_38_">
		<use xlink:href="#SVGID_37_"  style="overflow:visible;"/>
	</clipPath>
	<rect x="663.5" y="601.1" class="st21" width="129.9" height="39.7"/>
</g>
<g>
	<defs>
		<rect id="SVGID_39_" x="291.6" y="433.7" width="166.5" height="206.5"/>
	</defs>
	<clipPath id="SVGID_40_">
		<use xlink:href="#SVGID_39_"  style="overflow:visible;"/>
	</clipPath>
	<rect x="285.4" y="430.6" class="st22" width="178.8" height="212.8"/>
</g>
<line class="st12" x1="374.2" y1="330.9" x2="410" y2="330.9"/>
<line class="st12" x1="679.8" y1="460.4" x2="739.8" y2="460.4"/>
<line class="st12" x1="679.8" y1="513.3" x2="739.8" y2="513.3"/>
<line class="st12" x1="679.8" y1="567" x2="739.8" y2="567"/>
<line class="st12" x1="679.8" y1="620.9" x2="739.8" y2="620.9"/>
<line class="st23" x1="517.2" y1="503.3" x2="553.2" y2="503.3"/>
<line class="st23" x1="579.9" y1="503.3" x2="605.9" y2="503.3"/>
<line class="st23" x1="517.2" y1="531.3" x2="581.2" y2="531.3"/>
<line class="st23" x1="517.2" y1="559.3" x2="553.2" y2="559.3"/>
<line class="st23" x1="569.9" y1="559.3" x2="605.9" y2="559.3"/>
<g>
	<defs>
		<rect id="SVGID_61_" x="591.9" y="385.5" width="38.1" height="11.3"/>
	</defs>
	<use xlink:href="#SVGID_61_"  style="overflow:visible;fill-rule:evenodd;clip-rule:evenodd;fill:#C23133;"/>
	<clipPath id="SVGID_42_">
		<use xlink:href="#SVGID_61_"  style="overflow:visible;"/>
	</clipPath>
	<rect x="586.9" y="380.5" style="clip-path:url(#SVGID_42_);fill:#C23133;" width="48.1" height="21.3"/>
</g>
<g>
	<defs>
		<rect id="SVGID_63_" x="591.9" y="615.3" width="38.1" height="11.3"/>
	</defs>
	<use xlink:href="#SVGID_63_"  style="overflow:visible;fill-rule:evenodd;clip-rule:evenodd;fill:#C23133;"/>
	<clipPath id="SVGID_44_">
		<use xlink:href="#SVGID_63_"  style="overflow:visible;"/>
	</clipPath>
	<rect x="586.9" y="610.3" style="clip-path:url(#SVGID_44_);fill:#C23133;" width="48.1" height="21.3"/>
</g>
<g>
	<defs>
		<rect id="SVGID_65_" x="291.6" y="356.1" width="356.9" height="11.3"/>
	</defs>
	<use xlink:href="#SVGID_65_"  style="overflow:visible;fill-rule:evenodd;clip-rule:evenodd;fill:#939598;"/>
	<clipPath id="SVGID_46_">
		<use xlink:href="#SVGID_65_"  style="overflow:visible;"/>
	</clipPath>
	<rect x="285" y="351.1" style="clip-path:url(#SVGID_46_);fill:#939598;" width="370.1" height="21.3"/>
</g>
<rect x="392.5" y="379.9" class="st37" width="189.8" height="17.9"/>
<g>
	<path d="M499.3,479.8c-2.9-0.1-5.7-0.8-8.4-2v-6.6c1.5,0.8,3.2,1.4,5,2c1.8,0.5,3.4,0.8,4.8,0.8c1.1,0,2-0.1,2.5-0.4
		c0.5-0.3,0.8-0.7,0.8-1.4c0-0.4-0.2-0.8-0.6-1.1c-0.4-0.3-1-0.7-1.9-1c-0.9-0.4-2.1-0.9-3.6-1.4c-1.7-0.6-3.1-1.3-4.1-2.1
		c-1-0.8-1.8-1.7-2.3-2.6c-0.5-1-0.7-2.2-0.7-3.6c0-2.2,0.7-3.9,2.1-5.2c1.4-1.2,3.5-2,6.4-2.3v-2.7h4.1v2.7c2.7,0.1,5.3,0.8,8,2
		l-2.4,5.7c-2.8-1.3-5.3-1.9-7.5-1.9c-1.1,0-1.8,0.1-2.3,0.4c-0.4,0.3-0.7,0.6-0.7,1.2c0,0.4,0.2,0.8,0.5,1.1s0.9,0.6,1.6,1
		c0.8,0.4,1.8,0.8,3.2,1.2c2.8,1,4.8,2.1,6,3.4c1.2,1.3,1.8,2.9,1.8,4.9c0,2.2-0.7,4.1-2.1,5.5c-1.4,1.4-3.5,2.3-6.2,2.6v3.9h-4.1
		V479.8z"/>
	<path d="M526.6,462c1.7,0,3.2,0.4,4.6,1.2c1.4,0.8,2.4,1.9,3.2,3.3c0.8,1.4,1.1,3.1,1.1,4.9c0,3.3-1,5.8-3,7.5
		c-2,1.7-4.9,2.6-8.9,2.6c-3.4,0-6.2-0.5-8.4-1.6v-6.5c1.2,0.5,2.5,1,3.9,1.3c1.5,0.3,2.7,0.5,3.8,0.5c1.5,0,2.6-0.3,3.4-0.9
		c0.8-0.6,1.2-1.5,1.2-2.8c0-1.1-0.4-2-1.2-2.6c-0.8-0.6-2-0.9-3.6-0.9c-1.2,0-2.6,0.2-4,0.7l-2.9-1.4l1.1-15.5h16.7v6.6h-10
		l-0.4,3.9c1-0.2,1.8-0.3,2.2-0.3C525.8,462,526.2,462,526.6,462z"/>
	<path d="M560,465.3c0,5.7-1.2,9.9-3.7,12.4c-2.5,2.6-6.4,3.8-11.9,3.8c-1.8,0-3.2-0.1-4.1-0.2v-6.3c1.1,0.2,2.3,0.3,3.4,0.3
		c2.8,0,5-0.6,6.5-1.8s2.4-3,2.5-5.5h-0.2c-0.5,1-1,1.7-1.5,2.1c-0.5,0.4-1.1,0.8-1.9,1c-0.7,0.2-1.6,0.3-2.7,0.3
		c-2.5,0-4.5-0.8-5.9-2.5c-1.4-1.7-2.1-4-2.1-7c0-3.2,0.9-5.8,2.8-7.6c1.8-1.8,4.4-2.8,7.6-2.8c3.6,0,6.3,1.2,8.3,3.6
		C559,457.5,560,460.9,560,465.3z M548.9,457.9c-0.9,0-1.6,0.3-2.1,0.9c-0.5,0.6-0.8,1.6-0.8,3c0,1.1,0.2,2,0.7,2.6s1.2,1,2.1,1
		c0.9,0,1.6-0.3,2.3-0.9c0.6-0.6,1-1.4,1-2.3c0-1.2-0.3-2.2-0.9-3.1C550.6,458.3,549.9,457.9,548.9,457.9z"/>
	<path d="M563,477.8c0-1.2,0.4-2.2,1.1-2.8c0.7-0.7,1.8-1,3.2-1c1.3,0,2.3,0.3,3,1c0.7,0.7,1.1,1.6,1.1,2.8c0,1.2-0.4,2.1-1.1,2.8
		c-0.7,0.7-1.7,1-3,1c-1.3,0-2.4-0.3-3.1-1C563.4,480,563,479.1,563,477.8z"/>
	<path d="M595.9,465.3c0,5.7-1.2,9.9-3.7,12.4c-2.5,2.6-6.4,3.8-11.9,3.8c-1.8,0-3.2-0.1-4.1-0.2v-6.3c1.1,0.2,2.3,0.3,3.4,0.3
		c2.8,0,5-0.6,6.5-1.8s2.4-3,2.5-5.5h-0.2c-0.5,1-1,1.7-1.5,2.1c-0.5,0.4-1.1,0.8-1.9,1c-0.7,0.2-1.6,0.3-2.7,0.3
		c-2.5,0-4.5-0.8-5.9-2.5c-1.4-1.7-2.1-4-2.1-7c0-3.2,0.9-5.8,2.8-7.6c1.8-1.8,4.4-2.8,7.6-2.8c3.6,0,6.3,1.2,8.3,3.6
		C594.9,457.5,595.9,460.9,595.9,465.3z M584.8,457.9c-0.9,0-1.6,0.3-2.1,0.9c-0.5,0.6-0.8,1.6-0.8,3c0,1.1,0.2,2,0.7,2.6
		s1.2,1,2.1,1c0.9,0,1.6-0.3,2.3-0.9c0.6-0.6,1-1.4,1-2.3c0-1.2-0.3-2.2-0.9-3.1C586.5,458.3,585.7,457.9,584.8,457.9z"/>
	<path d="M619.9,465.3c0,5.7-1.2,9.9-3.7,12.4c-2.5,2.6-6.4,3.8-11.9,3.8c-1.8,0-3.2-0.1-4.1-0.2v-6.3c1.1,0.2,2.3,0.3,3.4,0.3
		c2.8,0,5-0.6,6.5-1.8s2.4-3,2.5-5.5h-0.2c-0.5,1-1,1.7-1.5,2.1c-0.5,0.4-1.1,0.8-1.9,1c-0.7,0.2-1.6,0.3-2.7,0.3
		c-2.5,0-4.5-0.8-5.9-2.5c-1.4-1.7-2.1-4-2.1-7c0-3.2,0.9-5.8,2.8-7.6c1.8-1.8,4.4-2.8,7.6-2.8c3.6,0,6.3,1.2,8.3,3.6
		C618.9,457.5,619.9,460.9,619.9,465.3z M608.8,457.9c-0.9,0-1.6,0.3-2.1,0.9c-0.5,0.6-0.8,1.6-0.8,3c0,1.1,0.2,2,0.7,2.6
		s1.2,1,2.1,1c0.9,0,1.6-0.3,2.3-0.9c0.6-0.6,1-1.4,1-2.3c0-1.2-0.3-2.2-0.9-3.1C610.5,458.3,609.8,457.9,608.8,457.9z"/>
</g>
<g>
	<path d="M530.6,578.6h7.5c2.9,0,5.1,0.4,6.5,1.3c1.4,0.9,2.1,2.2,2.1,4.1c0,1.2-0.3,2.2-0.9,3.1c-0.6,0.9-1.4,1.4-2.4,1.6v0.1
		c1.3,0.4,2.3,0.9,2.9,1.8c0.6,0.8,0.9,1.9,0.9,3.2c0,2-0.7,3.5-2.2,4.6s-3.5,1.7-6,1.7h-8.4V578.6z M536.4,586.9h1.8
		c0.8,0,1.5-0.2,1.9-0.5c0.5-0.3,0.7-0.9,0.7-1.5c0-1.2-0.9-1.8-2.7-1.8h-1.6V586.9z M536.4,591.1v4.5h2c1.8,0,2.7-0.8,2.7-2.3
		c0-0.7-0.2-1.3-0.7-1.6c-0.5-0.4-1.2-0.6-2.1-0.6H536.4z"/>
	<path d="M569.2,578.6v12.9c0,2.8-0.8,5-2.4,6.5s-3.9,2.3-6.9,2.3c-2.9,0-5.2-0.8-6.8-2.2c-1.6-1.5-2.4-3.7-2.4-6.5v-13.1h5.8v12.6
		c0,1.5,0.3,2.6,0.9,3.3c0.6,0.7,1.4,1,2.5,1c1.2,0,2-0.3,2.6-1c0.5-0.7,0.8-1.8,0.8-3.3v-12.6H569.2z"/>
	<path d="M581.4,586.6l3.7-8h6.3l-7.1,13.1v8.4h-5.9v-8.2l-7.1-13.3h6.3L581.4,586.6z"/>
</g>
<g>
	<path class="st38" d="M360.7,467h-11.4l-1.2,30.4c0.4-0.3,0.8-0.6,1.2-0.9C357.3,490.1,361.1,480.1,360.7,467z"/>
	<path class="st38" d="M396.1,496.7c0.4,0.3,0.7,0.6,1.1,0.9L395,467h-10.3C384.4,480.2,388.2,490.2,396.1,496.7z"/>
	<g>
		<path class="st38" d="M397.1,508.4l0.2-9.4c-0.5-0.4-1.1-0.8-1.6-1.2c-5.7-4.7-12.2-13.7-11.8-30.7h-22.3
			c0.4,16.9-6.1,25.9-11.8,30.5c-0.6,0.5-1.1,0.9-1.7,1.3l0.4,11.1l0.8,48.7l-1.2,52.9l14.2,0.3l4.1-53.7l7.7-59.5l8.5,60.1
			l5.4,52.8l14.4,0.3l-4.5-54.8L397.1,508.4z M375.8,498.1c0,0.2-0.1,0.4-0.3,0.4c0,0-0.1,0-0.2,0c-0.4,0-1.6-0.2-2.8-1.7
			c-2.8-3.8-3-12.2-2.6-18.6c0-0.2,0.1-0.4,0.3-0.4h5.2c0.2,0,0.3,0.2,0.3,0.4V498.1z"/>
		<path class="st38" d="M373,496.1c0.9,1.2,1.8,1.5,2.2,1.5v-19.1h-4.7C370,489.6,371.6,494.2,373,496.1z"/>
	</g>
	<path class="st39" d="M395.1,471.6h-45.7c-0.1,0-0.2,0.2-0.2,0.4c0,0.2,0.1,0.4,0.2,0.4h45.7c0.1,0,0.2-0.2,0.2-0.4
		C395.4,471.8,395.3,471.6,395.1,471.6z"/>
</g>
</svg>
