<?xml version="1.0" encoding="utf-8"?>
<!-- Generator: Adobe Illustrator 19.1.0, SVG Export Plug-In . SVG Version: 6.00 Build 0)  -->
<!DOCTYPE svg PUBLIC "-//W3C//DTD SVG 1.1//EN" "http://www.w3.org/Graphics/SVG/1.1/DTD/svg11.dtd">
<svg version="1.1" id="Layer_1" xmlns="http://www.w3.org/2000/svg" xmlns:xlink="http://www.w3.org/1999/xlink" x="0px" y="0px"
	 viewBox="0 0 1000 1000" style="enable-background:new 0 0 1000 1000;" xml:space="preserve">
<style type="text/css">
	.st0{opacity:0.15;enable-background:new    ;}
	.st1{clip-path:url(#SVGID_2_);}
	.st2{clip-path:url(#SVGID_4_);}
	.st3{clip-path:url(#SVGID_6_);fill:#3F3F3F;}
	.st4{clip-path:url(#SVGID_8_);fill:#3F3F3F;}
	.st5{clip-path:url(#SVGID_10_);fill:#E9E9E9;}
	.st6{clip-path:url(#SVGID_12_);fill:#E9E9E9;}
	.st7{clip-path:url(#SVGID_14_);fill:#FFFFFF;}
	.st8{clip-path:url(#SVGID_16_);fill:#B5B4B4;}
	.st9{clip-path:url(#SVGID_18_);fill:#F6C215;}
	.st10{clip-path:url(#SVGID_20_);fill:#58595B;}
	.st11{fill:#FFFFFF;}
	.st12{font-family:'OpenSans-Extrabold';}
	.st13{font-size:41px;}
	.st14{fill:none;stroke:#FDFEFF;stroke-width:5;stroke-miterlimit:10;}
	.st15{clip-path:url(#SVGID_22_);fill:#D5D7D8;}
	.st16{clip-path:url(#SVGID_24_);fill:#FFFFFF;}
	.st17{clip-path:url(#SVGID_26_);fill:#FFFFFF;}
	.st18{clip-path:url(#SVGID_28_);fill:#FFFFFF;}
	.st19{clip-path:url(#SVGID_30_);fill:#8DD3D2;}
	.st20{clip-path:url(#SVGID_32_);fill:#F6C215;}
	.st21{clip-path:url(#SVGID_34_);fill:#F6C215;}
	.st22{clip-path:url(#SVGID_36_);fill:#F6C215;}
	.st23{clip-path:url(#SVGID_38_);fill:#F6C215;}
	.st24{clip-path:url(#SVGID_40_);fill:#FFFFFF;}
	.st25{fill:none;stroke:#010101;stroke-width:4;stroke-linecap:round;stroke-linejoin:round;stroke-miterlimit:10;}
	.st26{clip-path:url(#SVGID_42_);fill:#C13133;}
	.st27{clip-path:url(#SVGID_44_);fill:#F5C119;}
	.st28{clip-path:url(#SVGID_46_);fill:#F5C119;}
	.st29{clip-path:url(#SVGID_48_);fill:#F5C119;}
	.st30{clip-path:url(#SVGID_50_);fill:#F5C119;}
	.st31{clip-path:url(#SVGID_52_);fill:#F5C119;}
	.st32{clip-path:url(#SVGID_54_);fill:#F5C119;}
	.st33{clip-path:url(#SVGID_56_);fill:#F5C119;}
	.st34{clip-path:url(#SVGID_58_);fill:#F5C119;}
	.st35{clip-path:url(#SVGID_60_);fill:#F5C119;}
	.st36{clip-path:url(#SVGID_62_);fill:#F6C215;}
	.st37{clip-path:url(#SVGID_64_);fill:#F6C215;}
	.st38{clip-path:url(#SVGID_66_);fill:#939598;}
	.st39{fill:none;stroke:#010101;stroke-width:2;stroke-linecap:round;stroke-linejoin:round;stroke-miterlimit:10;}
</style>
<g class="st0">
	<g>
		<defs>
			<rect id="SVGID_1_" x="8" y="732.7" width="984" height="28"/>
		</defs>
		<clipPath id="SVGID_2_">
			<use xlink:href="#SVGID_1_"  style="overflow:visible;"/>
		</clipPath>
		<g class="st1">
			<defs>
				<path id="SVGID_3_" d="M500,733.2c271.4,0,491.3,6.1,491.3,13.7c0,7.6-219.9,13.7-491.3,13.7S8.7,754.5,8.7,746.8
					C8.7,739.2,228.7,733.2,500,733.2z"/>
			</defs>
			<clipPath id="SVGID_4_">
				<use xlink:href="#SVGID_3_"  style="overflow:visible;"/>
			</clipPath>
			<g class="st2">
				<defs>
					<rect id="SVGID_5_" x="8" y="732.7" width="984" height="28"/>
				</defs>
				<clipPath id="SVGID_6_">
					<use xlink:href="#SVGID_5_"  style="overflow:visible;"/>
				</clipPath>
				<rect x="3.7" y="728.2" class="st3" width="992.6" height="37.4"/>
			</g>
		</g>
	</g>
</g>
<g>
	<defs>
		<path id="SVGID_7_" d="M500,709.3H145.2V263.5c0-13.4,10.9-24.2,24.2-24.2H500h312.4c13.4,0,24.2,10.9,24.2,24.2v445.8H500z"/>
	</defs>
	<clipPath id="SVGID_8_">
		<use xlink:href="#SVGID_7_"  style="overflow:visible;"/>
	</clipPath>
	<rect x="140.2" y="234.4" class="st4" width="701.4" height="480"/>
</g>
<g>
	<defs>
		<path id="SVGID_9_" d="M927.7,709.3c0,20.1-16,36.5-35.7,36.5H90c-19.7,0-35.7-16.2-35.7-36.5H927.7z"/>
	</defs>
	<clipPath id="SVGID_10_">
		<use xlink:href="#SVGID_9_"  style="overflow:visible;"/>
	</clipPath>
	<rect x="49.3" y="704.3" class="st5" width="883.4" height="46.5"/>
</g>
<g>
	<defs>
		<path id="SVGID_11_" d="M501.6,245.7c3.2,0,5.7,2.5,5.7,5.7s-2.5,5.7-5.7,5.7c-3.2,0-5.7-2.5-5.7-5.7S498.4,245.7,501.6,245.7z"/>
	</defs>
	<clipPath id="SVGID_12_">
		<use xlink:href="#SVGID_11_"  style="overflow:visible;"/>
	</clipPath>
	<rect x="490.9" y="240.7" class="st6" width="21.4" height="21.4"/>
</g>
<g>
	<defs>
		<rect id="SVGID_13_" x="163.4" y="263.5" width="655.1" height="421.6"/>
	</defs>
	<clipPath id="SVGID_14_">
		<use xlink:href="#SVGID_13_"  style="overflow:visible;"/>
	</clipPath>
	<rect x="158.4" y="258.5" class="st7" width="665.1" height="431.6"/>
</g>
<g>
	<defs>
		<path id="SVGID_15_" d="M551.6,709.3c0,6.7-5.6,12.1-12.4,12.1h-96.6c-6.8,0-12.4-5.5-12.4-12.1H551.6z"/>
	</defs>
	<clipPath id="SVGID_16_">
		<use xlink:href="#SVGID_15_"  style="overflow:visible;"/>
	</clipPath>
	<rect x="425.2" y="704.3" class="st8" width="131.4" height="22.1"/>
</g>
<g>
	<defs>
		<rect id="SVGID_17_" x="163.4" y="263.5" width="655.1" height="56.6"/>
	</defs>
	<use xlink:href="#SVGID_17_"  style="overflow:visible;fill-rule:evenodd;clip-rule:evenodd;fill:#F6C215;"/>
	<clipPath id="SVGID_18_">
		<use xlink:href="#SVGID_17_"  style="overflow:visible;"/>
	</clipPath>
	<rect x="158.4" y="258.5" class="st9" width="665.1" height="66.6"/>
</g>
<g>
	<defs>
		<rect id="SVGID_19_" x="163.4" y="320.1" width="655.1" height="21.4"/>
	</defs>
	<use xlink:href="#SVGID_19_"  style="overflow:visible;fill-rule:evenodd;clip-rule:evenodd;fill:#58595B;"/>
	<clipPath id="SVGID_20_">
		<use xlink:href="#SVGID_19_"  style="overflow:visible;"/>
	</clipPath>
	<rect x="158.4" y="315.1" class="st10" width="665.1" height="31.4"/>
</g>
<text transform="matrix(1 0 0 1 183.4149 308.0098)" class="st11 st12 st13">Shirtlink.com</text>
<line class="st14" x1="186" y1="330.9" x2="222" y2="330.9"/>
<line class="st14" x1="248.7" y1="330.9" x2="284.7" y2="330.9"/>
<line class="st14" x1="299.4" y1="330.9" x2="359.4" y2="330.9"/>
<g>
	<defs>
		<rect id="SVGID_21_" x="163.4" y="341.5" width="655.1" height="343.6"/>
	</defs>
	<clipPath id="SVGID_22_">
		<use xlink:href="#SVGID_21_"  style="overflow:visible;"/>
	</clipPath>
	<rect x="158.4" y="336.5" class="st15" width="665.1" height="353.6"/>
</g>
<g>
	<defs>
		<rect id="SVGID_23_" x="292" y="356" width="357.8" height="49.6"/>
	</defs>
	<clipPath id="SVGID_24_">
		<use xlink:href="#SVGID_23_"  style="overflow:visible;"/>
	</clipPath>
	<rect x="285.4" y="351" class="st16" width="371.1" height="59.6"/>
</g>
<g>
	<defs>
		<rect id="SVGID_25_" x="709.8" y="356" width="82.7" height="54.4"/>
	</defs>
	<clipPath id="SVGID_26_">
		<use xlink:href="#SVGID_25_"  style="overflow:visible;"/>
	</clipPath>
	<rect x="706.7" y="355.2" class="st17" width="88.8" height="56.1"/>
</g>
<g>
	<defs>
		<rect id="SVGID_27_" x="474.6" y="433.2" width="173.9" height="206.2"/>
	</defs>
	<clipPath id="SVGID_28_">
		<use xlink:href="#SVGID_27_"  style="overflow:visible;"/>
	</clipPath>
	<rect x="468.2" y="430.1" class="st18" width="186.7" height="212.5"/>
</g>
<g>
	<defs>
		<rect id="SVGID_29_" x="717.9" y="367.4" width="48" height="31.6"/>
	</defs>
	<use xlink:href="#SVGID_29_"  style="overflow:visible;fill-rule:evenodd;clip-rule:evenodd;fill:#8DD3D2;"/>
	<clipPath id="SVGID_30_">
		<use xlink:href="#SVGID_29_"  style="overflow:visible;"/>
	</clipPath>
	<rect x="716.1" y="367" class="st19" width="51.6" height="32.6"/>
</g>
<g>
	<defs>
		<rect id="SVGID_31_" x="664.5" y="443.5" width="128" height="33.7"/>
	</defs>
	<use xlink:href="#SVGID_31_"  style="overflow:visible;fill-rule:evenodd;clip-rule:evenodd;fill:#F6C215;"/>
	<clipPath id="SVGID_32_">
		<use xlink:href="#SVGID_31_"  style="overflow:visible;"/>
	</clipPath>
	<rect x="663.5" y="440.6" class="st20" width="129.9" height="39.7"/>
</g>
<g>
	<defs>
		<rect id="SVGID_33_" x="664.5" y="496.5" width="128" height="33.7"/>
	</defs>
	<use xlink:href="#SVGID_33_"  style="overflow:visible;fill-rule:evenodd;clip-rule:evenodd;fill:#F6C215;"/>
	<clipPath id="SVGID_34_">
		<use xlink:href="#SVGID_33_"  style="overflow:visible;"/>
	</clipPath>
	<rect x="663.5" y="493.5" class="st21" width="129.9" height="39.7"/>
</g>
<g>
	<defs>
		<rect id="SVGID_35_" x="664.5" y="550.2" width="128" height="33.7"/>
	</defs>
	<use xlink:href="#SVGID_35_"  style="overflow:visible;fill-rule:evenodd;clip-rule:evenodd;fill:#F6C215;"/>
	<clipPath id="SVGID_36_">
		<use xlink:href="#SVGID_35_"  style="overflow:visible;"/>
	</clipPath>
	<rect x="663.5" y="547.2" class="st22" width="129.9" height="39.7"/>
</g>
<g>
	<defs>
		<rect id="SVGID_37_" x="664.5" y="604.1" width="128" height="33.7"/>
	</defs>
	<use xlink:href="#SVGID_37_"  style="overflow:visible;fill-rule:evenodd;clip-rule:evenodd;fill:#F6C215;"/>
	<clipPath id="SVGID_38_">
		<use xlink:href="#SVGID_37_"  style="overflow:visible;"/>
	</clipPath>
	<rect x="663.5" y="601.1" class="st23" width="129.9" height="39.7"/>
</g>
<g>
	<defs>
		<rect id="SVGID_39_" x="291.6" y="433.7" width="166.5" height="206.5"/>
	</defs>
	<clipPath id="SVGID_40_">
		<use xlink:href="#SVGID_39_"  style="overflow:visible;"/>
	</clipPath>
	<rect x="285.4" y="430.6" class="st24" width="178.8" height="212.8"/>
</g>
<line class="st14" x1="374.2" y1="330.9" x2="410" y2="330.9"/>
<line class="st14" x1="679.8" y1="460.4" x2="739.8" y2="460.4"/>
<line class="st14" x1="679.8" y1="513.3" x2="739.8" y2="513.3"/>
<line class="st14" x1="679.8" y1="567" x2="739.8" y2="567"/>
<line class="st14" x1="679.8" y1="620.9" x2="739.8" y2="620.9"/>
<line class="st25" x1="517.2" y1="503.3" x2="553.2" y2="503.3"/>
<line class="st25" x1="579.9" y1="503.3" x2="605.9" y2="503.3"/>
<line class="st25" x1="517.2" y1="531.3" x2="581.2" y2="531.3"/>
<line class="st25" x1="517.2" y1="559.3" x2="553.2" y2="559.3"/>
<line class="st25" x1="569.9" y1="559.3" x2="605.9" y2="559.3"/>
<g>
	<g>
		<defs>
			<path id="SVGID_41_" d="M408.3,466.4l-27.4-12l-18.7,3.3c0,0-15.6,8.6-19.2,12.6c0,0,0,0,0,0.1c-5.8,4.8,4,31.4,4.2,46.8
				c1.3,21.9,3.9,61.1,3.9,61.1s1,6.7,26.2,7c25.1,0.3,23.6-3.9,23.6-3.9c4-3.9,4-63.6,4.3-79.9
				C405.5,484.3,408.3,466.4,408.3,466.4z"/>
		</defs>
		<clipPath id="SVGID_42_">
			<use xlink:href="#SVGID_41_"  style="overflow:visible;"/>
		</clipPath>
		<rect x="333.8" y="447" class="st26" width="82" height="145.9"/>
	</g>
	<g>
		<defs>
			<path id="SVGID_43_" d="M377.5,498.6c-0.7,0-1.3,0.1-1.8,0.6c-0.4,0.4-0.6,1-0.6,1.6c0,1.5,0.7,2.8,2.1,3.9
				c1.5,1,3.1,1.5,5.2,1.5c0-2.1-0.4-3.9-1.2-5.4C380.4,499.3,379.2,498.6,377.5,498.6z M382.3,509.4h-2.5c-1.2,0-2.8-0.4-4.3-1.3
				c-1.6-0.9-2.7-2.1-3.3-3.7c-0.4,1.2-1,2.5-1.8,3.6c0.1,3.9,0.4,6.5,0.9,8.2c0.4,1.6,1.3,2.5,2.5,2.5c1.8,0,3.6-0.7,5.4-2.2
				C380.8,515.1,381.8,512.7,382.3,509.4z M375.3,484.3c0-2.1-0.3-3.1-0.9-3.1c-0.4,0-1,1-1.6,3.3c-0.6,2.2-1.2,5.2-1.8,8.9
				s-0.7,7.4-0.7,11.2C373.7,495,375.3,488.3,375.3,484.3z M378.7,495.9c2.4,0,4.3,0.9,5.9,2.5c1.5,1.6,2.4,4,2.4,7
				c2.1-0.6,4-1.3,5.7-2.2s2.5-1.3,2.5-1.3c0.3,0,0.4,0.3,0.4,0.7c0,0.4-0.7,1.3-2.2,2.4c-1.5,1-3.7,2.1-6.5,3.1
				c-0.6,4.5-2.5,7.9-5.5,10.4c-3.1,2.4-6.2,3.7-9.2,3.7c-3.1,0-5.2-1.2-6.2-3.4c-1-2.2-1.5-5.8-1.5-10.6c0-4.8,0.3-9.4,1-13.7
				c0.7-4.3,1.6-7.7,2.8-10.3c1.2-2.5,2.4-4.5,3.6-5.7c1.2-1.2,2.4-1.9,3.4-1.9c0.4,0,1,0.6,1.5,1.8c0.4,1.2,0.6,2.7,0.6,4.5
				c0,3.9-0.7,8.3-2.2,13.5C376,496,377.2,495.9,378.7,495.9z"/>
		</defs>
		<clipPath id="SVGID_44_">
			<use xlink:href="#SVGID_43_"  style="overflow:visible;"/>
		</clipPath>
		<rect x="357" y="469.3" class="st27" width="46.1" height="60.4"/>
	</g>
	<g>
		<defs>
			<path id="SVGID_45_" d="M405.3,556.7l-0.1-10.6c-18.7,2.7-37.9,2.7-56.7,0.3c0,3.6,0.1,7.1,0.1,10.6
				C367.6,559.2,386.6,559.2,405.3,556.7z"/>
		</defs>
		<clipPath id="SVGID_46_">
			<use xlink:href="#SVGID_45_"  style="overflow:visible;"/>
		</clipPath>
		<rect x="341.1" y="538.7" class="st28" width="71.7" height="27.4"/>
	</g>
	<g>
		<defs>
			<path id="SVGID_47_" d="M405.8,543.6l-0.3-15.2c-18.9,2.7-38.4,2.7-57.3,0.1c0.3,2.7,0.7,6.5,0.9,12.2c0,1,0,2.1,0.1,3
				C367.9,546.1,387.1,546,405.8,543.6z"/>
		</defs>
		<clipPath id="SVGID_48_">
			<use xlink:href="#SVGID_47_"  style="overflow:visible;"/>
		</clipPath>
		<rect x="340.8" y="521" class="st29" width="72.4" height="31.9"/>
	</g>
	<g>
		<defs>
			<path id="SVGID_49_" d="M404.3,565l-0.1-6.7c-17.7,2.7-36,2.7-53.7,0.3v6.7C368.3,567.7,386.5,567.6,404.3,565z"/>
		</defs>
		<clipPath id="SVGID_50_">
			<use xlink:href="#SVGID_49_"  style="overflow:visible;"/>
		</clipPath>
		<rect x="343" y="550.9" class="st30" width="68.7" height="23.6"/>
	</g>
	<g>
		<defs>
			<path id="SVGID_51_" d="M343.5,469.7c-6.1,0.9-17.7,77.3-17.4,73.5c0.7-9.4-3.4,43.7-1.5,68.7c0,0,2.8,2.4,9.4,3
				c5.1,0.4,7-1.5,7-1.5s2.4-70,2.5-71.1c0.3-1.9,6.7-43.1,6.8-44.2C350.2,497.4,345.1,469.6,343.5,469.7z"/>
		</defs>
		<clipPath id="SVGID_52_">
			<use xlink:href="#SVGID_51_"  style="overflow:visible;"/>
		</clipPath>
		<rect x="316.6" y="462.3" class="st31" width="41.1" height="160.1"/>
	</g>
	<g>
		<defs>
			<path id="SVGID_53_" d="M341.2,613.7c0,0,0-2.1,0.1-5.4c-9.7,1.5-15.6-1.5-17.5-2.8c0.1,2.4,0.1,4.6,0.3,6.5c0,0,3,2.5,9.8,3.1
				C339.3,615.7,341.2,613.7,341.2,613.7z"/>
		</defs>
		<clipPath id="SVGID_54_">
			<use xlink:href="#SVGID_53_"  style="overflow:visible;"/>
		</clipPath>
		<rect x="316.4" y="598" class="st32" width="32.4" height="24.6"/>
	</g>
	<g>
		<defs>
			<path id="SVGID_55_" d="M407.9,468.2c6.1,0.9,17.7,77.3,17.4,73.5c-0.7-9.4,3.4,43.7,1.5,68.7c0,0-2.8,2.4-9.4,3
				c-5.1,0.4-7-1.5-7-1.5s-2.4-70-2.5-71.1c-0.3-1.9-6.7-43.1-6.8-44.2C401.2,495.9,406.2,467.9,407.9,468.2z"/>
		</defs>
		<clipPath id="SVGID_56_">
			<use xlink:href="#SVGID_55_"  style="overflow:visible;"/>
		</clipPath>
		<rect x="393.6" y="460.8" class="st33" width="41.1" height="160.1"/>
	</g>
	<g>
		<defs>
			<path id="SVGID_57_" d="M410.1,612.2c0,0,0-2.1-0.1-5.4c9.7,1.5,15.6-1.5,17.5-2.8c-0.1,2.4-0.1,4.6-0.3,6.5c0,0-3,2.5-9.8,3.1
				C412,614.1,410.1,612.2,410.1,612.2z"/>
		</defs>
		<clipPath id="SVGID_58_">
			<use xlink:href="#SVGID_57_"  style="overflow:visible;"/>
		</clipPath>
		<rect x="402.5" y="596.6" class="st34" width="32.4" height="24.6"/>
	</g>
	<g>
		<defs>
			<path id="SVGID_59_" d="M384.8,448.3c0,0-0.1-0.1-0.4-0.1c0.3,0.3,0.4,0.4,0.4,0.7c0,1.3-4.5,2.5-10,2.5c-5.5,0-10-1.2-10-2.5
				c0-0.3,0.1-0.4,0.3-0.7c-0.1,0-0.3,0.1-0.3,0.1l-0.7,8.9c0,0,7.9,7.1,21.3,0L384.8,448.3z"/>
		</defs>
		<clipPath id="SVGID_60_">
			<use xlink:href="#SVGID_59_"  style="overflow:visible;"/>
		</clipPath>
		<rect x="356.7" y="440.7" class="st35" width="36.1" height="27.1"/>
	</g>
</g>
<g>
	<defs>
		<rect id="SVGID_61_" x="591.9" y="385.5" width="38.1" height="11.3"/>
	</defs>
	<use xlink:href="#SVGID_61_"  style="overflow:visible;fill-rule:evenodd;clip-rule:evenodd;fill:#F6C215;"/>
	<clipPath id="SVGID_62_">
		<use xlink:href="#SVGID_61_"  style="overflow:visible;"/>
	</clipPath>
	<rect x="586.9" y="380.5" class="st36" width="48.1" height="21.3"/>
</g>
<g>
	<defs>
		<rect id="SVGID_63_" x="591.9" y="615.3" width="38.1" height="11.3"/>
	</defs>
	<use xlink:href="#SVGID_63_"  style="overflow:visible;fill-rule:evenodd;clip-rule:evenodd;fill:#F6C215;"/>
	<clipPath id="SVGID_64_">
		<use xlink:href="#SVGID_63_"  style="overflow:visible;"/>
	</clipPath>
	<rect x="586.9" y="610.3" class="st37" width="48.1" height="21.3"/>
</g>
<g>
	<defs>
		<rect id="SVGID_65_" x="291.6" y="356.1" width="356.9" height="11.3"/>
	</defs>
	<use xlink:href="#SVGID_65_"  style="overflow:visible;fill-rule:evenodd;clip-rule:evenodd;fill:#939598;"/>
	<clipPath id="SVGID_66_">
		<use xlink:href="#SVGID_65_"  style="overflow:visible;"/>
	</clipPath>
	<rect x="285" y="351.1" class="st38" width="370.1" height="21.3"/>
</g>
<rect x="392.5" y="379.9" class="st39" width="189.8" height="17.9"/>
<g>
	<path d="M499.3,479.8c-2.9-0.1-5.7-0.8-8.4-2v-6.6c1.5,0.8,3.2,1.4,5,2c1.8,0.5,3.4,0.8,4.8,0.8c1.1,0,2-0.1,2.5-0.4
		c0.5-0.3,0.8-0.7,0.8-1.4c0-0.4-0.2-0.8-0.6-1.1c-0.4-0.3-1-0.7-1.9-1c-0.9-0.4-2.1-0.9-3.6-1.4c-1.7-0.6-3.1-1.3-4.1-2.1
		c-1-0.8-1.8-1.7-2.3-2.6c-0.5-1-0.7-2.2-0.7-3.6c0-2.2,0.7-3.9,2.1-5.2c1.4-1.2,3.5-2,6.4-2.3v-2.7h4.1v2.7c2.7,0.1,5.3,0.8,8,2
		l-2.4,5.7c-2.8-1.3-5.3-1.9-7.5-1.9c-1.1,0-1.8,0.1-2.3,0.4c-0.4,0.3-0.7,0.6-0.7,1.2c0,0.4,0.2,0.8,0.5,1.1s0.9,0.6,1.6,1
		c0.8,0.4,1.8,0.8,3.2,1.2c2.8,1,4.8,2.1,6,3.4c1.2,1.3,1.8,2.9,1.8,4.9c0,2.2-0.7,4.1-2.1,5.5c-1.4,1.4-3.5,2.3-6.2,2.6v3.9h-4.1
		V479.8z"/>
	<path d="M526.6,462c1.7,0,3.2,0.4,4.6,1.2c1.4,0.8,2.4,1.9,3.2,3.3c0.8,1.4,1.1,3.1,1.1,4.9c0,3.3-1,5.8-3,7.5
		c-2,1.7-4.9,2.6-8.9,2.6c-3.4,0-6.2-0.5-8.4-1.6v-6.5c1.2,0.5,2.5,1,3.9,1.3c1.5,0.3,2.7,0.5,3.8,0.5c1.5,0,2.6-0.3,3.4-0.9
		c0.8-0.6,1.2-1.5,1.2-2.8c0-1.1-0.4-2-1.2-2.6c-0.8-0.6-2-0.9-3.6-0.9c-1.2,0-2.6,0.2-4,0.7l-2.9-1.4l1.1-15.5h16.7v6.6h-10
		l-0.4,3.9c1-0.2,1.8-0.3,2.2-0.3C525.8,462,526.2,462,526.6,462z"/>
	<path d="M560,465.3c0,5.7-1.2,9.9-3.7,12.4c-2.5,2.6-6.4,3.8-11.9,3.8c-1.8,0-3.2-0.1-4.1-0.2v-6.3c1.1,0.2,2.3,0.3,3.4,0.3
		c2.8,0,5-0.6,6.5-1.8s2.4-3,2.5-5.5h-0.2c-0.5,1-1,1.7-1.5,2.1c-0.5,0.4-1.1,0.8-1.9,1c-0.7,0.2-1.6,0.3-2.7,0.3
		c-2.5,0-4.5-0.8-5.9-2.5c-1.4-1.7-2.1-4-2.1-7c0-3.2,0.9-5.8,2.8-7.6c1.8-1.8,4.4-2.8,7.6-2.8c3.6,0,6.3,1.2,8.3,3.6
		C559,457.5,560,460.9,560,465.3z M548.9,457.9c-0.9,0-1.6,0.3-2.1,0.9c-0.5,0.6-0.8,1.6-0.8,3c0,1.1,0.2,2,0.7,2.6s1.2,1,2.1,1
		c0.9,0,1.6-0.3,2.3-0.9c0.6-0.6,1-1.4,1-2.3c0-1.2-0.3-2.2-0.9-3.1C550.6,458.3,549.9,457.9,548.9,457.9z"/>
	<path d="M563,477.8c0-1.2,0.4-2.2,1.1-2.8c0.7-0.7,1.8-1,3.2-1c1.3,0,2.3,0.3,3,1c0.7,0.7,1.1,1.6,1.1,2.8c0,1.2-0.4,2.1-1.1,2.8
		c-0.7,0.7-1.7,1-3,1c-1.3,0-2.4-0.3-3.1-1C563.4,480,563,479.1,563,477.8z"/>
	<path d="M595.9,465.3c0,5.7-1.2,9.9-3.7,12.4c-2.5,2.6-6.4,3.8-11.9,3.8c-1.8,0-3.2-0.1-4.1-0.2v-6.3c1.1,0.2,2.3,0.3,3.4,0.3
		c2.8,0,5-0.6,6.5-1.8s2.4-3,2.5-5.5h-0.2c-0.5,1-1,1.7-1.5,2.1c-0.5,0.4-1.1,0.8-1.9,1c-0.7,0.2-1.6,0.3-2.7,0.3
		c-2.5,0-4.5-0.8-5.9-2.5c-1.4-1.7-2.1-4-2.1-7c0-3.2,0.9-5.8,2.8-7.6c1.8-1.8,4.4-2.8,7.6-2.8c3.6,0,6.3,1.2,8.3,3.6
		C594.9,457.5,595.9,460.9,595.9,465.3z M584.8,457.9c-0.9,0-1.6,0.3-2.1,0.9c-0.5,0.6-0.8,1.6-0.8,3c0,1.1,0.2,2,0.7,2.6
		s1.2,1,2.1,1c0.9,0,1.6-0.3,2.3-0.9c0.6-0.6,1-1.4,1-2.3c0-1.2-0.3-2.2-0.9-3.1C586.5,458.3,585.7,457.9,584.8,457.9z"/>
	<path d="M619.9,465.3c0,5.7-1.2,9.9-3.7,12.4c-2.5,2.6-6.4,3.8-11.9,3.8c-1.8,0-3.2-0.1-4.1-0.2v-6.3c1.1,0.2,2.3,0.3,3.4,0.3
		c2.8,0,5-0.6,6.5-1.8s2.4-3,2.5-5.5h-0.2c-0.5,1-1,1.7-1.5,2.1c-0.5,0.4-1.1,0.8-1.9,1c-0.7,0.2-1.6,0.3-2.7,0.3
		c-2.5,0-4.5-0.8-5.9-2.5c-1.4-1.7-2.1-4-2.1-7c0-3.2,0.9-5.8,2.8-7.6c1.8-1.8,4.4-2.8,7.6-2.8c3.6,0,6.3,1.2,8.3,3.6
		C618.9,457.5,619.9,460.9,619.9,465.3z M608.8,457.9c-0.9,0-1.6,0.3-2.1,0.9c-0.5,0.6-0.8,1.6-0.8,3c0,1.1,0.2,2,0.7,2.6
		s1.2,1,2.1,1c0.9,0,1.6-0.3,2.3-0.9c0.6-0.6,1-1.4,1-2.3c0-1.2-0.3-2.2-0.9-3.1C610.5,458.3,609.8,457.9,608.8,457.9z"/>
</g>
<g>
	<path d="M530.6,578.6h7.5c2.9,0,5.1,0.4,6.5,1.3c1.4,0.9,2.1,2.2,2.1,4.1c0,1.2-0.3,2.2-0.9,3.1c-0.6,0.9-1.4,1.4-2.4,1.6v0.1
		c1.3,0.4,2.3,0.9,2.9,1.8c0.6,0.8,0.9,1.9,0.9,3.2c0,2-0.7,3.5-2.2,4.6s-3.5,1.7-6,1.7h-8.4V578.6z M536.4,586.9h1.8
		c0.8,0,1.5-0.2,1.9-0.5c0.5-0.3,0.7-0.9,0.7-1.5c0-1.2-0.9-1.8-2.7-1.8h-1.6V586.9z M536.4,591.1v4.5h2c1.8,0,2.7-0.8,2.7-2.3
		c0-0.7-0.2-1.3-0.7-1.6c-0.5-0.4-1.2-0.6-2.1-0.6H536.4z"/>
	<path d="M569.2,578.6v12.9c0,2.8-0.8,5-2.4,6.5s-3.9,2.3-6.9,2.3c-2.9,0-5.2-0.8-6.8-2.2c-1.6-1.5-2.4-3.7-2.4-6.5v-13.1h5.8v12.6
		c0,1.5,0.3,2.6,0.9,3.3c0.6,0.7,1.4,1,2.5,1c1.2,0,2-0.3,2.6-1c0.5-0.7,0.8-1.8,0.8-3.3v-12.6H569.2z"/>
	<path d="M581.4,586.6l3.7-8h6.3l-7.1,13.1v8.4h-5.9v-8.2l-7.1-13.3h6.3L581.4,586.6z"/>
</g>
</svg>
