<?xml version="1.0" encoding="utf-8"?>
<!-- Generator: Adobe Illustrator 19.1.0, SVG Export Plug-In . SVG Version: 6.00 Build 0)  -->
<!DOCTYPE svg PUBLIC "-//W3C//DTD SVG 1.1//EN" "http://www.w3.org/Graphics/SVG/1.1/DTD/svg11.dtd">
<svg version="1.1" id="Layer_1" xmlns="http://www.w3.org/2000/svg" xmlns:xlink="http://www.w3.org/1999/xlink" x="0px" y="0px"
	 viewBox="0 0 1000 1000" style="enable-background:new 0 0 1000 1000;" xml:space="preserve">
<style type="text/css">
	.st0{opacity:0.15;enable-background:new    ;}
	.st1{clip-path:url(#SVGID_3_);}
	.st2{clip-path:url(#SVGID_5_);}
	.st3{clip-path:url(#SVGID_7_);fill:#3F3F3F;}
	.st4{clip-path:url(#SVGID_9_);fill:#3F3F3F;}
	.st5{clip-path:url(#SVGID_11_);fill:#E9E9E9;}
	.st6{clip-path:url(#SVGID_13_);fill:#E9E9E9;}
	.st7{clip-path:url(#SVGID_15_);fill:#FFFFFF;}
	.st8{clip-path:url(#SVGID_17_);fill:#B5B4B4;}
	.st9{clip-path:url(#SVGID_19_);fill:#F2F2F2;}
	.st10{clip-path:url(#SVGID_21_);fill:#454545;}
	.st11{clip-path:url(#SVGID_23_);fill:#DA3628;}
	.st12{clip-path:url(#SVGID_25_);fill:#DA3628;}
	.st13{clip-path:url(#SVGID_27_);fill:#DA3628;}
	.st14{clip-path:url(#SVGID_29_);fill:#DA3628;}
	.st15{clip-path:url(#SVGID_31_);fill:#DA3628;}
	.st16{clip-path:url(#SVGID_33_);fill:#DA3628;}
	.st17{clip-path:url(#SVGID_35_);fill:#DA3628;}
	.st18{clip-path:url(#SVGID_38_);fill:#DA3628;}
	.st19{fill:none;stroke:#FDFEFF;stroke-width:5;stroke-miterlimit:10;}
	.st20{fill:none;stroke:#010101;stroke-width:5;stroke-miterlimit:10;}
	.st21{fill:#D4D6D8;}
	
		.st22{clip-path:url(#SVGID_40_);fill:#D4D6D8;stroke:#000000;stroke-width:2;stroke-linecap:round;stroke-linejoin:round;stroke-miterlimit:10;}
	.st23{fill:none;stroke:#000000;stroke-width:2;stroke-linecap:round;stroke-linejoin:round;stroke-miterlimit:10;}
	.st24{fill:#FCDCCD;}
	.st25{fill:#F6C215;}
	.st26{fill:#4B4A4B;}
	.st27{clip-path:url(#SVGID_42_);fill:none;}
	.st28{fill:#C79D89;}
	.st29{fill:#D8AC93;}
	.st30{fill:#E5BFA5;}
	.st31{fill:#F8D3B9;}
	.st32{fill:#C23133;}
	.st33{fill:#448CCB;}
	.st34{clip-path:url(#SVGID_44_);fill:none;}
	.st35{fill:#F9D1C4;}
	.st36{clip-path:url(#SVGID_46_);fill:none;}
	.st37{clip-path:url(#SVGID_48_);fill:none;}
	.st38{clip-path:url(#SVGID_50_);fill:none;}
	.st39{fill:#F7D2C4;}
	.st40{fill:#313131;}
	.st41{fill:#737273;}
	.st42{opacity:0.2;}
	.st43{clip-path:url(#SVGID_52_);fill:none;}
	.st44{clip-path:url(#SVGID_54_);fill:none;}
	.st45{clip-path:url(#SVGID_56_);fill:none;}
	.st46{clip-path:url(#SVGID_58_);}
	.st47{fill:none;}
	.st48{fill:#815543;}
	.st49{clip-path:url(#SVGID_60_);fill:none;}
	.st50{fill:#F4BE5E;}
	.st51{fill:#B6CE85;}
	.st52{clip-path:url(#SVGID_62_);fill:none;}
	.st53{opacity:0.16;fill:#E8F6F9;enable-background:new    ;}
	.st54{fill:#313334;}
	.st55{enable-background:new    ;}
</style>
<g>
	<g>
		<g class="st0">
			<defs>
				<rect id="SVGID_2_" x="8" y="732.7" class="st0" width="984" height="28"/>
			</defs>
			<clipPath id="SVGID_3_">
				<use xlink:href="#SVGID_2_"  style="overflow:visible;"/>
			</clipPath>
			<g class="st1">
				<g>
					<defs>
						<path id="SVGID_4_" d="M500,733.2c271.4,0,491.3,6.1,491.3,13.7c0,7.6-219.9,13.7-491.3,13.7S8.7,754.5,8.7,746.8
							C8.7,739.2,228.7,733.2,500,733.2z"/>
					</defs>
					<clipPath id="SVGID_5_">
						<use xlink:href="#SVGID_4_"  style="overflow:visible;"/>
					</clipPath>
					<g class="st2">
						<g>
							<defs>
								<rect id="SVGID_6_" x="8" y="732.7" width="984" height="28"/>
							</defs>
							<clipPath id="SVGID_7_">
								<use xlink:href="#SVGID_6_"  style="overflow:visible;"/>
							</clipPath>
							<rect x="3.7" y="728.2" class="st3" width="992.6" height="37.4"/>
						</g>
					</g>
				</g>
			</g>
		</g>
		<g>
			<g>
				<defs>
					<path id="SVGID_8_" d="M500,709.3H145.2V263.5c0-13.4,10.9-24.2,24.2-24.2H500h312.4c13.4,0,24.2,10.9,24.2,24.2v445.8H500z"/>
				</defs>
				<clipPath id="SVGID_9_">
					<use xlink:href="#SVGID_8_"  style="overflow:visible;"/>
				</clipPath>
				<rect x="140.2" y="234.4" class="st4" width="701.4" height="480"/>
			</g>
		</g>
		<g>
			<g>
				<defs>
					<path id="SVGID_10_" d="M927.7,709.3c0,20.1-16,36.5-35.7,36.5H90c-19.7,0-35.7-16.2-35.7-36.5H927.7z"/>
				</defs>
				<clipPath id="SVGID_11_">
					<use xlink:href="#SVGID_10_"  style="overflow:visible;"/>
				</clipPath>
				<rect x="49.3" y="704.3" class="st5" width="883.4" height="46.5"/>
			</g>
		</g>
		<g>
			<g>
				<defs>
					<path id="SVGID_12_" d="M501.6,245.7c3.2,0,5.7,2.5,5.7,5.7s-2.5,5.7-5.7,5.7s-5.7-2.5-5.7-5.7S498.4,245.7,501.6,245.7z"/>
				</defs>
				<clipPath id="SVGID_13_">
					<use xlink:href="#SVGID_12_"  style="overflow:visible;"/>
				</clipPath>
				<rect x="490.9" y="240.7" class="st6" width="21.4" height="21.4"/>
			</g>
		</g>
		<g>
			<g>
				<defs>
					<rect id="SVGID_14_" x="163.4" y="263.5" width="655.1" height="421.6"/>
				</defs>
				<clipPath id="SVGID_15_">
					<use xlink:href="#SVGID_14_"  style="overflow:visible;"/>
				</clipPath>
				<rect x="158.4" y="258.5" class="st7" width="665.1" height="431.6"/>
			</g>
		</g>
		<g>
			<g>
				<defs>
					<path id="SVGID_16_" d="M551.6,709.3c0,6.7-5.6,12.1-12.4,12.1h-96.6c-6.8,0-12.4-5.5-12.4-12.1H551.6z"/>
				</defs>
				<clipPath id="SVGID_17_">
					<use xlink:href="#SVGID_16_"  style="overflow:visible;"/>
				</clipPath>
				<rect x="425.2" y="704.3" class="st8" width="131.4" height="22.1"/>
			</g>
		</g>
		<g>
			<g>
				<defs>
					<rect id="SVGID_18_" x="163.4" y="263.5" width="655.1" height="56.6"/>
				</defs>
				<clipPath id="SVGID_19_">
					<use xlink:href="#SVGID_18_"  style="overflow:visible;"/>
				</clipPath>
				<rect x="158.4" y="258.5" class="st9" width="665.1" height="66.6"/>
			</g>
		</g>
		<g>
			<g>
				<defs>
					<rect id="SVGID_20_" x="163.4" y="320.1" width="655.1" height="21.4"/>
				</defs>
				<clipPath id="SVGID_21_">
					<use xlink:href="#SVGID_20_"  style="overflow:visible;"/>
				</clipPath>
				<rect x="158.4" y="315.1" class="st10" width="665.1" height="31.4"/>
			</g>
		</g>
		<g>
			<g>
				<defs>
					<path id="SVGID_22_" d="M394.5,294.5v-5.1h-6.2C390.8,290.4,392.9,292,394.5,294.5z M394.5,275.8h12.1v24.9h-12.1v-0.2
						c-2.8-4.3-6.8-7.6-12-9.8v10h-12.1v-25h12.1v10.1h12C394.5,285.9,394.5,275.8,394.5,275.8z"/>
				</defs>
				<clipPath id="SVGID_23_">
					<use xlink:href="#SVGID_22_"  style="overflow:visible;"/>
				</clipPath>
				<rect x="365.4" y="270.6" class="st11" width="46.2" height="35"/>
			</g>
		</g>
		<g>
			<g>
				<defs>
					<path id="SVGID_24_" d="M445.4,295.9v3.9c-1.9,0.8-5,1.2-9.2,1.2c-1.4,0-2.9-0.1-4.3-0.4c-1.8-0.4-3.1-0.9-3.8-1.6
						c-2.4,1.4-5.3,2-8.7,2c-2.4,0-4.6-0.4-6.7-1.3c-2.7-1.2-4-2.8-4-4.8v-10.7h11.9v9.2c0,0.9,0.3,1.5,0.9,2s1.3,0.7,2.2,0.7
						c0.9,0,1.6-0.2,2.3-0.7c0.6-0.5,1-1.2,1-2v-9.2h12v9.4c0,0.9,0.3,1.6,0.9,2.1s1.4,0.8,2.3,0.8c0.4,0,0.9-0.1,1.5-0.2
						C444.8,295.9,445.3,295.9,445.4,295.9z"/>
				</defs>
				<clipPath id="SVGID_25_">
					<use xlink:href="#SVGID_24_"  style="overflow:visible;"/>
				</clipPath>
				<rect x="403.7" y="279.1" class="st12" width="46.7" height="26.8"/>
			</g>
		</g>
		<g>
			<g>
				<defs>
					<path id="SVGID_26_" d="M476.5,289.4H472c0,4.6-1.4,7.8-4.4,9.6c-2.2,1.3-5.9,2-10.9,2c-2.4,0-4.7-0.6-7.1-1.7
						c-2.9-1.3-4.3-3.1-4.3-5.1v-18.4h12v15.8c0,1.3,0.4,2.3,1.3,3.2c0.9,0.9,1.9,1.2,3.1,1.2c1.5,0,2.8-0.5,3.8-1.4
						s1.5-2.2,1.5-3.7v-1.4h-0.5c-1.3,0-2.5-0.3-3.4-0.9c-1.1-0.7-1.7-1.7-1.7-3s0.5-2.2,1.4-2.9c0.9-0.6,1.9-0.9,3.3-0.9
						c1.1,0,2.1,0.2,3.1,0.6c1.1,0.4,2,1,2.5,1.8h4.8L476.5,289.4L476.5,289.4z"/>
				</defs>
				<clipPath id="SVGID_27_">
					<use xlink:href="#SVGID_26_"  style="overflow:visible;"/>
				</clipPath>
				<rect x="440.3" y="270.9" class="st13" width="41.2" height="35.2"/>
			</g>
		</g>
		<g>
			<g>
				<defs>
					<path id="SVGID_28_" d="M508.6,307.2h-11.2v-7.8c-1.4,1-4.2,1.5-8.6,1.5c-2.9,0-5.5-0.6-8-1.8c-3.1-1.5-4.6-3.5-4.6-6
						c0-3,1.3-5.3,4-7c2.2-1.4,4.9-2.1,8.1-2.1h7.6v4.9h-1.1c-1.6,0-3,0.2-4,0.6c-1.5,0.6-2.3,1.6-2.3,3c0,2.2,1.6,3.3,4.9,3.3
						c1.2,0,2.1-0.3,2.9-0.9s1.1-1.4,1.1-2.6v-3.1v-3.1v-1.9h11.1L508.6,307.2z"/>
				</defs>
				<clipPath id="SVGID_29_">
					<use xlink:href="#SVGID_28_"  style="overflow:visible;"/>
				</clipPath>
				<rect x="471.2" y="279" class="st14" width="42.4" height="33.2"/>
			</g>
		</g>
		<g>
			<g>
				<defs>
					<path id="SVGID_30_" d="M547.6,295.9v3.9c-1.9,0.8-5,1.2-9.2,1.2c-1.4,0-2.9-0.1-4.3-0.4c-1.8-0.4-3.1-0.9-3.8-1.6
						c-2.4,1.4-5.3,2-8.7,2c-2.4,0-4.6-0.4-6.7-1.3c-2.7-1.2-4-2.8-4-4.8v-10.7h11.9v9.2c0,0.9,0.3,1.5,0.9,2
						c0.6,0.5,1.3,0.7,2.2,0.7s1.6-0.2,2.3-0.7c0.6-0.5,1-1.2,1-2v-9.2h12v9.4c0,0.9,0.3,1.6,0.9,2.1c0.6,0.5,1.4,0.8,2.3,0.8
						c0.4,0,0.9-0.1,1.5-0.2C547,295.9,547.5,295.9,547.6,295.9z"/>
				</defs>
				<clipPath id="SVGID_31_">
					<use xlink:href="#SVGID_30_"  style="overflow:visible;"/>
				</clipPath>
				<rect x="505.9" y="279.1" class="st15" width="46.7" height="26.8"/>
			</g>
		</g>
		<g>
			<g>
				<defs>
					<path id="SVGID_32_" d="M567.5,299.9c-0.7,0.4-1.8,0.7-3.3,1c-1.3,0.3-2.5,0.4-3.4,0.4c-7.7,0-11.5-1.9-11.5-5.6v-11.4h12v10.4
						c0,1.4,0.9,2.1,2.7,2.1c1,0,2.1-0.3,3.5-1V299.9z M562.3,278.1c0,1.1-0.9,1.9-2.8,2.6c-1.4,0.5-2.8,0.7-4.2,0.7
						s-2.8-0.2-4.2-0.7c-1.8-0.6-2.8-1.4-2.8-2.6c0-1.1,0.9-1.9,2.8-2.6c1.3-0.4,2.7-0.6,4.2-0.6c1.4,0,2.8,0.2,4.2,0.6
						C561.4,276.2,562.3,277,562.3,278.1z"/>
				</defs>
				<clipPath id="SVGID_33_">
					<use xlink:href="#SVGID_32_"  style="overflow:visible;"/>
				</clipPath>
				<rect x="543.3" y="269.9" class="st16" width="29.2" height="36.3"/>
			</g>
		</g>
		<g>
			<g>
				<defs>
					<path id="SVGID_34_" d="M597.9,299.9c-2.3,0.7-5,1-8.1,1c-2.4,0-4.5-0.4-6.2-1.2c-2.2-1-3.4-2.7-3.4-4.8c0-1.9,1.3-3.8,3.8-5.4
						h-7.7c-0.9,5.6-3.9,9.1-9,10.4V296c1.4-0.6,2.5-1.4,3.2-2.5c0.6-0.9,1-2.2,1.2-3.9h-0.6c-1.1,0-2.1-0.3-3-1s-1.4-1.5-1.4-2.6
						s0.5-2.1,1.4-2.9c0.9-0.7,1.9-1.1,3.1-1.1c0.8,0,1.7,0.2,2.6,0.6c1,0.5,1.6,1,1.9,1.7h20.2v5.1h-3.2c-1.3,0.9-1.9,1.9-1.9,3.1
						c0,1,0.5,1.8,1.4,2.6c0.9,0.7,1.9,1.1,3,1.1c0.9,0,1.8-0.1,2.6-0.3v4L597.9,299.9L597.9,299.9z"/>
				</defs>
				<clipPath id="SVGID_35_">
					<use xlink:href="#SVGID_34_"  style="overflow:visible;"/>
				</clipPath>
				<rect x="561.7" y="276.9" class="st17" width="41.2" height="28.9"/>
			</g>
		</g>
		<g>
			<g>
				<defs>
					<path id="SVGID_36_" d="M629.6,295.9v3.9c-3.9,1-8.9,1.5-15,1.5c-3.3,0-6.3-0.3-8.8-0.8c-4.2-0.9-6.3-2.3-6.3-4.4
						c0-1.9,2.2-3.5,6.6-4.7c-1-0.3-1.9-0.7-2.8-1.2c-1.1-0.7-1.7-1.4-1.7-2.2c0-2.2,2.6-3.8,7.9-4.6c2.9-0.5,6.4-0.7,10.5-0.7
						c1.7,0,3.2,0,4.7,0.1v4c-1.6,0.1-3.2,0.1-4.8,0.1c-2.5,0.2-3.8,0.6-3.8,1.2c0,0.5,0.7,0.9,2.1,1.1c1,0.2,1.9,0.3,2.8,0.3h0.5
						v2.5c-5,0.6-7.5,1.6-7.5,2.8c0,1.3,2.7,1.9,8,1.9C625.3,296.8,627.9,296.4,629.6,295.9z"/>
				</defs>
				<clipPath id="SVGID_38_">
					<use xlink:href="#SVGID_36_"  style="overflow:visible;"/>
				</clipPath>
				<rect x="594.5" y="277.6" class="st18" width="40.1" height="28.6"/>
			</g>
		</g>
		<line class="st19" x1="186" y1="330.9" x2="222" y2="330.9"/>
		<line class="st19" x1="248.7" y1="330.9" x2="284.7" y2="330.9"/>
		<line class="st19" x1="299.4" y1="330.9" x2="359.4" y2="330.9"/>
		<line class="st19" x1="374.2" y1="330.9" x2="410" y2="330.9"/>
		<line class="st20" x1="450.3" y1="480.6" x2="486.3" y2="480.6"/>
		<line class="st20" x1="513" y1="480.6" x2="539" y2="480.6"/>
		<line class="st20" x1="558.7" y1="480.6" x2="618.7" y2="480.6"/>
		<line class="st20" x1="638.5" y1="480.6" x2="674.3" y2="480.6"/>
		<line class="st20" x1="450.3" y1="508.6" x2="514.3" y2="508.6"/>
		<line class="st20" x1="530.5" y1="508.6" x2="578.8" y2="508.6"/>
		<line class="st20" x1="593.4" y1="508.6" x2="616.1" y2="508.6"/>
		<line class="st20" x1="640.4" y1="508.6" x2="673" y2="508.6"/>
		<line class="st20" x1="686.9" y1="508.6" x2="729" y2="508.6"/>
		<line class="st20" x1="686.9" y1="480.6" x2="737.3" y2="480.6"/>
		<line class="st20" x1="450.3" y1="536.7" x2="486.3" y2="536.7"/>
		<g>
			<g>
				<rect id="SVGID_37_" x="186" y="373.1" class="st21" width="218.2" height="311.3"/>
			</g>
			<g>
				<defs>
					<rect id="SVGID_39_" x="186" y="373.1" width="218.2" height="311.3"/>
				</defs>
				<clipPath id="SVGID_40_">
					<use xlink:href="#SVGID_39_"  style="overflow:visible;"/>
				</clipPath>
				<rect x="181" y="368.1" class="st22" width="228.2" height="321.3"/>
			</g>
			<g>
				<rect id="SVGID_1_" x="186" y="373.1" class="st23" width="218.2" height="311.3"/>
			</g>
		</g>
		<line class="st20" x1="503" y1="536.7" x2="539" y2="536.7"/>
		<line class="st20" x1="553.7" y1="536.7" x2="613.7" y2="536.7"/>
		<line class="st20" x1="628.5" y1="536.7" x2="664.3" y2="536.7"/>
		<line class="st20" x1="678.1" y1="536.7" x2="737.3" y2="536.7"/>
		<line class="st20" x1="450.3" y1="564.7" x2="486.3" y2="564.7"/>
		<line class="st20" x1="503" y1="564.7" x2="539" y2="564.7"/>
		<line class="st20" x1="553.7" y1="564.7" x2="613.7" y2="564.7"/>
		<line class="st20" x1="678" y1="564.7" x2="717.6" y2="564.7"/>
		<line class="st20" x1="627.5" y1="564.7" x2="663.3" y2="564.7"/>
		<g>
			<path class="st24" d="M283,475.7c0,0,0.3,4.9,0,7.2c-0.3,2.4,2.3,8.6,6.7,7.9c4.4-0.7,3.8-7.7,3.6-10.1c-0.3-2.4,0-5.1,0-5.1
				L283,475.7z"/>
			<path class="st24" d="M283,475.7c0,0,0.3,4.9,0,7.2c-0.3,2.4,2.3,8.6,6.7,7.9c4.4-0.7,3.8-7.7,3.6-10.1c-0.3-2.4,0-5.1,0-5.1
				L283,475.7z"/>
			<g>
				<path class="st24" d="M315.4,425.9L315.4,425.9c0-0.1,0-0.2,0-0.2c0-15.6-12.7-28.3-28.3-28.3s-28.3,12.7-28.3,28.3
					c0,0.1,0,0.2,0,0.2l0,0c0,0,0.4,23.1,2,31.2c1.6,8.3,17.3,22.2,27,22.4c1.7,0-1-0.1,2.3,0c10,0.2,22.9-16.6,24.3-23.1
					C316,448.2,315.4,425.9,315.4,425.9z"/>
				<path class="st24" d="M315.4,425.9L315.4,425.9c0-0.1,0-0.2,0-0.2c0-15.6-12.7-28.3-28.3-28.3s-28.3,12.7-28.3,28.3
					c0,0.1,0,0.2,0,0.2l0,0c0,0,0.4,23.1,2,31.2c1.6,8.3,17.3,22.2,27,22.4c1.7,0-1-0.1,2.3,0c10,0.2,22.9-16.6,24.3-23.1
					C316,448.2,315.4,425.9,315.4,425.9z"/>
			</g>
			<g>
				<path class="st25" d="M291,505.5c1.2,0,2.2,0.4,3,1.3s1.2,2.1,1.2,3.7c1.1-0.3,2.1-0.7,2.9-1.2s1.3-0.7,1.3-0.7
					c0.2,0,0.2,0.1,0.2,0.4s-0.4,0.7-1.1,1.2c-0.8,0.6-1.9,1.1-3.4,1.7c-0.3,2.4-1.3,4.2-2.9,5.5c-1.6,1.3-3.2,1.9-4.8,1.9
					c-1.6,0-2.7-0.6-3.2-1.8s-0.8-3.1-0.8-5.6c0-2.6,0.2-5,0.6-7.3s0.9-4.1,1.4-5.4c0.6-1.3,1.2-2.3,1.8-3s1.2-1.1,1.8-1.1
					c0.3,0,0.5,0.3,0.7,1c0.2,0.6,0.3,1.4,0.3,2.4c0,2.1-0.4,4.4-1.1,7.2C289.6,505.6,290.2,505.5,291,505.5z M289.2,499.3
					c0-1.1-0.1-1.7-0.4-1.7c-0.2,0-0.5,0.6-0.9,1.7c-0.3,1.2-0.6,2.7-0.9,4.7s-0.4,3.9-0.4,5.9C288.3,505,289.2,501.5,289.2,499.3z
					 M292.8,512.7c-0.2,0-0.7,0-1.3,0s-1.4-0.2-2.2-0.7c-0.8-0.5-1.4-1.1-1.7-1.9c-0.3,0.7-0.6,1.3-0.9,1.9c0.1,2,0.2,3.5,0.5,4.4
					s0.7,1.3,1.3,1.3c0.9,0,1.8-0.4,2.7-1.2C292,515.7,292.6,514.4,292.8,512.7z M290.3,506.9c-0.4,0-0.7,0.1-0.9,0.3
					c-0.2,0.2-0.3,0.5-0.3,0.9c0,0.8,0.4,1.5,1.1,2.1c0.7,0.5,1.6,0.8,2.7,0.8c0-1.1-0.2-2-0.6-2.9
					C291.8,507.3,291.2,506.9,290.3,506.9z"/>
			</g>
			<path class="st26" d="M293.1,663.4c0,0,0.1,2.7,0,3.4c-0.1,0.6,0.1,1.7,0.1,1.7s0.6,1,1.3,1.2c1.4,0.3,1,3,3.4,5.2
				c1.7,1.5,4.2,2.7,8.1,2.4c6.4-0.4,7.2-2,7.2-2s0.1-0.3,0.1-0.8c0-0.1-0.1-0.2-0.1-0.3c0.2-1.9,0.2-5.5-3.4-6.5
				c-3.3-0.8-4.2-4.9-4.2-5.9C305.7,660.5,293.6,657.7,293.1,663.4z"/>
			<g>
				<g>
					<defs>
						<path id="SVGID_41_" d="M293.1,663.4c0,0,0.1,2.7,0,3.4c-0.1,0.6,0.1,1.7,0.1,1.7s0.6,1,1.3,1.2c1.4,0.3,1,3,3.4,5.2
							c1.7,1.5,4.2,2.7,8.1,2.4c6.4-0.4,7.2-2,7.2-2s0.1-0.3,0.1-0.8c0-0.1-0.1-0.2-0.1-0.3c0.2-1.9,0.2-5.5-3.4-6.5
							c-3.3-0.8-4.2-4.9-4.2-5.9C305.7,660.5,293.6,657.7,293.1,663.4z"/>
					</defs>
					<clipPath id="SVGID_42_">
						<use xlink:href="#SVGID_41_"  style="overflow:visible;"/>
					</clipPath>
					<path class="st27" d="M293.3,668.4l-0.1-0.7c0.4,0.4,1,1.1,1.4,1.2c0.5,0.1,1.4,0.9,2.1,2.6c0.7,1.7,4.3,6.7,16.7,2.6l0,0
						l0.1,0.2l-0.1,0.9l0.6,0.6c-0.2,0.1-4,3.3-10.8,2.1c-6.9-1.2-8-5.2-8.1-6.3c-0.1-0.7-0.9-1.4-1.5-1.8
						C293.7,669.2,293.3,668.4,293.3,668.4z"/>
				</g>
			</g>
			<path class="st28" d="M267.2,582c0,0,2.3-1.4,0.3-3.9s-1-0.7-1-0.7s-0.4-3.9-0.6-5.4s-2.8,1-3.2,2.5
				C262.4,576,265.9,581.4,267.2,582z"/>
			<path class="st29" d="M263.5,582.1c0.1,0,2.9,2.8,2.9,2.8s1.9-0.8,1.5-2.3s-1.3-2.7-1.9-3.4s-2.4-3.1-2.5-3.9
				c-0.1-0.8,1.7-2.3,1.5-2.9c-0.2-0.6-0.8-1.1-1.2-0.7c-0.3,0.3-1.2,3.1-1.3,3.5c0,0-1.3,1.3-1.4,1.4c-0.1,0.1,0,0.9,0.2,1.5
				s1,2.2,1,2.2"/>
			<path class="st30" d="M260,580.4c0.1,0.1,1.3,6.2,1.6,6.8c0.2-0.1,1.1,0.4,2.6-0.7c1.5-1.1,0.3-4.8-0.1-5.4
				c-0.4-0.6-1.9-4.3-1.8-4.8c0-0.4,0.2-1.4,0.3-1.8C262.7,574.1,260,580.4,260,580.4z"/>
			<path class="st31" d="M265.2,573.1c-0.1,0.1-0.2-0.1-0.2-0.1s-0.1,0.2-0.2,0.5c-0.1,0.2-0.2,0.5-0.3,0.7c0.4-0.4,0.8-0.7,1.2-0.8
				c0,0,0.1,0.6,0.2,1.2l0,0c0-1.4-1-3.5-1-3.5S265.3,573,265.2,573.1z"/>
			<path class="st24" d="M264.2,563.4c0,0-3.9,8.6-4.4,9.9c-0.6,1.3-2.4,5.2-3.2,6.6c-1.4,2.4-4,4.6-3.9,5.1c0.5,0.9,2.6,2.6,5,0.6
				c2.4-2.1,3.6-5.8,4.1-6.8c0.5-1.1,2.5-5.1,3.9-5.4c0,0,0.3,1.6,0.3,2.3s0.6,2.6,0.8,3.2c0.4,0.8,5.8,2.7,7,0.1c0,0,0-0.2-0.8-1
				s-1.8-2.1-2-3c-0.2-1-0.7-0.7-0.5-2.4s0.4-1.2,0-2.7s-0.9-2.3-0.9-3.5s0.2-2.8,0.2-3.3s-0.7-1.3-1.1-1.5s-4.6,1.7-4.6,1.7"/>
			<path class="st26" d="M284.9,662.8c0,0-0.1,2.7,0,3.4c0.1,0.6-0.1,1.7-0.1,1.7s-0.6,1-1.3,1.2c-1.4,0.3-1,3-3.4,5.2
				c-1.7,1.5-4.2,2.7-8.1,2.4c-6.3-0.4-7.2-2-7.2-2s-0.1-0.3-0.1-0.8c0-0.1,0.1-0.2,0.1-0.3c-0.2-1.9-0.2-5.5,3.4-6.5
				c3.3-0.8,4.2-4.9,4.2-5.9C272.4,659.9,284.5,657.2,284.9,662.8z"/>
			<path class="st32" d="M306.2,488.3l-14.1-6.4l-9.7,1.7c0,0-8.1,4.5-9.9,6.7l0,0c-3,2.5,2.1,16.6,2.2,24.8c0.7,11.6,2,32.5,2,32.5
				s0.5,3.6,13.5,3.7c13,0.1,12.2-2.1,12.2-2.1c2.1-2.1,2.1-33.7,2.2-42.4C304.7,497.8,306.2,488.3,306.2,488.3z"/>
			<path class="st33" d="M271.7,662.5c0,0,2.6-46.2,3-57.8s1.9-57.6,1.9-57.6l25.8,0.2c0,0,1.2,42.5,1.5,56.8
				c0.4,14.3,2.2,58.8,2.2,58.8s-1.6,1.4-4.5,1.8c-8,0.5-8.5-2.9-8.5-2.9l0.1-2.4l-0.5-54.3c0,0-0.3-0.3-0.4-0.9
				c-0.2-0.7,0.3-1.1,0.3-1.1s-0.4-1.1-0.1-1.8s-1.5-38.2-1.5-38.2s-1.3,0-2.5,0.2c-1.1,0.1-1.5,33.6-2.1,39.2
				c0,0.1,0.1,0.5,0.1,0.6c0,0.4-0.3,0.6-0.3,0.6s0.1,0.8,0,1.3s-0.4,1-0.4,1l-0.4,57.1c0,0-4.2,1.5-8.4,1.2
				C273.3,663.9,271.7,662.5,271.7,662.5z"/>
			<g>
				<g>
					<defs>
						<path id="SVGID_43_" d="M271.7,662.5c0,0,2.6-46.2,3-57.8s1.9-57.6,1.9-57.6l25.8,0.2c0,0,1.2,42.5,1.5,56.8
							c0.4,14.3,2.2,58.8,2.2,58.8s-1.6,1.4-4.5,1.8c-8,0.5-8.5-2.9-8.5-2.9l0.1-2.4l-0.5-54.3c0,0-0.3-0.3-0.4-0.9
							c-0.2-0.7,0.3-1.1,0.3-1.1s-0.4-1.1-0.1-1.8s-1.5-38.2-1.5-38.2s-1.3,0-2.5,0.2c-1.1,0.1-1.5,33.6-2.1,39.2
							c0,0.1,0.1,0.5,0.1,0.6c0,0.4-0.3,0.6-0.3,0.6s0.1,0.8,0,1.3s-0.4,1-0.4,1l-0.4,57.1c0,0-4.2,1.5-8.4,1.2
							C273.3,663.9,271.7,662.5,271.7,662.5z"/>
					</defs>
					<clipPath id="SVGID_44_">
						<use xlink:href="#SVGID_43_"  style="overflow:visible;"/>
					</clipPath>
					<rect x="289.7" y="536.3" class="st34" width="21" height="128.4"/>
				</g>
			</g>
			<g>
				<path class="st24" d="M314,444.8c0,0,3-4.5,6.7-1.6c3.8,2.9,0.2,6.4-1.5,8c-1.7,1.5-1.8,4.4-4.6,4.1s-3.7-3-3.7-3L314,444.8z"/>
				<path class="st35" d="M314,444.8c0,0,3-4.5,6.7-1.6c3.8,2.9,0.2,6.4-1.5,8c-1.7,1.5-1.8,4.4-4.6,4.1s-3.7-3-3.7-3L314,444.8z"/>
			</g>
			<g>
				<g>
					<defs>
						<path id="SVGID_45_" d="M283,475.7c0,0,0.3,4.9,0,7.2c-0.3,2.4,2.3,8.6,6.7,7.9c4.4-0.7,3.8-7.7,3.6-10.1
							c-0.3-2.4,0-5.1,0-5.1L283,475.7z"/>
					</defs>
					<clipPath id="SVGID_46_">
						<use xlink:href="#SVGID_45_"  style="overflow:visible;"/>
					</clipPath>
					<path class="st36" d="M283.1,478.5h10.2C293.3,478.5,288.8,485.7,283.1,478.5z"/>
				</g>
			</g>
			<path class="st25" d="M304.8,487.6c0.6,0.5,17.9,23.2,18.2,23.7c0.3,0.5,1.3,1.8,1.6,2.2c0.4,0.7,3.7,5,3.8,7.3
				c0.1,2.4-0.9,2.9-2.4,3.3s-5.4-0.1-7.3-0.8s-6.6-3.5-7-3.8s-2.6-9.1-3.4-10.4c-0.8-1.2-3.8-6.5-4.9-7.9s-1.4-2.9-1.6-4.1
				s-0.1-3,0.6-4.1C303.1,492,304.8,487.6,304.8,487.6z"/>
			<g>
				<path class="st25" d="M291.4,503.9c1.2,0,2.2,0.4,3,1.3s1.2,2.1,1.2,3.7c1.1-0.3,2.1-0.7,2.9-1.2s1.3-0.7,1.3-0.7
					c0.2,0,0.2,0.1,0.2,0.4s-0.4,0.7-1.1,1.2c-0.8,0.6-1.9,1.1-3.4,1.7c-0.3,2.4-1.3,4.2-2.9,5.5s-3.2,1.9-4.8,1.9
					c-1.6,0-2.7-0.6-3.2-1.8s-0.8-3.1-0.8-5.6c0-2.6,0.2-5,0.6-7.3s0.9-4.1,1.4-5.4c0.6-1.3,1.2-2.3,1.8-3c0.6-0.7,1.2-1.1,1.8-1.1
					c0.3,0,0.5,0.3,0.7,1c0.2,0.6,0.3,1.4,0.3,2.4c0,2.1-0.4,4.4-1.1,7.2C290,504,290.6,503.9,291.4,503.9z M289.6,497.7
					c0-1.1-0.1-1.7-0.4-1.7c-0.2,0-0.5,0.6-0.9,1.7c-0.3,1.2-0.6,2.7-0.9,4.7s-0.4,3.9-0.4,5.9C288.8,503.4,289.6,499.9,289.6,497.7
					z M293.2,511.1c-0.2,0-0.7,0-1.3,0s-1.4-0.2-2.2-0.7c-0.8-0.5-1.4-1.1-1.7-1.9c-0.3,0.7-0.6,1.3-0.9,1.9c0.1,2,0.2,3.5,0.5,4.4
					c0.3,0.9,0.7,1.3,1.3,1.3c0.9,0,1.8-0.4,2.7-1.2C292.4,514.1,293,512.8,293.2,511.1z M290.8,505.3c-0.4,0-0.7,0.1-0.9,0.3
					c-0.2,0.2-0.3,0.5-0.3,0.9c0,0.8,0.4,1.5,1.1,2.1c0.7,0.5,1.6,0.8,2.7,0.8c0-1.1-0.2-2-0.6-2.9
					C292.2,505.7,291.6,505.3,290.8,505.3z"/>
			</g>
			<path class="st24" d="M300.1,516.5c-1.3,0.1-2.4,0.1-3.2,0.1c-1,0-3-0.3-3.4-0.4c-0.6-0.2-1.4-0.9-1.8-1.5c-0.3-0.6,0-1.7,0-1.7
				s-0.7-0.3-1.1-0.7c-0.4-0.4-0.6-1.4-0.6-2.1s0.7-1.4,0.7-1.4s-0.4-0.1-0.8-0.4c-0.3-0.2-0.6-0.4-0.7-0.6c-0.4-0.6-0.5-2-0.3-2.8
				c0.3-0.8,0.5-1.1,0.5-1.1c-0.2-0.1-0.4-0.2-0.5-0.3c-0.6-0.5-0.4-1.9-0.4-2.2c0.1-1.8,0.8-1.9,1.2-2.3c0.3-0.3,3.1-1.1,3.8-1.1
				c0.6,0,6.9-0.8,6.9-0.8s0.5-0.1,0.3-0.6c-0.7-2.4-1.8-5.1-1.3-6.9s1.4-3.6,2.8-4.2c0.6-0.2,4.6,0.2,4,1.4c-0.5,1.2-2,4.7-1.6,7.1
				c0.2,1.1,2,4.3,2.2,4.4c1.9,1.8,2.7,3.1,4,5.2c1.4,2.1,4,4.6,4.1,4.8c0.1,0.1,0.4,3.6-0.4,5.8c-0.8,2.3-3.4,3.6-3.9,3.6
				s-2.2-1.5-2.8-1.9c-0.6-0.5-0.7-0.6-0.7-0.6"/>
			<g>
				<g>
					<defs>
						<path id="SVGID_47_" d="M300.1,516.5c-1.3,0.1-2.4,0.1-3.2,0.1c-1,0-3-0.3-3.4-0.4c-0.6-0.2-1.4-0.9-1.8-1.5
							c-0.3-0.6,0-1.7,0-1.7s-0.7-0.3-1.1-0.7c-0.4-0.4-0.6-1.4-0.6-2.1s0.7-1.4,0.7-1.4s-0.4-0.1-0.8-0.4c-0.3-0.2-0.6-0.4-0.7-0.6
							c-0.4-0.6-0.5-2-0.3-2.8c0.3-0.8,0.5-1.1,0.5-1.1c-0.2-0.1-0.4-0.2-0.5-0.3c-0.6-0.5-0.4-1.9-0.4-2.2c0.1-1.8,0.8-1.9,1.2-2.3
							c0.3-0.3,3.1-1.1,3.8-1.1c0.6,0,6.9-0.8,6.9-0.8s0.5-0.1,0.3-0.6c-0.7-2.4-1.8-5.1-1.3-6.9s1.4-3.6,2.8-4.2
							c0.6-0.2,4.6,0.2,4,1.4c-0.5,1.2-2,4.7-1.6,7.1c0.2,1.1,2,4.3,2.2,4.4c1.9,1.8,2.7,3.1,4,5.2c1.4,2.1,4,4.6,4.1,4.8
							c0.1,0.1,0.4,3.6-0.4,5.8c-0.8,2.3-3.4,3.6-3.9,3.6s-2.2-1.5-2.8-1.9c-0.6-0.5-0.7-0.6-0.7-0.6"/>
					</defs>
					<clipPath id="SVGID_48_">
						<use xlink:href="#SVGID_47_"  style="overflow:visible;"/>
					</clipPath>
					<path class="st37" d="M287.7,483.2l22.8,37.5l13-19.5C323.4,501.2,319,480.3,287.7,483.2z"/>
				</g>
			</g>
			<g>
				<path class="st24" d="M260.4,444.8c0,0-3-4.5-6.7-1.6c-3.8,2.9-0.2,6.4,1.5,8c1.7,1.5,1.8,4.4,4.6,4.1s3.7-3,3.7-3L260.4,444.8z
					"/>
				<path class="st35" d="M260.4,444.8c0,0-3-4.5-6.7-1.6c-3.8,2.9-0.2,6.4,1.5,8c1.7,1.5,1.8,4.4,4.6,4.1s3.7-3,3.7-3L260.4,444.8z
					"/>
			</g>
			<g>
				<g>
					<defs>
						<path id="SVGID_49_" d="M315.4,425.9L315.4,425.9c0-0.1,0-0.2,0-0.2c0-15.6-12.7-28.3-28.3-28.3s-28.3,12.7-28.3,28.3
							c0,0.1,0,0.2,0,0.2l0,0c0,0,0.4,23.1,2,31.2c1.6,8.3,17.3,22.2,27,22.4c1.7,0-1-0.1,2.3,0c10,0.2,22.9-16.6,24.3-23.1
							C316,448.2,315.4,425.9,315.4,425.9z"/>
					</defs>
					<clipPath id="SVGID_50_">
						<use xlink:href="#SVGID_49_"  style="overflow:visible;"/>
					</clipPath>
					<rect x="243" y="388.6" class="st38" width="46.1" height="95.3"/>
				</g>
			</g>
			<path class="st39" d="M284.5,455.5c0,0,5.3,2.5,8.8-0.3"/>
			<path class="st40" d="M276.5,546c0,0-0.5,0.8-0.2,2.6c0,0-0.1,2.9,13.3,3.2c14,0.4,13.3-3.6,13.3-3.6s0.6-0.8,0.3-1.6
				c0,0-5.8,2.4-14.2,2.2C280.6,548.6,276.5,546,276.5,546z"/>
			<g>
				<g>
					<path class="st41" d="M290.8,548.5h-2.4c-1,0-1.9,0.8-1.9,1.9s0.8,1.9,1.9,1.9h2.4c1,0,1.9-0.8,1.9-1.9
						S291.8,548.5,290.8,548.5z M290.7,551.4h-2.4c-0.6,0-1-0.5-1-1.1s0.5-1,1.1-1h2.4c0.6,0,1,0.5,1,1.1l0,0
						C291.8,551,291.3,551.4,290.7,551.4z"/>
				</g>
				<g class="st42">
					<path class="st41" d="M290.8,548.5h-2.4c-1,0-1.9,0.8-1.9,1.9s0.8,1.9,1.9,1.9h2.4c1,0,1.9-0.8,1.9-1.9
						S291.8,548.5,290.8,548.5z M290.7,551.4h-2.4c-0.6,0-1-0.5-1-1.1s0.5-1,1.1-1h2.4c0.6,0,1,0.5,1,1.1l0,0
						C291.8,551,291.3,551.4,290.7,551.4z"/>
				</g>
			</g>
			<g>
				<g>
					<defs>
						<path id="SVGID_51_" d="M285,662.8c0,0-0.1,2.7,0,3.4c0.1,0.6-0.1,1.7-0.1,1.7s-0.6,1-1.3,1.2c-1.4,0.3-1,3-3.4,5.2
							c-1.7,1.5-4.2,2.7-8.1,2.4c-6.3-0.4-7.2-2-7.2-2s-0.1-0.3-0.1-0.8c0-0.1,0.1-0.2,0.1-0.3c-0.2-1.9-0.2-5.5,3.4-6.5
							c3.3-0.8,4.2-4.9,4.2-5.9C272.4,659.9,284.5,657.2,285,662.8z"/>
					</defs>
					<clipPath id="SVGID_52_">
						<use xlink:href="#SVGID_51_"  style="overflow:visible;"/>
					</clipPath>
					<path class="st43" d="M284.8,667.8l0.1-0.7c-0.4,0.4-1,1.1-1.4,1.2c-0.5,0.1-1.4,0.9-2.1,2.6c-0.7,1.7-4.3,6.7-16.7,2.6l0,0
						l-0.1,0.2l0.1,0.9l-0.6,0.6c0.2,0.1,4,3.3,10.8,2.1c6.9-1.2,8-5.2,8.1-6.3c0.1-0.7,0.9-1.4,1.5-1.8
						C284.4,668.6,284.8,667.8,284.8,667.8z"/>
				</g>
			</g>
			<g>
				<g>
					<defs>
						<path id="SVGID_53_" d="M276.5,546c0,0-0.5,0.8-0.2,2.6c0,0-0.1,2.9,13.3,3.2c14,0.4,13.3-3.6,13.3-3.6s0.6-0.8,0.3-1.6
							c0,0-5.8,2.4-14.2,2.2C280.5,548.6,276.5,546,276.5,546z"/>
					</defs>
					<clipPath id="SVGID_54_">
						<use xlink:href="#SVGID_53_"  style="overflow:visible;"/>
					</clipPath>
					<path class="st44" d="M300.5,547.5c0,0,0.1,3.4,0.1,3.5s0.6,0,0.6,0l0.2-3.8L300.5,547.5z"/>
				</g>
				<g>
					<defs>
						<path id="SVGID_55_" d="M276.5,546c0,0-0.5,0.8-0.2,2.6c0,0-0.1,2.9,13.3,3.2c14,0.4,13.3-3.6,13.3-3.6s0.6-0.8,0.3-1.6
							c0,0-5.8,2.4-14.2,2.2C280.5,548.6,276.5,546,276.5,546z"/>
					</defs>
					<clipPath id="SVGID_56_">
						<use xlink:href="#SVGID_55_"  style="overflow:visible;"/>
					</clipPath>
					<path class="st45" d="M280.8,547.7c0,0-0.5,3.5-0.5,3.6s-0.6-0.1-0.6-0.1l0.3-3.8L280.8,547.7z"/>
				</g>
				<g>
					<defs>
						<path id="SVGID_57_" d="M276.5,546c0,0-0.5,0.8-0.2,2.6c0,0-0.1,2.9,13.3,3.2c14,0.4,13.3-3.6,13.3-3.6s0.6-0.8,0.3-1.6
							c0,0-5.8,2.4-14.2,2.2C280.5,548.6,276.5,546,276.5,546z"/>
					</defs>
					<clipPath id="SVGID_58_">
						<use xlink:href="#SVGID_57_"  style="overflow:visible;"/>
					</clipPath>
					<g class="st46">
						<path class="st47" d="M297.9,548.1c0,0,0.1,3.3,0.1,3.4c0,0.1,0.6,0,0.6,0l0.1-3.6L297.9,548.1z"/>
						<path class="st47" d="M278.4,546.9c0,0-0.5,3.3-0.5,3.4c0,0.1-0.6-0.1-0.6-0.1l0.3-3.7L278.4,546.9z"/>
					</g>
				</g>
			</g>
			<g id="_x35__12_">
				<path class="st48" d="M315.4,410.4c-3.8-8.6-8.2-10.1-8.2-10.1s0.5-0.7,1.2-0.9c0.6-0.1-2,0.2-2,0.2l0.3-1.4l-1.4,1.1
					c0,0-4.5-1.8-11.5-2.4c-2.6-0.5-5.9-1.1-7.1-1.2c0,0,0.7,0.5,1.9,1c-2.2,0-4.5,0.2-7,0.6c-2-0.1-6.3-0.2-8.4,0.6
					c0,0,2.2,0,3.7,0.4c-1,0.3-2,0.6-3.1,0.9c-3.1,1-5.5,2.4-7.5,4c-1.7,0.7-3.2,1.6-3.9,2.5c0,0,0.7-0.2,1.7-0.5
					c-1.4,1.6-2.5,3.3-3.4,5.1c-1.1,1.6-3.1,5-3.5,8.2c0,0,0.9-1.4,1.8-2.9c-1,5-0.7,10.4-0.5,15c0.5,10.7,0.8,15.7,0.8,15.7
					s0.4,3.2,1.1,3.9c0,0,0.6-17.1,1.1-20.4c0.4-3.3,2-8.1,4.8-11.1s10.5-1.8,21.2-0.6c10.6,1.2,15.2-1.6,17.7-1.6
					c2.4,0,7,3.3,7.7,9.7c0.6,6.4,1.7,21.6,1.7,22.9s1.3-3.7,1.7-10C316.5,432.7,318.6,417.7,315.4,410.4z"/>
				<g>
					<g>
						<defs>
							<path id="SVGID_59_" d="M315.4,410.4c-3.8-8.6-8.2-10.1-8.2-10.1s0.5-0.7,1.2-0.9c0.6-0.1-2,0.2-2,0.2l0.3-1.4l-1.4,1.1
								c0,0-4.5-1.8-11.5-2.4c-2.6-0.5-5.9-1.1-7.1-1.2c0,0,0.7,0.5,1.9,1c-2.2,0-4.5,0.2-7,0.6c-2-0.1-6.3-0.2-8.4,0.6
								c0,0,2.2,0,3.7,0.4c-1,0.3-2,0.6-3.1,0.9c-3.1,1-5.5,2.4-7.5,4c-1.7,0.7-3.2,1.6-3.9,2.5c0,0,0.7-0.2,1.7-0.5
								c-1.4,1.6-2.5,3.3-3.4,5.1c-1.1,1.6-3.1,5-3.5,8.2c0,0,0.9-1.4,1.8-2.9c-1,5-0.7,10.4-0.5,15c0.5,10.7,0.8,15.7,0.8,15.7
								s0.4,3.2,1.1,3.9c0,0,0.6-17.1,1.1-20.4c0.4-3.3,2-8.1,4.8-11.1s10.5-1.8,21.2-0.6c10.6,1.2,15.2-1.6,17.7-1.6
								c2.4,0,7,3.3,7.7,9.7c0.6,6.4,1.7,21.6,1.7,22.9s1.3-3.7,1.7-10C316.5,432.7,318.6,417.7,315.4,410.4z"/>
						</defs>
						<clipPath id="SVGID_60_">
							<use xlink:href="#SVGID_59_"  style="overflow:visible;"/>
						</clipPath>
						<path class="st49" d="M319.6,415c0,0-27.6-22.9-65.9,0v-19.4h67.5v1.1L319.6,415z"/>
					</g>
				</g>
			</g>
			<path class="st50" d="M277.3,439.7c0,0,1-1.6-0.5-1.9s-9.4-0.7-11.4,0s-3.1,2.7-3.3,3.8c0,0,1.9-2.5,4-2.6
				C268.1,438.9,276.7,439.7,277.3,439.7z"/>
			<path class="st50" d="M296.9,439.5c0,0-1-1.6,0.5-1.9s9.4-0.7,11.4,0s3.1,2.7,3.3,3.8c0,0-1.9-2.5-4-2.6
				C306.1,438.8,297.5,439.5,296.9,439.5z"/>
			<ellipse class="st51" cx="270.5" cy="445.8" rx="3.3" ry="3.8"/>
			<ellipse class="st51" cx="304.3" cy="445.6" rx="3.3" ry="3.8"/>
			<g>
				<g>
					<defs>
						<path id="SVGID_61_" d="M296.3,463.9l-0.6,3c0,0-4.1,3.8-13.1,1.3c0,0-0.9-1.9-1-3.3C281.6,464.8,284.6,466.5,296.3,463.9z"/>
					</defs>
					<clipPath id="SVGID_62_">
						<use xlink:href="#SVGID_61_"  style="overflow:visible;"/>
					</clipPath>
					<path class="st52" d="M281.7,463.8l0.5,1.4c0,0,2.3,1.7,13.4,0.1v-2.1L281.7,463.8z"/>
				</g>
			</g>
			<g>
				<path class="st25" d="M304.3,530.4l-0.1-8c-9.8,1.4-19.8,1.4-29.6,0.1c0.2,1.4,0.3,3.5,0.4,6.5c0,0.5,0,1.1,0,1.6
					C284.7,531.7,294.6,531.6,304.3,530.4z"/>
			</g>
			<g>
				<path class="st25" d="M304.4,537l-0.1-5.6c-9.7,1.4-19.5,1.4-29.2,0.2c0,1.9,0,3.8,0,5.6C284.8,538.4,294.7,538.3,304.4,537z"/>
			</g>
			<g>
				<path class="st25" d="M303.5,541.7l-0.1-3.5c-9.2,1.4-18.6,1.5-27.7,0.2c0,1.3,0,2.5,0,3.5C284.9,543.1,294.3,543,303.5,541.7z"
					/>
			</g>
			<g>
				<path class="st28" d="M266.3,583.9c0,0,2.4-1.4,0.3-4s-1-0.8-1-0.8s-0.4-4-0.6-5.5c-0.2-1.6-2.8,1-3.2,2.6
					C261.3,577.8,265,583.3,266.3,583.9z"/>
				<path class="st29" d="M262.5,584.1c0.1,0,3,2.9,3,2.9s2-0.8,1.5-2.3c-0.4-1.6-1.3-2.7-2-3.4s-2.5-3.2-2.6-4s1.7-2.3,1.5-3
					c-0.2-0.6-0.8-1.1-1.2-0.8c-0.3,0.3-1.2,3.1-1.3,3.6c0,0-1.3,1.3-1.5,1.4c-0.1,0.1,0,0.9,0.2,1.5s1,2.3,1,2.3"/>
				<path class="st30" d="M258.9,582.3c0.1,0.1,1.4,6.4,1.7,7c0.2-0.1,1.1,0.4,2.7-0.7c1.5-1.1,0.3-4.9-0.1-5.5s-1.9-4.5-1.9-4.9
					s0.2-1.4,0.3-1.8C261.7,575.8,258.9,582.3,258.9,582.3z"/>
				<path class="st24" d="M263.2,564.8c0,0-4,8.8-4.5,10.2c-0.6,1.4-2.4,5.3-3.3,6.8c-1.5,2.5-4.1,4.7-4,5.2c0.5,1,2.7,2.7,5.1,0.6
					c2.4-2.1,3.7-5.9,4.2-7s2.5-5.3,4-5.5c0,0,0.3,1.7,0.3,2.3c0,0.7,0.6,2.7,0.9,3.3c0.4,0.8,5.9,2.7,7.1,0.1c0,0,0-0.2-0.8-1.1
					c-0.8-0.8-1.8-2.1-2.1-3.1c-0.2-1-0.8-0.7-0.5-2.5c0.2-1.8,0.4-1.2,0-2.7s-1-2.4-0.9-3.6c0-1.3,0.2-2.9,0.2-3.4
					s-0.7-1.3-1.1-1.5s-4.7,1.7-4.7,1.7"/>
				<g>
					<path class="st25" d="M272.1,489.5c-3.1,0.5-9.1,41-9,39c0.4-4.9-1.7,23.2-0.8,36.5c0,0,1.4,1.3,4.8,1.6
						c2.6,0.3,3.6-0.8,3.6-0.8s1.2-37.2,1.3-37.7c0.1-1,3.5-22.9,3.5-23.4C275.5,504.2,272.9,489.4,272.1,489.5z"/>
					<path class="st25" d="M270.9,565.9c0,0,0-1.1,0.1-2.9c-5,0.8-8-0.8-9.1-1.5c0,1.2,0.1,2.4,0.2,3.5c0,0,1.5,1.3,5.1,1.7
						C269.9,567,270.9,565.9,270.9,565.9z"/>
				</g>
			</g>
			<g>
				<path class="st53" d="M258.8,440.3c0,0-0.5,9.7,0.1,9.8c1.6,0.3,12,2.6,22.2,0c0,0,1.6-5,0.4-7.9c-0.3-0.7-0.9-2.4-2.4-3
					C273.9,437.3,263.1,437.6,258.8,440.3z"/>
				<path class="st53" d="M314.6,440.3c0,0,0.5,9.7-0.1,9.8c-1.6,0.3-12,2.6-22.1,0c0,0-1.6-5-0.4-7.9c0.3-0.7,0.9-2.4,2.4-3
					C299.5,437.3,310.3,437.6,314.6,440.3z"/>
				<path class="st54" d="M315.3,439.6c-0.4-0.7-5.4-2.1-12.8-2.1s-10.4,0.3-10.9,2.3c0,0-1.9-0.8-4.7-0.9l0,0l0,0l0,0l0,0
					c-2.9,0.1-4.7,0.9-4.7,0.9c-0.5-2-3.6-2.3-11-2.3s-12.5,1.4-12.9,2.1s0.1,9.2,0.1,9.2s0.1,1.7,0.7,1.6c1.1-0.2-0.3-8.5,1.6-9.6
					c1.9-1,16.8-2.2,18.6-0.5c1.8,1.8,2.2,5.7,2.1,8.5c0,1.3-0.5,1.5-0.1,1.6s0.9-0.4,1.3-1.3c0.7-1.7,0.1-7.7,4.4-7.7
					c4.2,0,3.6,6,4.3,7.7c0.4,0.9,0.9,1.4,1.3,1.3s-0.1-0.2-0.1-1.6c-0.1-2.8,0.3-6.7,2.1-8.5c1.8-1.8,16.6-0.6,18.5,0.5
					c1.9,1,0.6,9.4,1.6,9.6c0.6,0.1,0.7-1.6,0.7-1.6S315.7,440.3,315.3,439.6z"/>
			</g>
			<g>
				<path class="st53" d="M258.8,453.1c0,0-0.5-9.7,0.1-9.8c1.6-0.3,12-2.6,22.2,0c0,0,1.6,5,0.4,7.9c-0.3,0.7-0.9,2.4-2.4,3
					C273.9,456.1,263.1,455.8,258.8,453.1z"/>
				<path class="st53" d="M314.6,453.1c0,0,0.5-9.7-0.1-9.8c-1.6-0.3-12-2.6-22.1,0c0,0-1.6,5-0.4,7.9c0.3,0.7,0.9,2.4,2.4,3
					C299.5,456.1,310.3,455.8,314.6,453.1z"/>
				<path class="st54" d="M282.9,448.1v-0.9v-0.1c-0.2-1.1-0.3-2.1-0.5-2.7c-0.4-0.9-0.9-1.4-1.3-1.3s0.1,0.2,0.1,1.6
					c0.1,2.8-0.3,6.7-2.1,8.5c-1.8,1.8-16.7,0.6-18.6-0.5c-1.9-1-0.6-9.4-1.6-9.6c-0.6-0.1-0.7,1.6-0.7,1.6s-0.5,8.5-0.1,9.2
					s5.5,2.1,12.9,2.1c6.2,0,9.3-0.2,10.5-1.4c0-0.2,0-0.4,0.1-0.6c0.2-0.4,0.3-0.8,0.5-1.1c0.1-1.5,0.5-2.9,0.8-4.3
					C282.9,448.3,282.9,448.2,282.9,448.1z"/>
				<path class="st54" d="M315.2,444.7c0,0-0.1-1.7-0.7-1.6c-1.1,0.2,0.2,8.5-1.6,9.6c-1.9,1-16.7,2.2-18.5,0.5
					c-1.8-1.8-2.2-5.7-2.1-8.5c0-1.3,0.5-1.5,0.1-1.6s-0.9,0.4-1.3,1.3c-0.3,0.8-0.4,2.7-0.8,4.3c0,0.2,0.1,0.4,0.1,0.6
					c0,0.1,0,0.2,0,0.3c0,0.1,0,0.3,0,0.4c-0.1,0.7,0,0.9,0.1,1.5c0.1,0.4,0.2,0.9,0.3,1.3c0,0.1,0.1,0.2,0.1,0.2
					c0.1,0.2,0.2,0.4,0.3,0.6c0.2-0.1,0.3-0.1,0.3-0.1c0.5,2,3.5,2.3,10.9,2.3s12.5-1.4,12.8-2.1
					C315.7,453.2,315.2,444.7,315.2,444.7z"/>
			</g>
			<path class="st25" d="M293.5,479.8c0,0-0.1,0-0.2-0.1c0.1,0.1,0.2,0.3,0.2,0.4c0,0.7-2.3,1.3-5.2,1.3c-2.8,0-5.2-0.6-5.2-1.3
				c0-0.1,0.1-0.2,0.2-0.4c-0.1,0-0.1,0-0.2,0.1l-0.4,4.8c0,0,4,3.8,11,0L293.5,479.8z"/>
		</g>
		<line class="st20" x1="450.3" y1="591.7" x2="472.3" y2="591.7"/>
		<line class="st20" x1="487.3" y1="591.7" x2="502.7" y2="591.7"/>
		<line class="st20" x1="517.6" y1="591.7" x2="539" y2="591.7"/>
		<line class="st20" x1="552.9" y1="591.7" x2="588.7" y2="591.7"/>
		<line class="st20" x1="598.6" y1="591.7" x2="620" y2="591.7"/>
		<line class="st20" x1="633.9" y1="591.7" x2="669.7" y2="591.7"/>
		<line class="st20" x1="686.9" y1="591.7" x2="722.7" y2="591.7"/>
		<line class="st20" x1="450.3" y1="619.7" x2="486.3" y2="619.7"/>
		<line class="st20" x1="513" y1="619.7" x2="549" y2="619.7"/>
		<line class="st20" x1="563.7" y1="619.7" x2="623.7" y2="619.7"/>
		<line class="st20" x1="638.5" y1="619.7" x2="674.3" y2="619.7"/>
		<g class="st55">
			<path d="M464.8,403.2h-7.4v-21.4h-6.7v-6.1h20.8v6.1h-6.7V403.2z"/>
			<path d="M488.4,403.2v-11.6c0-2.9-0.8-4.3-2.5-4.3c-1.2,0-2.1,0.5-2.7,1.5c-0.6,1-0.9,2.7-0.9,5v9.4H475v-29.3h7.4v4.2
				c0,1.9-0.1,4-0.3,6.4h0.3c0.7-1.1,1.5-1.9,2.5-2.3s2.1-0.7,3.4-0.7c2.4,0,4.2,0.7,5.6,2.1c1.3,1.4,2,3.3,2,5.8v13.9H488.4z"/>
			<path d="M511,403.5c-3.5,0-6.3-0.9-8.3-2.8c-2-1.9-2.9-4.6-2.9-8.1c0-3.6,0.9-6.4,2.7-8.3c1.8-1.9,4.4-2.9,7.8-2.9
				c3.2,0,5.7,0.8,7.4,2.5c1.7,1.7,2.6,4.1,2.6,7.2v3.3h-13.1c0,1.2,0.5,2.1,1.3,2.8c0.8,0.7,1.9,1,3.4,1c1.3,0,2.5-0.1,3.6-0.4
				c1.1-0.2,2.3-0.7,3.5-1.3v5.3c-1.2,0.6-2.3,1-3.6,1.2C514.2,403.4,512.7,403.5,511,403.5z M510.6,386.5c-0.9,0-1.6,0.3-2.2,0.8
				c-0.6,0.5-0.9,1.4-1,2.6h6.3c0-1-0.3-1.8-0.9-2.5S511.5,386.5,510.6,386.5z"/>
			<path d="M535,375.7h9.6c3.7,0,6.5,0.6,8.3,1.7s2.7,2.8,2.7,5.2c0,1.5-0.4,2.9-1.2,3.9c-0.8,1.1-1.8,1.8-3.1,2.1v0.2
				c1.7,0.5,2.9,1.2,3.7,2.3c0.8,1.1,1.1,2.4,1.1,4.1c0,2.5-0.9,4.5-2.8,5.9c-1.9,1.4-4.4,2.2-7.7,2.2H535V375.7z M542.4,386.2h2.2
				c1.1,0,1.9-0.2,2.5-0.7s0.9-1.1,0.9-2c0-1.5-1.2-2.3-3.5-2.3h-2.1V386.2z M542.4,391.7v5.8h2.6c2.3,0,3.5-1,3.5-2.9
				c0-0.9-0.3-1.6-0.9-2.1c-0.6-0.5-1.5-0.7-2.7-0.7H542.4z"/>
			<path d="M570.8,403.5c-3.5,0-6.3-0.9-8.3-2.8c-2-1.9-2.9-4.6-2.9-8.1c0-3.6,0.9-6.4,2.7-8.3c1.8-1.9,4.4-2.9,7.8-2.9
				c3.2,0,5.7,0.8,7.4,2.5s2.6,4.1,2.6,7.2v3.3H567c0,1.2,0.5,2.1,1.3,2.8c0.8,0.7,1.9,1,3.4,1c1.3,0,2.5-0.1,3.6-0.4
				s2.3-0.7,3.5-1.3v5.3c-1.2,0.6-2.3,1-3.6,1.2C574,403.4,572.5,403.5,570.8,403.5z M570.4,386.5c-0.9,0-1.6,0.3-2.2,0.8
				c-0.6,0.5-0.9,1.4-1,2.6h6.3c0-1-0.3-1.8-0.9-2.5S571.3,386.5,570.4,386.5z"/>
			<path d="M600.8,396.6c0,2.3-0.8,4-2.3,5.2c-1.6,1.2-3.8,1.7-6.7,1.7c-1.6,0-3-0.1-4.1-0.3c-1.2-0.2-2.4-0.5-3.6-0.9v-5.9
				c1.1,0.5,2.4,0.9,3.8,1.2c1.4,0.3,2.6,0.5,3.6,0.5c1.6,0,2.4-0.4,2.4-1.1c0-0.4-0.2-0.7-0.7-1s-1.7-0.9-3.9-1.7
				c-2-0.8-3.3-1.7-4.1-2.7s-1.2-2.3-1.2-3.9c0-2,0.8-3.5,2.3-4.6c1.5-1.1,3.7-1.7,6.5-1.7c1.4,0,2.7,0.2,4,0.5
				c1.2,0.3,2.5,0.8,3.8,1.3l-2,4.7c-1-0.4-2-0.8-3.1-1.1c-1.1-0.3-2-0.5-2.7-0.5c-1.2,0-1.8,0.3-1.8,0.9c0,0.4,0.2,0.7,0.6,0.9
				s1.6,0.8,3.6,1.6c1.5,0.6,2.6,1.2,3.3,1.8s1.3,1.3,1.6,2.1S600.8,395.5,600.8,396.6z"/>
			<path d="M615.3,397.7c1,0,2.2-0.2,3.6-0.7v5.4c-1,0.4-1.9,0.7-2.8,0.9c-0.9,0.2-1.9,0.3-3.2,0.3c-2.5,0-4.2-0.6-5.3-1.8
				s-1.6-3.1-1.6-5.6v-8.8h-2.6v-3l3.3-2.3l1.9-4.5h4.8v4.3h5.2v5.5h-5.2v8.3C613.3,397,614,397.7,615.3,397.7z"/>
		</g>
		<g class="st55">
			<path d="M478.4,429.6c0,4.6-1.1,8.1-3.4,10.5c-2.3,2.4-5.6,3.6-10,3.6c-4.3,0-7.6-1.2-9.9-3.6s-3.5-5.9-3.5-10.6
				c0-4.6,1.1-8.1,3.4-10.5c2.3-2.4,5.6-3.6,10-3.6c4.4,0,7.7,1.2,9.9,3.6S478.4,425,478.4,429.6z M459.4,429.6c0,5.3,1.8,8,5.5,8
				c1.9,0,3.3-0.6,4.2-1.9c0.9-1.3,1.4-3.3,1.4-6c0-2.7-0.5-4.8-1.4-6.1c-0.9-1.3-2.3-2-4.1-2C461.3,421.5,459.4,424.2,459.4,429.6z
				"/>
			<path d="M498.1,443.4l-0.9-2.7h-0.4c-0.6,1-1.5,1.7-2.6,2.2c-1.1,0.5-2.4,0.8-3.9,0.8c-2.3,0-4.2-0.7-5.5-2c-1.3-1.4-2-3.3-2-5.8
				v-13.9h7.4v11.6c0,1.4,0.2,2.4,0.6,3.2c0.4,0.7,1,1.1,1.9,1.1c1.3,0,2.2-0.5,2.7-1.5c0.5-1,0.8-2.7,0.8-5v-9.3h7.4v21.3H498.1z"
				/>
			<path d="M519.1,437.9c1,0,2.2-0.2,3.6-0.7v5.4c-1,0.4-1.9,0.7-2.8,0.9s-1.9,0.3-3.1,0.3c-2.5,0-4.2-0.6-5.3-1.8
				c-1.1-1.2-1.6-3.1-1.6-5.6v-8.8h-2.6v-3l3.3-2.3l1.9-4.5h4.8v4.3h5.2v5.5h-5.2v8.3C517.1,437.2,517.8,437.9,519.1,437.9z"/>
			<path d="M539.4,427.6h-4.5v15.8h-7.4v-15.8h-2.8V424l3-1.8v-0.4c0-2.8,0.6-4.8,1.7-6.1s3-1.8,5.5-1.8c1,0,1.9,0.1,2.8,0.2
				s1.9,0.4,3,0.8l-1.6,4.8c-0.9-0.2-1.8-0.4-2.7-0.4c-0.6,0-1,0.2-1.2,0.5c-0.3,0.3-0.4,0.9-0.4,1.7v0.6h4.5V427.6z M542.2,416.8
				c0-1.1,0.3-1.9,0.9-2.5c0.6-0.5,1.6-0.8,3-0.8s2.4,0.3,3,0.8s0.9,1.4,0.9,2.4c0,2.2-1.3,3.2-3.9,3.2
				C543.5,420,542.2,418.9,542.2,416.8z M549.7,443.4h-7.4v-21.3h7.4V443.4z"/>
			<path d="M565.2,437.9c1,0,2.2-0.2,3.6-0.7v5.4c-1,0.4-1.9,0.7-2.8,0.9c-0.9,0.2-1.9,0.3-3.2,0.3c-2.5,0-4.2-0.6-5.3-1.8
				s-1.6-3.1-1.6-5.6v-8.8h-2.6v-3l3.3-2.3l1.9-4.5h4.8v4.3h5.2v5.5h-5.2v8.3C563.3,437.2,563.9,437.9,565.2,437.9z"/>
			<path d="M571.6,440.3c0-1.2,0.3-2,1-2.7c0.7-0.6,1.7-0.9,3-0.9c1.2,0,2.2,0.3,2.9,0.9s1,1.5,1,2.7c0,1.1-0.3,2-1,2.6
				c-0.7,0.6-1.6,0.9-2.8,0.9c-1.2,0-2.2-0.3-2.9-0.9C572,442.3,571.6,441.4,571.6,440.3z"/>
			<path d="M582.7,440.3c0-1.2,0.3-2,1-2.7c0.7-0.6,1.7-0.9,3-0.9c1.2,0,2.2,0.3,2.9,0.9s1,1.5,1,2.7c0,1.1-0.3,2-1,2.6
				c-0.7,0.6-1.6,0.9-2.8,0.9c-1.2,0-2.2-0.3-2.9-0.9C583.1,442.3,582.7,441.4,582.7,440.3z"/>
			<path d="M593.9,440.3c0-1.2,0.3-2,1-2.7c0.7-0.6,1.7-0.9,3-0.9c1.2,0,2.2,0.3,2.9,0.9c0.7,0.6,1,1.5,1,2.7c0,1.1-0.3,2-1,2.6
				s-1.6,0.9-2.8,0.9c-1.2,0-2.2-0.3-2.9-0.9C594.2,442.3,593.9,441.4,593.9,440.3z"/>
			<path d="M622.7,443.4h-16.3v-27.5h16.3v6h-8.9v4.3h8.2v6h-8.2v5.2h8.9V443.4z"/>
			<path d="M642.9,415.9h8.3l-9,27.5h-8.7l-9-27.5h8.3l3.7,13.9c0.8,3.1,1.2,5.3,1.3,6.5c0.1-0.9,0.3-2,0.5-3.3
				c0.3-1.3,0.5-2.4,0.7-3.1L642.9,415.9z"/>
			<path d="M670.5,443.4h-16.3v-27.5h16.3v6h-8.9v4.3h8.2v6h-8.2v5.2h8.9V443.4z"/>
			<path d="M682.8,433.4v10h-7.4v-27.5h9c7.5,0,11.2,2.7,11.2,8.1c0,3.2-1.6,5.6-4.7,7.4l8,12h-8.4l-5.8-10H682.8z M682.8,427.8h1.4
				c2.6,0,3.9-1.1,3.9-3.4c0-1.9-1.3-2.8-3.8-2.8h-1.5V427.8z"/>
			<path d="M700.1,440.3c0-1.2,0.3-2,1-2.7c0.7-0.6,1.7-0.9,3-0.9c1.2,0,2.2,0.3,2.9,0.9c0.7,0.6,1,1.5,1,2.7c0,1.1-0.3,2-1,2.6
				s-1.6,0.9-2.8,0.9c-1.2,0-2.2-0.3-2.9-0.9C700.4,442.3,700.1,441.4,700.1,440.3z"/>
		</g>
	</g>
</g>
</svg>
