<?xml version="1.0" encoding="utf-8"?>
<!-- Generator: Adobe Illustrator 19.1.0, SVG Export Plug-In . SVG Version: 6.00 Build 0)  -->
<!DOCTYPE svg PUBLIC "-//W3C//DTD SVG 1.1//EN" "http://www.w3.org/Graphics/SVG/1.1/DTD/svg11.dtd">
<svg version="1.1" id="Layer_1" xmlns="http://www.w3.org/2000/svg" xmlns:xlink="http://www.w3.org/1999/xlink" x="0px" y="0px"
	 viewBox="0 -45 60 291" style="enable-background:new 0 -45 60 291;" xml:space="preserve">
<style type="text/css">
	.st0{fill:#4A525A;}
	.st1{opacity:0.2;enable-background:new    ;}
	.st2{fill:#FFFFFF;}
	.st3{fill:#81B1D2;}
</style>
<g>
	<path class="st0" d="M16.3,49.2V37.9l22.5-11.6V26c-3.5,0.3-6.2,0.4-8.1,0.4H16.3v-7.6h31.9V30L26.1,41.6v0.1
		c3.2-0.2,5.8-0.3,7.7-0.3h14.4v7.7H16.3V49.2z"/>
	<path class="st0" d="M32.3,85.9c-5.4,0-9.4-1.3-12.2-3.9s-4.2-6.5-4.2-11.6c0-5,1.4-8.8,4.2-11.5s6.9-4,12.3-4
		c5.3,0,9.4,1.3,12.2,4c2.8,2.7,4.2,6.5,4.2,11.6s-1.4,8.9-4.2,11.5S37.7,85.9,32.3,85.9z M32.3,63.9c-6.2,0-9.2,2.1-9.2,6.4
		c0,2.2,0.7,3.8,2.2,4.9s3.8,1.6,7,1.6s5.5-0.5,7.1-1.6c1.5-1.1,2.3-2.7,2.3-4.8C41.6,66.1,38.5,63.9,32.3,63.9z"/>
	<path class="st0" d="M16.3,126.1v-10.2l13.9-3.1c0.6-0.1,1.7-0.4,3.5-0.7c1.7-0.3,3.2-0.5,4.3-0.7c-0.9-0.1-2.1-0.3-3.5-0.6
		s-2.7-0.5-3.9-0.8c-1.2-0.3-5.9-1.3-14.3-3.2V96.6l31.9-7.9V97l-16,3.5c-3.5,0.8-6.3,1.3-8.4,1.6c1.5,0.2,3.5,0.5,6,1
		s4.7,0.9,6.3,1.4l12.1,2.8v8L36.1,118c-1.9,0.5-4.2,0.9-6.7,1.4s-4.4,0.8-5.7,1c1.6,0.2,4.4,0.7,8.4,1.5l16,3.5v8.3L16.3,126.1z"/>
</g>
<circle class="st1" cx="36" cy="-15" r="24"/>
<circle class="st0" cx="30" cy="-19" r="24"/>
<g>
	<path class="st2" d="M30.1-27.4c5.4,0,10.3,3.9,11.9,9c1.6,5.2-0.6,10.9-5.1,13.9c-4.6,3-10.7,2.6-14.9-0.9c-2-1.7-3.4-4-4-6.5
		c-0.3-1.2-0.3-2.3-0.3-3.5c0-5.1,0-10.3,0-15.4c0-0.9,0-1.7,0-2.6c0-0.2,0-0.3,0-0.5c0-1,1-1.8,2-1.6c1.3,0.3,1.2,1.6,1.2,2.6
		c0,1.3,0,2.6,0,3.9c0,2.1,0,4.1,0,6.2C23.1-25.4,26.4-27.3,30.1-27.4C31.7-27.4,28.1-27.3,30.1-27.4z M20.7-14.9
		c0,5.5,5,9.9,10.5,9.1c5.4-0.7,9.1-6.3,7.7-11.6c-1.2-4.5-5.6-7.4-10.2-6.8C24.2-23.5,20.8-19.4,20.7-14.9
		C20.7-13.6,20.7-16.2,20.7-14.9z"/>
	<path class="st3" d="M25.3-14.9c0,2.4,2,4.6,4.5,4.6c2.5,0.1,4.7-1.9,4.8-4.5c0.1-2.5-2-4.7-4.5-4.8C27.5-19.6,25.4-17.4,25.3-14.9
		C25.3-14.3,25.3-15.6,25.3-14.9z"/>
</g>
</svg>
