<?xml version="1.0" encoding="utf-8"?>
<!-- Generator: Adobe Illustrator 19.1.0, SVG Export Plug-In . SVG Version: 6.00 Build 0)  -->
<!DOCTYPE svg PUBLIC "-//W3C//DTD SVG 1.1//EN" "http://www.w3.org/Graphics/SVG/1.1/DTD/svg11.dtd">
<svg version="1.1" id="Layer_1" xmlns="http://www.w3.org/2000/svg" xmlns:xlink="http://www.w3.org/1999/xlink" x="0px" y="0px"
	 viewBox="0 -45 60 291" style="enable-background:new 0 -45 60 291;" xml:space="preserve">
<style type="text/css">
	.st0{fill:#4A525A;}
	.st1{opacity:0.2;enable-background:new    ;}
	.st2{fill:#FFFFFF;}
	.st3{fill:#81B1D2;}
</style>
<g>
	<path class="st0" d="M32.3,48.6c-7.2,0-12.1-2.3-14.6-6.9l-9,7.8V38.8l7.1-5.6l0,0l0,0l0,0c0-5,1.4-8.8,4.2-11.5s6.9-4,12.3-4
		c5.3,0,9.4,1.3,12.2,4c2.8,2.7,4.2,6.5,4.2,11.6s-1.4,8.9-4.2,11.5C41.8,47.3,37.7,48.6,32.3,48.6z M32.3,26.7
		c-6.2,0-9.2,2.1-9.2,6.4c0,2.2,0.7,3.8,2.2,4.9s3.8,1.6,7,1.6s5.5-0.5,7.1-1.6c1.5-1.1,2.3-2.7,2.3-4.8
		C41.6,28.8,38.5,26.7,32.3,26.7z"/>
	<path class="st0" d="M22.5,76.4v-3.5h-6.2v-8.5h6.2V51.7h6.3L48.2,65v8H28.9v3.5L22.5,76.4L22.5,76.4z M28.9,64.4h3.7
		c0.7,0,1.6,0,2.8,0.1s1.8,0.1,1.9,0.1v-0.2c-1.1-0.5-2.2-1.1-3.1-1.7l-5.3-3.5C28.9,59.2,28.9,64.4,28.9,64.4z"/>
	<path class="st0" d="M16.3,113.2V90H22l7.9,7.8c2.3,2.2,3.9,3.7,4.8,4.4s1.6,1.2,2.2,1.4c0.6,0.3,1.2,0.4,1.9,0.4
		c0.8,0,1.5-0.3,2-0.8s0.7-1.3,0.7-2.3s-0.3-2-0.9-3c-0.6-1-1.4-2.2-2.5-3.5l5.5-4.7c1.5,1.6,2.5,3,3.2,4.1c0.6,1.1,1.1,2.3,1.5,3.7
		c0.3,1.3,0.5,2.8,0.5,4.4c0,2.1-0.4,3.9-1.1,5.5c-0.7,1.6-1.8,2.9-3.1,3.8c-1.3,0.9-2.9,1.3-4.5,1.3c-1.2,0-2.4-0.2-3.5-0.5
		s-2.1-0.8-3.1-1.5s-2.1-1.5-3.2-2.6s-3.3-3.4-6.5-6.9h-0.2v12.1h-7.3V113.2z"/>
	<path class="st0" d="M32.2,139.5c-5.6,0-9.8-0.9-12.4-2.8c-2.6-1.9-3.9-4.8-3.9-8.7c0-3.8,1.4-6.7,4.1-8.6
		c2.7-1.9,6.8-2.9,12.2-2.9c5.7,0,9.8,0.9,12.5,2.8c2.6,1.9,4,4.8,4,8.7c0,3.8-1.4,6.7-4.1,8.6S37.7,139.5,32.2,139.5z M32.2,125
		c-3.6,0-6.1,0.2-7.4,0.7c-1.4,0.5-2,1.2-2,2.3s0.7,1.8,2.1,2.3c1.4,0.4,3.9,0.7,7.4,0.7s6-0.2,7.4-0.7s2.1-1.2,2.1-2.3
		s-0.7-1.8-2-2.3C38.4,125.2,35.9,125,32.2,125z"/>
	<path class="st0" d="M16.3,161.6v-8.7h16.9c2,0,3.9,0,5.6,0.1c-0.7-0.5-1.3-1.2-2-2l-3-3.6l5.5-4.5l8.9,10.9v7.8H16.3z"/>
	<path class="st0" d="M37.2,181.7c0,1.8-0.4,3.5-1.3,5c-0.9,1.5-2.1,2.6-3.6,3.4s-3.4,1.2-5.4,1.2c-3.6,0-6.3-1.1-8.2-3.2
		c-1.9-2.1-2.9-5.4-2.9-9.7c0-3.7,0.6-6.8,1.7-9.1h7.1c-0.6,1.3-1.1,2.7-1.4,4.3c-0.4,1.6-0.6,3-0.6,4.1c0,1.6,0.3,2.8,1,3.7
		s1.7,1.3,3,1.3c1.2,0,2.2-0.4,2.9-1.3c0.7-0.9,1-2.2,1-4c0-1.4-0.3-2.8-0.8-4.4l1.6-3.2l16.8,1.2v18.2H41v-10.9l-4.2-0.4
		c0.2,1.1,0.3,1.9,0.4,2.4C37.2,180.8,37.2,181.3,37.2,181.7z"/>
</g>
<circle class="st1" cx="36" cy="-15" r="24"/>
<circle class="st0" cx="30" cy="-19" r="24"/>
<g>
	<path class="st2" d="M30.1-27.4c5.4,0,10.3,3.9,11.9,9c1.6,5.2-0.6,10.9-5.1,13.9c-4.6,3-10.7,2.6-14.9-0.9c-2-1.7-3.4-4-4-6.5
		c-0.3-1.2-0.3-2.3-0.3-3.5c0-5.1,0-10.3,0-15.4c0-0.9,0-1.7,0-2.6c0-0.2,0-0.3,0-0.5c0-1,1-1.8,2-1.6c1.3,0.3,1.2,1.6,1.2,2.6
		c0,1.3,0,2.6,0,3.9c0,2.1,0,4.1,0,6.2C23.1-25.4,26.4-27.3,30.1-27.4C31.7-27.4,28.1-27.3,30.1-27.4z M20.7-14.9
		c0,5.5,5,9.9,10.5,9.1c5.4-0.7,9.1-6.3,7.7-11.6c-1.2-4.5-5.6-7.4-10.2-6.8C24.2-23.5,20.8-19.4,20.7-14.9
		C20.7-13.6,20.7-16.2,20.7-14.9z"/>
	<path class="st3" d="M25.3-14.9c0,2.4,2,4.6,4.5,4.6c2.5,0.1,4.7-1.9,4.8-4.5c0.1-2.5-2-4.7-4.5-4.8C27.5-19.6,25.4-17.4,25.3-14.9
		C25.3-14.3,25.3-15.6,25.3-14.9z"/>
</g>
</svg>
