<?xml version="1.0" encoding="utf-8"?>
<!-- Generator: Adobe Illustrator 19.1.0, SVG Export Plug-In . SVG Version: 6.00 Build 0)  -->
<!DOCTYPE svg PUBLIC "-//W3C//DTD SVG 1.1//EN" "http://www.w3.org/Graphics/SVG/1.1/DTD/svg11.dtd">
<svg version="1.1" id="Layer_1" xmlns="http://www.w3.org/2000/svg" xmlns:xlink="http://www.w3.org/1999/xlink" x="0px" y="0px"
	 viewBox="0 0 1506.1 1117.4" style="enable-background:new 0 0 1506.1 1117.4;" xml:space="preserve">
<style type="text/css">
	.st0{fill:#FFFFFF;}
	.st1{fill:#C6C5A3;}
	.st2{fill:#D2D1B1;}
	.st3{fill:#B6B184;}
	.st4{fill:#C1BE99;}
	.st5{fill:#59595C;}
	.st6{fill:#183B51;stroke:#183B51;stroke-miterlimit:10;}
	.st7{fill:none;stroke:#183B51;stroke-width:6;stroke-linecap:round;stroke-linejoin:round;stroke-miterlimit:10;}
	.st8{fill:#FFFFFF;stroke:#183B51;stroke-width:6;stroke-linecap:round;stroke-linejoin:round;stroke-miterlimit:10;}
	.st9{fill:#FAA61B;}
	.st10{fill:#F6C215;}
	.st11{fill:#989898;}
	.st12{display:none;fill:#989898;}
	.st13{fill:#7EB0D1;}
	.st14{opacity:0.36;}
	.st15{clip-path:url(#SVGID_2_);}
	.st16{fill:#495259;}
	.st17{fill:#1071A6;}
	.st18{fill:none;stroke:#FFFFFF;stroke-width:6;stroke-linecap:round;stroke-linejoin:round;stroke-miterlimit:10;}
</style>
<path class="st0" d="M638.5,635.1c0-17.8-14.4-32.2-32.2-32.2c-2.9,0-5.7,0.4-8.4,1.1c-5.9-6.5-14.4-10.7-23.9-10.7
	c-6.9,0-13.3,2.2-18.6,5.9c-5.2-3.7-11.6-5.9-18.6-5.9c-12.2,0-22.9,6.8-28.3,16.9c-17.4,4.3-30.3,20-30.3,38.8
	c0,22,17.9,39.9,39.9,39.9c9,0,17.4-3,24.1-8.1c5.4,3.1,11.6,4.9,18.3,4.9c6.7,0,12.9-1.8,18.3-4.9c5.4,3.1,11.6,4.9,18.3,4.9
	c19.2,0,35-14.8,36.5-33.6C636.7,647.2,638.5,641.4,638.5,635.1z"/>
<g>
	<path class="st1" d="M1005.6,856.2c0,139-112.7,251.6-251.6,251.6c-139,0-251.6-112.7-251.6-251.6S615,604.6,754,604.6
		C892.9,604.6,1005.6,717.2,1005.6,856.2z"/>
	<path class="st2" d="M754,604.6c-49.7,0-96.1,14.5-135.1,39.4c-24.9,39-39.4,85.4-39.4,135.1c0,139,112.7,251.6,251.6,251.6
		c49.7,0,96.1-14.5,135.1-39.4c24.9-39.1,39.4-85.4,39.4-135.1C1005.6,717.2,892.9,604.6,754,604.6z"/>
	<g>
		<path class="st3" d="M638.8,825.2c0,26-21.1,47.2-47.2,47.2c-26.1,0-47.2-21.1-47.2-47.2c0-26.1,21.1-47.2,47.2-47.2
			C617.7,778,638.8,799.1,638.8,825.2z"/>
		<path class="st4" d="M591.7,778c-9.3,0-18,2.7-25.3,7.4c-4.7,7.3-7.4,16-7.4,25.3c0,26.1,21.1,47.2,47.2,47.2
			c9.3,0,18-2.7,25.3-7.4c4.7-7.3,7.4-16,7.4-25.3C638.8,799.1,617.7,778,591.7,778z"/>
	</g>
	<g>
		<path class="st3" d="M831.5,845.5c0,36.5-29.6,66.1-66.1,66.1c-36.5,0-66.1-29.6-66.1-66.1c0-36.5,29.6-66.1,66.1-66.1
			C801.9,779.4,831.5,809,831.5,845.5z"/>
		<path class="st4" d="M765.4,779.4c-13.1,0-25.2,3.8-35.5,10.4c-6.5,10.3-10.4,22.4-10.4,35.5c0,36.5,29.6,66.1,66.1,66.1
			c13.1,0,25.2-3.8,35.5-10.3c6.6-10.3,10.4-22.4,10.4-35.5C831.5,809,801.9,779.4,765.4,779.4z"/>
	</g>
	<g>
		<path class="st3" d="M676.8,986.8c0,15.3-12.4,27.6-27.6,27.6c-15.3,0-27.6-12.4-27.6-27.6c0-15.2,12.4-27.6,27.6-27.6
			C664.4,959.1,676.8,971.5,676.8,986.8z"/>
		<path class="st4" d="M649.2,959.1c-5.5,0-10.5,1.6-14.8,4.3c-2.7,4.3-4.3,9.4-4.3,14.8c0,15.3,12.4,27.6,27.6,27.6
			c5.4,0,10.5-1.6,14.8-4.3c2.7-4.3,4.3-9.4,4.3-14.8C676.8,971.5,664.4,959.1,649.2,959.1z"/>
	</g>
	<g>
		<path class="st3" d="M905.9,711c0,18.7-15.2,33.9-33.9,33.9c-18.7,0-33.9-15.2-33.9-33.9c0-18.7,15.2-33.9,33.9-33.9
			C890.8,677.2,905.9,692.3,905.9,711z"/>
		<path class="st4" d="M872.1,677.2c-6.7,0-12.9,1.9-18.2,5.3c-3.4,5.2-5.3,11.5-5.3,18.2c0,18.7,15.2,33.9,33.9,33.9
			c6.7,0,12.9-1.9,18.2-5.3c3.3-5.3,5.3-11.5,5.3-18.2C905.9,692.3,890.8,677.2,872.1,677.2z"/>
	</g>
	<g>
		<path class="st3" d="M703.2,672.1c0,10.7-8.6,19.3-19.3,19.3c-10.7,0-19.3-8.6-19.3-19.3c0-10.7,8.6-19.3,19.3-19.3
			C694.6,652.8,703.2,661.4,703.2,672.1z"/>
		<path class="st4" d="M683.9,652.8c-3.8,0-7.4,1.1-10.3,3c-1.9,3-3,6.5-3,10.4c0,10.6,8.6,19.3,19.3,19.3c3.8,0,7.4-1.1,10.4-3
			c1.9-3,3-6.5,3-10.4C703.2,661.4,694.6,652.8,683.9,652.8z"/>
	</g>
	<g>
		<path class="st3" d="M972.4,882.1c0,19.4-15.7,35.2-35.2,35.2c-19.5,0-35.2-15.8-35.2-35.2c0-19.4,15.7-35.2,35.2-35.2
			C956.7,846.9,972.4,862.7,972.4,882.1z"/>
		<path class="st4" d="M937.3,846.9c-7,0-13.5,2-18.9,5.5c-3.5,5.4-5.5,11.9-5.5,18.9c0,19.4,15.7,35.2,35.2,35.2
			c7,0,13.4-2,18.9-5.5c3.5-5.5,5.5-12,5.5-18.9C972.4,862.7,956.7,846.9,937.3,846.9z"/>
	</g>
	<g>
		<path class="st3" d="M859.8,1026.5c0,16.8-13.6,30.3-30.3,30.3c-16.8,0-30.3-13.6-30.3-30.3c0-16.7,13.6-30.3,30.3-30.3
			C846.2,996.1,859.8,1009.7,859.8,1026.5z"/>
		<path class="st4" d="M829.5,996.1c-6,0-11.6,1.8-16.3,4.8c-3,4.7-4.8,10.3-4.8,16.3c0,16.7,13.6,30.3,30.3,30.3
			c6,0,11.6-1.7,16.3-4.7c3-4.7,4.8-10.3,4.8-16.3C859.8,1009.7,846.2,996.1,829.5,996.1z"/>
	</g>
</g>
<g>
	<path class="st5" d="M446.5,581.7"/>
	<g>
		<g>
			<g>
				<path class="st6" d="M775.2,712l-94.4,44.3c-6.4,3-13.9,1.6-17.8-3.5l-40.9-53c-5.2-6.7-2-16.7,6.5-20.7l130.7-61.3
					c8.5-4,18.2,0,20,8.2l4.7,70C785.3,702.3,781.7,708.9,775.2,712z"/>
				<polyline class="st7" points="793.5,701.5 661.7,763.4 599.8,681.1 568.9,695.3 				"/>
				<path class="st7" d="M664.8,762.4c-6.2,4.4-7.8,12.8-4.1,18.9c4,6.6,13.4,8.7,20.3,3.9"/>
				<line class="st7" x1="681.4" y1="785.1" x2="780" y2="738.8"/>
				<circle class="st8" cx="681" cy="785.2" r="13.3"/>
				<circle class="st8" cx="779.7" cy="738.9" r="13.3"/>
			</g>
			<g>
				<g>
					<path class="st9" d="M594.7,730c63.4-29.7,78.6,2.8,15.2,32.5C545.7,792.6,489.9,810,485.7,801
						C481.5,792,530.5,760.2,594.7,730z"/>
					<path class="st10" d="M583.2,743c38.9-18.3,48.3,1.8,9.4,20.1c-39.8,18.7-74.1,29.3-76.7,23.8
						C513.3,781.3,543.3,761.7,583.2,743z"/>
				</g>
				<g>
					<g>
						
							<rect x="592.7" y="723.5" transform="matrix(0.9053 -0.4248 0.4248 0.9053 -257.0085 330.466)" class="st11" width="39.6" height="36"/>
						<g>
							<path class="st12" d="M641.2,707.8c-3.5-7.4-20.1-6.2-37.5,1.9c-9,4.2-16.4,9.6-21,14.8c14.9-7.3,25.8-4.1,27.4-0.7
								L641.2,707.8z"/>
							<path class="st12" d="M657,741.7c3.5,7.4-8.1,19.5-25.5,27.6c-9,4.2-17.9,6.5-24.8,6.7c15.1-6.8,19.6-17.2,18-20.6L657,741.7
								z"/>
							<path class="st13" d="M616.3,739.8c3,6.3,3,13.2,0.8,19.2c12.6-0.4,28.8-4.6,45.4-12.3c31.8-14.9,52.7-37.5,46.6-50.5
								c-6.1-12.9-36.8-11.3-68.6,3.6c-16.5,7.7-30.1,17.6-38.5,27C608.1,729,613.4,733.5,616.3,739.8z"/>
							
								<rect x="618.2" y="709.9" transform="matrix(0.4248 0.9053 -0.9053 0.4248 1024.0476 -136.5332)" class="st12" width="2.5" height="55.6"/>
						</g>
					</g>
					<g class="st14">
						<defs>
							
								<rect id="SVGID_1_" x="584.7" y="722.5" transform="matrix(0.9053 -0.4248 0.4248 0.9053 -252.0139 349.1726)" class="st14" width="144.4" height="34.3"/>
						</defs>
						<clipPath id="SVGID_2_">
							<use xlink:href="#SVGID_1_"  style="overflow:visible;"/>
						</clipPath>
						<g class="st15">
							
								<rect x="592.7" y="723.5" transform="matrix(0.9053 -0.4248 0.4248 0.9053 -257.0085 330.466)" class="st16" width="39.6" height="36"/>
							<g>
								<path class="st12" d="M641.2,707.8c-3.5-7.4-20.1-6.2-37.5,1.9c-9,4.2-16.4,9.6-21,14.8c14.9-7.3,25.8-4.1,27.4-0.7
									L641.2,707.8z"/>
								<path class="st12" d="M657,741.7c3.5,7.4-8.1,19.5-25.5,27.6c-9,4.2-17.9,6.5-24.8,6.7c15.1-6.8,19.6-17.2,18-20.6
									L657,741.7z"/>
								<path class="st17" d="M616.3,739.8c3,6.3,3,13.2,0.8,19.2c12.6-0.4,28.8-4.6,45.4-12.3c31.8-14.9,52.7-37.5,46.6-50.5
									c-6.1-12.9-36.8-11.3-68.6,3.6c-16.5,7.7-30.1,17.6-38.5,27C608.1,729,613.4,733.5,616.3,739.8z"/>
								
									<rect x="618.2" y="709.9" transform="matrix(0.4248 0.9053 -0.9053 0.4248 1024.0476 -136.5332)" class="st12" width="2.5" height="55.6"/>
							</g>
							<path class="st18" d="M614.5,726.5c0,0,49.8-37.5,82.9-31.5"/>
						</g>
					</g>
				</g>
			</g>
		</g>
		<path class="st18" d="M615,724.3c0,0,3.3-5.3,18.7-12.5"/>
		<path class="st18" d="M646.1,705.9c0,0,4.1-3,13.9-6.5"/>
		<path class="st18" d="M673.7,696.3c0,0,16.1-3.2,25.1,0"/>
	</g>
	<path class="st18" d="M555.8,745.6"/>
	<polygon class="st10" points="515.7,729.5 523.7,731.1 518,737 516.4,745 510.5,739.3 502.4,737.7 508.1,731.8 509.7,723.7 	"/>
	<polygon class="st10" points="584.9,812.6 590.8,818.3 582.8,820.2 577.1,826.2 575.2,818.2 569.3,812.5 577.3,810.5 583,804.6 	
		"/>
	<polygon class="st10" points="764.9,739.6 770.8,745.3 762.8,747.2 757.1,753.2 755.2,745.2 749.3,739.5 757.3,737.5 763,731.6 	
		"/>
	<polygon class="st10" points="485.9,842.6 491.8,848.3 483.8,850.2 478.1,856.2 476.2,848.2 470.3,842.5 478.3,840.5 484,834.6 	
		"/>
	<polygon class="st10" points="526.4,819 529.3,821.8 525.4,822.7 522.6,825.6 521.7,821.7 518.8,819 522.7,818 525.5,815.2 	"/>
	<polygon class="st10" points="636.4,759 639.3,761.8 635.4,762.7 632.6,765.6 631.7,761.7 628.8,759 632.7,758 635.5,755.2 	"/>
	<polygon class="st10" points="636.4,793 639.3,795.8 635.4,796.7 632.6,799.6 631.7,795.7 628.8,793 632.7,792 635.5,789.2 	"/>
	<polygon class="st10" points="710.9,786.6 716.8,792.3 708.8,794.2 703.1,800.2 701.2,792.2 695.3,786.5 703.3,784.5 709,778.6 	
		"/>
	<polygon class="st10" points="719.9,711.6 725.8,717.3 717.8,719.2 712.1,725.2 710.2,717.2 704.3,711.5 712.3,709.5 718,703.6 	
		"/>
	<polygon class="st10" points="427.2,835.3 436.1,843.7 424.2,846.6 415.7,855.4 412.9,843.5 404,835 415.9,832.2 424.4,823.4 	"/>
	<polygon class="st10" points="457,785.7 460.6,789.2 455.7,790.3 452.3,793.9 451.1,789.1 447.5,785.6 452.4,784.5 455.8,780.9 	
		"/>
</g>
<path class="st0" d="M1229.3,827.3c0-33.5-27.1-60.6-60.6-60.6c-5.5,0-10.8,0.7-15.9,2.1c-11.1-12.3-27.2-20.1-45.1-20.1
	c-13,0-25.1,4.1-35,11.1c-9.9-7-22-11.1-35-11.1c-23.1,0-43.2,12.9-53.4,31.9c-32.9,8.1-57.2,37.7-57.2,73.1
	c0,41.6,33.7,75.3,75.3,75.3c17,0,32.8-5.7,45.4-15.2c10.1,5.9,21.9,9.2,34.5,9.2c12.6,0,24.3-3.4,34.5-9.2
	c10.2,5.9,21.9,9.2,34.5,9.2c36.3,0,66-27.9,68.9-63.5C1225.9,850.2,1229.3,839.2,1229.3,827.3z"/>
<path class="st0" d="M201.7,254.6c0-27.8-22.5-50.3-50.3-50.3c-4.6,0-9,0.6-13.2,1.8c-9.2-10.2-22.5-16.7-37.4-16.7
	c-10.8,0-20.8,3.4-29,9.2c-8.2-5.8-18.2-9.2-29-9.2c-19.1,0-35.8,10.7-44.3,26.4c-27.2,6.7-47.5,31.3-47.5,60.6
	c0,34.5,27.9,62.4,62.4,62.4c14.1,0,27.2-4.7,37.6-12.6c8.4,4.9,18.2,7.6,28.6,7.6c10.4,0,20.2-2.8,28.6-7.7
	c8.4,4.9,18.2,7.7,28.6,7.7c30.1,0,54.7-23.2,57.1-52.6C198.9,273.5,201.7,264.4,201.7,254.6z"/>
<path class="st0" d="M1560.3,355.4c0-29.8-24.2-54-54-54c-4.9,0-9.6,0.7-14.2,1.9c-9.9-11-24.2-17.9-40.2-17.9
	c-11.6,0-22.4,3.7-31.2,9.9c-8.8-6.2-19.6-9.9-31.2-9.9c-20.6,0-38.4,11.5-47.6,28.4c-29.3,7.2-51,33.6-51,65.1
	c0,37,30,67.1,67.1,67.1c15.2,0,29.2-5.1,40.4-13.6c9,5.2,19.5,8.2,30.7,8.2c11.2,0,21.7-3,30.7-8.2c9,5.2,19.5,8.2,30.7,8.2
	c32.3,0,58.8-24.9,61.4-56.5C1557.3,375.8,1560.3,366,1560.3,355.4z"/>
</svg>
