<?xml version="1.0" encoding="utf-8"?>
<!-- Generator: Adobe Illustrator 19.1.0, SVG Export Plug-In . SVG Version: 6.00 Build 0)  -->
<!DOCTYPE svg PUBLIC "-//W3C//DTD SVG 1.1//EN" "http://www.w3.org/Graphics/SVG/1.1/DTD/svg11.dtd">
<svg version="1.1" id="Layer_1" xmlns="http://www.w3.org/2000/svg" xmlns:xlink="http://www.w3.org/1999/xlink" x="0px" y="0px"
	 viewBox="-338 256.7 322.3 488.3" style="enable-background:new -338 256.7 322.3 488.3;" xml:space="preserve">
<style type="text/css">
	.st0{fill:#1E448B;}
	.st1{fill:#F9F7F8;}
</style>
<g>
	<path class="st0" d="M-225.3,261h-37.6l-3.8,100.7c1.3-1,2.6-2,4-3.1C-236.8,337.3-224.2,304.4-225.3,261z"/>
	<path class="st0" d="M-108.3,359.3c1.2,1,2.4,1.9,3.6,2.8l-7.1-101.1h-34C-146.9,304.8-134.3,337.8-108.3,359.3z"/>
	<g>
		<path class="st0" d="M-105,398.2l0.7-31.2c-1.8-1.3-3.6-2.6-5.3-4.1c-18.7-15.4-40.4-45.5-38.9-101.8h-73.8
			c1.2,55.9-20.3,85.8-39,101.2c-1.8,1.5-3.7,2.9-5.5,4.2l1.5,36.7l2.7,161.4l-4,175.1l46.9,1.1l13.7-177.9l25.5-197l28.1,198.9
			l17.8,174.9l47.8,1.1l-14.8-181.5L-105,398.2z M-175.3,363.8c0,0.7-0.4,1.3-0.8,1.3c0,0-0.3,0-0.6,0c-1.5,0-5.4-0.6-9.2-5.8
			c-9.2-12.5-9.8-40.5-8.6-61.7c0-0.7,0.5-1.2,1-1.2h17.4c0.5,0,1,0.6,1,1.3V363.8z"/>
		<path class="st0" d="M-184.7,357.4c3,4.1,6,4.9,7.4,5v-63.3h-15.5C-194.6,335.7-189.4,351-184.7,357.4z"/>
	</g>
	<path class="st1" d="M-111.3,276.2h-151.4c-0.4,0-0.8,0.6-0.8,1.3c0,0.7,0.3,1.3,0.8,1.3h151.4c0.4,0,0.8-0.6,0.8-1.3
		C-110.6,276.8-110.9,276.2-111.3,276.2z"/>
</g>
</svg>
