<?xml version="1.0" encoding="utf-8"?>
<!-- Generator: Adobe Illustrator 19.1.0, SVG Export Plug-In . SVG Version: 6.00 Build 0)  -->
<!DOCTYPE svg PUBLIC "-//W3C//DTD SVG 1.1//EN" "http://www.w3.org/Graphics/SVG/1.1/DTD/svg11.dtd">
<svg version="1.1" id="Layer_1" xmlns="http://www.w3.org/2000/svg" xmlns:xlink="http://www.w3.org/1999/xlink" x="0px" y="0px"
	 viewBox="0 0 408.7 214.3" style="enable-background:new 0 0 408.7 214.3;" xml:space="preserve">
<style type="text/css">
	.st0{fill:#C23133;}
	.st1{fill:#F6C215;}
	.st2{opacity:0.45;clip-path:url(#SVGID_2_);}
	.st3{clip-path:url(#SVGID_4_);fill:#00AEEF;}
	.st4{clip-path:url(#SVGID_6_);fill:#00AEEF;}
	.st5{clip-path:url(#SVGID_2_);fill:#010101;}
	.st6{fill:none;stroke:#FFFFFF;stroke-linecap:round;stroke-linejoin:round;}
	.st7{fill:#448CCB;}
	.st8{fill:#6DCFF6;}
	.st9{fill:#00BFF3;}
</style>
<g>
	<g>
		<defs>
			<rect id="SVGID_1_" width="408.7" height="214.3"/>
		</defs>
		<clipPath id="SVGID_2_">
			<use xlink:href="#SVGID_1_"  style="overflow:visible;"/>
		</clipPath>
		<g class="st2">
			<g>
				<defs>
					<rect id="SVGID_3_" x="-42" y="56" width="240.3" height="146.9"/>
				</defs>
				<clipPath id="SVGID_4_">
					<use xlink:href="#SVGID_3_"  style="overflow:visible;"/>
				</clipPath>
				<rect x="18.4" y="103" class="st3" width="119.5" height="93.2"/>
			</g>
		</g>
		<g class="st2">
			<g>
				<defs>
					<rect id="SVGID_5_" x="142.7" y="56" width="240.3" height="146.9"/>
				</defs>
				<clipPath id="SVGID_6_">
					<use xlink:href="#SVGID_5_"  style="overflow:visible;"/>
				</clipPath>
				<rect x="203.1" y="103" class="st4" width="119.5" height="93.2"/>
			</g>
		</g>
		<path class="st5" d="M26.2,116.4l100.1-90.5l-5.9-6.5l4.4,7.5l-0.9-1.6l0.9,1.6l-0.9-1.6l0.9,1.6c0.1-0.1,4.5-2.6,10.1-5
			c2.8-1.2,5.9-2.4,8.8-3.2c2.9-0.8,5.6-1.3,7.4-1.3c0.8,0,1.4,0.1,1.8,0.2l0.3,0.1l0.1,0l0.4-0.6l-0.6,0.4l0.3,0.3l0.4-0.6
			l-0.6,0.4l0.1-0.1l-0.1,0.1l0,0l0.1-0.1l-0.1,0.1c0,0,0.1,0.3,0.2,1l17.4-1.9c-0.3-2.5-1-5-2.1-7.3c-1.8-3.4-4.8-6.1-8-7.5
			c-3.2-1.4-6.3-1.8-9.3-1.8c-4.3,0-8.5,0.9-12.4,2c-5.9,1.7-11.4,4.2-15.6,6.2c-4.1,2-6.9,3.6-7,3.7l-0.8,0.4L14.5,103.4
			L26.2,116.4z"/>
		<path class="st5" d="M132.6,117.4L132.6,117.4c0.3-0.2,5.4-3.1,12.7-5.9c7.3-2.8,17-5.4,26.3-5.4c4.8,0,9.5,0.7,13.8,2.2
			c4.4,1.6,8.4,4,12.2,7.8l12.4-12.4c-5.6-5.6-12.1-9.5-18.7-11.9c-6.6-2.4-13.3-3.3-19.7-3.3c-12.9,0-24.6,3.5-33.3,6.9
			c-8.7,3.4-14.4,6.8-14.6,6.9L132.6,117.4z"/>
		<path class="st5" d="M115.7,205.6v-8.7H36.3c-5.2,0-9.9-2.1-13.3-5.5c-3.4-3.4-5.5-8.1-5.5-13.3v-45.6c0-5.2,2.1-9.9,5.5-13.3
			c3.4-3.4,8.1-5.5,13.3-5.5h79.4c5.2,0,9.9,2.1,13.3,5.5c3.4,3.4,5.5,8.1,5.5,13.3V178c0,5.2-2.1,9.9-5.5,13.3
			c-3.4,3.4-8.1,5.5-13.3,5.5V205.6v8.7c20,0,36.3-16.2,36.3-36.3v-45.6c0-20-16.2-36.3-36.3-36.3H36.3c-20,0-36.3,16.2-36.3,36.3
			V178c0,10,4.1,19.1,10.6,25.7c6.5,6.5,15.7,10.6,25.7,10.6h79.4V205.6z"/>
		<path class="st5" d="M302.6,205.6v-8.7h-79.4c-5.2,0-9.9-2.1-13.3-5.5c-3.4-3.4-5.5-8.1-5.5-13.3v-45.6c0-5.2,2.1-9.9,5.5-13.3
			c3.4-3.4,8.1-5.5,13.3-5.5h79.4c5.2,0,9.9,2.1,13.3,5.5c3.4,3.4,5.5,8.1,5.5,13.3V178c0,5.2-2.1,9.9-5.5,13.3
			c-3.4,3.4-8.1,5.5-13.3,5.5V205.6v8.7c20,0,36.3-16.2,36.3-36.3v-45.6c0-20-16.2-36.3-36.3-36.3h-79.4c-20,0-36.3,16.2-36.3,36.3
			V178c0,10,4.1,19.1,10.6,25.7c6.5,6.5,15.7,10.6,25.7,10.6h79.4V205.6z"/>
		<path class="st5" d="M331.6,114.8l52.2-77l-7.2-4.9l5.5,6.8l-1-1.2l1,1.2l0,0l-1-1.2l1,1.2c0.1-0.1,2.5-2,5.3-3.7
			c1.4-0.8,2.9-1.6,4.2-2.1c1.2-0.5,2.2-0.6,2.2-0.6v-2l-0.6,1.8c0.4,0.1,0.6,0.1,0.6,0.1v-2l-0.6,1.8l1.2-3.3l-2.9,1.9
			c0.3,0.5,1.2,1.2,1.8,1.4l1.2-3.3l-2.9,1.9l1.6-1l-1.7,0.8l0.1,0.2l1.6-1l-1.7,0.8l0.4-0.2l-0.4,0.1l0,0l0.4-0.2l-0.4,0.1
			c0,0,0.1,0.3,0.2,0.8l17.4-1.8c-0.2-1.9-0.6-3.8-1.4-5.6c-1.1-2.7-3.1-5.4-5.8-6.9c-2.6-1.6-5.5-2.1-7.8-2.1
			c-3.5,0-6.3,0.9-8.9,1.9c-3.8,1.6-7.1,3.6-9.6,5.3c-2.5,1.7-4.1,3-4.2,3.1l-1,0.8l-52.9,78L331.6,114.8z"/>
	</g>
	<line class="st6" x1="35.9" y1="154.8" x2="72.1" y2="133.1"/>
	<line class="st6" x1="63.4" y1="167" x2="99.5" y2="145.3"/>
	<line class="st6" x1="223.4" y1="167" x2="259.6" y2="145.3"/>
	<line class="st6" x1="266.3" y1="169" x2="302.4" y2="147.3"/>
</g>
</svg>
