<?xml version="1.0" encoding="utf-8"?>
<!-- Generator: Adobe Illustrator 19.1.0, SVG Export Plug-In . SVG Version: 6.00 Build 0)  -->
<!DOCTYPE svg PUBLIC "-//W3C//DTD SVG 1.1//EN" "http://www.w3.org/Graphics/SVG/1.1/DTD/svg11.dtd">
<svg version="1.1" id="Layer_1" xmlns="http://www.w3.org/2000/svg" xmlns:xlink="http://www.w3.org/1999/xlink" x="0px" y="0px"
	 viewBox="0 0 423.9 494.5" style="enable-background:new 0 0 423.9 494.5;" xml:space="preserve">
<style type="text/css">
	.st0{fill:#C23133;}
	.st1{fill:#F6C215;}
	.st2{opacity:0.45;clip-path:url(#SVGID_2_);}
	.st3{clip-path:url(#SVGID_4_);fill:#00AEEF;}
	.st4{clip-path:url(#SVGID_6_);fill:#00AEEF;}
	.st5{clip-path:url(#SVGID_2_);fill:#010101;}
	.st6{fill:none;stroke:#FFFFFF;stroke-linecap:round;stroke-linejoin:round;}
	.st7{fill:#448CCB;}
	.st8{fill:#6DCFF6;}
	.st9{fill:#00BFF3;}
</style>
<g>
	<path class="st0" d="M151.9,41.3c0,0-64.3,19.1-81.2,30.3s-28.6,59.6-41.5,111S0,482.1,0,482.1h60.9c0,0,7.8-200.5,33-246.3
		c0,0,7.1,6.4,9.1,86s0,165.9,0,165.9l108.9,6.7l121.1-6.9l-3.2-246.7c0,0,8.4-2.6,22,76.5c13.6,79,11,155.9,11,155.9l60.3,1.5
		c0,0,7.8-196.5-25.3-304.3c-22-81.8-35-96-42.1-101.1c-7.1-5.1-66.1-29.4-68-28C285.7,42.7,232,65.3,151.9,41.3z"/>
	<path class="st1" d="M285.4,1c0,0-1-0.4-2.8-1c1.8,1.1,2.8,2.3,2.8,3.6c0,6.8-29.4,12.2-65.7,12.2s-65.7-5.5-65.7-12.2
		c0-1.1,0.8-2.2,2.4-3.3c-0.8,0.2-1.6,0.4-2.4,0.7l-4.8,43.4c0,0,51.3,34.3,139.7,0L285.4,1z"/>
	<g>
		<path class="st1" d="M351.8,317.3c13.6,79,11,155.9,11,155.9l60.3,1.5c0,0,7.8-196.5-25.3-304.3c-22-81.8-35-96-42.1-101.1
			c-1.2-0.9-3.9-2.3-7.5-4c-28.9,49.5-24.2,135.1-18.3,184.4l-0.1-8.8C329.8,240.8,338.2,238.3,351.8,317.3z"/>
		<path class="st1" d="M78.5,67.4c-3.1,1.5-5.8,2.9-7.7,4.2c-16.8,11.3-28.6,59.6-41.5,111S0,482.1,0,482.1h60.9
			c0,0,7.8-200.5,33-246.3c0,0,1.1,1,2.5,6.8C101.8,193.4,104.8,114.9,78.5,67.4z"/>
		<g>
			<path class="st1" d="M331,335.1l-1-73.1c-76.2,12.7-154.2,12.9-230.5,0.7c1.4,12.8,2.7,31.5,3.4,59.2c0.1,4.9,0.2,9.8,0.3,14.7
				C178.8,346.9,255.6,346.4,331,335.1z"/>
		</g>
		<g>
			<path class="st1" d="M331.8,395.6l-0.7-50.8c-75.3,12.6-152.3,13.1-227.7,1.5c0.3,17.5,0.4,34.8,0.4,51
				C179.5,407.9,256.4,407.3,331.8,395.6z"/>
		</g>
		<g>
			<path class="st1" d="M332.4,438.2l-0.4-32.1c-75.4,12.7-152.5,13.3-228.1,1.6c0,11.5-0.1,22.4-0.2,32.1
				C179.5,451,256.8,450.4,332.4,438.2z"/>
		</g>
	</g>
	<g>
		<path class="st1" d="M223.5,158.4c6.3,0,11.5,2.3,15.6,6.9c4.1,4.6,6.2,11,6.4,19.2c5.6-1.6,10.6-3.6,14.9-6
			c4.3-2.3,6.6-3.5,6.9-3.5c0.8,0,1.2,0.7,1.2,2.1s-2,3.5-5.9,6.4c-3.9,2.9-9.8,5.8-17.6,8.6c-1.6,12.2-6.6,21.7-14.8,28.3
			c-8.2,6.7-16.5,10-24.7,10s-13.7-3.1-16.5-9.2c-2.8-6.1-4.1-15.7-4.1-28.9c0-13.2,1-25.7,2.9-37.5c1.9-11.8,4.4-21.1,7.4-27.9
			c3-6.8,6.1-12,9.4-15.6s6.3-5.5,9.2-5.5c1.4,0,2.6,1.6,3.8,4.9c1.2,3.3,1.7,7.3,1.7,12.1c0,10.6-1.9,22.9-5.8,37.1
			C216.3,158.9,219.6,158.4,223.5,158.4z M214.5,126.7c0-5.8-0.8-8.7-2.3-8.7c-1.2,0-2.7,3-4.4,9c-1.7,6-3.3,14.1-4.7,24.3
			c-1.4,10.2-2.2,20.3-2.2,30.4C210,156,214.5,137.7,214.5,126.7z M232.8,195.5c-1.1,0.1-3.4,0.2-6.9,0.2c-3.5,0-7.3-1.2-11.5-3.6
			c-4.2-2.4-7-5.7-8.5-10c-1.4,3.4-3,6.7-4.7,9.9c0.3,10.4,1.1,17.9,2.5,22.4c1.4,4.5,3.6,6.8,6.6,6.8c4.8,0,9.5-2,14.1-6.1
			C228.9,211.1,231.7,204.5,232.8,195.5z M220.2,165.8c-1.9,0-3.5,0.6-4.6,1.7c-1.2,1.2-1.7,2.7-1.7,4.6c0,4.3,1.9,7.8,5.7,10.6
			c3.8,2.8,8.3,4.2,13.7,4.2c-0.1-5.6-1.2-10.6-3.3-14.8C227.9,167.9,224.6,165.8,220.2,165.8z"/>
	</g>
</g>
</svg>
