<?xml version="1.0" encoding="utf-8"?>
<!-- Generator: Adobe Illustrator 19.1.0, SVG Export Plug-In . SVG Version: 6.00 Build 0)  -->
<!DOCTYPE svg PUBLIC "-//W3C//DTD SVG 1.1//EN" "http://www.w3.org/Graphics/SVG/1.1/DTD/svg11.dtd">
<svg version="1.1" id="Layer_1" xmlns="http://www.w3.org/2000/svg" xmlns:xlink="http://www.w3.org/1999/xlink" x="0px" y="0px"
	 viewBox="0 0 1000 1000" style="enable-background:new 0 0 1000 1000;" xml:space="preserve">
<style type="text/css">
	.st0{opacity:0.2;}
	.st1{fill:#FFFFFF;}
</style>
<g>
	<g id="XMLID_1_" class="st0">
		<g id="XMLID_7_">
			<path id="XMLID_8_" d="M536,384.1v-161c0-28.9-26.6-69.2-55.5-69.2H270c-28.9,0-44,40.3-44,69.2V802c0,28.9,15.1,70,44,70h210.5
				c28.9,0,55.5-41.1,55.5-70v-7.8c0-5-18.6-11.3-28.7-16.3C484.8,766.7,464.3,747,448,747H251V225h259v164.7
				C536,386.9,536,385,536,384.1z M364.7,801h21c11.6,0,21,4.2,21,10c0,5.8-9.5,10-21,10h-21c-11.6,0-21.1-4.2-21.1-10
				C343.7,805.2,353.1,801,364.7,801z"/>
		</g>
		<g id="XMLID_4_">
			<g id="XMLID_5_">
				<path id="XMLID_6_" d="M408,454.6l-12.9-27.8c-17.7-10.8-29.5-30.2-29.5-52.3c0-33.9,27.5-61.4,61.4-61.4
					c33.9,0,61.4,27.5,61.4,61.4c0,4.4-0.5,8.7-1.4,12.9l12.3,26.6c6.4-11.8,10.1-25.2,10.1-39.5c0-45.5-37-82.5-82.4-82.5
					c-45.5,0-82.4,37-82.4,82.5C344.5,413.4,371.7,446,408,454.6z"/>
			</g>
		</g>
		<g id="XMLID_2_">
			<path id="XMLID_3_" d="M396.8,393c-18-38.8,44-67.6,62-28.8c14.4,31,89.8,193.5,89.8,193.5s-32.2-69.4-46.6-100.5
				c-14.4-31,47.7-59.8,62-28.8c14.4,31,54.2,116.7,54.2,116.7s-30.2-64.9-45.2-97.4c-15.1-32.5,62.3-48.6,77.3-16.2
				c15.1,32.5,45.2,97.4,45.2,97.4s-15.1-32.5-30.1-64.9c-15.1-32.5,56.4-45.9,71.5-13.5c15.1,32.5,60.6,131.9,59.5,171.9
				c-1.2,40,11.9,154.5-4.3,162c-16.2,7.5-129.8,60.2-146.1,67.8c-16.2,7.5-23.5-50.5-126-101.5c-125.1-62.2-134.3-76.9-141.8-93.1
				c-7.5-16.2,2.4-41,18.6-48.6c16.2-7.6,127.6,58.6,112.5,26.1c-15.1-32.5-15.1-32.5-15.1-32.5S411.2,424,396.8,393z"/>
		</g>
	</g>
	<g id="XMLID_457_">
		<g id="XMLID_473_">
			<path id="XMLID_480_" class="st1" d="M511,358.7v-161c0-28.9-27-68.8-55.9-68.8H244.6c-28.9,0-44.6,39.9-44.6,68.8v578.8
				c0,28.9,15.7,70.4,44.6,70.4h210.5c28.9,0,55.9-41.5,55.9-70.4v-7.8c0-5-18.8-11.1-28.8-16.1c-22.6-11.2-43.3-30.7-59.5-30.7H226
				V200h259v164.3C511,361.5,511,359.6,511,358.7z M339.3,776h21c11.6,0,21,3.7,21,9.5c0,5.8-9.5,9.5-21,9.5h-21
				c-11.6,0-21.1-3.7-21.1-9.5C318.3,779.7,327.7,776,339.3,776z"/>
		</g>
		<g id="XMLID_461_">
			<g id="XMLID_469_">
				<path id="XMLID_470_" class="st1" d="M382.6,429.2l-12.9-27.8c-17.7-10.8-29.5-30.2-29.5-52.3c0-33.9,27.5-61.4,61.4-61.4
					c33.9,0,61.4,27.5,61.4,61.4c0,4.4-0.5,8.7-1.4,12.9l12.3,26.6c6.4-11.8,10.1-25.2,10.1-39.5c0-45.5-37-82.5-82.4-82.5
					c-45.5,0-82.4,37-82.4,82.5C319.1,388,346.3,420.6,382.6,429.2z"/>
			</g>
		</g>
		<g id="XMLID_459_">
			<path id="XMLID_460_" class="st1" d="M371.4,367.6c-18-38.8,44-67.6,62-28.8c14.4,31,89.8,193.5,89.8,193.5
				s-32.2-69.4-46.6-100.5c-14.4-31,47.7-59.8,62-28.8c14.4,31,54.2,116.7,54.2,116.7s-30.2-64.9-45.2-97.4
				c-15.1-32.5,62.3-48.6,77.3-16.2c15.1,32.5,45.2,97.4,45.2,97.4s-15.1-32.5-30.1-64.9c-15.1-32.5,56.4-45.9,71.5-13.5
				c15.1,32.5,60.6,131.9,59.5,171.9c-1.2,40,11.9,154.5-4.3,162c-16.2,7.5-129.8,60.2-146.1,67.8c-16.2,7.5-23.5-50.5-126-101.5
				c-125.1-62.2-134.3-76.9-141.8-93.1c-7.5-16.2,2.4-41,18.6-48.6s127.6,58.6,112.5,26.1c-15.1-32.5-15.1-32.5-15.1-32.5
				S385.8,398.7,371.4,367.6z"/>
		</g>
	</g>
</g>
</svg>
