<?xml version="1.0" encoding="utf-8"?>
<!-- Generator: Adobe Illustrator 19.1.0, SVG Export Plug-In . SVG Version: 6.00 Build 0)  -->
<!DOCTYPE svg PUBLIC "-//W3C//DTD SVG 1.1//EN" "http://www.w3.org/Graphics/SVG/1.1/DTD/svg11.dtd">
<svg version="1.1" id="Layer_1" xmlns="http://www.w3.org/2000/svg" xmlns:xlink="http://www.w3.org/1999/xlink" x="0px" y="0px"
	 viewBox="0 0 1000 1000" style="enable-background:new 0 0 1000 1000;" xml:space="preserve">
<style type="text/css">
	.st0{opacity:0.2;}
	.st1{fill:#FBFBFB;}
</style>
<g>
	<g class="st0">
		<rect x="574.4" y="643" width="64.2" height="157"/>
		<rect x="662.6" y="597.2" width="64.2" height="202.8"/>
		<rect x="750.8" y="551.4" width="64.2" height="248.6"/>
		<path d="M768.9,519c-0.3,4.7-0.9,9.3-1.5,14h38.4c0.7-7.8,1.4-15.7,1.5-23.7h0.2c0,0,0-2.6,0-2.6h-0.2
			C805.2,352.3,681.6,223.6,527.8,219v-0.1c-2,0-7.1-0.2-14.2,0v0.1C359.7,223.5,236.2,348.2,234,502.6h-0.2c0,0,0,2.6,0,2.6h0.2
			c2.2,154.4,125.7,283.2,279.6,287.7v0.1c2,0.1,12.3,0.1,14.2,0V793c9.5-0.3,19-1,28.2-2.2v-81c-5.6,6.6-11.4,13.1-17.6,19.4v-76.3
			H556v-28.2h88.2v-45.8h18.1c4-19.6,6.6-39.6,7.2-59.8H768.9z M470.9,261.8c-27.6,27-49.4,58.9-65.8,93.3h-81.7
			C359.3,308.2,411.1,274.2,470.9,261.8z M299.4,393h90.3c-9.5,28.4-15.2,58-17.1,88.1h-99.5C276.4,449.6,285.6,419.9,299.4,393z
			 M298.8,615c-14.6-29.4-23.8-61.9-26.2-95.9h99.5c1.3,32.2,7.1,64.5,17.5,95.9H298.8z M321.9,652.9h82.7
			c16.1,34.6,37.8,67.6,66.3,97.3C410.3,737.6,357.8,701.7,321.9,652.9z M503,729.2c-23.3-23.7-42.2-49.4-56.9-76.3H503V729.2z
			 M503,615h-74.3c-12-31.2-18.6-63.5-20-95.9H503V615z M503,481.1h-93.6c2.5-29.9,9.5-59.6,21-88.1H503V481.1z M503,355.1h-54.4
			c14.4-25.5,32.4-49.9,54.4-72.3V355.1z M538.4,282.8c22.1,22.5,40.1,46.8,54.5,72.3h-54.5V282.8z M538.4,393h72.8
			c11.5,28.6,18.5,58.3,20.9,88.1h-93.7V393z M612.5,615h-74.1V519h94.3C631.2,551.6,624.5,583.9,612.5,615z M635,355.1
			c-15.9-33.1-37.2-64.7-64.5-93.3c58.9,12.3,110.1,46.5,146,93.3H635z M650.4,393h90.1c14.1,27.1,23.5,56.8,27.2,88.1h-98.8
			C666.7,451.5,660.3,421.9,650.4,393z"/>
	</g>
	<g>
		<rect x="555.6" y="624.2" class="st1" width="64.2" height="157"/>
		<rect x="643.8" y="578.4" class="st1" width="64.2" height="202.8"/>
		<rect x="732" y="532.6" class="st1" width="64.2" height="248.6"/>
		<path class="st1" d="M750.1,500.2c-0.3,4.7-0.9,9.3-1.5,14h38.4c0.7-7.8,1.4-15.7,1.5-23.7h0.2c0,0,0-2.6,0-2.6h-0.2
			C786.3,333.5,662.8,204.8,509,200.2V200c-2,0-7.1-0.2-14.2,0v0.1c-153.9,4.5-277.4,129.2-279.6,283.6H215c0,0,0,2.6,0,2.6h0.2
			c2.2,154.4,125.7,283.2,279.6,287.7v0.1c2,0.1,12.3,0.1,14.2,0v-0.1c9.5-0.3,19-1,28.2-2.2v-81c-5.6,6.6-11.4,13.1-17.6,19.4V634
			h17.6v-28.2h88.2V560h18.1c4-19.6,6.6-39.6,7.2-59.8H750.1z M452.1,242.9c-27.6,27-49.4,58.9-65.8,93.3h-81.7
			C340.4,289.4,392.3,255.4,452.1,242.9z M280.6,374.1h90.3c-9.5,28.4-15.2,58-17.1,88.1h-99.5C257.5,430.8,266.7,401.1,280.6,374.1
			z M280,596.1c-14.6-29.4-23.8-61.9-26.2-95.9h99.5c1.3,32.2,7.1,64.5,17.5,95.9H280z M303.1,634h82.7
			c16.1,34.6,37.8,67.6,66.3,97.3C391.5,718.8,339,682.9,303.1,634z M484.2,710.3C460.8,686.7,442,661,427.3,634h56.9V710.3z
			 M484.2,596.1h-74.3c-12-31.2-18.6-63.5-20-95.9h94.3V596.1z M484.2,462.3h-93.6c2.5-29.9,9.5-59.6,21-88.1h72.7V462.3z
			 M484.2,336.2h-54.4c14.4-25.5,32.4-49.9,54.4-72.3V336.2z M519.5,264c22.1,22.5,40.1,46.8,54.5,72.3h-54.5V264z M519.5,374.1
			h72.8c11.5,28.6,18.5,58.3,20.9,88.1h-93.7V374.1z M593.7,596.1h-74.1v-95.9h94.3C612.4,532.7,605.7,565,593.7,596.1z
			 M616.2,336.2c-15.9-33.1-37.2-64.7-64.5-93.3c58.9,12.3,110.1,46.5,146,93.3H616.2z M631.6,374.1h90.1
			c14.1,27.1,23.5,56.8,27.2,88.1h-98.8C647.8,432.6,641.5,403,631.6,374.1z"/>
	</g>
</g>
</svg>
