<?xml version="1.0" encoding="utf-8"?>
<!-- Generator: Adobe Illustrator 19.1.0, SVG Export Plug-In . SVG Version: 6.00 Build 0)  -->
<!DOCTYPE svg PUBLIC "-//W3C//DTD SVG 1.1//EN" "http://www.w3.org/Graphics/SVG/1.1/DTD/svg11.dtd">
<svg version="1.1" id="Layer_1" xmlns="http://www.w3.org/2000/svg" xmlns:xlink="http://www.w3.org/1999/xlink" x="0px" y="0px"
	 viewBox="0 0 1000 1000" style="enable-background:new 0 0 1000 1000;" xml:space="preserve">
<style type="text/css">
	.st0{opacity:0.2;}
	.st1{fill:#FFFFFF;}
</style>
<g class="st0">
	<path d="M525.1,666.7c40.3,0,76.5-16.8,102.4-43.6c24.7-25.6,39.9-60.4,39.9-98.7c0-71.5-52.7-130.5-121.4-140.7
		c-6.8-1.1-13.8-1.7-20.9-1.7c-78.6,0-142.4,63.7-142.4,142.4C382.8,602.9,446.5,666.7,525.1,666.7z M517.3,534.5
		c-22.7-7.6-38.2-18.2-38.2-38.8c0-18.7,13.1-33.3,35.8-37.7v-20.1h20.8v18.7c14.2,0.6,23.7,3.6,30.7,7l-6.2,23.9
		c-5.5-2.3-15.2-7.2-30.5-7.2c-13.8,0-18.2,5.9-18.2,11.9c0,7,7.4,11.5,25.4,18.2c25.2,8.9,35.4,20.6,35.4,39.6
		c0,18.9-13.4,35-37.7,39.2v21.6h-20.8v-20.1c-14.2-0.6-28-4.5-36-9.1l6.4-24.8c8.9,4.9,21.4,9.3,35.2,9.3
		c12.1,0,20.3-4.7,20.3-13.1C539.7,544.8,533,539.8,517.3,534.5z"/>
	<path d="M735.2,506c8.7,77.7-25.5,153.7-91.1,198.8c-28.6,19.6-66.9,30.5-108,30.5c-46.5,0-91.2-13.6-129.1-39.2l-16.3-11
		c0,0,12.3-19,23.2-35.9c3.4-5.2,3.6-11.8,0.7-17.3c-3-5.4-8.7-8.8-14.9-8.8c-40.4-0.1-110.3-0.2-148.2-0.2
		c-5.7,0-11.1,2.9-14.2,7.7c-3.1,4.8-3.6,10.9-1.2,16.1L297,782.1c2.5,5.7,7.9,9.5,14.1,9.9c6.2,0.5,12.1-2.5,15.5-7.7
		c11.2-17.3,23.8-36.8,23.8-36.8l16.9,11.5c46.3,31.6,100.6,48.3,156.9,48.3c56.2,0,110.4-16.9,157-48.8
		c82.7-56.8,128.5-155.1,119.6-254.4L735.2,506z"/>
	<path d="M814,402l-60.8-135.5c-2.5-5.7-7.9-9.5-14.1-9.9c-6.2-0.5-12.1,2.5-15.5,7.7c-11.2,17.3-23.8,36.8-23.8,36.8L683,289.5
		c-46.3-31.6-100.6-48.3-156.9-48.3c-56.2,0-110.4,16.9-157,48.8c-82.7,56.8-128.5,155.1-119.6,254.4l65.6-1.7
		c-8.7-77.7,25.4-153.7,91.1-198.8c28.6-19.6,66.9-30.5,108-30.5c46.5,0,91.2,13.6,129.1,39.2l16.3,11c0,0-12.3,19-23.2,35.9
		c-3.4,5.2-3.6,11.8-0.7,17.3c3,5.4,8.7,8.8,14.9,8.8c40.4,0.1,110.3,0.2,148.1,0.2c5.7,0,11.1-2.9,14.2-7.7
		C815.9,413.3,816.4,407.2,814,402z"/>
</g>
<g>
	<path class="st1" d="M505.9,648.1c40.3,0,76.5-16.8,102.4-43.6c24.7-25.6,39.9-60.4,39.9-98.7c0-71.5-52.7-130.5-121.4-140.7
		c-6.8-1-13.8-1.7-20.9-1.7c-78.6,0-142.4,63.7-142.4,142.4C363.6,584.3,427.3,648.1,505.9,648.1z M498.1,515.9
		c-22.7-7.6-38.2-18.2-38.2-38.8c0-18.7,13.1-33.3,35.8-37.7v-20.1h20.8v18.7c14.2,0.6,23.7,3.6,30.7,7l-6.2,23.9
		c-5.5-2.3-15.2-7.2-30.5-7.2c-13.8,0-18.2,5.9-18.2,11.9c0,7,7.4,11.5,25.4,18.2c25.2,8.9,35.4,20.6,35.4,39.6
		c0,18.9-13.4,35-37.7,39.2v21.6h-20.8V572c-14.2-0.6-28-4.5-36-9.1l6.4-24.8c8.9,4.9,21.4,9.3,35.2,9.3c12.1,0,20.3-4.7,20.3-13.1
		C520.5,526.3,513.8,521.2,498.1,515.9z"/>
	<path class="st1" d="M716,487.4c8.7,77.7-25.5,153.7-91.1,198.8c-28.6,19.6-66.9,30.5-108,30.5c-46.5,0-91.2-13.6-129.1-39.2
		l-16.3-11c0,0,12.3-19,23.2-35.9c3.4-5.2,3.6-11.8,0.7-17.3c-3-5.4-8.7-8.8-14.9-8.8c-40.4-0.1-110.3-0.2-148.2-0.2
		c-5.7,0-11.1,2.9-14.2,7.7c-3.1,4.8-3.6,10.9-1.2,16.1l60.8,135.5c2.5,5.7,7.9,9.5,14.1,9.9c6.2,0.5,12.1-2.5,15.5-7.7
		c11.2-17.3,23.8-36.8,23.8-36.8l16.9,11.5c46.3,31.6,100.6,48.3,156.9,48.3c56.2,0,110.4-16.9,157-48.8
		c82.7-56.8,128.5-155.1,119.6-254.4L716,487.4z"/>
	<path class="st1" d="M794.8,383.4l-60.8-135.5c-2.5-5.7-7.9-9.5-14.1-9.9c-6.2-0.5-12.1,2.5-15.5,7.7
		c-11.2,17.3-23.8,36.8-23.8,36.8l-16.9-11.5c-46.3-31.6-100.6-48.3-156.9-48.3c-56.2,0-110.4,16.9-157,48.8
		c-82.7,56.8-128.5,155.1-119.6,254.4l65.6-1.7c-8.7-77.7,25.4-153.7,91.1-198.8c28.6-19.6,66.9-30.5,108-30.5
		c46.5,0,91.2,13.6,129.1,39.2l16.3,11c0,0-12.3,19-23.2,35.9c-3.4,5.2-3.6,11.8-0.7,17.3c3,5.4,8.7,8.8,14.9,8.8
		c40.4,0.1,110.3,0.2,148.1,0.2c5.7,0,11.1-2.9,14.2-7.7C796.7,394.7,797.2,388.6,794.8,383.4z"/>
</g>
</svg>
