<?xml version="1.0" encoding="utf-8"?>
<!-- Generator: Adobe Illustrator 19.1.0, SVG Export Plug-In . SVG Version: 6.00 Build 0)  -->
<!DOCTYPE svg PUBLIC "-//W3C//DTD SVG 1.1//EN" "http://www.w3.org/Graphics/SVG/1.1/DTD/svg11.dtd">
<svg version="1.1" id="Layer_1" xmlns="http://www.w3.org/2000/svg" xmlns:xlink="http://www.w3.org/1999/xlink" x="0px" y="0px"
	 viewBox="0 0 1000 1000" style="enable-background:new 0 0 1000 1000;" xml:space="preserve">
<style type="text/css">
	.st0{opacity:0.2;}
	.st1{fill:#5D5E5E;}
	.st2{fill:#FFFFFF;}
</style>
<g class="st0">
	<path class="st1" d="M770.9,632.7H264.7V290.2c0-12.3-10-22.3-22.3-22.3c-12.3,0-22.3,10-22.3,22.3V655c0,12.3,10,22.3,22.3,22.3
		h528.6c12.3,0,22.3-10,22.3-22.3C793.2,642.7,783.3,632.7,770.9,632.7z"/>
	<path class="st1" d="M341.3,594.1c14.2,0,25.7-11.5,25.7-25.7c0-0.3,0-0.5,0-0.8c0.7-0.1,1.4-0.3,2.1-0.7l86.1-45.8
		c0.8-0.4,1.4-0.9,1.9-1.6c4,2.6,8.9,4.2,14,4.2c11.9,0,21.9-8.1,24.8-19l77.2,25.8c0.7,0.2,1.4,0.3,2.1,0.3c0.3,0,0.6,0,0.9-0.1
		c2.9,11,12.9,19.2,24.8,19.2c11.9,0,22-8.1,24.8-19.2c0.3,0,0.6,0.1,0.9,0.1c1.8,0,3.7-0.8,5-2.3l89-102.1c0.3-0.4,0.6-0.8,0.8-1.2
		c2.9,1.1,6,1.8,9.3,1.8c14.2,0,25.7-11.5,25.7-25.7c0-14.2-11.5-25.7-25.7-25.7c-14.2,0-25.7,11.5-25.7,25.7
		c0,6.2,2.2,11.8,5.8,16.2c-0.1,0.1-0.1,0.1-0.2,0.2l-85.4,98.1c-3.5-10.1-13-17.3-24.3-17.3c-11.9,0-21.9,8.1-24.8,19l-77.2-25.8
		c-1-0.3-2-0.4-3-0.3c-2.9-11-12.9-19.2-24.9-19.2c-14.2,0-25.7,11.5-25.7,25.7c0,4.2,1,8.2,2.9,11.8L363.2,555
		c-4.5-7.4-12.6-12.3-21.9-12.3c-14.2,0-25.7,11.5-25.7,25.7C315.6,582.6,327.1,594.1,341.3,594.1z"/>
</g>
<g>
	<path class="st2" d="M744.2,605.9H237.9V263.5c0-12.3-10-22.3-22.3-22.3s-22.3,10-22.3,22.3v364.8c0,12.3,10,22.3,22.3,22.3h528.6
		c12.3,0,22.3-10,22.3-22.3C766.5,615.9,756.5,605.9,744.2,605.9z"/>
	<path class="st2" d="M314.5,567.3c14.2,0,25.7-11.5,25.7-25.7c0-0.3,0-0.5,0-0.8c0.7-0.1,1.4-0.3,2.1-0.7l86.1-45.8
		c0.8-0.4,1.4-0.9,1.9-1.6c4,2.6,8.9,4.2,14,4.2c11.9,0,21.9-8.1,24.8-19l77.2,25.8c0.7,0.2,1.4,0.3,2.1,0.3c0.3,0,0.6,0,0.9-0.1
		c2.9,11,12.9,19.2,24.8,19.2c11.9,0,22-8.1,24.8-19.2c0.3,0,0.6,0.1,0.9,0.1c1.8,0,3.7-0.8,5-2.3l89-102.1c0.3-0.4,0.6-0.8,0.8-1.2
		c2.9,1.1,6,1.8,9.3,1.8c14.2,0,25.7-11.5,25.7-25.7s-11.5-25.7-25.7-25.7c-14.2,0-25.7,11.5-25.7,25.7c0,6.2,2.2,11.8,5.8,16.2
		c-0.1,0.1-0.1,0.1-0.2,0.2L598.5,489c-3.5-10.1-13-17.3-24.3-17.3c-11.9,0-21.9,8.1-24.8,19l-77.2-25.8c-1-0.3-2-0.4-3-0.3
		c-2.9-11-12.9-19.2-24.9-19.2c-14.2,0-25.7,11.5-25.7,25.7c0,4.2,1,8.2,2.9,11.8l-85.1,45.3c-4.5-7.4-12.6-12.3-21.9-12.3
		c-14.2,0-25.7,11.5-25.7,25.7C288.8,555.8,300.3,567.3,314.5,567.3z"/>
</g>
</svg>
